M48
; DRILL file {KiCad (5.1.9-16-g1737927814)-1} date 07/03/21 16:47:34
; FORMAT={3:3/ absolute / metric / suppress leading zeros}
; #@! TF.CreationDate,2021-07-03T16:47:34+02:00
; #@! TF.GenerationSoftware,Kicad,Pcbnew,(5.1.9-16-g1737927814)-1
; #@! TF.FileFunction,Plated,1,2,PTH
FMAT,2
METRIC,TZ
T1C0.700
%
G90
G05
T1
X53000Y-51000
X53000Y-53000
X53000Y-55000
X53000Y-57000
X53000Y-59000
X53000Y-63000
X53000Y-65000
X53000Y-67000
X53000Y-69000
X53000Y-71000
X53000Y-73000
X53000Y-75000
X53000Y-77000
X53000Y-79000
X53000Y-81000
X53000Y-83000
X53000Y-85000
X53000Y-87000
X53000Y-89000
X53000Y-91000
X53000Y-93000
X53000Y-95000
X53000Y-97000
X53000Y-99000
X55000Y-50000
X55000Y-52000
X55000Y-54000
X55000Y-56000
X55000Y-58000
X55000Y-60000
X55000Y-64000
X55000Y-66000
X55000Y-68000
X55000Y-70000
X55000Y-72000
X55000Y-74000
X55000Y-76000
X55000Y-78000
X55000Y-80000
X55000Y-82000
X55000Y-84000
X55000Y-86000
X55000Y-88000
X55000Y-90000
X55000Y-92000
X55000Y-94000
X55000Y-96000
X55000Y-98000
X55000Y-100000
X57500Y-50000
X57500Y-52000
X57500Y-54000
X57500Y-56000
X57500Y-58000
X57500Y-60000
X57500Y-64000
X57500Y-66000
X57500Y-68000
X57500Y-70000
X57500Y-72000
X57500Y-74000
X57500Y-76000
X57500Y-78000
X57500Y-80000
X57500Y-82000
X57500Y-84000
X57500Y-86000
X57500Y-88000
X57500Y-90000
X57500Y-92000
X57500Y-94000
X57500Y-96000
X57500Y-98000
X57500Y-100000
X59500Y-51000
X59500Y-53000
X59500Y-55000
X59500Y-57000
X59500Y-59000
X59500Y-63000
X59500Y-65000
X59500Y-67000
X59500Y-69000
X59500Y-71000
X59500Y-73000
X59500Y-75000
X59500Y-77000
X59500Y-79000
X59500Y-81000
X59500Y-83000
X59500Y-85000
X59500Y-87000
X59500Y-89000
X59500Y-91000
X59500Y-93000
X59500Y-95000
X59500Y-97000
X59500Y-99000
X68000Y-51000
X68000Y-53000
X68000Y-55000
X68000Y-57000
X68000Y-59000
X68000Y-63000
X68000Y-65000
X68000Y-67000
X68000Y-69000
X68000Y-71000
X68000Y-73000
X68000Y-75000
X68000Y-77000
X68000Y-79000
X68000Y-81000
X68000Y-83000
X68000Y-85000
X68000Y-87000
X68000Y-89000
X68000Y-91000
X68000Y-93000
X68000Y-95000
X68000Y-97000
X68000Y-99000
X70000Y-50000
X70000Y-52000
X70000Y-54000
X70000Y-56000
X70000Y-58000
X70000Y-60000
X70000Y-64000
X70000Y-66000
X70000Y-68000
X70000Y-70000
X70000Y-72000
X70000Y-74000
X70000Y-76000
X70000Y-78000
X70000Y-80000
X70000Y-82000
X70000Y-84000
X70000Y-86000
X70000Y-88000
X70000Y-90000
X70000Y-92000
X70000Y-94000
X70000Y-96000
X70000Y-98000
X70000Y-100000
X72500Y-50000
X72500Y-52000
X72500Y-54000
X72500Y-56000
X72500Y-58000
X72500Y-60000
X72500Y-64000
X72500Y-66000
X72500Y-68000
X72500Y-70000
X72500Y-72000
X72500Y-74000
X72500Y-76000
X72500Y-78000
X72500Y-80000
X72500Y-82000
X72500Y-84000
X72500Y-86000
X72500Y-88000
X72500Y-90000
X72500Y-92000
X72500Y-94000
X72500Y-96000
X72500Y-98000
X72500Y-100000
X74500Y-51000
X74500Y-53000
X74500Y-55000
X74500Y-57000
X74500Y-59000
X74500Y-63000
X74500Y-65000
X74500Y-67000
X74500Y-69000
X74500Y-71000
X74500Y-73000
X74500Y-75000
X74500Y-77000
X74500Y-79000
X74500Y-81000
X74500Y-83000
X74500Y-85000
X74500Y-87000
X74500Y-89000
X74500Y-91000
X74500Y-93000
X74500Y-95000
X74500Y-97000
X74500Y-99000
X83000Y-51000
X83000Y-53000
X83000Y-55000
X83000Y-57000
X83000Y-59000
X83000Y-63000
X83000Y-65000
X83000Y-67000
X83000Y-69000
X83000Y-71000
X83000Y-73000
X83000Y-75000
X83000Y-77000
X83000Y-79000
X83000Y-81000
X83000Y-83000
X83000Y-85000
X83000Y-87000
X83000Y-89000
X83000Y-91000
X83000Y-93000
X83000Y-95000
X83000Y-97000
X83000Y-99000
X85000Y-50000
X85000Y-52000
X85000Y-54000
X85000Y-56000
X85000Y-58000
X85000Y-60000
X85000Y-64000
X85000Y-66000
X85000Y-68000
X85000Y-70000
X85000Y-72000
X85000Y-74000
X85000Y-76000
X85000Y-78000
X85000Y-80000
X85000Y-82000
X85000Y-84000
X85000Y-86000
X85000Y-88000
X85000Y-90000
X85000Y-92000
X85000Y-94000
X85000Y-96000
X85000Y-98000
X85000Y-100000
X87500Y-50000
X87500Y-52000
X87500Y-54000
X87500Y-56000
X87500Y-58000
X87500Y-60000
X87500Y-64000
X87500Y-66000
X87500Y-68000
X87500Y-70000
X87500Y-72000
X87500Y-74000
X87500Y-76000
X87500Y-78000
X87500Y-80000
X87500Y-82000
X87500Y-84000
X87500Y-86000
X87500Y-88000
X87500Y-90000
X87500Y-92000
X87500Y-94000
X87500Y-96000
X87500Y-98000
X87500Y-100000
X89500Y-51000
X89500Y-53000
X89500Y-55000
X89500Y-57000
X89500Y-59000
X89500Y-63000
X89500Y-65000
X89500Y-67000
X89500Y-69000
X89500Y-71000
X89500Y-73000
X89500Y-75000
X89500Y-77000
X89500Y-79000
X89500Y-81000
X89500Y-83000
X89500Y-85000
X89500Y-87000
X89500Y-89000
X89500Y-91000
X89500Y-93000
X89500Y-95000
X89500Y-97000
X89500Y-99000
X98000Y-51000
X98000Y-53000
X98000Y-55000
X98000Y-57000
X98000Y-59000
X98000Y-63000
X98000Y-65000
X98000Y-67000
X98000Y-69000
X98000Y-71000
X98000Y-73000
X98000Y-75000
X98000Y-77000
X98000Y-79000
X98000Y-81000
X98000Y-83000
X98000Y-85000
X98000Y-87000
X98000Y-89000
X98000Y-91000
X98000Y-93000
X98000Y-95000
X98000Y-97000
X98000Y-99000
X100000Y-50000
X100000Y-52000
X100000Y-54000
X100000Y-56000
X100000Y-58000
X100000Y-60000
X100000Y-64000
X100000Y-66000
X100000Y-68000
X100000Y-70000
X100000Y-72000
X100000Y-74000
X100000Y-76000
X100000Y-78000
X100000Y-80000
X100000Y-82000
X100000Y-84000
X100000Y-86000
X100000Y-88000
X100000Y-90000
X100000Y-92000
X100000Y-94000
X100000Y-96000
X100000Y-98000
X100000Y-100000
X102500Y-50000
X102500Y-52000
X102500Y-54000
X102500Y-56000
X102500Y-58000
X102500Y-60000
X102500Y-64000
X102500Y-66000
X102500Y-68000
X102500Y-70000
X102500Y-72000
X102500Y-74000
X102500Y-76000
X102500Y-78000
X102500Y-80000
X102500Y-82000
X102500Y-84000
X102500Y-86000
X102500Y-88000
X102500Y-90000
X102500Y-92000
X102500Y-94000
X102500Y-96000
X102500Y-98000
X102500Y-100000
X104500Y-51000
X104500Y-53000
X104500Y-55000
X104500Y-57000
X104500Y-59000
X104500Y-63000
X104500Y-65000
X104500Y-67000
X104500Y-69000
X104500Y-71000
X104500Y-73000
X104500Y-75000
X104500Y-77000
X104500Y-79000
X104500Y-81000
X104500Y-83000
X104500Y-85000
X104500Y-87000
X104500Y-89000
X104500Y-91000
X104500Y-93000
X104500Y-95000
X104500Y-97000
X104500Y-99000
X113000Y-51000
X113000Y-53000
X113000Y-55000
X113000Y-57000
X113000Y-59000
X113000Y-63000
X113000Y-65000
X113000Y-67000
X113000Y-69000
X113000Y-71000
X113000Y-73000
X113000Y-75000
X113000Y-77000
X113000Y-79000
X113000Y-81000
X113000Y-83000
X113000Y-85000
X113000Y-87000
X113000Y-89000
X113000Y-91000
X113000Y-93000
X113000Y-95000
X113000Y-97000
X113000Y-99000
X115000Y-50000
X115000Y-52000
X115000Y-54000
X115000Y-56000
X115000Y-58000
X115000Y-60000
X115000Y-64000
X115000Y-66000
X115000Y-68000
X115000Y-70000
X115000Y-72000
X115000Y-74000
X115000Y-76000
X115000Y-78000
X115000Y-80000
X115000Y-82000
X115000Y-84000
X115000Y-86000
X115000Y-88000
X115000Y-90000
X115000Y-92000
X115000Y-94000
X115000Y-96000
X115000Y-98000
X115000Y-100000
X117500Y-50000
X117500Y-52000
X117500Y-54000
X117500Y-56000
X117500Y-58000
X117500Y-60000
X117500Y-64000
X117500Y-66000
X117500Y-68000
X117500Y-70000
X117500Y-72000
X117500Y-74000
X117500Y-76000
X117500Y-78000
X117500Y-80000
X117500Y-82000
X117500Y-84000
X117500Y-86000
X117500Y-88000
X117500Y-90000
X117500Y-92000
X117500Y-94000
X117500Y-96000
X117500Y-98000
X117500Y-100000
X119500Y-51000
X119500Y-53000
X119500Y-55000
X119500Y-57000
X119500Y-59000
X119500Y-63000
X119500Y-65000
X119500Y-67000
X119500Y-69000
X119500Y-71000
X119500Y-73000
X119500Y-75000
X119500Y-77000
X119500Y-79000
X119500Y-81000
X119500Y-83000
X119500Y-85000
X119500Y-87000
X119500Y-89000
X119500Y-91000
X119500Y-93000
X119500Y-95000
X119500Y-97000
X119500Y-99000
X133500Y-51000
X133500Y-53000
X133500Y-55000
X133500Y-57000
X133500Y-59000
X133500Y-63000
X133500Y-65000
X133500Y-67000
X133500Y-69000
X133500Y-71000
X133500Y-73000
X133500Y-75000
X133500Y-77000
X133500Y-79000
X133500Y-81000
X133500Y-83000
X133500Y-85000
X133500Y-87000
X133500Y-89000
X133500Y-91000
X133500Y-93000
X133500Y-95000
X133500Y-97000
X133500Y-99000
X135500Y-50000
X135500Y-52000
X135500Y-54000
X135500Y-56000
X135500Y-58000
X135500Y-60000
X135500Y-64000
X135500Y-66000
X135500Y-68000
X135500Y-70000
X135500Y-72000
X135500Y-74000
X135500Y-76000
X135500Y-78000
X135500Y-80000
X135500Y-82000
X135500Y-84000
X135500Y-86000
X135500Y-88000
X135500Y-90000
X135500Y-92000
X135500Y-94000
X135500Y-96000
X135500Y-98000
X135500Y-100000
X138000Y-50000
X138000Y-52000
X138000Y-54000
X138000Y-56000
X138000Y-58000
X138000Y-60000
X138000Y-64000
X138000Y-66000
X138000Y-68000
X138000Y-70000
X138000Y-72000
X138000Y-74000
X138000Y-76000
X138000Y-78000
X138000Y-80000
X138000Y-82000
X138000Y-84000
X138000Y-86000
X138000Y-88000
X138000Y-90000
X138000Y-92000
X138000Y-94000
X138000Y-96000
X138000Y-98000
X138000Y-100000
X140000Y-51000
X140000Y-53000
X140000Y-55000
X140000Y-57000
X140000Y-59000
X140000Y-63000
X140000Y-65000
X140000Y-67000
X140000Y-69000
X140000Y-71000
X140000Y-73000
X140000Y-75000
X140000Y-77000
X140000Y-79000
X140000Y-81000
X140000Y-83000
X140000Y-85000
X140000Y-87000
X140000Y-89000
X140000Y-91000
X140000Y-93000
X140000Y-95000
X140000Y-97000
X140000Y-99000
X148500Y-51000
X148500Y-53000
X148500Y-55000
X148500Y-57000
X148500Y-59000
X148500Y-63000
X148500Y-65000
X148500Y-67000
X148500Y-69000
X148500Y-71000
X148500Y-73000
X148500Y-75000
X148500Y-77000
X148500Y-79000
X148500Y-81000
X148500Y-83000
X148500Y-85000
X148500Y-87000
X148500Y-89000
X148500Y-91000
X148500Y-93000
X148500Y-95000
X148500Y-97000
X148500Y-99000
X150500Y-50000
X150500Y-52000
X150500Y-54000
X150500Y-56000
X150500Y-58000
X150500Y-60000
X150500Y-64000
X150500Y-66000
X150500Y-68000
X150500Y-70000
X150500Y-72000
X150500Y-74000
X150500Y-76000
X150500Y-78000
X150500Y-80000
X150500Y-82000
X150500Y-84000
X150500Y-86000
X150500Y-88000
X150500Y-90000
X150500Y-92000
X150500Y-94000
X150500Y-96000
X150500Y-98000
X150500Y-100000
X153000Y-50000
X153000Y-52000
X153000Y-54000
X153000Y-56000
X153000Y-58000
X153000Y-60000
X153000Y-64000
X153000Y-66000
X153000Y-68000
X153000Y-70000
X153000Y-72000
X153000Y-74000
X153000Y-76000
X153000Y-78000
X153000Y-80000
X153000Y-82000
X153000Y-84000
X153000Y-86000
X153000Y-88000
X153000Y-90000
X153000Y-92000
X153000Y-94000
X153000Y-96000
X153000Y-98000
X153000Y-100000
X155000Y-51000
X155000Y-53000
X155000Y-55000
X155000Y-57000
X155000Y-59000
X155000Y-63000
X155000Y-65000
X155000Y-67000
X155000Y-69000
X155000Y-71000
X155000Y-73000
X155000Y-75000
X155000Y-77000
X155000Y-79000
X155000Y-81000
X155000Y-83000
X155000Y-85000
X155000Y-87000
X155000Y-89000
X155000Y-91000
X155000Y-93000
X155000Y-95000
X155000Y-97000
X155000Y-99000
X163500Y-51000
X163500Y-53000
X163500Y-55000
X163500Y-57000
X163500Y-59000
X163500Y-63000
X163500Y-65000
X163500Y-67000
X163500Y-69000
X163500Y-71000
X163500Y-73000
X163500Y-75000
X163500Y-77000
X163500Y-79000
X163500Y-81000
X163500Y-83000
X163500Y-85000
X163500Y-87000
X163500Y-89000
X163500Y-91000
X163500Y-93000
X163500Y-95000
X163500Y-97000
X163500Y-99000
X165500Y-50000
X165500Y-52000
X165500Y-54000
X165500Y-56000
X165500Y-58000
X165500Y-60000
X165500Y-64000
X165500Y-66000
X165500Y-68000
X165500Y-70000
X165500Y-72000
X165500Y-74000
X165500Y-76000
X165500Y-78000
X165500Y-80000
X165500Y-82000
X165500Y-84000
X165500Y-86000
X165500Y-88000
X165500Y-90000
X165500Y-92000
X165500Y-94000
X165500Y-96000
X165500Y-98000
X165500Y-100000
X168000Y-50000
X168000Y-52000
X168000Y-54000
X168000Y-56000
X168000Y-58000
X168000Y-60000
X168000Y-64000
X168000Y-66000
X168000Y-68000
X168000Y-70000
X168000Y-72000
X168000Y-74000
X168000Y-76000
X168000Y-78000
X168000Y-80000
X168000Y-82000
X168000Y-84000
X168000Y-86000
X168000Y-88000
X168000Y-90000
X168000Y-92000
X168000Y-94000
X168000Y-96000
X168000Y-98000
X168000Y-100000
X170000Y-51000
X170000Y-53000
X170000Y-55000
X170000Y-57000
X170000Y-59000
X170000Y-63000
X170000Y-65000
X170000Y-67000
X170000Y-69000
X170000Y-71000
X170000Y-73000
X170000Y-75000
X170000Y-77000
X170000Y-79000
X170000Y-81000
X170000Y-83000
X170000Y-85000
X170000Y-87000
X170000Y-89000
X170000Y-91000
X170000Y-93000
X170000Y-95000
X170000Y-97000
X170000Y-99000
X178500Y-51000
X178500Y-53000
X178500Y-55000
X178500Y-57000
X178500Y-59000
X178500Y-63000
X178500Y-65000
X178500Y-67000
X178500Y-69000
X178500Y-71000
X178500Y-73000
X178500Y-75000
X178500Y-77000
X178500Y-79000
X178500Y-81000
X178500Y-83000
X178500Y-85000
X178500Y-87000
X178500Y-89000
X178500Y-91000
X178500Y-93000
X178500Y-95000
X178500Y-97000
X178500Y-99000
X180500Y-50000
X180500Y-52000
X180500Y-54000
X180500Y-56000
X180500Y-58000
X180500Y-60000
X180500Y-64000
X180500Y-66000
X180500Y-68000
X180500Y-70000
X180500Y-72000
X180500Y-74000
X180500Y-76000
X180500Y-78000
X180500Y-80000
X180500Y-82000
X180500Y-84000
X180500Y-86000
X180500Y-88000
X180500Y-90000
X180500Y-92000
X180500Y-94000
X180500Y-96000
X180500Y-98000
X180500Y-100000
X183000Y-50000
X183000Y-52000
X183000Y-54000
X183000Y-56000
X183000Y-58000
X183000Y-60000
X183000Y-64000
X183000Y-66000
X183000Y-68000
X183000Y-70000
X183000Y-72000
X183000Y-74000
X183000Y-76000
X183000Y-78000
X183000Y-80000
X183000Y-82000
X183000Y-84000
X183000Y-86000
X183000Y-88000
X183000Y-90000
X183000Y-92000
X183000Y-94000
X183000Y-96000
X183000Y-98000
X183000Y-100000
X185000Y-51000
X185000Y-53000
X185000Y-55000
X185000Y-57000
X185000Y-59000
X185000Y-63000
X185000Y-65000
X185000Y-67000
X185000Y-69000
X185000Y-71000
X185000Y-73000
X185000Y-75000
X185000Y-77000
X185000Y-79000
X185000Y-81000
X185000Y-83000
X185000Y-85000
X185000Y-87000
X185000Y-89000
X185000Y-91000
X185000Y-93000
X185000Y-95000
X185000Y-97000
X185000Y-99000
X193500Y-51000
X193500Y-53000
X193500Y-55000
X193500Y-57000
X193500Y-59000
X193500Y-63000
X193500Y-65000
X193500Y-67000
X193500Y-69000
X193500Y-71000
X193500Y-73000
X193500Y-75000
X193500Y-77000
X193500Y-79000
X193500Y-81000
X193500Y-83000
X193500Y-85000
X193500Y-87000
X193500Y-89000
X193500Y-91000
X193500Y-93000
X193500Y-95000
X193500Y-97000
X193500Y-99000
X195500Y-50000
X195500Y-52000
X195500Y-54000
X195500Y-56000
X195500Y-58000
X195500Y-60000
X195500Y-64000
X195500Y-66000
X195500Y-68000
X195500Y-70000
X195500Y-72000
X195500Y-74000
X195500Y-76000
X195500Y-78000
X195500Y-80000
X195500Y-82000
X195500Y-84000
X195500Y-86000
X195500Y-88000
X195500Y-90000
X195500Y-92000
X195500Y-94000
X195500Y-96000
X195500Y-98000
X195500Y-100000
X198000Y-50000
X198000Y-52000
X198000Y-54000
X198000Y-56000
X198000Y-58000
X198000Y-60000
X198000Y-64000
X198000Y-66000
X198000Y-68000
X198000Y-70000
X198000Y-72000
X198000Y-74000
X198000Y-76000
X198000Y-78000
X198000Y-80000
X198000Y-82000
X198000Y-84000
X198000Y-86000
X198000Y-88000
X198000Y-90000
X198000Y-92000
X198000Y-94000
X198000Y-96000
X198000Y-98000
X198000Y-100000
X200000Y-51000
X200000Y-53000
X200000Y-55000
X200000Y-57000
X200000Y-59000
X200000Y-63000
X200000Y-65000
X200000Y-67000
X200000Y-69000
X200000Y-71000
X200000Y-73000
X200000Y-75000
X200000Y-77000
X200000Y-79000
X200000Y-81000
X200000Y-83000
X200000Y-85000
X200000Y-87000
X200000Y-89000
X200000Y-91000
X200000Y-93000
X200000Y-95000
X200000Y-97000
X200000Y-99000
T0
M30
