%FSLAX45Y45*%
G04 Gerber Fmt 4.5, Leading zero omitted, Abs format (unit mm)*
G04 Created by KiCad (PCBNEW (5.1.9-16-g1737927814)-1) date 2021-07-03 16:47:47*
%MOMM*%
%LPD*%
G01*
G04 APERTURE LIST*
%TA.AperFunction,Profile*%
%ADD10C,0.100000*%
%TD*%
%ADD11C,0.200000*%
%ADD12C,0.300000*%
G04 APERTURE END LIST*
D10*
X3800000Y-4400000D02*
X3800000Y-10700000D01*
X21400000Y-4400000D02*
X3800000Y-4400000D01*
X21400000Y-10700000D02*
X21400000Y-4400000D01*
X3800000Y-10700000D02*
X21400000Y-10700000D01*
D11*
X5507500Y-6047500D02*
X5742500Y-6282500D01*
X5742500Y-6047500D02*
X5507500Y-6282500D01*
X5507500Y-10063500D02*
X5742500Y-10298500D01*
X5742500Y-10063500D02*
X5507500Y-10298500D01*
X7007500Y-6047500D02*
X7242500Y-6282500D01*
X7242500Y-6047500D02*
X7007500Y-6282500D01*
X7007500Y-10063500D02*
X7242500Y-10298500D01*
X7242500Y-10063500D02*
X7007500Y-10298500D01*
X8507500Y-6047500D02*
X8742500Y-6282500D01*
X8742500Y-6047500D02*
X8507500Y-6282500D01*
X8507500Y-10063500D02*
X8742500Y-10298500D01*
X8742500Y-10063500D02*
X8507500Y-10298500D01*
X10007500Y-6047500D02*
X10242500Y-6282500D01*
X10242500Y-6047500D02*
X10007500Y-6282500D01*
X10007500Y-10063500D02*
X10242500Y-10298500D01*
X10242500Y-10063500D02*
X10007500Y-10298500D01*
X11507500Y-6047500D02*
X11742500Y-6282500D01*
X11742500Y-6047500D02*
X11507500Y-6282500D01*
X11507500Y-10063500D02*
X11742500Y-10298500D01*
X11742500Y-10063500D02*
X11507500Y-10298500D01*
X13557500Y-6047500D02*
X13792500Y-6282500D01*
X13792500Y-6047500D02*
X13557500Y-6282500D01*
X13557500Y-10063500D02*
X13792500Y-10298500D01*
X13792500Y-10063500D02*
X13557500Y-10298500D01*
X15057500Y-6047500D02*
X15292500Y-6282500D01*
X15292500Y-6047500D02*
X15057500Y-6282500D01*
X15057500Y-10063500D02*
X15292500Y-10298500D01*
X15292500Y-10063500D02*
X15057500Y-10298500D01*
X16557500Y-6047500D02*
X16792500Y-6282500D01*
X16792500Y-6047500D02*
X16557500Y-6282500D01*
X16557500Y-10063500D02*
X16792500Y-10298500D01*
X16792500Y-10063500D02*
X16557500Y-10298500D01*
X18057500Y-6047500D02*
X18292500Y-6282500D01*
X18292500Y-6047500D02*
X18057500Y-6282500D01*
X18057500Y-10063500D02*
X18292500Y-10298500D01*
X18292500Y-10063500D02*
X18057500Y-10298500D01*
X19557500Y-6047500D02*
X19792500Y-6282500D01*
X19792500Y-6047500D02*
X19557500Y-6282500D01*
X19557500Y-10063500D02*
X19792500Y-10298500D01*
X19792500Y-10063500D02*
X19557500Y-10298500D01*
X4775000Y-6200000D02*
G75*
G03*
X4775000Y-6200000I-175000J0D01*
G01*
X4775000Y-7450000D02*
G75*
G03*
X4775000Y-7450000I-175000J0D01*
G01*
X4775000Y-8700000D02*
G75*
G03*
X4775000Y-8700000I-175000J0D01*
G01*
X12775000Y-6200000D02*
G75*
G03*
X12775000Y-6200000I-175000J0D01*
G01*
X12775000Y-7450000D02*
G75*
G03*
X12775000Y-7450000I-175000J0D01*
G01*
X12775000Y-8700000D02*
G75*
G03*
X12775000Y-8700000I-175000J0D01*
G01*
X20775000Y-6200000D02*
G75*
G03*
X20775000Y-6200000I-175000J0D01*
G01*
X20775000Y-7450000D02*
G75*
G03*
X20775000Y-7450000I-175000J0D01*
G01*
X20775000Y-8700000D02*
G75*
G03*
X20775000Y-8700000I-175000J0D01*
G01*
X4600000Y-9850000D02*
X4600000Y-10350000D01*
X4350000Y-10100000D02*
X4850000Y-10100000D01*
X4350000Y-10340000D02*
X4850000Y-10340000D01*
X4350000Y-9860000D02*
X4850000Y-9860000D01*
X4850000Y-10340000D02*
G75*
G03*
X4850000Y-9860000I0J240000D01*
G01*
X4350000Y-9860000D02*
G75*
G03*
X4350000Y-10340000I0J-240000D01*
G01*
X12600000Y-9850000D02*
X12600000Y-10350000D01*
X12350000Y-10100000D02*
X12850000Y-10100000D01*
X12350000Y-10340000D02*
X12850000Y-10340000D01*
X12350000Y-9860000D02*
X12850000Y-9860000D01*
X12850000Y-10340000D02*
G75*
G03*
X12850000Y-9860000I0J240000D01*
G01*
X12350000Y-9860000D02*
G75*
G03*
X12350000Y-10340000I0J-240000D01*
G01*
X20600000Y-9850000D02*
X20600000Y-10350000D01*
X20350000Y-10100000D02*
X20850000Y-10100000D01*
X20350000Y-10340000D02*
X20850000Y-10340000D01*
X20350000Y-9860000D02*
X20850000Y-9860000D01*
X20850000Y-10340000D02*
G75*
G03*
X20850000Y-9860000I0J240000D01*
G01*
X20350000Y-9860000D02*
G75*
G03*
X20350000Y-10340000I0J-240000D01*
G01*
D12*
X3536428Y-11715714D02*
X3536428Y-11415714D01*
X3607857Y-11415714D01*
X3650714Y-11430000D01*
X3679286Y-11458571D01*
X3693571Y-11487143D01*
X3707857Y-11544286D01*
X3707857Y-11587143D01*
X3693571Y-11644286D01*
X3679286Y-11672857D01*
X3650714Y-11701428D01*
X3607857Y-11715714D01*
X3536428Y-11715714D01*
X3836428Y-11715714D02*
X3836428Y-11515714D01*
X3836428Y-11572857D02*
X3850714Y-11544286D01*
X3865000Y-11530000D01*
X3893571Y-11515714D01*
X3922143Y-11515714D01*
X4022143Y-11715714D02*
X4022143Y-11515714D01*
X4022143Y-11415714D02*
X4007857Y-11430000D01*
X4022143Y-11444286D01*
X4036428Y-11430000D01*
X4022143Y-11415714D01*
X4022143Y-11444286D01*
X4207857Y-11715714D02*
X4179286Y-11701428D01*
X4165000Y-11672857D01*
X4165000Y-11415714D01*
X4365000Y-11715714D02*
X4336429Y-11701428D01*
X4322143Y-11672857D01*
X4322143Y-11415714D01*
X4707857Y-11715714D02*
X4707857Y-11415714D01*
X4807857Y-11630000D01*
X4907857Y-11415714D01*
X4907857Y-11715714D01*
X5179286Y-11715714D02*
X5179286Y-11558571D01*
X5165000Y-11530000D01*
X5136429Y-11515714D01*
X5079286Y-11515714D01*
X5050714Y-11530000D01*
X5179286Y-11701428D02*
X5150714Y-11715714D01*
X5079286Y-11715714D01*
X5050714Y-11701428D01*
X5036429Y-11672857D01*
X5036429Y-11644286D01*
X5050714Y-11615714D01*
X5079286Y-11601428D01*
X5150714Y-11601428D01*
X5179286Y-11587143D01*
X5322143Y-11515714D02*
X5322143Y-11815714D01*
X5322143Y-11530000D02*
X5350714Y-11515714D01*
X5407857Y-11515714D01*
X5436429Y-11530000D01*
X5450714Y-11544286D01*
X5465000Y-11572857D01*
X5465000Y-11658571D01*
X5450714Y-11687143D01*
X5436429Y-11701428D01*
X5407857Y-11715714D01*
X5350714Y-11715714D01*
X5322143Y-11701428D01*
X5593571Y-11687143D02*
X5607857Y-11701428D01*
X5593571Y-11715714D01*
X5579286Y-11701428D01*
X5593571Y-11687143D01*
X5593571Y-11715714D01*
X5593571Y-11530000D02*
X5607857Y-11544286D01*
X5593571Y-11558571D01*
X5579286Y-11544286D01*
X5593571Y-11530000D01*
X5593571Y-11558571D01*
X3015000Y-12092500D02*
X3250000Y-12327500D01*
X3250000Y-12092500D02*
X3015000Y-12327500D01*
X3522143Y-12074286D02*
X3536428Y-12060000D01*
X3565000Y-12045714D01*
X3636428Y-12045714D01*
X3665000Y-12060000D01*
X3679286Y-12074286D01*
X3693571Y-12102857D01*
X3693571Y-12131428D01*
X3679286Y-12174286D01*
X3507857Y-12345714D01*
X3693571Y-12345714D01*
X3822143Y-12317143D02*
X3836428Y-12331428D01*
X3822143Y-12345714D01*
X3807857Y-12331428D01*
X3822143Y-12317143D01*
X3822143Y-12345714D01*
X3936428Y-12045714D02*
X4122143Y-12045714D01*
X4022143Y-12160000D01*
X4065000Y-12160000D01*
X4093571Y-12174286D01*
X4107857Y-12188571D01*
X4122143Y-12217143D01*
X4122143Y-12288571D01*
X4107857Y-12317143D01*
X4093571Y-12331428D01*
X4065000Y-12345714D01*
X3979286Y-12345714D01*
X3950714Y-12331428D01*
X3936428Y-12317143D01*
X4393571Y-12045714D02*
X4250714Y-12045714D01*
X4236429Y-12188571D01*
X4250714Y-12174286D01*
X4279286Y-12160000D01*
X4350714Y-12160000D01*
X4379286Y-12174286D01*
X4393571Y-12188571D01*
X4407857Y-12217143D01*
X4407857Y-12288571D01*
X4393571Y-12317143D01*
X4379286Y-12331428D01*
X4350714Y-12345714D01*
X4279286Y-12345714D01*
X4250714Y-12331428D01*
X4236429Y-12317143D01*
X4536429Y-12345714D02*
X4536429Y-12145714D01*
X4536429Y-12174286D02*
X4550714Y-12160000D01*
X4579286Y-12145714D01*
X4622143Y-12145714D01*
X4650714Y-12160000D01*
X4665000Y-12188571D01*
X4665000Y-12345714D01*
X4665000Y-12188571D02*
X4679286Y-12160000D01*
X4707857Y-12145714D01*
X4750714Y-12145714D01*
X4779286Y-12160000D01*
X4793571Y-12188571D01*
X4793571Y-12345714D01*
X4936429Y-12345714D02*
X4936429Y-12145714D01*
X4936429Y-12174286D02*
X4950714Y-12160000D01*
X4979286Y-12145714D01*
X5022143Y-12145714D01*
X5050714Y-12160000D01*
X5065000Y-12188571D01*
X5065000Y-12345714D01*
X5065000Y-12188571D02*
X5079286Y-12160000D01*
X5107857Y-12145714D01*
X5150714Y-12145714D01*
X5179286Y-12160000D01*
X5193571Y-12188571D01*
X5193571Y-12345714D01*
X5779286Y-12031428D02*
X5522143Y-12417143D01*
X6165000Y-12045714D02*
X6193571Y-12045714D01*
X6222143Y-12060000D01*
X6236428Y-12074286D01*
X6250714Y-12102857D01*
X6265000Y-12160000D01*
X6265000Y-12231428D01*
X6250714Y-12288571D01*
X6236428Y-12317143D01*
X6222143Y-12331428D01*
X6193571Y-12345714D01*
X6165000Y-12345714D01*
X6136428Y-12331428D01*
X6122143Y-12317143D01*
X6107857Y-12288571D01*
X6093571Y-12231428D01*
X6093571Y-12160000D01*
X6107857Y-12102857D01*
X6122143Y-12074286D01*
X6136428Y-12060000D01*
X6165000Y-12045714D01*
X6393571Y-12317143D02*
X6407857Y-12331428D01*
X6393571Y-12345714D01*
X6379286Y-12331428D01*
X6393571Y-12317143D01*
X6393571Y-12345714D01*
X6593571Y-12045714D02*
X6622143Y-12045714D01*
X6650714Y-12060000D01*
X6665000Y-12074286D01*
X6679286Y-12102857D01*
X6693571Y-12160000D01*
X6693571Y-12231428D01*
X6679286Y-12288571D01*
X6665000Y-12317143D01*
X6650714Y-12331428D01*
X6622143Y-12345714D01*
X6593571Y-12345714D01*
X6565000Y-12331428D01*
X6550714Y-12317143D01*
X6536428Y-12288571D01*
X6522143Y-12231428D01*
X6522143Y-12160000D01*
X6536428Y-12102857D01*
X6550714Y-12074286D01*
X6565000Y-12060000D01*
X6593571Y-12045714D01*
X6836428Y-12345714D02*
X6893571Y-12345714D01*
X6922143Y-12331428D01*
X6936428Y-12317143D01*
X6965000Y-12274286D01*
X6979286Y-12217143D01*
X6979286Y-12102857D01*
X6965000Y-12074286D01*
X6950714Y-12060000D01*
X6922143Y-12045714D01*
X6865000Y-12045714D01*
X6836428Y-12060000D01*
X6822143Y-12074286D01*
X6807857Y-12102857D01*
X6807857Y-12174286D01*
X6822143Y-12202857D01*
X6836428Y-12217143D01*
X6865000Y-12231428D01*
X6922143Y-12231428D01*
X6950714Y-12217143D01*
X6965000Y-12202857D01*
X6979286Y-12174286D01*
X7079286Y-12045714D02*
X7265000Y-12045714D01*
X7165000Y-12160000D01*
X7207857Y-12160000D01*
X7236428Y-12174286D01*
X7250714Y-12188571D01*
X7265000Y-12217143D01*
X7265000Y-12288571D01*
X7250714Y-12317143D01*
X7236428Y-12331428D01*
X7207857Y-12345714D01*
X7122143Y-12345714D01*
X7093571Y-12331428D01*
X7079286Y-12317143D01*
X7379286Y-12045714D02*
X7379286Y-12102857D01*
X7493571Y-12045714D02*
X7493571Y-12102857D01*
X7936428Y-12460000D02*
X7922143Y-12445714D01*
X7893571Y-12402857D01*
X7879286Y-12374286D01*
X7865000Y-12331428D01*
X7850714Y-12260000D01*
X7850714Y-12202857D01*
X7865000Y-12131428D01*
X7879286Y-12088571D01*
X7893571Y-12060000D01*
X7922143Y-12017143D01*
X7936428Y-12002857D01*
X8036428Y-12074286D02*
X8050714Y-12060000D01*
X8079286Y-12045714D01*
X8150714Y-12045714D01*
X8179286Y-12060000D01*
X8193571Y-12074286D01*
X8207857Y-12102857D01*
X8207857Y-12131428D01*
X8193571Y-12174286D01*
X8022143Y-12345714D01*
X8207857Y-12345714D01*
X8393571Y-12045714D02*
X8422143Y-12045714D01*
X8450714Y-12060000D01*
X8465000Y-12074286D01*
X8479286Y-12102857D01*
X8493571Y-12160000D01*
X8493571Y-12231428D01*
X8479286Y-12288571D01*
X8465000Y-12317143D01*
X8450714Y-12331428D01*
X8422143Y-12345714D01*
X8393571Y-12345714D01*
X8365000Y-12331428D01*
X8350714Y-12317143D01*
X8336428Y-12288571D01*
X8322143Y-12231428D01*
X8322143Y-12160000D01*
X8336428Y-12102857D01*
X8350714Y-12074286D01*
X8365000Y-12060000D01*
X8393571Y-12045714D01*
X8850714Y-12345714D02*
X8850714Y-12045714D01*
X8979286Y-12345714D02*
X8979286Y-12188571D01*
X8965000Y-12160000D01*
X8936429Y-12145714D01*
X8893571Y-12145714D01*
X8865000Y-12160000D01*
X8850714Y-12174286D01*
X9165000Y-12345714D02*
X9136429Y-12331428D01*
X9122143Y-12317143D01*
X9107857Y-12288571D01*
X9107857Y-12202857D01*
X9122143Y-12174286D01*
X9136429Y-12160000D01*
X9165000Y-12145714D01*
X9207857Y-12145714D01*
X9236429Y-12160000D01*
X9250714Y-12174286D01*
X9265000Y-12202857D01*
X9265000Y-12288571D01*
X9250714Y-12317143D01*
X9236429Y-12331428D01*
X9207857Y-12345714D01*
X9165000Y-12345714D01*
X9436429Y-12345714D02*
X9407857Y-12331428D01*
X9393571Y-12302857D01*
X9393571Y-12045714D01*
X9665000Y-12331428D02*
X9636429Y-12345714D01*
X9579286Y-12345714D01*
X9550714Y-12331428D01*
X9536429Y-12302857D01*
X9536429Y-12188571D01*
X9550714Y-12160000D01*
X9579286Y-12145714D01*
X9636429Y-12145714D01*
X9665000Y-12160000D01*
X9679286Y-12188571D01*
X9679286Y-12217143D01*
X9536429Y-12245714D01*
X9793571Y-12331428D02*
X9822143Y-12345714D01*
X9879286Y-12345714D01*
X9907857Y-12331428D01*
X9922143Y-12302857D01*
X9922143Y-12288571D01*
X9907857Y-12260000D01*
X9879286Y-12245714D01*
X9836429Y-12245714D01*
X9807857Y-12231428D01*
X9793571Y-12202857D01*
X9793571Y-12188571D01*
X9807857Y-12160000D01*
X9836429Y-12145714D01*
X9879286Y-12145714D01*
X9907857Y-12160000D01*
X10022143Y-12460000D02*
X10036429Y-12445714D01*
X10065000Y-12402857D01*
X10079286Y-12374286D01*
X10093571Y-12331428D01*
X10107857Y-12260000D01*
X10107857Y-12202857D01*
X10093571Y-12131428D01*
X10079286Y-12088571D01*
X10065000Y-12060000D01*
X10036429Y-12017143D01*
X10022143Y-12002857D01*
X10565000Y-12460000D02*
X10550714Y-12445714D01*
X10522143Y-12402857D01*
X10507857Y-12374286D01*
X10493571Y-12331428D01*
X10479286Y-12260000D01*
X10479286Y-12202857D01*
X10493571Y-12131428D01*
X10507857Y-12088571D01*
X10522143Y-12060000D01*
X10550714Y-12017143D01*
X10565000Y-12002857D01*
X10679286Y-12145714D02*
X10679286Y-12345714D01*
X10679286Y-12174286D02*
X10693571Y-12160000D01*
X10722143Y-12145714D01*
X10765000Y-12145714D01*
X10793571Y-12160000D01*
X10807857Y-12188571D01*
X10807857Y-12345714D01*
X10993571Y-12345714D02*
X10965000Y-12331428D01*
X10950714Y-12317143D01*
X10936429Y-12288571D01*
X10936429Y-12202857D01*
X10950714Y-12174286D01*
X10965000Y-12160000D01*
X10993571Y-12145714D01*
X11036429Y-12145714D01*
X11065000Y-12160000D01*
X11079286Y-12174286D01*
X11093571Y-12202857D01*
X11093571Y-12288571D01*
X11079286Y-12317143D01*
X11065000Y-12331428D01*
X11036429Y-12345714D01*
X10993571Y-12345714D01*
X11179286Y-12145714D02*
X11293571Y-12145714D01*
X11222143Y-12045714D02*
X11222143Y-12302857D01*
X11236428Y-12331428D01*
X11265000Y-12345714D01*
X11293571Y-12345714D01*
X11622143Y-12145714D02*
X11622143Y-12445714D01*
X11622143Y-12160000D02*
X11650714Y-12145714D01*
X11707857Y-12145714D01*
X11736428Y-12160000D01*
X11750714Y-12174286D01*
X11765000Y-12202857D01*
X11765000Y-12288571D01*
X11750714Y-12317143D01*
X11736428Y-12331428D01*
X11707857Y-12345714D01*
X11650714Y-12345714D01*
X11622143Y-12331428D01*
X11936428Y-12345714D02*
X11907857Y-12331428D01*
X11893571Y-12302857D01*
X11893571Y-12045714D01*
X12179286Y-12345714D02*
X12179286Y-12188571D01*
X12165000Y-12160000D01*
X12136428Y-12145714D01*
X12079286Y-12145714D01*
X12050714Y-12160000D01*
X12179286Y-12331428D02*
X12150714Y-12345714D01*
X12079286Y-12345714D01*
X12050714Y-12331428D01*
X12036428Y-12302857D01*
X12036428Y-12274286D01*
X12050714Y-12245714D01*
X12079286Y-12231428D01*
X12150714Y-12231428D01*
X12179286Y-12217143D01*
X12279286Y-12145714D02*
X12393571Y-12145714D01*
X12322143Y-12045714D02*
X12322143Y-12302857D01*
X12336428Y-12331428D01*
X12365000Y-12345714D01*
X12393571Y-12345714D01*
X12607857Y-12331428D02*
X12579286Y-12345714D01*
X12522143Y-12345714D01*
X12493571Y-12331428D01*
X12479286Y-12302857D01*
X12479286Y-12188571D01*
X12493571Y-12160000D01*
X12522143Y-12145714D01*
X12579286Y-12145714D01*
X12607857Y-12160000D01*
X12622143Y-12188571D01*
X12622143Y-12217143D01*
X12479286Y-12245714D01*
X12879286Y-12345714D02*
X12879286Y-12045714D01*
X12879286Y-12331428D02*
X12850714Y-12345714D01*
X12793571Y-12345714D01*
X12765000Y-12331428D01*
X12750714Y-12317143D01*
X12736428Y-12288571D01*
X12736428Y-12202857D01*
X12750714Y-12174286D01*
X12765000Y-12160000D01*
X12793571Y-12145714D01*
X12850714Y-12145714D01*
X12879286Y-12160000D01*
X12993571Y-12460000D02*
X13007857Y-12445714D01*
X13036428Y-12402857D01*
X13050714Y-12374286D01*
X13065000Y-12331428D01*
X13079286Y-12260000D01*
X13079286Y-12202857D01*
X13065000Y-12131428D01*
X13050714Y-12088571D01*
X13036428Y-12060000D01*
X13007857Y-12017143D01*
X12993571Y-12002857D01*
X3250000Y-12606000D02*
G75*
G03*
X3250000Y-12606000I-175000J0D01*
G01*
X3507857Y-12441714D02*
X3693571Y-12441714D01*
X3593571Y-12556000D01*
X3636428Y-12556000D01*
X3665000Y-12570286D01*
X3679286Y-12584571D01*
X3693571Y-12613143D01*
X3693571Y-12684571D01*
X3679286Y-12713143D01*
X3665000Y-12727428D01*
X3636428Y-12741714D01*
X3550714Y-12741714D01*
X3522143Y-12727428D01*
X3507857Y-12713143D01*
X3822143Y-12713143D02*
X3836428Y-12727428D01*
X3822143Y-12741714D01*
X3807857Y-12727428D01*
X3822143Y-12713143D01*
X3822143Y-12741714D01*
X4107857Y-12441714D02*
X3965000Y-12441714D01*
X3950714Y-12584571D01*
X3965000Y-12570286D01*
X3993571Y-12556000D01*
X4065000Y-12556000D01*
X4093571Y-12570286D01*
X4107857Y-12584571D01*
X4122143Y-12613143D01*
X4122143Y-12684571D01*
X4107857Y-12713143D01*
X4093571Y-12727428D01*
X4065000Y-12741714D01*
X3993571Y-12741714D01*
X3965000Y-12727428D01*
X3950714Y-12713143D01*
X4307857Y-12441714D02*
X4336429Y-12441714D01*
X4365000Y-12456000D01*
X4379286Y-12470286D01*
X4393571Y-12498857D01*
X4407857Y-12556000D01*
X4407857Y-12627428D01*
X4393571Y-12684571D01*
X4379286Y-12713143D01*
X4365000Y-12727428D01*
X4336429Y-12741714D01*
X4307857Y-12741714D01*
X4279286Y-12727428D01*
X4265000Y-12713143D01*
X4250714Y-12684571D01*
X4236429Y-12627428D01*
X4236429Y-12556000D01*
X4250714Y-12498857D01*
X4265000Y-12470286D01*
X4279286Y-12456000D01*
X4307857Y-12441714D01*
X4536429Y-12741714D02*
X4536429Y-12541714D01*
X4536429Y-12570286D02*
X4550714Y-12556000D01*
X4579286Y-12541714D01*
X4622143Y-12541714D01*
X4650714Y-12556000D01*
X4665000Y-12584571D01*
X4665000Y-12741714D01*
X4665000Y-12584571D02*
X4679286Y-12556000D01*
X4707857Y-12541714D01*
X4750714Y-12541714D01*
X4779286Y-12556000D01*
X4793571Y-12584571D01*
X4793571Y-12741714D01*
X4936429Y-12741714D02*
X4936429Y-12541714D01*
X4936429Y-12570286D02*
X4950714Y-12556000D01*
X4979286Y-12541714D01*
X5022143Y-12541714D01*
X5050714Y-12556000D01*
X5065000Y-12584571D01*
X5065000Y-12741714D01*
X5065000Y-12584571D02*
X5079286Y-12556000D01*
X5107857Y-12541714D01*
X5150714Y-12541714D01*
X5179286Y-12556000D01*
X5193571Y-12584571D01*
X5193571Y-12741714D01*
X5779286Y-12427428D02*
X5522143Y-12813143D01*
X6165000Y-12441714D02*
X6193571Y-12441714D01*
X6222143Y-12456000D01*
X6236428Y-12470286D01*
X6250714Y-12498857D01*
X6265000Y-12556000D01*
X6265000Y-12627428D01*
X6250714Y-12684571D01*
X6236428Y-12713143D01*
X6222143Y-12727428D01*
X6193571Y-12741714D01*
X6165000Y-12741714D01*
X6136428Y-12727428D01*
X6122143Y-12713143D01*
X6107857Y-12684571D01*
X6093571Y-12627428D01*
X6093571Y-12556000D01*
X6107857Y-12498857D01*
X6122143Y-12470286D01*
X6136428Y-12456000D01*
X6165000Y-12441714D01*
X6393571Y-12713143D02*
X6407857Y-12727428D01*
X6393571Y-12741714D01*
X6379286Y-12727428D01*
X6393571Y-12713143D01*
X6393571Y-12741714D01*
X6693571Y-12741714D02*
X6522143Y-12741714D01*
X6607857Y-12741714D02*
X6607857Y-12441714D01*
X6579286Y-12484571D01*
X6550714Y-12513143D01*
X6522143Y-12527428D01*
X6793571Y-12441714D02*
X6979286Y-12441714D01*
X6879286Y-12556000D01*
X6922143Y-12556000D01*
X6950714Y-12570286D01*
X6965000Y-12584571D01*
X6979286Y-12613143D01*
X6979286Y-12684571D01*
X6965000Y-12713143D01*
X6950714Y-12727428D01*
X6922143Y-12741714D01*
X6836428Y-12741714D01*
X6807857Y-12727428D01*
X6793571Y-12713143D01*
X7150714Y-12570286D02*
X7122143Y-12556000D01*
X7107857Y-12541714D01*
X7093571Y-12513143D01*
X7093571Y-12498857D01*
X7107857Y-12470286D01*
X7122143Y-12456000D01*
X7150714Y-12441714D01*
X7207857Y-12441714D01*
X7236428Y-12456000D01*
X7250714Y-12470286D01*
X7265000Y-12498857D01*
X7265000Y-12513143D01*
X7250714Y-12541714D01*
X7236428Y-12556000D01*
X7207857Y-12570286D01*
X7150714Y-12570286D01*
X7122143Y-12584571D01*
X7107857Y-12598857D01*
X7093571Y-12627428D01*
X7093571Y-12684571D01*
X7107857Y-12713143D01*
X7122143Y-12727428D01*
X7150714Y-12741714D01*
X7207857Y-12741714D01*
X7236428Y-12727428D01*
X7250714Y-12713143D01*
X7265000Y-12684571D01*
X7265000Y-12627428D01*
X7250714Y-12598857D01*
X7236428Y-12584571D01*
X7207857Y-12570286D01*
X7379286Y-12441714D02*
X7379286Y-12498857D01*
X7493571Y-12441714D02*
X7493571Y-12498857D01*
X7936428Y-12856000D02*
X7922143Y-12841714D01*
X7893571Y-12798857D01*
X7879286Y-12770286D01*
X7865000Y-12727428D01*
X7850714Y-12656000D01*
X7850714Y-12598857D01*
X7865000Y-12527428D01*
X7879286Y-12484571D01*
X7893571Y-12456000D01*
X7922143Y-12413143D01*
X7936428Y-12398857D01*
X8065000Y-12741714D02*
X8122143Y-12741714D01*
X8150714Y-12727428D01*
X8165000Y-12713143D01*
X8193571Y-12670286D01*
X8207857Y-12613143D01*
X8207857Y-12498857D01*
X8193571Y-12470286D01*
X8179286Y-12456000D01*
X8150714Y-12441714D01*
X8093571Y-12441714D01*
X8065000Y-12456000D01*
X8050714Y-12470286D01*
X8036428Y-12498857D01*
X8036428Y-12570286D01*
X8050714Y-12598857D01*
X8065000Y-12613143D01*
X8093571Y-12627428D01*
X8150714Y-12627428D01*
X8179286Y-12613143D01*
X8193571Y-12598857D01*
X8207857Y-12570286D01*
X8565000Y-12741714D02*
X8565000Y-12441714D01*
X8693571Y-12741714D02*
X8693571Y-12584571D01*
X8679286Y-12556000D01*
X8650714Y-12541714D01*
X8607857Y-12541714D01*
X8579286Y-12556000D01*
X8565000Y-12570286D01*
X8879286Y-12741714D02*
X8850714Y-12727428D01*
X8836429Y-12713143D01*
X8822143Y-12684571D01*
X8822143Y-12598857D01*
X8836429Y-12570286D01*
X8850714Y-12556000D01*
X8879286Y-12541714D01*
X8922143Y-12541714D01*
X8950714Y-12556000D01*
X8965000Y-12570286D01*
X8979286Y-12598857D01*
X8979286Y-12684571D01*
X8965000Y-12713143D01*
X8950714Y-12727428D01*
X8922143Y-12741714D01*
X8879286Y-12741714D01*
X9150714Y-12741714D02*
X9122143Y-12727428D01*
X9107857Y-12698857D01*
X9107857Y-12441714D01*
X9379286Y-12727428D02*
X9350714Y-12741714D01*
X9293571Y-12741714D01*
X9265000Y-12727428D01*
X9250714Y-12698857D01*
X9250714Y-12584571D01*
X9265000Y-12556000D01*
X9293571Y-12541714D01*
X9350714Y-12541714D01*
X9379286Y-12556000D01*
X9393571Y-12584571D01*
X9393571Y-12613143D01*
X9250714Y-12641714D01*
X9507857Y-12727428D02*
X9536429Y-12741714D01*
X9593571Y-12741714D01*
X9622143Y-12727428D01*
X9636429Y-12698857D01*
X9636429Y-12684571D01*
X9622143Y-12656000D01*
X9593571Y-12641714D01*
X9550714Y-12641714D01*
X9522143Y-12627428D01*
X9507857Y-12598857D01*
X9507857Y-12584571D01*
X9522143Y-12556000D01*
X9550714Y-12541714D01*
X9593571Y-12541714D01*
X9622143Y-12556000D01*
X9736429Y-12856000D02*
X9750714Y-12841714D01*
X9779286Y-12798857D01*
X9793571Y-12770286D01*
X9807857Y-12727428D01*
X9822143Y-12656000D01*
X9822143Y-12598857D01*
X9807857Y-12527428D01*
X9793571Y-12484571D01*
X9779286Y-12456000D01*
X9750714Y-12413143D01*
X9736429Y-12398857D01*
X10279286Y-12856000D02*
X10265000Y-12841714D01*
X10236429Y-12798857D01*
X10222143Y-12770286D01*
X10207857Y-12727428D01*
X10193571Y-12656000D01*
X10193571Y-12598857D01*
X10207857Y-12527428D01*
X10222143Y-12484571D01*
X10236429Y-12456000D01*
X10265000Y-12413143D01*
X10279286Y-12398857D01*
X10393571Y-12541714D02*
X10393571Y-12741714D01*
X10393571Y-12570286D02*
X10407857Y-12556000D01*
X10436429Y-12541714D01*
X10479286Y-12541714D01*
X10507857Y-12556000D01*
X10522143Y-12584571D01*
X10522143Y-12741714D01*
X10707857Y-12741714D02*
X10679286Y-12727428D01*
X10665000Y-12713143D01*
X10650714Y-12684571D01*
X10650714Y-12598857D01*
X10665000Y-12570286D01*
X10679286Y-12556000D01*
X10707857Y-12541714D01*
X10750714Y-12541714D01*
X10779286Y-12556000D01*
X10793571Y-12570286D01*
X10807857Y-12598857D01*
X10807857Y-12684571D01*
X10793571Y-12713143D01*
X10779286Y-12727428D01*
X10750714Y-12741714D01*
X10707857Y-12741714D01*
X10893571Y-12541714D02*
X11007857Y-12541714D01*
X10936429Y-12441714D02*
X10936429Y-12698857D01*
X10950714Y-12727428D01*
X10979286Y-12741714D01*
X11007857Y-12741714D01*
X11336428Y-12541714D02*
X11336428Y-12841714D01*
X11336428Y-12556000D02*
X11365000Y-12541714D01*
X11422143Y-12541714D01*
X11450714Y-12556000D01*
X11465000Y-12570286D01*
X11479286Y-12598857D01*
X11479286Y-12684571D01*
X11465000Y-12713143D01*
X11450714Y-12727428D01*
X11422143Y-12741714D01*
X11365000Y-12741714D01*
X11336428Y-12727428D01*
X11650714Y-12741714D02*
X11622143Y-12727428D01*
X11607857Y-12698857D01*
X11607857Y-12441714D01*
X11893571Y-12741714D02*
X11893571Y-12584571D01*
X11879286Y-12556000D01*
X11850714Y-12541714D01*
X11793571Y-12541714D01*
X11765000Y-12556000D01*
X11893571Y-12727428D02*
X11865000Y-12741714D01*
X11793571Y-12741714D01*
X11765000Y-12727428D01*
X11750714Y-12698857D01*
X11750714Y-12670286D01*
X11765000Y-12641714D01*
X11793571Y-12627428D01*
X11865000Y-12627428D01*
X11893571Y-12613143D01*
X11993571Y-12541714D02*
X12107857Y-12541714D01*
X12036428Y-12441714D02*
X12036428Y-12698857D01*
X12050714Y-12727428D01*
X12079286Y-12741714D01*
X12107857Y-12741714D01*
X12322143Y-12727428D02*
X12293571Y-12741714D01*
X12236428Y-12741714D01*
X12207857Y-12727428D01*
X12193571Y-12698857D01*
X12193571Y-12584571D01*
X12207857Y-12556000D01*
X12236428Y-12541714D01*
X12293571Y-12541714D01*
X12322143Y-12556000D01*
X12336428Y-12584571D01*
X12336428Y-12613143D01*
X12193571Y-12641714D01*
X12593571Y-12741714D02*
X12593571Y-12441714D01*
X12593571Y-12727428D02*
X12565000Y-12741714D01*
X12507857Y-12741714D01*
X12479286Y-12727428D01*
X12465000Y-12713143D01*
X12450714Y-12684571D01*
X12450714Y-12598857D01*
X12465000Y-12570286D01*
X12479286Y-12556000D01*
X12507857Y-12541714D01*
X12565000Y-12541714D01*
X12593571Y-12556000D01*
X12707857Y-12856000D02*
X12722143Y-12841714D01*
X12750714Y-12798857D01*
X12765000Y-12770286D01*
X12779286Y-12727428D01*
X12793571Y-12656000D01*
X12793571Y-12598857D01*
X12779286Y-12527428D01*
X12765000Y-12484571D01*
X12750714Y-12456000D01*
X12722143Y-12413143D01*
X12707857Y-12398857D01*
X3000000Y-12836000D02*
X3000000Y-13336000D01*
X2750000Y-13086000D02*
X3250000Y-13086000D01*
X3679286Y-12921714D02*
X3536428Y-12921714D01*
X3522143Y-13064571D01*
X3536428Y-13050286D01*
X3565000Y-13036000D01*
X3636428Y-13036000D01*
X3665000Y-13050286D01*
X3679286Y-13064571D01*
X3693571Y-13093143D01*
X3693571Y-13164571D01*
X3679286Y-13193143D01*
X3665000Y-13207428D01*
X3636428Y-13221714D01*
X3565000Y-13221714D01*
X3536428Y-13207428D01*
X3522143Y-13193143D01*
X3822143Y-13193143D02*
X3836428Y-13207428D01*
X3822143Y-13221714D01*
X3807857Y-13207428D01*
X3822143Y-13193143D01*
X3822143Y-13221714D01*
X4022143Y-12921714D02*
X4050714Y-12921714D01*
X4079286Y-12936000D01*
X4093571Y-12950286D01*
X4107857Y-12978857D01*
X4122143Y-13036000D01*
X4122143Y-13107428D01*
X4107857Y-13164571D01*
X4093571Y-13193143D01*
X4079286Y-13207428D01*
X4050714Y-13221714D01*
X4022143Y-13221714D01*
X3993571Y-13207428D01*
X3979286Y-13193143D01*
X3965000Y-13164571D01*
X3950714Y-13107428D01*
X3950714Y-13036000D01*
X3965000Y-12978857D01*
X3979286Y-12950286D01*
X3993571Y-12936000D01*
X4022143Y-12921714D01*
X4307857Y-12921714D02*
X4336429Y-12921714D01*
X4365000Y-12936000D01*
X4379286Y-12950286D01*
X4393571Y-12978857D01*
X4407857Y-13036000D01*
X4407857Y-13107428D01*
X4393571Y-13164571D01*
X4379286Y-13193143D01*
X4365000Y-13207428D01*
X4336429Y-13221714D01*
X4307857Y-13221714D01*
X4279286Y-13207428D01*
X4265000Y-13193143D01*
X4250714Y-13164571D01*
X4236429Y-13107428D01*
X4236429Y-13036000D01*
X4250714Y-12978857D01*
X4265000Y-12950286D01*
X4279286Y-12936000D01*
X4307857Y-12921714D01*
X4536429Y-13221714D02*
X4536429Y-13021714D01*
X4536429Y-13050286D02*
X4550714Y-13036000D01*
X4579286Y-13021714D01*
X4622143Y-13021714D01*
X4650714Y-13036000D01*
X4665000Y-13064571D01*
X4665000Y-13221714D01*
X4665000Y-13064571D02*
X4679286Y-13036000D01*
X4707857Y-13021714D01*
X4750714Y-13021714D01*
X4779286Y-13036000D01*
X4793571Y-13064571D01*
X4793571Y-13221714D01*
X4936429Y-13221714D02*
X4936429Y-13021714D01*
X4936429Y-13050286D02*
X4950714Y-13036000D01*
X4979286Y-13021714D01*
X5022143Y-13021714D01*
X5050714Y-13036000D01*
X5065000Y-13064571D01*
X5065000Y-13221714D01*
X5065000Y-13064571D02*
X5079286Y-13036000D01*
X5107857Y-13021714D01*
X5150714Y-13021714D01*
X5179286Y-13036000D01*
X5193571Y-13064571D01*
X5193571Y-13221714D01*
X5779286Y-12907428D02*
X5522143Y-13293143D01*
X6165000Y-12921714D02*
X6193571Y-12921714D01*
X6222143Y-12936000D01*
X6236428Y-12950286D01*
X6250714Y-12978857D01*
X6265000Y-13036000D01*
X6265000Y-13107428D01*
X6250714Y-13164571D01*
X6236428Y-13193143D01*
X6222143Y-13207428D01*
X6193571Y-13221714D01*
X6165000Y-13221714D01*
X6136428Y-13207428D01*
X6122143Y-13193143D01*
X6107857Y-13164571D01*
X6093571Y-13107428D01*
X6093571Y-13036000D01*
X6107857Y-12978857D01*
X6122143Y-12950286D01*
X6136428Y-12936000D01*
X6165000Y-12921714D01*
X6393571Y-13193143D02*
X6407857Y-13207428D01*
X6393571Y-13221714D01*
X6379286Y-13207428D01*
X6393571Y-13193143D01*
X6393571Y-13221714D01*
X6693571Y-13221714D02*
X6522143Y-13221714D01*
X6607857Y-13221714D02*
X6607857Y-12921714D01*
X6579286Y-12964571D01*
X6550714Y-12993143D01*
X6522143Y-13007428D01*
X6836428Y-13221714D02*
X6893571Y-13221714D01*
X6922143Y-13207428D01*
X6936428Y-13193143D01*
X6965000Y-13150286D01*
X6979286Y-13093143D01*
X6979286Y-12978857D01*
X6965000Y-12950286D01*
X6950714Y-12936000D01*
X6922143Y-12921714D01*
X6865000Y-12921714D01*
X6836428Y-12936000D01*
X6822143Y-12950286D01*
X6807857Y-12978857D01*
X6807857Y-13050286D01*
X6822143Y-13078857D01*
X6836428Y-13093143D01*
X6865000Y-13107428D01*
X6922143Y-13107428D01*
X6950714Y-13093143D01*
X6965000Y-13078857D01*
X6979286Y-13050286D01*
X7079286Y-12921714D02*
X7279286Y-12921714D01*
X7150714Y-13221714D01*
X7379286Y-12921714D02*
X7379286Y-12978857D01*
X7493571Y-12921714D02*
X7493571Y-12978857D01*
X7936428Y-13336000D02*
X7922143Y-13321714D01*
X7893571Y-13278857D01*
X7879286Y-13250286D01*
X7865000Y-13207428D01*
X7850714Y-13136000D01*
X7850714Y-13078857D01*
X7865000Y-13007428D01*
X7879286Y-12964571D01*
X7893571Y-12936000D01*
X7922143Y-12893143D01*
X7936428Y-12878857D01*
X8107857Y-12921714D02*
X8136428Y-12921714D01*
X8165000Y-12936000D01*
X8179286Y-12950286D01*
X8193571Y-12978857D01*
X8207857Y-13036000D01*
X8207857Y-13107428D01*
X8193571Y-13164571D01*
X8179286Y-13193143D01*
X8165000Y-13207428D01*
X8136428Y-13221714D01*
X8107857Y-13221714D01*
X8079286Y-13207428D01*
X8065000Y-13193143D01*
X8050714Y-13164571D01*
X8036428Y-13107428D01*
X8036428Y-13036000D01*
X8050714Y-12978857D01*
X8065000Y-12950286D01*
X8079286Y-12936000D01*
X8107857Y-12921714D01*
X8565000Y-13221714D02*
X8565000Y-12921714D01*
X8693571Y-13221714D02*
X8693571Y-13064571D01*
X8679286Y-13036000D01*
X8650714Y-13021714D01*
X8607857Y-13021714D01*
X8579286Y-13036000D01*
X8565000Y-13050286D01*
X8879286Y-13221714D02*
X8850714Y-13207428D01*
X8836429Y-13193143D01*
X8822143Y-13164571D01*
X8822143Y-13078857D01*
X8836429Y-13050286D01*
X8850714Y-13036000D01*
X8879286Y-13021714D01*
X8922143Y-13021714D01*
X8950714Y-13036000D01*
X8965000Y-13050286D01*
X8979286Y-13078857D01*
X8979286Y-13164571D01*
X8965000Y-13193143D01*
X8950714Y-13207428D01*
X8922143Y-13221714D01*
X8879286Y-13221714D01*
X9150714Y-13221714D02*
X9122143Y-13207428D01*
X9107857Y-13178857D01*
X9107857Y-12921714D01*
X9379286Y-13207428D02*
X9350714Y-13221714D01*
X9293571Y-13221714D01*
X9265000Y-13207428D01*
X9250714Y-13178857D01*
X9250714Y-13064571D01*
X9265000Y-13036000D01*
X9293571Y-13021714D01*
X9350714Y-13021714D01*
X9379286Y-13036000D01*
X9393571Y-13064571D01*
X9393571Y-13093143D01*
X9250714Y-13121714D01*
X9507857Y-13207428D02*
X9536429Y-13221714D01*
X9593571Y-13221714D01*
X9622143Y-13207428D01*
X9636429Y-13178857D01*
X9636429Y-13164571D01*
X9622143Y-13136000D01*
X9593571Y-13121714D01*
X9550714Y-13121714D01*
X9522143Y-13107428D01*
X9507857Y-13078857D01*
X9507857Y-13064571D01*
X9522143Y-13036000D01*
X9550714Y-13021714D01*
X9593571Y-13021714D01*
X9622143Y-13036000D01*
X9993571Y-13107428D02*
X10222143Y-13107428D01*
X10107857Y-13221714D02*
X10107857Y-12993143D01*
X10565000Y-12921714D02*
X10750714Y-12921714D01*
X10650714Y-13036000D01*
X10693571Y-13036000D01*
X10722143Y-13050286D01*
X10736429Y-13064571D01*
X10750714Y-13093143D01*
X10750714Y-13164571D01*
X10736429Y-13193143D01*
X10722143Y-13207428D01*
X10693571Y-13221714D01*
X10607857Y-13221714D01*
X10579286Y-13207428D01*
X10565000Y-13193143D01*
X11093571Y-13207428D02*
X11122143Y-13221714D01*
X11179286Y-13221714D01*
X11207857Y-13207428D01*
X11222143Y-13178857D01*
X11222143Y-13164571D01*
X11207857Y-13136000D01*
X11179286Y-13121714D01*
X11136429Y-13121714D01*
X11107857Y-13107428D01*
X11093571Y-13078857D01*
X11093571Y-13064571D01*
X11107857Y-13036000D01*
X11136429Y-13021714D01*
X11179286Y-13021714D01*
X11207857Y-13036000D01*
X11393571Y-13221714D02*
X11365000Y-13207428D01*
X11350714Y-13178857D01*
X11350714Y-12921714D01*
X11550714Y-13221714D02*
X11522143Y-13207428D01*
X11507857Y-13193143D01*
X11493571Y-13164571D01*
X11493571Y-13078857D01*
X11507857Y-13050286D01*
X11522143Y-13036000D01*
X11550714Y-13021714D01*
X11593571Y-13021714D01*
X11622143Y-13036000D01*
X11636428Y-13050286D01*
X11650714Y-13078857D01*
X11650714Y-13164571D01*
X11636428Y-13193143D01*
X11622143Y-13207428D01*
X11593571Y-13221714D01*
X11550714Y-13221714D01*
X11736428Y-13021714D02*
X11850714Y-13021714D01*
X11779286Y-12921714D02*
X11779286Y-13178857D01*
X11793571Y-13207428D01*
X11822143Y-13221714D01*
X11850714Y-13221714D01*
X11936428Y-13207428D02*
X11965000Y-13221714D01*
X12022143Y-13221714D01*
X12050714Y-13207428D01*
X12065000Y-13178857D01*
X12065000Y-13164571D01*
X12050714Y-13136000D01*
X12022143Y-13121714D01*
X11979286Y-13121714D01*
X11950714Y-13107428D01*
X11936428Y-13078857D01*
X11936428Y-13064571D01*
X11950714Y-13036000D01*
X11979286Y-13021714D01*
X12022143Y-13021714D01*
X12050714Y-13036000D01*
X12165000Y-13336000D02*
X12179286Y-13321714D01*
X12207857Y-13278857D01*
X12222143Y-13250286D01*
X12236428Y-13207428D01*
X12250714Y-13136000D01*
X12250714Y-13078857D01*
X12236428Y-13007428D01*
X12222143Y-12964571D01*
X12207857Y-12936000D01*
X12179286Y-12893143D01*
X12165000Y-12878857D01*
X12707857Y-13336000D02*
X12693571Y-13321714D01*
X12665000Y-13278857D01*
X12650714Y-13250286D01*
X12636428Y-13207428D01*
X12622143Y-13136000D01*
X12622143Y-13078857D01*
X12636428Y-13007428D01*
X12650714Y-12964571D01*
X12665000Y-12936000D01*
X12693571Y-12893143D01*
X12707857Y-12878857D01*
X12822143Y-13021714D02*
X12822143Y-13221714D01*
X12822143Y-13050286D02*
X12836428Y-13036000D01*
X12865000Y-13021714D01*
X12907857Y-13021714D01*
X12936428Y-13036000D01*
X12950714Y-13064571D01*
X12950714Y-13221714D01*
X13136428Y-13221714D02*
X13107857Y-13207428D01*
X13093571Y-13193143D01*
X13079286Y-13164571D01*
X13079286Y-13078857D01*
X13093571Y-13050286D01*
X13107857Y-13036000D01*
X13136428Y-13021714D01*
X13179286Y-13021714D01*
X13207857Y-13036000D01*
X13222143Y-13050286D01*
X13236428Y-13078857D01*
X13236428Y-13164571D01*
X13222143Y-13193143D01*
X13207857Y-13207428D01*
X13179286Y-13221714D01*
X13136428Y-13221714D01*
X13322143Y-13021714D02*
X13436428Y-13021714D01*
X13365000Y-12921714D02*
X13365000Y-13178857D01*
X13379286Y-13207428D01*
X13407857Y-13221714D01*
X13436428Y-13221714D01*
X13765000Y-13021714D02*
X13765000Y-13321714D01*
X13765000Y-13036000D02*
X13793571Y-13021714D01*
X13850714Y-13021714D01*
X13879286Y-13036000D01*
X13893571Y-13050286D01*
X13907857Y-13078857D01*
X13907857Y-13164571D01*
X13893571Y-13193143D01*
X13879286Y-13207428D01*
X13850714Y-13221714D01*
X13793571Y-13221714D01*
X13765000Y-13207428D01*
X14079286Y-13221714D02*
X14050714Y-13207428D01*
X14036428Y-13178857D01*
X14036428Y-12921714D01*
X14322143Y-13221714D02*
X14322143Y-13064571D01*
X14307857Y-13036000D01*
X14279286Y-13021714D01*
X14222143Y-13021714D01*
X14193571Y-13036000D01*
X14322143Y-13207428D02*
X14293571Y-13221714D01*
X14222143Y-13221714D01*
X14193571Y-13207428D01*
X14179286Y-13178857D01*
X14179286Y-13150286D01*
X14193571Y-13121714D01*
X14222143Y-13107428D01*
X14293571Y-13107428D01*
X14322143Y-13093143D01*
X14422143Y-13021714D02*
X14536428Y-13021714D01*
X14465000Y-12921714D02*
X14465000Y-13178857D01*
X14479286Y-13207428D01*
X14507857Y-13221714D01*
X14536428Y-13221714D01*
X14750714Y-13207428D02*
X14722143Y-13221714D01*
X14665000Y-13221714D01*
X14636428Y-13207428D01*
X14622143Y-13178857D01*
X14622143Y-13064571D01*
X14636428Y-13036000D01*
X14665000Y-13021714D01*
X14722143Y-13021714D01*
X14750714Y-13036000D01*
X14765000Y-13064571D01*
X14765000Y-13093143D01*
X14622143Y-13121714D01*
X15022143Y-13221714D02*
X15022143Y-12921714D01*
X15022143Y-13207428D02*
X14993571Y-13221714D01*
X14936428Y-13221714D01*
X14907857Y-13207428D01*
X14893571Y-13193143D01*
X14879286Y-13164571D01*
X14879286Y-13078857D01*
X14893571Y-13050286D01*
X14907857Y-13036000D01*
X14936428Y-13021714D01*
X14993571Y-13021714D01*
X15022143Y-13036000D01*
X15136428Y-13336000D02*
X15150714Y-13321714D01*
X15179286Y-13278857D01*
X15193571Y-13250286D01*
X15207857Y-13207428D01*
X15222143Y-13136000D01*
X15222143Y-13078857D01*
X15207857Y-13007428D01*
X15193571Y-12964571D01*
X15179286Y-12936000D01*
X15150714Y-12893143D01*
X15136428Y-12878857D01*
M02*
