%FSLAX45Y45*%
G04 Gerber Fmt 4.5, Leading zero omitted, Abs format (unit mm)*
G04 Created by KiCad (PCBNEW (5.1.9-16-g1737927814)-1) date 2021-09-18 11:44:40*
%MOMM*%
%LPD*%
G01*
G04 APERTURE LIST*
%TA.AperFunction,Profile*%
%ADD10C,0.100000*%
%TD*%
%ADD11C,0.200000*%
%ADD12C,0.300000*%
G04 APERTURE END LIST*
D10*
X4000000Y-4500000D02*
X4000000Y-11000000D01*
X23000000Y-4500000D02*
X4000000Y-4500000D01*
X23000000Y-11000000D02*
X23000000Y-4500000D01*
X4000000Y-11000000D02*
X23000000Y-11000000D01*
D11*
X4140000Y-5384000D02*
X4210000Y-5454000D01*
X4210000Y-5384000D02*
X4140000Y-5454000D01*
X4140000Y-5584000D02*
X4210000Y-5654000D01*
X4210000Y-5584000D02*
X4140000Y-5654000D01*
X4140000Y-5784000D02*
X4210000Y-5854000D01*
X4210000Y-5784000D02*
X4140000Y-5854000D01*
X4140000Y-5984000D02*
X4210000Y-6054000D01*
X4210000Y-5984000D02*
X4140000Y-6054000D01*
X4140000Y-6184000D02*
X4210000Y-6254000D01*
X4210000Y-6184000D02*
X4140000Y-6254000D01*
X4140000Y-6584000D02*
X4210000Y-6654000D01*
X4210000Y-6584000D02*
X4140000Y-6654000D01*
X4140000Y-6784000D02*
X4210000Y-6854000D01*
X4210000Y-6784000D02*
X4140000Y-6854000D01*
X4140000Y-6984000D02*
X4210000Y-7054000D01*
X4210000Y-6984000D02*
X4140000Y-7054000D01*
X4140000Y-7184000D02*
X4210000Y-7254000D01*
X4210000Y-7184000D02*
X4140000Y-7254000D01*
X4140000Y-7384000D02*
X4210000Y-7454000D01*
X4210000Y-7384000D02*
X4140000Y-7454000D01*
X4140000Y-7584000D02*
X4210000Y-7654000D01*
X4210000Y-7584000D02*
X4140000Y-7654000D01*
X4140000Y-7784000D02*
X4210000Y-7854000D01*
X4210000Y-7784000D02*
X4140000Y-7854000D01*
X4140000Y-7984000D02*
X4210000Y-8054000D01*
X4210000Y-7984000D02*
X4140000Y-8054000D01*
X4140000Y-8184000D02*
X4210000Y-8254000D01*
X4210000Y-8184000D02*
X4140000Y-8254000D01*
X4140000Y-8384000D02*
X4210000Y-8454000D01*
X4210000Y-8384000D02*
X4140000Y-8454000D01*
X4140000Y-8584000D02*
X4210000Y-8654000D01*
X4210000Y-8584000D02*
X4140000Y-8654000D01*
X4140000Y-8784000D02*
X4210000Y-8854000D01*
X4210000Y-8784000D02*
X4140000Y-8854000D01*
X4140000Y-8984000D02*
X4210000Y-9054000D01*
X4210000Y-8984000D02*
X4140000Y-9054000D01*
X4140000Y-9184000D02*
X4210000Y-9254000D01*
X4210000Y-9184000D02*
X4140000Y-9254000D01*
X4140000Y-9384000D02*
X4210000Y-9454000D01*
X4210000Y-9384000D02*
X4140000Y-9454000D01*
X4140000Y-9584000D02*
X4210000Y-9654000D01*
X4210000Y-9584000D02*
X4140000Y-9654000D01*
X4140000Y-9784000D02*
X4210000Y-9854000D01*
X4210000Y-9784000D02*
X4140000Y-9854000D01*
X4140000Y-9984000D02*
X4210000Y-10054000D01*
X4210000Y-9984000D02*
X4140000Y-10054000D01*
X4140000Y-10184000D02*
X4210000Y-10254000D01*
X4210000Y-10184000D02*
X4140000Y-10254000D01*
X4340000Y-5284000D02*
X4410000Y-5354000D01*
X4410000Y-5284000D02*
X4340000Y-5354000D01*
X4340000Y-5484000D02*
X4410000Y-5554000D01*
X4410000Y-5484000D02*
X4340000Y-5554000D01*
X4340000Y-5684000D02*
X4410000Y-5754000D01*
X4410000Y-5684000D02*
X4340000Y-5754000D01*
X4340000Y-5884000D02*
X4410000Y-5954000D01*
X4410000Y-5884000D02*
X4340000Y-5954000D01*
X4340000Y-6084000D02*
X4410000Y-6154000D01*
X4410000Y-6084000D02*
X4340000Y-6154000D01*
X4340000Y-6284000D02*
X4410000Y-6354000D01*
X4410000Y-6284000D02*
X4340000Y-6354000D01*
X4340000Y-6684000D02*
X4410000Y-6754000D01*
X4410000Y-6684000D02*
X4340000Y-6754000D01*
X4340000Y-6884000D02*
X4410000Y-6954000D01*
X4410000Y-6884000D02*
X4340000Y-6954000D01*
X4340000Y-7084000D02*
X4410000Y-7154000D01*
X4410000Y-7084000D02*
X4340000Y-7154000D01*
X4340000Y-7284000D02*
X4410000Y-7354000D01*
X4410000Y-7284000D02*
X4340000Y-7354000D01*
X4340000Y-7484000D02*
X4410000Y-7554000D01*
X4410000Y-7484000D02*
X4340000Y-7554000D01*
X4340000Y-7684000D02*
X4410000Y-7754000D01*
X4410000Y-7684000D02*
X4340000Y-7754000D01*
X4340000Y-7884000D02*
X4410000Y-7954000D01*
X4410000Y-7884000D02*
X4340000Y-7954000D01*
X4340000Y-8084000D02*
X4410000Y-8154000D01*
X4410000Y-8084000D02*
X4340000Y-8154000D01*
X4340000Y-8284000D02*
X4410000Y-8354000D01*
X4410000Y-8284000D02*
X4340000Y-8354000D01*
X4340000Y-8484000D02*
X4410000Y-8554000D01*
X4410000Y-8484000D02*
X4340000Y-8554000D01*
X4340000Y-8684000D02*
X4410000Y-8754000D01*
X4410000Y-8684000D02*
X4340000Y-8754000D01*
X4340000Y-8884000D02*
X4410000Y-8954000D01*
X4410000Y-8884000D02*
X4340000Y-8954000D01*
X4340000Y-9084000D02*
X4410000Y-9154000D01*
X4410000Y-9084000D02*
X4340000Y-9154000D01*
X4340000Y-9284000D02*
X4410000Y-9354000D01*
X4410000Y-9284000D02*
X4340000Y-9354000D01*
X4340000Y-9484000D02*
X4410000Y-9554000D01*
X4410000Y-9484000D02*
X4340000Y-9554000D01*
X4340000Y-9684000D02*
X4410000Y-9754000D01*
X4410000Y-9684000D02*
X4340000Y-9754000D01*
X4340000Y-9884000D02*
X4410000Y-9954000D01*
X4410000Y-9884000D02*
X4340000Y-9954000D01*
X4340000Y-10084000D02*
X4410000Y-10154000D01*
X4410000Y-10084000D02*
X4340000Y-10154000D01*
X4340000Y-10284000D02*
X4410000Y-10354000D01*
X4410000Y-10284000D02*
X4340000Y-10354000D01*
X4590000Y-5284000D02*
X4660000Y-5354000D01*
X4660000Y-5284000D02*
X4590000Y-5354000D01*
X4590000Y-5484000D02*
X4660000Y-5554000D01*
X4660000Y-5484000D02*
X4590000Y-5554000D01*
X4590000Y-5684000D02*
X4660000Y-5754000D01*
X4660000Y-5684000D02*
X4590000Y-5754000D01*
X4590000Y-5884000D02*
X4660000Y-5954000D01*
X4660000Y-5884000D02*
X4590000Y-5954000D01*
X4590000Y-6084000D02*
X4660000Y-6154000D01*
X4660000Y-6084000D02*
X4590000Y-6154000D01*
X4590000Y-6284000D02*
X4660000Y-6354000D01*
X4660000Y-6284000D02*
X4590000Y-6354000D01*
X4590000Y-6684000D02*
X4660000Y-6754000D01*
X4660000Y-6684000D02*
X4590000Y-6754000D01*
X4590000Y-6884000D02*
X4660000Y-6954000D01*
X4660000Y-6884000D02*
X4590000Y-6954000D01*
X4590000Y-7084000D02*
X4660000Y-7154000D01*
X4660000Y-7084000D02*
X4590000Y-7154000D01*
X4590000Y-7284000D02*
X4660000Y-7354000D01*
X4660000Y-7284000D02*
X4590000Y-7354000D01*
X4590000Y-7484000D02*
X4660000Y-7554000D01*
X4660000Y-7484000D02*
X4590000Y-7554000D01*
X4590000Y-7684000D02*
X4660000Y-7754000D01*
X4660000Y-7684000D02*
X4590000Y-7754000D01*
X4590000Y-7884000D02*
X4660000Y-7954000D01*
X4660000Y-7884000D02*
X4590000Y-7954000D01*
X4590000Y-8084000D02*
X4660000Y-8154000D01*
X4660000Y-8084000D02*
X4590000Y-8154000D01*
X4590000Y-8284000D02*
X4660000Y-8354000D01*
X4660000Y-8284000D02*
X4590000Y-8354000D01*
X4590000Y-8484000D02*
X4660000Y-8554000D01*
X4660000Y-8484000D02*
X4590000Y-8554000D01*
X4590000Y-8684000D02*
X4660000Y-8754000D01*
X4660000Y-8684000D02*
X4590000Y-8754000D01*
X4590000Y-8884000D02*
X4660000Y-8954000D01*
X4660000Y-8884000D02*
X4590000Y-8954000D01*
X4590000Y-9084000D02*
X4660000Y-9154000D01*
X4660000Y-9084000D02*
X4590000Y-9154000D01*
X4590000Y-9284000D02*
X4660000Y-9354000D01*
X4660000Y-9284000D02*
X4590000Y-9354000D01*
X4590000Y-9484000D02*
X4660000Y-9554000D01*
X4660000Y-9484000D02*
X4590000Y-9554000D01*
X4590000Y-9684000D02*
X4660000Y-9754000D01*
X4660000Y-9684000D02*
X4590000Y-9754000D01*
X4590000Y-9884000D02*
X4660000Y-9954000D01*
X4660000Y-9884000D02*
X4590000Y-9954000D01*
X4590000Y-10084000D02*
X4660000Y-10154000D01*
X4660000Y-10084000D02*
X4590000Y-10154000D01*
X4590000Y-10284000D02*
X4660000Y-10354000D01*
X4660000Y-10284000D02*
X4590000Y-10354000D01*
X4790000Y-5384000D02*
X4860000Y-5454000D01*
X4860000Y-5384000D02*
X4790000Y-5454000D01*
X4790000Y-5584000D02*
X4860000Y-5654000D01*
X4860000Y-5584000D02*
X4790000Y-5654000D01*
X4790000Y-5784000D02*
X4860000Y-5854000D01*
X4860000Y-5784000D02*
X4790000Y-5854000D01*
X4790000Y-5984000D02*
X4860000Y-6054000D01*
X4860000Y-5984000D02*
X4790000Y-6054000D01*
X4790000Y-6184000D02*
X4860000Y-6254000D01*
X4860000Y-6184000D02*
X4790000Y-6254000D01*
X4790000Y-6584000D02*
X4860000Y-6654000D01*
X4860000Y-6584000D02*
X4790000Y-6654000D01*
X4790000Y-6784000D02*
X4860000Y-6854000D01*
X4860000Y-6784000D02*
X4790000Y-6854000D01*
X4790000Y-6984000D02*
X4860000Y-7054000D01*
X4860000Y-6984000D02*
X4790000Y-7054000D01*
X4790000Y-7184000D02*
X4860000Y-7254000D01*
X4860000Y-7184000D02*
X4790000Y-7254000D01*
X4790000Y-7384000D02*
X4860000Y-7454000D01*
X4860000Y-7384000D02*
X4790000Y-7454000D01*
X4790000Y-7584000D02*
X4860000Y-7654000D01*
X4860000Y-7584000D02*
X4790000Y-7654000D01*
X4790000Y-7784000D02*
X4860000Y-7854000D01*
X4860000Y-7784000D02*
X4790000Y-7854000D01*
X4790000Y-7984000D02*
X4860000Y-8054000D01*
X4860000Y-7984000D02*
X4790000Y-8054000D01*
X4790000Y-8184000D02*
X4860000Y-8254000D01*
X4860000Y-8184000D02*
X4790000Y-8254000D01*
X4790000Y-8384000D02*
X4860000Y-8454000D01*
X4860000Y-8384000D02*
X4790000Y-8454000D01*
X4790000Y-8584000D02*
X4860000Y-8654000D01*
X4860000Y-8584000D02*
X4790000Y-8654000D01*
X4790000Y-8784000D02*
X4860000Y-8854000D01*
X4860000Y-8784000D02*
X4790000Y-8854000D01*
X4790000Y-8984000D02*
X4860000Y-9054000D01*
X4860000Y-8984000D02*
X4790000Y-9054000D01*
X4790000Y-9184000D02*
X4860000Y-9254000D01*
X4860000Y-9184000D02*
X4790000Y-9254000D01*
X4790000Y-9384000D02*
X4860000Y-9454000D01*
X4860000Y-9384000D02*
X4790000Y-9454000D01*
X4790000Y-9584000D02*
X4860000Y-9654000D01*
X4860000Y-9584000D02*
X4790000Y-9654000D01*
X4790000Y-9784000D02*
X4860000Y-9854000D01*
X4860000Y-9784000D02*
X4790000Y-9854000D01*
X4790000Y-9984000D02*
X4860000Y-10054000D01*
X4860000Y-9984000D02*
X4790000Y-10054000D01*
X4790000Y-10184000D02*
X4860000Y-10254000D01*
X4860000Y-10184000D02*
X4790000Y-10254000D01*
X6140000Y-5384000D02*
X6210000Y-5454000D01*
X6210000Y-5384000D02*
X6140000Y-5454000D01*
X6140000Y-5584000D02*
X6210000Y-5654000D01*
X6210000Y-5584000D02*
X6140000Y-5654000D01*
X6140000Y-5784000D02*
X6210000Y-5854000D01*
X6210000Y-5784000D02*
X6140000Y-5854000D01*
X6140000Y-5984000D02*
X6210000Y-6054000D01*
X6210000Y-5984000D02*
X6140000Y-6054000D01*
X6140000Y-6184000D02*
X6210000Y-6254000D01*
X6210000Y-6184000D02*
X6140000Y-6254000D01*
X6140000Y-6584000D02*
X6210000Y-6654000D01*
X6210000Y-6584000D02*
X6140000Y-6654000D01*
X6140000Y-6784000D02*
X6210000Y-6854000D01*
X6210000Y-6784000D02*
X6140000Y-6854000D01*
X6140000Y-6984000D02*
X6210000Y-7054000D01*
X6210000Y-6984000D02*
X6140000Y-7054000D01*
X6140000Y-7184000D02*
X6210000Y-7254000D01*
X6210000Y-7184000D02*
X6140000Y-7254000D01*
X6140000Y-7384000D02*
X6210000Y-7454000D01*
X6210000Y-7384000D02*
X6140000Y-7454000D01*
X6140000Y-7584000D02*
X6210000Y-7654000D01*
X6210000Y-7584000D02*
X6140000Y-7654000D01*
X6140000Y-7784000D02*
X6210000Y-7854000D01*
X6210000Y-7784000D02*
X6140000Y-7854000D01*
X6140000Y-7984000D02*
X6210000Y-8054000D01*
X6210000Y-7984000D02*
X6140000Y-8054000D01*
X6140000Y-8184000D02*
X6210000Y-8254000D01*
X6210000Y-8184000D02*
X6140000Y-8254000D01*
X6140000Y-8384000D02*
X6210000Y-8454000D01*
X6210000Y-8384000D02*
X6140000Y-8454000D01*
X6140000Y-8584000D02*
X6210000Y-8654000D01*
X6210000Y-8584000D02*
X6140000Y-8654000D01*
X6140000Y-8784000D02*
X6210000Y-8854000D01*
X6210000Y-8784000D02*
X6140000Y-8854000D01*
X6140000Y-8984000D02*
X6210000Y-9054000D01*
X6210000Y-8984000D02*
X6140000Y-9054000D01*
X6140000Y-9184000D02*
X6210000Y-9254000D01*
X6210000Y-9184000D02*
X6140000Y-9254000D01*
X6140000Y-9384000D02*
X6210000Y-9454000D01*
X6210000Y-9384000D02*
X6140000Y-9454000D01*
X6140000Y-9584000D02*
X6210000Y-9654000D01*
X6210000Y-9584000D02*
X6140000Y-9654000D01*
X6140000Y-9784000D02*
X6210000Y-9854000D01*
X6210000Y-9784000D02*
X6140000Y-9854000D01*
X6140000Y-9984000D02*
X6210000Y-10054000D01*
X6210000Y-9984000D02*
X6140000Y-10054000D01*
X6140000Y-10184000D02*
X6210000Y-10254000D01*
X6210000Y-10184000D02*
X6140000Y-10254000D01*
X6340000Y-5284000D02*
X6410000Y-5354000D01*
X6410000Y-5284000D02*
X6340000Y-5354000D01*
X6340000Y-5484000D02*
X6410000Y-5554000D01*
X6410000Y-5484000D02*
X6340000Y-5554000D01*
X6340000Y-5684000D02*
X6410000Y-5754000D01*
X6410000Y-5684000D02*
X6340000Y-5754000D01*
X6340000Y-5884000D02*
X6410000Y-5954000D01*
X6410000Y-5884000D02*
X6340000Y-5954000D01*
X6340000Y-6084000D02*
X6410000Y-6154000D01*
X6410000Y-6084000D02*
X6340000Y-6154000D01*
X6340000Y-6284000D02*
X6410000Y-6354000D01*
X6410000Y-6284000D02*
X6340000Y-6354000D01*
X6340000Y-6684000D02*
X6410000Y-6754000D01*
X6410000Y-6684000D02*
X6340000Y-6754000D01*
X6340000Y-6884000D02*
X6410000Y-6954000D01*
X6410000Y-6884000D02*
X6340000Y-6954000D01*
X6340000Y-7084000D02*
X6410000Y-7154000D01*
X6410000Y-7084000D02*
X6340000Y-7154000D01*
X6340000Y-7284000D02*
X6410000Y-7354000D01*
X6410000Y-7284000D02*
X6340000Y-7354000D01*
X6340000Y-7484000D02*
X6410000Y-7554000D01*
X6410000Y-7484000D02*
X6340000Y-7554000D01*
X6340000Y-7684000D02*
X6410000Y-7754000D01*
X6410000Y-7684000D02*
X6340000Y-7754000D01*
X6340000Y-7884000D02*
X6410000Y-7954000D01*
X6410000Y-7884000D02*
X6340000Y-7954000D01*
X6340000Y-8084000D02*
X6410000Y-8154000D01*
X6410000Y-8084000D02*
X6340000Y-8154000D01*
X6340000Y-8284000D02*
X6410000Y-8354000D01*
X6410000Y-8284000D02*
X6340000Y-8354000D01*
X6340000Y-8484000D02*
X6410000Y-8554000D01*
X6410000Y-8484000D02*
X6340000Y-8554000D01*
X6340000Y-8684000D02*
X6410000Y-8754000D01*
X6410000Y-8684000D02*
X6340000Y-8754000D01*
X6340000Y-8884000D02*
X6410000Y-8954000D01*
X6410000Y-8884000D02*
X6340000Y-8954000D01*
X6340000Y-9084000D02*
X6410000Y-9154000D01*
X6410000Y-9084000D02*
X6340000Y-9154000D01*
X6340000Y-9284000D02*
X6410000Y-9354000D01*
X6410000Y-9284000D02*
X6340000Y-9354000D01*
X6340000Y-9484000D02*
X6410000Y-9554000D01*
X6410000Y-9484000D02*
X6340000Y-9554000D01*
X6340000Y-9684000D02*
X6410000Y-9754000D01*
X6410000Y-9684000D02*
X6340000Y-9754000D01*
X6340000Y-9884000D02*
X6410000Y-9954000D01*
X6410000Y-9884000D02*
X6340000Y-9954000D01*
X6340000Y-10084000D02*
X6410000Y-10154000D01*
X6410000Y-10084000D02*
X6340000Y-10154000D01*
X6340000Y-10284000D02*
X6410000Y-10354000D01*
X6410000Y-10284000D02*
X6340000Y-10354000D01*
X6590000Y-5284000D02*
X6660000Y-5354000D01*
X6660000Y-5284000D02*
X6590000Y-5354000D01*
X6590000Y-5484000D02*
X6660000Y-5554000D01*
X6660000Y-5484000D02*
X6590000Y-5554000D01*
X6590000Y-5684000D02*
X6660000Y-5754000D01*
X6660000Y-5684000D02*
X6590000Y-5754000D01*
X6590000Y-5884000D02*
X6660000Y-5954000D01*
X6660000Y-5884000D02*
X6590000Y-5954000D01*
X6590000Y-6084000D02*
X6660000Y-6154000D01*
X6660000Y-6084000D02*
X6590000Y-6154000D01*
X6590000Y-6284000D02*
X6660000Y-6354000D01*
X6660000Y-6284000D02*
X6590000Y-6354000D01*
X6590000Y-6684000D02*
X6660000Y-6754000D01*
X6660000Y-6684000D02*
X6590000Y-6754000D01*
X6590000Y-6884000D02*
X6660000Y-6954000D01*
X6660000Y-6884000D02*
X6590000Y-6954000D01*
X6590000Y-7084000D02*
X6660000Y-7154000D01*
X6660000Y-7084000D02*
X6590000Y-7154000D01*
X6590000Y-7284000D02*
X6660000Y-7354000D01*
X6660000Y-7284000D02*
X6590000Y-7354000D01*
X6590000Y-7484000D02*
X6660000Y-7554000D01*
X6660000Y-7484000D02*
X6590000Y-7554000D01*
X6590000Y-7684000D02*
X6660000Y-7754000D01*
X6660000Y-7684000D02*
X6590000Y-7754000D01*
X6590000Y-7884000D02*
X6660000Y-7954000D01*
X6660000Y-7884000D02*
X6590000Y-7954000D01*
X6590000Y-8084000D02*
X6660000Y-8154000D01*
X6660000Y-8084000D02*
X6590000Y-8154000D01*
X6590000Y-8284000D02*
X6660000Y-8354000D01*
X6660000Y-8284000D02*
X6590000Y-8354000D01*
X6590000Y-8484000D02*
X6660000Y-8554000D01*
X6660000Y-8484000D02*
X6590000Y-8554000D01*
X6590000Y-8684000D02*
X6660000Y-8754000D01*
X6660000Y-8684000D02*
X6590000Y-8754000D01*
X6590000Y-8884000D02*
X6660000Y-8954000D01*
X6660000Y-8884000D02*
X6590000Y-8954000D01*
X6590000Y-9084000D02*
X6660000Y-9154000D01*
X6660000Y-9084000D02*
X6590000Y-9154000D01*
X6590000Y-9284000D02*
X6660000Y-9354000D01*
X6660000Y-9284000D02*
X6590000Y-9354000D01*
X6590000Y-9484000D02*
X6660000Y-9554000D01*
X6660000Y-9484000D02*
X6590000Y-9554000D01*
X6590000Y-9684000D02*
X6660000Y-9754000D01*
X6660000Y-9684000D02*
X6590000Y-9754000D01*
X6590000Y-9884000D02*
X6660000Y-9954000D01*
X6660000Y-9884000D02*
X6590000Y-9954000D01*
X6590000Y-10084000D02*
X6660000Y-10154000D01*
X6660000Y-10084000D02*
X6590000Y-10154000D01*
X6590000Y-10284000D02*
X6660000Y-10354000D01*
X6660000Y-10284000D02*
X6590000Y-10354000D01*
X6790000Y-5384000D02*
X6860000Y-5454000D01*
X6860000Y-5384000D02*
X6790000Y-5454000D01*
X6790000Y-5584000D02*
X6860000Y-5654000D01*
X6860000Y-5584000D02*
X6790000Y-5654000D01*
X6790000Y-5784000D02*
X6860000Y-5854000D01*
X6860000Y-5784000D02*
X6790000Y-5854000D01*
X6790000Y-5984000D02*
X6860000Y-6054000D01*
X6860000Y-5984000D02*
X6790000Y-6054000D01*
X6790000Y-6184000D02*
X6860000Y-6254000D01*
X6860000Y-6184000D02*
X6790000Y-6254000D01*
X6790000Y-6584000D02*
X6860000Y-6654000D01*
X6860000Y-6584000D02*
X6790000Y-6654000D01*
X6790000Y-6784000D02*
X6860000Y-6854000D01*
X6860000Y-6784000D02*
X6790000Y-6854000D01*
X6790000Y-6984000D02*
X6860000Y-7054000D01*
X6860000Y-6984000D02*
X6790000Y-7054000D01*
X6790000Y-7184000D02*
X6860000Y-7254000D01*
X6860000Y-7184000D02*
X6790000Y-7254000D01*
X6790000Y-7384000D02*
X6860000Y-7454000D01*
X6860000Y-7384000D02*
X6790000Y-7454000D01*
X6790000Y-7584000D02*
X6860000Y-7654000D01*
X6860000Y-7584000D02*
X6790000Y-7654000D01*
X6790000Y-7784000D02*
X6860000Y-7854000D01*
X6860000Y-7784000D02*
X6790000Y-7854000D01*
X6790000Y-7984000D02*
X6860000Y-8054000D01*
X6860000Y-7984000D02*
X6790000Y-8054000D01*
X6790000Y-8184000D02*
X6860000Y-8254000D01*
X6860000Y-8184000D02*
X6790000Y-8254000D01*
X6790000Y-8384000D02*
X6860000Y-8454000D01*
X6860000Y-8384000D02*
X6790000Y-8454000D01*
X6790000Y-8584000D02*
X6860000Y-8654000D01*
X6860000Y-8584000D02*
X6790000Y-8654000D01*
X6790000Y-8784000D02*
X6860000Y-8854000D01*
X6860000Y-8784000D02*
X6790000Y-8854000D01*
X6790000Y-8984000D02*
X6860000Y-9054000D01*
X6860000Y-8984000D02*
X6790000Y-9054000D01*
X6790000Y-9184000D02*
X6860000Y-9254000D01*
X6860000Y-9184000D02*
X6790000Y-9254000D01*
X6790000Y-9384000D02*
X6860000Y-9454000D01*
X6860000Y-9384000D02*
X6790000Y-9454000D01*
X6790000Y-9584000D02*
X6860000Y-9654000D01*
X6860000Y-9584000D02*
X6790000Y-9654000D01*
X6790000Y-9784000D02*
X6860000Y-9854000D01*
X6860000Y-9784000D02*
X6790000Y-9854000D01*
X6790000Y-9984000D02*
X6860000Y-10054000D01*
X6860000Y-9984000D02*
X6790000Y-10054000D01*
X6790000Y-10184000D02*
X6860000Y-10254000D01*
X6860000Y-10184000D02*
X6790000Y-10254000D01*
X8140000Y-5384000D02*
X8210000Y-5454000D01*
X8210000Y-5384000D02*
X8140000Y-5454000D01*
X8140000Y-5584000D02*
X8210000Y-5654000D01*
X8210000Y-5584000D02*
X8140000Y-5654000D01*
X8140000Y-5784000D02*
X8210000Y-5854000D01*
X8210000Y-5784000D02*
X8140000Y-5854000D01*
X8140000Y-5984000D02*
X8210000Y-6054000D01*
X8210000Y-5984000D02*
X8140000Y-6054000D01*
X8140000Y-6184000D02*
X8210000Y-6254000D01*
X8210000Y-6184000D02*
X8140000Y-6254000D01*
X8140000Y-6584000D02*
X8210000Y-6654000D01*
X8210000Y-6584000D02*
X8140000Y-6654000D01*
X8140000Y-6784000D02*
X8210000Y-6854000D01*
X8210000Y-6784000D02*
X8140000Y-6854000D01*
X8140000Y-6984000D02*
X8210000Y-7054000D01*
X8210000Y-6984000D02*
X8140000Y-7054000D01*
X8140000Y-7184000D02*
X8210000Y-7254000D01*
X8210000Y-7184000D02*
X8140000Y-7254000D01*
X8140000Y-7384000D02*
X8210000Y-7454000D01*
X8210000Y-7384000D02*
X8140000Y-7454000D01*
X8140000Y-7584000D02*
X8210000Y-7654000D01*
X8210000Y-7584000D02*
X8140000Y-7654000D01*
X8140000Y-7784000D02*
X8210000Y-7854000D01*
X8210000Y-7784000D02*
X8140000Y-7854000D01*
X8140000Y-7984000D02*
X8210000Y-8054000D01*
X8210000Y-7984000D02*
X8140000Y-8054000D01*
X8140000Y-8184000D02*
X8210000Y-8254000D01*
X8210000Y-8184000D02*
X8140000Y-8254000D01*
X8140000Y-8384000D02*
X8210000Y-8454000D01*
X8210000Y-8384000D02*
X8140000Y-8454000D01*
X8140000Y-8584000D02*
X8210000Y-8654000D01*
X8210000Y-8584000D02*
X8140000Y-8654000D01*
X8140000Y-8784000D02*
X8210000Y-8854000D01*
X8210000Y-8784000D02*
X8140000Y-8854000D01*
X8140000Y-8984000D02*
X8210000Y-9054000D01*
X8210000Y-8984000D02*
X8140000Y-9054000D01*
X8140000Y-9184000D02*
X8210000Y-9254000D01*
X8210000Y-9184000D02*
X8140000Y-9254000D01*
X8140000Y-9384000D02*
X8210000Y-9454000D01*
X8210000Y-9384000D02*
X8140000Y-9454000D01*
X8140000Y-9584000D02*
X8210000Y-9654000D01*
X8210000Y-9584000D02*
X8140000Y-9654000D01*
X8140000Y-9784000D02*
X8210000Y-9854000D01*
X8210000Y-9784000D02*
X8140000Y-9854000D01*
X8140000Y-9984000D02*
X8210000Y-10054000D01*
X8210000Y-9984000D02*
X8140000Y-10054000D01*
X8140000Y-10184000D02*
X8210000Y-10254000D01*
X8210000Y-10184000D02*
X8140000Y-10254000D01*
X8340000Y-5284000D02*
X8410000Y-5354000D01*
X8410000Y-5284000D02*
X8340000Y-5354000D01*
X8340000Y-5484000D02*
X8410000Y-5554000D01*
X8410000Y-5484000D02*
X8340000Y-5554000D01*
X8340000Y-5684000D02*
X8410000Y-5754000D01*
X8410000Y-5684000D02*
X8340000Y-5754000D01*
X8340000Y-5884000D02*
X8410000Y-5954000D01*
X8410000Y-5884000D02*
X8340000Y-5954000D01*
X8340000Y-6084000D02*
X8410000Y-6154000D01*
X8410000Y-6084000D02*
X8340000Y-6154000D01*
X8340000Y-6284000D02*
X8410000Y-6354000D01*
X8410000Y-6284000D02*
X8340000Y-6354000D01*
X8340000Y-6684000D02*
X8410000Y-6754000D01*
X8410000Y-6684000D02*
X8340000Y-6754000D01*
X8340000Y-6884000D02*
X8410000Y-6954000D01*
X8410000Y-6884000D02*
X8340000Y-6954000D01*
X8340000Y-7084000D02*
X8410000Y-7154000D01*
X8410000Y-7084000D02*
X8340000Y-7154000D01*
X8340000Y-7284000D02*
X8410000Y-7354000D01*
X8410000Y-7284000D02*
X8340000Y-7354000D01*
X8340000Y-7484000D02*
X8410000Y-7554000D01*
X8410000Y-7484000D02*
X8340000Y-7554000D01*
X8340000Y-7684000D02*
X8410000Y-7754000D01*
X8410000Y-7684000D02*
X8340000Y-7754000D01*
X8340000Y-7884000D02*
X8410000Y-7954000D01*
X8410000Y-7884000D02*
X8340000Y-7954000D01*
X8340000Y-8084000D02*
X8410000Y-8154000D01*
X8410000Y-8084000D02*
X8340000Y-8154000D01*
X8340000Y-8284000D02*
X8410000Y-8354000D01*
X8410000Y-8284000D02*
X8340000Y-8354000D01*
X8340000Y-8484000D02*
X8410000Y-8554000D01*
X8410000Y-8484000D02*
X8340000Y-8554000D01*
X8340000Y-8684000D02*
X8410000Y-8754000D01*
X8410000Y-8684000D02*
X8340000Y-8754000D01*
X8340000Y-8884000D02*
X8410000Y-8954000D01*
X8410000Y-8884000D02*
X8340000Y-8954000D01*
X8340000Y-9084000D02*
X8410000Y-9154000D01*
X8410000Y-9084000D02*
X8340000Y-9154000D01*
X8340000Y-9284000D02*
X8410000Y-9354000D01*
X8410000Y-9284000D02*
X8340000Y-9354000D01*
X8340000Y-9484000D02*
X8410000Y-9554000D01*
X8410000Y-9484000D02*
X8340000Y-9554000D01*
X8340000Y-9684000D02*
X8410000Y-9754000D01*
X8410000Y-9684000D02*
X8340000Y-9754000D01*
X8340000Y-9884000D02*
X8410000Y-9954000D01*
X8410000Y-9884000D02*
X8340000Y-9954000D01*
X8340000Y-10084000D02*
X8410000Y-10154000D01*
X8410000Y-10084000D02*
X8340000Y-10154000D01*
X8340000Y-10284000D02*
X8410000Y-10354000D01*
X8410000Y-10284000D02*
X8340000Y-10354000D01*
X8590000Y-5284000D02*
X8660000Y-5354000D01*
X8660000Y-5284000D02*
X8590000Y-5354000D01*
X8590000Y-5484000D02*
X8660000Y-5554000D01*
X8660000Y-5484000D02*
X8590000Y-5554000D01*
X8590000Y-5684000D02*
X8660000Y-5754000D01*
X8660000Y-5684000D02*
X8590000Y-5754000D01*
X8590000Y-5884000D02*
X8660000Y-5954000D01*
X8660000Y-5884000D02*
X8590000Y-5954000D01*
X8590000Y-6084000D02*
X8660000Y-6154000D01*
X8660000Y-6084000D02*
X8590000Y-6154000D01*
X8590000Y-6284000D02*
X8660000Y-6354000D01*
X8660000Y-6284000D02*
X8590000Y-6354000D01*
X8590000Y-6684000D02*
X8660000Y-6754000D01*
X8660000Y-6684000D02*
X8590000Y-6754000D01*
X8590000Y-6884000D02*
X8660000Y-6954000D01*
X8660000Y-6884000D02*
X8590000Y-6954000D01*
X8590000Y-7084000D02*
X8660000Y-7154000D01*
X8660000Y-7084000D02*
X8590000Y-7154000D01*
X8590000Y-7284000D02*
X8660000Y-7354000D01*
X8660000Y-7284000D02*
X8590000Y-7354000D01*
X8590000Y-7484000D02*
X8660000Y-7554000D01*
X8660000Y-7484000D02*
X8590000Y-7554000D01*
X8590000Y-7684000D02*
X8660000Y-7754000D01*
X8660000Y-7684000D02*
X8590000Y-7754000D01*
X8590000Y-7884000D02*
X8660000Y-7954000D01*
X8660000Y-7884000D02*
X8590000Y-7954000D01*
X8590000Y-8084000D02*
X8660000Y-8154000D01*
X8660000Y-8084000D02*
X8590000Y-8154000D01*
X8590000Y-8284000D02*
X8660000Y-8354000D01*
X8660000Y-8284000D02*
X8590000Y-8354000D01*
X8590000Y-8484000D02*
X8660000Y-8554000D01*
X8660000Y-8484000D02*
X8590000Y-8554000D01*
X8590000Y-8684000D02*
X8660000Y-8754000D01*
X8660000Y-8684000D02*
X8590000Y-8754000D01*
X8590000Y-8884000D02*
X8660000Y-8954000D01*
X8660000Y-8884000D02*
X8590000Y-8954000D01*
X8590000Y-9084000D02*
X8660000Y-9154000D01*
X8660000Y-9084000D02*
X8590000Y-9154000D01*
X8590000Y-9284000D02*
X8660000Y-9354000D01*
X8660000Y-9284000D02*
X8590000Y-9354000D01*
X8590000Y-9484000D02*
X8660000Y-9554000D01*
X8660000Y-9484000D02*
X8590000Y-9554000D01*
X8590000Y-9684000D02*
X8660000Y-9754000D01*
X8660000Y-9684000D02*
X8590000Y-9754000D01*
X8590000Y-9884000D02*
X8660000Y-9954000D01*
X8660000Y-9884000D02*
X8590000Y-9954000D01*
X8590000Y-10084000D02*
X8660000Y-10154000D01*
X8660000Y-10084000D02*
X8590000Y-10154000D01*
X8590000Y-10284000D02*
X8660000Y-10354000D01*
X8660000Y-10284000D02*
X8590000Y-10354000D01*
X8790000Y-5384000D02*
X8860000Y-5454000D01*
X8860000Y-5384000D02*
X8790000Y-5454000D01*
X8790000Y-5584000D02*
X8860000Y-5654000D01*
X8860000Y-5584000D02*
X8790000Y-5654000D01*
X8790000Y-5784000D02*
X8860000Y-5854000D01*
X8860000Y-5784000D02*
X8790000Y-5854000D01*
X8790000Y-5984000D02*
X8860000Y-6054000D01*
X8860000Y-5984000D02*
X8790000Y-6054000D01*
X8790000Y-6184000D02*
X8860000Y-6254000D01*
X8860000Y-6184000D02*
X8790000Y-6254000D01*
X8790000Y-6584000D02*
X8860000Y-6654000D01*
X8860000Y-6584000D02*
X8790000Y-6654000D01*
X8790000Y-6784000D02*
X8860000Y-6854000D01*
X8860000Y-6784000D02*
X8790000Y-6854000D01*
X8790000Y-6984000D02*
X8860000Y-7054000D01*
X8860000Y-6984000D02*
X8790000Y-7054000D01*
X8790000Y-7184000D02*
X8860000Y-7254000D01*
X8860000Y-7184000D02*
X8790000Y-7254000D01*
X8790000Y-7384000D02*
X8860000Y-7454000D01*
X8860000Y-7384000D02*
X8790000Y-7454000D01*
X8790000Y-7584000D02*
X8860000Y-7654000D01*
X8860000Y-7584000D02*
X8790000Y-7654000D01*
X8790000Y-7784000D02*
X8860000Y-7854000D01*
X8860000Y-7784000D02*
X8790000Y-7854000D01*
X8790000Y-7984000D02*
X8860000Y-8054000D01*
X8860000Y-7984000D02*
X8790000Y-8054000D01*
X8790000Y-8184000D02*
X8860000Y-8254000D01*
X8860000Y-8184000D02*
X8790000Y-8254000D01*
X8790000Y-8384000D02*
X8860000Y-8454000D01*
X8860000Y-8384000D02*
X8790000Y-8454000D01*
X8790000Y-8584000D02*
X8860000Y-8654000D01*
X8860000Y-8584000D02*
X8790000Y-8654000D01*
X8790000Y-8784000D02*
X8860000Y-8854000D01*
X8860000Y-8784000D02*
X8790000Y-8854000D01*
X8790000Y-8984000D02*
X8860000Y-9054000D01*
X8860000Y-8984000D02*
X8790000Y-9054000D01*
X8790000Y-9184000D02*
X8860000Y-9254000D01*
X8860000Y-9184000D02*
X8790000Y-9254000D01*
X8790000Y-9384000D02*
X8860000Y-9454000D01*
X8860000Y-9384000D02*
X8790000Y-9454000D01*
X8790000Y-9584000D02*
X8860000Y-9654000D01*
X8860000Y-9584000D02*
X8790000Y-9654000D01*
X8790000Y-9784000D02*
X8860000Y-9854000D01*
X8860000Y-9784000D02*
X8790000Y-9854000D01*
X8790000Y-9984000D02*
X8860000Y-10054000D01*
X8860000Y-9984000D02*
X8790000Y-10054000D01*
X8790000Y-10184000D02*
X8860000Y-10254000D01*
X8860000Y-10184000D02*
X8790000Y-10254000D01*
X10140000Y-5384000D02*
X10210000Y-5454000D01*
X10210000Y-5384000D02*
X10140000Y-5454000D01*
X10140000Y-5584000D02*
X10210000Y-5654000D01*
X10210000Y-5584000D02*
X10140000Y-5654000D01*
X10140000Y-5784000D02*
X10210000Y-5854000D01*
X10210000Y-5784000D02*
X10140000Y-5854000D01*
X10140000Y-5984000D02*
X10210000Y-6054000D01*
X10210000Y-5984000D02*
X10140000Y-6054000D01*
X10140000Y-6184000D02*
X10210000Y-6254000D01*
X10210000Y-6184000D02*
X10140000Y-6254000D01*
X10140000Y-6584000D02*
X10210000Y-6654000D01*
X10210000Y-6584000D02*
X10140000Y-6654000D01*
X10140000Y-6784000D02*
X10210000Y-6854000D01*
X10210000Y-6784000D02*
X10140000Y-6854000D01*
X10140000Y-6984000D02*
X10210000Y-7054000D01*
X10210000Y-6984000D02*
X10140000Y-7054000D01*
X10140000Y-7184000D02*
X10210000Y-7254000D01*
X10210000Y-7184000D02*
X10140000Y-7254000D01*
X10140000Y-7384000D02*
X10210000Y-7454000D01*
X10210000Y-7384000D02*
X10140000Y-7454000D01*
X10140000Y-7584000D02*
X10210000Y-7654000D01*
X10210000Y-7584000D02*
X10140000Y-7654000D01*
X10140000Y-7784000D02*
X10210000Y-7854000D01*
X10210000Y-7784000D02*
X10140000Y-7854000D01*
X10140000Y-7984000D02*
X10210000Y-8054000D01*
X10210000Y-7984000D02*
X10140000Y-8054000D01*
X10140000Y-8184000D02*
X10210000Y-8254000D01*
X10210000Y-8184000D02*
X10140000Y-8254000D01*
X10140000Y-8384000D02*
X10210000Y-8454000D01*
X10210000Y-8384000D02*
X10140000Y-8454000D01*
X10140000Y-8584000D02*
X10210000Y-8654000D01*
X10210000Y-8584000D02*
X10140000Y-8654000D01*
X10140000Y-8784000D02*
X10210000Y-8854000D01*
X10210000Y-8784000D02*
X10140000Y-8854000D01*
X10140000Y-8984000D02*
X10210000Y-9054000D01*
X10210000Y-8984000D02*
X10140000Y-9054000D01*
X10140000Y-9184000D02*
X10210000Y-9254000D01*
X10210000Y-9184000D02*
X10140000Y-9254000D01*
X10140000Y-9384000D02*
X10210000Y-9454000D01*
X10210000Y-9384000D02*
X10140000Y-9454000D01*
X10140000Y-9584000D02*
X10210000Y-9654000D01*
X10210000Y-9584000D02*
X10140000Y-9654000D01*
X10140000Y-9784000D02*
X10210000Y-9854000D01*
X10210000Y-9784000D02*
X10140000Y-9854000D01*
X10140000Y-9984000D02*
X10210000Y-10054000D01*
X10210000Y-9984000D02*
X10140000Y-10054000D01*
X10140000Y-10184000D02*
X10210000Y-10254000D01*
X10210000Y-10184000D02*
X10140000Y-10254000D01*
X10340000Y-5284000D02*
X10410000Y-5354000D01*
X10410000Y-5284000D02*
X10340000Y-5354000D01*
X10340000Y-5484000D02*
X10410000Y-5554000D01*
X10410000Y-5484000D02*
X10340000Y-5554000D01*
X10340000Y-5684000D02*
X10410000Y-5754000D01*
X10410000Y-5684000D02*
X10340000Y-5754000D01*
X10340000Y-5884000D02*
X10410000Y-5954000D01*
X10410000Y-5884000D02*
X10340000Y-5954000D01*
X10340000Y-6084000D02*
X10410000Y-6154000D01*
X10410000Y-6084000D02*
X10340000Y-6154000D01*
X10340000Y-6284000D02*
X10410000Y-6354000D01*
X10410000Y-6284000D02*
X10340000Y-6354000D01*
X10340000Y-6684000D02*
X10410000Y-6754000D01*
X10410000Y-6684000D02*
X10340000Y-6754000D01*
X10340000Y-6884000D02*
X10410000Y-6954000D01*
X10410000Y-6884000D02*
X10340000Y-6954000D01*
X10340000Y-7084000D02*
X10410000Y-7154000D01*
X10410000Y-7084000D02*
X10340000Y-7154000D01*
X10340000Y-7284000D02*
X10410000Y-7354000D01*
X10410000Y-7284000D02*
X10340000Y-7354000D01*
X10340000Y-7484000D02*
X10410000Y-7554000D01*
X10410000Y-7484000D02*
X10340000Y-7554000D01*
X10340000Y-7684000D02*
X10410000Y-7754000D01*
X10410000Y-7684000D02*
X10340000Y-7754000D01*
X10340000Y-7884000D02*
X10410000Y-7954000D01*
X10410000Y-7884000D02*
X10340000Y-7954000D01*
X10340000Y-8084000D02*
X10410000Y-8154000D01*
X10410000Y-8084000D02*
X10340000Y-8154000D01*
X10340000Y-8284000D02*
X10410000Y-8354000D01*
X10410000Y-8284000D02*
X10340000Y-8354000D01*
X10340000Y-8484000D02*
X10410000Y-8554000D01*
X10410000Y-8484000D02*
X10340000Y-8554000D01*
X10340000Y-8684000D02*
X10410000Y-8754000D01*
X10410000Y-8684000D02*
X10340000Y-8754000D01*
X10340000Y-8884000D02*
X10410000Y-8954000D01*
X10410000Y-8884000D02*
X10340000Y-8954000D01*
X10340000Y-9084000D02*
X10410000Y-9154000D01*
X10410000Y-9084000D02*
X10340000Y-9154000D01*
X10340000Y-9284000D02*
X10410000Y-9354000D01*
X10410000Y-9284000D02*
X10340000Y-9354000D01*
X10340000Y-9484000D02*
X10410000Y-9554000D01*
X10410000Y-9484000D02*
X10340000Y-9554000D01*
X10340000Y-9684000D02*
X10410000Y-9754000D01*
X10410000Y-9684000D02*
X10340000Y-9754000D01*
X10340000Y-9884000D02*
X10410000Y-9954000D01*
X10410000Y-9884000D02*
X10340000Y-9954000D01*
X10340000Y-10084000D02*
X10410000Y-10154000D01*
X10410000Y-10084000D02*
X10340000Y-10154000D01*
X10340000Y-10284000D02*
X10410000Y-10354000D01*
X10410000Y-10284000D02*
X10340000Y-10354000D01*
X10590000Y-5284000D02*
X10660000Y-5354000D01*
X10660000Y-5284000D02*
X10590000Y-5354000D01*
X10590000Y-5484000D02*
X10660000Y-5554000D01*
X10660000Y-5484000D02*
X10590000Y-5554000D01*
X10590000Y-5684000D02*
X10660000Y-5754000D01*
X10660000Y-5684000D02*
X10590000Y-5754000D01*
X10590000Y-5884000D02*
X10660000Y-5954000D01*
X10660000Y-5884000D02*
X10590000Y-5954000D01*
X10590000Y-6084000D02*
X10660000Y-6154000D01*
X10660000Y-6084000D02*
X10590000Y-6154000D01*
X10590000Y-6284000D02*
X10660000Y-6354000D01*
X10660000Y-6284000D02*
X10590000Y-6354000D01*
X10590000Y-6684000D02*
X10660000Y-6754000D01*
X10660000Y-6684000D02*
X10590000Y-6754000D01*
X10590000Y-6884000D02*
X10660000Y-6954000D01*
X10660000Y-6884000D02*
X10590000Y-6954000D01*
X10590000Y-7084000D02*
X10660000Y-7154000D01*
X10660000Y-7084000D02*
X10590000Y-7154000D01*
X10590000Y-7284000D02*
X10660000Y-7354000D01*
X10660000Y-7284000D02*
X10590000Y-7354000D01*
X10590000Y-7484000D02*
X10660000Y-7554000D01*
X10660000Y-7484000D02*
X10590000Y-7554000D01*
X10590000Y-7684000D02*
X10660000Y-7754000D01*
X10660000Y-7684000D02*
X10590000Y-7754000D01*
X10590000Y-7884000D02*
X10660000Y-7954000D01*
X10660000Y-7884000D02*
X10590000Y-7954000D01*
X10590000Y-8084000D02*
X10660000Y-8154000D01*
X10660000Y-8084000D02*
X10590000Y-8154000D01*
X10590000Y-8284000D02*
X10660000Y-8354000D01*
X10660000Y-8284000D02*
X10590000Y-8354000D01*
X10590000Y-8484000D02*
X10660000Y-8554000D01*
X10660000Y-8484000D02*
X10590000Y-8554000D01*
X10590000Y-8684000D02*
X10660000Y-8754000D01*
X10660000Y-8684000D02*
X10590000Y-8754000D01*
X10590000Y-8884000D02*
X10660000Y-8954000D01*
X10660000Y-8884000D02*
X10590000Y-8954000D01*
X10590000Y-9084000D02*
X10660000Y-9154000D01*
X10660000Y-9084000D02*
X10590000Y-9154000D01*
X10590000Y-9284000D02*
X10660000Y-9354000D01*
X10660000Y-9284000D02*
X10590000Y-9354000D01*
X10590000Y-9484000D02*
X10660000Y-9554000D01*
X10660000Y-9484000D02*
X10590000Y-9554000D01*
X10590000Y-9684000D02*
X10660000Y-9754000D01*
X10660000Y-9684000D02*
X10590000Y-9754000D01*
X10590000Y-9884000D02*
X10660000Y-9954000D01*
X10660000Y-9884000D02*
X10590000Y-9954000D01*
X10590000Y-10084000D02*
X10660000Y-10154000D01*
X10660000Y-10084000D02*
X10590000Y-10154000D01*
X10590000Y-10284000D02*
X10660000Y-10354000D01*
X10660000Y-10284000D02*
X10590000Y-10354000D01*
X10790000Y-5384000D02*
X10860000Y-5454000D01*
X10860000Y-5384000D02*
X10790000Y-5454000D01*
X10790000Y-5584000D02*
X10860000Y-5654000D01*
X10860000Y-5584000D02*
X10790000Y-5654000D01*
X10790000Y-5784000D02*
X10860000Y-5854000D01*
X10860000Y-5784000D02*
X10790000Y-5854000D01*
X10790000Y-5984000D02*
X10860000Y-6054000D01*
X10860000Y-5984000D02*
X10790000Y-6054000D01*
X10790000Y-6184000D02*
X10860000Y-6254000D01*
X10860000Y-6184000D02*
X10790000Y-6254000D01*
X10790000Y-6584000D02*
X10860000Y-6654000D01*
X10860000Y-6584000D02*
X10790000Y-6654000D01*
X10790000Y-6784000D02*
X10860000Y-6854000D01*
X10860000Y-6784000D02*
X10790000Y-6854000D01*
X10790000Y-6984000D02*
X10860000Y-7054000D01*
X10860000Y-6984000D02*
X10790000Y-7054000D01*
X10790000Y-7184000D02*
X10860000Y-7254000D01*
X10860000Y-7184000D02*
X10790000Y-7254000D01*
X10790000Y-7384000D02*
X10860000Y-7454000D01*
X10860000Y-7384000D02*
X10790000Y-7454000D01*
X10790000Y-7584000D02*
X10860000Y-7654000D01*
X10860000Y-7584000D02*
X10790000Y-7654000D01*
X10790000Y-7784000D02*
X10860000Y-7854000D01*
X10860000Y-7784000D02*
X10790000Y-7854000D01*
X10790000Y-7984000D02*
X10860000Y-8054000D01*
X10860000Y-7984000D02*
X10790000Y-8054000D01*
X10790000Y-8184000D02*
X10860000Y-8254000D01*
X10860000Y-8184000D02*
X10790000Y-8254000D01*
X10790000Y-8384000D02*
X10860000Y-8454000D01*
X10860000Y-8384000D02*
X10790000Y-8454000D01*
X10790000Y-8584000D02*
X10860000Y-8654000D01*
X10860000Y-8584000D02*
X10790000Y-8654000D01*
X10790000Y-8784000D02*
X10860000Y-8854000D01*
X10860000Y-8784000D02*
X10790000Y-8854000D01*
X10790000Y-8984000D02*
X10860000Y-9054000D01*
X10860000Y-8984000D02*
X10790000Y-9054000D01*
X10790000Y-9184000D02*
X10860000Y-9254000D01*
X10860000Y-9184000D02*
X10790000Y-9254000D01*
X10790000Y-9384000D02*
X10860000Y-9454000D01*
X10860000Y-9384000D02*
X10790000Y-9454000D01*
X10790000Y-9584000D02*
X10860000Y-9654000D01*
X10860000Y-9584000D02*
X10790000Y-9654000D01*
X10790000Y-9784000D02*
X10860000Y-9854000D01*
X10860000Y-9784000D02*
X10790000Y-9854000D01*
X10790000Y-9984000D02*
X10860000Y-10054000D01*
X10860000Y-9984000D02*
X10790000Y-10054000D01*
X10790000Y-10184000D02*
X10860000Y-10254000D01*
X10860000Y-10184000D02*
X10790000Y-10254000D01*
X12140000Y-5384000D02*
X12210000Y-5454000D01*
X12210000Y-5384000D02*
X12140000Y-5454000D01*
X12140000Y-5584000D02*
X12210000Y-5654000D01*
X12210000Y-5584000D02*
X12140000Y-5654000D01*
X12140000Y-5784000D02*
X12210000Y-5854000D01*
X12210000Y-5784000D02*
X12140000Y-5854000D01*
X12140000Y-5984000D02*
X12210000Y-6054000D01*
X12210000Y-5984000D02*
X12140000Y-6054000D01*
X12140000Y-6184000D02*
X12210000Y-6254000D01*
X12210000Y-6184000D02*
X12140000Y-6254000D01*
X12140000Y-6584000D02*
X12210000Y-6654000D01*
X12210000Y-6584000D02*
X12140000Y-6654000D01*
X12140000Y-6784000D02*
X12210000Y-6854000D01*
X12210000Y-6784000D02*
X12140000Y-6854000D01*
X12140000Y-6984000D02*
X12210000Y-7054000D01*
X12210000Y-6984000D02*
X12140000Y-7054000D01*
X12140000Y-7184000D02*
X12210000Y-7254000D01*
X12210000Y-7184000D02*
X12140000Y-7254000D01*
X12140000Y-7384000D02*
X12210000Y-7454000D01*
X12210000Y-7384000D02*
X12140000Y-7454000D01*
X12140000Y-7584000D02*
X12210000Y-7654000D01*
X12210000Y-7584000D02*
X12140000Y-7654000D01*
X12140000Y-7784000D02*
X12210000Y-7854000D01*
X12210000Y-7784000D02*
X12140000Y-7854000D01*
X12140000Y-7984000D02*
X12210000Y-8054000D01*
X12210000Y-7984000D02*
X12140000Y-8054000D01*
X12140000Y-8184000D02*
X12210000Y-8254000D01*
X12210000Y-8184000D02*
X12140000Y-8254000D01*
X12140000Y-8384000D02*
X12210000Y-8454000D01*
X12210000Y-8384000D02*
X12140000Y-8454000D01*
X12140000Y-8584000D02*
X12210000Y-8654000D01*
X12210000Y-8584000D02*
X12140000Y-8654000D01*
X12140000Y-8784000D02*
X12210000Y-8854000D01*
X12210000Y-8784000D02*
X12140000Y-8854000D01*
X12140000Y-8984000D02*
X12210000Y-9054000D01*
X12210000Y-8984000D02*
X12140000Y-9054000D01*
X12140000Y-9184000D02*
X12210000Y-9254000D01*
X12210000Y-9184000D02*
X12140000Y-9254000D01*
X12140000Y-9384000D02*
X12210000Y-9454000D01*
X12210000Y-9384000D02*
X12140000Y-9454000D01*
X12140000Y-9584000D02*
X12210000Y-9654000D01*
X12210000Y-9584000D02*
X12140000Y-9654000D01*
X12140000Y-9784000D02*
X12210000Y-9854000D01*
X12210000Y-9784000D02*
X12140000Y-9854000D01*
X12140000Y-9984000D02*
X12210000Y-10054000D01*
X12210000Y-9984000D02*
X12140000Y-10054000D01*
X12140000Y-10184000D02*
X12210000Y-10254000D01*
X12210000Y-10184000D02*
X12140000Y-10254000D01*
X12340000Y-5284000D02*
X12410000Y-5354000D01*
X12410000Y-5284000D02*
X12340000Y-5354000D01*
X12340000Y-5484000D02*
X12410000Y-5554000D01*
X12410000Y-5484000D02*
X12340000Y-5554000D01*
X12340000Y-5684000D02*
X12410000Y-5754000D01*
X12410000Y-5684000D02*
X12340000Y-5754000D01*
X12340000Y-5884000D02*
X12410000Y-5954000D01*
X12410000Y-5884000D02*
X12340000Y-5954000D01*
X12340000Y-6084000D02*
X12410000Y-6154000D01*
X12410000Y-6084000D02*
X12340000Y-6154000D01*
X12340000Y-6284000D02*
X12410000Y-6354000D01*
X12410000Y-6284000D02*
X12340000Y-6354000D01*
X12340000Y-6684000D02*
X12410000Y-6754000D01*
X12410000Y-6684000D02*
X12340000Y-6754000D01*
X12340000Y-6884000D02*
X12410000Y-6954000D01*
X12410000Y-6884000D02*
X12340000Y-6954000D01*
X12340000Y-7084000D02*
X12410000Y-7154000D01*
X12410000Y-7084000D02*
X12340000Y-7154000D01*
X12340000Y-7284000D02*
X12410000Y-7354000D01*
X12410000Y-7284000D02*
X12340000Y-7354000D01*
X12340000Y-7484000D02*
X12410000Y-7554000D01*
X12410000Y-7484000D02*
X12340000Y-7554000D01*
X12340000Y-7684000D02*
X12410000Y-7754000D01*
X12410000Y-7684000D02*
X12340000Y-7754000D01*
X12340000Y-7884000D02*
X12410000Y-7954000D01*
X12410000Y-7884000D02*
X12340000Y-7954000D01*
X12340000Y-8084000D02*
X12410000Y-8154000D01*
X12410000Y-8084000D02*
X12340000Y-8154000D01*
X12340000Y-8284000D02*
X12410000Y-8354000D01*
X12410000Y-8284000D02*
X12340000Y-8354000D01*
X12340000Y-8484000D02*
X12410000Y-8554000D01*
X12410000Y-8484000D02*
X12340000Y-8554000D01*
X12340000Y-8684000D02*
X12410000Y-8754000D01*
X12410000Y-8684000D02*
X12340000Y-8754000D01*
X12340000Y-8884000D02*
X12410000Y-8954000D01*
X12410000Y-8884000D02*
X12340000Y-8954000D01*
X12340000Y-9084000D02*
X12410000Y-9154000D01*
X12410000Y-9084000D02*
X12340000Y-9154000D01*
X12340000Y-9284000D02*
X12410000Y-9354000D01*
X12410000Y-9284000D02*
X12340000Y-9354000D01*
X12340000Y-9484000D02*
X12410000Y-9554000D01*
X12410000Y-9484000D02*
X12340000Y-9554000D01*
X12340000Y-9684000D02*
X12410000Y-9754000D01*
X12410000Y-9684000D02*
X12340000Y-9754000D01*
X12340000Y-9884000D02*
X12410000Y-9954000D01*
X12410000Y-9884000D02*
X12340000Y-9954000D01*
X12340000Y-10084000D02*
X12410000Y-10154000D01*
X12410000Y-10084000D02*
X12340000Y-10154000D01*
X12340000Y-10284000D02*
X12410000Y-10354000D01*
X12410000Y-10284000D02*
X12340000Y-10354000D01*
X12590000Y-5284000D02*
X12660000Y-5354000D01*
X12660000Y-5284000D02*
X12590000Y-5354000D01*
X12590000Y-5484000D02*
X12660000Y-5554000D01*
X12660000Y-5484000D02*
X12590000Y-5554000D01*
X12590000Y-5684000D02*
X12660000Y-5754000D01*
X12660000Y-5684000D02*
X12590000Y-5754000D01*
X12590000Y-5884000D02*
X12660000Y-5954000D01*
X12660000Y-5884000D02*
X12590000Y-5954000D01*
X12590000Y-6084000D02*
X12660000Y-6154000D01*
X12660000Y-6084000D02*
X12590000Y-6154000D01*
X12590000Y-6284000D02*
X12660000Y-6354000D01*
X12660000Y-6284000D02*
X12590000Y-6354000D01*
X12590000Y-6684000D02*
X12660000Y-6754000D01*
X12660000Y-6684000D02*
X12590000Y-6754000D01*
X12590000Y-6884000D02*
X12660000Y-6954000D01*
X12660000Y-6884000D02*
X12590000Y-6954000D01*
X12590000Y-7084000D02*
X12660000Y-7154000D01*
X12660000Y-7084000D02*
X12590000Y-7154000D01*
X12590000Y-7284000D02*
X12660000Y-7354000D01*
X12660000Y-7284000D02*
X12590000Y-7354000D01*
X12590000Y-7484000D02*
X12660000Y-7554000D01*
X12660000Y-7484000D02*
X12590000Y-7554000D01*
X12590000Y-7684000D02*
X12660000Y-7754000D01*
X12660000Y-7684000D02*
X12590000Y-7754000D01*
X12590000Y-7884000D02*
X12660000Y-7954000D01*
X12660000Y-7884000D02*
X12590000Y-7954000D01*
X12590000Y-8084000D02*
X12660000Y-8154000D01*
X12660000Y-8084000D02*
X12590000Y-8154000D01*
X12590000Y-8284000D02*
X12660000Y-8354000D01*
X12660000Y-8284000D02*
X12590000Y-8354000D01*
X12590000Y-8484000D02*
X12660000Y-8554000D01*
X12660000Y-8484000D02*
X12590000Y-8554000D01*
X12590000Y-8684000D02*
X12660000Y-8754000D01*
X12660000Y-8684000D02*
X12590000Y-8754000D01*
X12590000Y-8884000D02*
X12660000Y-8954000D01*
X12660000Y-8884000D02*
X12590000Y-8954000D01*
X12590000Y-9084000D02*
X12660000Y-9154000D01*
X12660000Y-9084000D02*
X12590000Y-9154000D01*
X12590000Y-9284000D02*
X12660000Y-9354000D01*
X12660000Y-9284000D02*
X12590000Y-9354000D01*
X12590000Y-9484000D02*
X12660000Y-9554000D01*
X12660000Y-9484000D02*
X12590000Y-9554000D01*
X12590000Y-9684000D02*
X12660000Y-9754000D01*
X12660000Y-9684000D02*
X12590000Y-9754000D01*
X12590000Y-9884000D02*
X12660000Y-9954000D01*
X12660000Y-9884000D02*
X12590000Y-9954000D01*
X12590000Y-10084000D02*
X12660000Y-10154000D01*
X12660000Y-10084000D02*
X12590000Y-10154000D01*
X12590000Y-10284000D02*
X12660000Y-10354000D01*
X12660000Y-10284000D02*
X12590000Y-10354000D01*
X12790000Y-5384000D02*
X12860000Y-5454000D01*
X12860000Y-5384000D02*
X12790000Y-5454000D01*
X12790000Y-5584000D02*
X12860000Y-5654000D01*
X12860000Y-5584000D02*
X12790000Y-5654000D01*
X12790000Y-5784000D02*
X12860000Y-5854000D01*
X12860000Y-5784000D02*
X12790000Y-5854000D01*
X12790000Y-5984000D02*
X12860000Y-6054000D01*
X12860000Y-5984000D02*
X12790000Y-6054000D01*
X12790000Y-6184000D02*
X12860000Y-6254000D01*
X12860000Y-6184000D02*
X12790000Y-6254000D01*
X12790000Y-6584000D02*
X12860000Y-6654000D01*
X12860000Y-6584000D02*
X12790000Y-6654000D01*
X12790000Y-6784000D02*
X12860000Y-6854000D01*
X12860000Y-6784000D02*
X12790000Y-6854000D01*
X12790000Y-6984000D02*
X12860000Y-7054000D01*
X12860000Y-6984000D02*
X12790000Y-7054000D01*
X12790000Y-7184000D02*
X12860000Y-7254000D01*
X12860000Y-7184000D02*
X12790000Y-7254000D01*
X12790000Y-7384000D02*
X12860000Y-7454000D01*
X12860000Y-7384000D02*
X12790000Y-7454000D01*
X12790000Y-7584000D02*
X12860000Y-7654000D01*
X12860000Y-7584000D02*
X12790000Y-7654000D01*
X12790000Y-7784000D02*
X12860000Y-7854000D01*
X12860000Y-7784000D02*
X12790000Y-7854000D01*
X12790000Y-7984000D02*
X12860000Y-8054000D01*
X12860000Y-7984000D02*
X12790000Y-8054000D01*
X12790000Y-8184000D02*
X12860000Y-8254000D01*
X12860000Y-8184000D02*
X12790000Y-8254000D01*
X12790000Y-8384000D02*
X12860000Y-8454000D01*
X12860000Y-8384000D02*
X12790000Y-8454000D01*
X12790000Y-8584000D02*
X12860000Y-8654000D01*
X12860000Y-8584000D02*
X12790000Y-8654000D01*
X12790000Y-8784000D02*
X12860000Y-8854000D01*
X12860000Y-8784000D02*
X12790000Y-8854000D01*
X12790000Y-8984000D02*
X12860000Y-9054000D01*
X12860000Y-8984000D02*
X12790000Y-9054000D01*
X12790000Y-9184000D02*
X12860000Y-9254000D01*
X12860000Y-9184000D02*
X12790000Y-9254000D01*
X12790000Y-9384000D02*
X12860000Y-9454000D01*
X12860000Y-9384000D02*
X12790000Y-9454000D01*
X12790000Y-9584000D02*
X12860000Y-9654000D01*
X12860000Y-9584000D02*
X12790000Y-9654000D01*
X12790000Y-9784000D02*
X12860000Y-9854000D01*
X12860000Y-9784000D02*
X12790000Y-9854000D01*
X12790000Y-9984000D02*
X12860000Y-10054000D01*
X12860000Y-9984000D02*
X12790000Y-10054000D01*
X12790000Y-10184000D02*
X12860000Y-10254000D01*
X12860000Y-10184000D02*
X12790000Y-10254000D01*
X14140000Y-5384000D02*
X14210000Y-5454000D01*
X14210000Y-5384000D02*
X14140000Y-5454000D01*
X14140000Y-5584000D02*
X14210000Y-5654000D01*
X14210000Y-5584000D02*
X14140000Y-5654000D01*
X14140000Y-5784000D02*
X14210000Y-5854000D01*
X14210000Y-5784000D02*
X14140000Y-5854000D01*
X14140000Y-5984000D02*
X14210000Y-6054000D01*
X14210000Y-5984000D02*
X14140000Y-6054000D01*
X14140000Y-6184000D02*
X14210000Y-6254000D01*
X14210000Y-6184000D02*
X14140000Y-6254000D01*
X14140000Y-6584000D02*
X14210000Y-6654000D01*
X14210000Y-6584000D02*
X14140000Y-6654000D01*
X14140000Y-6784000D02*
X14210000Y-6854000D01*
X14210000Y-6784000D02*
X14140000Y-6854000D01*
X14140000Y-6984000D02*
X14210000Y-7054000D01*
X14210000Y-6984000D02*
X14140000Y-7054000D01*
X14140000Y-7184000D02*
X14210000Y-7254000D01*
X14210000Y-7184000D02*
X14140000Y-7254000D01*
X14140000Y-7384000D02*
X14210000Y-7454000D01*
X14210000Y-7384000D02*
X14140000Y-7454000D01*
X14140000Y-7584000D02*
X14210000Y-7654000D01*
X14210000Y-7584000D02*
X14140000Y-7654000D01*
X14140000Y-7784000D02*
X14210000Y-7854000D01*
X14210000Y-7784000D02*
X14140000Y-7854000D01*
X14140000Y-7984000D02*
X14210000Y-8054000D01*
X14210000Y-7984000D02*
X14140000Y-8054000D01*
X14140000Y-8184000D02*
X14210000Y-8254000D01*
X14210000Y-8184000D02*
X14140000Y-8254000D01*
X14140000Y-8384000D02*
X14210000Y-8454000D01*
X14210000Y-8384000D02*
X14140000Y-8454000D01*
X14140000Y-8584000D02*
X14210000Y-8654000D01*
X14210000Y-8584000D02*
X14140000Y-8654000D01*
X14140000Y-8784000D02*
X14210000Y-8854000D01*
X14210000Y-8784000D02*
X14140000Y-8854000D01*
X14140000Y-8984000D02*
X14210000Y-9054000D01*
X14210000Y-8984000D02*
X14140000Y-9054000D01*
X14140000Y-9184000D02*
X14210000Y-9254000D01*
X14210000Y-9184000D02*
X14140000Y-9254000D01*
X14140000Y-9384000D02*
X14210000Y-9454000D01*
X14210000Y-9384000D02*
X14140000Y-9454000D01*
X14140000Y-9584000D02*
X14210000Y-9654000D01*
X14210000Y-9584000D02*
X14140000Y-9654000D01*
X14140000Y-9784000D02*
X14210000Y-9854000D01*
X14210000Y-9784000D02*
X14140000Y-9854000D01*
X14140000Y-9984000D02*
X14210000Y-10054000D01*
X14210000Y-9984000D02*
X14140000Y-10054000D01*
X14140000Y-10184000D02*
X14210000Y-10254000D01*
X14210000Y-10184000D02*
X14140000Y-10254000D01*
X14340000Y-5284000D02*
X14410000Y-5354000D01*
X14410000Y-5284000D02*
X14340000Y-5354000D01*
X14340000Y-5484000D02*
X14410000Y-5554000D01*
X14410000Y-5484000D02*
X14340000Y-5554000D01*
X14340000Y-5684000D02*
X14410000Y-5754000D01*
X14410000Y-5684000D02*
X14340000Y-5754000D01*
X14340000Y-5884000D02*
X14410000Y-5954000D01*
X14410000Y-5884000D02*
X14340000Y-5954000D01*
X14340000Y-6084000D02*
X14410000Y-6154000D01*
X14410000Y-6084000D02*
X14340000Y-6154000D01*
X14340000Y-6284000D02*
X14410000Y-6354000D01*
X14410000Y-6284000D02*
X14340000Y-6354000D01*
X14340000Y-6684000D02*
X14410000Y-6754000D01*
X14410000Y-6684000D02*
X14340000Y-6754000D01*
X14340000Y-6884000D02*
X14410000Y-6954000D01*
X14410000Y-6884000D02*
X14340000Y-6954000D01*
X14340000Y-7084000D02*
X14410000Y-7154000D01*
X14410000Y-7084000D02*
X14340000Y-7154000D01*
X14340000Y-7284000D02*
X14410000Y-7354000D01*
X14410000Y-7284000D02*
X14340000Y-7354000D01*
X14340000Y-7484000D02*
X14410000Y-7554000D01*
X14410000Y-7484000D02*
X14340000Y-7554000D01*
X14340000Y-7684000D02*
X14410000Y-7754000D01*
X14410000Y-7684000D02*
X14340000Y-7754000D01*
X14340000Y-7884000D02*
X14410000Y-7954000D01*
X14410000Y-7884000D02*
X14340000Y-7954000D01*
X14340000Y-8084000D02*
X14410000Y-8154000D01*
X14410000Y-8084000D02*
X14340000Y-8154000D01*
X14340000Y-8284000D02*
X14410000Y-8354000D01*
X14410000Y-8284000D02*
X14340000Y-8354000D01*
X14340000Y-8484000D02*
X14410000Y-8554000D01*
X14410000Y-8484000D02*
X14340000Y-8554000D01*
X14340000Y-8684000D02*
X14410000Y-8754000D01*
X14410000Y-8684000D02*
X14340000Y-8754000D01*
X14340000Y-8884000D02*
X14410000Y-8954000D01*
X14410000Y-8884000D02*
X14340000Y-8954000D01*
X14340000Y-9084000D02*
X14410000Y-9154000D01*
X14410000Y-9084000D02*
X14340000Y-9154000D01*
X14340000Y-9284000D02*
X14410000Y-9354000D01*
X14410000Y-9284000D02*
X14340000Y-9354000D01*
X14340000Y-9484000D02*
X14410000Y-9554000D01*
X14410000Y-9484000D02*
X14340000Y-9554000D01*
X14340000Y-9684000D02*
X14410000Y-9754000D01*
X14410000Y-9684000D02*
X14340000Y-9754000D01*
X14340000Y-9884000D02*
X14410000Y-9954000D01*
X14410000Y-9884000D02*
X14340000Y-9954000D01*
X14340000Y-10084000D02*
X14410000Y-10154000D01*
X14410000Y-10084000D02*
X14340000Y-10154000D01*
X14340000Y-10284000D02*
X14410000Y-10354000D01*
X14410000Y-10284000D02*
X14340000Y-10354000D01*
X14590000Y-5284000D02*
X14660000Y-5354000D01*
X14660000Y-5284000D02*
X14590000Y-5354000D01*
X14590000Y-5484000D02*
X14660000Y-5554000D01*
X14660000Y-5484000D02*
X14590000Y-5554000D01*
X14590000Y-5684000D02*
X14660000Y-5754000D01*
X14660000Y-5684000D02*
X14590000Y-5754000D01*
X14590000Y-5884000D02*
X14660000Y-5954000D01*
X14660000Y-5884000D02*
X14590000Y-5954000D01*
X14590000Y-6084000D02*
X14660000Y-6154000D01*
X14660000Y-6084000D02*
X14590000Y-6154000D01*
X14590000Y-6284000D02*
X14660000Y-6354000D01*
X14660000Y-6284000D02*
X14590000Y-6354000D01*
X14590000Y-6684000D02*
X14660000Y-6754000D01*
X14660000Y-6684000D02*
X14590000Y-6754000D01*
X14590000Y-6884000D02*
X14660000Y-6954000D01*
X14660000Y-6884000D02*
X14590000Y-6954000D01*
X14590000Y-7084000D02*
X14660000Y-7154000D01*
X14660000Y-7084000D02*
X14590000Y-7154000D01*
X14590000Y-7284000D02*
X14660000Y-7354000D01*
X14660000Y-7284000D02*
X14590000Y-7354000D01*
X14590000Y-7484000D02*
X14660000Y-7554000D01*
X14660000Y-7484000D02*
X14590000Y-7554000D01*
X14590000Y-7684000D02*
X14660000Y-7754000D01*
X14660000Y-7684000D02*
X14590000Y-7754000D01*
X14590000Y-7884000D02*
X14660000Y-7954000D01*
X14660000Y-7884000D02*
X14590000Y-7954000D01*
X14590000Y-8084000D02*
X14660000Y-8154000D01*
X14660000Y-8084000D02*
X14590000Y-8154000D01*
X14590000Y-8284000D02*
X14660000Y-8354000D01*
X14660000Y-8284000D02*
X14590000Y-8354000D01*
X14590000Y-8484000D02*
X14660000Y-8554000D01*
X14660000Y-8484000D02*
X14590000Y-8554000D01*
X14590000Y-8684000D02*
X14660000Y-8754000D01*
X14660000Y-8684000D02*
X14590000Y-8754000D01*
X14590000Y-8884000D02*
X14660000Y-8954000D01*
X14660000Y-8884000D02*
X14590000Y-8954000D01*
X14590000Y-9084000D02*
X14660000Y-9154000D01*
X14660000Y-9084000D02*
X14590000Y-9154000D01*
X14590000Y-9284000D02*
X14660000Y-9354000D01*
X14660000Y-9284000D02*
X14590000Y-9354000D01*
X14590000Y-9484000D02*
X14660000Y-9554000D01*
X14660000Y-9484000D02*
X14590000Y-9554000D01*
X14590000Y-9684000D02*
X14660000Y-9754000D01*
X14660000Y-9684000D02*
X14590000Y-9754000D01*
X14590000Y-9884000D02*
X14660000Y-9954000D01*
X14660000Y-9884000D02*
X14590000Y-9954000D01*
X14590000Y-10084000D02*
X14660000Y-10154000D01*
X14660000Y-10084000D02*
X14590000Y-10154000D01*
X14590000Y-10284000D02*
X14660000Y-10354000D01*
X14660000Y-10284000D02*
X14590000Y-10354000D01*
X14790000Y-5384000D02*
X14860000Y-5454000D01*
X14860000Y-5384000D02*
X14790000Y-5454000D01*
X14790000Y-5584000D02*
X14860000Y-5654000D01*
X14860000Y-5584000D02*
X14790000Y-5654000D01*
X14790000Y-5784000D02*
X14860000Y-5854000D01*
X14860000Y-5784000D02*
X14790000Y-5854000D01*
X14790000Y-5984000D02*
X14860000Y-6054000D01*
X14860000Y-5984000D02*
X14790000Y-6054000D01*
X14790000Y-6184000D02*
X14860000Y-6254000D01*
X14860000Y-6184000D02*
X14790000Y-6254000D01*
X14790000Y-6584000D02*
X14860000Y-6654000D01*
X14860000Y-6584000D02*
X14790000Y-6654000D01*
X14790000Y-6784000D02*
X14860000Y-6854000D01*
X14860000Y-6784000D02*
X14790000Y-6854000D01*
X14790000Y-6984000D02*
X14860000Y-7054000D01*
X14860000Y-6984000D02*
X14790000Y-7054000D01*
X14790000Y-7184000D02*
X14860000Y-7254000D01*
X14860000Y-7184000D02*
X14790000Y-7254000D01*
X14790000Y-7384000D02*
X14860000Y-7454000D01*
X14860000Y-7384000D02*
X14790000Y-7454000D01*
X14790000Y-7584000D02*
X14860000Y-7654000D01*
X14860000Y-7584000D02*
X14790000Y-7654000D01*
X14790000Y-7784000D02*
X14860000Y-7854000D01*
X14860000Y-7784000D02*
X14790000Y-7854000D01*
X14790000Y-7984000D02*
X14860000Y-8054000D01*
X14860000Y-7984000D02*
X14790000Y-8054000D01*
X14790000Y-8184000D02*
X14860000Y-8254000D01*
X14860000Y-8184000D02*
X14790000Y-8254000D01*
X14790000Y-8384000D02*
X14860000Y-8454000D01*
X14860000Y-8384000D02*
X14790000Y-8454000D01*
X14790000Y-8584000D02*
X14860000Y-8654000D01*
X14860000Y-8584000D02*
X14790000Y-8654000D01*
X14790000Y-8784000D02*
X14860000Y-8854000D01*
X14860000Y-8784000D02*
X14790000Y-8854000D01*
X14790000Y-8984000D02*
X14860000Y-9054000D01*
X14860000Y-8984000D02*
X14790000Y-9054000D01*
X14790000Y-9184000D02*
X14860000Y-9254000D01*
X14860000Y-9184000D02*
X14790000Y-9254000D01*
X14790000Y-9384000D02*
X14860000Y-9454000D01*
X14860000Y-9384000D02*
X14790000Y-9454000D01*
X14790000Y-9584000D02*
X14860000Y-9654000D01*
X14860000Y-9584000D02*
X14790000Y-9654000D01*
X14790000Y-9784000D02*
X14860000Y-9854000D01*
X14860000Y-9784000D02*
X14790000Y-9854000D01*
X14790000Y-9984000D02*
X14860000Y-10054000D01*
X14860000Y-9984000D02*
X14790000Y-10054000D01*
X14790000Y-10184000D02*
X14860000Y-10254000D01*
X14860000Y-10184000D02*
X14790000Y-10254000D01*
X16140000Y-5384000D02*
X16210000Y-5454000D01*
X16210000Y-5384000D02*
X16140000Y-5454000D01*
X16140000Y-5584000D02*
X16210000Y-5654000D01*
X16210000Y-5584000D02*
X16140000Y-5654000D01*
X16140000Y-5784000D02*
X16210000Y-5854000D01*
X16210000Y-5784000D02*
X16140000Y-5854000D01*
X16140000Y-5984000D02*
X16210000Y-6054000D01*
X16210000Y-5984000D02*
X16140000Y-6054000D01*
X16140000Y-6184000D02*
X16210000Y-6254000D01*
X16210000Y-6184000D02*
X16140000Y-6254000D01*
X16140000Y-6584000D02*
X16210000Y-6654000D01*
X16210000Y-6584000D02*
X16140000Y-6654000D01*
X16140000Y-6784000D02*
X16210000Y-6854000D01*
X16210000Y-6784000D02*
X16140000Y-6854000D01*
X16140000Y-6984000D02*
X16210000Y-7054000D01*
X16210000Y-6984000D02*
X16140000Y-7054000D01*
X16140000Y-7184000D02*
X16210000Y-7254000D01*
X16210000Y-7184000D02*
X16140000Y-7254000D01*
X16140000Y-7384000D02*
X16210000Y-7454000D01*
X16210000Y-7384000D02*
X16140000Y-7454000D01*
X16140000Y-7584000D02*
X16210000Y-7654000D01*
X16210000Y-7584000D02*
X16140000Y-7654000D01*
X16140000Y-7784000D02*
X16210000Y-7854000D01*
X16210000Y-7784000D02*
X16140000Y-7854000D01*
X16140000Y-7984000D02*
X16210000Y-8054000D01*
X16210000Y-7984000D02*
X16140000Y-8054000D01*
X16140000Y-8184000D02*
X16210000Y-8254000D01*
X16210000Y-8184000D02*
X16140000Y-8254000D01*
X16140000Y-8384000D02*
X16210000Y-8454000D01*
X16210000Y-8384000D02*
X16140000Y-8454000D01*
X16140000Y-8584000D02*
X16210000Y-8654000D01*
X16210000Y-8584000D02*
X16140000Y-8654000D01*
X16140000Y-8784000D02*
X16210000Y-8854000D01*
X16210000Y-8784000D02*
X16140000Y-8854000D01*
X16140000Y-8984000D02*
X16210000Y-9054000D01*
X16210000Y-8984000D02*
X16140000Y-9054000D01*
X16140000Y-9184000D02*
X16210000Y-9254000D01*
X16210000Y-9184000D02*
X16140000Y-9254000D01*
X16140000Y-9384000D02*
X16210000Y-9454000D01*
X16210000Y-9384000D02*
X16140000Y-9454000D01*
X16140000Y-9584000D02*
X16210000Y-9654000D01*
X16210000Y-9584000D02*
X16140000Y-9654000D01*
X16140000Y-9784000D02*
X16210000Y-9854000D01*
X16210000Y-9784000D02*
X16140000Y-9854000D01*
X16140000Y-9984000D02*
X16210000Y-10054000D01*
X16210000Y-9984000D02*
X16140000Y-10054000D01*
X16140000Y-10184000D02*
X16210000Y-10254000D01*
X16210000Y-10184000D02*
X16140000Y-10254000D01*
X16340000Y-5284000D02*
X16410000Y-5354000D01*
X16410000Y-5284000D02*
X16340000Y-5354000D01*
X16340000Y-5484000D02*
X16410000Y-5554000D01*
X16410000Y-5484000D02*
X16340000Y-5554000D01*
X16340000Y-5684000D02*
X16410000Y-5754000D01*
X16410000Y-5684000D02*
X16340000Y-5754000D01*
X16340000Y-5884000D02*
X16410000Y-5954000D01*
X16410000Y-5884000D02*
X16340000Y-5954000D01*
X16340000Y-6084000D02*
X16410000Y-6154000D01*
X16410000Y-6084000D02*
X16340000Y-6154000D01*
X16340000Y-6284000D02*
X16410000Y-6354000D01*
X16410000Y-6284000D02*
X16340000Y-6354000D01*
X16340000Y-6684000D02*
X16410000Y-6754000D01*
X16410000Y-6684000D02*
X16340000Y-6754000D01*
X16340000Y-6884000D02*
X16410000Y-6954000D01*
X16410000Y-6884000D02*
X16340000Y-6954000D01*
X16340000Y-7084000D02*
X16410000Y-7154000D01*
X16410000Y-7084000D02*
X16340000Y-7154000D01*
X16340000Y-7284000D02*
X16410000Y-7354000D01*
X16410000Y-7284000D02*
X16340000Y-7354000D01*
X16340000Y-7484000D02*
X16410000Y-7554000D01*
X16410000Y-7484000D02*
X16340000Y-7554000D01*
X16340000Y-7684000D02*
X16410000Y-7754000D01*
X16410000Y-7684000D02*
X16340000Y-7754000D01*
X16340000Y-7884000D02*
X16410000Y-7954000D01*
X16410000Y-7884000D02*
X16340000Y-7954000D01*
X16340000Y-8084000D02*
X16410000Y-8154000D01*
X16410000Y-8084000D02*
X16340000Y-8154000D01*
X16340000Y-8284000D02*
X16410000Y-8354000D01*
X16410000Y-8284000D02*
X16340000Y-8354000D01*
X16340000Y-8484000D02*
X16410000Y-8554000D01*
X16410000Y-8484000D02*
X16340000Y-8554000D01*
X16340000Y-8684000D02*
X16410000Y-8754000D01*
X16410000Y-8684000D02*
X16340000Y-8754000D01*
X16340000Y-8884000D02*
X16410000Y-8954000D01*
X16410000Y-8884000D02*
X16340000Y-8954000D01*
X16340000Y-9084000D02*
X16410000Y-9154000D01*
X16410000Y-9084000D02*
X16340000Y-9154000D01*
X16340000Y-9284000D02*
X16410000Y-9354000D01*
X16410000Y-9284000D02*
X16340000Y-9354000D01*
X16340000Y-9484000D02*
X16410000Y-9554000D01*
X16410000Y-9484000D02*
X16340000Y-9554000D01*
X16340000Y-9684000D02*
X16410000Y-9754000D01*
X16410000Y-9684000D02*
X16340000Y-9754000D01*
X16340000Y-9884000D02*
X16410000Y-9954000D01*
X16410000Y-9884000D02*
X16340000Y-9954000D01*
X16340000Y-10084000D02*
X16410000Y-10154000D01*
X16410000Y-10084000D02*
X16340000Y-10154000D01*
X16340000Y-10284000D02*
X16410000Y-10354000D01*
X16410000Y-10284000D02*
X16340000Y-10354000D01*
X16590000Y-5284000D02*
X16660000Y-5354000D01*
X16660000Y-5284000D02*
X16590000Y-5354000D01*
X16590000Y-5484000D02*
X16660000Y-5554000D01*
X16660000Y-5484000D02*
X16590000Y-5554000D01*
X16590000Y-5684000D02*
X16660000Y-5754000D01*
X16660000Y-5684000D02*
X16590000Y-5754000D01*
X16590000Y-5884000D02*
X16660000Y-5954000D01*
X16660000Y-5884000D02*
X16590000Y-5954000D01*
X16590000Y-6084000D02*
X16660000Y-6154000D01*
X16660000Y-6084000D02*
X16590000Y-6154000D01*
X16590000Y-6284000D02*
X16660000Y-6354000D01*
X16660000Y-6284000D02*
X16590000Y-6354000D01*
X16590000Y-6684000D02*
X16660000Y-6754000D01*
X16660000Y-6684000D02*
X16590000Y-6754000D01*
X16590000Y-6884000D02*
X16660000Y-6954000D01*
X16660000Y-6884000D02*
X16590000Y-6954000D01*
X16590000Y-7084000D02*
X16660000Y-7154000D01*
X16660000Y-7084000D02*
X16590000Y-7154000D01*
X16590000Y-7284000D02*
X16660000Y-7354000D01*
X16660000Y-7284000D02*
X16590000Y-7354000D01*
X16590000Y-7484000D02*
X16660000Y-7554000D01*
X16660000Y-7484000D02*
X16590000Y-7554000D01*
X16590000Y-7684000D02*
X16660000Y-7754000D01*
X16660000Y-7684000D02*
X16590000Y-7754000D01*
X16590000Y-7884000D02*
X16660000Y-7954000D01*
X16660000Y-7884000D02*
X16590000Y-7954000D01*
X16590000Y-8084000D02*
X16660000Y-8154000D01*
X16660000Y-8084000D02*
X16590000Y-8154000D01*
X16590000Y-8284000D02*
X16660000Y-8354000D01*
X16660000Y-8284000D02*
X16590000Y-8354000D01*
X16590000Y-8484000D02*
X16660000Y-8554000D01*
X16660000Y-8484000D02*
X16590000Y-8554000D01*
X16590000Y-8684000D02*
X16660000Y-8754000D01*
X16660000Y-8684000D02*
X16590000Y-8754000D01*
X16590000Y-8884000D02*
X16660000Y-8954000D01*
X16660000Y-8884000D02*
X16590000Y-8954000D01*
X16590000Y-9084000D02*
X16660000Y-9154000D01*
X16660000Y-9084000D02*
X16590000Y-9154000D01*
X16590000Y-9284000D02*
X16660000Y-9354000D01*
X16660000Y-9284000D02*
X16590000Y-9354000D01*
X16590000Y-9484000D02*
X16660000Y-9554000D01*
X16660000Y-9484000D02*
X16590000Y-9554000D01*
X16590000Y-9684000D02*
X16660000Y-9754000D01*
X16660000Y-9684000D02*
X16590000Y-9754000D01*
X16590000Y-9884000D02*
X16660000Y-9954000D01*
X16660000Y-9884000D02*
X16590000Y-9954000D01*
X16590000Y-10084000D02*
X16660000Y-10154000D01*
X16660000Y-10084000D02*
X16590000Y-10154000D01*
X16590000Y-10284000D02*
X16660000Y-10354000D01*
X16660000Y-10284000D02*
X16590000Y-10354000D01*
X16790000Y-5384000D02*
X16860000Y-5454000D01*
X16860000Y-5384000D02*
X16790000Y-5454000D01*
X16790000Y-5584000D02*
X16860000Y-5654000D01*
X16860000Y-5584000D02*
X16790000Y-5654000D01*
X16790000Y-5784000D02*
X16860000Y-5854000D01*
X16860000Y-5784000D02*
X16790000Y-5854000D01*
X16790000Y-5984000D02*
X16860000Y-6054000D01*
X16860000Y-5984000D02*
X16790000Y-6054000D01*
X16790000Y-6184000D02*
X16860000Y-6254000D01*
X16860000Y-6184000D02*
X16790000Y-6254000D01*
X16790000Y-6584000D02*
X16860000Y-6654000D01*
X16860000Y-6584000D02*
X16790000Y-6654000D01*
X16790000Y-6784000D02*
X16860000Y-6854000D01*
X16860000Y-6784000D02*
X16790000Y-6854000D01*
X16790000Y-6984000D02*
X16860000Y-7054000D01*
X16860000Y-6984000D02*
X16790000Y-7054000D01*
X16790000Y-7184000D02*
X16860000Y-7254000D01*
X16860000Y-7184000D02*
X16790000Y-7254000D01*
X16790000Y-7384000D02*
X16860000Y-7454000D01*
X16860000Y-7384000D02*
X16790000Y-7454000D01*
X16790000Y-7584000D02*
X16860000Y-7654000D01*
X16860000Y-7584000D02*
X16790000Y-7654000D01*
X16790000Y-7784000D02*
X16860000Y-7854000D01*
X16860000Y-7784000D02*
X16790000Y-7854000D01*
X16790000Y-7984000D02*
X16860000Y-8054000D01*
X16860000Y-7984000D02*
X16790000Y-8054000D01*
X16790000Y-8184000D02*
X16860000Y-8254000D01*
X16860000Y-8184000D02*
X16790000Y-8254000D01*
X16790000Y-8384000D02*
X16860000Y-8454000D01*
X16860000Y-8384000D02*
X16790000Y-8454000D01*
X16790000Y-8584000D02*
X16860000Y-8654000D01*
X16860000Y-8584000D02*
X16790000Y-8654000D01*
X16790000Y-8784000D02*
X16860000Y-8854000D01*
X16860000Y-8784000D02*
X16790000Y-8854000D01*
X16790000Y-8984000D02*
X16860000Y-9054000D01*
X16860000Y-8984000D02*
X16790000Y-9054000D01*
X16790000Y-9184000D02*
X16860000Y-9254000D01*
X16860000Y-9184000D02*
X16790000Y-9254000D01*
X16790000Y-9384000D02*
X16860000Y-9454000D01*
X16860000Y-9384000D02*
X16790000Y-9454000D01*
X16790000Y-9584000D02*
X16860000Y-9654000D01*
X16860000Y-9584000D02*
X16790000Y-9654000D01*
X16790000Y-9784000D02*
X16860000Y-9854000D01*
X16860000Y-9784000D02*
X16790000Y-9854000D01*
X16790000Y-9984000D02*
X16860000Y-10054000D01*
X16860000Y-9984000D02*
X16790000Y-10054000D01*
X16790000Y-10184000D02*
X16860000Y-10254000D01*
X16860000Y-10184000D02*
X16790000Y-10254000D01*
X18140000Y-5384000D02*
X18210000Y-5454000D01*
X18210000Y-5384000D02*
X18140000Y-5454000D01*
X18140000Y-5584000D02*
X18210000Y-5654000D01*
X18210000Y-5584000D02*
X18140000Y-5654000D01*
X18140000Y-5784000D02*
X18210000Y-5854000D01*
X18210000Y-5784000D02*
X18140000Y-5854000D01*
X18140000Y-5984000D02*
X18210000Y-6054000D01*
X18210000Y-5984000D02*
X18140000Y-6054000D01*
X18140000Y-6184000D02*
X18210000Y-6254000D01*
X18210000Y-6184000D02*
X18140000Y-6254000D01*
X18140000Y-6584000D02*
X18210000Y-6654000D01*
X18210000Y-6584000D02*
X18140000Y-6654000D01*
X18140000Y-6784000D02*
X18210000Y-6854000D01*
X18210000Y-6784000D02*
X18140000Y-6854000D01*
X18140000Y-6984000D02*
X18210000Y-7054000D01*
X18210000Y-6984000D02*
X18140000Y-7054000D01*
X18140000Y-7184000D02*
X18210000Y-7254000D01*
X18210000Y-7184000D02*
X18140000Y-7254000D01*
X18140000Y-7384000D02*
X18210000Y-7454000D01*
X18210000Y-7384000D02*
X18140000Y-7454000D01*
X18140000Y-7584000D02*
X18210000Y-7654000D01*
X18210000Y-7584000D02*
X18140000Y-7654000D01*
X18140000Y-7784000D02*
X18210000Y-7854000D01*
X18210000Y-7784000D02*
X18140000Y-7854000D01*
X18140000Y-7984000D02*
X18210000Y-8054000D01*
X18210000Y-7984000D02*
X18140000Y-8054000D01*
X18140000Y-8184000D02*
X18210000Y-8254000D01*
X18210000Y-8184000D02*
X18140000Y-8254000D01*
X18140000Y-8384000D02*
X18210000Y-8454000D01*
X18210000Y-8384000D02*
X18140000Y-8454000D01*
X18140000Y-8584000D02*
X18210000Y-8654000D01*
X18210000Y-8584000D02*
X18140000Y-8654000D01*
X18140000Y-8784000D02*
X18210000Y-8854000D01*
X18210000Y-8784000D02*
X18140000Y-8854000D01*
X18140000Y-8984000D02*
X18210000Y-9054000D01*
X18210000Y-8984000D02*
X18140000Y-9054000D01*
X18140000Y-9184000D02*
X18210000Y-9254000D01*
X18210000Y-9184000D02*
X18140000Y-9254000D01*
X18140000Y-9384000D02*
X18210000Y-9454000D01*
X18210000Y-9384000D02*
X18140000Y-9454000D01*
X18140000Y-9584000D02*
X18210000Y-9654000D01*
X18210000Y-9584000D02*
X18140000Y-9654000D01*
X18140000Y-9784000D02*
X18210000Y-9854000D01*
X18210000Y-9784000D02*
X18140000Y-9854000D01*
X18140000Y-9984000D02*
X18210000Y-10054000D01*
X18210000Y-9984000D02*
X18140000Y-10054000D01*
X18140000Y-10184000D02*
X18210000Y-10254000D01*
X18210000Y-10184000D02*
X18140000Y-10254000D01*
X18340000Y-5284000D02*
X18410000Y-5354000D01*
X18410000Y-5284000D02*
X18340000Y-5354000D01*
X18340000Y-5484000D02*
X18410000Y-5554000D01*
X18410000Y-5484000D02*
X18340000Y-5554000D01*
X18340000Y-5684000D02*
X18410000Y-5754000D01*
X18410000Y-5684000D02*
X18340000Y-5754000D01*
X18340000Y-5884000D02*
X18410000Y-5954000D01*
X18410000Y-5884000D02*
X18340000Y-5954000D01*
X18340000Y-6084000D02*
X18410000Y-6154000D01*
X18410000Y-6084000D02*
X18340000Y-6154000D01*
X18340000Y-6284000D02*
X18410000Y-6354000D01*
X18410000Y-6284000D02*
X18340000Y-6354000D01*
X18340000Y-6684000D02*
X18410000Y-6754000D01*
X18410000Y-6684000D02*
X18340000Y-6754000D01*
X18340000Y-6884000D02*
X18410000Y-6954000D01*
X18410000Y-6884000D02*
X18340000Y-6954000D01*
X18340000Y-7084000D02*
X18410000Y-7154000D01*
X18410000Y-7084000D02*
X18340000Y-7154000D01*
X18340000Y-7284000D02*
X18410000Y-7354000D01*
X18410000Y-7284000D02*
X18340000Y-7354000D01*
X18340000Y-7484000D02*
X18410000Y-7554000D01*
X18410000Y-7484000D02*
X18340000Y-7554000D01*
X18340000Y-7684000D02*
X18410000Y-7754000D01*
X18410000Y-7684000D02*
X18340000Y-7754000D01*
X18340000Y-7884000D02*
X18410000Y-7954000D01*
X18410000Y-7884000D02*
X18340000Y-7954000D01*
X18340000Y-8084000D02*
X18410000Y-8154000D01*
X18410000Y-8084000D02*
X18340000Y-8154000D01*
X18340000Y-8284000D02*
X18410000Y-8354000D01*
X18410000Y-8284000D02*
X18340000Y-8354000D01*
X18340000Y-8484000D02*
X18410000Y-8554000D01*
X18410000Y-8484000D02*
X18340000Y-8554000D01*
X18340000Y-8684000D02*
X18410000Y-8754000D01*
X18410000Y-8684000D02*
X18340000Y-8754000D01*
X18340000Y-8884000D02*
X18410000Y-8954000D01*
X18410000Y-8884000D02*
X18340000Y-8954000D01*
X18340000Y-9084000D02*
X18410000Y-9154000D01*
X18410000Y-9084000D02*
X18340000Y-9154000D01*
X18340000Y-9284000D02*
X18410000Y-9354000D01*
X18410000Y-9284000D02*
X18340000Y-9354000D01*
X18340000Y-9484000D02*
X18410000Y-9554000D01*
X18410000Y-9484000D02*
X18340000Y-9554000D01*
X18340000Y-9684000D02*
X18410000Y-9754000D01*
X18410000Y-9684000D02*
X18340000Y-9754000D01*
X18340000Y-9884000D02*
X18410000Y-9954000D01*
X18410000Y-9884000D02*
X18340000Y-9954000D01*
X18340000Y-10084000D02*
X18410000Y-10154000D01*
X18410000Y-10084000D02*
X18340000Y-10154000D01*
X18340000Y-10284000D02*
X18410000Y-10354000D01*
X18410000Y-10284000D02*
X18340000Y-10354000D01*
X18590000Y-5284000D02*
X18660000Y-5354000D01*
X18660000Y-5284000D02*
X18590000Y-5354000D01*
X18590000Y-5484000D02*
X18660000Y-5554000D01*
X18660000Y-5484000D02*
X18590000Y-5554000D01*
X18590000Y-5684000D02*
X18660000Y-5754000D01*
X18660000Y-5684000D02*
X18590000Y-5754000D01*
X18590000Y-5884000D02*
X18660000Y-5954000D01*
X18660000Y-5884000D02*
X18590000Y-5954000D01*
X18590000Y-6084000D02*
X18660000Y-6154000D01*
X18660000Y-6084000D02*
X18590000Y-6154000D01*
X18590000Y-6284000D02*
X18660000Y-6354000D01*
X18660000Y-6284000D02*
X18590000Y-6354000D01*
X18590000Y-6684000D02*
X18660000Y-6754000D01*
X18660000Y-6684000D02*
X18590000Y-6754000D01*
X18590000Y-6884000D02*
X18660000Y-6954000D01*
X18660000Y-6884000D02*
X18590000Y-6954000D01*
X18590000Y-7084000D02*
X18660000Y-7154000D01*
X18660000Y-7084000D02*
X18590000Y-7154000D01*
X18590000Y-7284000D02*
X18660000Y-7354000D01*
X18660000Y-7284000D02*
X18590000Y-7354000D01*
X18590000Y-7484000D02*
X18660000Y-7554000D01*
X18660000Y-7484000D02*
X18590000Y-7554000D01*
X18590000Y-7684000D02*
X18660000Y-7754000D01*
X18660000Y-7684000D02*
X18590000Y-7754000D01*
X18590000Y-7884000D02*
X18660000Y-7954000D01*
X18660000Y-7884000D02*
X18590000Y-7954000D01*
X18590000Y-8084000D02*
X18660000Y-8154000D01*
X18660000Y-8084000D02*
X18590000Y-8154000D01*
X18590000Y-8284000D02*
X18660000Y-8354000D01*
X18660000Y-8284000D02*
X18590000Y-8354000D01*
X18590000Y-8484000D02*
X18660000Y-8554000D01*
X18660000Y-8484000D02*
X18590000Y-8554000D01*
X18590000Y-8684000D02*
X18660000Y-8754000D01*
X18660000Y-8684000D02*
X18590000Y-8754000D01*
X18590000Y-8884000D02*
X18660000Y-8954000D01*
X18660000Y-8884000D02*
X18590000Y-8954000D01*
X18590000Y-9084000D02*
X18660000Y-9154000D01*
X18660000Y-9084000D02*
X18590000Y-9154000D01*
X18590000Y-9284000D02*
X18660000Y-9354000D01*
X18660000Y-9284000D02*
X18590000Y-9354000D01*
X18590000Y-9484000D02*
X18660000Y-9554000D01*
X18660000Y-9484000D02*
X18590000Y-9554000D01*
X18590000Y-9684000D02*
X18660000Y-9754000D01*
X18660000Y-9684000D02*
X18590000Y-9754000D01*
X18590000Y-9884000D02*
X18660000Y-9954000D01*
X18660000Y-9884000D02*
X18590000Y-9954000D01*
X18590000Y-10084000D02*
X18660000Y-10154000D01*
X18660000Y-10084000D02*
X18590000Y-10154000D01*
X18590000Y-10284000D02*
X18660000Y-10354000D01*
X18660000Y-10284000D02*
X18590000Y-10354000D01*
X18790000Y-5384000D02*
X18860000Y-5454000D01*
X18860000Y-5384000D02*
X18790000Y-5454000D01*
X18790000Y-5584000D02*
X18860000Y-5654000D01*
X18860000Y-5584000D02*
X18790000Y-5654000D01*
X18790000Y-5784000D02*
X18860000Y-5854000D01*
X18860000Y-5784000D02*
X18790000Y-5854000D01*
X18790000Y-5984000D02*
X18860000Y-6054000D01*
X18860000Y-5984000D02*
X18790000Y-6054000D01*
X18790000Y-6184000D02*
X18860000Y-6254000D01*
X18860000Y-6184000D02*
X18790000Y-6254000D01*
X18790000Y-6584000D02*
X18860000Y-6654000D01*
X18860000Y-6584000D02*
X18790000Y-6654000D01*
X18790000Y-6784000D02*
X18860000Y-6854000D01*
X18860000Y-6784000D02*
X18790000Y-6854000D01*
X18790000Y-6984000D02*
X18860000Y-7054000D01*
X18860000Y-6984000D02*
X18790000Y-7054000D01*
X18790000Y-7184000D02*
X18860000Y-7254000D01*
X18860000Y-7184000D02*
X18790000Y-7254000D01*
X18790000Y-7384000D02*
X18860000Y-7454000D01*
X18860000Y-7384000D02*
X18790000Y-7454000D01*
X18790000Y-7584000D02*
X18860000Y-7654000D01*
X18860000Y-7584000D02*
X18790000Y-7654000D01*
X18790000Y-7784000D02*
X18860000Y-7854000D01*
X18860000Y-7784000D02*
X18790000Y-7854000D01*
X18790000Y-7984000D02*
X18860000Y-8054000D01*
X18860000Y-7984000D02*
X18790000Y-8054000D01*
X18790000Y-8184000D02*
X18860000Y-8254000D01*
X18860000Y-8184000D02*
X18790000Y-8254000D01*
X18790000Y-8384000D02*
X18860000Y-8454000D01*
X18860000Y-8384000D02*
X18790000Y-8454000D01*
X18790000Y-8584000D02*
X18860000Y-8654000D01*
X18860000Y-8584000D02*
X18790000Y-8654000D01*
X18790000Y-8784000D02*
X18860000Y-8854000D01*
X18860000Y-8784000D02*
X18790000Y-8854000D01*
X18790000Y-8984000D02*
X18860000Y-9054000D01*
X18860000Y-8984000D02*
X18790000Y-9054000D01*
X18790000Y-9184000D02*
X18860000Y-9254000D01*
X18860000Y-9184000D02*
X18790000Y-9254000D01*
X18790000Y-9384000D02*
X18860000Y-9454000D01*
X18860000Y-9384000D02*
X18790000Y-9454000D01*
X18790000Y-9584000D02*
X18860000Y-9654000D01*
X18860000Y-9584000D02*
X18790000Y-9654000D01*
X18790000Y-9784000D02*
X18860000Y-9854000D01*
X18860000Y-9784000D02*
X18790000Y-9854000D01*
X18790000Y-9984000D02*
X18860000Y-10054000D01*
X18860000Y-9984000D02*
X18790000Y-10054000D01*
X18790000Y-10184000D02*
X18860000Y-10254000D01*
X18860000Y-10184000D02*
X18790000Y-10254000D01*
X20140000Y-5384000D02*
X20210000Y-5454000D01*
X20210000Y-5384000D02*
X20140000Y-5454000D01*
X20140000Y-5584000D02*
X20210000Y-5654000D01*
X20210000Y-5584000D02*
X20140000Y-5654000D01*
X20140000Y-5784000D02*
X20210000Y-5854000D01*
X20210000Y-5784000D02*
X20140000Y-5854000D01*
X20140000Y-5984000D02*
X20210000Y-6054000D01*
X20210000Y-5984000D02*
X20140000Y-6054000D01*
X20140000Y-6184000D02*
X20210000Y-6254000D01*
X20210000Y-6184000D02*
X20140000Y-6254000D01*
X20140000Y-6584000D02*
X20210000Y-6654000D01*
X20210000Y-6584000D02*
X20140000Y-6654000D01*
X20140000Y-6784000D02*
X20210000Y-6854000D01*
X20210000Y-6784000D02*
X20140000Y-6854000D01*
X20140000Y-6984000D02*
X20210000Y-7054000D01*
X20210000Y-6984000D02*
X20140000Y-7054000D01*
X20140000Y-7184000D02*
X20210000Y-7254000D01*
X20210000Y-7184000D02*
X20140000Y-7254000D01*
X20140000Y-7384000D02*
X20210000Y-7454000D01*
X20210000Y-7384000D02*
X20140000Y-7454000D01*
X20140000Y-7584000D02*
X20210000Y-7654000D01*
X20210000Y-7584000D02*
X20140000Y-7654000D01*
X20140000Y-7784000D02*
X20210000Y-7854000D01*
X20210000Y-7784000D02*
X20140000Y-7854000D01*
X20140000Y-7984000D02*
X20210000Y-8054000D01*
X20210000Y-7984000D02*
X20140000Y-8054000D01*
X20140000Y-8184000D02*
X20210000Y-8254000D01*
X20210000Y-8184000D02*
X20140000Y-8254000D01*
X20140000Y-8384000D02*
X20210000Y-8454000D01*
X20210000Y-8384000D02*
X20140000Y-8454000D01*
X20140000Y-8584000D02*
X20210000Y-8654000D01*
X20210000Y-8584000D02*
X20140000Y-8654000D01*
X20140000Y-8784000D02*
X20210000Y-8854000D01*
X20210000Y-8784000D02*
X20140000Y-8854000D01*
X20140000Y-8984000D02*
X20210000Y-9054000D01*
X20210000Y-8984000D02*
X20140000Y-9054000D01*
X20140000Y-9184000D02*
X20210000Y-9254000D01*
X20210000Y-9184000D02*
X20140000Y-9254000D01*
X20140000Y-9384000D02*
X20210000Y-9454000D01*
X20210000Y-9384000D02*
X20140000Y-9454000D01*
X20140000Y-9584000D02*
X20210000Y-9654000D01*
X20210000Y-9584000D02*
X20140000Y-9654000D01*
X20140000Y-9784000D02*
X20210000Y-9854000D01*
X20210000Y-9784000D02*
X20140000Y-9854000D01*
X20140000Y-9984000D02*
X20210000Y-10054000D01*
X20210000Y-9984000D02*
X20140000Y-10054000D01*
X20140000Y-10184000D02*
X20210000Y-10254000D01*
X20210000Y-10184000D02*
X20140000Y-10254000D01*
X20340000Y-5284000D02*
X20410000Y-5354000D01*
X20410000Y-5284000D02*
X20340000Y-5354000D01*
X20340000Y-5484000D02*
X20410000Y-5554000D01*
X20410000Y-5484000D02*
X20340000Y-5554000D01*
X20340000Y-5684000D02*
X20410000Y-5754000D01*
X20410000Y-5684000D02*
X20340000Y-5754000D01*
X20340000Y-5884000D02*
X20410000Y-5954000D01*
X20410000Y-5884000D02*
X20340000Y-5954000D01*
X20340000Y-6084000D02*
X20410000Y-6154000D01*
X20410000Y-6084000D02*
X20340000Y-6154000D01*
X20340000Y-6284000D02*
X20410000Y-6354000D01*
X20410000Y-6284000D02*
X20340000Y-6354000D01*
X20340000Y-6684000D02*
X20410000Y-6754000D01*
X20410000Y-6684000D02*
X20340000Y-6754000D01*
X20340000Y-6884000D02*
X20410000Y-6954000D01*
X20410000Y-6884000D02*
X20340000Y-6954000D01*
X20340000Y-7084000D02*
X20410000Y-7154000D01*
X20410000Y-7084000D02*
X20340000Y-7154000D01*
X20340000Y-7284000D02*
X20410000Y-7354000D01*
X20410000Y-7284000D02*
X20340000Y-7354000D01*
X20340000Y-7484000D02*
X20410000Y-7554000D01*
X20410000Y-7484000D02*
X20340000Y-7554000D01*
X20340000Y-7684000D02*
X20410000Y-7754000D01*
X20410000Y-7684000D02*
X20340000Y-7754000D01*
X20340000Y-7884000D02*
X20410000Y-7954000D01*
X20410000Y-7884000D02*
X20340000Y-7954000D01*
X20340000Y-8084000D02*
X20410000Y-8154000D01*
X20410000Y-8084000D02*
X20340000Y-8154000D01*
X20340000Y-8284000D02*
X20410000Y-8354000D01*
X20410000Y-8284000D02*
X20340000Y-8354000D01*
X20340000Y-8484000D02*
X20410000Y-8554000D01*
X20410000Y-8484000D02*
X20340000Y-8554000D01*
X20340000Y-8684000D02*
X20410000Y-8754000D01*
X20410000Y-8684000D02*
X20340000Y-8754000D01*
X20340000Y-8884000D02*
X20410000Y-8954000D01*
X20410000Y-8884000D02*
X20340000Y-8954000D01*
X20340000Y-9084000D02*
X20410000Y-9154000D01*
X20410000Y-9084000D02*
X20340000Y-9154000D01*
X20340000Y-9284000D02*
X20410000Y-9354000D01*
X20410000Y-9284000D02*
X20340000Y-9354000D01*
X20340000Y-9484000D02*
X20410000Y-9554000D01*
X20410000Y-9484000D02*
X20340000Y-9554000D01*
X20340000Y-9684000D02*
X20410000Y-9754000D01*
X20410000Y-9684000D02*
X20340000Y-9754000D01*
X20340000Y-9884000D02*
X20410000Y-9954000D01*
X20410000Y-9884000D02*
X20340000Y-9954000D01*
X20340000Y-10084000D02*
X20410000Y-10154000D01*
X20410000Y-10084000D02*
X20340000Y-10154000D01*
X20340000Y-10284000D02*
X20410000Y-10354000D01*
X20410000Y-10284000D02*
X20340000Y-10354000D01*
X20590000Y-5284000D02*
X20660000Y-5354000D01*
X20660000Y-5284000D02*
X20590000Y-5354000D01*
X20590000Y-5484000D02*
X20660000Y-5554000D01*
X20660000Y-5484000D02*
X20590000Y-5554000D01*
X20590000Y-5684000D02*
X20660000Y-5754000D01*
X20660000Y-5684000D02*
X20590000Y-5754000D01*
X20590000Y-5884000D02*
X20660000Y-5954000D01*
X20660000Y-5884000D02*
X20590000Y-5954000D01*
X20590000Y-6084000D02*
X20660000Y-6154000D01*
X20660000Y-6084000D02*
X20590000Y-6154000D01*
X20590000Y-6284000D02*
X20660000Y-6354000D01*
X20660000Y-6284000D02*
X20590000Y-6354000D01*
X20590000Y-6684000D02*
X20660000Y-6754000D01*
X20660000Y-6684000D02*
X20590000Y-6754000D01*
X20590000Y-6884000D02*
X20660000Y-6954000D01*
X20660000Y-6884000D02*
X20590000Y-6954000D01*
X20590000Y-7084000D02*
X20660000Y-7154000D01*
X20660000Y-7084000D02*
X20590000Y-7154000D01*
X20590000Y-7284000D02*
X20660000Y-7354000D01*
X20660000Y-7284000D02*
X20590000Y-7354000D01*
X20590000Y-7484000D02*
X20660000Y-7554000D01*
X20660000Y-7484000D02*
X20590000Y-7554000D01*
X20590000Y-7684000D02*
X20660000Y-7754000D01*
X20660000Y-7684000D02*
X20590000Y-7754000D01*
X20590000Y-7884000D02*
X20660000Y-7954000D01*
X20660000Y-7884000D02*
X20590000Y-7954000D01*
X20590000Y-8084000D02*
X20660000Y-8154000D01*
X20660000Y-8084000D02*
X20590000Y-8154000D01*
X20590000Y-8284000D02*
X20660000Y-8354000D01*
X20660000Y-8284000D02*
X20590000Y-8354000D01*
X20590000Y-8484000D02*
X20660000Y-8554000D01*
X20660000Y-8484000D02*
X20590000Y-8554000D01*
X20590000Y-8684000D02*
X20660000Y-8754000D01*
X20660000Y-8684000D02*
X20590000Y-8754000D01*
X20590000Y-8884000D02*
X20660000Y-8954000D01*
X20660000Y-8884000D02*
X20590000Y-8954000D01*
X20590000Y-9084000D02*
X20660000Y-9154000D01*
X20660000Y-9084000D02*
X20590000Y-9154000D01*
X20590000Y-9284000D02*
X20660000Y-9354000D01*
X20660000Y-9284000D02*
X20590000Y-9354000D01*
X20590000Y-9484000D02*
X20660000Y-9554000D01*
X20660000Y-9484000D02*
X20590000Y-9554000D01*
X20590000Y-9684000D02*
X20660000Y-9754000D01*
X20660000Y-9684000D02*
X20590000Y-9754000D01*
X20590000Y-9884000D02*
X20660000Y-9954000D01*
X20660000Y-9884000D02*
X20590000Y-9954000D01*
X20590000Y-10084000D02*
X20660000Y-10154000D01*
X20660000Y-10084000D02*
X20590000Y-10154000D01*
X20590000Y-10284000D02*
X20660000Y-10354000D01*
X20660000Y-10284000D02*
X20590000Y-10354000D01*
X20790000Y-5384000D02*
X20860000Y-5454000D01*
X20860000Y-5384000D02*
X20790000Y-5454000D01*
X20790000Y-5584000D02*
X20860000Y-5654000D01*
X20860000Y-5584000D02*
X20790000Y-5654000D01*
X20790000Y-5784000D02*
X20860000Y-5854000D01*
X20860000Y-5784000D02*
X20790000Y-5854000D01*
X20790000Y-5984000D02*
X20860000Y-6054000D01*
X20860000Y-5984000D02*
X20790000Y-6054000D01*
X20790000Y-6184000D02*
X20860000Y-6254000D01*
X20860000Y-6184000D02*
X20790000Y-6254000D01*
X20790000Y-6584000D02*
X20860000Y-6654000D01*
X20860000Y-6584000D02*
X20790000Y-6654000D01*
X20790000Y-6784000D02*
X20860000Y-6854000D01*
X20860000Y-6784000D02*
X20790000Y-6854000D01*
X20790000Y-6984000D02*
X20860000Y-7054000D01*
X20860000Y-6984000D02*
X20790000Y-7054000D01*
X20790000Y-7184000D02*
X20860000Y-7254000D01*
X20860000Y-7184000D02*
X20790000Y-7254000D01*
X20790000Y-7384000D02*
X20860000Y-7454000D01*
X20860000Y-7384000D02*
X20790000Y-7454000D01*
X20790000Y-7584000D02*
X20860000Y-7654000D01*
X20860000Y-7584000D02*
X20790000Y-7654000D01*
X20790000Y-7784000D02*
X20860000Y-7854000D01*
X20860000Y-7784000D02*
X20790000Y-7854000D01*
X20790000Y-7984000D02*
X20860000Y-8054000D01*
X20860000Y-7984000D02*
X20790000Y-8054000D01*
X20790000Y-8184000D02*
X20860000Y-8254000D01*
X20860000Y-8184000D02*
X20790000Y-8254000D01*
X20790000Y-8384000D02*
X20860000Y-8454000D01*
X20860000Y-8384000D02*
X20790000Y-8454000D01*
X20790000Y-8584000D02*
X20860000Y-8654000D01*
X20860000Y-8584000D02*
X20790000Y-8654000D01*
X20790000Y-8784000D02*
X20860000Y-8854000D01*
X20860000Y-8784000D02*
X20790000Y-8854000D01*
X20790000Y-8984000D02*
X20860000Y-9054000D01*
X20860000Y-8984000D02*
X20790000Y-9054000D01*
X20790000Y-9184000D02*
X20860000Y-9254000D01*
X20860000Y-9184000D02*
X20790000Y-9254000D01*
X20790000Y-9384000D02*
X20860000Y-9454000D01*
X20860000Y-9384000D02*
X20790000Y-9454000D01*
X20790000Y-9584000D02*
X20860000Y-9654000D01*
X20860000Y-9584000D02*
X20790000Y-9654000D01*
X20790000Y-9784000D02*
X20860000Y-9854000D01*
X20860000Y-9784000D02*
X20790000Y-9854000D01*
X20790000Y-9984000D02*
X20860000Y-10054000D01*
X20860000Y-9984000D02*
X20790000Y-10054000D01*
X20790000Y-10184000D02*
X20860000Y-10254000D01*
X20860000Y-10184000D02*
X20790000Y-10254000D01*
X22140000Y-5384000D02*
X22210000Y-5454000D01*
X22210000Y-5384000D02*
X22140000Y-5454000D01*
X22140000Y-5584000D02*
X22210000Y-5654000D01*
X22210000Y-5584000D02*
X22140000Y-5654000D01*
X22140000Y-5784000D02*
X22210000Y-5854000D01*
X22210000Y-5784000D02*
X22140000Y-5854000D01*
X22140000Y-5984000D02*
X22210000Y-6054000D01*
X22210000Y-5984000D02*
X22140000Y-6054000D01*
X22140000Y-6184000D02*
X22210000Y-6254000D01*
X22210000Y-6184000D02*
X22140000Y-6254000D01*
X22140000Y-6584000D02*
X22210000Y-6654000D01*
X22210000Y-6584000D02*
X22140000Y-6654000D01*
X22140000Y-6784000D02*
X22210000Y-6854000D01*
X22210000Y-6784000D02*
X22140000Y-6854000D01*
X22140000Y-6984000D02*
X22210000Y-7054000D01*
X22210000Y-6984000D02*
X22140000Y-7054000D01*
X22140000Y-7184000D02*
X22210000Y-7254000D01*
X22210000Y-7184000D02*
X22140000Y-7254000D01*
X22140000Y-7384000D02*
X22210000Y-7454000D01*
X22210000Y-7384000D02*
X22140000Y-7454000D01*
X22140000Y-7584000D02*
X22210000Y-7654000D01*
X22210000Y-7584000D02*
X22140000Y-7654000D01*
X22140000Y-7784000D02*
X22210000Y-7854000D01*
X22210000Y-7784000D02*
X22140000Y-7854000D01*
X22140000Y-7984000D02*
X22210000Y-8054000D01*
X22210000Y-7984000D02*
X22140000Y-8054000D01*
X22140000Y-8184000D02*
X22210000Y-8254000D01*
X22210000Y-8184000D02*
X22140000Y-8254000D01*
X22140000Y-8384000D02*
X22210000Y-8454000D01*
X22210000Y-8384000D02*
X22140000Y-8454000D01*
X22140000Y-8584000D02*
X22210000Y-8654000D01*
X22210000Y-8584000D02*
X22140000Y-8654000D01*
X22140000Y-8784000D02*
X22210000Y-8854000D01*
X22210000Y-8784000D02*
X22140000Y-8854000D01*
X22140000Y-8984000D02*
X22210000Y-9054000D01*
X22210000Y-8984000D02*
X22140000Y-9054000D01*
X22140000Y-9184000D02*
X22210000Y-9254000D01*
X22210000Y-9184000D02*
X22140000Y-9254000D01*
X22140000Y-9384000D02*
X22210000Y-9454000D01*
X22210000Y-9384000D02*
X22140000Y-9454000D01*
X22140000Y-9584000D02*
X22210000Y-9654000D01*
X22210000Y-9584000D02*
X22140000Y-9654000D01*
X22140000Y-9784000D02*
X22210000Y-9854000D01*
X22210000Y-9784000D02*
X22140000Y-9854000D01*
X22140000Y-9984000D02*
X22210000Y-10054000D01*
X22210000Y-9984000D02*
X22140000Y-10054000D01*
X22140000Y-10184000D02*
X22210000Y-10254000D01*
X22210000Y-10184000D02*
X22140000Y-10254000D01*
X22340000Y-5284000D02*
X22410000Y-5354000D01*
X22410000Y-5284000D02*
X22340000Y-5354000D01*
X22340000Y-5484000D02*
X22410000Y-5554000D01*
X22410000Y-5484000D02*
X22340000Y-5554000D01*
X22340000Y-5684000D02*
X22410000Y-5754000D01*
X22410000Y-5684000D02*
X22340000Y-5754000D01*
X22340000Y-5884000D02*
X22410000Y-5954000D01*
X22410000Y-5884000D02*
X22340000Y-5954000D01*
X22340000Y-6084000D02*
X22410000Y-6154000D01*
X22410000Y-6084000D02*
X22340000Y-6154000D01*
X22340000Y-6284000D02*
X22410000Y-6354000D01*
X22410000Y-6284000D02*
X22340000Y-6354000D01*
X22340000Y-6684000D02*
X22410000Y-6754000D01*
X22410000Y-6684000D02*
X22340000Y-6754000D01*
X22340000Y-6884000D02*
X22410000Y-6954000D01*
X22410000Y-6884000D02*
X22340000Y-6954000D01*
X22340000Y-7084000D02*
X22410000Y-7154000D01*
X22410000Y-7084000D02*
X22340000Y-7154000D01*
X22340000Y-7284000D02*
X22410000Y-7354000D01*
X22410000Y-7284000D02*
X22340000Y-7354000D01*
X22340000Y-7484000D02*
X22410000Y-7554000D01*
X22410000Y-7484000D02*
X22340000Y-7554000D01*
X22340000Y-7684000D02*
X22410000Y-7754000D01*
X22410000Y-7684000D02*
X22340000Y-7754000D01*
X22340000Y-7884000D02*
X22410000Y-7954000D01*
X22410000Y-7884000D02*
X22340000Y-7954000D01*
X22340000Y-8084000D02*
X22410000Y-8154000D01*
X22410000Y-8084000D02*
X22340000Y-8154000D01*
X22340000Y-8284000D02*
X22410000Y-8354000D01*
X22410000Y-8284000D02*
X22340000Y-8354000D01*
X22340000Y-8484000D02*
X22410000Y-8554000D01*
X22410000Y-8484000D02*
X22340000Y-8554000D01*
X22340000Y-8684000D02*
X22410000Y-8754000D01*
X22410000Y-8684000D02*
X22340000Y-8754000D01*
X22340000Y-8884000D02*
X22410000Y-8954000D01*
X22410000Y-8884000D02*
X22340000Y-8954000D01*
X22340000Y-9084000D02*
X22410000Y-9154000D01*
X22410000Y-9084000D02*
X22340000Y-9154000D01*
X22340000Y-9284000D02*
X22410000Y-9354000D01*
X22410000Y-9284000D02*
X22340000Y-9354000D01*
X22340000Y-9484000D02*
X22410000Y-9554000D01*
X22410000Y-9484000D02*
X22340000Y-9554000D01*
X22340000Y-9684000D02*
X22410000Y-9754000D01*
X22410000Y-9684000D02*
X22340000Y-9754000D01*
X22340000Y-9884000D02*
X22410000Y-9954000D01*
X22410000Y-9884000D02*
X22340000Y-9954000D01*
X22340000Y-10084000D02*
X22410000Y-10154000D01*
X22410000Y-10084000D02*
X22340000Y-10154000D01*
X22340000Y-10284000D02*
X22410000Y-10354000D01*
X22410000Y-10284000D02*
X22340000Y-10354000D01*
X22590000Y-5284000D02*
X22660000Y-5354000D01*
X22660000Y-5284000D02*
X22590000Y-5354000D01*
X22590000Y-5484000D02*
X22660000Y-5554000D01*
X22660000Y-5484000D02*
X22590000Y-5554000D01*
X22590000Y-5684000D02*
X22660000Y-5754000D01*
X22660000Y-5684000D02*
X22590000Y-5754000D01*
X22590000Y-5884000D02*
X22660000Y-5954000D01*
X22660000Y-5884000D02*
X22590000Y-5954000D01*
X22590000Y-6084000D02*
X22660000Y-6154000D01*
X22660000Y-6084000D02*
X22590000Y-6154000D01*
X22590000Y-6284000D02*
X22660000Y-6354000D01*
X22660000Y-6284000D02*
X22590000Y-6354000D01*
X22590000Y-6684000D02*
X22660000Y-6754000D01*
X22660000Y-6684000D02*
X22590000Y-6754000D01*
X22590000Y-6884000D02*
X22660000Y-6954000D01*
X22660000Y-6884000D02*
X22590000Y-6954000D01*
X22590000Y-7084000D02*
X22660000Y-7154000D01*
X22660000Y-7084000D02*
X22590000Y-7154000D01*
X22590000Y-7284000D02*
X22660000Y-7354000D01*
X22660000Y-7284000D02*
X22590000Y-7354000D01*
X22590000Y-7484000D02*
X22660000Y-7554000D01*
X22660000Y-7484000D02*
X22590000Y-7554000D01*
X22590000Y-7684000D02*
X22660000Y-7754000D01*
X22660000Y-7684000D02*
X22590000Y-7754000D01*
X22590000Y-7884000D02*
X22660000Y-7954000D01*
X22660000Y-7884000D02*
X22590000Y-7954000D01*
X22590000Y-8084000D02*
X22660000Y-8154000D01*
X22660000Y-8084000D02*
X22590000Y-8154000D01*
X22590000Y-8284000D02*
X22660000Y-8354000D01*
X22660000Y-8284000D02*
X22590000Y-8354000D01*
X22590000Y-8484000D02*
X22660000Y-8554000D01*
X22660000Y-8484000D02*
X22590000Y-8554000D01*
X22590000Y-8684000D02*
X22660000Y-8754000D01*
X22660000Y-8684000D02*
X22590000Y-8754000D01*
X22590000Y-8884000D02*
X22660000Y-8954000D01*
X22660000Y-8884000D02*
X22590000Y-8954000D01*
X22590000Y-9084000D02*
X22660000Y-9154000D01*
X22660000Y-9084000D02*
X22590000Y-9154000D01*
X22590000Y-9284000D02*
X22660000Y-9354000D01*
X22660000Y-9284000D02*
X22590000Y-9354000D01*
X22590000Y-9484000D02*
X22660000Y-9554000D01*
X22660000Y-9484000D02*
X22590000Y-9554000D01*
X22590000Y-9684000D02*
X22660000Y-9754000D01*
X22660000Y-9684000D02*
X22590000Y-9754000D01*
X22590000Y-9884000D02*
X22660000Y-9954000D01*
X22660000Y-9884000D02*
X22590000Y-9954000D01*
X22590000Y-10084000D02*
X22660000Y-10154000D01*
X22660000Y-10084000D02*
X22590000Y-10154000D01*
X22590000Y-10284000D02*
X22660000Y-10354000D01*
X22660000Y-10284000D02*
X22590000Y-10354000D01*
X22790000Y-5384000D02*
X22860000Y-5454000D01*
X22860000Y-5384000D02*
X22790000Y-5454000D01*
X22790000Y-5584000D02*
X22860000Y-5654000D01*
X22860000Y-5584000D02*
X22790000Y-5654000D01*
X22790000Y-5784000D02*
X22860000Y-5854000D01*
X22860000Y-5784000D02*
X22790000Y-5854000D01*
X22790000Y-5984000D02*
X22860000Y-6054000D01*
X22860000Y-5984000D02*
X22790000Y-6054000D01*
X22790000Y-6184000D02*
X22860000Y-6254000D01*
X22860000Y-6184000D02*
X22790000Y-6254000D01*
X22790000Y-6584000D02*
X22860000Y-6654000D01*
X22860000Y-6584000D02*
X22790000Y-6654000D01*
X22790000Y-6784000D02*
X22860000Y-6854000D01*
X22860000Y-6784000D02*
X22790000Y-6854000D01*
X22790000Y-6984000D02*
X22860000Y-7054000D01*
X22860000Y-6984000D02*
X22790000Y-7054000D01*
X22790000Y-7184000D02*
X22860000Y-7254000D01*
X22860000Y-7184000D02*
X22790000Y-7254000D01*
X22790000Y-7384000D02*
X22860000Y-7454000D01*
X22860000Y-7384000D02*
X22790000Y-7454000D01*
X22790000Y-7584000D02*
X22860000Y-7654000D01*
X22860000Y-7584000D02*
X22790000Y-7654000D01*
X22790000Y-7784000D02*
X22860000Y-7854000D01*
X22860000Y-7784000D02*
X22790000Y-7854000D01*
X22790000Y-7984000D02*
X22860000Y-8054000D01*
X22860000Y-7984000D02*
X22790000Y-8054000D01*
X22790000Y-8184000D02*
X22860000Y-8254000D01*
X22860000Y-8184000D02*
X22790000Y-8254000D01*
X22790000Y-8384000D02*
X22860000Y-8454000D01*
X22860000Y-8384000D02*
X22790000Y-8454000D01*
X22790000Y-8584000D02*
X22860000Y-8654000D01*
X22860000Y-8584000D02*
X22790000Y-8654000D01*
X22790000Y-8784000D02*
X22860000Y-8854000D01*
X22860000Y-8784000D02*
X22790000Y-8854000D01*
X22790000Y-8984000D02*
X22860000Y-9054000D01*
X22860000Y-8984000D02*
X22790000Y-9054000D01*
X22790000Y-9184000D02*
X22860000Y-9254000D01*
X22860000Y-9184000D02*
X22790000Y-9254000D01*
X22790000Y-9384000D02*
X22860000Y-9454000D01*
X22860000Y-9384000D02*
X22790000Y-9454000D01*
X22790000Y-9584000D02*
X22860000Y-9654000D01*
X22860000Y-9584000D02*
X22790000Y-9654000D01*
X22790000Y-9784000D02*
X22860000Y-9854000D01*
X22860000Y-9784000D02*
X22790000Y-9854000D01*
X22790000Y-9984000D02*
X22860000Y-10054000D01*
X22860000Y-9984000D02*
X22790000Y-10054000D01*
X22790000Y-10184000D02*
X22860000Y-10254000D01*
X22860000Y-10184000D02*
X22790000Y-10254000D01*
D12*
X3536428Y-12215714D02*
X3536428Y-11915714D01*
X3607857Y-11915714D01*
X3650714Y-11930000D01*
X3679286Y-11958571D01*
X3693571Y-11987143D01*
X3707857Y-12044286D01*
X3707857Y-12087143D01*
X3693571Y-12144286D01*
X3679286Y-12172857D01*
X3650714Y-12201428D01*
X3607857Y-12215714D01*
X3536428Y-12215714D01*
X3836428Y-12215714D02*
X3836428Y-12015714D01*
X3836428Y-12072857D02*
X3850714Y-12044286D01*
X3865000Y-12030000D01*
X3893571Y-12015714D01*
X3922143Y-12015714D01*
X4022143Y-12215714D02*
X4022143Y-12015714D01*
X4022143Y-11915714D02*
X4007857Y-11930000D01*
X4022143Y-11944286D01*
X4036428Y-11930000D01*
X4022143Y-11915714D01*
X4022143Y-11944286D01*
X4207857Y-12215714D02*
X4179286Y-12201428D01*
X4165000Y-12172857D01*
X4165000Y-11915714D01*
X4365000Y-12215714D02*
X4336429Y-12201428D01*
X4322143Y-12172857D01*
X4322143Y-11915714D01*
X4707857Y-12215714D02*
X4707857Y-11915714D01*
X4807857Y-12130000D01*
X4907857Y-11915714D01*
X4907857Y-12215714D01*
X5179286Y-12215714D02*
X5179286Y-12058571D01*
X5165000Y-12030000D01*
X5136429Y-12015714D01*
X5079286Y-12015714D01*
X5050714Y-12030000D01*
X5179286Y-12201428D02*
X5150714Y-12215714D01*
X5079286Y-12215714D01*
X5050714Y-12201428D01*
X5036429Y-12172857D01*
X5036429Y-12144286D01*
X5050714Y-12115714D01*
X5079286Y-12101428D01*
X5150714Y-12101428D01*
X5179286Y-12087143D01*
X5322143Y-12015714D02*
X5322143Y-12315714D01*
X5322143Y-12030000D02*
X5350714Y-12015714D01*
X5407857Y-12015714D01*
X5436429Y-12030000D01*
X5450714Y-12044286D01*
X5465000Y-12072857D01*
X5465000Y-12158571D01*
X5450714Y-12187143D01*
X5436429Y-12201428D01*
X5407857Y-12215714D01*
X5350714Y-12215714D01*
X5322143Y-12201428D01*
X5593571Y-12187143D02*
X5607857Y-12201428D01*
X5593571Y-12215714D01*
X5579286Y-12201428D01*
X5593571Y-12187143D01*
X5593571Y-12215714D01*
X5593571Y-12030000D02*
X5607857Y-12044286D01*
X5593571Y-12058571D01*
X5579286Y-12044286D01*
X5593571Y-12030000D01*
X5593571Y-12058571D01*
X3180000Y-12675000D02*
X3250000Y-12745000D01*
X3250000Y-12675000D02*
X3180000Y-12745000D01*
X3593571Y-12545714D02*
X3622143Y-12545714D01*
X3650714Y-12560000D01*
X3665000Y-12574286D01*
X3679286Y-12602857D01*
X3693571Y-12660000D01*
X3693571Y-12731428D01*
X3679286Y-12788571D01*
X3665000Y-12817143D01*
X3650714Y-12831428D01*
X3622143Y-12845714D01*
X3593571Y-12845714D01*
X3565000Y-12831428D01*
X3550714Y-12817143D01*
X3536428Y-12788571D01*
X3522143Y-12731428D01*
X3522143Y-12660000D01*
X3536428Y-12602857D01*
X3550714Y-12574286D01*
X3565000Y-12560000D01*
X3593571Y-12545714D01*
X3822143Y-12817143D02*
X3836428Y-12831428D01*
X3822143Y-12845714D01*
X3807857Y-12831428D01*
X3822143Y-12817143D01*
X3822143Y-12845714D01*
X3936428Y-12545714D02*
X4136428Y-12545714D01*
X4007857Y-12845714D01*
X4307857Y-12545714D02*
X4336429Y-12545714D01*
X4365000Y-12560000D01*
X4379286Y-12574286D01*
X4393571Y-12602857D01*
X4407857Y-12660000D01*
X4407857Y-12731428D01*
X4393571Y-12788571D01*
X4379286Y-12817143D01*
X4365000Y-12831428D01*
X4336429Y-12845714D01*
X4307857Y-12845714D01*
X4279286Y-12831428D01*
X4265000Y-12817143D01*
X4250714Y-12788571D01*
X4236429Y-12731428D01*
X4236429Y-12660000D01*
X4250714Y-12602857D01*
X4265000Y-12574286D01*
X4279286Y-12560000D01*
X4307857Y-12545714D01*
X4536429Y-12845714D02*
X4536429Y-12645714D01*
X4536429Y-12674286D02*
X4550714Y-12660000D01*
X4579286Y-12645714D01*
X4622143Y-12645714D01*
X4650714Y-12660000D01*
X4665000Y-12688571D01*
X4665000Y-12845714D01*
X4665000Y-12688571D02*
X4679286Y-12660000D01*
X4707857Y-12645714D01*
X4750714Y-12645714D01*
X4779286Y-12660000D01*
X4793571Y-12688571D01*
X4793571Y-12845714D01*
X4936429Y-12845714D02*
X4936429Y-12645714D01*
X4936429Y-12674286D02*
X4950714Y-12660000D01*
X4979286Y-12645714D01*
X5022143Y-12645714D01*
X5050714Y-12660000D01*
X5065000Y-12688571D01*
X5065000Y-12845714D01*
X5065000Y-12688571D02*
X5079286Y-12660000D01*
X5107857Y-12645714D01*
X5150714Y-12645714D01*
X5179286Y-12660000D01*
X5193571Y-12688571D01*
X5193571Y-12845714D01*
X5779286Y-12531428D02*
X5522143Y-12917143D01*
X6165000Y-12545714D02*
X6193571Y-12545714D01*
X6222143Y-12560000D01*
X6236428Y-12574286D01*
X6250714Y-12602857D01*
X6265000Y-12660000D01*
X6265000Y-12731428D01*
X6250714Y-12788571D01*
X6236428Y-12817143D01*
X6222143Y-12831428D01*
X6193571Y-12845714D01*
X6165000Y-12845714D01*
X6136428Y-12831428D01*
X6122143Y-12817143D01*
X6107857Y-12788571D01*
X6093571Y-12731428D01*
X6093571Y-12660000D01*
X6107857Y-12602857D01*
X6122143Y-12574286D01*
X6136428Y-12560000D01*
X6165000Y-12545714D01*
X6393571Y-12817143D02*
X6407857Y-12831428D01*
X6393571Y-12845714D01*
X6379286Y-12831428D01*
X6393571Y-12817143D01*
X6393571Y-12845714D01*
X6593571Y-12545714D02*
X6622143Y-12545714D01*
X6650714Y-12560000D01*
X6665000Y-12574286D01*
X6679286Y-12602857D01*
X6693571Y-12660000D01*
X6693571Y-12731428D01*
X6679286Y-12788571D01*
X6665000Y-12817143D01*
X6650714Y-12831428D01*
X6622143Y-12845714D01*
X6593571Y-12845714D01*
X6565000Y-12831428D01*
X6550714Y-12817143D01*
X6536428Y-12788571D01*
X6522143Y-12731428D01*
X6522143Y-12660000D01*
X6536428Y-12602857D01*
X6550714Y-12574286D01*
X6565000Y-12560000D01*
X6593571Y-12545714D01*
X6807857Y-12574286D02*
X6822143Y-12560000D01*
X6850714Y-12545714D01*
X6922143Y-12545714D01*
X6950714Y-12560000D01*
X6965000Y-12574286D01*
X6979286Y-12602857D01*
X6979286Y-12631428D01*
X6965000Y-12674286D01*
X6793571Y-12845714D01*
X6979286Y-12845714D01*
X7150714Y-12674286D02*
X7122143Y-12660000D01*
X7107857Y-12645714D01*
X7093571Y-12617143D01*
X7093571Y-12602857D01*
X7107857Y-12574286D01*
X7122143Y-12560000D01*
X7150714Y-12545714D01*
X7207857Y-12545714D01*
X7236428Y-12560000D01*
X7250714Y-12574286D01*
X7265000Y-12602857D01*
X7265000Y-12617143D01*
X7250714Y-12645714D01*
X7236428Y-12660000D01*
X7207857Y-12674286D01*
X7150714Y-12674286D01*
X7122143Y-12688571D01*
X7107857Y-12702857D01*
X7093571Y-12731428D01*
X7093571Y-12788571D01*
X7107857Y-12817143D01*
X7122143Y-12831428D01*
X7150714Y-12845714D01*
X7207857Y-12845714D01*
X7236428Y-12831428D01*
X7250714Y-12817143D01*
X7265000Y-12788571D01*
X7265000Y-12731428D01*
X7250714Y-12702857D01*
X7236428Y-12688571D01*
X7207857Y-12674286D01*
X7379286Y-12545714D02*
X7379286Y-12602857D01*
X7493571Y-12545714D02*
X7493571Y-12602857D01*
X7936428Y-12960000D02*
X7922143Y-12945714D01*
X7893571Y-12902857D01*
X7879286Y-12874286D01*
X7865000Y-12831428D01*
X7850714Y-12760000D01*
X7850714Y-12702857D01*
X7865000Y-12631428D01*
X7879286Y-12588571D01*
X7893571Y-12560000D01*
X7922143Y-12517143D01*
X7936428Y-12502857D01*
X8065000Y-12845714D02*
X8122143Y-12845714D01*
X8150714Y-12831428D01*
X8165000Y-12817143D01*
X8193571Y-12774286D01*
X8207857Y-12717143D01*
X8207857Y-12602857D01*
X8193571Y-12574286D01*
X8179286Y-12560000D01*
X8150714Y-12545714D01*
X8093571Y-12545714D01*
X8065000Y-12560000D01*
X8050714Y-12574286D01*
X8036428Y-12602857D01*
X8036428Y-12674286D01*
X8050714Y-12702857D01*
X8065000Y-12717143D01*
X8093571Y-12731428D01*
X8150714Y-12731428D01*
X8179286Y-12717143D01*
X8193571Y-12702857D01*
X8207857Y-12674286D01*
X8379286Y-12674286D02*
X8350714Y-12660000D01*
X8336428Y-12645714D01*
X8322143Y-12617143D01*
X8322143Y-12602857D01*
X8336428Y-12574286D01*
X8350714Y-12560000D01*
X8379286Y-12545714D01*
X8436429Y-12545714D01*
X8465000Y-12560000D01*
X8479286Y-12574286D01*
X8493571Y-12602857D01*
X8493571Y-12617143D01*
X8479286Y-12645714D01*
X8465000Y-12660000D01*
X8436429Y-12674286D01*
X8379286Y-12674286D01*
X8350714Y-12688571D01*
X8336428Y-12702857D01*
X8322143Y-12731428D01*
X8322143Y-12788571D01*
X8336428Y-12817143D01*
X8350714Y-12831428D01*
X8379286Y-12845714D01*
X8436429Y-12845714D01*
X8465000Y-12831428D01*
X8479286Y-12817143D01*
X8493571Y-12788571D01*
X8493571Y-12731428D01*
X8479286Y-12702857D01*
X8465000Y-12688571D01*
X8436429Y-12674286D01*
X8679286Y-12545714D02*
X8707857Y-12545714D01*
X8736429Y-12560000D01*
X8750714Y-12574286D01*
X8765000Y-12602857D01*
X8779286Y-12660000D01*
X8779286Y-12731428D01*
X8765000Y-12788571D01*
X8750714Y-12817143D01*
X8736429Y-12831428D01*
X8707857Y-12845714D01*
X8679286Y-12845714D01*
X8650714Y-12831428D01*
X8636429Y-12817143D01*
X8622143Y-12788571D01*
X8607857Y-12731428D01*
X8607857Y-12660000D01*
X8622143Y-12602857D01*
X8636429Y-12574286D01*
X8650714Y-12560000D01*
X8679286Y-12545714D01*
X9136429Y-12845714D02*
X9136429Y-12545714D01*
X9265000Y-12845714D02*
X9265000Y-12688571D01*
X9250714Y-12660000D01*
X9222143Y-12645714D01*
X9179286Y-12645714D01*
X9150714Y-12660000D01*
X9136429Y-12674286D01*
X9450714Y-12845714D02*
X9422143Y-12831428D01*
X9407857Y-12817143D01*
X9393571Y-12788571D01*
X9393571Y-12702857D01*
X9407857Y-12674286D01*
X9422143Y-12660000D01*
X9450714Y-12645714D01*
X9493571Y-12645714D01*
X9522143Y-12660000D01*
X9536429Y-12674286D01*
X9550714Y-12702857D01*
X9550714Y-12788571D01*
X9536429Y-12817143D01*
X9522143Y-12831428D01*
X9493571Y-12845714D01*
X9450714Y-12845714D01*
X9722143Y-12845714D02*
X9693571Y-12831428D01*
X9679286Y-12802857D01*
X9679286Y-12545714D01*
X9950714Y-12831428D02*
X9922143Y-12845714D01*
X9865000Y-12845714D01*
X9836429Y-12831428D01*
X9822143Y-12802857D01*
X9822143Y-12688571D01*
X9836429Y-12660000D01*
X9865000Y-12645714D01*
X9922143Y-12645714D01*
X9950714Y-12660000D01*
X9965000Y-12688571D01*
X9965000Y-12717143D01*
X9822143Y-12745714D01*
X10079286Y-12831428D02*
X10107857Y-12845714D01*
X10165000Y-12845714D01*
X10193571Y-12831428D01*
X10207857Y-12802857D01*
X10207857Y-12788571D01*
X10193571Y-12760000D01*
X10165000Y-12745714D01*
X10122143Y-12745714D01*
X10093571Y-12731428D01*
X10079286Y-12702857D01*
X10079286Y-12688571D01*
X10093571Y-12660000D01*
X10122143Y-12645714D01*
X10165000Y-12645714D01*
X10193571Y-12660000D01*
X10307857Y-12960000D02*
X10322143Y-12945714D01*
X10350714Y-12902857D01*
X10365000Y-12874286D01*
X10379286Y-12831428D01*
X10393571Y-12760000D01*
X10393571Y-12702857D01*
X10379286Y-12631428D01*
X10365000Y-12588571D01*
X10350714Y-12560000D01*
X10322143Y-12517143D01*
X10307857Y-12502857D01*
M02*
