%TF.GenerationSoftware,KiCad,Pcbnew,(5.1.9-16-g1737927814)-1*%
%TF.CreationDate,2021-07-08T12:57:19+02:00*%
%TF.ProjectId,Bussystem 10x non stack,42757373-7973-4746-956d-20313078206e,1*%
%TF.SameCoordinates,Original*%
%TF.FileFunction,Legend,Top*%
%TF.FilePolarity,Positive*%
%FSLAX46Y46*%
G04 Gerber Fmt 4.6, Leading zero omitted, Abs format (unit mm)*
G04 Created by KiCad (PCBNEW (5.1.9-16-g1737927814)-1) date 2021-07-08 12:57:19*
%MOMM*%
%LPD*%
G01*
G04 APERTURE LIST*
%ADD10C,0.100000*%
%ADD11C,0.150000*%
%ADD12C,0.300000*%
%ADD13C,0.400000*%
%ADD14C,0.200000*%
%ADD15C,0.015000*%
G04 APERTURE END LIST*
D10*
D11*
X177002200Y-166007200D02*
X177002200Y-198007200D01*
X285002200Y-198007200D01*
X285002200Y-166007200D01*
X177002200Y-166007200D01*
D10*
D11*
X10000000Y-10000000D02*
X10000000Y-200007200D01*
X287002200Y-200007200D01*
X287002200Y-10000000D01*
X10000000Y-10000000D01*
D10*
D11*
X12000000Y-12000000D02*
X12000000Y-198007200D01*
X285002200Y-198007200D01*
X285002200Y-12000000D01*
X12000000Y-12000000D01*
D10*
D11*
X60000000Y-12000000D02*
X60000000Y-10000000D01*
D10*
D11*
X110000000Y-12000000D02*
X110000000Y-10000000D01*
D10*
D11*
X160000000Y-12000000D02*
X160000000Y-10000000D01*
D10*
D11*
X210000000Y-12000000D02*
X210000000Y-10000000D01*
D10*
D11*
X260000000Y-12000000D02*
X260000000Y-10000000D01*
D10*
D11*
X36065476Y-11588095D02*
X35322619Y-11588095D01*
X35694047Y-11588095D02*
X35694047Y-10288095D01*
X35570238Y-10473809D01*
X35446428Y-10597619D01*
X35322619Y-10659523D01*
D10*
D11*
X85322619Y-10411904D02*
X85384523Y-10350000D01*
X85508333Y-10288095D01*
X85817857Y-10288095D01*
X85941666Y-10350000D01*
X86003571Y-10411904D01*
X86065476Y-10535714D01*
X86065476Y-10659523D01*
X86003571Y-10845238D01*
X85260714Y-11588095D01*
X86065476Y-11588095D01*
D10*
D11*
X135260714Y-10288095D02*
X136065476Y-10288095D01*
X135632142Y-10783333D01*
X135817857Y-10783333D01*
X135941666Y-10845238D01*
X136003571Y-10907142D01*
X136065476Y-11030952D01*
X136065476Y-11340476D01*
X136003571Y-11464285D01*
X135941666Y-11526190D01*
X135817857Y-11588095D01*
X135446428Y-11588095D01*
X135322619Y-11526190D01*
X135260714Y-11464285D01*
D10*
D11*
X185941666Y-10721428D02*
X185941666Y-11588095D01*
X185632142Y-10226190D02*
X185322619Y-11154761D01*
X186127380Y-11154761D01*
D10*
D11*
X236003571Y-10288095D02*
X235384523Y-10288095D01*
X235322619Y-10907142D01*
X235384523Y-10845238D01*
X235508333Y-10783333D01*
X235817857Y-10783333D01*
X235941666Y-10845238D01*
X236003571Y-10907142D01*
X236065476Y-11030952D01*
X236065476Y-11340476D01*
X236003571Y-11464285D01*
X235941666Y-11526190D01*
X235817857Y-11588095D01*
X235508333Y-11588095D01*
X235384523Y-11526190D01*
X235322619Y-11464285D01*
D10*
D11*
X285941666Y-10288095D02*
X285694047Y-10288095D01*
X285570238Y-10350000D01*
X285508333Y-10411904D01*
X285384523Y-10597619D01*
X285322619Y-10845238D01*
X285322619Y-11340476D01*
X285384523Y-11464285D01*
X285446428Y-11526190D01*
X285570238Y-11588095D01*
X285817857Y-11588095D01*
X285941666Y-11526190D01*
X286003571Y-11464285D01*
X286065476Y-11340476D01*
X286065476Y-11030952D01*
X286003571Y-10907142D01*
X285941666Y-10845238D01*
X285817857Y-10783333D01*
X285570238Y-10783333D01*
X285446428Y-10845238D01*
X285384523Y-10907142D01*
X285322619Y-11030952D01*
D10*
D11*
X60000000Y-198007200D02*
X60000000Y-200007200D01*
D10*
D11*
X110000000Y-198007200D02*
X110000000Y-200007200D01*
D10*
D11*
X160000000Y-198007200D02*
X160000000Y-200007200D01*
D10*
D11*
X210000000Y-198007200D02*
X210000000Y-200007200D01*
D10*
D11*
X260000000Y-198007200D02*
X260000000Y-200007200D01*
D10*
D11*
X36065476Y-199595295D02*
X35322619Y-199595295D01*
X35694047Y-199595295D02*
X35694047Y-198295295D01*
X35570238Y-198481009D01*
X35446428Y-198604819D01*
X35322619Y-198666723D01*
D10*
D11*
X85322619Y-198419104D02*
X85384523Y-198357200D01*
X85508333Y-198295295D01*
X85817857Y-198295295D01*
X85941666Y-198357200D01*
X86003571Y-198419104D01*
X86065476Y-198542914D01*
X86065476Y-198666723D01*
X86003571Y-198852438D01*
X85260714Y-199595295D01*
X86065476Y-199595295D01*
D10*
D11*
X135260714Y-198295295D02*
X136065476Y-198295295D01*
X135632142Y-198790533D01*
X135817857Y-198790533D01*
X135941666Y-198852438D01*
X136003571Y-198914342D01*
X136065476Y-199038152D01*
X136065476Y-199347676D01*
X136003571Y-199471485D01*
X135941666Y-199533390D01*
X135817857Y-199595295D01*
X135446428Y-199595295D01*
X135322619Y-199533390D01*
X135260714Y-199471485D01*
D10*
D11*
X185941666Y-198728628D02*
X185941666Y-199595295D01*
X185632142Y-198233390D02*
X185322619Y-199161961D01*
X186127380Y-199161961D01*
D10*
D11*
X236003571Y-198295295D02*
X235384523Y-198295295D01*
X235322619Y-198914342D01*
X235384523Y-198852438D01*
X235508333Y-198790533D01*
X235817857Y-198790533D01*
X235941666Y-198852438D01*
X236003571Y-198914342D01*
X236065476Y-199038152D01*
X236065476Y-199347676D01*
X236003571Y-199471485D01*
X235941666Y-199533390D01*
X235817857Y-199595295D01*
X235508333Y-199595295D01*
X235384523Y-199533390D01*
X235322619Y-199471485D01*
D10*
D11*
X285941666Y-198295295D02*
X285694047Y-198295295D01*
X285570238Y-198357200D01*
X285508333Y-198419104D01*
X285384523Y-198604819D01*
X285322619Y-198852438D01*
X285322619Y-199347676D01*
X285384523Y-199471485D01*
X285446428Y-199533390D01*
X285570238Y-199595295D01*
X285817857Y-199595295D01*
X285941666Y-199533390D01*
X286003571Y-199471485D01*
X286065476Y-199347676D01*
X286065476Y-199038152D01*
X286003571Y-198914342D01*
X285941666Y-198852438D01*
X285817857Y-198790533D01*
X285570238Y-198790533D01*
X285446428Y-198852438D01*
X285384523Y-198914342D01*
X285322619Y-199038152D01*
D10*
D11*
X10000000Y-60000000D02*
X12000000Y-60000000D01*
D10*
D11*
X10000000Y-110000000D02*
X12000000Y-110000000D01*
D10*
D11*
X10000000Y-160000000D02*
X12000000Y-160000000D01*
D10*
D11*
X10690476Y-35216666D02*
X11309523Y-35216666D01*
X10566666Y-35588095D02*
X11000000Y-34288095D01*
X11433333Y-35588095D01*
D10*
D11*
X11092857Y-84907142D02*
X11278571Y-84969047D01*
X11340476Y-85030952D01*
X11402380Y-85154761D01*
X11402380Y-85340476D01*
X11340476Y-85464285D01*
X11278571Y-85526190D01*
X11154761Y-85588095D01*
X10659523Y-85588095D01*
X10659523Y-84288095D01*
X11092857Y-84288095D01*
X11216666Y-84350000D01*
X11278571Y-84411904D01*
X11340476Y-84535714D01*
X11340476Y-84659523D01*
X11278571Y-84783333D01*
X11216666Y-84845238D01*
X11092857Y-84907142D01*
X10659523Y-84907142D01*
D10*
D11*
X11402380Y-135464285D02*
X11340476Y-135526190D01*
X11154761Y-135588095D01*
X11030952Y-135588095D01*
X10845238Y-135526190D01*
X10721428Y-135402380D01*
X10659523Y-135278571D01*
X10597619Y-135030952D01*
X10597619Y-134845238D01*
X10659523Y-134597619D01*
X10721428Y-134473809D01*
X10845238Y-134350000D01*
X11030952Y-134288095D01*
X11154761Y-134288095D01*
X11340476Y-134350000D01*
X11402380Y-134411904D01*
D10*
D11*
X10659523Y-185588095D02*
X10659523Y-184288095D01*
X10969047Y-184288095D01*
X11154761Y-184350000D01*
X11278571Y-184473809D01*
X11340476Y-184597619D01*
X11402380Y-184845238D01*
X11402380Y-185030952D01*
X11340476Y-185278571D01*
X11278571Y-185402380D01*
X11154761Y-185526190D01*
X10969047Y-185588095D01*
X10659523Y-185588095D01*
D10*
D11*
X287002200Y-60000000D02*
X285002200Y-60000000D01*
D10*
D11*
X287002200Y-110000000D02*
X285002200Y-110000000D01*
D10*
D11*
X287002200Y-160000000D02*
X285002200Y-160000000D01*
D10*
D11*
X285692676Y-35216666D02*
X286311723Y-35216666D01*
X285568866Y-35588095D02*
X286002200Y-34288095D01*
X286435533Y-35588095D01*
D10*
D11*
X286095057Y-84907142D02*
X286280771Y-84969047D01*
X286342676Y-85030952D01*
X286404580Y-85154761D01*
X286404580Y-85340476D01*
X286342676Y-85464285D01*
X286280771Y-85526190D01*
X286156961Y-85588095D01*
X285661723Y-85588095D01*
X285661723Y-84288095D01*
X286095057Y-84288095D01*
X286218866Y-84350000D01*
X286280771Y-84411904D01*
X286342676Y-84535714D01*
X286342676Y-84659523D01*
X286280771Y-84783333D01*
X286218866Y-84845238D01*
X286095057Y-84907142D01*
X285661723Y-84907142D01*
D10*
D11*
X286404580Y-135464285D02*
X286342676Y-135526190D01*
X286156961Y-135588095D01*
X286033152Y-135588095D01*
X285847438Y-135526190D01*
X285723628Y-135402380D01*
X285661723Y-135278571D01*
X285599819Y-135030952D01*
X285599819Y-134845238D01*
X285661723Y-134597619D01*
X285723628Y-134473809D01*
X285847438Y-134350000D01*
X286033152Y-134288095D01*
X286156961Y-134288095D01*
X286342676Y-134350000D01*
X286404580Y-134411904D01*
D10*
D11*
X285661723Y-185588095D02*
X285661723Y-184288095D01*
X285971247Y-184288095D01*
X286156961Y-184350000D01*
X286280771Y-184473809D01*
X286342676Y-184597619D01*
X286404580Y-184845238D01*
X286404580Y-185030952D01*
X286342676Y-185278571D01*
X286280771Y-185402380D01*
X286156961Y-185526190D01*
X285971247Y-185588095D01*
X285661723Y-185588095D01*
D10*
D11*
X200434342Y-193785771D02*
X200434342Y-192285771D01*
X200791485Y-192285771D01*
X201005771Y-192357200D01*
X201148628Y-192500057D01*
X201220057Y-192642914D01*
X201291485Y-192928628D01*
X201291485Y-193142914D01*
X201220057Y-193428628D01*
X201148628Y-193571485D01*
X201005771Y-193714342D01*
X200791485Y-193785771D01*
X200434342Y-193785771D01*
X202577200Y-193785771D02*
X202577200Y-193000057D01*
X202505771Y-192857200D01*
X202362914Y-192785771D01*
X202077200Y-192785771D01*
X201934342Y-192857200D01*
X202577200Y-193714342D02*
X202434342Y-193785771D01*
X202077200Y-193785771D01*
X201934342Y-193714342D01*
X201862914Y-193571485D01*
X201862914Y-193428628D01*
X201934342Y-193285771D01*
X202077200Y-193214342D01*
X202434342Y-193214342D01*
X202577200Y-193142914D01*
X203077200Y-192785771D02*
X203648628Y-192785771D01*
X203291485Y-192285771D02*
X203291485Y-193571485D01*
X203362914Y-193714342D01*
X203505771Y-193785771D01*
X203648628Y-193785771D01*
X204720057Y-193714342D02*
X204577200Y-193785771D01*
X204291485Y-193785771D01*
X204148628Y-193714342D01*
X204077200Y-193571485D01*
X204077200Y-193000057D01*
X204148628Y-192857200D01*
X204291485Y-192785771D01*
X204577200Y-192785771D01*
X204720057Y-192857200D01*
X204791485Y-193000057D01*
X204791485Y-193142914D01*
X204077200Y-193285771D01*
X205434342Y-193642914D02*
X205505771Y-193714342D01*
X205434342Y-193785771D01*
X205362914Y-193714342D01*
X205434342Y-193642914D01*
X205434342Y-193785771D01*
X205434342Y-192857200D02*
X205505771Y-192928628D01*
X205434342Y-193000057D01*
X205362914Y-192928628D01*
X205434342Y-192857200D01*
X205434342Y-193000057D01*
X207220057Y-192428628D02*
X207291485Y-192357200D01*
X207434342Y-192285771D01*
X207791485Y-192285771D01*
X207934342Y-192357200D01*
X208005771Y-192428628D01*
X208077200Y-192571485D01*
X208077200Y-192714342D01*
X208005771Y-192928628D01*
X207148628Y-193785771D01*
X208077200Y-193785771D01*
X209005771Y-192285771D02*
X209148628Y-192285771D01*
X209291485Y-192357200D01*
X209362914Y-192428628D01*
X209434342Y-192571485D01*
X209505771Y-192857200D01*
X209505771Y-193214342D01*
X209434342Y-193500057D01*
X209362914Y-193642914D01*
X209291485Y-193714342D01*
X209148628Y-193785771D01*
X209005771Y-193785771D01*
X208862914Y-193714342D01*
X208791485Y-193642914D01*
X208720057Y-193500057D01*
X208648628Y-193214342D01*
X208648628Y-192857200D01*
X208720057Y-192571485D01*
X208791485Y-192428628D01*
X208862914Y-192357200D01*
X209005771Y-192285771D01*
X210077200Y-192428628D02*
X210148628Y-192357200D01*
X210291485Y-192285771D01*
X210648628Y-192285771D01*
X210791485Y-192357200D01*
X210862914Y-192428628D01*
X210934342Y-192571485D01*
X210934342Y-192714342D01*
X210862914Y-192928628D01*
X210005771Y-193785771D01*
X210934342Y-193785771D01*
X212362914Y-193785771D02*
X211505771Y-193785771D01*
X211934342Y-193785771D02*
X211934342Y-192285771D01*
X211791485Y-192500057D01*
X211648628Y-192642914D01*
X211505771Y-192714342D01*
X213005771Y-193214342D02*
X214148628Y-193214342D01*
X215148628Y-192285771D02*
X215291485Y-192285771D01*
X215434342Y-192357200D01*
X215505771Y-192428628D01*
X215577200Y-192571485D01*
X215648628Y-192857200D01*
X215648628Y-193214342D01*
X215577200Y-193500057D01*
X215505771Y-193642914D01*
X215434342Y-193714342D01*
X215291485Y-193785771D01*
X215148628Y-193785771D01*
X215005771Y-193714342D01*
X214934342Y-193642914D01*
X214862914Y-193500057D01*
X214791485Y-193214342D01*
X214791485Y-192857200D01*
X214862914Y-192571485D01*
X214934342Y-192428628D01*
X215005771Y-192357200D01*
X215148628Y-192285771D01*
X216148628Y-192285771D02*
X217148628Y-192285771D01*
X216505771Y-193785771D01*
X217720057Y-193214342D02*
X218862914Y-193214342D01*
X219862914Y-192285771D02*
X220005771Y-192285771D01*
X220148628Y-192357200D01*
X220220057Y-192428628D01*
X220291485Y-192571485D01*
X220362914Y-192857200D01*
X220362914Y-193214342D01*
X220291485Y-193500057D01*
X220220057Y-193642914D01*
X220148628Y-193714342D01*
X220005771Y-193785771D01*
X219862914Y-193785771D01*
X219720057Y-193714342D01*
X219648628Y-193642914D01*
X219577200Y-193500057D01*
X219505771Y-193214342D01*
X219505771Y-192857200D01*
X219577200Y-192571485D01*
X219648628Y-192428628D01*
X219720057Y-192357200D01*
X219862914Y-192285771D01*
X221220057Y-192928628D02*
X221077200Y-192857200D01*
X221005771Y-192785771D01*
X220934342Y-192642914D01*
X220934342Y-192571485D01*
X221005771Y-192428628D01*
X221077200Y-192357200D01*
X221220057Y-192285771D01*
X221505771Y-192285771D01*
X221648628Y-192357200D01*
X221720057Y-192428628D01*
X221791485Y-192571485D01*
X221791485Y-192642914D01*
X221720057Y-192785771D01*
X221648628Y-192857200D01*
X221505771Y-192928628D01*
X221220057Y-192928628D01*
X221077200Y-193000057D01*
X221005771Y-193071485D01*
X220934342Y-193214342D01*
X220934342Y-193500057D01*
X221005771Y-193642914D01*
X221077200Y-193714342D01*
X221220057Y-193785771D01*
X221505771Y-193785771D01*
X221648628Y-193714342D01*
X221720057Y-193642914D01*
X221791485Y-193500057D01*
X221791485Y-193214342D01*
X221720057Y-193071485D01*
X221648628Y-193000057D01*
X221505771Y-192928628D01*
D10*
D11*
X177002200Y-194507200D02*
X285002200Y-194507200D01*
D10*
D11*
X178434342Y-196585771D02*
X178434342Y-195085771D01*
X179291485Y-196585771D02*
X178648628Y-195728628D01*
X179291485Y-195085771D02*
X178434342Y-195942914D01*
X179934342Y-196585771D02*
X179934342Y-195585771D01*
X179934342Y-195085771D02*
X179862914Y-195157200D01*
X179934342Y-195228628D01*
X180005771Y-195157200D01*
X179934342Y-195085771D01*
X179934342Y-195228628D01*
X181505771Y-196442914D02*
X181434342Y-196514342D01*
X181220057Y-196585771D01*
X181077200Y-196585771D01*
X180862914Y-196514342D01*
X180720057Y-196371485D01*
X180648628Y-196228628D01*
X180577200Y-195942914D01*
X180577200Y-195728628D01*
X180648628Y-195442914D01*
X180720057Y-195300057D01*
X180862914Y-195157200D01*
X181077200Y-195085771D01*
X181220057Y-195085771D01*
X181434342Y-195157200D01*
X181505771Y-195228628D01*
X182791485Y-196585771D02*
X182791485Y-195800057D01*
X182720057Y-195657200D01*
X182577200Y-195585771D01*
X182291485Y-195585771D01*
X182148628Y-195657200D01*
X182791485Y-196514342D02*
X182648628Y-196585771D01*
X182291485Y-196585771D01*
X182148628Y-196514342D01*
X182077200Y-196371485D01*
X182077200Y-196228628D01*
X182148628Y-196085771D01*
X182291485Y-196014342D01*
X182648628Y-196014342D01*
X182791485Y-195942914D01*
X184148628Y-196585771D02*
X184148628Y-195085771D01*
X184148628Y-196514342D02*
X184005771Y-196585771D01*
X183720057Y-196585771D01*
X183577200Y-196514342D01*
X183505771Y-196442914D01*
X183434342Y-196300057D01*
X183434342Y-195871485D01*
X183505771Y-195728628D01*
X183577200Y-195657200D01*
X183720057Y-195585771D01*
X184005771Y-195585771D01*
X184148628Y-195657200D01*
X186005771Y-195800057D02*
X186505771Y-195800057D01*
X186720057Y-196585771D02*
X186005771Y-196585771D01*
X186005771Y-195085771D01*
X186720057Y-195085771D01*
X187362914Y-196442914D02*
X187434342Y-196514342D01*
X187362914Y-196585771D01*
X187291485Y-196514342D01*
X187362914Y-196442914D01*
X187362914Y-196585771D01*
X188077200Y-196585771D02*
X188077200Y-195085771D01*
X188434342Y-195085771D01*
X188648628Y-195157200D01*
X188791485Y-195300057D01*
X188862914Y-195442914D01*
X188934342Y-195728628D01*
X188934342Y-195942914D01*
X188862914Y-196228628D01*
X188791485Y-196371485D01*
X188648628Y-196514342D01*
X188434342Y-196585771D01*
X188077200Y-196585771D01*
X189577200Y-196442914D02*
X189648628Y-196514342D01*
X189577200Y-196585771D01*
X189505771Y-196514342D01*
X189577200Y-196442914D01*
X189577200Y-196585771D01*
X190220057Y-196157200D02*
X190934342Y-196157200D01*
X190077200Y-196585771D02*
X190577200Y-195085771D01*
X191077200Y-196585771D01*
X191577200Y-196442914D02*
X191648628Y-196514342D01*
X191577200Y-196585771D01*
X191505771Y-196514342D01*
X191577200Y-196442914D01*
X191577200Y-196585771D01*
X194577200Y-196585771D02*
X194577200Y-195085771D01*
X194720057Y-196014342D02*
X195148628Y-196585771D01*
X195148628Y-195585771D02*
X194577200Y-196157200D01*
X195791485Y-196585771D02*
X195791485Y-195585771D01*
X195791485Y-195085771D02*
X195720057Y-195157200D01*
X195791485Y-195228628D01*
X195862914Y-195157200D01*
X195791485Y-195085771D01*
X195791485Y-195228628D01*
X197148628Y-196514342D02*
X197005771Y-196585771D01*
X196720057Y-196585771D01*
X196577200Y-196514342D01*
X196505771Y-196442914D01*
X196434342Y-196300057D01*
X196434342Y-195871485D01*
X196505771Y-195728628D01*
X196577200Y-195657200D01*
X196720057Y-195585771D01*
X197005771Y-195585771D01*
X197148628Y-195657200D01*
X198434342Y-196585771D02*
X198434342Y-195800057D01*
X198362914Y-195657200D01*
X198220057Y-195585771D01*
X197934342Y-195585771D01*
X197791485Y-195657200D01*
X198434342Y-196514342D02*
X198291485Y-196585771D01*
X197934342Y-196585771D01*
X197791485Y-196514342D01*
X197720057Y-196371485D01*
X197720057Y-196228628D01*
X197791485Y-196085771D01*
X197934342Y-196014342D01*
X198291485Y-196014342D01*
X198434342Y-195942914D01*
X199791485Y-196585771D02*
X199791485Y-195085771D01*
X199791485Y-196514342D02*
X199648628Y-196585771D01*
X199362914Y-196585771D01*
X199220057Y-196514342D01*
X199148628Y-196442914D01*
X199077200Y-196300057D01*
X199077200Y-195871485D01*
X199148628Y-195728628D01*
X199220057Y-195657200D01*
X199362914Y-195585771D01*
X199648628Y-195585771D01*
X199791485Y-195657200D01*
X202077200Y-197157200D02*
X202005771Y-197085771D01*
X201862914Y-196871485D01*
X201791485Y-196728628D01*
X201720057Y-196514342D01*
X201648628Y-196157200D01*
X201648628Y-195871485D01*
X201720057Y-195514342D01*
X201791485Y-195300057D01*
X201862914Y-195157200D01*
X202005771Y-194942914D01*
X202077200Y-194871485D01*
X203362914Y-195085771D02*
X202648628Y-195085771D01*
X202577200Y-195800057D01*
X202648628Y-195728628D01*
X202791485Y-195657200D01*
X203148628Y-195657200D01*
X203291485Y-195728628D01*
X203362914Y-195800057D01*
X203434342Y-195942914D01*
X203434342Y-196300057D01*
X203362914Y-196442914D01*
X203291485Y-196514342D01*
X203148628Y-196585771D01*
X202791485Y-196585771D01*
X202648628Y-196514342D01*
X202577200Y-196442914D01*
X204077200Y-196442914D02*
X204148628Y-196514342D01*
X204077200Y-196585771D01*
X204005771Y-196514342D01*
X204077200Y-196442914D01*
X204077200Y-196585771D01*
X205577200Y-196585771D02*
X204720057Y-196585771D01*
X205148628Y-196585771D02*
X205148628Y-195085771D01*
X205005771Y-195300057D01*
X204862914Y-195442914D01*
X204720057Y-195514342D01*
X206220057Y-196442914D02*
X206291485Y-196514342D01*
X206220057Y-196585771D01*
X206148628Y-196514342D01*
X206220057Y-196442914D01*
X206220057Y-196585771D01*
X207005771Y-196585771D02*
X207291485Y-196585771D01*
X207434342Y-196514342D01*
X207505771Y-196442914D01*
X207648628Y-196228628D01*
X207720057Y-195942914D01*
X207720057Y-195371485D01*
X207648628Y-195228628D01*
X207577200Y-195157200D01*
X207434342Y-195085771D01*
X207148628Y-195085771D01*
X207005771Y-195157200D01*
X206934342Y-195228628D01*
X206862914Y-195371485D01*
X206862914Y-195728628D01*
X206934342Y-195871485D01*
X207005771Y-195942914D01*
X207148628Y-196014342D01*
X207434342Y-196014342D01*
X207577200Y-195942914D01*
X207648628Y-195871485D01*
X207720057Y-195728628D01*
X208362914Y-196014342D02*
X209505771Y-196014342D01*
X211005771Y-196585771D02*
X210148628Y-196585771D01*
X210577200Y-196585771D02*
X210577200Y-195085771D01*
X210434342Y-195300057D01*
X210291485Y-195442914D01*
X210148628Y-195514342D01*
X212291485Y-195085771D02*
X212005771Y-195085771D01*
X211862914Y-195157200D01*
X211791485Y-195228628D01*
X211648628Y-195442914D01*
X211577200Y-195728628D01*
X211577200Y-196300057D01*
X211648628Y-196442914D01*
X211720057Y-196514342D01*
X211862914Y-196585771D01*
X212148628Y-196585771D01*
X212291485Y-196514342D01*
X212362914Y-196442914D01*
X212434342Y-196300057D01*
X212434342Y-195942914D01*
X212362914Y-195800057D01*
X212291485Y-195728628D01*
X212148628Y-195657200D01*
X211862914Y-195657200D01*
X211720057Y-195728628D01*
X211648628Y-195800057D01*
X211577200Y-195942914D01*
X213077200Y-196014342D02*
X214220057Y-196014342D01*
X215577200Y-195585771D02*
X215577200Y-196800057D01*
X215505771Y-196942914D01*
X215434342Y-197014342D01*
X215291485Y-197085771D01*
X215077200Y-197085771D01*
X214934342Y-197014342D01*
X215577200Y-196514342D02*
X215434342Y-196585771D01*
X215148628Y-196585771D01*
X215005771Y-196514342D01*
X214934342Y-196442914D01*
X214862914Y-196300057D01*
X214862914Y-195871485D01*
X214934342Y-195728628D01*
X215005771Y-195657200D01*
X215148628Y-195585771D01*
X215434342Y-195585771D01*
X215577200Y-195657200D01*
X217077200Y-196585771D02*
X216220057Y-196585771D01*
X216648628Y-196585771D02*
X216648628Y-195085771D01*
X216505771Y-195300057D01*
X216362914Y-195442914D01*
X216220057Y-195514342D01*
X217577200Y-195085771D02*
X218577200Y-195085771D01*
X217934342Y-196585771D01*
X219005771Y-195085771D02*
X219934342Y-195085771D01*
X219434342Y-195657200D01*
X219648628Y-195657200D01*
X219791485Y-195728628D01*
X219862914Y-195800057D01*
X219934342Y-195942914D01*
X219934342Y-196300057D01*
X219862914Y-196442914D01*
X219791485Y-196514342D01*
X219648628Y-196585771D01*
X219220057Y-196585771D01*
X219077200Y-196514342D01*
X219005771Y-196442914D01*
X220434342Y-195085771D02*
X221434342Y-195085771D01*
X220791485Y-196585771D01*
X222077200Y-196585771D02*
X222362914Y-196585771D01*
X222505771Y-196514342D01*
X222577200Y-196442914D01*
X222720057Y-196228628D01*
X222791485Y-195942914D01*
X222791485Y-195371485D01*
X222720057Y-195228628D01*
X222648628Y-195157200D01*
X222505771Y-195085771D01*
X222220057Y-195085771D01*
X222077200Y-195157200D01*
X222005771Y-195228628D01*
X221934342Y-195371485D01*
X221934342Y-195728628D01*
X222005771Y-195871485D01*
X222077200Y-195942914D01*
X222220057Y-196014342D01*
X222505771Y-196014342D01*
X222648628Y-195942914D01*
X222720057Y-195871485D01*
X222791485Y-195728628D01*
X223362914Y-195228628D02*
X223434342Y-195157200D01*
X223577200Y-195085771D01*
X223934342Y-195085771D01*
X224077200Y-195157200D01*
X224148628Y-195228628D01*
X224220057Y-195371485D01*
X224220057Y-195514342D01*
X224148628Y-195728628D01*
X223291485Y-196585771D01*
X224220057Y-196585771D01*
X224720057Y-195085771D02*
X225720057Y-195085771D01*
X225077200Y-196585771D01*
X226505771Y-195728628D02*
X226362914Y-195657200D01*
X226291485Y-195585771D01*
X226220057Y-195442914D01*
X226220057Y-195371485D01*
X226291485Y-195228628D01*
X226362914Y-195157200D01*
X226505771Y-195085771D01*
X226791485Y-195085771D01*
X226934342Y-195157200D01*
X227005771Y-195228628D01*
X227077199Y-195371485D01*
X227077199Y-195442914D01*
X227005771Y-195585771D01*
X226934342Y-195657200D01*
X226791485Y-195728628D01*
X226505771Y-195728628D01*
X226362914Y-195800057D01*
X226291485Y-195871485D01*
X226220057Y-196014342D01*
X226220057Y-196300057D01*
X226291485Y-196442914D01*
X226362914Y-196514342D01*
X226505771Y-196585771D01*
X226791485Y-196585771D01*
X226934342Y-196514342D01*
X227005771Y-196442914D01*
X227077199Y-196300057D01*
X227077199Y-196014342D01*
X227005771Y-195871485D01*
X226934342Y-195800057D01*
X226791485Y-195728628D01*
X228505771Y-196585771D02*
X227648628Y-196585771D01*
X228077199Y-196585771D02*
X228077199Y-195085771D01*
X227934342Y-195300057D01*
X227791485Y-195442914D01*
X227648628Y-195514342D01*
X229791485Y-195585771D02*
X229791485Y-196585771D01*
X229434342Y-195014342D02*
X229077199Y-196085771D01*
X230005771Y-196085771D01*
X230434342Y-197157200D02*
X230505771Y-197085771D01*
X230648628Y-196871485D01*
X230720057Y-196728628D01*
X230791485Y-196514342D01*
X230862914Y-196157200D01*
X230862914Y-195871485D01*
X230791485Y-195514342D01*
X230720057Y-195300057D01*
X230648628Y-195157200D01*
X230505771Y-194942914D01*
X230434342Y-194871485D01*
X231577199Y-196014342D02*
X232720057Y-196014342D01*
X234220057Y-196585771D02*
X233362914Y-196585771D01*
X233791485Y-196585771D02*
X233791485Y-195085771D01*
X233648628Y-195300057D01*
X233505771Y-195442914D01*
X233362914Y-195514342D01*
D10*
D11*
X177002200Y-191507200D02*
X285002200Y-191507200D01*
D10*
D12*
X264411485Y-193785771D02*
X263911485Y-193071485D01*
X263554342Y-193785771D02*
X263554342Y-192285771D01*
X264125771Y-192285771D01*
X264268628Y-192357200D01*
X264340057Y-192428628D01*
X264411485Y-192571485D01*
X264411485Y-192785771D01*
X264340057Y-192928628D01*
X264268628Y-193000057D01*
X264125771Y-193071485D01*
X263554342Y-193071485D01*
X265625771Y-193714342D02*
X265482914Y-193785771D01*
X265197200Y-193785771D01*
X265054342Y-193714342D01*
X264982914Y-193571485D01*
X264982914Y-193000057D01*
X265054342Y-192857200D01*
X265197200Y-192785771D01*
X265482914Y-192785771D01*
X265625771Y-192857200D01*
X265697200Y-193000057D01*
X265697200Y-193142914D01*
X264982914Y-193285771D01*
X266197200Y-192785771D02*
X266554342Y-193785771D01*
X266911485Y-192785771D01*
X267482914Y-193642914D02*
X267554342Y-193714342D01*
X267482914Y-193785771D01*
X267411485Y-193714342D01*
X267482914Y-193642914D01*
X267482914Y-193785771D01*
X267482914Y-192857200D02*
X267554342Y-192928628D01*
X267482914Y-193000057D01*
X267411485Y-192928628D01*
X267482914Y-192857200D01*
X267482914Y-193000057D01*
X270125771Y-193785771D02*
X269268628Y-193785771D01*
X269697200Y-193785771D02*
X269697200Y-192285771D01*
X269554342Y-192500057D01*
X269411485Y-192642914D01*
X269268628Y-192714342D01*
D10*
D11*
X178362914Y-193714342D02*
X178577200Y-193785771D01*
X178934342Y-193785771D01*
X179077200Y-193714342D01*
X179148628Y-193642914D01*
X179220057Y-193500057D01*
X179220057Y-193357200D01*
X179148628Y-193214342D01*
X179077200Y-193142914D01*
X178934342Y-193071485D01*
X178648628Y-193000057D01*
X178505771Y-192928628D01*
X178434342Y-192857200D01*
X178362914Y-192714342D01*
X178362914Y-192571485D01*
X178434342Y-192428628D01*
X178505771Y-192357200D01*
X178648628Y-192285771D01*
X179005771Y-192285771D01*
X179220057Y-192357200D01*
X179862914Y-193785771D02*
X179862914Y-192785771D01*
X179862914Y-192285771D02*
X179791485Y-192357200D01*
X179862914Y-192428628D01*
X179934342Y-192357200D01*
X179862914Y-192285771D01*
X179862914Y-192428628D01*
X180434342Y-192785771D02*
X181220057Y-192785771D01*
X180434342Y-193785771D01*
X181220057Y-193785771D01*
X182362914Y-193714342D02*
X182220057Y-193785771D01*
X181934342Y-193785771D01*
X181791485Y-193714342D01*
X181720057Y-193571485D01*
X181720057Y-193000057D01*
X181791485Y-192857200D01*
X181934342Y-192785771D01*
X182220057Y-192785771D01*
X182362914Y-192857200D01*
X182434342Y-193000057D01*
X182434342Y-193142914D01*
X181720057Y-193285771D01*
X183077200Y-193642914D02*
X183148628Y-193714342D01*
X183077200Y-193785771D01*
X183005771Y-193714342D01*
X183077200Y-193642914D01*
X183077200Y-193785771D01*
X183077200Y-192857200D02*
X183148628Y-192928628D01*
X183077200Y-193000057D01*
X183005771Y-192928628D01*
X183077200Y-192857200D01*
X183077200Y-193000057D01*
X184862914Y-193357200D02*
X185577200Y-193357200D01*
X184720057Y-193785771D02*
X185220057Y-192285771D01*
X185720057Y-193785771D01*
X186862914Y-192785771D02*
X186862914Y-193785771D01*
X186505771Y-192214342D02*
X186148628Y-193285771D01*
X187077200Y-193285771D01*
D10*
D11*
X263434342Y-196585771D02*
X263434342Y-195085771D01*
X264791485Y-196585771D02*
X264791485Y-195085771D01*
X264791485Y-196514342D02*
X264648628Y-196585771D01*
X264362914Y-196585771D01*
X264220057Y-196514342D01*
X264148628Y-196442914D01*
X264077200Y-196300057D01*
X264077200Y-195871485D01*
X264148628Y-195728628D01*
X264220057Y-195657200D01*
X264362914Y-195585771D01*
X264648628Y-195585771D01*
X264791485Y-195657200D01*
X265505771Y-196442914D02*
X265577200Y-196514342D01*
X265505771Y-196585771D01*
X265434342Y-196514342D01*
X265505771Y-196442914D01*
X265505771Y-196585771D01*
X265505771Y-195657200D02*
X265577200Y-195728628D01*
X265505771Y-195800057D01*
X265434342Y-195728628D01*
X265505771Y-195657200D01*
X265505771Y-195800057D01*
X268148628Y-196585771D02*
X267291485Y-196585771D01*
X267720057Y-196585771D02*
X267720057Y-195085771D01*
X267577200Y-195300057D01*
X267434342Y-195442914D01*
X267291485Y-195514342D01*
X269862914Y-195014342D02*
X268577200Y-196942914D01*
X271148628Y-196585771D02*
X270291485Y-196585771D01*
X270720057Y-196585771D02*
X270720057Y-195085771D01*
X270577200Y-195300057D01*
X270434342Y-195442914D01*
X270291485Y-195514342D01*
D10*
D11*
X177002200Y-187507200D02*
X285002200Y-187507200D01*
D10*
D13*
X178714580Y-188211961D02*
X179857438Y-188211961D01*
X179036009Y-190211961D02*
X179286009Y-188211961D01*
X180274104Y-190211961D02*
X180440771Y-188878628D01*
X180524104Y-188211961D02*
X180416961Y-188307200D01*
X180500295Y-188402438D01*
X180607438Y-188307200D01*
X180524104Y-188211961D01*
X180500295Y-188402438D01*
X181107438Y-188878628D02*
X181869342Y-188878628D01*
X181476485Y-188211961D02*
X181262200Y-189926247D01*
X181333628Y-190116723D01*
X181512200Y-190211961D01*
X181702676Y-190211961D01*
X182655057Y-190211961D02*
X182476485Y-190116723D01*
X182405057Y-189926247D01*
X182619342Y-188211961D01*
X184190771Y-190116723D02*
X183988390Y-190211961D01*
X183607438Y-190211961D01*
X183428866Y-190116723D01*
X183357438Y-189926247D01*
X183452676Y-189164342D01*
X183571723Y-188973866D01*
X183774104Y-188878628D01*
X184155057Y-188878628D01*
X184333628Y-188973866D01*
X184405057Y-189164342D01*
X184381247Y-189354819D01*
X183405057Y-189545295D01*
X185155057Y-190021485D02*
X185238390Y-190116723D01*
X185131247Y-190211961D01*
X185047914Y-190116723D01*
X185155057Y-190021485D01*
X185131247Y-190211961D01*
X185286009Y-188973866D02*
X185369342Y-189069104D01*
X185262200Y-189164342D01*
X185178866Y-189069104D01*
X185286009Y-188973866D01*
X185262200Y-189164342D01*
X188405057Y-189164342D02*
X188678866Y-189259580D01*
X188762200Y-189354819D01*
X188833628Y-189545295D01*
X188797914Y-189831009D01*
X188678866Y-190021485D01*
X188571723Y-190116723D01*
X188369342Y-190211961D01*
X187607438Y-190211961D01*
X187857438Y-188211961D01*
X188524104Y-188211961D01*
X188702676Y-188307200D01*
X188786009Y-188402438D01*
X188857438Y-188592914D01*
X188833628Y-188783390D01*
X188714580Y-188973866D01*
X188607438Y-189069104D01*
X188405057Y-189164342D01*
X187738390Y-189164342D01*
X190631247Y-188878628D02*
X190464580Y-190211961D01*
X189774104Y-188878628D02*
X189643152Y-189926247D01*
X189714580Y-190116723D01*
X189893152Y-190211961D01*
X190178866Y-190211961D01*
X190381247Y-190116723D01*
X190488390Y-190021485D01*
X191333628Y-190116723D02*
X191512200Y-190211961D01*
X191893152Y-190211961D01*
X192095533Y-190116723D01*
X192214580Y-189926247D01*
X192226485Y-189831009D01*
X192155057Y-189640533D01*
X191976485Y-189545295D01*
X191690771Y-189545295D01*
X191512200Y-189450057D01*
X191440771Y-189259580D01*
X191452676Y-189164342D01*
X191571723Y-188973866D01*
X191774104Y-188878628D01*
X192059819Y-188878628D01*
X192238390Y-188973866D01*
X192952676Y-190116723D02*
X193131247Y-190211961D01*
X193512200Y-190211961D01*
X193714580Y-190116723D01*
X193833628Y-189926247D01*
X193845533Y-189831009D01*
X193774104Y-189640533D01*
X193595533Y-189545295D01*
X193309819Y-189545295D01*
X193131247Y-189450057D01*
X193059819Y-189259580D01*
X193071723Y-189164342D01*
X193190771Y-188973866D01*
X193393152Y-188878628D01*
X193678866Y-188878628D01*
X193857438Y-188973866D01*
X194631247Y-188878628D02*
X194940771Y-190211961D01*
X195583628Y-188878628D02*
X194940771Y-190211961D01*
X194690771Y-190688152D01*
X194583628Y-190783390D01*
X194381247Y-190878628D01*
X196095533Y-190116723D02*
X196274104Y-190211961D01*
X196655057Y-190211961D01*
X196857438Y-190116723D01*
X196976485Y-189926247D01*
X196988390Y-189831009D01*
X196916961Y-189640533D01*
X196738390Y-189545295D01*
X196452676Y-189545295D01*
X196274104Y-189450057D01*
X196202676Y-189259580D01*
X196214580Y-189164342D01*
X196333628Y-188973866D01*
X196536009Y-188878628D01*
X196821723Y-188878628D01*
X197000295Y-188973866D01*
X197678866Y-188878628D02*
X198440771Y-188878628D01*
X198047914Y-188211961D02*
X197833628Y-189926247D01*
X197905057Y-190116723D01*
X198083628Y-190211961D01*
X198274104Y-190211961D01*
X199714580Y-190116723D02*
X199512200Y-190211961D01*
X199131247Y-190211961D01*
X198952676Y-190116723D01*
X198881247Y-189926247D01*
X198976485Y-189164342D01*
X199095533Y-188973866D01*
X199297914Y-188878628D01*
X199678866Y-188878628D01*
X199857438Y-188973866D01*
X199928866Y-189164342D01*
X199905057Y-189354819D01*
X198928866Y-189545295D01*
X200655057Y-190211961D02*
X200821723Y-188878628D01*
X200797914Y-189069104D02*
X200905057Y-188973866D01*
X201107438Y-188878628D01*
X201393152Y-188878628D01*
X201571723Y-188973866D01*
X201643152Y-189164342D01*
X201512200Y-190211961D01*
X201643152Y-189164342D02*
X201762200Y-188973866D01*
X201964580Y-188878628D01*
X202250295Y-188878628D01*
X202428866Y-188973866D01*
X202500295Y-189164342D01*
X202369342Y-190211961D01*
X205643152Y-189164342D02*
X205916961Y-189259580D01*
X206000295Y-189354819D01*
X206071723Y-189545295D01*
X206036009Y-189831009D01*
X205916961Y-190021485D01*
X205809819Y-190116723D01*
X205607438Y-190211961D01*
X204845533Y-190211961D01*
X205095533Y-188211961D01*
X205762200Y-188211961D01*
X205940771Y-188307200D01*
X206024104Y-188402438D01*
X206095533Y-188592914D01*
X206071723Y-188783390D01*
X205952676Y-188973866D01*
X205845533Y-189069104D01*
X205643152Y-189164342D01*
X204976485Y-189164342D01*
X207702676Y-190211961D02*
X207833628Y-189164342D01*
X207762200Y-188973866D01*
X207583628Y-188878628D01*
X207202676Y-188878628D01*
X207000295Y-188973866D01*
X207714580Y-190116723D02*
X207512200Y-190211961D01*
X207036009Y-190211961D01*
X206857438Y-190116723D01*
X206786009Y-189926247D01*
X206809819Y-189735771D01*
X206928866Y-189545295D01*
X207131247Y-189450057D01*
X207607438Y-189450057D01*
X207809819Y-189354819D01*
X208571723Y-190116723D02*
X208750295Y-190211961D01*
X209131247Y-190211961D01*
X209333628Y-190116723D01*
X209452676Y-189926247D01*
X209464580Y-189831009D01*
X209393152Y-189640533D01*
X209214580Y-189545295D01*
X208928866Y-189545295D01*
X208750295Y-189450057D01*
X208678866Y-189259580D01*
X208690771Y-189164342D01*
X208809819Y-188973866D01*
X209012200Y-188878628D01*
X209297914Y-188878628D01*
X209476485Y-188973866D01*
X211047914Y-190116723D02*
X210845533Y-190211961D01*
X210464580Y-190211961D01*
X210286009Y-190116723D01*
X210214580Y-189926247D01*
X210309819Y-189164342D01*
X210428866Y-188973866D01*
X210631247Y-188878628D01*
X211012200Y-188878628D01*
X211190771Y-188973866D01*
X211262200Y-189164342D01*
X211238390Y-189354819D01*
X210262200Y-189545295D01*
X212155057Y-188878628D02*
X211905057Y-190878628D01*
X212143152Y-188973866D02*
X212345533Y-188878628D01*
X212726485Y-188878628D01*
X212905057Y-188973866D01*
X212988390Y-189069104D01*
X213059819Y-189259580D01*
X212988390Y-189831009D01*
X212869342Y-190021485D01*
X212762200Y-190116723D01*
X212559819Y-190211961D01*
X212178866Y-190211961D01*
X212000295Y-190116723D01*
X214083628Y-190211961D02*
X213905057Y-190116723D01*
X213833628Y-189926247D01*
X214047914Y-188211961D01*
X215702676Y-190211961D02*
X215833628Y-189164342D01*
X215762200Y-188973866D01*
X215583628Y-188878628D01*
X215202676Y-188878628D01*
X215000295Y-188973866D01*
X215714580Y-190116723D02*
X215512200Y-190211961D01*
X215036009Y-190211961D01*
X214857438Y-190116723D01*
X214786009Y-189926247D01*
X214809819Y-189735771D01*
X214928866Y-189545295D01*
X215131247Y-189450057D01*
X215607438Y-189450057D01*
X215809819Y-189354819D01*
X216536009Y-188878628D02*
X217297914Y-188878628D01*
X216905057Y-188211961D02*
X216690771Y-189926247D01*
X216762200Y-190116723D01*
X216940771Y-190211961D01*
X217131247Y-190211961D01*
X218571723Y-190116723D02*
X218369342Y-190211961D01*
X217988390Y-190211961D01*
X217809819Y-190116723D01*
X217738390Y-189926247D01*
X217833628Y-189164342D01*
X217952676Y-188973866D01*
X218155057Y-188878628D01*
X218536009Y-188878628D01*
X218714580Y-188973866D01*
X218786009Y-189164342D01*
X218762200Y-189354819D01*
X217786009Y-189545295D01*
X222083628Y-190211961D02*
X220940771Y-190211961D01*
X221512200Y-190211961D02*
X221762200Y-188211961D01*
X221536009Y-188497676D01*
X221321723Y-188688152D01*
X221119342Y-188783390D01*
X223571723Y-188211961D02*
X223762200Y-188211961D01*
X223940771Y-188307200D01*
X224024104Y-188402438D01*
X224095533Y-188592914D01*
X224143152Y-188973866D01*
X224083628Y-189450057D01*
X223940771Y-189831009D01*
X223821723Y-190021485D01*
X223714580Y-190116723D01*
X223512200Y-190211961D01*
X223321723Y-190211961D01*
X223143152Y-190116723D01*
X223059819Y-190021485D01*
X222988390Y-189831009D01*
X222940771Y-189450057D01*
X223000295Y-188973866D01*
X223143152Y-188592914D01*
X223262200Y-188402438D01*
X223369342Y-188307200D01*
X223571723Y-188211961D01*
X224655057Y-190211961D02*
X225869342Y-188878628D01*
X224821723Y-188878628D02*
X225702676Y-190211961D01*
X228155057Y-188878628D02*
X227988390Y-190211961D01*
X228131247Y-189069104D02*
X228238390Y-188973866D01*
X228440771Y-188878628D01*
X228726485Y-188878628D01*
X228905057Y-188973866D01*
X228976485Y-189164342D01*
X228845533Y-190211961D01*
X230083628Y-190211961D02*
X229905057Y-190116723D01*
X229821723Y-190021485D01*
X229750295Y-189831009D01*
X229821723Y-189259580D01*
X229940771Y-189069104D01*
X230047914Y-188973866D01*
X230250295Y-188878628D01*
X230536009Y-188878628D01*
X230714580Y-188973866D01*
X230797914Y-189069104D01*
X230869342Y-189259580D01*
X230797914Y-189831009D01*
X230678866Y-190021485D01*
X230571723Y-190116723D01*
X230369342Y-190211961D01*
X230083628Y-190211961D01*
X231774104Y-188878628D02*
X231607438Y-190211961D01*
X231750295Y-189069104D02*
X231857438Y-188973866D01*
X232059819Y-188878628D01*
X232345533Y-188878628D01*
X232524104Y-188973866D01*
X232595533Y-189164342D01*
X232464580Y-190211961D01*
X234857438Y-190116723D02*
X235036009Y-190211961D01*
X235416961Y-190211961D01*
X235619342Y-190116723D01*
X235738390Y-189926247D01*
X235750295Y-189831009D01*
X235678866Y-189640533D01*
X235500295Y-189545295D01*
X235214580Y-189545295D01*
X235036009Y-189450057D01*
X234964580Y-189259580D01*
X234976485Y-189164342D01*
X235095533Y-188973866D01*
X235297914Y-188878628D01*
X235583628Y-188878628D01*
X235762199Y-188973866D01*
X236440771Y-188878628D02*
X237202676Y-188878628D01*
X236809819Y-188211961D02*
X236595533Y-189926247D01*
X236666961Y-190116723D01*
X236845533Y-190211961D01*
X237036009Y-190211961D01*
X238559819Y-190211961D02*
X238690771Y-189164342D01*
X238619342Y-188973866D01*
X238440771Y-188878628D01*
X238059819Y-188878628D01*
X237857438Y-188973866D01*
X238571723Y-190116723D02*
X238369342Y-190211961D01*
X237893152Y-190211961D01*
X237714580Y-190116723D01*
X237643152Y-189926247D01*
X237666961Y-189735771D01*
X237786009Y-189545295D01*
X237988390Y-189450057D01*
X238464580Y-189450057D01*
X238666961Y-189354819D01*
X240381247Y-190116723D02*
X240178866Y-190211961D01*
X239797914Y-190211961D01*
X239619342Y-190116723D01*
X239536009Y-190021485D01*
X239464580Y-189831009D01*
X239536009Y-189259580D01*
X239655057Y-189069104D01*
X239762199Y-188973866D01*
X239964580Y-188878628D01*
X240345533Y-188878628D01*
X240524104Y-188973866D01*
X241226485Y-190211961D02*
X241476485Y-188211961D01*
X241512199Y-189450057D02*
X241988390Y-190211961D01*
X242155057Y-188878628D02*
X241297914Y-189640533D01*
X243702676Y-190211961D02*
X243833628Y-189164342D01*
X243762199Y-188973866D01*
X243583628Y-188878628D01*
X243202676Y-188878628D01*
X243000295Y-188973866D01*
X243714580Y-190116723D02*
X243512199Y-190211961D01*
X243036009Y-190211961D01*
X242857438Y-190116723D01*
X242786009Y-189926247D01*
X242809819Y-189735771D01*
X242928866Y-189545295D01*
X243131247Y-189450057D01*
X243607438Y-189450057D01*
X243809819Y-189354819D01*
X244655057Y-190211961D02*
X244905057Y-188211961D01*
X244809819Y-188973866D02*
X245012199Y-188878628D01*
X245393152Y-188878628D01*
X245571723Y-188973866D01*
X245655057Y-189069104D01*
X245726485Y-189259580D01*
X245655057Y-189831009D01*
X245536009Y-190021485D01*
X245428866Y-190116723D01*
X245226485Y-190211961D01*
X244845533Y-190211961D01*
X244666961Y-190116723D01*
X246750295Y-190211961D02*
X246571723Y-190116723D01*
X246500295Y-189926247D01*
X246714580Y-188211961D01*
X248286009Y-190116723D02*
X248083628Y-190211961D01*
X247702676Y-190211961D01*
X247524104Y-190116723D01*
X247452676Y-189926247D01*
X247547914Y-189164342D01*
X247666961Y-188973866D01*
X247869342Y-188878628D01*
X248250295Y-188878628D01*
X248428866Y-188973866D01*
X248500295Y-189164342D01*
X248476485Y-189354819D01*
X247500295Y-189545295D01*
D10*
D11*
X178934342Y-185600057D02*
X178434342Y-185600057D01*
X178434342Y-186385771D02*
X178434342Y-184885771D01*
X179148628Y-184885771D01*
X179720057Y-186385771D02*
X179720057Y-185385771D01*
X179720057Y-184885771D02*
X179648628Y-184957200D01*
X179720057Y-185028628D01*
X179791485Y-184957200D01*
X179720057Y-184885771D01*
X179720057Y-185028628D01*
X180648628Y-186385771D02*
X180505771Y-186314342D01*
X180434342Y-186171485D01*
X180434342Y-184885771D01*
X181791485Y-186314342D02*
X181648628Y-186385771D01*
X181362914Y-186385771D01*
X181220057Y-186314342D01*
X181148628Y-186171485D01*
X181148628Y-185600057D01*
X181220057Y-185457200D01*
X181362914Y-185385771D01*
X181648628Y-185385771D01*
X181791485Y-185457200D01*
X181862914Y-185600057D01*
X181862914Y-185742914D01*
X181148628Y-185885771D01*
X182505771Y-186242914D02*
X182577200Y-186314342D01*
X182505771Y-186385771D01*
X182434342Y-186314342D01*
X182505771Y-186242914D01*
X182505771Y-186385771D01*
X182505771Y-185457200D02*
X182577200Y-185528628D01*
X182505771Y-185600057D01*
X182434342Y-185528628D01*
X182505771Y-185457200D01*
X182505771Y-185600057D01*
X184862914Y-185600057D02*
X185077200Y-185671485D01*
X185148628Y-185742914D01*
X185220057Y-185885771D01*
X185220057Y-186100057D01*
X185148628Y-186242914D01*
X185077200Y-186314342D01*
X184934342Y-186385771D01*
X184362914Y-186385771D01*
X184362914Y-184885771D01*
X184862914Y-184885771D01*
X185005771Y-184957200D01*
X185077200Y-185028628D01*
X185148628Y-185171485D01*
X185148628Y-185314342D01*
X185077200Y-185457200D01*
X185005771Y-185528628D01*
X184862914Y-185600057D01*
X184362914Y-185600057D01*
X186505771Y-185385771D02*
X186505771Y-186385771D01*
X185862914Y-185385771D02*
X185862914Y-186171485D01*
X185934342Y-186314342D01*
X186077200Y-186385771D01*
X186291485Y-186385771D01*
X186434342Y-186314342D01*
X186505771Y-186242914D01*
X187148628Y-186314342D02*
X187291485Y-186385771D01*
X187577200Y-186385771D01*
X187720057Y-186314342D01*
X187791485Y-186171485D01*
X187791485Y-186100057D01*
X187720057Y-185957200D01*
X187577200Y-185885771D01*
X187362914Y-185885771D01*
X187220057Y-185814342D01*
X187148628Y-185671485D01*
X187148628Y-185600057D01*
X187220057Y-185457200D01*
X187362914Y-185385771D01*
X187577200Y-185385771D01*
X187720057Y-185457200D01*
X188362914Y-186314342D02*
X188505771Y-186385771D01*
X188791485Y-186385771D01*
X188934342Y-186314342D01*
X189005771Y-186171485D01*
X189005771Y-186100057D01*
X188934342Y-185957200D01*
X188791485Y-185885771D01*
X188577200Y-185885771D01*
X188434342Y-185814342D01*
X188362914Y-185671485D01*
X188362914Y-185600057D01*
X188434342Y-185457200D01*
X188577200Y-185385771D01*
X188791485Y-185385771D01*
X188934342Y-185457200D01*
X189505771Y-185385771D02*
X189862914Y-186385771D01*
X190220057Y-185385771D02*
X189862914Y-186385771D01*
X189720057Y-186742914D01*
X189648628Y-186814342D01*
X189505771Y-186885771D01*
X190720057Y-186314342D02*
X190862914Y-186385771D01*
X191148628Y-186385771D01*
X191291485Y-186314342D01*
X191362914Y-186171485D01*
X191362914Y-186100057D01*
X191291485Y-185957200D01*
X191148628Y-185885771D01*
X190934342Y-185885771D01*
X190791485Y-185814342D01*
X190720057Y-185671485D01*
X190720057Y-185600057D01*
X190791485Y-185457200D01*
X190934342Y-185385771D01*
X191148628Y-185385771D01*
X191291485Y-185457200D01*
X191791485Y-185385771D02*
X192362914Y-185385771D01*
X192005771Y-184885771D02*
X192005771Y-186171485D01*
X192077200Y-186314342D01*
X192220057Y-186385771D01*
X192362914Y-186385771D01*
X193434342Y-186314342D02*
X193291485Y-186385771D01*
X193005771Y-186385771D01*
X192862914Y-186314342D01*
X192791485Y-186171485D01*
X192791485Y-185600057D01*
X192862914Y-185457200D01*
X193005771Y-185385771D01*
X193291485Y-185385771D01*
X193434342Y-185457200D01*
X193505771Y-185600057D01*
X193505771Y-185742914D01*
X192791485Y-185885771D01*
X194148628Y-186385771D02*
X194148628Y-185385771D01*
X194148628Y-185528628D02*
X194220057Y-185457200D01*
X194362914Y-185385771D01*
X194577200Y-185385771D01*
X194720057Y-185457200D01*
X194791485Y-185600057D01*
X194791485Y-186385771D01*
X194791485Y-185600057D02*
X194862914Y-185457200D01*
X195005771Y-185385771D01*
X195220057Y-185385771D01*
X195362914Y-185457200D01*
X195434342Y-185600057D01*
X195434342Y-186385771D01*
X198077200Y-186385771D02*
X197220057Y-186385771D01*
X197648628Y-186385771D02*
X197648628Y-184885771D01*
X197505771Y-185100057D01*
X197362914Y-185242914D01*
X197220057Y-185314342D01*
X199005771Y-184885771D02*
X199148628Y-184885771D01*
X199291485Y-184957200D01*
X199362914Y-185028628D01*
X199434342Y-185171485D01*
X199505771Y-185457200D01*
X199505771Y-185814342D01*
X199434342Y-186100057D01*
X199362914Y-186242914D01*
X199291485Y-186314342D01*
X199148628Y-186385771D01*
X199005771Y-186385771D01*
X198862914Y-186314342D01*
X198791485Y-186242914D01*
X198720057Y-186100057D01*
X198648628Y-185814342D01*
X198648628Y-185457200D01*
X198720057Y-185171485D01*
X198791485Y-185028628D01*
X198862914Y-184957200D01*
X199005771Y-184885771D01*
X200005771Y-186385771D02*
X200791485Y-185385771D01*
X200005771Y-185385771D02*
X200791485Y-186385771D01*
X202505771Y-185385771D02*
X202505771Y-186385771D01*
X202505771Y-185528628D02*
X202577200Y-185457200D01*
X202720057Y-185385771D01*
X202934342Y-185385771D01*
X203077200Y-185457200D01*
X203148628Y-185600057D01*
X203148628Y-186385771D01*
X204077200Y-186385771D02*
X203934342Y-186314342D01*
X203862914Y-186242914D01*
X203791485Y-186100057D01*
X203791485Y-185671485D01*
X203862914Y-185528628D01*
X203934342Y-185457200D01*
X204077200Y-185385771D01*
X204291485Y-185385771D01*
X204434342Y-185457200D01*
X204505771Y-185528628D01*
X204577200Y-185671485D01*
X204577200Y-186100057D01*
X204505771Y-186242914D01*
X204434342Y-186314342D01*
X204291485Y-186385771D01*
X204077200Y-186385771D01*
X205220057Y-185385771D02*
X205220057Y-186385771D01*
X205220057Y-185528628D02*
X205291485Y-185457200D01*
X205434342Y-185385771D01*
X205648628Y-185385771D01*
X205791485Y-185457200D01*
X205862914Y-185600057D01*
X205862914Y-186385771D01*
X207648628Y-186314342D02*
X207791485Y-186385771D01*
X208077200Y-186385771D01*
X208220057Y-186314342D01*
X208291485Y-186171485D01*
X208291485Y-186100057D01*
X208220057Y-185957200D01*
X208077200Y-185885771D01*
X207862914Y-185885771D01*
X207720057Y-185814342D01*
X207648628Y-185671485D01*
X207648628Y-185600057D01*
X207720057Y-185457200D01*
X207862914Y-185385771D01*
X208077200Y-185385771D01*
X208220057Y-185457200D01*
X208720057Y-185385771D02*
X209291485Y-185385771D01*
X208934342Y-184885771D02*
X208934342Y-186171485D01*
X209005771Y-186314342D01*
X209148628Y-186385771D01*
X209291485Y-186385771D01*
X210434342Y-186385771D02*
X210434342Y-185600057D01*
X210362914Y-185457200D01*
X210220057Y-185385771D01*
X209934342Y-185385771D01*
X209791485Y-185457200D01*
X210434342Y-186314342D02*
X210291485Y-186385771D01*
X209934342Y-186385771D01*
X209791485Y-186314342D01*
X209720057Y-186171485D01*
X209720057Y-186028628D01*
X209791485Y-185885771D01*
X209934342Y-185814342D01*
X210291485Y-185814342D01*
X210434342Y-185742914D01*
X211791485Y-186314342D02*
X211648628Y-186385771D01*
X211362914Y-186385771D01*
X211220057Y-186314342D01*
X211148628Y-186242914D01*
X211077200Y-186100057D01*
X211077200Y-185671485D01*
X211148628Y-185528628D01*
X211220057Y-185457200D01*
X211362914Y-185385771D01*
X211648628Y-185385771D01*
X211791485Y-185457200D01*
X212434342Y-186385771D02*
X212434342Y-184885771D01*
X212577200Y-185814342D02*
X213005771Y-186385771D01*
X213005771Y-185385771D02*
X212434342Y-185957200D01*
X213648628Y-186242914D02*
X213720057Y-186314342D01*
X213648628Y-186385771D01*
X213577200Y-186314342D01*
X213648628Y-186242914D01*
X213648628Y-186385771D01*
X214362914Y-186385771D02*
X214362914Y-184885771D01*
X214505771Y-185814342D02*
X214934342Y-186385771D01*
X214934342Y-185385771D02*
X214362914Y-185957200D01*
X215577200Y-186385771D02*
X215577200Y-185385771D01*
X215577200Y-184885771D02*
X215505771Y-184957200D01*
X215577200Y-185028628D01*
X215648628Y-184957200D01*
X215577200Y-184885771D01*
X215577200Y-185028628D01*
X216934342Y-186314342D02*
X216791485Y-186385771D01*
X216505771Y-186385771D01*
X216362914Y-186314342D01*
X216291485Y-186242914D01*
X216220057Y-186100057D01*
X216220057Y-185671485D01*
X216291485Y-185528628D01*
X216362914Y-185457200D01*
X216505771Y-185385771D01*
X216791485Y-185385771D01*
X216934342Y-185457200D01*
X218220057Y-186385771D02*
X218220057Y-185600057D01*
X218148628Y-185457200D01*
X218005771Y-185385771D01*
X217720057Y-185385771D01*
X217577200Y-185457200D01*
X218220057Y-186314342D02*
X218077200Y-186385771D01*
X217720057Y-186385771D01*
X217577200Y-186314342D01*
X217505771Y-186171485D01*
X217505771Y-186028628D01*
X217577200Y-185885771D01*
X217720057Y-185814342D01*
X218077200Y-185814342D01*
X218220057Y-185742914D01*
X219577200Y-186385771D02*
X219577200Y-184885771D01*
X219577200Y-186314342D02*
X219434342Y-186385771D01*
X219148628Y-186385771D01*
X219005771Y-186314342D01*
X218934342Y-186242914D01*
X218862914Y-186100057D01*
X218862914Y-185671485D01*
X218934342Y-185528628D01*
X219005771Y-185457200D01*
X219148628Y-185385771D01*
X219434342Y-185385771D01*
X219577200Y-185457200D01*
X219934342Y-186528628D02*
X221077200Y-186528628D01*
X221434342Y-185385771D02*
X221434342Y-186885771D01*
X221434342Y-185457200D02*
X221577200Y-185385771D01*
X221862914Y-185385771D01*
X222005771Y-185457200D01*
X222077200Y-185528628D01*
X222148628Y-185671485D01*
X222148628Y-186100057D01*
X222077200Y-186242914D01*
X222005771Y-186314342D01*
X221862914Y-186385771D01*
X221577200Y-186385771D01*
X221434342Y-186314342D01*
X223434342Y-186314342D02*
X223291485Y-186385771D01*
X223005771Y-186385771D01*
X222862914Y-186314342D01*
X222791485Y-186242914D01*
X222720057Y-186100057D01*
X222720057Y-185671485D01*
X222791485Y-185528628D01*
X222862914Y-185457200D01*
X223005771Y-185385771D01*
X223291485Y-185385771D01*
X223434342Y-185457200D01*
X224077200Y-186385771D02*
X224077200Y-184885771D01*
X224077200Y-185457200D02*
X224220057Y-185385771D01*
X224505771Y-185385771D01*
X224648628Y-185457200D01*
X224720057Y-185528628D01*
X224791485Y-185671485D01*
X224791485Y-186100057D01*
X224720057Y-186242914D01*
X224648628Y-186314342D01*
X224505771Y-186385771D01*
X224220057Y-186385771D01*
X224077200Y-186314342D01*
D10*
D11*
X177002200Y-181507200D02*
X285002200Y-181507200D01*
D10*
D11*
X178362914Y-183614342D02*
X178577200Y-183685771D01*
X178934342Y-183685771D01*
X179077200Y-183614342D01*
X179148628Y-183542914D01*
X179220057Y-183400057D01*
X179220057Y-183257200D01*
X179148628Y-183114342D01*
X179077200Y-183042914D01*
X178934342Y-182971485D01*
X178648628Y-182900057D01*
X178505771Y-182828628D01*
X178434342Y-182757200D01*
X178362914Y-182614342D01*
X178362914Y-182471485D01*
X178434342Y-182328628D01*
X178505771Y-182257200D01*
X178648628Y-182185771D01*
X179005771Y-182185771D01*
X179220057Y-182257200D01*
X179862914Y-183685771D02*
X179862914Y-182185771D01*
X180505771Y-183685771D02*
X180505771Y-182900057D01*
X180434342Y-182757200D01*
X180291485Y-182685771D01*
X180077200Y-182685771D01*
X179934342Y-182757200D01*
X179862914Y-182828628D01*
X181791485Y-183614342D02*
X181648628Y-183685771D01*
X181362914Y-183685771D01*
X181220057Y-183614342D01*
X181148628Y-183471485D01*
X181148628Y-182900057D01*
X181220057Y-182757200D01*
X181362914Y-182685771D01*
X181648628Y-182685771D01*
X181791485Y-182757200D01*
X181862914Y-182900057D01*
X181862914Y-183042914D01*
X181148628Y-183185771D01*
X183077200Y-183614342D02*
X182934342Y-183685771D01*
X182648628Y-183685771D01*
X182505771Y-183614342D01*
X182434342Y-183471485D01*
X182434342Y-182900057D01*
X182505771Y-182757200D01*
X182648628Y-182685771D01*
X182934342Y-182685771D01*
X183077200Y-182757200D01*
X183148628Y-182900057D01*
X183148628Y-183042914D01*
X182434342Y-183185771D01*
X183577200Y-182685771D02*
X184148628Y-182685771D01*
X183791485Y-182185771D02*
X183791485Y-183471485D01*
X183862914Y-183614342D01*
X184005771Y-183685771D01*
X184148628Y-183685771D01*
X184648628Y-183542914D02*
X184720057Y-183614342D01*
X184648628Y-183685771D01*
X184577200Y-183614342D01*
X184648628Y-183542914D01*
X184648628Y-183685771D01*
X184648628Y-182757200D02*
X184720057Y-182828628D01*
X184648628Y-182900057D01*
X184577200Y-182828628D01*
X184648628Y-182757200D01*
X184648628Y-182900057D01*
D10*
D12*
X179340057Y-179257200D02*
X179197200Y-179185771D01*
X178982914Y-179185771D01*
X178768628Y-179257200D01*
X178625771Y-179400057D01*
X178554342Y-179542914D01*
X178482914Y-179828628D01*
X178482914Y-180042914D01*
X178554342Y-180328628D01*
X178625771Y-180471485D01*
X178768628Y-180614342D01*
X178982914Y-180685771D01*
X179125771Y-180685771D01*
X179340057Y-180614342D01*
X179411485Y-180542914D01*
X179411485Y-180042914D01*
X179125771Y-180042914D01*
X179911485Y-179685771D02*
X180268628Y-180685771D01*
X180625771Y-179685771D02*
X180268628Y-180685771D01*
X180125771Y-181042914D01*
X180054342Y-181114342D01*
X179911485Y-181185771D01*
X181840057Y-179685771D02*
X181840057Y-180685771D01*
X181197200Y-179685771D02*
X181197200Y-180471485D01*
X181268628Y-180614342D01*
X181411485Y-180685771D01*
X181625771Y-180685771D01*
X181768628Y-180614342D01*
X181840057Y-180542914D01*
X182554342Y-180685771D02*
X182554342Y-179685771D01*
X182554342Y-179971485D02*
X182625771Y-179828628D01*
X182697200Y-179757200D01*
X182840057Y-179685771D01*
X182982914Y-179685771D01*
X183482914Y-180685771D02*
X183482914Y-179685771D01*
X183482914Y-179828628D02*
X183554342Y-179757200D01*
X183697200Y-179685771D01*
X183911485Y-179685771D01*
X184054342Y-179757200D01*
X184125771Y-179900057D01*
X184125771Y-180685771D01*
X184125771Y-179900057D02*
X184197200Y-179757200D01*
X184340057Y-179685771D01*
X184554342Y-179685771D01*
X184697200Y-179757200D01*
X184768628Y-179900057D01*
X184768628Y-180685771D01*
X186125771Y-180685771D02*
X186125771Y-179900057D01*
X186054342Y-179757200D01*
X185911485Y-179685771D01*
X185625771Y-179685771D01*
X185482914Y-179757200D01*
X186125771Y-180614342D02*
X185982914Y-180685771D01*
X185625771Y-180685771D01*
X185482914Y-180614342D01*
X185411485Y-180471485D01*
X185411485Y-180328628D01*
X185482914Y-180185771D01*
X185625771Y-180114342D01*
X185982914Y-180114342D01*
X186125771Y-180042914D01*
X186768628Y-180614342D02*
X186911485Y-180685771D01*
X187197200Y-180685771D01*
X187340057Y-180614342D01*
X187411485Y-180471485D01*
X187411485Y-180400057D01*
X187340057Y-180257200D01*
X187197200Y-180185771D01*
X186982914Y-180185771D01*
X186840057Y-180114342D01*
X186768628Y-179971485D01*
X186768628Y-179900057D01*
X186840057Y-179757200D01*
X186982914Y-179685771D01*
X187197200Y-179685771D01*
X187340057Y-179757200D01*
X189197200Y-179900057D02*
X189697200Y-179900057D01*
X189911485Y-180685771D02*
X189197200Y-180685771D01*
X189197200Y-179185771D01*
X189911485Y-179185771D01*
X190768628Y-180685771D02*
X190625771Y-180614342D01*
X190554342Y-180471485D01*
X190554342Y-179185771D01*
X191911485Y-180614342D02*
X191768628Y-180685771D01*
X191482914Y-180685771D01*
X191340057Y-180614342D01*
X191268628Y-180471485D01*
X191268628Y-179900057D01*
X191340057Y-179757200D01*
X191482914Y-179685771D01*
X191768628Y-179685771D01*
X191911485Y-179757200D01*
X191982914Y-179900057D01*
X191982914Y-180042914D01*
X191268628Y-180185771D01*
X193268628Y-180614342D02*
X193125771Y-180685771D01*
X192840057Y-180685771D01*
X192697200Y-180614342D01*
X192625771Y-180542914D01*
X192554342Y-180400057D01*
X192554342Y-179971485D01*
X192625771Y-179828628D01*
X192697200Y-179757200D01*
X192840057Y-179685771D01*
X193125771Y-179685771D01*
X193268628Y-179757200D01*
X193697200Y-179685771D02*
X194268628Y-179685771D01*
X193911485Y-179185771D02*
X193911485Y-180471485D01*
X193982914Y-180614342D01*
X194125771Y-180685771D01*
X194268628Y-180685771D01*
X194768628Y-180685771D02*
X194768628Y-179685771D01*
X194768628Y-179971485D02*
X194840057Y-179828628D01*
X194911485Y-179757200D01*
X195054342Y-179685771D01*
X195197200Y-179685771D01*
X195911485Y-180685771D02*
X195768628Y-180614342D01*
X195697200Y-180542914D01*
X195625771Y-180400057D01*
X195625771Y-179971485D01*
X195697200Y-179828628D01*
X195768628Y-179757200D01*
X195911485Y-179685771D01*
X196125771Y-179685771D01*
X196268628Y-179757200D01*
X196340057Y-179828628D01*
X196411485Y-179971485D01*
X196411485Y-180400057D01*
X196340057Y-180542914D01*
X196268628Y-180614342D01*
X196125771Y-180685771D01*
X195911485Y-180685771D01*
X197054342Y-179685771D02*
X197054342Y-180685771D01*
X197054342Y-179828628D02*
X197125771Y-179757200D01*
X197268628Y-179685771D01*
X197482914Y-179685771D01*
X197625771Y-179757200D01*
X197697200Y-179900057D01*
X197697200Y-180685771D01*
X198411485Y-180685771D02*
X198411485Y-179685771D01*
X198411485Y-179185771D02*
X198340057Y-179257200D01*
X198411485Y-179328628D01*
X198482914Y-179257200D01*
X198411485Y-179185771D01*
X198411485Y-179328628D01*
X199768628Y-180614342D02*
X199625771Y-180685771D01*
X199340057Y-180685771D01*
X199197200Y-180614342D01*
X199125771Y-180542914D01*
X199054342Y-180400057D01*
X199054342Y-179971485D01*
X199125771Y-179828628D01*
X199197200Y-179757200D01*
X199340057Y-179685771D01*
X199625771Y-179685771D01*
X199768628Y-179757200D01*
X200340057Y-180614342D02*
X200482914Y-180685771D01*
X200768628Y-180685771D01*
X200911485Y-180614342D01*
X200982914Y-180471485D01*
X200982914Y-180400057D01*
X200911485Y-180257200D01*
X200768628Y-180185771D01*
X200554342Y-180185771D01*
X200411485Y-180114342D01*
X200340057Y-179971485D01*
X200340057Y-179900057D01*
X200411485Y-179757200D01*
X200554342Y-179685771D01*
X200768628Y-179685771D01*
X200911485Y-179757200D01*
D10*
D11*
X197002200Y-191507200D02*
X197002200Y-194507200D01*
D10*
D11*
X261002200Y-191507200D02*
X261002200Y-198007200D01*
X202904761Y-46547619D02*
X202952380Y-46500000D01*
X203047619Y-46452380D01*
X203285714Y-46452380D01*
X203380952Y-46500000D01*
X203428571Y-46547619D01*
X203476190Y-46642857D01*
X203476190Y-46738095D01*
X203428571Y-46880952D01*
X202857142Y-47452380D01*
X203476190Y-47452380D01*
X204095238Y-46452380D02*
X204190476Y-46452380D01*
X204285714Y-46500000D01*
X204333333Y-46547619D01*
X204380952Y-46642857D01*
X204428571Y-46833333D01*
X204428571Y-47071428D01*
X204380952Y-47261904D01*
X204333333Y-47357142D01*
X204285714Y-47404761D01*
X204190476Y-47452380D01*
X204095238Y-47452380D01*
X204000000Y-47404761D01*
X203952380Y-47357142D01*
X203904761Y-47261904D01*
X203857142Y-47071428D01*
X203857142Y-46833333D01*
X203904761Y-46642857D01*
X203952380Y-46547619D01*
X204000000Y-46500000D01*
X204095238Y-46452380D01*
X204809523Y-46547619D02*
X204857142Y-46500000D01*
X204952380Y-46452380D01*
X205190476Y-46452380D01*
X205285714Y-46500000D01*
X205333333Y-46547619D01*
X205380952Y-46642857D01*
X205380952Y-46738095D01*
X205333333Y-46880952D01*
X204761904Y-47452380D01*
X205380952Y-47452380D01*
X206333333Y-47452380D02*
X205761904Y-47452380D01*
X206047619Y-47452380D02*
X206047619Y-46452380D01*
X205952380Y-46595238D01*
X205857142Y-46690476D01*
X205761904Y-46738095D01*
X206761904Y-47357142D02*
X206809523Y-47404761D01*
X206761904Y-47452380D01*
X206714285Y-47404761D01*
X206761904Y-47357142D01*
X206761904Y-47452380D01*
X207428571Y-46452380D02*
X207523809Y-46452380D01*
X207619047Y-46500000D01*
X207666666Y-46547619D01*
X207714285Y-46642857D01*
X207761904Y-46833333D01*
X207761904Y-47071428D01*
X207714285Y-47261904D01*
X207666666Y-47357142D01*
X207619047Y-47404761D01*
X207523809Y-47452380D01*
X207428571Y-47452380D01*
X207333333Y-47404761D01*
X207285714Y-47357142D01*
X207238095Y-47261904D01*
X207190476Y-47071428D01*
X207190476Y-46833333D01*
X207238095Y-46642857D01*
X207285714Y-46547619D01*
X207333333Y-46500000D01*
X207428571Y-46452380D01*
X208095238Y-46452380D02*
X208761904Y-46452380D01*
X208333333Y-47452380D01*
X209142857Y-47357142D02*
X209190476Y-47404761D01*
X209142857Y-47452380D01*
X209095238Y-47404761D01*
X209142857Y-47357142D01*
X209142857Y-47452380D01*
X209809523Y-46452380D02*
X209904761Y-46452380D01*
X210000000Y-46500000D01*
X210047619Y-46547619D01*
X210095238Y-46642857D01*
X210142857Y-46833333D01*
X210142857Y-47071428D01*
X210095238Y-47261904D01*
X210047619Y-47357142D01*
X210000000Y-47404761D01*
X209904761Y-47452380D01*
X209809523Y-47452380D01*
X209714285Y-47404761D01*
X209666666Y-47357142D01*
X209619047Y-47261904D01*
X209571428Y-47071428D01*
X209571428Y-46833333D01*
X209619047Y-46642857D01*
X209666666Y-46547619D01*
X209714285Y-46500000D01*
X209809523Y-46452380D01*
X210714285Y-46880952D02*
X210619047Y-46833333D01*
X210571428Y-46785714D01*
X210523809Y-46690476D01*
X210523809Y-46642857D01*
X210571428Y-46547619D01*
X210619047Y-46500000D01*
X210714285Y-46452380D01*
X210904761Y-46452380D01*
X211000000Y-46500000D01*
X211047619Y-46547619D01*
X211095238Y-46642857D01*
X211095238Y-46690476D01*
X211047619Y-46785714D01*
X211000000Y-46833333D01*
X210904761Y-46880952D01*
X210714285Y-46880952D01*
X210619047Y-46928571D01*
X210571428Y-46976190D01*
X210523809Y-47071428D01*
X210523809Y-47261904D01*
X210571428Y-47357142D01*
X210619047Y-47404761D01*
X210714285Y-47452380D01*
X210904761Y-47452380D01*
X211000000Y-47404761D01*
X211047619Y-47357142D01*
X211095238Y-47261904D01*
X211095238Y-47071428D01*
X211047619Y-46976190D01*
X211000000Y-46928571D01*
X210904761Y-46880952D01*
D12*
X105761904Y-46000000D02*
X105571428Y-45904761D01*
X105285714Y-45904761D01*
X104999999Y-46000000D01*
X104809523Y-46190476D01*
X104714285Y-46380952D01*
X104619047Y-46761904D01*
X104619047Y-47047619D01*
X104714285Y-47428571D01*
X104809523Y-47619047D01*
X104999999Y-47809523D01*
X105285714Y-47904761D01*
X105476190Y-47904761D01*
X105761904Y-47809523D01*
X105857142Y-47714285D01*
X105857142Y-47047619D01*
X105476190Y-47047619D01*
X106523809Y-46571428D02*
X106999999Y-47904761D01*
X107476190Y-46571428D02*
X106999999Y-47904761D01*
X106809523Y-48380952D01*
X106714285Y-48476190D01*
X106523809Y-48571428D01*
X109095238Y-46571428D02*
X109095238Y-47904761D01*
X108238095Y-46571428D02*
X108238095Y-47619047D01*
X108333333Y-47809523D01*
X108523809Y-47904761D01*
X108809523Y-47904761D01*
X108999999Y-47809523D01*
X109095238Y-47714285D01*
X110047619Y-47904761D02*
X110047619Y-46571428D01*
X110047619Y-46952380D02*
X110142857Y-46761904D01*
X110238095Y-46666666D01*
X110428571Y-46571428D01*
X110619047Y-46571428D01*
X111285714Y-47904761D02*
X111285714Y-46571428D01*
X111285714Y-46761904D02*
X111380952Y-46666666D01*
X111571428Y-46571428D01*
X111857142Y-46571428D01*
X112047619Y-46666666D01*
X112142857Y-46857142D01*
X112142857Y-47904761D01*
X112142857Y-46857142D02*
X112238095Y-46666666D01*
X112428571Y-46571428D01*
X112714285Y-46571428D01*
X112904761Y-46666666D01*
X112999999Y-46857142D01*
X112999999Y-47904761D01*
X114809523Y-47904761D02*
X114809523Y-46857142D01*
X114714285Y-46666666D01*
X114523809Y-46571428D01*
X114142857Y-46571428D01*
X113952380Y-46666666D01*
X114809523Y-47809523D02*
X114619047Y-47904761D01*
X114142857Y-47904761D01*
X113952380Y-47809523D01*
X113857142Y-47619047D01*
X113857142Y-47428571D01*
X113952380Y-47238095D01*
X114142857Y-47142857D01*
X114619047Y-47142857D01*
X114809523Y-47047619D01*
X115666666Y-47809523D02*
X115857142Y-47904761D01*
X116238095Y-47904761D01*
X116428571Y-47809523D01*
X116523809Y-47619047D01*
X116523809Y-47523809D01*
X116428571Y-47333333D01*
X116238095Y-47238095D01*
X115952380Y-47238095D01*
X115761904Y-47142857D01*
X115666666Y-46952380D01*
X115666666Y-46857142D01*
X115761904Y-46666666D01*
X115952380Y-46571428D01*
X116238095Y-46571428D01*
X116428571Y-46666666D01*
X118904761Y-46857142D02*
X119571428Y-46857142D01*
X119857142Y-47904761D02*
X118904761Y-47904761D01*
X118904761Y-45904761D01*
X119857142Y-45904761D01*
X120999999Y-47904761D02*
X120809523Y-47809523D01*
X120714285Y-47619047D01*
X120714285Y-45904761D01*
X122523809Y-47809523D02*
X122333333Y-47904761D01*
X121952380Y-47904761D01*
X121761904Y-47809523D01*
X121666666Y-47619047D01*
X121666666Y-46857142D01*
X121761904Y-46666666D01*
X121952380Y-46571428D01*
X122333333Y-46571428D01*
X122523809Y-46666666D01*
X122619047Y-46857142D01*
X122619047Y-47047619D01*
X121666666Y-47238095D01*
X124333333Y-47809523D02*
X124142857Y-47904761D01*
X123761904Y-47904761D01*
X123571428Y-47809523D01*
X123476190Y-47714285D01*
X123380952Y-47523809D01*
X123380952Y-46952380D01*
X123476190Y-46761904D01*
X123571428Y-46666666D01*
X123761904Y-46571428D01*
X124142857Y-46571428D01*
X124333333Y-46666666D01*
X124904761Y-46571428D02*
X125666666Y-46571428D01*
X125190476Y-45904761D02*
X125190476Y-47619047D01*
X125285714Y-47809523D01*
X125476190Y-47904761D01*
X125666666Y-47904761D01*
X126333333Y-47904761D02*
X126333333Y-46571428D01*
X126333333Y-46952380D02*
X126428571Y-46761904D01*
X126523809Y-46666666D01*
X126714285Y-46571428D01*
X126904761Y-46571428D01*
X127857142Y-47904761D02*
X127666666Y-47809523D01*
X127571428Y-47714285D01*
X127476190Y-47523809D01*
X127476190Y-46952380D01*
X127571428Y-46761904D01*
X127666666Y-46666666D01*
X127857142Y-46571428D01*
X128142857Y-46571428D01*
X128333333Y-46666666D01*
X128428571Y-46761904D01*
X128523809Y-46952380D01*
X128523809Y-47523809D01*
X128428571Y-47714285D01*
X128333333Y-47809523D01*
X128142857Y-47904761D01*
X127857142Y-47904761D01*
X129380952Y-46571428D02*
X129380952Y-47904761D01*
X129380952Y-46761904D02*
X129476190Y-46666666D01*
X129666666Y-46571428D01*
X129952380Y-46571428D01*
X130142857Y-46666666D01*
X130238095Y-46857142D01*
X130238095Y-47904761D01*
X131190476Y-47904761D02*
X131190476Y-46571428D01*
X131190476Y-45904761D02*
X131095238Y-46000000D01*
X131190476Y-46095238D01*
X131285714Y-46000000D01*
X131190476Y-45904761D01*
X131190476Y-46095238D01*
X131952380Y-47904761D02*
X132999999Y-46571428D01*
X131952380Y-46571428D02*
X132999999Y-47904761D01*
X135952380Y-46857142D02*
X136238095Y-46952380D01*
X136333333Y-47047619D01*
X136428571Y-47238095D01*
X136428571Y-47523809D01*
X136333333Y-47714285D01*
X136238095Y-47809523D01*
X136047619Y-47904761D01*
X135285714Y-47904761D01*
X135285714Y-45904761D01*
X135952380Y-45904761D01*
X136142857Y-46000000D01*
X136238095Y-46095238D01*
X136333333Y-46285714D01*
X136333333Y-46476190D01*
X136238095Y-46666666D01*
X136142857Y-46761904D01*
X135952380Y-46857142D01*
X135285714Y-46857142D01*
X138142857Y-46571428D02*
X138142857Y-47904761D01*
X137285714Y-46571428D02*
X137285714Y-47619047D01*
X137380952Y-47809523D01*
X137571428Y-47904761D01*
X137857142Y-47904761D01*
X138047619Y-47809523D01*
X138142857Y-47714285D01*
X138999999Y-47809523D02*
X139190476Y-47904761D01*
X139571428Y-47904761D01*
X139761904Y-47809523D01*
X139857142Y-47619047D01*
X139857142Y-47523809D01*
X139761904Y-47333333D01*
X139571428Y-47238095D01*
X139285714Y-47238095D01*
X139095238Y-47142857D01*
X138999999Y-46952380D01*
X138999999Y-46857142D01*
X139095238Y-46666666D01*
X139285714Y-46571428D01*
X139571428Y-46571428D01*
X139761904Y-46666666D01*
X140619047Y-47809523D02*
X140809523Y-47904761D01*
X141190476Y-47904761D01*
X141380952Y-47809523D01*
X141476190Y-47619047D01*
X141476190Y-47523809D01*
X141380952Y-47333333D01*
X141190476Y-47238095D01*
X140904761Y-47238095D01*
X140714285Y-47142857D01*
X140619047Y-46952380D01*
X140619047Y-46857142D01*
X140714285Y-46666666D01*
X140904761Y-46571428D01*
X141190476Y-46571428D01*
X141380952Y-46666666D01*
X142142857Y-46571428D02*
X142619047Y-47904761D01*
X143095238Y-46571428D02*
X142619047Y-47904761D01*
X142428571Y-48380952D01*
X142333333Y-48476190D01*
X142142857Y-48571428D01*
X143761904Y-47809523D02*
X143952380Y-47904761D01*
X144333333Y-47904761D01*
X144523809Y-47809523D01*
X144619047Y-47619047D01*
X144619047Y-47523809D01*
X144523809Y-47333333D01*
X144333333Y-47238095D01*
X144047619Y-47238095D01*
X143857142Y-47142857D01*
X143761904Y-46952380D01*
X143761904Y-46857142D01*
X143857142Y-46666666D01*
X144047619Y-46571428D01*
X144333333Y-46571428D01*
X144523809Y-46666666D01*
X145190476Y-46571428D02*
X145952380Y-46571428D01*
X145476190Y-45904761D02*
X145476190Y-47619047D01*
X145571428Y-47809523D01*
X145761904Y-47904761D01*
X145952380Y-47904761D01*
X147380952Y-47809523D02*
X147190476Y-47904761D01*
X146809523Y-47904761D01*
X146619047Y-47809523D01*
X146523809Y-47619047D01*
X146523809Y-46857142D01*
X146619047Y-46666666D01*
X146809523Y-46571428D01*
X147190476Y-46571428D01*
X147380952Y-46666666D01*
X147476190Y-46857142D01*
X147476190Y-47047619D01*
X146523809Y-47238095D01*
X148333333Y-47904761D02*
X148333333Y-46571428D01*
X148333333Y-46761904D02*
X148428571Y-46666666D01*
X148619047Y-46571428D01*
X148904761Y-46571428D01*
X149095238Y-46666666D01*
X149190476Y-46857142D01*
X149190476Y-47904761D01*
X149190476Y-46857142D02*
X149285714Y-46666666D01*
X149476190Y-46571428D01*
X149761904Y-46571428D01*
X149952380Y-46666666D01*
X150047619Y-46857142D01*
X150047619Y-47904761D01*
X153571428Y-47904761D02*
X152428571Y-47904761D01*
X152999999Y-47904761D02*
X152999999Y-45904761D01*
X152809523Y-46190476D01*
X152619047Y-46380952D01*
X152428571Y-46476190D01*
X154809523Y-45904761D02*
X154999999Y-45904761D01*
X155190476Y-46000000D01*
X155285714Y-46095238D01*
X155380952Y-46285714D01*
X155476190Y-46666666D01*
X155476190Y-47142857D01*
X155380952Y-47523809D01*
X155285714Y-47714285D01*
X155190476Y-47809523D01*
X154999999Y-47904761D01*
X154809523Y-47904761D01*
X154619047Y-47809523D01*
X154523809Y-47714285D01*
X154428571Y-47523809D01*
X154333333Y-47142857D01*
X154333333Y-46666666D01*
X154428571Y-46285714D01*
X154523809Y-46095238D01*
X154619047Y-46000000D01*
X154809523Y-45904761D01*
X156142857Y-47904761D02*
X157190476Y-46571428D01*
X156142857Y-46571428D02*
X157190476Y-47904761D01*
X166714285Y-47904761D02*
X166047619Y-46952380D01*
X165571428Y-47904761D02*
X165571428Y-45904761D01*
X166333333Y-45904761D01*
X166523809Y-46000000D01*
X166619047Y-46095238D01*
X166714285Y-46285714D01*
X166714285Y-46571428D01*
X166619047Y-46761904D01*
X166523809Y-46857142D01*
X166333333Y-46952380D01*
X165571428Y-46952380D01*
X168333333Y-47809523D02*
X168142857Y-47904761D01*
X167761904Y-47904761D01*
X167571428Y-47809523D01*
X167476190Y-47619047D01*
X167476190Y-46857142D01*
X167571428Y-46666666D01*
X167761904Y-46571428D01*
X168142857Y-46571428D01*
X168333333Y-46666666D01*
X168428571Y-46857142D01*
X168428571Y-47047619D01*
X167476190Y-47238095D01*
X169095238Y-46571428D02*
X169571428Y-47904761D01*
X170047619Y-46571428D01*
X173380952Y-47904761D02*
X172238095Y-47904761D01*
X172809523Y-47904761D02*
X172809523Y-45904761D01*
X172619047Y-46190476D01*
X172428571Y-46380952D01*
X172238095Y-46476190D01*
D11*
%TO.C,DRA2*%
X140000000Y-101500000D02*
X140000000Y-96500000D01*
X130000000Y-101500000D02*
X140000000Y-101500000D01*
X130000000Y-96500000D02*
X130000000Y-101500000D01*
X130000000Y-96500000D02*
X130000000Y-53500000D01*
X140000000Y-96500000D02*
X130000000Y-96500000D01*
X140000000Y-53500000D02*
X140000000Y-96500000D01*
X130000000Y-53500000D02*
X140000000Y-53500000D01*
%TO.C,DRA3*%
X60000000Y-101500000D02*
X60000000Y-96500000D01*
X50000000Y-101500000D02*
X60000000Y-101500000D01*
X50000000Y-96500000D02*
X50000000Y-101500000D01*
X50000000Y-96500000D02*
X50000000Y-53500000D01*
X60000000Y-96500000D02*
X50000000Y-96500000D01*
X60000000Y-53500000D02*
X60000000Y-96500000D01*
X50000000Y-53500000D02*
X60000000Y-53500000D01*
%TO.C,DRA1*%
X220000000Y-101500000D02*
X220000000Y-96500000D01*
X210000000Y-101500000D02*
X220000000Y-101500000D01*
X210000000Y-96500000D02*
X210000000Y-101500000D01*
X210000000Y-96500000D02*
X210000000Y-53500000D01*
X220000000Y-96500000D02*
X210000000Y-96500000D01*
X220000000Y-53500000D02*
X220000000Y-96500000D01*
X210000000Y-53500000D02*
X220000000Y-53500000D01*
D14*
%TO.C,J1*%
X46300000Y-49440000D02*
G75*
G03*
X46300000Y-49440000I-100000J0D01*
G01*
X43400000Y-106190000D02*
X40115000Y-106190000D01*
X48715000Y-106190000D02*
X46800000Y-106190000D01*
X48715000Y-103750000D02*
X48715000Y-106190000D01*
X48715000Y-50190000D02*
X48715000Y-52840000D01*
X40115000Y-50190000D02*
X48715000Y-50190000D01*
X40115000Y-106190000D02*
X40115000Y-50190000D01*
%TO.C,J2*%
X60115000Y-106190000D02*
X60115000Y-50190000D01*
X60115000Y-50190000D02*
X68715000Y-50190000D01*
X68715000Y-50190000D02*
X68715000Y-52840000D01*
X68715000Y-103750000D02*
X68715000Y-106190000D01*
X68715000Y-106190000D02*
X66800000Y-106190000D01*
X63400000Y-106190000D02*
X60115000Y-106190000D01*
X66300000Y-49440000D02*
G75*
G03*
X66300000Y-49440000I-100000J0D01*
G01*
%TO.C,J3*%
X86300000Y-49440000D02*
G75*
G03*
X86300000Y-49440000I-100000J0D01*
G01*
X83400000Y-106190000D02*
X80115000Y-106190000D01*
X88715000Y-106190000D02*
X86800000Y-106190000D01*
X88715000Y-103750000D02*
X88715000Y-106190000D01*
X88715000Y-50190000D02*
X88715000Y-52840000D01*
X80115000Y-50190000D02*
X88715000Y-50190000D01*
X80115000Y-106190000D02*
X80115000Y-50190000D01*
%TO.C,J4*%
X100115000Y-106190000D02*
X100115000Y-50190000D01*
X100115000Y-50190000D02*
X108715000Y-50190000D01*
X108715000Y-50190000D02*
X108715000Y-52840000D01*
X108715000Y-103750000D02*
X108715000Y-106190000D01*
X108715000Y-106190000D02*
X106800000Y-106190000D01*
X103400000Y-106190000D02*
X100115000Y-106190000D01*
X106300000Y-49440000D02*
G75*
G03*
X106300000Y-49440000I-100000J0D01*
G01*
%TO.C,J5*%
X126300000Y-49440000D02*
G75*
G03*
X126300000Y-49440000I-100000J0D01*
G01*
X123400000Y-106190000D02*
X120115000Y-106190000D01*
X128715000Y-106190000D02*
X126800000Y-106190000D01*
X128715000Y-103750000D02*
X128715000Y-106190000D01*
X128715000Y-50190000D02*
X128715000Y-52840000D01*
X120115000Y-50190000D02*
X128715000Y-50190000D01*
X120115000Y-106190000D02*
X120115000Y-50190000D01*
%TO.C,J6*%
X140115000Y-106190000D02*
X140115000Y-50190000D01*
X140115000Y-50190000D02*
X148715000Y-50190000D01*
X148715000Y-50190000D02*
X148715000Y-52840000D01*
X148715000Y-103750000D02*
X148715000Y-106190000D01*
X148715000Y-106190000D02*
X146800000Y-106190000D01*
X143400000Y-106190000D02*
X140115000Y-106190000D01*
X146300000Y-49440000D02*
G75*
G03*
X146300000Y-49440000I-100000J0D01*
G01*
%TO.C,J7*%
X166300000Y-49440000D02*
G75*
G03*
X166300000Y-49440000I-100000J0D01*
G01*
X163400000Y-106190000D02*
X160115000Y-106190000D01*
X168715000Y-106190000D02*
X166800000Y-106190000D01*
X168715000Y-103750000D02*
X168715000Y-106190000D01*
X168715000Y-50190000D02*
X168715000Y-52840000D01*
X160115000Y-50190000D02*
X168715000Y-50190000D01*
X160115000Y-106190000D02*
X160115000Y-50190000D01*
%TO.C,J8*%
X180115000Y-106190000D02*
X180115000Y-50190000D01*
X180115000Y-50190000D02*
X188715000Y-50190000D01*
X188715000Y-50190000D02*
X188715000Y-52840000D01*
X188715000Y-103750000D02*
X188715000Y-106190000D01*
X188715000Y-106190000D02*
X186800000Y-106190000D01*
X183400000Y-106190000D02*
X180115000Y-106190000D01*
X186300000Y-49440000D02*
G75*
G03*
X186300000Y-49440000I-100000J0D01*
G01*
%TO.C,J9*%
X206300000Y-49440000D02*
G75*
G03*
X206300000Y-49440000I-100000J0D01*
G01*
X203400000Y-106190000D02*
X200115000Y-106190000D01*
X208715000Y-106190000D02*
X206800000Y-106190000D01*
X208715000Y-103750000D02*
X208715000Y-106190000D01*
X208715000Y-50190000D02*
X208715000Y-52840000D01*
X200115000Y-50190000D02*
X208715000Y-50190000D01*
X200115000Y-106190000D02*
X200115000Y-50190000D01*
%TO.C,J10*%
X220115000Y-106190000D02*
X220115000Y-50190000D01*
X220115000Y-50190000D02*
X228715000Y-50190000D01*
X228715000Y-50190000D02*
X228715000Y-52840000D01*
X228715000Y-103750000D02*
X228715000Y-106190000D01*
X228715000Y-106190000D02*
X226800000Y-106190000D01*
X223400000Y-106190000D02*
X220115000Y-106190000D01*
X226300000Y-49440000D02*
G75*
G03*
X226300000Y-49440000I-100000J0D01*
G01*
%TO.C,DRA2*%
D11*
X131333333Y-83452380D02*
X131333333Y-82452380D01*
X131571428Y-82452380D01*
X131714285Y-82500000D01*
X131809523Y-82595238D01*
X131857142Y-82690476D01*
X131904761Y-82880952D01*
X131904761Y-83023809D01*
X131857142Y-83214285D01*
X131809523Y-83309523D01*
X131714285Y-83404761D01*
X131571428Y-83452380D01*
X131333333Y-83452380D01*
X132904761Y-83452380D02*
X132571428Y-82976190D01*
X132333333Y-83452380D02*
X132333333Y-82452380D01*
X132714285Y-82452380D01*
X132809523Y-82500000D01*
X132857142Y-82547619D01*
X132904761Y-82642857D01*
X132904761Y-82785714D01*
X132857142Y-82880952D01*
X132809523Y-82928571D01*
X132714285Y-82976190D01*
X132333333Y-82976190D01*
X133285714Y-83166666D02*
X133761904Y-83166666D01*
X133190476Y-83452380D02*
X133523809Y-82452380D01*
X133857142Y-83452380D01*
X134142857Y-82547619D02*
X134190476Y-82500000D01*
X134285714Y-82452380D01*
X134523809Y-82452380D01*
X134619047Y-82500000D01*
X134666666Y-82547619D01*
X134714285Y-82642857D01*
X134714285Y-82738095D01*
X134666666Y-82880952D01*
X134095238Y-83452380D01*
X134714285Y-83452380D01*
%TO.C,DRA3*%
X51333333Y-83452380D02*
X51333333Y-82452380D01*
X51571428Y-82452380D01*
X51714285Y-82500000D01*
X51809523Y-82595238D01*
X51857142Y-82690476D01*
X51904761Y-82880952D01*
X51904761Y-83023809D01*
X51857142Y-83214285D01*
X51809523Y-83309523D01*
X51714285Y-83404761D01*
X51571428Y-83452380D01*
X51333333Y-83452380D01*
X52904761Y-83452380D02*
X52571428Y-82976190D01*
X52333333Y-83452380D02*
X52333333Y-82452380D01*
X52714285Y-82452380D01*
X52809523Y-82500000D01*
X52857142Y-82547619D01*
X52904761Y-82642857D01*
X52904761Y-82785714D01*
X52857142Y-82880952D01*
X52809523Y-82928571D01*
X52714285Y-82976190D01*
X52333333Y-82976190D01*
X53285714Y-83166666D02*
X53761904Y-83166666D01*
X53190476Y-83452380D02*
X53523809Y-82452380D01*
X53857142Y-83452380D01*
X54095238Y-82452380D02*
X54714285Y-82452380D01*
X54380952Y-82833333D01*
X54523809Y-82833333D01*
X54619047Y-82880952D01*
X54666666Y-82928571D01*
X54714285Y-83023809D01*
X54714285Y-83261904D01*
X54666666Y-83357142D01*
X54619047Y-83404761D01*
X54523809Y-83452380D01*
X54238095Y-83452380D01*
X54142857Y-83404761D01*
X54095238Y-83357142D01*
%TO.C,DRA1*%
X211333333Y-83452380D02*
X211333333Y-82452380D01*
X211571428Y-82452380D01*
X211714285Y-82500000D01*
X211809523Y-82595238D01*
X211857142Y-82690476D01*
X211904761Y-82880952D01*
X211904761Y-83023809D01*
X211857142Y-83214285D01*
X211809523Y-83309523D01*
X211714285Y-83404761D01*
X211571428Y-83452380D01*
X211333333Y-83452380D01*
X212904761Y-83452380D02*
X212571428Y-82976190D01*
X212333333Y-83452380D02*
X212333333Y-82452380D01*
X212714285Y-82452380D01*
X212809523Y-82500000D01*
X212857142Y-82547619D01*
X212904761Y-82642857D01*
X212904761Y-82785714D01*
X212857142Y-82880952D01*
X212809523Y-82928571D01*
X212714285Y-82976190D01*
X212333333Y-82976190D01*
X213285714Y-83166666D02*
X213761904Y-83166666D01*
X213190476Y-83452380D02*
X213523809Y-82452380D01*
X213857142Y-83452380D01*
X214714285Y-83452380D02*
X214142857Y-83452380D01*
X214428571Y-83452380D02*
X214428571Y-82452380D01*
X214333333Y-82595238D01*
X214238095Y-82690476D01*
X214142857Y-82738095D01*
%TO.C,J1*%
D15*
X38217380Y-103158333D02*
X38931666Y-103158333D01*
X39074523Y-103205952D01*
X39169761Y-103301190D01*
X39217380Y-103444047D01*
X39217380Y-103539285D01*
X39217380Y-102158333D02*
X39217380Y-102729761D01*
X39217380Y-102444047D02*
X38217380Y-102444047D01*
X38360238Y-102539285D01*
X38455476Y-102634523D01*
X38503095Y-102729761D01*
%TO.C,J2*%
X58217380Y-103158333D02*
X58931666Y-103158333D01*
X59074523Y-103205952D01*
X59169761Y-103301190D01*
X59217380Y-103444047D01*
X59217380Y-103539285D01*
X58312619Y-102729761D02*
X58265000Y-102682142D01*
X58217380Y-102586904D01*
X58217380Y-102348809D01*
X58265000Y-102253571D01*
X58312619Y-102205952D01*
X58407857Y-102158333D01*
X58503095Y-102158333D01*
X58645952Y-102205952D01*
X59217380Y-102777380D01*
X59217380Y-102158333D01*
%TO.C,J3*%
X78217380Y-103158333D02*
X78931666Y-103158333D01*
X79074523Y-103205952D01*
X79169761Y-103301190D01*
X79217380Y-103444047D01*
X79217380Y-103539285D01*
X78217380Y-102777380D02*
X78217380Y-102158333D01*
X78598333Y-102491666D01*
X78598333Y-102348809D01*
X78645952Y-102253571D01*
X78693571Y-102205952D01*
X78788809Y-102158333D01*
X79026904Y-102158333D01*
X79122142Y-102205952D01*
X79169761Y-102253571D01*
X79217380Y-102348809D01*
X79217380Y-102634523D01*
X79169761Y-102729761D01*
X79122142Y-102777380D01*
%TO.C,J4*%
X98217380Y-103158333D02*
X98931666Y-103158333D01*
X99074523Y-103205952D01*
X99169761Y-103301190D01*
X99217380Y-103444047D01*
X99217380Y-103539285D01*
X98550714Y-102253571D02*
X99217380Y-102253571D01*
X98169761Y-102491666D02*
X98884047Y-102729761D01*
X98884047Y-102110714D01*
%TO.C,J5*%
X118217380Y-103158333D02*
X118931666Y-103158333D01*
X119074523Y-103205952D01*
X119169761Y-103301190D01*
X119217380Y-103444047D01*
X119217380Y-103539285D01*
X118217380Y-102205952D02*
X118217380Y-102682142D01*
X118693571Y-102729761D01*
X118645952Y-102682142D01*
X118598333Y-102586904D01*
X118598333Y-102348809D01*
X118645952Y-102253571D01*
X118693571Y-102205952D01*
X118788809Y-102158333D01*
X119026904Y-102158333D01*
X119122142Y-102205952D01*
X119169761Y-102253571D01*
X119217380Y-102348809D01*
X119217380Y-102586904D01*
X119169761Y-102682142D01*
X119122142Y-102729761D01*
%TO.C,J6*%
X138217380Y-103158333D02*
X138931666Y-103158333D01*
X139074523Y-103205952D01*
X139169761Y-103301190D01*
X139217380Y-103444047D01*
X139217380Y-103539285D01*
X138217380Y-102253571D02*
X138217380Y-102444047D01*
X138265000Y-102539285D01*
X138312619Y-102586904D01*
X138455476Y-102682142D01*
X138645952Y-102729761D01*
X139026904Y-102729761D01*
X139122142Y-102682142D01*
X139169761Y-102634523D01*
X139217380Y-102539285D01*
X139217380Y-102348809D01*
X139169761Y-102253571D01*
X139122142Y-102205952D01*
X139026904Y-102158333D01*
X138788809Y-102158333D01*
X138693571Y-102205952D01*
X138645952Y-102253571D01*
X138598333Y-102348809D01*
X138598333Y-102539285D01*
X138645952Y-102634523D01*
X138693571Y-102682142D01*
X138788809Y-102729761D01*
%TO.C,J7*%
X158217380Y-103158333D02*
X158931666Y-103158333D01*
X159074523Y-103205952D01*
X159169761Y-103301190D01*
X159217380Y-103444047D01*
X159217380Y-103539285D01*
X158217380Y-102777380D02*
X158217380Y-102110714D01*
X159217380Y-102539285D01*
%TO.C,J8*%
X178217380Y-103158333D02*
X178931666Y-103158333D01*
X179074523Y-103205952D01*
X179169761Y-103301190D01*
X179217380Y-103444047D01*
X179217380Y-103539285D01*
X178645952Y-102539285D02*
X178598333Y-102634523D01*
X178550714Y-102682142D01*
X178455476Y-102729761D01*
X178407857Y-102729761D01*
X178312619Y-102682142D01*
X178265000Y-102634523D01*
X178217380Y-102539285D01*
X178217380Y-102348809D01*
X178265000Y-102253571D01*
X178312619Y-102205952D01*
X178407857Y-102158333D01*
X178455476Y-102158333D01*
X178550714Y-102205952D01*
X178598333Y-102253571D01*
X178645952Y-102348809D01*
X178645952Y-102539285D01*
X178693571Y-102634523D01*
X178741190Y-102682142D01*
X178836428Y-102729761D01*
X179026904Y-102729761D01*
X179122142Y-102682142D01*
X179169761Y-102634523D01*
X179217380Y-102539285D01*
X179217380Y-102348809D01*
X179169761Y-102253571D01*
X179122142Y-102205952D01*
X179026904Y-102158333D01*
X178836428Y-102158333D01*
X178741190Y-102205952D01*
X178693571Y-102253571D01*
X178645952Y-102348809D01*
%TO.C,J9*%
X198217380Y-103158333D02*
X198931666Y-103158333D01*
X199074523Y-103205952D01*
X199169761Y-103301190D01*
X199217380Y-103444047D01*
X199217380Y-103539285D01*
X199217380Y-102634523D02*
X199217380Y-102444047D01*
X199169761Y-102348809D01*
X199122142Y-102301190D01*
X198979285Y-102205952D01*
X198788809Y-102158333D01*
X198407857Y-102158333D01*
X198312619Y-102205952D01*
X198265000Y-102253571D01*
X198217380Y-102348809D01*
X198217380Y-102539285D01*
X198265000Y-102634523D01*
X198312619Y-102682142D01*
X198407857Y-102729761D01*
X198645952Y-102729761D01*
X198741190Y-102682142D01*
X198788809Y-102634523D01*
X198836428Y-102539285D01*
X198836428Y-102348809D01*
X198788809Y-102253571D01*
X198741190Y-102205952D01*
X198645952Y-102158333D01*
%TO.C,J10*%
X218217380Y-103634523D02*
X218931666Y-103634523D01*
X219074523Y-103682142D01*
X219169761Y-103777380D01*
X219217380Y-103920238D01*
X219217380Y-104015476D01*
X219217380Y-102634523D02*
X219217380Y-103205952D01*
X219217380Y-102920238D02*
X218217380Y-102920238D01*
X218360238Y-103015476D01*
X218455476Y-103110714D01*
X218503095Y-103205952D01*
X218217380Y-102015476D02*
X218217380Y-101920238D01*
X218265000Y-101825000D01*
X218312619Y-101777380D01*
X218407857Y-101729761D01*
X218598333Y-101682142D01*
X218836428Y-101682142D01*
X219026904Y-101729761D01*
X219122142Y-101777380D01*
X219169761Y-101825000D01*
X219217380Y-101920238D01*
X219217380Y-102015476D01*
X219169761Y-102110714D01*
X219122142Y-102158333D01*
X219026904Y-102205952D01*
X218836428Y-102253571D01*
X218598333Y-102253571D01*
X218407857Y-102205952D01*
X218312619Y-102158333D01*
X218265000Y-102110714D01*
X218217380Y-102015476D01*
%TD*%
M02*
