M48
; DRILL file {KiCad (5.1.9-16-g1737927814)-1} date 07/08/21 12:56:59
; FORMAT={3:3/ absolute / metric / suppress leading zeros}
; #@! TF.CreationDate,2021-07-08T12:56:59+02:00
; #@! TF.GenerationSoftware,Kicad,Pcbnew,(5.1.9-16-g1737927814)-1
; #@! TF.FileFunction,Plated,1,2,PTH
FMAT,2
METRIC,TZ
T1C0.700
%
G90
G05
T1
X41750Y-54190
X41750Y-56190
X41750Y-58190
X41750Y-60190
X41750Y-62190
X41750Y-66190
X41750Y-68190
X41750Y-70190
X41750Y-72190
X41750Y-74190
X41750Y-76190
X41750Y-78190
X41750Y-80190
X41750Y-82190
X41750Y-84190
X41750Y-86190
X41750Y-88190
X41750Y-90190
X41750Y-92190
X41750Y-94190
X41750Y-96190
X41750Y-98190
X41750Y-100190
X41750Y-102190
X43750Y-53190
X43750Y-55190
X43750Y-57190
X43750Y-59190
X43750Y-61190
X43750Y-63190
X43750Y-67190
X43750Y-69190
X43750Y-71190
X43750Y-73190
X43750Y-75190
X43750Y-77190
X43750Y-79190
X43750Y-81190
X43750Y-83190
X43750Y-85190
X43750Y-87190
X43750Y-89190
X43750Y-91190
X43750Y-93190
X43750Y-95190
X43750Y-97190
X43750Y-99190
X43750Y-101190
X43750Y-103190
X46250Y-53190
X46250Y-55190
X46250Y-57190
X46250Y-59190
X46250Y-61190
X46250Y-63190
X46250Y-67190
X46250Y-69190
X46250Y-71190
X46250Y-73190
X46250Y-75190
X46250Y-77190
X46250Y-79190
X46250Y-81190
X46250Y-83190
X46250Y-85190
X46250Y-87190
X46250Y-89190
X46250Y-91190
X46250Y-93190
X46250Y-95190
X46250Y-97190
X46250Y-99190
X46250Y-101190
X46250Y-103190
X48250Y-54190
X48250Y-56190
X48250Y-58190
X48250Y-60190
X48250Y-62190
X48250Y-66190
X48250Y-68190
X48250Y-70190
X48250Y-72190
X48250Y-74190
X48250Y-76190
X48250Y-78190
X48250Y-80190
X48250Y-82190
X48250Y-84190
X48250Y-86190
X48250Y-88190
X48250Y-90190
X48250Y-92190
X48250Y-94190
X48250Y-96190
X48250Y-98190
X48250Y-100190
X48250Y-102190
X61750Y-54190
X61750Y-56190
X61750Y-58190
X61750Y-60190
X61750Y-62190
X61750Y-66190
X61750Y-68190
X61750Y-70190
X61750Y-72190
X61750Y-74190
X61750Y-76190
X61750Y-78190
X61750Y-80190
X61750Y-82190
X61750Y-84190
X61750Y-86190
X61750Y-88190
X61750Y-90190
X61750Y-92190
X61750Y-94190
X61750Y-96190
X61750Y-98190
X61750Y-100190
X61750Y-102190
X63750Y-53190
X63750Y-55190
X63750Y-57190
X63750Y-59190
X63750Y-61190
X63750Y-63190
X63750Y-67190
X63750Y-69190
X63750Y-71190
X63750Y-73190
X63750Y-75190
X63750Y-77190
X63750Y-79190
X63750Y-81190
X63750Y-83190
X63750Y-85190
X63750Y-87190
X63750Y-89190
X63750Y-91190
X63750Y-93190
X63750Y-95190
X63750Y-97190
X63750Y-99190
X63750Y-101190
X63750Y-103190
X66250Y-53190
X66250Y-55190
X66250Y-57190
X66250Y-59190
X66250Y-61190
X66250Y-63190
X66250Y-67190
X66250Y-69190
X66250Y-71190
X66250Y-73190
X66250Y-75190
X66250Y-77190
X66250Y-79190
X66250Y-81190
X66250Y-83190
X66250Y-85190
X66250Y-87190
X66250Y-89190
X66250Y-91190
X66250Y-93190
X66250Y-95190
X66250Y-97190
X66250Y-99190
X66250Y-101190
X66250Y-103190
X68250Y-54190
X68250Y-56190
X68250Y-58190
X68250Y-60190
X68250Y-62190
X68250Y-66190
X68250Y-68190
X68250Y-70190
X68250Y-72190
X68250Y-74190
X68250Y-76190
X68250Y-78190
X68250Y-80190
X68250Y-82190
X68250Y-84190
X68250Y-86190
X68250Y-88190
X68250Y-90190
X68250Y-92190
X68250Y-94190
X68250Y-96190
X68250Y-98190
X68250Y-100190
X68250Y-102190
X81750Y-54190
X81750Y-56190
X81750Y-58190
X81750Y-60190
X81750Y-62190
X81750Y-66190
X81750Y-68190
X81750Y-70190
X81750Y-72190
X81750Y-74190
X81750Y-76190
X81750Y-78190
X81750Y-80190
X81750Y-82190
X81750Y-84190
X81750Y-86190
X81750Y-88190
X81750Y-90190
X81750Y-92190
X81750Y-94190
X81750Y-96190
X81750Y-98190
X81750Y-100190
X81750Y-102190
X83750Y-53190
X83750Y-55190
X83750Y-57190
X83750Y-59190
X83750Y-61190
X83750Y-63190
X83750Y-67190
X83750Y-69190
X83750Y-71190
X83750Y-73190
X83750Y-75190
X83750Y-77190
X83750Y-79190
X83750Y-81190
X83750Y-83190
X83750Y-85190
X83750Y-87190
X83750Y-89190
X83750Y-91190
X83750Y-93190
X83750Y-95190
X83750Y-97190
X83750Y-99190
X83750Y-101190
X83750Y-103190
X86250Y-53190
X86250Y-55190
X86250Y-57190
X86250Y-59190
X86250Y-61190
X86250Y-63190
X86250Y-67190
X86250Y-69190
X86250Y-71190
X86250Y-73190
X86250Y-75190
X86250Y-77190
X86250Y-79190
X86250Y-81190
X86250Y-83190
X86250Y-85190
X86250Y-87190
X86250Y-89190
X86250Y-91190
X86250Y-93190
X86250Y-95190
X86250Y-97190
X86250Y-99190
X86250Y-101190
X86250Y-103190
X88250Y-54190
X88250Y-56190
X88250Y-58190
X88250Y-60190
X88250Y-62190
X88250Y-66190
X88250Y-68190
X88250Y-70190
X88250Y-72190
X88250Y-74190
X88250Y-76190
X88250Y-78190
X88250Y-80190
X88250Y-82190
X88250Y-84190
X88250Y-86190
X88250Y-88190
X88250Y-90190
X88250Y-92190
X88250Y-94190
X88250Y-96190
X88250Y-98190
X88250Y-100190
X88250Y-102190
X101750Y-54190
X101750Y-56190
X101750Y-58190
X101750Y-60190
X101750Y-62190
X101750Y-66190
X101750Y-68190
X101750Y-70190
X101750Y-72190
X101750Y-74190
X101750Y-76190
X101750Y-78190
X101750Y-80190
X101750Y-82190
X101750Y-84190
X101750Y-86190
X101750Y-88190
X101750Y-90190
X101750Y-92190
X101750Y-94190
X101750Y-96190
X101750Y-98190
X101750Y-100190
X101750Y-102190
X103750Y-53190
X103750Y-55190
X103750Y-57190
X103750Y-59190
X103750Y-61190
X103750Y-63190
X103750Y-67190
X103750Y-69190
X103750Y-71190
X103750Y-73190
X103750Y-75190
X103750Y-77190
X103750Y-79190
X103750Y-81190
X103750Y-83190
X103750Y-85190
X103750Y-87190
X103750Y-89190
X103750Y-91190
X103750Y-93190
X103750Y-95190
X103750Y-97190
X103750Y-99190
X103750Y-101190
X103750Y-103190
X106250Y-53190
X106250Y-55190
X106250Y-57190
X106250Y-59190
X106250Y-61190
X106250Y-63190
X106250Y-67190
X106250Y-69190
X106250Y-71190
X106250Y-73190
X106250Y-75190
X106250Y-77190
X106250Y-79190
X106250Y-81190
X106250Y-83190
X106250Y-85190
X106250Y-87190
X106250Y-89190
X106250Y-91190
X106250Y-93190
X106250Y-95190
X106250Y-97190
X106250Y-99190
X106250Y-101190
X106250Y-103190
X108250Y-54190
X108250Y-56190
X108250Y-58190
X108250Y-60190
X108250Y-62190
X108250Y-66190
X108250Y-68190
X108250Y-70190
X108250Y-72190
X108250Y-74190
X108250Y-76190
X108250Y-78190
X108250Y-80190
X108250Y-82190
X108250Y-84190
X108250Y-86190
X108250Y-88190
X108250Y-90190
X108250Y-92190
X108250Y-94190
X108250Y-96190
X108250Y-98190
X108250Y-100190
X108250Y-102190
X121750Y-54190
X121750Y-56190
X121750Y-58190
X121750Y-60190
X121750Y-62190
X121750Y-66190
X121750Y-68190
X121750Y-70190
X121750Y-72190
X121750Y-74190
X121750Y-76190
X121750Y-78190
X121750Y-80190
X121750Y-82190
X121750Y-84190
X121750Y-86190
X121750Y-88190
X121750Y-90190
X121750Y-92190
X121750Y-94190
X121750Y-96190
X121750Y-98190
X121750Y-100190
X121750Y-102190
X123750Y-53190
X123750Y-55190
X123750Y-57190
X123750Y-59190
X123750Y-61190
X123750Y-63190
X123750Y-67190
X123750Y-69190
X123750Y-71190
X123750Y-73190
X123750Y-75190
X123750Y-77190
X123750Y-79190
X123750Y-81190
X123750Y-83190
X123750Y-85190
X123750Y-87190
X123750Y-89190
X123750Y-91190
X123750Y-93190
X123750Y-95190
X123750Y-97190
X123750Y-99190
X123750Y-101190
X123750Y-103190
X126250Y-53190
X126250Y-55190
X126250Y-57190
X126250Y-59190
X126250Y-61190
X126250Y-63190
X126250Y-67190
X126250Y-69190
X126250Y-71190
X126250Y-73190
X126250Y-75190
X126250Y-77190
X126250Y-79190
X126250Y-81190
X126250Y-83190
X126250Y-85190
X126250Y-87190
X126250Y-89190
X126250Y-91190
X126250Y-93190
X126250Y-95190
X126250Y-97190
X126250Y-99190
X126250Y-101190
X126250Y-103190
X128250Y-54190
X128250Y-56190
X128250Y-58190
X128250Y-60190
X128250Y-62190
X128250Y-66190
X128250Y-68190
X128250Y-70190
X128250Y-72190
X128250Y-74190
X128250Y-76190
X128250Y-78190
X128250Y-80190
X128250Y-82190
X128250Y-84190
X128250Y-86190
X128250Y-88190
X128250Y-90190
X128250Y-92190
X128250Y-94190
X128250Y-96190
X128250Y-98190
X128250Y-100190
X128250Y-102190
X141750Y-54190
X141750Y-56190
X141750Y-58190
X141750Y-60190
X141750Y-62190
X141750Y-66190
X141750Y-68190
X141750Y-70190
X141750Y-72190
X141750Y-74190
X141750Y-76190
X141750Y-78190
X141750Y-80190
X141750Y-82190
X141750Y-84190
X141750Y-86190
X141750Y-88190
X141750Y-90190
X141750Y-92190
X141750Y-94190
X141750Y-96190
X141750Y-98190
X141750Y-100190
X141750Y-102190
X143750Y-53190
X143750Y-55190
X143750Y-57190
X143750Y-59190
X143750Y-61190
X143750Y-63190
X143750Y-67190
X143750Y-69190
X143750Y-71190
X143750Y-73190
X143750Y-75190
X143750Y-77190
X143750Y-79190
X143750Y-81190
X143750Y-83190
X143750Y-85190
X143750Y-87190
X143750Y-89190
X143750Y-91190
X143750Y-93190
X143750Y-95190
X143750Y-97190
X143750Y-99190
X143750Y-101190
X143750Y-103190
X146250Y-53190
X146250Y-55190
X146250Y-57190
X146250Y-59190
X146250Y-61190
X146250Y-63190
X146250Y-67190
X146250Y-69190
X146250Y-71190
X146250Y-73190
X146250Y-75190
X146250Y-77190
X146250Y-79190
X146250Y-81190
X146250Y-83190
X146250Y-85190
X146250Y-87190
X146250Y-89190
X146250Y-91190
X146250Y-93190
X146250Y-95190
X146250Y-97190
X146250Y-99190
X146250Y-101190
X146250Y-103190
X148250Y-54190
X148250Y-56190
X148250Y-58190
X148250Y-60190
X148250Y-62190
X148250Y-66190
X148250Y-68190
X148250Y-70190
X148250Y-72190
X148250Y-74190
X148250Y-76190
X148250Y-78190
X148250Y-80190
X148250Y-82190
X148250Y-84190
X148250Y-86190
X148250Y-88190
X148250Y-90190
X148250Y-92190
X148250Y-94190
X148250Y-96190
X148250Y-98190
X148250Y-100190
X148250Y-102190
X161750Y-54190
X161750Y-56190
X161750Y-58190
X161750Y-60190
X161750Y-62190
X161750Y-66190
X161750Y-68190
X161750Y-70190
X161750Y-72190
X161750Y-74190
X161750Y-76190
X161750Y-78190
X161750Y-80190
X161750Y-82190
X161750Y-84190
X161750Y-86190
X161750Y-88190
X161750Y-90190
X161750Y-92190
X161750Y-94190
X161750Y-96190
X161750Y-98190
X161750Y-100190
X161750Y-102190
X163750Y-53190
X163750Y-55190
X163750Y-57190
X163750Y-59190
X163750Y-61190
X163750Y-63190
X163750Y-67190
X163750Y-69190
X163750Y-71190
X163750Y-73190
X163750Y-75190
X163750Y-77190
X163750Y-79190
X163750Y-81190
X163750Y-83190
X163750Y-85190
X163750Y-87190
X163750Y-89190
X163750Y-91190
X163750Y-93190
X163750Y-95190
X163750Y-97190
X163750Y-99190
X163750Y-101190
X163750Y-103190
X166250Y-53190
X166250Y-55190
X166250Y-57190
X166250Y-59190
X166250Y-61190
X166250Y-63190
X166250Y-67190
X166250Y-69190
X166250Y-71190
X166250Y-73190
X166250Y-75190
X166250Y-77190
X166250Y-79190
X166250Y-81190
X166250Y-83190
X166250Y-85190
X166250Y-87190
X166250Y-89190
X166250Y-91190
X166250Y-93190
X166250Y-95190
X166250Y-97190
X166250Y-99190
X166250Y-101190
X166250Y-103190
X168250Y-54190
X168250Y-56190
X168250Y-58190
X168250Y-60190
X168250Y-62190
X168250Y-66190
X168250Y-68190
X168250Y-70190
X168250Y-72190
X168250Y-74190
X168250Y-76190
X168250Y-78190
X168250Y-80190
X168250Y-82190
X168250Y-84190
X168250Y-86190
X168250Y-88190
X168250Y-90190
X168250Y-92190
X168250Y-94190
X168250Y-96190
X168250Y-98190
X168250Y-100190
X168250Y-102190
X181750Y-54190
X181750Y-56190
X181750Y-58190
X181750Y-60190
X181750Y-62190
X181750Y-66190
X181750Y-68190
X181750Y-70190
X181750Y-72190
X181750Y-74190
X181750Y-76190
X181750Y-78190
X181750Y-80190
X181750Y-82190
X181750Y-84190
X181750Y-86190
X181750Y-88190
X181750Y-90190
X181750Y-92190
X181750Y-94190
X181750Y-96190
X181750Y-98190
X181750Y-100190
X181750Y-102190
X183750Y-53190
X183750Y-55190
X183750Y-57190
X183750Y-59190
X183750Y-61190
X183750Y-63190
X183750Y-67190
X183750Y-69190
X183750Y-71190
X183750Y-73190
X183750Y-75190
X183750Y-77190
X183750Y-79190
X183750Y-81190
X183750Y-83190
X183750Y-85190
X183750Y-87190
X183750Y-89190
X183750Y-91190
X183750Y-93190
X183750Y-95190
X183750Y-97190
X183750Y-99190
X183750Y-101190
X183750Y-103190
X186250Y-53190
X186250Y-55190
X186250Y-57190
X186250Y-59190
X186250Y-61190
X186250Y-63190
X186250Y-67190
X186250Y-69190
X186250Y-71190
X186250Y-73190
X186250Y-75190
X186250Y-77190
X186250Y-79190
X186250Y-81190
X186250Y-83190
X186250Y-85190
X186250Y-87190
X186250Y-89190
X186250Y-91190
X186250Y-93190
X186250Y-95190
X186250Y-97190
X186250Y-99190
X186250Y-101190
X186250Y-103190
X188250Y-54190
X188250Y-56190
X188250Y-58190
X188250Y-60190
X188250Y-62190
X188250Y-66190
X188250Y-68190
X188250Y-70190
X188250Y-72190
X188250Y-74190
X188250Y-76190
X188250Y-78190
X188250Y-80190
X188250Y-82190
X188250Y-84190
X188250Y-86190
X188250Y-88190
X188250Y-90190
X188250Y-92190
X188250Y-94190
X188250Y-96190
X188250Y-98190
X188250Y-100190
X188250Y-102190
X201750Y-54190
X201750Y-56190
X201750Y-58190
X201750Y-60190
X201750Y-62190
X201750Y-66190
X201750Y-68190
X201750Y-70190
X201750Y-72190
X201750Y-74190
X201750Y-76190
X201750Y-78190
X201750Y-80190
X201750Y-82190
X201750Y-84190
X201750Y-86190
X201750Y-88190
X201750Y-90190
X201750Y-92190
X201750Y-94190
X201750Y-96190
X201750Y-98190
X201750Y-100190
X201750Y-102190
X203750Y-53190
X203750Y-55190
X203750Y-57190
X203750Y-59190
X203750Y-61190
X203750Y-63190
X203750Y-67190
X203750Y-69190
X203750Y-71190
X203750Y-73190
X203750Y-75190
X203750Y-77190
X203750Y-79190
X203750Y-81190
X203750Y-83190
X203750Y-85190
X203750Y-87190
X203750Y-89190
X203750Y-91190
X203750Y-93190
X203750Y-95190
X203750Y-97190
X203750Y-99190
X203750Y-101190
X203750Y-103190
X206250Y-53190
X206250Y-55190
X206250Y-57190
X206250Y-59190
X206250Y-61190
X206250Y-63190
X206250Y-67190
X206250Y-69190
X206250Y-71190
X206250Y-73190
X206250Y-75190
X206250Y-77190
X206250Y-79190
X206250Y-81190
X206250Y-83190
X206250Y-85190
X206250Y-87190
X206250Y-89190
X206250Y-91190
X206250Y-93190
X206250Y-95190
X206250Y-97190
X206250Y-99190
X206250Y-101190
X206250Y-103190
X208250Y-54190
X208250Y-56190
X208250Y-58190
X208250Y-60190
X208250Y-62190
X208250Y-66190
X208250Y-68190
X208250Y-70190
X208250Y-72190
X208250Y-74190
X208250Y-76190
X208250Y-78190
X208250Y-80190
X208250Y-82190
X208250Y-84190
X208250Y-86190
X208250Y-88190
X208250Y-90190
X208250Y-92190
X208250Y-94190
X208250Y-96190
X208250Y-98190
X208250Y-100190
X208250Y-102190
X221750Y-54190
X221750Y-56190
X221750Y-58190
X221750Y-60190
X221750Y-62190
X221750Y-66190
X221750Y-68190
X221750Y-70190
X221750Y-72190
X221750Y-74190
X221750Y-76190
X221750Y-78190
X221750Y-80190
X221750Y-82190
X221750Y-84190
X221750Y-86190
X221750Y-88190
X221750Y-90190
X221750Y-92190
X221750Y-94190
X221750Y-96190
X221750Y-98190
X221750Y-100190
X221750Y-102190
X223750Y-53190
X223750Y-55190
X223750Y-57190
X223750Y-59190
X223750Y-61190
X223750Y-63190
X223750Y-67190
X223750Y-69190
X223750Y-71190
X223750Y-73190
X223750Y-75190
X223750Y-77190
X223750Y-79190
X223750Y-81190
X223750Y-83190
X223750Y-85190
X223750Y-87190
X223750Y-89190
X223750Y-91190
X223750Y-93190
X223750Y-95190
X223750Y-97190
X223750Y-99190
X223750Y-101190
X223750Y-103190
X226250Y-53190
X226250Y-55190
X226250Y-57190
X226250Y-59190
X226250Y-61190
X226250Y-63190
X226250Y-67190
X226250Y-69190
X226250Y-71190
X226250Y-73190
X226250Y-75190
X226250Y-77190
X226250Y-79190
X226250Y-81190
X226250Y-83190
X226250Y-85190
X226250Y-87190
X226250Y-89190
X226250Y-91190
X226250Y-93190
X226250Y-95190
X226250Y-97190
X226250Y-99190
X226250Y-101190
X226250Y-103190
X228250Y-54190
X228250Y-56190
X228250Y-58190
X228250Y-60190
X228250Y-62190
X228250Y-66190
X228250Y-68190
X228250Y-70190
X228250Y-72190
X228250Y-74190
X228250Y-76190
X228250Y-78190
X228250Y-80190
X228250Y-82190
X228250Y-84190
X228250Y-86190
X228250Y-88190
X228250Y-90190
X228250Y-92190
X228250Y-94190
X228250Y-96190
X228250Y-98190
X228250Y-100190
X228250Y-102190
T0
M30
