%TF.GenerationSoftware,KiCad,Pcbnew,(5.1.9-16-g1737927814)-1*%
%TF.CreationDate,2021-07-03T16:47:20+02:00*%
%TF.ProjectId,Bussystem 10x non stack,42757373-7973-4746-956d-20313078206e,1*%
%TF.SameCoordinates,Original*%
%TF.FileFunction,Copper,L1,Top*%
%TF.FilePolarity,Positive*%
%FSLAX46Y46*%
G04 Gerber Fmt 4.6, Leading zero omitted, Abs format (unit mm)*
G04 Created by KiCad (PCBNEW (5.1.9-16-g1737927814)-1) date 2021-07-03 16:47:20*
%MOMM*%
%LPD*%
G01*
G04 APERTURE LIST*
%TA.AperFunction,NonConductor*%
%ADD10C,0.300000*%
%TD*%
%TA.AperFunction,WasherPad*%
%ADD11C,5.000000*%
%TD*%
%TA.AperFunction,ComponentPad*%
%ADD12R,1.208000X1.208000*%
%TD*%
%TA.AperFunction,ComponentPad*%
%ADD13C,1.208000*%
%TD*%
%TA.AperFunction,Conductor*%
%ADD14C,0.380000*%
%TD*%
%TA.AperFunction,Conductor*%
%ADD15C,0.500000*%
%TD*%
G04 APERTURE END LIST*
D10*
X178964285Y-104178571D02*
X179821428Y-104178571D01*
X179392857Y-105678571D02*
X179392857Y-104178571D01*
X181035714Y-105678571D02*
X180321428Y-105678571D01*
X180321428Y-104178571D01*
X181464285Y-104678571D02*
X182535714Y-104678571D01*
X181892857Y-104035714D02*
X181464285Y-105964285D01*
X182392857Y-105321428D02*
X181321428Y-105321428D01*
X181964285Y-105964285D02*
X182392857Y-104035714D01*
X184392857Y-104821428D02*
X184250000Y-104750000D01*
X184178571Y-104678571D01*
X184107142Y-104535714D01*
X184107142Y-104464285D01*
X184178571Y-104321428D01*
X184250000Y-104250000D01*
X184392857Y-104178571D01*
X184678571Y-104178571D01*
X184821428Y-104250000D01*
X184892857Y-104321428D01*
X184964285Y-104464285D01*
X184964285Y-104535714D01*
X184892857Y-104678571D01*
X184821428Y-104750000D01*
X184678571Y-104821428D01*
X184392857Y-104821428D01*
X184250000Y-104892857D01*
X184178571Y-104964285D01*
X184107142Y-105107142D01*
X184107142Y-105392857D01*
X184178571Y-105535714D01*
X184250000Y-105607142D01*
X184392857Y-105678571D01*
X184678571Y-105678571D01*
X184821428Y-105607142D01*
X184892857Y-105535714D01*
X184964285Y-105392857D01*
X184964285Y-105107142D01*
X184892857Y-104964285D01*
X184821428Y-104892857D01*
X184678571Y-104821428D01*
X185892857Y-104178571D02*
X186035714Y-104178571D01*
X186178571Y-104250000D01*
X186250000Y-104321428D01*
X186321428Y-104464285D01*
X186392857Y-104750000D01*
X186392857Y-105107142D01*
X186321428Y-105392857D01*
X186250000Y-105535714D01*
X186178571Y-105607142D01*
X186035714Y-105678571D01*
X185892857Y-105678571D01*
X185750000Y-105607142D01*
X185678571Y-105535714D01*
X185607142Y-105392857D01*
X185535714Y-105107142D01*
X185535714Y-104750000D01*
X185607142Y-104464285D01*
X185678571Y-104321428D01*
X185750000Y-104250000D01*
X185892857Y-104178571D01*
X187321428Y-104178571D02*
X187464285Y-104178571D01*
X187607142Y-104250000D01*
X187678571Y-104321428D01*
X187750000Y-104464285D01*
X187821428Y-104750000D01*
X187821428Y-105107142D01*
X187750000Y-105392857D01*
X187678571Y-105535714D01*
X187607142Y-105607142D01*
X187464285Y-105678571D01*
X187321428Y-105678571D01*
X187178571Y-105607142D01*
X187107142Y-105535714D01*
X187035714Y-105392857D01*
X186964285Y-105107142D01*
X186964285Y-104750000D01*
X187035714Y-104464285D01*
X187107142Y-104321428D01*
X187178571Y-104250000D01*
X187321428Y-104178571D01*
X188750000Y-104178571D02*
X188892857Y-104178571D01*
X189035714Y-104250000D01*
X189107142Y-104321428D01*
X189178571Y-104464285D01*
X189250000Y-104750000D01*
X189250000Y-105107142D01*
X189178571Y-105392857D01*
X189107142Y-105535714D01*
X189035714Y-105607142D01*
X188892857Y-105678571D01*
X188750000Y-105678571D01*
X188607142Y-105607142D01*
X188535714Y-105535714D01*
X188464285Y-105392857D01*
X188392857Y-105107142D01*
X188392857Y-104750000D01*
X188464285Y-104464285D01*
X188535714Y-104321428D01*
X188607142Y-104250000D01*
X188750000Y-104178571D01*
X190678571Y-105678571D02*
X189821428Y-105678571D01*
X190250000Y-105678571D02*
X190250000Y-104178571D01*
X190107142Y-104392857D01*
X189964285Y-104535714D01*
X189821428Y-104607142D01*
X191607142Y-104178571D02*
X191750000Y-104178571D01*
X191892857Y-104250000D01*
X191964285Y-104321428D01*
X192035714Y-104464285D01*
X192107142Y-104750000D01*
X192107142Y-105107142D01*
X192035714Y-105392857D01*
X191964285Y-105535714D01*
X191892857Y-105607142D01*
X191750000Y-105678571D01*
X191607142Y-105678571D01*
X191464285Y-105607142D01*
X191392857Y-105535714D01*
X191321428Y-105392857D01*
X191250000Y-105107142D01*
X191250000Y-104750000D01*
X191321428Y-104464285D01*
X191392857Y-104321428D01*
X191464285Y-104250000D01*
X191607142Y-104178571D01*
X193035714Y-104178571D02*
X193178571Y-104178571D01*
X193321428Y-104250000D01*
X193392857Y-104321428D01*
X193464285Y-104464285D01*
X193535714Y-104750000D01*
X193535714Y-105107142D01*
X193464285Y-105392857D01*
X193392857Y-105535714D01*
X193321428Y-105607142D01*
X193178571Y-105678571D01*
X193035714Y-105678571D01*
X192892857Y-105607142D01*
X192821428Y-105535714D01*
X192750000Y-105392857D01*
X192678571Y-105107142D01*
X192678571Y-104750000D01*
X192750000Y-104464285D01*
X192821428Y-104321428D01*
X192892857Y-104250000D01*
X193035714Y-104178571D01*
X194464285Y-104178571D02*
X194607142Y-104178571D01*
X194750000Y-104250000D01*
X194821428Y-104321428D01*
X194892857Y-104464285D01*
X194964285Y-104750000D01*
X194964285Y-105107142D01*
X194892857Y-105392857D01*
X194821428Y-105535714D01*
X194750000Y-105607142D01*
X194607142Y-105678571D01*
X194464285Y-105678571D01*
X194321428Y-105607142D01*
X194250000Y-105535714D01*
X194178571Y-105392857D01*
X194107142Y-105107142D01*
X194107142Y-104750000D01*
X194178571Y-104464285D01*
X194250000Y-104321428D01*
X194321428Y-104250000D01*
X194464285Y-104178571D01*
X196392857Y-105678571D02*
X195535714Y-105678571D01*
X195964285Y-105678571D02*
X195964285Y-104178571D01*
X195821428Y-104392857D01*
X195678571Y-104535714D01*
X195535714Y-104607142D01*
X43619047Y-47904761D02*
X44761904Y-47904761D01*
X44190476Y-49904761D02*
X44190476Y-47904761D01*
X45714285Y-49904761D02*
X45523809Y-49809523D01*
X45428571Y-49714285D01*
X45333333Y-49523809D01*
X45333333Y-48952380D01*
X45428571Y-48761904D01*
X45523809Y-48666666D01*
X45714285Y-48571428D01*
X46000000Y-48571428D01*
X46190476Y-48666666D01*
X46285714Y-48761904D01*
X46380952Y-48952380D01*
X46380952Y-49523809D01*
X46285714Y-49714285D01*
X46190476Y-49809523D01*
X46000000Y-49904761D01*
X45714285Y-49904761D01*
X47238095Y-48571428D02*
X47238095Y-50571428D01*
X47238095Y-48666666D02*
X47428571Y-48571428D01*
X47809523Y-48571428D01*
X48000000Y-48666666D01*
X48095238Y-48761904D01*
X48190476Y-48952380D01*
X48190476Y-49523809D01*
X48095238Y-49714285D01*
X48000000Y-49809523D01*
X47809523Y-49904761D01*
X47428571Y-49904761D01*
X47238095Y-49809523D01*
D11*
%TO.P,DRA2,*%
%TO.N,*%
X126000000Y-74500000D03*
X126000000Y-87000000D03*
X126000000Y-62000000D03*
%TD*%
%TO.P,DRA3,*%
%TO.N,*%
X206000000Y-74500000D03*
X206000000Y-87000000D03*
X206000000Y-62000000D03*
%TD*%
%TO.P,DRA1,*%
%TO.N,*%
X46000000Y-74500000D03*
X46000000Y-87000000D03*
X46000000Y-62000000D03*
%TD*%
D12*
%TO.P,J1,A1*%
%TO.N,Net-(J1-PadA1)*%
X57500000Y-50000000D03*
D13*
%TO.P,J1,A2*%
%TO.N,Net-(J1-PadA2)*%
X59500000Y-51000000D03*
%TO.P,J1,B1*%
%TO.N,Net-(J1-PadA1)*%
X55000000Y-50000000D03*
%TO.P,J1,B2*%
%TO.N,Net-(J1-PadA2)*%
X53000000Y-51000000D03*
%TO.P,J1,A3*%
%TO.N,Net-(J1-PadA3)*%
X57500000Y-52000000D03*
%TO.P,J1,A4*%
%TO.N,Net-(J1-PadA4)*%
X59500000Y-53000000D03*
%TO.P,J1,B3*%
%TO.N,Net-(J1-PadA3)*%
X55000000Y-52000000D03*
%TO.P,J1,B4*%
%TO.N,Net-(J1-PadA4)*%
X53000000Y-53000000D03*
%TO.P,J1,A5*%
%TO.N,Net-(J1-PadA5)*%
X57500000Y-54000000D03*
%TO.P,J1,A6*%
%TO.N,Net-(J1-PadA6)*%
X59500000Y-55000000D03*
%TO.P,J1,B5*%
%TO.N,Net-(J1-PadA5)*%
X55000000Y-54000000D03*
%TO.P,J1,B6*%
%TO.N,Net-(J1-PadA6)*%
X53000000Y-55000000D03*
%TO.P,J1,A7*%
%TO.N,Net-(J1-PadA7)*%
X57500000Y-56000000D03*
%TO.P,J1,A8*%
%TO.N,Net-(J1-PadA8)*%
X59500000Y-57000000D03*
%TO.P,J1,B7*%
%TO.N,Net-(J1-PadA7)*%
X55000000Y-56000000D03*
%TO.P,J1,B8*%
%TO.N,Net-(J1-PadA8)*%
X53000000Y-57000000D03*
%TO.P,J1,A9*%
%TO.N,Net-(J1-PadA9)*%
X57500000Y-58000000D03*
%TO.P,J1,A10*%
%TO.N,Net-(J1-PadA10)*%
X59500000Y-59000000D03*
%TO.P,J1,B9*%
%TO.N,Net-(J1-PadA9)*%
X55000000Y-58000000D03*
%TO.P,J1,B10*%
%TO.N,Net-(J1-PadA10)*%
X53000000Y-59000000D03*
%TO.P,J1,A11*%
%TO.N,Net-(J1-PadA11)*%
X57500000Y-60000000D03*
%TO.P,J1,B11*%
X55000000Y-60000000D03*
%TO.P,J1,A12*%
%TO.N,Net-(J1-PadA12)*%
X59500000Y-63000000D03*
%TO.P,J1,B12*%
%TO.N,N/C*%
X53000000Y-63000000D03*
%TO.P,J1,A13*%
%TO.N,Net-(J1-PadA13)*%
X57500000Y-64000000D03*
%TO.P,J1,A14*%
%TO.N,Net-(J1-PadA14)*%
X59500000Y-65000000D03*
%TO.P,J1,B13*%
%TO.N,N/C*%
X55000000Y-64000000D03*
%TO.P,J1,B14*%
X53000000Y-65000000D03*
%TO.P,J1,A15*%
%TO.N,Net-(J1-PadA15)*%
X57500000Y-66000000D03*
%TO.P,J1,A16*%
%TO.N,Net-(J1-PadA16)*%
X59500000Y-67000000D03*
%TO.P,J1,B15*%
%TO.N,N/C*%
X55000000Y-66000000D03*
%TO.P,J1,B16*%
X53000000Y-67000000D03*
%TO.P,J1,A17*%
%TO.N,Net-(J1-PadA17)*%
X57500000Y-68000000D03*
%TO.P,J1,A18*%
%TO.N,Net-(J1-PadA18)*%
X59500000Y-69000000D03*
%TO.P,J1,B17*%
%TO.N,N/C*%
X55000000Y-68000000D03*
%TO.P,J1,B18*%
X53000000Y-69000000D03*
%TO.P,J1,A19*%
%TO.N,Net-(J1-PadA19)*%
X57500000Y-70000000D03*
%TO.P,J1,A20*%
%TO.N,Net-(J1-PadA20)*%
X59500000Y-71000000D03*
%TO.P,J1,B19*%
%TO.N,N/C*%
X55000000Y-70000000D03*
%TO.P,J1,B20*%
X53000000Y-71000000D03*
%TO.P,J1,A21*%
%TO.N,Net-(J1-PadA21)*%
X57500000Y-72000000D03*
%TO.P,J1,B21*%
%TO.N,N/C*%
X55000000Y-72000000D03*
%TO.P,J1,A22*%
%TO.N,Net-(J1-PadA22)*%
X59500000Y-73000000D03*
%TO.P,J1,B22*%
%TO.N,N/C*%
X53000000Y-73000000D03*
%TO.P,J1,A23*%
%TO.N,Net-(J1-PadA23)*%
X57500000Y-74000000D03*
%TO.P,J1,A24*%
%TO.N,Net-(J1-PadA24)*%
X59500000Y-75000000D03*
%TO.P,J1,B23*%
%TO.N,N/C*%
X55000000Y-74000000D03*
%TO.P,J1,B24*%
X53000000Y-75000000D03*
%TO.P,J1,A25*%
%TO.N,Net-(J1-PadA25)*%
X57500000Y-76000000D03*
%TO.P,J1,A26*%
%TO.N,Net-(J1-PadA26)*%
X59500000Y-77000000D03*
%TO.P,J1,B25*%
%TO.N,N/C*%
X55000000Y-76000000D03*
%TO.P,J1,B26*%
X53000000Y-77000000D03*
%TO.P,J1,A27*%
%TO.N,Net-(J1-PadA27)*%
X57500000Y-78000000D03*
%TO.P,J1,A28*%
%TO.N,Net-(J1-PadA28)*%
X59500000Y-79000000D03*
%TO.P,J1,B27*%
%TO.N,N/C*%
X55000000Y-78000000D03*
%TO.P,J1,B28*%
X53000000Y-79000000D03*
%TO.P,J1,A29*%
%TO.N,Net-(J1-PadA29)*%
X57500000Y-80000000D03*
%TO.P,J1,A30*%
%TO.N,Net-(J1-PadA30)*%
X59500000Y-81000000D03*
%TO.P,J1,B29*%
%TO.N,N/C*%
X55000000Y-80000000D03*
%TO.P,J1,B30*%
X53000000Y-81000000D03*
%TO.P,J1,A31*%
%TO.N,Net-(J1-PadA31)*%
X57500000Y-82000000D03*
%TO.P,J1,B31*%
%TO.N,N/C*%
X55000000Y-82000000D03*
%TO.P,J1,A32*%
%TO.N,Net-(J1-PadA32)*%
X59500000Y-83000000D03*
%TO.P,J1,B32*%
%TO.N,N/C*%
X53000000Y-83000000D03*
%TO.P,J1,A33*%
%TO.N,Net-(J1-PadA33)*%
X57500000Y-84000000D03*
%TO.P,J1,A34*%
%TO.N,Net-(J1-PadA34)*%
X59500000Y-85000000D03*
%TO.P,J1,B33*%
%TO.N,N/C*%
X55000000Y-84000000D03*
%TO.P,J1,B34*%
X53000000Y-85000000D03*
%TO.P,J1,A35*%
%TO.N,Net-(J1-PadA35)*%
X57500000Y-86000000D03*
%TO.P,J1,B35*%
%TO.N,N/C*%
X55000000Y-86000000D03*
%TO.P,J1,A36*%
%TO.N,Net-(J1-PadA36)*%
X59500000Y-87000000D03*
%TO.P,J1,B36*%
%TO.N,N/C*%
X53000000Y-87000000D03*
%TO.P,J1,A37*%
%TO.N,Net-(J1-PadA37)*%
X57500000Y-88000000D03*
%TO.P,J1,A38*%
%TO.N,Net-(J1-PadA38)*%
X59500000Y-89000000D03*
%TO.P,J1,B37*%
%TO.N,N/C*%
X55000000Y-88000000D03*
%TO.P,J1,B38*%
X53000000Y-89000000D03*
%TO.P,J1,A39*%
%TO.N,Net-(J1-PadA39)*%
X57500000Y-90000000D03*
%TO.P,J1,B39*%
%TO.N,N/C*%
X55000000Y-90000000D03*
%TO.P,J1,A40*%
%TO.N,Net-(J1-PadA40)*%
X59500000Y-91000000D03*
%TO.P,J1,B40*%
%TO.N,N/C*%
X53000000Y-91000000D03*
%TO.P,J1,A41*%
%TO.N,Net-(J1-PadA41)*%
X57500000Y-92000000D03*
%TO.P,J1,A42*%
%TO.N,Net-(J1-PadA42)*%
X59500000Y-93000000D03*
%TO.P,J1,B41*%
%TO.N,N/C*%
X55000000Y-92000000D03*
%TO.P,J1,B42*%
X53000000Y-93000000D03*
%TO.P,J1,A43*%
%TO.N,Net-(J1-PadA43)*%
X57500000Y-94000000D03*
%TO.P,J1,B43*%
%TO.N,N/C*%
X55000000Y-94000000D03*
%TO.P,J1,A44*%
%TO.N,Net-(J1-PadA44)*%
X59500000Y-95000000D03*
%TO.P,J1,B44*%
%TO.N,N/C*%
X53000000Y-95000000D03*
%TO.P,J1,A45*%
%TO.N,Net-(J1-PadA45)*%
X57500000Y-96000000D03*
%TO.P,J1,A46*%
%TO.N,Net-(J1-PadA46)*%
X59500000Y-97000000D03*
%TO.P,J1,B45*%
%TO.N,N/C*%
X55000000Y-96000000D03*
%TO.P,J1,B46*%
X53000000Y-97000000D03*
%TO.P,J1,A47*%
%TO.N,Net-(J1-PadA47)*%
X57500000Y-98000000D03*
%TO.P,J1,B47*%
%TO.N,N/C*%
X55000000Y-98000000D03*
%TO.P,J1,A48*%
%TO.N,Net-(J1-PadA48)*%
X59500000Y-99000000D03*
%TO.P,J1,B48*%
%TO.N,N/C*%
X53000000Y-99000000D03*
%TO.P,J1,B49*%
X55000000Y-100000000D03*
%TO.P,J1,A49*%
%TO.N,Net-(J1-PadA49)*%
X57500000Y-100000000D03*
%TD*%
%TO.P,J2,A49*%
%TO.N,Net-(J2-PadA49)*%
X72500000Y-100000000D03*
%TO.P,J2,B49*%
%TO.N,Net-(J1-PadA49)*%
X70000000Y-100000000D03*
%TO.P,J2,B48*%
%TO.N,Net-(J1-PadA48)*%
X68000000Y-99000000D03*
%TO.P,J2,A48*%
%TO.N,Net-(J2-PadA48)*%
X74500000Y-99000000D03*
%TO.P,J2,B47*%
%TO.N,Net-(J1-PadA47)*%
X70000000Y-98000000D03*
%TO.P,J2,A47*%
%TO.N,Net-(J2-PadA47)*%
X72500000Y-98000000D03*
%TO.P,J2,B46*%
%TO.N,Net-(J1-PadA46)*%
X68000000Y-97000000D03*
%TO.P,J2,B45*%
%TO.N,Net-(J1-PadA45)*%
X70000000Y-96000000D03*
%TO.P,J2,A46*%
%TO.N,Net-(J2-PadA46)*%
X74500000Y-97000000D03*
%TO.P,J2,A45*%
%TO.N,Net-(J2-PadA45)*%
X72500000Y-96000000D03*
%TO.P,J2,B44*%
%TO.N,Net-(J1-PadA44)*%
X68000000Y-95000000D03*
%TO.P,J2,A44*%
%TO.N,Net-(J2-PadA44)*%
X74500000Y-95000000D03*
%TO.P,J2,B43*%
%TO.N,Net-(J1-PadA43)*%
X70000000Y-94000000D03*
%TO.P,J2,A43*%
%TO.N,Net-(J2-PadA43)*%
X72500000Y-94000000D03*
%TO.P,J2,B42*%
%TO.N,Net-(J1-PadA42)*%
X68000000Y-93000000D03*
%TO.P,J2,B41*%
%TO.N,Net-(J1-PadA41)*%
X70000000Y-92000000D03*
%TO.P,J2,A42*%
%TO.N,Net-(J2-PadA42)*%
X74500000Y-93000000D03*
%TO.P,J2,A41*%
%TO.N,Net-(J2-PadA41)*%
X72500000Y-92000000D03*
%TO.P,J2,B40*%
%TO.N,Net-(J1-PadA40)*%
X68000000Y-91000000D03*
%TO.P,J2,A40*%
%TO.N,Net-(J2-PadA40)*%
X74500000Y-91000000D03*
%TO.P,J2,B39*%
%TO.N,Net-(J1-PadA39)*%
X70000000Y-90000000D03*
%TO.P,J2,A39*%
%TO.N,Net-(J2-PadA39)*%
X72500000Y-90000000D03*
%TO.P,J2,B38*%
%TO.N,Net-(J1-PadA38)*%
X68000000Y-89000000D03*
%TO.P,J2,B37*%
%TO.N,Net-(J1-PadA37)*%
X70000000Y-88000000D03*
%TO.P,J2,A38*%
%TO.N,Net-(J2-PadA38)*%
X74500000Y-89000000D03*
%TO.P,J2,A37*%
%TO.N,Net-(J2-PadA37)*%
X72500000Y-88000000D03*
%TO.P,J2,B36*%
%TO.N,Net-(J1-PadA36)*%
X68000000Y-87000000D03*
%TO.P,J2,A36*%
%TO.N,Net-(J2-PadA36)*%
X74500000Y-87000000D03*
%TO.P,J2,B35*%
%TO.N,Net-(J1-PadA35)*%
X70000000Y-86000000D03*
%TO.P,J2,A35*%
%TO.N,Net-(J2-PadA35)*%
X72500000Y-86000000D03*
%TO.P,J2,B34*%
%TO.N,Net-(J1-PadA34)*%
X68000000Y-85000000D03*
%TO.P,J2,B33*%
%TO.N,Net-(J1-PadA33)*%
X70000000Y-84000000D03*
%TO.P,J2,A34*%
%TO.N,Net-(J2-PadA34)*%
X74500000Y-85000000D03*
%TO.P,J2,A33*%
%TO.N,Net-(J2-PadA33)*%
X72500000Y-84000000D03*
%TO.P,J2,B32*%
%TO.N,Net-(J1-PadA32)*%
X68000000Y-83000000D03*
%TO.P,J2,A32*%
%TO.N,Net-(J2-PadA32)*%
X74500000Y-83000000D03*
%TO.P,J2,B31*%
%TO.N,Net-(J1-PadA31)*%
X70000000Y-82000000D03*
%TO.P,J2,A31*%
%TO.N,Net-(J2-PadA31)*%
X72500000Y-82000000D03*
%TO.P,J2,B30*%
%TO.N,Net-(J1-PadA30)*%
X68000000Y-81000000D03*
%TO.P,J2,B29*%
%TO.N,Net-(J1-PadA29)*%
X70000000Y-80000000D03*
%TO.P,J2,A30*%
%TO.N,Net-(J2-PadA30)*%
X74500000Y-81000000D03*
%TO.P,J2,A29*%
%TO.N,Net-(J2-PadA29)*%
X72500000Y-80000000D03*
%TO.P,J2,B28*%
%TO.N,Net-(J1-PadA28)*%
X68000000Y-79000000D03*
%TO.P,J2,B27*%
%TO.N,Net-(J1-PadA27)*%
X70000000Y-78000000D03*
%TO.P,J2,A28*%
%TO.N,Net-(J2-PadA28)*%
X74500000Y-79000000D03*
%TO.P,J2,A27*%
%TO.N,Net-(J2-PadA27)*%
X72500000Y-78000000D03*
%TO.P,J2,B26*%
%TO.N,Net-(J1-PadA26)*%
X68000000Y-77000000D03*
%TO.P,J2,B25*%
%TO.N,Net-(J1-PadA25)*%
X70000000Y-76000000D03*
%TO.P,J2,A26*%
%TO.N,Net-(J2-PadA26)*%
X74500000Y-77000000D03*
%TO.P,J2,A25*%
%TO.N,Net-(J2-PadA25)*%
X72500000Y-76000000D03*
%TO.P,J2,B24*%
%TO.N,Net-(J1-PadA24)*%
X68000000Y-75000000D03*
%TO.P,J2,B23*%
%TO.N,Net-(J1-PadA23)*%
X70000000Y-74000000D03*
%TO.P,J2,A24*%
%TO.N,Net-(J2-PadA24)*%
X74500000Y-75000000D03*
%TO.P,J2,A23*%
%TO.N,Net-(J2-PadA23)*%
X72500000Y-74000000D03*
%TO.P,J2,B22*%
%TO.N,Net-(J1-PadA22)*%
X68000000Y-73000000D03*
%TO.P,J2,A22*%
%TO.N,Net-(J2-PadA22)*%
X74500000Y-73000000D03*
%TO.P,J2,B21*%
%TO.N,Net-(J1-PadA21)*%
X70000000Y-72000000D03*
%TO.P,J2,A21*%
%TO.N,Net-(J2-PadA21)*%
X72500000Y-72000000D03*
%TO.P,J2,B20*%
%TO.N,Net-(J1-PadA20)*%
X68000000Y-71000000D03*
%TO.P,J2,B19*%
%TO.N,Net-(J1-PadA19)*%
X70000000Y-70000000D03*
%TO.P,J2,A20*%
%TO.N,Net-(J2-PadA20)*%
X74500000Y-71000000D03*
%TO.P,J2,A19*%
%TO.N,Net-(J2-PadA19)*%
X72500000Y-70000000D03*
%TO.P,J2,B18*%
%TO.N,Net-(J1-PadA18)*%
X68000000Y-69000000D03*
%TO.P,J2,B17*%
%TO.N,Net-(J1-PadA17)*%
X70000000Y-68000000D03*
%TO.P,J2,A18*%
%TO.N,Net-(J2-PadA18)*%
X74500000Y-69000000D03*
%TO.P,J2,A17*%
%TO.N,Net-(J2-PadA17)*%
X72500000Y-68000000D03*
%TO.P,J2,B16*%
%TO.N,Net-(J1-PadA16)*%
X68000000Y-67000000D03*
%TO.P,J2,B15*%
%TO.N,Net-(J1-PadA15)*%
X70000000Y-66000000D03*
%TO.P,J2,A16*%
%TO.N,Net-(J2-PadA16)*%
X74500000Y-67000000D03*
%TO.P,J2,A15*%
%TO.N,Net-(J2-PadA15)*%
X72500000Y-66000000D03*
%TO.P,J2,B14*%
%TO.N,Net-(J1-PadA14)*%
X68000000Y-65000000D03*
%TO.P,J2,B13*%
%TO.N,Net-(J1-PadA13)*%
X70000000Y-64000000D03*
%TO.P,J2,A14*%
%TO.N,Net-(J2-PadA14)*%
X74500000Y-65000000D03*
%TO.P,J2,A13*%
%TO.N,Net-(J2-PadA13)*%
X72500000Y-64000000D03*
%TO.P,J2,B12*%
%TO.N,Net-(J1-PadA12)*%
X68000000Y-63000000D03*
%TO.P,J2,A12*%
%TO.N,Net-(J2-PadA12)*%
X74500000Y-63000000D03*
%TO.P,J2,B11*%
%TO.N,Net-(J1-PadA11)*%
X70000000Y-60000000D03*
%TO.P,J2,A11*%
X72500000Y-60000000D03*
%TO.P,J2,B10*%
%TO.N,Net-(J1-PadA10)*%
X68000000Y-59000000D03*
%TO.P,J2,B9*%
%TO.N,Net-(J1-PadA9)*%
X70000000Y-58000000D03*
%TO.P,J2,A10*%
%TO.N,Net-(J1-PadA10)*%
X74500000Y-59000000D03*
%TO.P,J2,A9*%
%TO.N,Net-(J1-PadA9)*%
X72500000Y-58000000D03*
%TO.P,J2,B8*%
%TO.N,Net-(J1-PadA8)*%
X68000000Y-57000000D03*
%TO.P,J2,B7*%
%TO.N,Net-(J1-PadA7)*%
X70000000Y-56000000D03*
%TO.P,J2,A8*%
%TO.N,Net-(J1-PadA8)*%
X74500000Y-57000000D03*
%TO.P,J2,A7*%
%TO.N,Net-(J1-PadA7)*%
X72500000Y-56000000D03*
%TO.P,J2,B6*%
%TO.N,Net-(J1-PadA6)*%
X68000000Y-55000000D03*
%TO.P,J2,B5*%
%TO.N,Net-(J1-PadA5)*%
X70000000Y-54000000D03*
%TO.P,J2,A6*%
%TO.N,Net-(J1-PadA6)*%
X74500000Y-55000000D03*
%TO.P,J2,A5*%
%TO.N,Net-(J1-PadA5)*%
X72500000Y-54000000D03*
%TO.P,J2,B4*%
%TO.N,Net-(J1-PadA4)*%
X68000000Y-53000000D03*
%TO.P,J2,B3*%
%TO.N,Net-(J1-PadA3)*%
X70000000Y-52000000D03*
%TO.P,J2,A4*%
%TO.N,Net-(J1-PadA4)*%
X74500000Y-53000000D03*
%TO.P,J2,A3*%
%TO.N,Net-(J1-PadA3)*%
X72500000Y-52000000D03*
%TO.P,J2,B2*%
%TO.N,Net-(J1-PadA2)*%
X68000000Y-51000000D03*
%TO.P,J2,B1*%
%TO.N,Net-(J1-PadA1)*%
X70000000Y-50000000D03*
%TO.P,J2,A2*%
%TO.N,Net-(J1-PadA2)*%
X74500000Y-51000000D03*
D12*
%TO.P,J2,A1*%
%TO.N,Net-(J1-PadA1)*%
X72500000Y-50000000D03*
%TD*%
%TO.P,J3,A1*%
%TO.N,Net-(J1-PadA1)*%
X87500000Y-50000000D03*
D13*
%TO.P,J3,A2*%
%TO.N,Net-(J1-PadA2)*%
X89500000Y-51000000D03*
%TO.P,J3,B1*%
%TO.N,Net-(J1-PadA1)*%
X85000000Y-50000000D03*
%TO.P,J3,B2*%
%TO.N,Net-(J1-PadA2)*%
X83000000Y-51000000D03*
%TO.P,J3,A3*%
%TO.N,Net-(J1-PadA3)*%
X87500000Y-52000000D03*
%TO.P,J3,A4*%
%TO.N,Net-(J1-PadA4)*%
X89500000Y-53000000D03*
%TO.P,J3,B3*%
%TO.N,Net-(J1-PadA3)*%
X85000000Y-52000000D03*
%TO.P,J3,B4*%
%TO.N,Net-(J1-PadA4)*%
X83000000Y-53000000D03*
%TO.P,J3,A5*%
%TO.N,Net-(J1-PadA5)*%
X87500000Y-54000000D03*
%TO.P,J3,A6*%
%TO.N,Net-(J1-PadA6)*%
X89500000Y-55000000D03*
%TO.P,J3,B5*%
%TO.N,Net-(J1-PadA5)*%
X85000000Y-54000000D03*
%TO.P,J3,B6*%
%TO.N,Net-(J1-PadA6)*%
X83000000Y-55000000D03*
%TO.P,J3,A7*%
%TO.N,Net-(J1-PadA7)*%
X87500000Y-56000000D03*
%TO.P,J3,A8*%
%TO.N,Net-(J1-PadA8)*%
X89500000Y-57000000D03*
%TO.P,J3,B7*%
%TO.N,Net-(J1-PadA7)*%
X85000000Y-56000000D03*
%TO.P,J3,B8*%
%TO.N,Net-(J1-PadA8)*%
X83000000Y-57000000D03*
%TO.P,J3,A9*%
%TO.N,Net-(J1-PadA9)*%
X87500000Y-58000000D03*
%TO.P,J3,A10*%
%TO.N,Net-(J1-PadA10)*%
X89500000Y-59000000D03*
%TO.P,J3,B9*%
%TO.N,Net-(J1-PadA9)*%
X85000000Y-58000000D03*
%TO.P,J3,B10*%
%TO.N,Net-(J1-PadA10)*%
X83000000Y-59000000D03*
%TO.P,J3,A11*%
%TO.N,Net-(J1-PadA11)*%
X87500000Y-60000000D03*
%TO.P,J3,B11*%
X85000000Y-60000000D03*
%TO.P,J3,A12*%
%TO.N,Net-(J3-PadA12)*%
X89500000Y-63000000D03*
%TO.P,J3,B12*%
%TO.N,Net-(J2-PadA12)*%
X83000000Y-63000000D03*
%TO.P,J3,A13*%
%TO.N,Net-(J3-PadA13)*%
X87500000Y-64000000D03*
%TO.P,J3,A14*%
%TO.N,Net-(J3-PadA14)*%
X89500000Y-65000000D03*
%TO.P,J3,B13*%
%TO.N,Net-(J2-PadA13)*%
X85000000Y-64000000D03*
%TO.P,J3,B14*%
%TO.N,Net-(J2-PadA14)*%
X83000000Y-65000000D03*
%TO.P,J3,A15*%
%TO.N,Net-(J3-PadA15)*%
X87500000Y-66000000D03*
%TO.P,J3,A16*%
%TO.N,Net-(J3-PadA16)*%
X89500000Y-67000000D03*
%TO.P,J3,B15*%
%TO.N,Net-(J2-PadA15)*%
X85000000Y-66000000D03*
%TO.P,J3,B16*%
%TO.N,Net-(J2-PadA16)*%
X83000000Y-67000000D03*
%TO.P,J3,A17*%
%TO.N,Net-(J3-PadA17)*%
X87500000Y-68000000D03*
%TO.P,J3,A18*%
%TO.N,Net-(J3-PadA18)*%
X89500000Y-69000000D03*
%TO.P,J3,B17*%
%TO.N,Net-(J2-PadA17)*%
X85000000Y-68000000D03*
%TO.P,J3,B18*%
%TO.N,Net-(J2-PadA18)*%
X83000000Y-69000000D03*
%TO.P,J3,A19*%
%TO.N,Net-(J3-PadA19)*%
X87500000Y-70000000D03*
%TO.P,J3,A20*%
%TO.N,Net-(J3-PadA20)*%
X89500000Y-71000000D03*
%TO.P,J3,B19*%
%TO.N,Net-(J2-PadA19)*%
X85000000Y-70000000D03*
%TO.P,J3,B20*%
%TO.N,Net-(J2-PadA20)*%
X83000000Y-71000000D03*
%TO.P,J3,A21*%
%TO.N,Net-(J3-PadA21)*%
X87500000Y-72000000D03*
%TO.P,J3,B21*%
%TO.N,Net-(J2-PadA21)*%
X85000000Y-72000000D03*
%TO.P,J3,A22*%
%TO.N,Net-(J3-PadA22)*%
X89500000Y-73000000D03*
%TO.P,J3,B22*%
%TO.N,Net-(J2-PadA22)*%
X83000000Y-73000000D03*
%TO.P,J3,A23*%
%TO.N,Net-(J3-PadA23)*%
X87500000Y-74000000D03*
%TO.P,J3,A24*%
%TO.N,Net-(J3-PadA24)*%
X89500000Y-75000000D03*
%TO.P,J3,B23*%
%TO.N,Net-(J2-PadA23)*%
X85000000Y-74000000D03*
%TO.P,J3,B24*%
%TO.N,Net-(J2-PadA24)*%
X83000000Y-75000000D03*
%TO.P,J3,A25*%
%TO.N,Net-(J3-PadA25)*%
X87500000Y-76000000D03*
%TO.P,J3,A26*%
%TO.N,Net-(J3-PadA26)*%
X89500000Y-77000000D03*
%TO.P,J3,B25*%
%TO.N,Net-(J2-PadA25)*%
X85000000Y-76000000D03*
%TO.P,J3,B26*%
%TO.N,Net-(J2-PadA26)*%
X83000000Y-77000000D03*
%TO.P,J3,A27*%
%TO.N,Net-(J3-PadA27)*%
X87500000Y-78000000D03*
%TO.P,J3,A28*%
%TO.N,Net-(J3-PadA28)*%
X89500000Y-79000000D03*
%TO.P,J3,B27*%
%TO.N,Net-(J2-PadA27)*%
X85000000Y-78000000D03*
%TO.P,J3,B28*%
%TO.N,Net-(J2-PadA28)*%
X83000000Y-79000000D03*
%TO.P,J3,A29*%
%TO.N,Net-(J3-PadA29)*%
X87500000Y-80000000D03*
%TO.P,J3,A30*%
%TO.N,Net-(J3-PadA30)*%
X89500000Y-81000000D03*
%TO.P,J3,B29*%
%TO.N,Net-(J2-PadA29)*%
X85000000Y-80000000D03*
%TO.P,J3,B30*%
%TO.N,Net-(J2-PadA30)*%
X83000000Y-81000000D03*
%TO.P,J3,A31*%
%TO.N,Net-(J3-PadA31)*%
X87500000Y-82000000D03*
%TO.P,J3,B31*%
%TO.N,Net-(J2-PadA31)*%
X85000000Y-82000000D03*
%TO.P,J3,A32*%
%TO.N,Net-(J3-PadA32)*%
X89500000Y-83000000D03*
%TO.P,J3,B32*%
%TO.N,Net-(J2-PadA32)*%
X83000000Y-83000000D03*
%TO.P,J3,A33*%
%TO.N,Net-(J3-PadA33)*%
X87500000Y-84000000D03*
%TO.P,J3,A34*%
%TO.N,Net-(J3-PadA34)*%
X89500000Y-85000000D03*
%TO.P,J3,B33*%
%TO.N,Net-(J2-PadA33)*%
X85000000Y-84000000D03*
%TO.P,J3,B34*%
%TO.N,Net-(J2-PadA34)*%
X83000000Y-85000000D03*
%TO.P,J3,A35*%
%TO.N,Net-(J3-PadA35)*%
X87500000Y-86000000D03*
%TO.P,J3,B35*%
%TO.N,Net-(J2-PadA35)*%
X85000000Y-86000000D03*
%TO.P,J3,A36*%
%TO.N,Net-(J3-PadA36)*%
X89500000Y-87000000D03*
%TO.P,J3,B36*%
%TO.N,Net-(J2-PadA36)*%
X83000000Y-87000000D03*
%TO.P,J3,A37*%
%TO.N,Net-(J3-PadA37)*%
X87500000Y-88000000D03*
%TO.P,J3,A38*%
%TO.N,Net-(J3-PadA38)*%
X89500000Y-89000000D03*
%TO.P,J3,B37*%
%TO.N,Net-(J2-PadA37)*%
X85000000Y-88000000D03*
%TO.P,J3,B38*%
%TO.N,Net-(J2-PadA38)*%
X83000000Y-89000000D03*
%TO.P,J3,A39*%
%TO.N,Net-(J3-PadA39)*%
X87500000Y-90000000D03*
%TO.P,J3,B39*%
%TO.N,Net-(J2-PadA39)*%
X85000000Y-90000000D03*
%TO.P,J3,A40*%
%TO.N,Net-(J3-PadA40)*%
X89500000Y-91000000D03*
%TO.P,J3,B40*%
%TO.N,Net-(J2-PadA40)*%
X83000000Y-91000000D03*
%TO.P,J3,A41*%
%TO.N,Net-(J3-PadA41)*%
X87500000Y-92000000D03*
%TO.P,J3,A42*%
%TO.N,Net-(J3-PadA42)*%
X89500000Y-93000000D03*
%TO.P,J3,B41*%
%TO.N,Net-(J2-PadA41)*%
X85000000Y-92000000D03*
%TO.P,J3,B42*%
%TO.N,Net-(J2-PadA42)*%
X83000000Y-93000000D03*
%TO.P,J3,A43*%
%TO.N,Net-(J3-PadA43)*%
X87500000Y-94000000D03*
%TO.P,J3,B43*%
%TO.N,Net-(J2-PadA43)*%
X85000000Y-94000000D03*
%TO.P,J3,A44*%
%TO.N,Net-(J3-PadA44)*%
X89500000Y-95000000D03*
%TO.P,J3,B44*%
%TO.N,Net-(J2-PadA44)*%
X83000000Y-95000000D03*
%TO.P,J3,A45*%
%TO.N,Net-(J3-PadA45)*%
X87500000Y-96000000D03*
%TO.P,J3,A46*%
%TO.N,Net-(J3-PadA46)*%
X89500000Y-97000000D03*
%TO.P,J3,B45*%
%TO.N,Net-(J2-PadA45)*%
X85000000Y-96000000D03*
%TO.P,J3,B46*%
%TO.N,Net-(J2-PadA46)*%
X83000000Y-97000000D03*
%TO.P,J3,A47*%
%TO.N,Net-(J3-PadA47)*%
X87500000Y-98000000D03*
%TO.P,J3,B47*%
%TO.N,Net-(J2-PadA47)*%
X85000000Y-98000000D03*
%TO.P,J3,A48*%
%TO.N,Net-(J3-PadA48)*%
X89500000Y-99000000D03*
%TO.P,J3,B48*%
%TO.N,Net-(J2-PadA48)*%
X83000000Y-99000000D03*
%TO.P,J3,B49*%
%TO.N,Net-(J2-PadA49)*%
X85000000Y-100000000D03*
%TO.P,J3,A49*%
%TO.N,Net-(J3-PadA49)*%
X87500000Y-100000000D03*
%TD*%
%TO.P,J4,A49*%
%TO.N,Net-(J4-PadA49)*%
X102500000Y-100000000D03*
%TO.P,J4,B49*%
%TO.N,Net-(J3-PadA49)*%
X100000000Y-100000000D03*
%TO.P,J4,B48*%
%TO.N,Net-(J3-PadA48)*%
X98000000Y-99000000D03*
%TO.P,J4,A48*%
%TO.N,Net-(J4-PadA48)*%
X104500000Y-99000000D03*
%TO.P,J4,B47*%
%TO.N,Net-(J3-PadA47)*%
X100000000Y-98000000D03*
%TO.P,J4,A47*%
%TO.N,Net-(J4-PadA47)*%
X102500000Y-98000000D03*
%TO.P,J4,B46*%
%TO.N,Net-(J3-PadA46)*%
X98000000Y-97000000D03*
%TO.P,J4,B45*%
%TO.N,Net-(J3-PadA45)*%
X100000000Y-96000000D03*
%TO.P,J4,A46*%
%TO.N,Net-(J4-PadA46)*%
X104500000Y-97000000D03*
%TO.P,J4,A45*%
%TO.N,Net-(J4-PadA45)*%
X102500000Y-96000000D03*
%TO.P,J4,B44*%
%TO.N,Net-(J3-PadA44)*%
X98000000Y-95000000D03*
%TO.P,J4,A44*%
%TO.N,Net-(J4-PadA44)*%
X104500000Y-95000000D03*
%TO.P,J4,B43*%
%TO.N,Net-(J3-PadA43)*%
X100000000Y-94000000D03*
%TO.P,J4,A43*%
%TO.N,Net-(J4-PadA43)*%
X102500000Y-94000000D03*
%TO.P,J4,B42*%
%TO.N,Net-(J3-PadA42)*%
X98000000Y-93000000D03*
%TO.P,J4,B41*%
%TO.N,Net-(J3-PadA41)*%
X100000000Y-92000000D03*
%TO.P,J4,A42*%
%TO.N,Net-(J4-PadA42)*%
X104500000Y-93000000D03*
%TO.P,J4,A41*%
%TO.N,Net-(J4-PadA41)*%
X102500000Y-92000000D03*
%TO.P,J4,B40*%
%TO.N,Net-(J3-PadA40)*%
X98000000Y-91000000D03*
%TO.P,J4,A40*%
%TO.N,Net-(J4-PadA40)*%
X104500000Y-91000000D03*
%TO.P,J4,B39*%
%TO.N,Net-(J3-PadA39)*%
X100000000Y-90000000D03*
%TO.P,J4,A39*%
%TO.N,Net-(J4-PadA39)*%
X102500000Y-90000000D03*
%TO.P,J4,B38*%
%TO.N,Net-(J3-PadA38)*%
X98000000Y-89000000D03*
%TO.P,J4,B37*%
%TO.N,Net-(J3-PadA37)*%
X100000000Y-88000000D03*
%TO.P,J4,A38*%
%TO.N,Net-(J4-PadA38)*%
X104500000Y-89000000D03*
%TO.P,J4,A37*%
%TO.N,Net-(J4-PadA37)*%
X102500000Y-88000000D03*
%TO.P,J4,B36*%
%TO.N,Net-(J3-PadA36)*%
X98000000Y-87000000D03*
%TO.P,J4,A36*%
%TO.N,Net-(J4-PadA36)*%
X104500000Y-87000000D03*
%TO.P,J4,B35*%
%TO.N,Net-(J3-PadA35)*%
X100000000Y-86000000D03*
%TO.P,J4,A35*%
%TO.N,Net-(J4-PadA35)*%
X102500000Y-86000000D03*
%TO.P,J4,B34*%
%TO.N,Net-(J3-PadA34)*%
X98000000Y-85000000D03*
%TO.P,J4,B33*%
%TO.N,Net-(J3-PadA33)*%
X100000000Y-84000000D03*
%TO.P,J4,A34*%
%TO.N,Net-(J4-PadA34)*%
X104500000Y-85000000D03*
%TO.P,J4,A33*%
%TO.N,Net-(J4-PadA33)*%
X102500000Y-84000000D03*
%TO.P,J4,B32*%
%TO.N,Net-(J3-PadA32)*%
X98000000Y-83000000D03*
%TO.P,J4,A32*%
%TO.N,Net-(J4-PadA32)*%
X104500000Y-83000000D03*
%TO.P,J4,B31*%
%TO.N,Net-(J3-PadA31)*%
X100000000Y-82000000D03*
%TO.P,J4,A31*%
%TO.N,Net-(J4-PadA31)*%
X102500000Y-82000000D03*
%TO.P,J4,B30*%
%TO.N,Net-(J3-PadA30)*%
X98000000Y-81000000D03*
%TO.P,J4,B29*%
%TO.N,Net-(J3-PadA29)*%
X100000000Y-80000000D03*
%TO.P,J4,A30*%
%TO.N,Net-(J4-PadA30)*%
X104500000Y-81000000D03*
%TO.P,J4,A29*%
%TO.N,Net-(J4-PadA29)*%
X102500000Y-80000000D03*
%TO.P,J4,B28*%
%TO.N,Net-(J3-PadA28)*%
X98000000Y-79000000D03*
%TO.P,J4,B27*%
%TO.N,Net-(J3-PadA27)*%
X100000000Y-78000000D03*
%TO.P,J4,A28*%
%TO.N,Net-(J4-PadA28)*%
X104500000Y-79000000D03*
%TO.P,J4,A27*%
%TO.N,Net-(J4-PadA27)*%
X102500000Y-78000000D03*
%TO.P,J4,B26*%
%TO.N,Net-(J3-PadA26)*%
X98000000Y-77000000D03*
%TO.P,J4,B25*%
%TO.N,Net-(J3-PadA25)*%
X100000000Y-76000000D03*
%TO.P,J4,A26*%
%TO.N,Net-(J4-PadA26)*%
X104500000Y-77000000D03*
%TO.P,J4,A25*%
%TO.N,Net-(J4-PadA25)*%
X102500000Y-76000000D03*
%TO.P,J4,B24*%
%TO.N,Net-(J3-PadA24)*%
X98000000Y-75000000D03*
%TO.P,J4,B23*%
%TO.N,Net-(J3-PadA23)*%
X100000000Y-74000000D03*
%TO.P,J4,A24*%
%TO.N,Net-(J4-PadA24)*%
X104500000Y-75000000D03*
%TO.P,J4,A23*%
%TO.N,Net-(J4-PadA23)*%
X102500000Y-74000000D03*
%TO.P,J4,B22*%
%TO.N,Net-(J3-PadA22)*%
X98000000Y-73000000D03*
%TO.P,J4,A22*%
%TO.N,Net-(J4-PadA22)*%
X104500000Y-73000000D03*
%TO.P,J4,B21*%
%TO.N,Net-(J3-PadA21)*%
X100000000Y-72000000D03*
%TO.P,J4,A21*%
%TO.N,Net-(J4-PadA21)*%
X102500000Y-72000000D03*
%TO.P,J4,B20*%
%TO.N,Net-(J3-PadA20)*%
X98000000Y-71000000D03*
%TO.P,J4,B19*%
%TO.N,Net-(J3-PadA19)*%
X100000000Y-70000000D03*
%TO.P,J4,A20*%
%TO.N,Net-(J4-PadA20)*%
X104500000Y-71000000D03*
%TO.P,J4,A19*%
%TO.N,Net-(J4-PadA19)*%
X102500000Y-70000000D03*
%TO.P,J4,B18*%
%TO.N,Net-(J3-PadA18)*%
X98000000Y-69000000D03*
%TO.P,J4,B17*%
%TO.N,Net-(J3-PadA17)*%
X100000000Y-68000000D03*
%TO.P,J4,A18*%
%TO.N,Net-(J4-PadA18)*%
X104500000Y-69000000D03*
%TO.P,J4,A17*%
%TO.N,Net-(J4-PadA17)*%
X102500000Y-68000000D03*
%TO.P,J4,B16*%
%TO.N,Net-(J3-PadA16)*%
X98000000Y-67000000D03*
%TO.P,J4,B15*%
%TO.N,Net-(J3-PadA15)*%
X100000000Y-66000000D03*
%TO.P,J4,A16*%
%TO.N,Net-(J4-PadA16)*%
X104500000Y-67000000D03*
%TO.P,J4,A15*%
%TO.N,Net-(J4-PadA15)*%
X102500000Y-66000000D03*
%TO.P,J4,B14*%
%TO.N,Net-(J3-PadA14)*%
X98000000Y-65000000D03*
%TO.P,J4,B13*%
%TO.N,Net-(J3-PadA13)*%
X100000000Y-64000000D03*
%TO.P,J4,A14*%
%TO.N,Net-(J4-PadA14)*%
X104500000Y-65000000D03*
%TO.P,J4,A13*%
%TO.N,Net-(J4-PadA13)*%
X102500000Y-64000000D03*
%TO.P,J4,B12*%
%TO.N,Net-(J3-PadA12)*%
X98000000Y-63000000D03*
%TO.P,J4,A12*%
%TO.N,Net-(J4-PadA12)*%
X104500000Y-63000000D03*
%TO.P,J4,B11*%
%TO.N,Net-(J1-PadA11)*%
X100000000Y-60000000D03*
%TO.P,J4,A11*%
X102500000Y-60000000D03*
%TO.P,J4,B10*%
%TO.N,Net-(J1-PadA10)*%
X98000000Y-59000000D03*
%TO.P,J4,B9*%
%TO.N,Net-(J1-PadA9)*%
X100000000Y-58000000D03*
%TO.P,J4,A10*%
%TO.N,Net-(J1-PadA10)*%
X104500000Y-59000000D03*
%TO.P,J4,A9*%
%TO.N,Net-(J1-PadA9)*%
X102500000Y-58000000D03*
%TO.P,J4,B8*%
%TO.N,Net-(J1-PadA8)*%
X98000000Y-57000000D03*
%TO.P,J4,B7*%
%TO.N,Net-(J1-PadA7)*%
X100000000Y-56000000D03*
%TO.P,J4,A8*%
%TO.N,Net-(J1-PadA8)*%
X104500000Y-57000000D03*
%TO.P,J4,A7*%
%TO.N,Net-(J1-PadA7)*%
X102500000Y-56000000D03*
%TO.P,J4,B6*%
%TO.N,Net-(J1-PadA6)*%
X98000000Y-55000000D03*
%TO.P,J4,B5*%
%TO.N,Net-(J1-PadA5)*%
X100000000Y-54000000D03*
%TO.P,J4,A6*%
%TO.N,Net-(J1-PadA6)*%
X104500000Y-55000000D03*
%TO.P,J4,A5*%
%TO.N,Net-(J1-PadA5)*%
X102500000Y-54000000D03*
%TO.P,J4,B4*%
%TO.N,Net-(J1-PadA4)*%
X98000000Y-53000000D03*
%TO.P,J4,B3*%
%TO.N,Net-(J1-PadA3)*%
X100000000Y-52000000D03*
%TO.P,J4,A4*%
%TO.N,Net-(J1-PadA4)*%
X104500000Y-53000000D03*
%TO.P,J4,A3*%
%TO.N,Net-(J1-PadA3)*%
X102500000Y-52000000D03*
%TO.P,J4,B2*%
%TO.N,Net-(J1-PadA2)*%
X98000000Y-51000000D03*
%TO.P,J4,B1*%
%TO.N,Net-(J1-PadA1)*%
X100000000Y-50000000D03*
%TO.P,J4,A2*%
%TO.N,Net-(J1-PadA2)*%
X104500000Y-51000000D03*
D12*
%TO.P,J4,A1*%
%TO.N,Net-(J1-PadA1)*%
X102500000Y-50000000D03*
%TD*%
%TO.P,J5,A1*%
%TO.N,Net-(J1-PadA1)*%
X117500000Y-50000000D03*
D13*
%TO.P,J5,A2*%
%TO.N,Net-(J1-PadA2)*%
X119500000Y-51000000D03*
%TO.P,J5,B1*%
%TO.N,Net-(J1-PadA1)*%
X115000000Y-50000000D03*
%TO.P,J5,B2*%
%TO.N,Net-(J1-PadA2)*%
X113000000Y-51000000D03*
%TO.P,J5,A3*%
%TO.N,Net-(J1-PadA3)*%
X117500000Y-52000000D03*
%TO.P,J5,A4*%
%TO.N,Net-(J1-PadA4)*%
X119500000Y-53000000D03*
%TO.P,J5,B3*%
%TO.N,Net-(J1-PadA3)*%
X115000000Y-52000000D03*
%TO.P,J5,B4*%
%TO.N,Net-(J1-PadA4)*%
X113000000Y-53000000D03*
%TO.P,J5,A5*%
%TO.N,Net-(J1-PadA5)*%
X117500000Y-54000000D03*
%TO.P,J5,A6*%
%TO.N,Net-(J1-PadA6)*%
X119500000Y-55000000D03*
%TO.P,J5,B5*%
%TO.N,Net-(J1-PadA5)*%
X115000000Y-54000000D03*
%TO.P,J5,B6*%
%TO.N,Net-(J1-PadA6)*%
X113000000Y-55000000D03*
%TO.P,J5,A7*%
%TO.N,Net-(J1-PadA7)*%
X117500000Y-56000000D03*
%TO.P,J5,A8*%
%TO.N,Net-(J1-PadA8)*%
X119500000Y-57000000D03*
%TO.P,J5,B7*%
%TO.N,Net-(J1-PadA7)*%
X115000000Y-56000000D03*
%TO.P,J5,B8*%
%TO.N,Net-(J1-PadA8)*%
X113000000Y-57000000D03*
%TO.P,J5,A9*%
%TO.N,Net-(J1-PadA9)*%
X117500000Y-58000000D03*
%TO.P,J5,A10*%
%TO.N,Net-(J1-PadA10)*%
X119500000Y-59000000D03*
%TO.P,J5,B9*%
%TO.N,Net-(J1-PadA9)*%
X115000000Y-58000000D03*
%TO.P,J5,B10*%
%TO.N,Net-(J1-PadA10)*%
X113000000Y-59000000D03*
%TO.P,J5,A11*%
%TO.N,Net-(J1-PadA11)*%
X117500000Y-60000000D03*
%TO.P,J5,B11*%
X115000000Y-60000000D03*
%TO.P,J5,A12*%
%TO.N,Net-(J5-PadA12)*%
X119500000Y-63000000D03*
%TO.P,J5,B12*%
%TO.N,Net-(J4-PadA12)*%
X113000000Y-63000000D03*
%TO.P,J5,A13*%
%TO.N,Net-(J5-PadA13)*%
X117500000Y-64000000D03*
%TO.P,J5,A14*%
%TO.N,Net-(J5-PadA14)*%
X119500000Y-65000000D03*
%TO.P,J5,B13*%
%TO.N,Net-(J4-PadA13)*%
X115000000Y-64000000D03*
%TO.P,J5,B14*%
%TO.N,Net-(J4-PadA14)*%
X113000000Y-65000000D03*
%TO.P,J5,A15*%
%TO.N,Net-(J5-PadA15)*%
X117500000Y-66000000D03*
%TO.P,J5,A16*%
%TO.N,Net-(J5-PadA16)*%
X119500000Y-67000000D03*
%TO.P,J5,B15*%
%TO.N,Net-(J4-PadA15)*%
X115000000Y-66000000D03*
%TO.P,J5,B16*%
%TO.N,Net-(J4-PadA16)*%
X113000000Y-67000000D03*
%TO.P,J5,A17*%
%TO.N,Net-(J5-PadA17)*%
X117500000Y-68000000D03*
%TO.P,J5,A18*%
%TO.N,Net-(J5-PadA18)*%
X119500000Y-69000000D03*
%TO.P,J5,B17*%
%TO.N,Net-(J4-PadA17)*%
X115000000Y-68000000D03*
%TO.P,J5,B18*%
%TO.N,Net-(J4-PadA18)*%
X113000000Y-69000000D03*
%TO.P,J5,A19*%
%TO.N,Net-(J5-PadA19)*%
X117500000Y-70000000D03*
%TO.P,J5,A20*%
%TO.N,Net-(J5-PadA20)*%
X119500000Y-71000000D03*
%TO.P,J5,B19*%
%TO.N,Net-(J4-PadA19)*%
X115000000Y-70000000D03*
%TO.P,J5,B20*%
%TO.N,Net-(J4-PadA20)*%
X113000000Y-71000000D03*
%TO.P,J5,A21*%
%TO.N,Net-(J5-PadA21)*%
X117500000Y-72000000D03*
%TO.P,J5,B21*%
%TO.N,Net-(J4-PadA21)*%
X115000000Y-72000000D03*
%TO.P,J5,A22*%
%TO.N,Net-(J5-PadA22)*%
X119500000Y-73000000D03*
%TO.P,J5,B22*%
%TO.N,Net-(J4-PadA22)*%
X113000000Y-73000000D03*
%TO.P,J5,A23*%
%TO.N,Net-(J5-PadA23)*%
X117500000Y-74000000D03*
%TO.P,J5,A24*%
%TO.N,Net-(J5-PadA24)*%
X119500000Y-75000000D03*
%TO.P,J5,B23*%
%TO.N,Net-(J4-PadA23)*%
X115000000Y-74000000D03*
%TO.P,J5,B24*%
%TO.N,Net-(J4-PadA24)*%
X113000000Y-75000000D03*
%TO.P,J5,A25*%
%TO.N,Net-(J5-PadA25)*%
X117500000Y-76000000D03*
%TO.P,J5,A26*%
%TO.N,Net-(J5-PadA26)*%
X119500000Y-77000000D03*
%TO.P,J5,B25*%
%TO.N,Net-(J4-PadA25)*%
X115000000Y-76000000D03*
%TO.P,J5,B26*%
%TO.N,Net-(J4-PadA26)*%
X113000000Y-77000000D03*
%TO.P,J5,A27*%
%TO.N,Net-(J5-PadA27)*%
X117500000Y-78000000D03*
%TO.P,J5,A28*%
%TO.N,Net-(J5-PadA28)*%
X119500000Y-79000000D03*
%TO.P,J5,B27*%
%TO.N,Net-(J4-PadA27)*%
X115000000Y-78000000D03*
%TO.P,J5,B28*%
%TO.N,Net-(J4-PadA28)*%
X113000000Y-79000000D03*
%TO.P,J5,A29*%
%TO.N,Net-(J5-PadA29)*%
X117500000Y-80000000D03*
%TO.P,J5,A30*%
%TO.N,Net-(J5-PadA30)*%
X119500000Y-81000000D03*
%TO.P,J5,B29*%
%TO.N,Net-(J4-PadA29)*%
X115000000Y-80000000D03*
%TO.P,J5,B30*%
%TO.N,Net-(J4-PadA30)*%
X113000000Y-81000000D03*
%TO.P,J5,A31*%
%TO.N,Net-(J5-PadA31)*%
X117500000Y-82000000D03*
%TO.P,J5,B31*%
%TO.N,Net-(J4-PadA31)*%
X115000000Y-82000000D03*
%TO.P,J5,A32*%
%TO.N,Net-(J5-PadA32)*%
X119500000Y-83000000D03*
%TO.P,J5,B32*%
%TO.N,Net-(J4-PadA32)*%
X113000000Y-83000000D03*
%TO.P,J5,A33*%
%TO.N,Net-(J5-PadA33)*%
X117500000Y-84000000D03*
%TO.P,J5,A34*%
%TO.N,Net-(J5-PadA34)*%
X119500000Y-85000000D03*
%TO.P,J5,B33*%
%TO.N,Net-(J4-PadA33)*%
X115000000Y-84000000D03*
%TO.P,J5,B34*%
%TO.N,Net-(J4-PadA34)*%
X113000000Y-85000000D03*
%TO.P,J5,A35*%
%TO.N,Net-(J5-PadA35)*%
X117500000Y-86000000D03*
%TO.P,J5,B35*%
%TO.N,Net-(J4-PadA35)*%
X115000000Y-86000000D03*
%TO.P,J5,A36*%
%TO.N,Net-(J5-PadA36)*%
X119500000Y-87000000D03*
%TO.P,J5,B36*%
%TO.N,Net-(J4-PadA36)*%
X113000000Y-87000000D03*
%TO.P,J5,A37*%
%TO.N,Net-(J5-PadA37)*%
X117500000Y-88000000D03*
%TO.P,J5,A38*%
%TO.N,Net-(J5-PadA38)*%
X119500000Y-89000000D03*
%TO.P,J5,B37*%
%TO.N,Net-(J4-PadA37)*%
X115000000Y-88000000D03*
%TO.P,J5,B38*%
%TO.N,Net-(J4-PadA38)*%
X113000000Y-89000000D03*
%TO.P,J5,A39*%
%TO.N,Net-(J5-PadA39)*%
X117500000Y-90000000D03*
%TO.P,J5,B39*%
%TO.N,Net-(J4-PadA39)*%
X115000000Y-90000000D03*
%TO.P,J5,A40*%
%TO.N,Net-(J5-PadA40)*%
X119500000Y-91000000D03*
%TO.P,J5,B40*%
%TO.N,Net-(J4-PadA40)*%
X113000000Y-91000000D03*
%TO.P,J5,A41*%
%TO.N,Net-(J5-PadA41)*%
X117500000Y-92000000D03*
%TO.P,J5,A42*%
%TO.N,Net-(J5-PadA42)*%
X119500000Y-93000000D03*
%TO.P,J5,B41*%
%TO.N,Net-(J4-PadA41)*%
X115000000Y-92000000D03*
%TO.P,J5,B42*%
%TO.N,Net-(J4-PadA42)*%
X113000000Y-93000000D03*
%TO.P,J5,A43*%
%TO.N,Net-(J5-PadA43)*%
X117500000Y-94000000D03*
%TO.P,J5,B43*%
%TO.N,Net-(J4-PadA43)*%
X115000000Y-94000000D03*
%TO.P,J5,A44*%
%TO.N,Net-(J5-PadA44)*%
X119500000Y-95000000D03*
%TO.P,J5,B44*%
%TO.N,Net-(J4-PadA44)*%
X113000000Y-95000000D03*
%TO.P,J5,A45*%
%TO.N,Net-(J5-PadA45)*%
X117500000Y-96000000D03*
%TO.P,J5,A46*%
%TO.N,Net-(J5-PadA46)*%
X119500000Y-97000000D03*
%TO.P,J5,B45*%
%TO.N,Net-(J4-PadA45)*%
X115000000Y-96000000D03*
%TO.P,J5,B46*%
%TO.N,Net-(J4-PadA46)*%
X113000000Y-97000000D03*
%TO.P,J5,A47*%
%TO.N,Net-(J5-PadA47)*%
X117500000Y-98000000D03*
%TO.P,J5,B47*%
%TO.N,Net-(J4-PadA47)*%
X115000000Y-98000000D03*
%TO.P,J5,A48*%
%TO.N,Net-(J5-PadA48)*%
X119500000Y-99000000D03*
%TO.P,J5,B48*%
%TO.N,Net-(J4-PadA48)*%
X113000000Y-99000000D03*
%TO.P,J5,B49*%
%TO.N,Net-(J4-PadA49)*%
X115000000Y-100000000D03*
%TO.P,J5,A49*%
%TO.N,Net-(J5-PadA49)*%
X117500000Y-100000000D03*
%TD*%
%TO.P,J6,A49*%
%TO.N,Net-(J6-PadA49)*%
X138000000Y-100000000D03*
%TO.P,J6,B49*%
%TO.N,Net-(J5-PadA49)*%
X135500000Y-100000000D03*
%TO.P,J6,B48*%
%TO.N,Net-(J5-PadA48)*%
X133500000Y-99000000D03*
%TO.P,J6,A48*%
%TO.N,Net-(J6-PadA48)*%
X140000000Y-99000000D03*
%TO.P,J6,B47*%
%TO.N,Net-(J5-PadA47)*%
X135500000Y-98000000D03*
%TO.P,J6,A47*%
%TO.N,Net-(J6-PadA47)*%
X138000000Y-98000000D03*
%TO.P,J6,B46*%
%TO.N,Net-(J5-PadA46)*%
X133500000Y-97000000D03*
%TO.P,J6,B45*%
%TO.N,Net-(J5-PadA45)*%
X135500000Y-96000000D03*
%TO.P,J6,A46*%
%TO.N,Net-(J6-PadA46)*%
X140000000Y-97000000D03*
%TO.P,J6,A45*%
%TO.N,Net-(J6-PadA45)*%
X138000000Y-96000000D03*
%TO.P,J6,B44*%
%TO.N,Net-(J5-PadA44)*%
X133500000Y-95000000D03*
%TO.P,J6,A44*%
%TO.N,Net-(J6-PadA44)*%
X140000000Y-95000000D03*
%TO.P,J6,B43*%
%TO.N,Net-(J5-PadA43)*%
X135500000Y-94000000D03*
%TO.P,J6,A43*%
%TO.N,Net-(J6-PadA43)*%
X138000000Y-94000000D03*
%TO.P,J6,B42*%
%TO.N,Net-(J5-PadA42)*%
X133500000Y-93000000D03*
%TO.P,J6,B41*%
%TO.N,Net-(J5-PadA41)*%
X135500000Y-92000000D03*
%TO.P,J6,A42*%
%TO.N,Net-(J6-PadA42)*%
X140000000Y-93000000D03*
%TO.P,J6,A41*%
%TO.N,Net-(J6-PadA41)*%
X138000000Y-92000000D03*
%TO.P,J6,B40*%
%TO.N,Net-(J5-PadA40)*%
X133500000Y-91000000D03*
%TO.P,J6,A40*%
%TO.N,Net-(J6-PadA40)*%
X140000000Y-91000000D03*
%TO.P,J6,B39*%
%TO.N,Net-(J5-PadA39)*%
X135500000Y-90000000D03*
%TO.P,J6,A39*%
%TO.N,Net-(J6-PadA39)*%
X138000000Y-90000000D03*
%TO.P,J6,B38*%
%TO.N,Net-(J5-PadA38)*%
X133500000Y-89000000D03*
%TO.P,J6,B37*%
%TO.N,Net-(J5-PadA37)*%
X135500000Y-88000000D03*
%TO.P,J6,A38*%
%TO.N,Net-(J6-PadA38)*%
X140000000Y-89000000D03*
%TO.P,J6,A37*%
%TO.N,Net-(J6-PadA37)*%
X138000000Y-88000000D03*
%TO.P,J6,B36*%
%TO.N,Net-(J5-PadA36)*%
X133500000Y-87000000D03*
%TO.P,J6,A36*%
%TO.N,Net-(J6-PadA36)*%
X140000000Y-87000000D03*
%TO.P,J6,B35*%
%TO.N,Net-(J5-PadA35)*%
X135500000Y-86000000D03*
%TO.P,J6,A35*%
%TO.N,Net-(J6-PadA35)*%
X138000000Y-86000000D03*
%TO.P,J6,B34*%
%TO.N,Net-(J5-PadA34)*%
X133500000Y-85000000D03*
%TO.P,J6,B33*%
%TO.N,Net-(J5-PadA33)*%
X135500000Y-84000000D03*
%TO.P,J6,A34*%
%TO.N,Net-(J6-PadA34)*%
X140000000Y-85000000D03*
%TO.P,J6,A33*%
%TO.N,Net-(J6-PadA33)*%
X138000000Y-84000000D03*
%TO.P,J6,B32*%
%TO.N,Net-(J5-PadA32)*%
X133500000Y-83000000D03*
%TO.P,J6,A32*%
%TO.N,Net-(J6-PadA32)*%
X140000000Y-83000000D03*
%TO.P,J6,B31*%
%TO.N,Net-(J5-PadA31)*%
X135500000Y-82000000D03*
%TO.P,J6,A31*%
%TO.N,Net-(J6-PadA31)*%
X138000000Y-82000000D03*
%TO.P,J6,B30*%
%TO.N,Net-(J5-PadA30)*%
X133500000Y-81000000D03*
%TO.P,J6,B29*%
%TO.N,Net-(J5-PadA29)*%
X135500000Y-80000000D03*
%TO.P,J6,A30*%
%TO.N,Net-(J6-PadA30)*%
X140000000Y-81000000D03*
%TO.P,J6,A29*%
%TO.N,Net-(J6-PadA29)*%
X138000000Y-80000000D03*
%TO.P,J6,B28*%
%TO.N,Net-(J5-PadA28)*%
X133500000Y-79000000D03*
%TO.P,J6,B27*%
%TO.N,Net-(J5-PadA27)*%
X135500000Y-78000000D03*
%TO.P,J6,A28*%
%TO.N,Net-(J6-PadA28)*%
X140000000Y-79000000D03*
%TO.P,J6,A27*%
%TO.N,Net-(J6-PadA27)*%
X138000000Y-78000000D03*
%TO.P,J6,B26*%
%TO.N,Net-(J5-PadA26)*%
X133500000Y-77000000D03*
%TO.P,J6,B25*%
%TO.N,Net-(J5-PadA25)*%
X135500000Y-76000000D03*
%TO.P,J6,A26*%
%TO.N,Net-(J6-PadA26)*%
X140000000Y-77000000D03*
%TO.P,J6,A25*%
%TO.N,Net-(J6-PadA25)*%
X138000000Y-76000000D03*
%TO.P,J6,B24*%
%TO.N,Net-(J5-PadA24)*%
X133500000Y-75000000D03*
%TO.P,J6,B23*%
%TO.N,Net-(J5-PadA23)*%
X135500000Y-74000000D03*
%TO.P,J6,A24*%
%TO.N,Net-(J6-PadA24)*%
X140000000Y-75000000D03*
%TO.P,J6,A23*%
%TO.N,Net-(J6-PadA23)*%
X138000000Y-74000000D03*
%TO.P,J6,B22*%
%TO.N,Net-(J5-PadA22)*%
X133500000Y-73000000D03*
%TO.P,J6,A22*%
%TO.N,Net-(J6-PadA22)*%
X140000000Y-73000000D03*
%TO.P,J6,B21*%
%TO.N,Net-(J5-PadA21)*%
X135500000Y-72000000D03*
%TO.P,J6,A21*%
%TO.N,Net-(J6-PadA21)*%
X138000000Y-72000000D03*
%TO.P,J6,B20*%
%TO.N,Net-(J5-PadA20)*%
X133500000Y-71000000D03*
%TO.P,J6,B19*%
%TO.N,Net-(J5-PadA19)*%
X135500000Y-70000000D03*
%TO.P,J6,A20*%
%TO.N,Net-(J6-PadA20)*%
X140000000Y-71000000D03*
%TO.P,J6,A19*%
%TO.N,Net-(J6-PadA19)*%
X138000000Y-70000000D03*
%TO.P,J6,B18*%
%TO.N,Net-(J5-PadA18)*%
X133500000Y-69000000D03*
%TO.P,J6,B17*%
%TO.N,Net-(J5-PadA17)*%
X135500000Y-68000000D03*
%TO.P,J6,A18*%
%TO.N,Net-(J6-PadA18)*%
X140000000Y-69000000D03*
%TO.P,J6,A17*%
%TO.N,Net-(J6-PadA17)*%
X138000000Y-68000000D03*
%TO.P,J6,B16*%
%TO.N,Net-(J5-PadA16)*%
X133500000Y-67000000D03*
%TO.P,J6,B15*%
%TO.N,Net-(J5-PadA15)*%
X135500000Y-66000000D03*
%TO.P,J6,A16*%
%TO.N,Net-(J6-PadA16)*%
X140000000Y-67000000D03*
%TO.P,J6,A15*%
%TO.N,Net-(J6-PadA15)*%
X138000000Y-66000000D03*
%TO.P,J6,B14*%
%TO.N,Net-(J5-PadA14)*%
X133500000Y-65000000D03*
%TO.P,J6,B13*%
%TO.N,Net-(J5-PadA13)*%
X135500000Y-64000000D03*
%TO.P,J6,A14*%
%TO.N,Net-(J6-PadA14)*%
X140000000Y-65000000D03*
%TO.P,J6,A13*%
%TO.N,Net-(J6-PadA13)*%
X138000000Y-64000000D03*
%TO.P,J6,B12*%
%TO.N,Net-(J5-PadA12)*%
X133500000Y-63000000D03*
%TO.P,J6,A12*%
%TO.N,Net-(J6-PadA12)*%
X140000000Y-63000000D03*
%TO.P,J6,B11*%
%TO.N,Net-(J1-PadA11)*%
X135500000Y-60000000D03*
%TO.P,J6,A11*%
X138000000Y-60000000D03*
%TO.P,J6,B10*%
%TO.N,Net-(J1-PadA10)*%
X133500000Y-59000000D03*
%TO.P,J6,B9*%
%TO.N,Net-(J1-PadA9)*%
X135500000Y-58000000D03*
%TO.P,J6,A10*%
%TO.N,Net-(J1-PadA10)*%
X140000000Y-59000000D03*
%TO.P,J6,A9*%
%TO.N,Net-(J1-PadA9)*%
X138000000Y-58000000D03*
%TO.P,J6,B8*%
%TO.N,Net-(J1-PadA8)*%
X133500000Y-57000000D03*
%TO.P,J6,B7*%
%TO.N,Net-(J1-PadA7)*%
X135500000Y-56000000D03*
%TO.P,J6,A8*%
%TO.N,Net-(J1-PadA8)*%
X140000000Y-57000000D03*
%TO.P,J6,A7*%
%TO.N,Net-(J1-PadA7)*%
X138000000Y-56000000D03*
%TO.P,J6,B6*%
%TO.N,Net-(J1-PadA6)*%
X133500000Y-55000000D03*
%TO.P,J6,B5*%
%TO.N,Net-(J1-PadA5)*%
X135500000Y-54000000D03*
%TO.P,J6,A6*%
%TO.N,Net-(J1-PadA6)*%
X140000000Y-55000000D03*
%TO.P,J6,A5*%
%TO.N,Net-(J1-PadA5)*%
X138000000Y-54000000D03*
%TO.P,J6,B4*%
%TO.N,Net-(J1-PadA4)*%
X133500000Y-53000000D03*
%TO.P,J6,B3*%
%TO.N,Net-(J1-PadA3)*%
X135500000Y-52000000D03*
%TO.P,J6,A4*%
%TO.N,Net-(J1-PadA4)*%
X140000000Y-53000000D03*
%TO.P,J6,A3*%
%TO.N,Net-(J1-PadA3)*%
X138000000Y-52000000D03*
%TO.P,J6,B2*%
%TO.N,Net-(J1-PadA2)*%
X133500000Y-51000000D03*
%TO.P,J6,B1*%
%TO.N,Net-(J1-PadA1)*%
X135500000Y-50000000D03*
%TO.P,J6,A2*%
%TO.N,Net-(J1-PadA2)*%
X140000000Y-51000000D03*
D12*
%TO.P,J6,A1*%
%TO.N,Net-(J1-PadA1)*%
X138000000Y-50000000D03*
%TD*%
%TO.P,J7,A1*%
%TO.N,Net-(J1-PadA1)*%
X153000000Y-50000000D03*
D13*
%TO.P,J7,A2*%
%TO.N,Net-(J1-PadA2)*%
X155000000Y-51000000D03*
%TO.P,J7,B1*%
%TO.N,Net-(J1-PadA1)*%
X150500000Y-50000000D03*
%TO.P,J7,B2*%
%TO.N,Net-(J1-PadA2)*%
X148500000Y-51000000D03*
%TO.P,J7,A3*%
%TO.N,Net-(J1-PadA3)*%
X153000000Y-52000000D03*
%TO.P,J7,A4*%
%TO.N,Net-(J1-PadA4)*%
X155000000Y-53000000D03*
%TO.P,J7,B3*%
%TO.N,Net-(J1-PadA3)*%
X150500000Y-52000000D03*
%TO.P,J7,B4*%
%TO.N,Net-(J1-PadA4)*%
X148500000Y-53000000D03*
%TO.P,J7,A5*%
%TO.N,Net-(J1-PadA5)*%
X153000000Y-54000000D03*
%TO.P,J7,A6*%
%TO.N,Net-(J1-PadA6)*%
X155000000Y-55000000D03*
%TO.P,J7,B5*%
%TO.N,Net-(J1-PadA5)*%
X150500000Y-54000000D03*
%TO.P,J7,B6*%
%TO.N,Net-(J1-PadA6)*%
X148500000Y-55000000D03*
%TO.P,J7,A7*%
%TO.N,Net-(J1-PadA7)*%
X153000000Y-56000000D03*
%TO.P,J7,A8*%
%TO.N,Net-(J1-PadA8)*%
X155000000Y-57000000D03*
%TO.P,J7,B7*%
%TO.N,Net-(J1-PadA7)*%
X150500000Y-56000000D03*
%TO.P,J7,B8*%
%TO.N,Net-(J1-PadA8)*%
X148500000Y-57000000D03*
%TO.P,J7,A9*%
%TO.N,Net-(J1-PadA9)*%
X153000000Y-58000000D03*
%TO.P,J7,A10*%
%TO.N,Net-(J1-PadA10)*%
X155000000Y-59000000D03*
%TO.P,J7,B9*%
%TO.N,Net-(J1-PadA9)*%
X150500000Y-58000000D03*
%TO.P,J7,B10*%
%TO.N,Net-(J1-PadA10)*%
X148500000Y-59000000D03*
%TO.P,J7,A11*%
%TO.N,Net-(J1-PadA11)*%
X153000000Y-60000000D03*
%TO.P,J7,B11*%
X150500000Y-60000000D03*
%TO.P,J7,A12*%
%TO.N,Net-(J7-PadA12)*%
X155000000Y-63000000D03*
%TO.P,J7,B12*%
%TO.N,Net-(J6-PadA12)*%
X148500000Y-63000000D03*
%TO.P,J7,A13*%
%TO.N,Net-(J7-PadA13)*%
X153000000Y-64000000D03*
%TO.P,J7,A14*%
%TO.N,Net-(J7-PadA14)*%
X155000000Y-65000000D03*
%TO.P,J7,B13*%
%TO.N,Net-(J6-PadA13)*%
X150500000Y-64000000D03*
%TO.P,J7,B14*%
%TO.N,Net-(J6-PadA14)*%
X148500000Y-65000000D03*
%TO.P,J7,A15*%
%TO.N,Net-(J7-PadA15)*%
X153000000Y-66000000D03*
%TO.P,J7,A16*%
%TO.N,Net-(J7-PadA16)*%
X155000000Y-67000000D03*
%TO.P,J7,B15*%
%TO.N,Net-(J6-PadA15)*%
X150500000Y-66000000D03*
%TO.P,J7,B16*%
%TO.N,Net-(J6-PadA16)*%
X148500000Y-67000000D03*
%TO.P,J7,A17*%
%TO.N,Net-(J7-PadA17)*%
X153000000Y-68000000D03*
%TO.P,J7,A18*%
%TO.N,Net-(J7-PadA18)*%
X155000000Y-69000000D03*
%TO.P,J7,B17*%
%TO.N,Net-(J6-PadA17)*%
X150500000Y-68000000D03*
%TO.P,J7,B18*%
%TO.N,Net-(J6-PadA18)*%
X148500000Y-69000000D03*
%TO.P,J7,A19*%
%TO.N,Net-(J7-PadA19)*%
X153000000Y-70000000D03*
%TO.P,J7,A20*%
%TO.N,Net-(J7-PadA20)*%
X155000000Y-71000000D03*
%TO.P,J7,B19*%
%TO.N,Net-(J6-PadA19)*%
X150500000Y-70000000D03*
%TO.P,J7,B20*%
%TO.N,Net-(J6-PadA20)*%
X148500000Y-71000000D03*
%TO.P,J7,A21*%
%TO.N,Net-(J7-PadA21)*%
X153000000Y-72000000D03*
%TO.P,J7,B21*%
%TO.N,Net-(J6-PadA21)*%
X150500000Y-72000000D03*
%TO.P,J7,A22*%
%TO.N,Net-(J7-PadA22)*%
X155000000Y-73000000D03*
%TO.P,J7,B22*%
%TO.N,Net-(J6-PadA22)*%
X148500000Y-73000000D03*
%TO.P,J7,A23*%
%TO.N,Net-(J7-PadA23)*%
X153000000Y-74000000D03*
%TO.P,J7,A24*%
%TO.N,Net-(J7-PadA24)*%
X155000000Y-75000000D03*
%TO.P,J7,B23*%
%TO.N,Net-(J6-PadA23)*%
X150500000Y-74000000D03*
%TO.P,J7,B24*%
%TO.N,Net-(J6-PadA24)*%
X148500000Y-75000000D03*
%TO.P,J7,A25*%
%TO.N,Net-(J7-PadA25)*%
X153000000Y-76000000D03*
%TO.P,J7,A26*%
%TO.N,Net-(J7-PadA26)*%
X155000000Y-77000000D03*
%TO.P,J7,B25*%
%TO.N,Net-(J6-PadA25)*%
X150500000Y-76000000D03*
%TO.P,J7,B26*%
%TO.N,Net-(J6-PadA26)*%
X148500000Y-77000000D03*
%TO.P,J7,A27*%
%TO.N,Net-(J7-PadA27)*%
X153000000Y-78000000D03*
%TO.P,J7,A28*%
%TO.N,Net-(J7-PadA28)*%
X155000000Y-79000000D03*
%TO.P,J7,B27*%
%TO.N,Net-(J6-PadA27)*%
X150500000Y-78000000D03*
%TO.P,J7,B28*%
%TO.N,Net-(J6-PadA28)*%
X148500000Y-79000000D03*
%TO.P,J7,A29*%
%TO.N,Net-(J7-PadA29)*%
X153000000Y-80000000D03*
%TO.P,J7,A30*%
%TO.N,Net-(J7-PadA30)*%
X155000000Y-81000000D03*
%TO.P,J7,B29*%
%TO.N,Net-(J6-PadA29)*%
X150500000Y-80000000D03*
%TO.P,J7,B30*%
%TO.N,Net-(J6-PadA30)*%
X148500000Y-81000000D03*
%TO.P,J7,A31*%
%TO.N,Net-(J7-PadA31)*%
X153000000Y-82000000D03*
%TO.P,J7,B31*%
%TO.N,Net-(J6-PadA31)*%
X150500000Y-82000000D03*
%TO.P,J7,A32*%
%TO.N,Net-(J7-PadA32)*%
X155000000Y-83000000D03*
%TO.P,J7,B32*%
%TO.N,Net-(J6-PadA32)*%
X148500000Y-83000000D03*
%TO.P,J7,A33*%
%TO.N,Net-(J7-PadA33)*%
X153000000Y-84000000D03*
%TO.P,J7,A34*%
%TO.N,Net-(J7-PadA34)*%
X155000000Y-85000000D03*
%TO.P,J7,B33*%
%TO.N,Net-(J6-PadA33)*%
X150500000Y-84000000D03*
%TO.P,J7,B34*%
%TO.N,Net-(J6-PadA34)*%
X148500000Y-85000000D03*
%TO.P,J7,A35*%
%TO.N,Net-(J7-PadA35)*%
X153000000Y-86000000D03*
%TO.P,J7,B35*%
%TO.N,Net-(J6-PadA35)*%
X150500000Y-86000000D03*
%TO.P,J7,A36*%
%TO.N,Net-(J7-PadA36)*%
X155000000Y-87000000D03*
%TO.P,J7,B36*%
%TO.N,Net-(J6-PadA36)*%
X148500000Y-87000000D03*
%TO.P,J7,A37*%
%TO.N,Net-(J7-PadA37)*%
X153000000Y-88000000D03*
%TO.P,J7,A38*%
%TO.N,Net-(J7-PadA38)*%
X155000000Y-89000000D03*
%TO.P,J7,B37*%
%TO.N,Net-(J6-PadA37)*%
X150500000Y-88000000D03*
%TO.P,J7,B38*%
%TO.N,Net-(J6-PadA38)*%
X148500000Y-89000000D03*
%TO.P,J7,A39*%
%TO.N,Net-(J7-PadA39)*%
X153000000Y-90000000D03*
%TO.P,J7,B39*%
%TO.N,Net-(J6-PadA39)*%
X150500000Y-90000000D03*
%TO.P,J7,A40*%
%TO.N,Net-(J7-PadA40)*%
X155000000Y-91000000D03*
%TO.P,J7,B40*%
%TO.N,Net-(J6-PadA40)*%
X148500000Y-91000000D03*
%TO.P,J7,A41*%
%TO.N,Net-(J7-PadA41)*%
X153000000Y-92000000D03*
%TO.P,J7,A42*%
%TO.N,Net-(J7-PadA42)*%
X155000000Y-93000000D03*
%TO.P,J7,B41*%
%TO.N,Net-(J6-PadA41)*%
X150500000Y-92000000D03*
%TO.P,J7,B42*%
%TO.N,Net-(J6-PadA42)*%
X148500000Y-93000000D03*
%TO.P,J7,A43*%
%TO.N,Net-(J7-PadA43)*%
X153000000Y-94000000D03*
%TO.P,J7,B43*%
%TO.N,Net-(J6-PadA43)*%
X150500000Y-94000000D03*
%TO.P,J7,A44*%
%TO.N,Net-(J7-PadA44)*%
X155000000Y-95000000D03*
%TO.P,J7,B44*%
%TO.N,Net-(J6-PadA44)*%
X148500000Y-95000000D03*
%TO.P,J7,A45*%
%TO.N,Net-(J7-PadA45)*%
X153000000Y-96000000D03*
%TO.P,J7,A46*%
%TO.N,Net-(J7-PadA46)*%
X155000000Y-97000000D03*
%TO.P,J7,B45*%
%TO.N,Net-(J6-PadA45)*%
X150500000Y-96000000D03*
%TO.P,J7,B46*%
%TO.N,Net-(J6-PadA46)*%
X148500000Y-97000000D03*
%TO.P,J7,A47*%
%TO.N,Net-(J7-PadA47)*%
X153000000Y-98000000D03*
%TO.P,J7,B47*%
%TO.N,Net-(J6-PadA47)*%
X150500000Y-98000000D03*
%TO.P,J7,A48*%
%TO.N,Net-(J7-PadA48)*%
X155000000Y-99000000D03*
%TO.P,J7,B48*%
%TO.N,Net-(J6-PadA48)*%
X148500000Y-99000000D03*
%TO.P,J7,B49*%
%TO.N,Net-(J6-PadA49)*%
X150500000Y-100000000D03*
%TO.P,J7,A49*%
%TO.N,Net-(J7-PadA49)*%
X153000000Y-100000000D03*
%TD*%
%TO.P,J8,A49*%
%TO.N,Net-(J8-PadA49)*%
X168000000Y-100000000D03*
%TO.P,J8,B49*%
%TO.N,Net-(J7-PadA49)*%
X165500000Y-100000000D03*
%TO.P,J8,B48*%
%TO.N,Net-(J7-PadA48)*%
X163500000Y-99000000D03*
%TO.P,J8,A48*%
%TO.N,Net-(J8-PadA48)*%
X170000000Y-99000000D03*
%TO.P,J8,B47*%
%TO.N,Net-(J7-PadA47)*%
X165500000Y-98000000D03*
%TO.P,J8,A47*%
%TO.N,Net-(J8-PadA47)*%
X168000000Y-98000000D03*
%TO.P,J8,B46*%
%TO.N,Net-(J7-PadA46)*%
X163500000Y-97000000D03*
%TO.P,J8,B45*%
%TO.N,Net-(J7-PadA45)*%
X165500000Y-96000000D03*
%TO.P,J8,A46*%
%TO.N,Net-(J8-PadA46)*%
X170000000Y-97000000D03*
%TO.P,J8,A45*%
%TO.N,Net-(J8-PadA45)*%
X168000000Y-96000000D03*
%TO.P,J8,B44*%
%TO.N,Net-(J7-PadA44)*%
X163500000Y-95000000D03*
%TO.P,J8,A44*%
%TO.N,Net-(J8-PadA44)*%
X170000000Y-95000000D03*
%TO.P,J8,B43*%
%TO.N,Net-(J7-PadA43)*%
X165500000Y-94000000D03*
%TO.P,J8,A43*%
%TO.N,Net-(J8-PadA43)*%
X168000000Y-94000000D03*
%TO.P,J8,B42*%
%TO.N,Net-(J7-PadA42)*%
X163500000Y-93000000D03*
%TO.P,J8,B41*%
%TO.N,Net-(J7-PadA41)*%
X165500000Y-92000000D03*
%TO.P,J8,A42*%
%TO.N,Net-(J8-PadA42)*%
X170000000Y-93000000D03*
%TO.P,J8,A41*%
%TO.N,Net-(J8-PadA41)*%
X168000000Y-92000000D03*
%TO.P,J8,B40*%
%TO.N,Net-(J7-PadA40)*%
X163500000Y-91000000D03*
%TO.P,J8,A40*%
%TO.N,Net-(J8-PadA40)*%
X170000000Y-91000000D03*
%TO.P,J8,B39*%
%TO.N,Net-(J7-PadA39)*%
X165500000Y-90000000D03*
%TO.P,J8,A39*%
%TO.N,Net-(J8-PadA39)*%
X168000000Y-90000000D03*
%TO.P,J8,B38*%
%TO.N,Net-(J7-PadA38)*%
X163500000Y-89000000D03*
%TO.P,J8,B37*%
%TO.N,Net-(J7-PadA37)*%
X165500000Y-88000000D03*
%TO.P,J8,A38*%
%TO.N,Net-(J8-PadA38)*%
X170000000Y-89000000D03*
%TO.P,J8,A37*%
%TO.N,Net-(J8-PadA37)*%
X168000000Y-88000000D03*
%TO.P,J8,B36*%
%TO.N,Net-(J7-PadA36)*%
X163500000Y-87000000D03*
%TO.P,J8,A36*%
%TO.N,Net-(J8-PadA36)*%
X170000000Y-87000000D03*
%TO.P,J8,B35*%
%TO.N,Net-(J7-PadA35)*%
X165500000Y-86000000D03*
%TO.P,J8,A35*%
%TO.N,Net-(J8-PadA35)*%
X168000000Y-86000000D03*
%TO.P,J8,B34*%
%TO.N,Net-(J7-PadA34)*%
X163500000Y-85000000D03*
%TO.P,J8,B33*%
%TO.N,Net-(J7-PadA33)*%
X165500000Y-84000000D03*
%TO.P,J8,A34*%
%TO.N,Net-(J8-PadA34)*%
X170000000Y-85000000D03*
%TO.P,J8,A33*%
%TO.N,Net-(J8-PadA33)*%
X168000000Y-84000000D03*
%TO.P,J8,B32*%
%TO.N,Net-(J7-PadA32)*%
X163500000Y-83000000D03*
%TO.P,J8,A32*%
%TO.N,Net-(J8-PadA32)*%
X170000000Y-83000000D03*
%TO.P,J8,B31*%
%TO.N,Net-(J7-PadA31)*%
X165500000Y-82000000D03*
%TO.P,J8,A31*%
%TO.N,Net-(J8-PadA31)*%
X168000000Y-82000000D03*
%TO.P,J8,B30*%
%TO.N,Net-(J7-PadA30)*%
X163500000Y-81000000D03*
%TO.P,J8,B29*%
%TO.N,Net-(J7-PadA29)*%
X165500000Y-80000000D03*
%TO.P,J8,A30*%
%TO.N,Net-(J8-PadA30)*%
X170000000Y-81000000D03*
%TO.P,J8,A29*%
%TO.N,Net-(J8-PadA29)*%
X168000000Y-80000000D03*
%TO.P,J8,B28*%
%TO.N,Net-(J7-PadA28)*%
X163500000Y-79000000D03*
%TO.P,J8,B27*%
%TO.N,Net-(J7-PadA27)*%
X165500000Y-78000000D03*
%TO.P,J8,A28*%
%TO.N,Net-(J8-PadA28)*%
X170000000Y-79000000D03*
%TO.P,J8,A27*%
%TO.N,Net-(J8-PadA27)*%
X168000000Y-78000000D03*
%TO.P,J8,B26*%
%TO.N,Net-(J7-PadA26)*%
X163500000Y-77000000D03*
%TO.P,J8,B25*%
%TO.N,Net-(J7-PadA25)*%
X165500000Y-76000000D03*
%TO.P,J8,A26*%
%TO.N,Net-(J8-PadA26)*%
X170000000Y-77000000D03*
%TO.P,J8,A25*%
%TO.N,Net-(J8-PadA25)*%
X168000000Y-76000000D03*
%TO.P,J8,B24*%
%TO.N,Net-(J7-PadA24)*%
X163500000Y-75000000D03*
%TO.P,J8,B23*%
%TO.N,Net-(J7-PadA23)*%
X165500000Y-74000000D03*
%TO.P,J8,A24*%
%TO.N,Net-(J8-PadA24)*%
X170000000Y-75000000D03*
%TO.P,J8,A23*%
%TO.N,Net-(J8-PadA23)*%
X168000000Y-74000000D03*
%TO.P,J8,B22*%
%TO.N,Net-(J7-PadA22)*%
X163500000Y-73000000D03*
%TO.P,J8,A22*%
%TO.N,Net-(J8-PadA22)*%
X170000000Y-73000000D03*
%TO.P,J8,B21*%
%TO.N,Net-(J7-PadA21)*%
X165500000Y-72000000D03*
%TO.P,J8,A21*%
%TO.N,Net-(J8-PadA21)*%
X168000000Y-72000000D03*
%TO.P,J8,B20*%
%TO.N,Net-(J7-PadA20)*%
X163500000Y-71000000D03*
%TO.P,J8,B19*%
%TO.N,Net-(J7-PadA19)*%
X165500000Y-70000000D03*
%TO.P,J8,A20*%
%TO.N,Net-(J8-PadA20)*%
X170000000Y-71000000D03*
%TO.P,J8,A19*%
%TO.N,Net-(J8-PadA19)*%
X168000000Y-70000000D03*
%TO.P,J8,B18*%
%TO.N,Net-(J7-PadA18)*%
X163500000Y-69000000D03*
%TO.P,J8,B17*%
%TO.N,Net-(J7-PadA17)*%
X165500000Y-68000000D03*
%TO.P,J8,A18*%
%TO.N,Net-(J8-PadA18)*%
X170000000Y-69000000D03*
%TO.P,J8,A17*%
%TO.N,Net-(J8-PadA17)*%
X168000000Y-68000000D03*
%TO.P,J8,B16*%
%TO.N,Net-(J7-PadA16)*%
X163500000Y-67000000D03*
%TO.P,J8,B15*%
%TO.N,Net-(J7-PadA15)*%
X165500000Y-66000000D03*
%TO.P,J8,A16*%
%TO.N,Net-(J8-PadA16)*%
X170000000Y-67000000D03*
%TO.P,J8,A15*%
%TO.N,Net-(J8-PadA15)*%
X168000000Y-66000000D03*
%TO.P,J8,B14*%
%TO.N,Net-(J7-PadA14)*%
X163500000Y-65000000D03*
%TO.P,J8,B13*%
%TO.N,Net-(J7-PadA13)*%
X165500000Y-64000000D03*
%TO.P,J8,A14*%
%TO.N,Net-(J8-PadA14)*%
X170000000Y-65000000D03*
%TO.P,J8,A13*%
%TO.N,Net-(J8-PadA13)*%
X168000000Y-64000000D03*
%TO.P,J8,B12*%
%TO.N,Net-(J7-PadA12)*%
X163500000Y-63000000D03*
%TO.P,J8,A12*%
%TO.N,Net-(J8-PadA12)*%
X170000000Y-63000000D03*
%TO.P,J8,B11*%
%TO.N,Net-(J1-PadA11)*%
X165500000Y-60000000D03*
%TO.P,J8,A11*%
X168000000Y-60000000D03*
%TO.P,J8,B10*%
%TO.N,Net-(J1-PadA10)*%
X163500000Y-59000000D03*
%TO.P,J8,B9*%
%TO.N,Net-(J1-PadA9)*%
X165500000Y-58000000D03*
%TO.P,J8,A10*%
%TO.N,Net-(J1-PadA10)*%
X170000000Y-59000000D03*
%TO.P,J8,A9*%
%TO.N,Net-(J1-PadA9)*%
X168000000Y-58000000D03*
%TO.P,J8,B8*%
%TO.N,Net-(J1-PadA8)*%
X163500000Y-57000000D03*
%TO.P,J8,B7*%
%TO.N,Net-(J1-PadA7)*%
X165500000Y-56000000D03*
%TO.P,J8,A8*%
%TO.N,Net-(J1-PadA8)*%
X170000000Y-57000000D03*
%TO.P,J8,A7*%
%TO.N,Net-(J1-PadA7)*%
X168000000Y-56000000D03*
%TO.P,J8,B6*%
%TO.N,Net-(J1-PadA6)*%
X163500000Y-55000000D03*
%TO.P,J8,B5*%
%TO.N,Net-(J1-PadA5)*%
X165500000Y-54000000D03*
%TO.P,J8,A6*%
%TO.N,Net-(J1-PadA6)*%
X170000000Y-55000000D03*
%TO.P,J8,A5*%
%TO.N,Net-(J1-PadA5)*%
X168000000Y-54000000D03*
%TO.P,J8,B4*%
%TO.N,Net-(J1-PadA4)*%
X163500000Y-53000000D03*
%TO.P,J8,B3*%
%TO.N,Net-(J1-PadA3)*%
X165500000Y-52000000D03*
%TO.P,J8,A4*%
%TO.N,Net-(J1-PadA4)*%
X170000000Y-53000000D03*
%TO.P,J8,A3*%
%TO.N,Net-(J1-PadA3)*%
X168000000Y-52000000D03*
%TO.P,J8,B2*%
%TO.N,Net-(J1-PadA2)*%
X163500000Y-51000000D03*
%TO.P,J8,B1*%
%TO.N,Net-(J1-PadA1)*%
X165500000Y-50000000D03*
%TO.P,J8,A2*%
%TO.N,Net-(J1-PadA2)*%
X170000000Y-51000000D03*
D12*
%TO.P,J8,A1*%
%TO.N,Net-(J1-PadA1)*%
X168000000Y-50000000D03*
%TD*%
%TO.P,J9,A1*%
%TO.N,Net-(J1-PadA1)*%
X183000000Y-50000000D03*
D13*
%TO.P,J9,A2*%
%TO.N,Net-(J1-PadA2)*%
X185000000Y-51000000D03*
%TO.P,J9,B1*%
%TO.N,Net-(J1-PadA1)*%
X180500000Y-50000000D03*
%TO.P,J9,B2*%
%TO.N,Net-(J1-PadA2)*%
X178500000Y-51000000D03*
%TO.P,J9,A3*%
%TO.N,Net-(J1-PadA3)*%
X183000000Y-52000000D03*
%TO.P,J9,A4*%
%TO.N,Net-(J1-PadA4)*%
X185000000Y-53000000D03*
%TO.P,J9,B3*%
%TO.N,Net-(J1-PadA3)*%
X180500000Y-52000000D03*
%TO.P,J9,B4*%
%TO.N,Net-(J1-PadA4)*%
X178500000Y-53000000D03*
%TO.P,J9,A5*%
%TO.N,Net-(J1-PadA5)*%
X183000000Y-54000000D03*
%TO.P,J9,A6*%
%TO.N,Net-(J1-PadA6)*%
X185000000Y-55000000D03*
%TO.P,J9,B5*%
%TO.N,Net-(J1-PadA5)*%
X180500000Y-54000000D03*
%TO.P,J9,B6*%
%TO.N,Net-(J1-PadA6)*%
X178500000Y-55000000D03*
%TO.P,J9,A7*%
%TO.N,Net-(J1-PadA7)*%
X183000000Y-56000000D03*
%TO.P,J9,A8*%
%TO.N,Net-(J1-PadA8)*%
X185000000Y-57000000D03*
%TO.P,J9,B7*%
%TO.N,Net-(J1-PadA7)*%
X180500000Y-56000000D03*
%TO.P,J9,B8*%
%TO.N,Net-(J1-PadA8)*%
X178500000Y-57000000D03*
%TO.P,J9,A9*%
%TO.N,Net-(J1-PadA9)*%
X183000000Y-58000000D03*
%TO.P,J9,A10*%
%TO.N,Net-(J1-PadA10)*%
X185000000Y-59000000D03*
%TO.P,J9,B9*%
%TO.N,Net-(J1-PadA9)*%
X180500000Y-58000000D03*
%TO.P,J9,B10*%
%TO.N,Net-(J1-PadA10)*%
X178500000Y-59000000D03*
%TO.P,J9,A11*%
%TO.N,Net-(J1-PadA11)*%
X183000000Y-60000000D03*
%TO.P,J9,B11*%
X180500000Y-60000000D03*
%TO.P,J9,A12*%
%TO.N,Net-(J10-PadB12)*%
X185000000Y-63000000D03*
%TO.P,J9,B12*%
%TO.N,Net-(J8-PadA12)*%
X178500000Y-63000000D03*
%TO.P,J9,A13*%
%TO.N,Net-(J10-PadB13)*%
X183000000Y-64000000D03*
%TO.P,J9,A14*%
%TO.N,Net-(J10-PadB14)*%
X185000000Y-65000000D03*
%TO.P,J9,B13*%
%TO.N,Net-(J8-PadA13)*%
X180500000Y-64000000D03*
%TO.P,J9,B14*%
%TO.N,Net-(J8-PadA14)*%
X178500000Y-65000000D03*
%TO.P,J9,A15*%
%TO.N,Net-(J10-PadB15)*%
X183000000Y-66000000D03*
%TO.P,J9,A16*%
%TO.N,Net-(J10-PadB16)*%
X185000000Y-67000000D03*
%TO.P,J9,B15*%
%TO.N,Net-(J8-PadA15)*%
X180500000Y-66000000D03*
%TO.P,J9,B16*%
%TO.N,Net-(J8-PadA16)*%
X178500000Y-67000000D03*
%TO.P,J9,A17*%
%TO.N,Net-(J10-PadB17)*%
X183000000Y-68000000D03*
%TO.P,J9,A18*%
%TO.N,Net-(J10-PadB18)*%
X185000000Y-69000000D03*
%TO.P,J9,B17*%
%TO.N,Net-(J8-PadA17)*%
X180500000Y-68000000D03*
%TO.P,J9,B18*%
%TO.N,Net-(J8-PadA18)*%
X178500000Y-69000000D03*
%TO.P,J9,A19*%
%TO.N,Net-(J10-PadB19)*%
X183000000Y-70000000D03*
%TO.P,J9,A20*%
%TO.N,Net-(J10-PadB20)*%
X185000000Y-71000000D03*
%TO.P,J9,B19*%
%TO.N,Net-(J8-PadA19)*%
X180500000Y-70000000D03*
%TO.P,J9,B20*%
%TO.N,Net-(J8-PadA20)*%
X178500000Y-71000000D03*
%TO.P,J9,A21*%
%TO.N,Net-(J10-PadB21)*%
X183000000Y-72000000D03*
%TO.P,J9,B21*%
%TO.N,Net-(J8-PadA21)*%
X180500000Y-72000000D03*
%TO.P,J9,A22*%
%TO.N,Net-(J10-PadB22)*%
X185000000Y-73000000D03*
%TO.P,J9,B22*%
%TO.N,Net-(J8-PadA22)*%
X178500000Y-73000000D03*
%TO.P,J9,A23*%
%TO.N,Net-(J10-PadB23)*%
X183000000Y-74000000D03*
%TO.P,J9,A24*%
%TO.N,Net-(J10-PadB24)*%
X185000000Y-75000000D03*
%TO.P,J9,B23*%
%TO.N,Net-(J8-PadA23)*%
X180500000Y-74000000D03*
%TO.P,J9,B24*%
%TO.N,Net-(J8-PadA24)*%
X178500000Y-75000000D03*
%TO.P,J9,A25*%
%TO.N,Net-(J10-PadB25)*%
X183000000Y-76000000D03*
%TO.P,J9,A26*%
%TO.N,Net-(J10-PadB26)*%
X185000000Y-77000000D03*
%TO.P,J9,B25*%
%TO.N,Net-(J8-PadA25)*%
X180500000Y-76000000D03*
%TO.P,J9,B26*%
%TO.N,Net-(J8-PadA26)*%
X178500000Y-77000000D03*
%TO.P,J9,A27*%
%TO.N,Net-(J10-PadB27)*%
X183000000Y-78000000D03*
%TO.P,J9,A28*%
%TO.N,Net-(J10-PadB28)*%
X185000000Y-79000000D03*
%TO.P,J9,B27*%
%TO.N,Net-(J8-PadA27)*%
X180500000Y-78000000D03*
%TO.P,J9,B28*%
%TO.N,Net-(J8-PadA28)*%
X178500000Y-79000000D03*
%TO.P,J9,A29*%
%TO.N,Net-(J10-PadB29)*%
X183000000Y-80000000D03*
%TO.P,J9,A30*%
%TO.N,Net-(J10-PadB30)*%
X185000000Y-81000000D03*
%TO.P,J9,B29*%
%TO.N,Net-(J8-PadA29)*%
X180500000Y-80000000D03*
%TO.P,J9,B30*%
%TO.N,Net-(J8-PadA30)*%
X178500000Y-81000000D03*
%TO.P,J9,A31*%
%TO.N,Net-(J10-PadB31)*%
X183000000Y-82000000D03*
%TO.P,J9,B31*%
%TO.N,Net-(J8-PadA31)*%
X180500000Y-82000000D03*
%TO.P,J9,A32*%
%TO.N,Net-(J10-PadB32)*%
X185000000Y-83000000D03*
%TO.P,J9,B32*%
%TO.N,Net-(J8-PadA32)*%
X178500000Y-83000000D03*
%TO.P,J9,A33*%
%TO.N,Net-(J10-PadB33)*%
X183000000Y-84000000D03*
%TO.P,J9,A34*%
%TO.N,Net-(J10-PadB34)*%
X185000000Y-85000000D03*
%TO.P,J9,B33*%
%TO.N,Net-(J8-PadA33)*%
X180500000Y-84000000D03*
%TO.P,J9,B34*%
%TO.N,Net-(J8-PadA34)*%
X178500000Y-85000000D03*
%TO.P,J9,A35*%
%TO.N,Net-(J10-PadB35)*%
X183000000Y-86000000D03*
%TO.P,J9,B35*%
%TO.N,Net-(J8-PadA35)*%
X180500000Y-86000000D03*
%TO.P,J9,A36*%
%TO.N,Net-(J10-PadB36)*%
X185000000Y-87000000D03*
%TO.P,J9,B36*%
%TO.N,Net-(J8-PadA36)*%
X178500000Y-87000000D03*
%TO.P,J9,A37*%
%TO.N,Net-(J10-PadB37)*%
X183000000Y-88000000D03*
%TO.P,J9,A38*%
%TO.N,Net-(J10-PadB38)*%
X185000000Y-89000000D03*
%TO.P,J9,B37*%
%TO.N,Net-(J8-PadA37)*%
X180500000Y-88000000D03*
%TO.P,J9,B38*%
%TO.N,Net-(J8-PadA38)*%
X178500000Y-89000000D03*
%TO.P,J9,A39*%
%TO.N,Net-(J10-PadB39)*%
X183000000Y-90000000D03*
%TO.P,J9,B39*%
%TO.N,Net-(J8-PadA39)*%
X180500000Y-90000000D03*
%TO.P,J9,A40*%
%TO.N,Net-(J10-PadB40)*%
X185000000Y-91000000D03*
%TO.P,J9,B40*%
%TO.N,Net-(J8-PadA40)*%
X178500000Y-91000000D03*
%TO.P,J9,A41*%
%TO.N,Net-(J10-PadB41)*%
X183000000Y-92000000D03*
%TO.P,J9,A42*%
%TO.N,Net-(J10-PadB42)*%
X185000000Y-93000000D03*
%TO.P,J9,B41*%
%TO.N,Net-(J8-PadA41)*%
X180500000Y-92000000D03*
%TO.P,J9,B42*%
%TO.N,Net-(J8-PadA42)*%
X178500000Y-93000000D03*
%TO.P,J9,A43*%
%TO.N,Net-(J10-PadB43)*%
X183000000Y-94000000D03*
%TO.P,J9,B43*%
%TO.N,Net-(J8-PadA43)*%
X180500000Y-94000000D03*
%TO.P,J9,A44*%
%TO.N,Net-(J10-PadB44)*%
X185000000Y-95000000D03*
%TO.P,J9,B44*%
%TO.N,Net-(J8-PadA44)*%
X178500000Y-95000000D03*
%TO.P,J9,A45*%
%TO.N,Net-(J10-PadB45)*%
X183000000Y-96000000D03*
%TO.P,J9,A46*%
%TO.N,Net-(J10-PadB46)*%
X185000000Y-97000000D03*
%TO.P,J9,B45*%
%TO.N,Net-(J8-PadA45)*%
X180500000Y-96000000D03*
%TO.P,J9,B46*%
%TO.N,Net-(J8-PadA46)*%
X178500000Y-97000000D03*
%TO.P,J9,A47*%
%TO.N,Net-(J10-PadB47)*%
X183000000Y-98000000D03*
%TO.P,J9,B47*%
%TO.N,Net-(J8-PadA47)*%
X180500000Y-98000000D03*
%TO.P,J9,A48*%
%TO.N,Net-(J10-PadB48)*%
X185000000Y-99000000D03*
%TO.P,J9,B48*%
%TO.N,Net-(J8-PadA48)*%
X178500000Y-99000000D03*
%TO.P,J9,B49*%
%TO.N,Net-(J8-PadA49)*%
X180500000Y-100000000D03*
%TO.P,J9,A49*%
%TO.N,Net-(J10-PadB49)*%
X183000000Y-100000000D03*
%TD*%
%TO.P,J10,A49*%
%TO.N,N/C*%
X198000000Y-100000000D03*
%TO.P,J10,B49*%
%TO.N,Net-(J10-PadB49)*%
X195500000Y-100000000D03*
%TO.P,J10,B48*%
%TO.N,Net-(J10-PadB48)*%
X193500000Y-99000000D03*
%TO.P,J10,A48*%
%TO.N,N/C*%
X200000000Y-99000000D03*
%TO.P,J10,B47*%
%TO.N,Net-(J10-PadB47)*%
X195500000Y-98000000D03*
%TO.P,J10,A47*%
%TO.N,N/C*%
X198000000Y-98000000D03*
%TO.P,J10,B46*%
%TO.N,Net-(J10-PadB46)*%
X193500000Y-97000000D03*
%TO.P,J10,B45*%
%TO.N,Net-(J10-PadB45)*%
X195500000Y-96000000D03*
%TO.P,J10,A46*%
%TO.N,N/C*%
X200000000Y-97000000D03*
%TO.P,J10,A45*%
X198000000Y-96000000D03*
%TO.P,J10,B44*%
%TO.N,Net-(J10-PadB44)*%
X193500000Y-95000000D03*
%TO.P,J10,A44*%
%TO.N,N/C*%
X200000000Y-95000000D03*
%TO.P,J10,B43*%
%TO.N,Net-(J10-PadB43)*%
X195500000Y-94000000D03*
%TO.P,J10,A43*%
%TO.N,N/C*%
X198000000Y-94000000D03*
%TO.P,J10,B42*%
%TO.N,Net-(J10-PadB42)*%
X193500000Y-93000000D03*
%TO.P,J10,B41*%
%TO.N,Net-(J10-PadB41)*%
X195500000Y-92000000D03*
%TO.P,J10,A42*%
%TO.N,N/C*%
X200000000Y-93000000D03*
%TO.P,J10,A41*%
X198000000Y-92000000D03*
%TO.P,J10,B40*%
%TO.N,Net-(J10-PadB40)*%
X193500000Y-91000000D03*
%TO.P,J10,A40*%
%TO.N,N/C*%
X200000000Y-91000000D03*
%TO.P,J10,B39*%
%TO.N,Net-(J10-PadB39)*%
X195500000Y-90000000D03*
%TO.P,J10,A39*%
%TO.N,N/C*%
X198000000Y-90000000D03*
%TO.P,J10,B38*%
%TO.N,Net-(J10-PadB38)*%
X193500000Y-89000000D03*
%TO.P,J10,B37*%
%TO.N,Net-(J10-PadB37)*%
X195500000Y-88000000D03*
%TO.P,J10,A38*%
%TO.N,N/C*%
X200000000Y-89000000D03*
%TO.P,J10,A37*%
X198000000Y-88000000D03*
%TO.P,J10,B36*%
%TO.N,Net-(J10-PadB36)*%
X193500000Y-87000000D03*
%TO.P,J10,A36*%
%TO.N,N/C*%
X200000000Y-87000000D03*
%TO.P,J10,B35*%
%TO.N,Net-(J10-PadB35)*%
X195500000Y-86000000D03*
%TO.P,J10,A35*%
%TO.N,N/C*%
X198000000Y-86000000D03*
%TO.P,J10,B34*%
%TO.N,Net-(J10-PadB34)*%
X193500000Y-85000000D03*
%TO.P,J10,B33*%
%TO.N,Net-(J10-PadB33)*%
X195500000Y-84000000D03*
%TO.P,J10,A34*%
%TO.N,N/C*%
X200000000Y-85000000D03*
%TO.P,J10,A33*%
X198000000Y-84000000D03*
%TO.P,J10,B32*%
%TO.N,Net-(J10-PadB32)*%
X193500000Y-83000000D03*
%TO.P,J10,A32*%
%TO.N,N/C*%
X200000000Y-83000000D03*
%TO.P,J10,B31*%
%TO.N,Net-(J10-PadB31)*%
X195500000Y-82000000D03*
%TO.P,J10,A31*%
%TO.N,N/C*%
X198000000Y-82000000D03*
%TO.P,J10,B30*%
%TO.N,Net-(J10-PadB30)*%
X193500000Y-81000000D03*
%TO.P,J10,B29*%
%TO.N,Net-(J10-PadB29)*%
X195500000Y-80000000D03*
%TO.P,J10,A30*%
%TO.N,N/C*%
X200000000Y-81000000D03*
%TO.P,J10,A29*%
X198000000Y-80000000D03*
%TO.P,J10,B28*%
%TO.N,Net-(J10-PadB28)*%
X193500000Y-79000000D03*
%TO.P,J10,B27*%
%TO.N,Net-(J10-PadB27)*%
X195500000Y-78000000D03*
%TO.P,J10,A28*%
%TO.N,N/C*%
X200000000Y-79000000D03*
%TO.P,J10,A27*%
X198000000Y-78000000D03*
%TO.P,J10,B26*%
%TO.N,Net-(J10-PadB26)*%
X193500000Y-77000000D03*
%TO.P,J10,B25*%
%TO.N,Net-(J10-PadB25)*%
X195500000Y-76000000D03*
%TO.P,J10,A26*%
%TO.N,N/C*%
X200000000Y-77000000D03*
%TO.P,J10,A25*%
X198000000Y-76000000D03*
%TO.P,J10,B24*%
%TO.N,Net-(J10-PadB24)*%
X193500000Y-75000000D03*
%TO.P,J10,B23*%
%TO.N,Net-(J10-PadB23)*%
X195500000Y-74000000D03*
%TO.P,J10,A24*%
%TO.N,N/C*%
X200000000Y-75000000D03*
%TO.P,J10,A23*%
X198000000Y-74000000D03*
%TO.P,J10,B22*%
%TO.N,Net-(J10-PadB22)*%
X193500000Y-73000000D03*
%TO.P,J10,A22*%
%TO.N,N/C*%
X200000000Y-73000000D03*
%TO.P,J10,B21*%
%TO.N,Net-(J10-PadB21)*%
X195500000Y-72000000D03*
%TO.P,J10,A21*%
%TO.N,N/C*%
X198000000Y-72000000D03*
%TO.P,J10,B20*%
%TO.N,Net-(J10-PadB20)*%
X193500000Y-71000000D03*
%TO.P,J10,B19*%
%TO.N,Net-(J10-PadB19)*%
X195500000Y-70000000D03*
%TO.P,J10,A20*%
%TO.N,N/C*%
X200000000Y-71000000D03*
%TO.P,J10,A19*%
X198000000Y-70000000D03*
%TO.P,J10,B18*%
%TO.N,Net-(J10-PadB18)*%
X193500000Y-69000000D03*
%TO.P,J10,B17*%
%TO.N,Net-(J10-PadB17)*%
X195500000Y-68000000D03*
%TO.P,J10,A18*%
%TO.N,N/C*%
X200000000Y-69000000D03*
%TO.P,J10,A17*%
X198000000Y-68000000D03*
%TO.P,J10,B16*%
%TO.N,Net-(J10-PadB16)*%
X193500000Y-67000000D03*
%TO.P,J10,B15*%
%TO.N,Net-(J10-PadB15)*%
X195500000Y-66000000D03*
%TO.P,J10,A16*%
%TO.N,N/C*%
X200000000Y-67000000D03*
%TO.P,J10,A15*%
X198000000Y-66000000D03*
%TO.P,J10,B14*%
%TO.N,Net-(J10-PadB14)*%
X193500000Y-65000000D03*
%TO.P,J10,B13*%
%TO.N,Net-(J10-PadB13)*%
X195500000Y-64000000D03*
%TO.P,J10,A14*%
%TO.N,N/C*%
X200000000Y-65000000D03*
%TO.P,J10,A13*%
X198000000Y-64000000D03*
%TO.P,J10,B12*%
%TO.N,Net-(J10-PadB12)*%
X193500000Y-63000000D03*
%TO.P,J10,A12*%
%TO.N,N/C*%
X200000000Y-63000000D03*
%TO.P,J10,B11*%
%TO.N,Net-(J1-PadA11)*%
X195500000Y-60000000D03*
%TO.P,J10,A11*%
X198000000Y-60000000D03*
%TO.P,J10,B10*%
%TO.N,Net-(J1-PadA10)*%
X193500000Y-59000000D03*
%TO.P,J10,B9*%
%TO.N,Net-(J1-PadA9)*%
X195500000Y-58000000D03*
%TO.P,J10,A10*%
%TO.N,Net-(J1-PadA10)*%
X200000000Y-59000000D03*
%TO.P,J10,A9*%
%TO.N,Net-(J1-PadA9)*%
X198000000Y-58000000D03*
%TO.P,J10,B8*%
%TO.N,Net-(J1-PadA8)*%
X193500000Y-57000000D03*
%TO.P,J10,B7*%
%TO.N,Net-(J1-PadA7)*%
X195500000Y-56000000D03*
%TO.P,J10,A8*%
%TO.N,Net-(J1-PadA8)*%
X200000000Y-57000000D03*
%TO.P,J10,A7*%
%TO.N,Net-(J1-PadA7)*%
X198000000Y-56000000D03*
%TO.P,J10,B6*%
%TO.N,Net-(J1-PadA6)*%
X193500000Y-55000000D03*
%TO.P,J10,B5*%
%TO.N,Net-(J1-PadA5)*%
X195500000Y-54000000D03*
%TO.P,J10,A6*%
%TO.N,Net-(J1-PadA6)*%
X200000000Y-55000000D03*
%TO.P,J10,A5*%
%TO.N,Net-(J1-PadA5)*%
X198000000Y-54000000D03*
%TO.P,J10,B4*%
%TO.N,Net-(J1-PadA4)*%
X193500000Y-53000000D03*
%TO.P,J10,B3*%
%TO.N,Net-(J1-PadA3)*%
X195500000Y-52000000D03*
%TO.P,J10,A4*%
%TO.N,Net-(J1-PadA4)*%
X200000000Y-53000000D03*
%TO.P,J10,A3*%
%TO.N,Net-(J1-PadA3)*%
X198000000Y-52000000D03*
%TO.P,J10,B2*%
%TO.N,Net-(J1-PadA2)*%
X193500000Y-51000000D03*
%TO.P,J10,B1*%
%TO.N,Net-(J1-PadA1)*%
X195500000Y-50000000D03*
%TO.P,J10,A2*%
%TO.N,Net-(J1-PadA2)*%
X200000000Y-51000000D03*
D12*
%TO.P,J10,A1*%
%TO.N,Net-(J1-PadA1)*%
X198000000Y-50000000D03*
%TD*%
D14*
%TO.N,Net-(J5-PadA35)*%
X119000000Y-86000000D02*
X120000000Y-86000000D01*
D15*
X117500000Y-86000000D02*
X119000000Y-86000000D01*
%TO.N,Net-(J5-PadA37)*%
X117500000Y-88000000D02*
X119000000Y-88000000D01*
D14*
X119000000Y-88000000D02*
X120000000Y-88000000D01*
X134059922Y-88000000D02*
X133000000Y-88000000D01*
D15*
X135500000Y-88000000D02*
X134059922Y-88000000D01*
%TO.N,Net-(J5-PadA35)*%
X135500000Y-86000000D02*
X134059922Y-86000000D01*
D14*
X134059922Y-86000000D02*
X133000000Y-86000000D01*
%TO.N,Net-(J5-PadA25)*%
X134059922Y-76000000D02*
X133000000Y-76000000D01*
D15*
X135500000Y-76000000D02*
X134059922Y-76000000D01*
D14*
%TO.N,Net-(J5-PadA23)*%
X134059922Y-74000000D02*
X133000000Y-74000000D01*
D15*
X135500000Y-74000000D02*
X134059922Y-74000000D01*
D14*
%TO.N,Net-(J5-PadA13)*%
X134059922Y-64000000D02*
X133000000Y-64000000D01*
D15*
X117500000Y-64000000D02*
X119000000Y-64000000D01*
D14*
X119000000Y-64000000D02*
X120000000Y-64000000D01*
D15*
X135500000Y-64000000D02*
X134059922Y-64000000D01*
D14*
%TO.N,Net-(J5-PadA25)*%
X119000000Y-76000000D02*
X120000000Y-76000000D01*
D15*
X117500000Y-76000000D02*
X119000000Y-76000000D01*
D14*
%TO.N,Net-(J5-PadA23)*%
X119000000Y-74000000D02*
X120000000Y-74000000D01*
D15*
X117500000Y-74000000D02*
X119000000Y-74000000D01*
%TO.N,Net-(J1-PadA11)*%
X129804001Y-60054001D02*
X135445999Y-60054001D01*
X124000000Y-58750000D02*
X128500000Y-58750000D01*
X122500000Y-60250000D02*
X124000000Y-58750000D01*
X128500000Y-58750000D02*
X129804001Y-60054001D01*
X117750000Y-60250000D02*
X122500000Y-60250000D01*
X135445999Y-60054001D02*
X135500000Y-60000000D01*
X117500000Y-60000000D02*
X117750000Y-60250000D01*
%TO.N,Net-(J5-PadA12)*%
X119500000Y-63000000D02*
X122469892Y-63000000D01*
X122469892Y-63000000D02*
X124719892Y-65250000D01*
X124719892Y-65250000D02*
X127260036Y-65250000D01*
X127260036Y-65250000D02*
X129510036Y-63000000D01*
X129510036Y-63000000D02*
X133500000Y-63000000D01*
%TO.N,Net-(J5-PadA13)*%
X127500000Y-66000000D02*
X129500000Y-64000000D01*
X124479928Y-66000000D02*
X127500000Y-66000000D01*
X120000000Y-64000000D02*
X122479928Y-64000000D01*
X129500000Y-64000000D02*
X133000000Y-64000000D01*
X122479928Y-64000000D02*
X124479928Y-66000000D01*
%TO.N,Net-(J5-PadA22)*%
X119500000Y-73000000D02*
X122400022Y-70099978D01*
X130599978Y-70099978D02*
X133500000Y-73000000D01*
X122400022Y-70099978D02*
X130599978Y-70099978D01*
%TO.N,Net-(J5-PadA23)*%
X120000000Y-74000000D02*
X123200011Y-70799989D01*
X123200011Y-70799989D02*
X129799989Y-70799989D01*
X129799989Y-70799989D02*
X133000000Y-74000000D01*
%TO.N,Net-(J5-PadA24)*%
X128500000Y-71500000D02*
X132000000Y-75000000D01*
X132000000Y-75000000D02*
X133500000Y-75000000D01*
X124000000Y-71500000D02*
X128500000Y-71500000D01*
X120500000Y-75000000D02*
X124000000Y-71500000D01*
X119500000Y-75000000D02*
X120500000Y-75000000D01*
%TO.N,Net-(J5-PadA25)*%
X120000000Y-76000000D02*
X122750000Y-76000000D01*
X122750000Y-76000000D02*
X124250000Y-77500000D01*
X124250000Y-77500000D02*
X128000000Y-77500000D01*
X129500000Y-76000000D02*
X133000000Y-76000000D01*
X128000000Y-77500000D02*
X129500000Y-76000000D01*
%TO.N,Net-(J5-PadA26)*%
X119500000Y-77000000D02*
X122500000Y-77000000D01*
X122500000Y-77000000D02*
X123750000Y-78250000D01*
X123750000Y-78250000D02*
X129000000Y-78250000D01*
X130250000Y-77000000D02*
X133500000Y-77000000D01*
X129000000Y-78250000D02*
X130250000Y-77000000D01*
%TO.N,Net-(J5-PadA34)*%
X122150022Y-82349978D02*
X130849978Y-82349978D01*
X119500000Y-85000000D02*
X122150022Y-82349978D01*
X130849978Y-82349978D02*
X133500000Y-85000000D01*
%TO.N,Net-(J5-PadA35)*%
X122950011Y-83049989D02*
X130049989Y-83049989D01*
X130049989Y-83049989D02*
X133000000Y-86000000D01*
X120000000Y-86000000D02*
X122950011Y-83049989D01*
%TO.N,Net-(J5-PadA36)*%
X132000000Y-87000000D02*
X133500000Y-87000000D01*
X128750000Y-83750000D02*
X132000000Y-87000000D01*
X124191999Y-83750000D02*
X128750000Y-83750000D01*
X120941999Y-87000000D02*
X124191999Y-83750000D01*
X119500000Y-87000000D02*
X120941999Y-87000000D01*
%TO.N,Net-(J5-PadA37)*%
X130125000Y-88000000D02*
X133000000Y-88000000D01*
X127625000Y-90500000D02*
X130125000Y-88000000D01*
X121750000Y-88000000D02*
X124250000Y-90500000D01*
X120000000Y-88000000D02*
X121750000Y-88000000D01*
X124250000Y-90500000D02*
X127625000Y-90500000D01*
%TO.N,Net-(J5-PadA38)*%
X121700011Y-91200011D02*
X131299989Y-91200011D01*
X119500000Y-89000000D02*
X121700011Y-91200011D01*
X131299989Y-91200011D02*
X133500000Y-89000000D01*
%TO.N,Net-(J5-PadA48)*%
X131250000Y-99000000D02*
X133500000Y-99000000D01*
X130000000Y-97750000D02*
X131250000Y-99000000D01*
X121750000Y-97750000D02*
X130000000Y-97750000D01*
X120500000Y-99000000D02*
X121750000Y-97750000D01*
X119500000Y-99000000D02*
X120500000Y-99000000D01*
%TD*%
M02*
