%TF.GenerationSoftware,KiCad,Pcbnew,(5.1.9-16-g1737927814)-1*%
%TF.CreationDate,2021-07-03T16:47:20+02:00*%
%TF.ProjectId,Bussystem 10x non stack,42757373-7973-4746-956d-20313078206e,1*%
%TF.SameCoordinates,Original*%
%TF.FileFunction,Legend,Bot*%
%TF.FilePolarity,Positive*%
%FSLAX46Y46*%
G04 Gerber Fmt 4.6, Leading zero omitted, Abs format (unit mm)*
G04 Created by KiCad (PCBNEW (5.1.9-16-g1737927814)-1) date 2021-07-03 16:47:20*
%MOMM*%
%LPD*%
G01*
G04 APERTURE LIST*
%ADD10C,0.150000*%
G04 APERTURE END LIST*
D10*
%TO.C,DRA2*%
X131000000Y-53000000D02*
X131000000Y-96000000D01*
X121000000Y-53000000D02*
X131000000Y-53000000D01*
X121000000Y-96000000D02*
X121000000Y-53000000D01*
X121000000Y-103500000D02*
X121000000Y-96000000D01*
X131000000Y-103500000D02*
X121000000Y-103500000D01*
X131000000Y-96000000D02*
X131000000Y-103500000D01*
X121000000Y-96000000D02*
X131000000Y-96000000D01*
%TO.C,DRA3*%
X211000000Y-53000000D02*
X211000000Y-96000000D01*
X201000000Y-53000000D02*
X211000000Y-53000000D01*
X201000000Y-96000000D02*
X201000000Y-53000000D01*
X201000000Y-103500000D02*
X201000000Y-96000000D01*
X211000000Y-103500000D02*
X201000000Y-103500000D01*
X211000000Y-96000000D02*
X211000000Y-103500000D01*
X201000000Y-96000000D02*
X211000000Y-96000000D01*
%TO.C,DRA1*%
X51000000Y-53000000D02*
X51000000Y-96000000D01*
X41000000Y-53000000D02*
X51000000Y-53000000D01*
X41000000Y-96000000D02*
X41000000Y-53000000D01*
X41000000Y-103500000D02*
X41000000Y-96000000D01*
X51000000Y-103500000D02*
X41000000Y-103500000D01*
X51000000Y-96000000D02*
X51000000Y-103500000D01*
X41000000Y-96000000D02*
X51000000Y-96000000D01*
%TD*%
M02*
