%TF.GenerationSoftware,KiCad,Pcbnew,(5.1.9-16-g1737927814)-1*%
%TF.CreationDate,2021-07-08T15:56:40+02:00*%
%TF.ProjectId,Bussystem 10x non stack,42757373-7973-4746-956d-20313078206e,1*%
%TF.SameCoordinates,Original*%
%TF.FileFunction,Copper,L1,Top*%
%TF.FilePolarity,Positive*%
%FSLAX46Y46*%
G04 Gerber Fmt 4.6, Leading zero omitted, Abs format (unit mm)*
G04 Created by KiCad (PCBNEW (5.1.9-16-g1737927814)-1) date 2021-07-08 15:56:40*
%MOMM*%
%LPD*%
G01*
G04 APERTURE LIST*
%ADD10C,0.100000*%
%ADD11C,0.150000*%
%ADD12C,0.300000*%
%ADD13C,0.400000*%
%TA.AperFunction,NonConductor*%
%ADD14C,0.150000*%
%TD*%
%TA.AperFunction,NonConductor*%
%ADD15C,0.300000*%
%TD*%
%TA.AperFunction,WasherPad*%
%ADD16C,5.000000*%
%TD*%
%TA.AperFunction,ComponentPad*%
%ADD17R,1.208000X1.208000*%
%TD*%
%TA.AperFunction,ComponentPad*%
%ADD18C,1.208000*%
%TD*%
%TA.AperFunction,Conductor*%
%ADD19C,0.750000*%
%TD*%
%TA.AperFunction,Conductor*%
%ADD20C,0.380000*%
%TD*%
G04 APERTURE END LIST*
D10*
D11*
X177002200Y-166007200D02*
X177002200Y-198007200D01*
X285002200Y-198007200D01*
X285002200Y-166007200D01*
X177002200Y-166007200D01*
D10*
D11*
X10000000Y-10000000D02*
X10000000Y-200007200D01*
X287002200Y-200007200D01*
X287002200Y-10000000D01*
X10000000Y-10000000D01*
D10*
D11*
X12000000Y-12000000D02*
X12000000Y-198007200D01*
X285002200Y-198007200D01*
X285002200Y-12000000D01*
X12000000Y-12000000D01*
D10*
D11*
X60000000Y-12000000D02*
X60000000Y-10000000D01*
D10*
D11*
X110000000Y-12000000D02*
X110000000Y-10000000D01*
D10*
D11*
X160000000Y-12000000D02*
X160000000Y-10000000D01*
D10*
D11*
X210000000Y-12000000D02*
X210000000Y-10000000D01*
D10*
D11*
X260000000Y-12000000D02*
X260000000Y-10000000D01*
D10*
D11*
X36065476Y-11588095D02*
X35322619Y-11588095D01*
X35694047Y-11588095D02*
X35694047Y-10288095D01*
X35570238Y-10473809D01*
X35446428Y-10597619D01*
X35322619Y-10659523D01*
D10*
D11*
X85322619Y-10411904D02*
X85384523Y-10350000D01*
X85508333Y-10288095D01*
X85817857Y-10288095D01*
X85941666Y-10350000D01*
X86003571Y-10411904D01*
X86065476Y-10535714D01*
X86065476Y-10659523D01*
X86003571Y-10845238D01*
X85260714Y-11588095D01*
X86065476Y-11588095D01*
D10*
D11*
X135260714Y-10288095D02*
X136065476Y-10288095D01*
X135632142Y-10783333D01*
X135817857Y-10783333D01*
X135941666Y-10845238D01*
X136003571Y-10907142D01*
X136065476Y-11030952D01*
X136065476Y-11340476D01*
X136003571Y-11464285D01*
X135941666Y-11526190D01*
X135817857Y-11588095D01*
X135446428Y-11588095D01*
X135322619Y-11526190D01*
X135260714Y-11464285D01*
D10*
D11*
X185941666Y-10721428D02*
X185941666Y-11588095D01*
X185632142Y-10226190D02*
X185322619Y-11154761D01*
X186127380Y-11154761D01*
D10*
D11*
X236003571Y-10288095D02*
X235384523Y-10288095D01*
X235322619Y-10907142D01*
X235384523Y-10845238D01*
X235508333Y-10783333D01*
X235817857Y-10783333D01*
X235941666Y-10845238D01*
X236003571Y-10907142D01*
X236065476Y-11030952D01*
X236065476Y-11340476D01*
X236003571Y-11464285D01*
X235941666Y-11526190D01*
X235817857Y-11588095D01*
X235508333Y-11588095D01*
X235384523Y-11526190D01*
X235322619Y-11464285D01*
D10*
D11*
X285941666Y-10288095D02*
X285694047Y-10288095D01*
X285570238Y-10350000D01*
X285508333Y-10411904D01*
X285384523Y-10597619D01*
X285322619Y-10845238D01*
X285322619Y-11340476D01*
X285384523Y-11464285D01*
X285446428Y-11526190D01*
X285570238Y-11588095D01*
X285817857Y-11588095D01*
X285941666Y-11526190D01*
X286003571Y-11464285D01*
X286065476Y-11340476D01*
X286065476Y-11030952D01*
X286003571Y-10907142D01*
X285941666Y-10845238D01*
X285817857Y-10783333D01*
X285570238Y-10783333D01*
X285446428Y-10845238D01*
X285384523Y-10907142D01*
X285322619Y-11030952D01*
D10*
D11*
X60000000Y-198007200D02*
X60000000Y-200007200D01*
D10*
D11*
X110000000Y-198007200D02*
X110000000Y-200007200D01*
D10*
D11*
X160000000Y-198007200D02*
X160000000Y-200007200D01*
D10*
D11*
X210000000Y-198007200D02*
X210000000Y-200007200D01*
D10*
D11*
X260000000Y-198007200D02*
X260000000Y-200007200D01*
D10*
D11*
X36065476Y-199595295D02*
X35322619Y-199595295D01*
X35694047Y-199595295D02*
X35694047Y-198295295D01*
X35570238Y-198481009D01*
X35446428Y-198604819D01*
X35322619Y-198666723D01*
D10*
D11*
X85322619Y-198419104D02*
X85384523Y-198357200D01*
X85508333Y-198295295D01*
X85817857Y-198295295D01*
X85941666Y-198357200D01*
X86003571Y-198419104D01*
X86065476Y-198542914D01*
X86065476Y-198666723D01*
X86003571Y-198852438D01*
X85260714Y-199595295D01*
X86065476Y-199595295D01*
D10*
D11*
X135260714Y-198295295D02*
X136065476Y-198295295D01*
X135632142Y-198790533D01*
X135817857Y-198790533D01*
X135941666Y-198852438D01*
X136003571Y-198914342D01*
X136065476Y-199038152D01*
X136065476Y-199347676D01*
X136003571Y-199471485D01*
X135941666Y-199533390D01*
X135817857Y-199595295D01*
X135446428Y-199595295D01*
X135322619Y-199533390D01*
X135260714Y-199471485D01*
D10*
D11*
X185941666Y-198728628D02*
X185941666Y-199595295D01*
X185632142Y-198233390D02*
X185322619Y-199161961D01*
X186127380Y-199161961D01*
D10*
D11*
X236003571Y-198295295D02*
X235384523Y-198295295D01*
X235322619Y-198914342D01*
X235384523Y-198852438D01*
X235508333Y-198790533D01*
X235817857Y-198790533D01*
X235941666Y-198852438D01*
X236003571Y-198914342D01*
X236065476Y-199038152D01*
X236065476Y-199347676D01*
X236003571Y-199471485D01*
X235941666Y-199533390D01*
X235817857Y-199595295D01*
X235508333Y-199595295D01*
X235384523Y-199533390D01*
X235322619Y-199471485D01*
D10*
D11*
X285941666Y-198295295D02*
X285694047Y-198295295D01*
X285570238Y-198357200D01*
X285508333Y-198419104D01*
X285384523Y-198604819D01*
X285322619Y-198852438D01*
X285322619Y-199347676D01*
X285384523Y-199471485D01*
X285446428Y-199533390D01*
X285570238Y-199595295D01*
X285817857Y-199595295D01*
X285941666Y-199533390D01*
X286003571Y-199471485D01*
X286065476Y-199347676D01*
X286065476Y-199038152D01*
X286003571Y-198914342D01*
X285941666Y-198852438D01*
X285817857Y-198790533D01*
X285570238Y-198790533D01*
X285446428Y-198852438D01*
X285384523Y-198914342D01*
X285322619Y-199038152D01*
D10*
D11*
X10000000Y-60000000D02*
X12000000Y-60000000D01*
D10*
D11*
X10000000Y-110000000D02*
X12000000Y-110000000D01*
D10*
D11*
X10000000Y-160000000D02*
X12000000Y-160000000D01*
D10*
D11*
X10690476Y-35216666D02*
X11309523Y-35216666D01*
X10566666Y-35588095D02*
X11000000Y-34288095D01*
X11433333Y-35588095D01*
D10*
D11*
X11092857Y-84907142D02*
X11278571Y-84969047D01*
X11340476Y-85030952D01*
X11402380Y-85154761D01*
X11402380Y-85340476D01*
X11340476Y-85464285D01*
X11278571Y-85526190D01*
X11154761Y-85588095D01*
X10659523Y-85588095D01*
X10659523Y-84288095D01*
X11092857Y-84288095D01*
X11216666Y-84350000D01*
X11278571Y-84411904D01*
X11340476Y-84535714D01*
X11340476Y-84659523D01*
X11278571Y-84783333D01*
X11216666Y-84845238D01*
X11092857Y-84907142D01*
X10659523Y-84907142D01*
D10*
D11*
X11402380Y-135464285D02*
X11340476Y-135526190D01*
X11154761Y-135588095D01*
X11030952Y-135588095D01*
X10845238Y-135526190D01*
X10721428Y-135402380D01*
X10659523Y-135278571D01*
X10597619Y-135030952D01*
X10597619Y-134845238D01*
X10659523Y-134597619D01*
X10721428Y-134473809D01*
X10845238Y-134350000D01*
X11030952Y-134288095D01*
X11154761Y-134288095D01*
X11340476Y-134350000D01*
X11402380Y-134411904D01*
D10*
D11*
X10659523Y-185588095D02*
X10659523Y-184288095D01*
X10969047Y-184288095D01*
X11154761Y-184350000D01*
X11278571Y-184473809D01*
X11340476Y-184597619D01*
X11402380Y-184845238D01*
X11402380Y-185030952D01*
X11340476Y-185278571D01*
X11278571Y-185402380D01*
X11154761Y-185526190D01*
X10969047Y-185588095D01*
X10659523Y-185588095D01*
D10*
D11*
X287002200Y-60000000D02*
X285002200Y-60000000D01*
D10*
D11*
X287002200Y-110000000D02*
X285002200Y-110000000D01*
D10*
D11*
X287002200Y-160000000D02*
X285002200Y-160000000D01*
D10*
D11*
X285692676Y-35216666D02*
X286311723Y-35216666D01*
X285568866Y-35588095D02*
X286002200Y-34288095D01*
X286435533Y-35588095D01*
D10*
D11*
X286095057Y-84907142D02*
X286280771Y-84969047D01*
X286342676Y-85030952D01*
X286404580Y-85154761D01*
X286404580Y-85340476D01*
X286342676Y-85464285D01*
X286280771Y-85526190D01*
X286156961Y-85588095D01*
X285661723Y-85588095D01*
X285661723Y-84288095D01*
X286095057Y-84288095D01*
X286218866Y-84350000D01*
X286280771Y-84411904D01*
X286342676Y-84535714D01*
X286342676Y-84659523D01*
X286280771Y-84783333D01*
X286218866Y-84845238D01*
X286095057Y-84907142D01*
X285661723Y-84907142D01*
D10*
D11*
X286404580Y-135464285D02*
X286342676Y-135526190D01*
X286156961Y-135588095D01*
X286033152Y-135588095D01*
X285847438Y-135526190D01*
X285723628Y-135402380D01*
X285661723Y-135278571D01*
X285599819Y-135030952D01*
X285599819Y-134845238D01*
X285661723Y-134597619D01*
X285723628Y-134473809D01*
X285847438Y-134350000D01*
X286033152Y-134288095D01*
X286156961Y-134288095D01*
X286342676Y-134350000D01*
X286404580Y-134411904D01*
D10*
D11*
X285661723Y-185588095D02*
X285661723Y-184288095D01*
X285971247Y-184288095D01*
X286156961Y-184350000D01*
X286280771Y-184473809D01*
X286342676Y-184597619D01*
X286404580Y-184845238D01*
X286404580Y-185030952D01*
X286342676Y-185278571D01*
X286280771Y-185402380D01*
X286156961Y-185526190D01*
X285971247Y-185588095D01*
X285661723Y-185588095D01*
D10*
D11*
X200434342Y-193785771D02*
X200434342Y-192285771D01*
X200791485Y-192285771D01*
X201005771Y-192357200D01*
X201148628Y-192500057D01*
X201220057Y-192642914D01*
X201291485Y-192928628D01*
X201291485Y-193142914D01*
X201220057Y-193428628D01*
X201148628Y-193571485D01*
X201005771Y-193714342D01*
X200791485Y-193785771D01*
X200434342Y-193785771D01*
X202577200Y-193785771D02*
X202577200Y-193000057D01*
X202505771Y-192857200D01*
X202362914Y-192785771D01*
X202077200Y-192785771D01*
X201934342Y-192857200D01*
X202577200Y-193714342D02*
X202434342Y-193785771D01*
X202077200Y-193785771D01*
X201934342Y-193714342D01*
X201862914Y-193571485D01*
X201862914Y-193428628D01*
X201934342Y-193285771D01*
X202077200Y-193214342D01*
X202434342Y-193214342D01*
X202577200Y-193142914D01*
X203077200Y-192785771D02*
X203648628Y-192785771D01*
X203291485Y-192285771D02*
X203291485Y-193571485D01*
X203362914Y-193714342D01*
X203505771Y-193785771D01*
X203648628Y-193785771D01*
X204720057Y-193714342D02*
X204577200Y-193785771D01*
X204291485Y-193785771D01*
X204148628Y-193714342D01*
X204077200Y-193571485D01*
X204077200Y-193000057D01*
X204148628Y-192857200D01*
X204291485Y-192785771D01*
X204577200Y-192785771D01*
X204720057Y-192857200D01*
X204791485Y-193000057D01*
X204791485Y-193142914D01*
X204077200Y-193285771D01*
X205434342Y-193642914D02*
X205505771Y-193714342D01*
X205434342Y-193785771D01*
X205362914Y-193714342D01*
X205434342Y-193642914D01*
X205434342Y-193785771D01*
X205434342Y-192857200D02*
X205505771Y-192928628D01*
X205434342Y-193000057D01*
X205362914Y-192928628D01*
X205434342Y-192857200D01*
X205434342Y-193000057D01*
X207220057Y-192428628D02*
X207291485Y-192357200D01*
X207434342Y-192285771D01*
X207791485Y-192285771D01*
X207934342Y-192357200D01*
X208005771Y-192428628D01*
X208077200Y-192571485D01*
X208077200Y-192714342D01*
X208005771Y-192928628D01*
X207148628Y-193785771D01*
X208077200Y-193785771D01*
X209005771Y-192285771D02*
X209148628Y-192285771D01*
X209291485Y-192357200D01*
X209362914Y-192428628D01*
X209434342Y-192571485D01*
X209505771Y-192857200D01*
X209505771Y-193214342D01*
X209434342Y-193500057D01*
X209362914Y-193642914D01*
X209291485Y-193714342D01*
X209148628Y-193785771D01*
X209005771Y-193785771D01*
X208862914Y-193714342D01*
X208791485Y-193642914D01*
X208720057Y-193500057D01*
X208648628Y-193214342D01*
X208648628Y-192857200D01*
X208720057Y-192571485D01*
X208791485Y-192428628D01*
X208862914Y-192357200D01*
X209005771Y-192285771D01*
X210077200Y-192428628D02*
X210148628Y-192357200D01*
X210291485Y-192285771D01*
X210648628Y-192285771D01*
X210791485Y-192357200D01*
X210862914Y-192428628D01*
X210934342Y-192571485D01*
X210934342Y-192714342D01*
X210862914Y-192928628D01*
X210005771Y-193785771D01*
X210934342Y-193785771D01*
X212362914Y-193785771D02*
X211505771Y-193785771D01*
X211934342Y-193785771D02*
X211934342Y-192285771D01*
X211791485Y-192500057D01*
X211648628Y-192642914D01*
X211505771Y-192714342D01*
X213005771Y-193214342D02*
X214148628Y-193214342D01*
X215148628Y-192285771D02*
X215291485Y-192285771D01*
X215434342Y-192357200D01*
X215505771Y-192428628D01*
X215577200Y-192571485D01*
X215648628Y-192857200D01*
X215648628Y-193214342D01*
X215577200Y-193500057D01*
X215505771Y-193642914D01*
X215434342Y-193714342D01*
X215291485Y-193785771D01*
X215148628Y-193785771D01*
X215005771Y-193714342D01*
X214934342Y-193642914D01*
X214862914Y-193500057D01*
X214791485Y-193214342D01*
X214791485Y-192857200D01*
X214862914Y-192571485D01*
X214934342Y-192428628D01*
X215005771Y-192357200D01*
X215148628Y-192285771D01*
X216148628Y-192285771D02*
X217148628Y-192285771D01*
X216505771Y-193785771D01*
X217720057Y-193214342D02*
X218862914Y-193214342D01*
X219862914Y-192285771D02*
X220005771Y-192285771D01*
X220148628Y-192357200D01*
X220220057Y-192428628D01*
X220291485Y-192571485D01*
X220362914Y-192857200D01*
X220362914Y-193214342D01*
X220291485Y-193500057D01*
X220220057Y-193642914D01*
X220148628Y-193714342D01*
X220005771Y-193785771D01*
X219862914Y-193785771D01*
X219720057Y-193714342D01*
X219648628Y-193642914D01*
X219577200Y-193500057D01*
X219505771Y-193214342D01*
X219505771Y-192857200D01*
X219577200Y-192571485D01*
X219648628Y-192428628D01*
X219720057Y-192357200D01*
X219862914Y-192285771D01*
X221220057Y-192928628D02*
X221077200Y-192857200D01*
X221005771Y-192785771D01*
X220934342Y-192642914D01*
X220934342Y-192571485D01*
X221005771Y-192428628D01*
X221077200Y-192357200D01*
X221220057Y-192285771D01*
X221505771Y-192285771D01*
X221648628Y-192357200D01*
X221720057Y-192428628D01*
X221791485Y-192571485D01*
X221791485Y-192642914D01*
X221720057Y-192785771D01*
X221648628Y-192857200D01*
X221505771Y-192928628D01*
X221220057Y-192928628D01*
X221077200Y-193000057D01*
X221005771Y-193071485D01*
X220934342Y-193214342D01*
X220934342Y-193500057D01*
X221005771Y-193642914D01*
X221077200Y-193714342D01*
X221220057Y-193785771D01*
X221505771Y-193785771D01*
X221648628Y-193714342D01*
X221720057Y-193642914D01*
X221791485Y-193500057D01*
X221791485Y-193214342D01*
X221720057Y-193071485D01*
X221648628Y-193000057D01*
X221505771Y-192928628D01*
D10*
D11*
X177002200Y-194507200D02*
X285002200Y-194507200D01*
D10*
D11*
X178434342Y-196585771D02*
X178434342Y-195085771D01*
X179291485Y-196585771D02*
X178648628Y-195728628D01*
X179291485Y-195085771D02*
X178434342Y-195942914D01*
X179934342Y-196585771D02*
X179934342Y-195585771D01*
X179934342Y-195085771D02*
X179862914Y-195157200D01*
X179934342Y-195228628D01*
X180005771Y-195157200D01*
X179934342Y-195085771D01*
X179934342Y-195228628D01*
X181505771Y-196442914D02*
X181434342Y-196514342D01*
X181220057Y-196585771D01*
X181077200Y-196585771D01*
X180862914Y-196514342D01*
X180720057Y-196371485D01*
X180648628Y-196228628D01*
X180577200Y-195942914D01*
X180577200Y-195728628D01*
X180648628Y-195442914D01*
X180720057Y-195300057D01*
X180862914Y-195157200D01*
X181077200Y-195085771D01*
X181220057Y-195085771D01*
X181434342Y-195157200D01*
X181505771Y-195228628D01*
X182791485Y-196585771D02*
X182791485Y-195800057D01*
X182720057Y-195657200D01*
X182577200Y-195585771D01*
X182291485Y-195585771D01*
X182148628Y-195657200D01*
X182791485Y-196514342D02*
X182648628Y-196585771D01*
X182291485Y-196585771D01*
X182148628Y-196514342D01*
X182077200Y-196371485D01*
X182077200Y-196228628D01*
X182148628Y-196085771D01*
X182291485Y-196014342D01*
X182648628Y-196014342D01*
X182791485Y-195942914D01*
X184148628Y-196585771D02*
X184148628Y-195085771D01*
X184148628Y-196514342D02*
X184005771Y-196585771D01*
X183720057Y-196585771D01*
X183577200Y-196514342D01*
X183505771Y-196442914D01*
X183434342Y-196300057D01*
X183434342Y-195871485D01*
X183505771Y-195728628D01*
X183577200Y-195657200D01*
X183720057Y-195585771D01*
X184005771Y-195585771D01*
X184148628Y-195657200D01*
X186005771Y-195800057D02*
X186505771Y-195800057D01*
X186720057Y-196585771D02*
X186005771Y-196585771D01*
X186005771Y-195085771D01*
X186720057Y-195085771D01*
X187362914Y-196442914D02*
X187434342Y-196514342D01*
X187362914Y-196585771D01*
X187291485Y-196514342D01*
X187362914Y-196442914D01*
X187362914Y-196585771D01*
X188077200Y-196585771D02*
X188077200Y-195085771D01*
X188434342Y-195085771D01*
X188648628Y-195157200D01*
X188791485Y-195300057D01*
X188862914Y-195442914D01*
X188934342Y-195728628D01*
X188934342Y-195942914D01*
X188862914Y-196228628D01*
X188791485Y-196371485D01*
X188648628Y-196514342D01*
X188434342Y-196585771D01*
X188077200Y-196585771D01*
X189577200Y-196442914D02*
X189648628Y-196514342D01*
X189577200Y-196585771D01*
X189505771Y-196514342D01*
X189577200Y-196442914D01*
X189577200Y-196585771D01*
X190220057Y-196157200D02*
X190934342Y-196157200D01*
X190077200Y-196585771D02*
X190577200Y-195085771D01*
X191077200Y-196585771D01*
X191577200Y-196442914D02*
X191648628Y-196514342D01*
X191577200Y-196585771D01*
X191505771Y-196514342D01*
X191577200Y-196442914D01*
X191577200Y-196585771D01*
X194577200Y-196585771D02*
X194577200Y-195085771D01*
X194720057Y-196014342D02*
X195148628Y-196585771D01*
X195148628Y-195585771D02*
X194577200Y-196157200D01*
X195791485Y-196585771D02*
X195791485Y-195585771D01*
X195791485Y-195085771D02*
X195720057Y-195157200D01*
X195791485Y-195228628D01*
X195862914Y-195157200D01*
X195791485Y-195085771D01*
X195791485Y-195228628D01*
X197148628Y-196514342D02*
X197005771Y-196585771D01*
X196720057Y-196585771D01*
X196577200Y-196514342D01*
X196505771Y-196442914D01*
X196434342Y-196300057D01*
X196434342Y-195871485D01*
X196505771Y-195728628D01*
X196577200Y-195657200D01*
X196720057Y-195585771D01*
X197005771Y-195585771D01*
X197148628Y-195657200D01*
X198434342Y-196585771D02*
X198434342Y-195800057D01*
X198362914Y-195657200D01*
X198220057Y-195585771D01*
X197934342Y-195585771D01*
X197791485Y-195657200D01*
X198434342Y-196514342D02*
X198291485Y-196585771D01*
X197934342Y-196585771D01*
X197791485Y-196514342D01*
X197720057Y-196371485D01*
X197720057Y-196228628D01*
X197791485Y-196085771D01*
X197934342Y-196014342D01*
X198291485Y-196014342D01*
X198434342Y-195942914D01*
X199791485Y-196585771D02*
X199791485Y-195085771D01*
X199791485Y-196514342D02*
X199648628Y-196585771D01*
X199362914Y-196585771D01*
X199220057Y-196514342D01*
X199148628Y-196442914D01*
X199077200Y-196300057D01*
X199077200Y-195871485D01*
X199148628Y-195728628D01*
X199220057Y-195657200D01*
X199362914Y-195585771D01*
X199648628Y-195585771D01*
X199791485Y-195657200D01*
X202077200Y-197157200D02*
X202005771Y-197085771D01*
X201862914Y-196871485D01*
X201791485Y-196728628D01*
X201720057Y-196514342D01*
X201648628Y-196157200D01*
X201648628Y-195871485D01*
X201720057Y-195514342D01*
X201791485Y-195300057D01*
X201862914Y-195157200D01*
X202005771Y-194942914D01*
X202077200Y-194871485D01*
X203362914Y-195085771D02*
X202648628Y-195085771D01*
X202577200Y-195800057D01*
X202648628Y-195728628D01*
X202791485Y-195657200D01*
X203148628Y-195657200D01*
X203291485Y-195728628D01*
X203362914Y-195800057D01*
X203434342Y-195942914D01*
X203434342Y-196300057D01*
X203362914Y-196442914D01*
X203291485Y-196514342D01*
X203148628Y-196585771D01*
X202791485Y-196585771D01*
X202648628Y-196514342D01*
X202577200Y-196442914D01*
X204077200Y-196442914D02*
X204148628Y-196514342D01*
X204077200Y-196585771D01*
X204005771Y-196514342D01*
X204077200Y-196442914D01*
X204077200Y-196585771D01*
X205577200Y-196585771D02*
X204720057Y-196585771D01*
X205148628Y-196585771D02*
X205148628Y-195085771D01*
X205005771Y-195300057D01*
X204862914Y-195442914D01*
X204720057Y-195514342D01*
X206220057Y-196442914D02*
X206291485Y-196514342D01*
X206220057Y-196585771D01*
X206148628Y-196514342D01*
X206220057Y-196442914D01*
X206220057Y-196585771D01*
X207005771Y-196585771D02*
X207291485Y-196585771D01*
X207434342Y-196514342D01*
X207505771Y-196442914D01*
X207648628Y-196228628D01*
X207720057Y-195942914D01*
X207720057Y-195371485D01*
X207648628Y-195228628D01*
X207577200Y-195157200D01*
X207434342Y-195085771D01*
X207148628Y-195085771D01*
X207005771Y-195157200D01*
X206934342Y-195228628D01*
X206862914Y-195371485D01*
X206862914Y-195728628D01*
X206934342Y-195871485D01*
X207005771Y-195942914D01*
X207148628Y-196014342D01*
X207434342Y-196014342D01*
X207577200Y-195942914D01*
X207648628Y-195871485D01*
X207720057Y-195728628D01*
X208362914Y-196014342D02*
X209505771Y-196014342D01*
X211005771Y-196585771D02*
X210148628Y-196585771D01*
X210577200Y-196585771D02*
X210577200Y-195085771D01*
X210434342Y-195300057D01*
X210291485Y-195442914D01*
X210148628Y-195514342D01*
X212291485Y-195085771D02*
X212005771Y-195085771D01*
X211862914Y-195157200D01*
X211791485Y-195228628D01*
X211648628Y-195442914D01*
X211577200Y-195728628D01*
X211577200Y-196300057D01*
X211648628Y-196442914D01*
X211720057Y-196514342D01*
X211862914Y-196585771D01*
X212148628Y-196585771D01*
X212291485Y-196514342D01*
X212362914Y-196442914D01*
X212434342Y-196300057D01*
X212434342Y-195942914D01*
X212362914Y-195800057D01*
X212291485Y-195728628D01*
X212148628Y-195657200D01*
X211862914Y-195657200D01*
X211720057Y-195728628D01*
X211648628Y-195800057D01*
X211577200Y-195942914D01*
X213077200Y-196014342D02*
X214220057Y-196014342D01*
X215577200Y-195585771D02*
X215577200Y-196800057D01*
X215505771Y-196942914D01*
X215434342Y-197014342D01*
X215291485Y-197085771D01*
X215077200Y-197085771D01*
X214934342Y-197014342D01*
X215577200Y-196514342D02*
X215434342Y-196585771D01*
X215148628Y-196585771D01*
X215005771Y-196514342D01*
X214934342Y-196442914D01*
X214862914Y-196300057D01*
X214862914Y-195871485D01*
X214934342Y-195728628D01*
X215005771Y-195657200D01*
X215148628Y-195585771D01*
X215434342Y-195585771D01*
X215577200Y-195657200D01*
X217077200Y-196585771D02*
X216220057Y-196585771D01*
X216648628Y-196585771D02*
X216648628Y-195085771D01*
X216505771Y-195300057D01*
X216362914Y-195442914D01*
X216220057Y-195514342D01*
X217577200Y-195085771D02*
X218577200Y-195085771D01*
X217934342Y-196585771D01*
X219005771Y-195085771D02*
X219934342Y-195085771D01*
X219434342Y-195657200D01*
X219648628Y-195657200D01*
X219791485Y-195728628D01*
X219862914Y-195800057D01*
X219934342Y-195942914D01*
X219934342Y-196300057D01*
X219862914Y-196442914D01*
X219791485Y-196514342D01*
X219648628Y-196585771D01*
X219220057Y-196585771D01*
X219077200Y-196514342D01*
X219005771Y-196442914D01*
X220434342Y-195085771D02*
X221434342Y-195085771D01*
X220791485Y-196585771D01*
X222077200Y-196585771D02*
X222362914Y-196585771D01*
X222505771Y-196514342D01*
X222577200Y-196442914D01*
X222720057Y-196228628D01*
X222791485Y-195942914D01*
X222791485Y-195371485D01*
X222720057Y-195228628D01*
X222648628Y-195157200D01*
X222505771Y-195085771D01*
X222220057Y-195085771D01*
X222077200Y-195157200D01*
X222005771Y-195228628D01*
X221934342Y-195371485D01*
X221934342Y-195728628D01*
X222005771Y-195871485D01*
X222077200Y-195942914D01*
X222220057Y-196014342D01*
X222505771Y-196014342D01*
X222648628Y-195942914D01*
X222720057Y-195871485D01*
X222791485Y-195728628D01*
X223362914Y-195228628D02*
X223434342Y-195157200D01*
X223577200Y-195085771D01*
X223934342Y-195085771D01*
X224077200Y-195157200D01*
X224148628Y-195228628D01*
X224220057Y-195371485D01*
X224220057Y-195514342D01*
X224148628Y-195728628D01*
X223291485Y-196585771D01*
X224220057Y-196585771D01*
X224720057Y-195085771D02*
X225720057Y-195085771D01*
X225077200Y-196585771D01*
X226505771Y-195728628D02*
X226362914Y-195657200D01*
X226291485Y-195585771D01*
X226220057Y-195442914D01*
X226220057Y-195371485D01*
X226291485Y-195228628D01*
X226362914Y-195157200D01*
X226505771Y-195085771D01*
X226791485Y-195085771D01*
X226934342Y-195157200D01*
X227005771Y-195228628D01*
X227077199Y-195371485D01*
X227077199Y-195442914D01*
X227005771Y-195585771D01*
X226934342Y-195657200D01*
X226791485Y-195728628D01*
X226505771Y-195728628D01*
X226362914Y-195800057D01*
X226291485Y-195871485D01*
X226220057Y-196014342D01*
X226220057Y-196300057D01*
X226291485Y-196442914D01*
X226362914Y-196514342D01*
X226505771Y-196585771D01*
X226791485Y-196585771D01*
X226934342Y-196514342D01*
X227005771Y-196442914D01*
X227077199Y-196300057D01*
X227077199Y-196014342D01*
X227005771Y-195871485D01*
X226934342Y-195800057D01*
X226791485Y-195728628D01*
X228505771Y-196585771D02*
X227648628Y-196585771D01*
X228077199Y-196585771D02*
X228077199Y-195085771D01*
X227934342Y-195300057D01*
X227791485Y-195442914D01*
X227648628Y-195514342D01*
X229791485Y-195585771D02*
X229791485Y-196585771D01*
X229434342Y-195014342D02*
X229077199Y-196085771D01*
X230005771Y-196085771D01*
X230434342Y-197157200D02*
X230505771Y-197085771D01*
X230648628Y-196871485D01*
X230720057Y-196728628D01*
X230791485Y-196514342D01*
X230862914Y-196157200D01*
X230862914Y-195871485D01*
X230791485Y-195514342D01*
X230720057Y-195300057D01*
X230648628Y-195157200D01*
X230505771Y-194942914D01*
X230434342Y-194871485D01*
X231577199Y-196014342D02*
X232720057Y-196014342D01*
X234220057Y-196585771D02*
X233362914Y-196585771D01*
X233791485Y-196585771D02*
X233791485Y-195085771D01*
X233648628Y-195300057D01*
X233505771Y-195442914D01*
X233362914Y-195514342D01*
D10*
D11*
X177002200Y-191507200D02*
X285002200Y-191507200D01*
D10*
D12*
X264411485Y-193785771D02*
X263911485Y-193071485D01*
X263554342Y-193785771D02*
X263554342Y-192285771D01*
X264125771Y-192285771D01*
X264268628Y-192357200D01*
X264340057Y-192428628D01*
X264411485Y-192571485D01*
X264411485Y-192785771D01*
X264340057Y-192928628D01*
X264268628Y-193000057D01*
X264125771Y-193071485D01*
X263554342Y-193071485D01*
X265625771Y-193714342D02*
X265482914Y-193785771D01*
X265197200Y-193785771D01*
X265054342Y-193714342D01*
X264982914Y-193571485D01*
X264982914Y-193000057D01*
X265054342Y-192857200D01*
X265197200Y-192785771D01*
X265482914Y-192785771D01*
X265625771Y-192857200D01*
X265697200Y-193000057D01*
X265697200Y-193142914D01*
X264982914Y-193285771D01*
X266197200Y-192785771D02*
X266554342Y-193785771D01*
X266911485Y-192785771D01*
X267482914Y-193642914D02*
X267554342Y-193714342D01*
X267482914Y-193785771D01*
X267411485Y-193714342D01*
X267482914Y-193642914D01*
X267482914Y-193785771D01*
X267482914Y-192857200D02*
X267554342Y-192928628D01*
X267482914Y-193000057D01*
X267411485Y-192928628D01*
X267482914Y-192857200D01*
X267482914Y-193000057D01*
X270125771Y-193785771D02*
X269268628Y-193785771D01*
X269697200Y-193785771D02*
X269697200Y-192285771D01*
X269554342Y-192500057D01*
X269411485Y-192642914D01*
X269268628Y-192714342D01*
D10*
D11*
X178362914Y-193714342D02*
X178577200Y-193785771D01*
X178934342Y-193785771D01*
X179077200Y-193714342D01*
X179148628Y-193642914D01*
X179220057Y-193500057D01*
X179220057Y-193357200D01*
X179148628Y-193214342D01*
X179077200Y-193142914D01*
X178934342Y-193071485D01*
X178648628Y-193000057D01*
X178505771Y-192928628D01*
X178434342Y-192857200D01*
X178362914Y-192714342D01*
X178362914Y-192571485D01*
X178434342Y-192428628D01*
X178505771Y-192357200D01*
X178648628Y-192285771D01*
X179005771Y-192285771D01*
X179220057Y-192357200D01*
X179862914Y-193785771D02*
X179862914Y-192785771D01*
X179862914Y-192285771D02*
X179791485Y-192357200D01*
X179862914Y-192428628D01*
X179934342Y-192357200D01*
X179862914Y-192285771D01*
X179862914Y-192428628D01*
X180434342Y-192785771D02*
X181220057Y-192785771D01*
X180434342Y-193785771D01*
X181220057Y-193785771D01*
X182362914Y-193714342D02*
X182220057Y-193785771D01*
X181934342Y-193785771D01*
X181791485Y-193714342D01*
X181720057Y-193571485D01*
X181720057Y-193000057D01*
X181791485Y-192857200D01*
X181934342Y-192785771D01*
X182220057Y-192785771D01*
X182362914Y-192857200D01*
X182434342Y-193000057D01*
X182434342Y-193142914D01*
X181720057Y-193285771D01*
X183077200Y-193642914D02*
X183148628Y-193714342D01*
X183077200Y-193785771D01*
X183005771Y-193714342D01*
X183077200Y-193642914D01*
X183077200Y-193785771D01*
X183077200Y-192857200D02*
X183148628Y-192928628D01*
X183077200Y-193000057D01*
X183005771Y-192928628D01*
X183077200Y-192857200D01*
X183077200Y-193000057D01*
X184862914Y-193357200D02*
X185577200Y-193357200D01*
X184720057Y-193785771D02*
X185220057Y-192285771D01*
X185720057Y-193785771D01*
X186862914Y-192785771D02*
X186862914Y-193785771D01*
X186505771Y-192214342D02*
X186148628Y-193285771D01*
X187077200Y-193285771D01*
D10*
D11*
X263434342Y-196585771D02*
X263434342Y-195085771D01*
X264791485Y-196585771D02*
X264791485Y-195085771D01*
X264791485Y-196514342D02*
X264648628Y-196585771D01*
X264362914Y-196585771D01*
X264220057Y-196514342D01*
X264148628Y-196442914D01*
X264077200Y-196300057D01*
X264077200Y-195871485D01*
X264148628Y-195728628D01*
X264220057Y-195657200D01*
X264362914Y-195585771D01*
X264648628Y-195585771D01*
X264791485Y-195657200D01*
X265505771Y-196442914D02*
X265577200Y-196514342D01*
X265505771Y-196585771D01*
X265434342Y-196514342D01*
X265505771Y-196442914D01*
X265505771Y-196585771D01*
X265505771Y-195657200D02*
X265577200Y-195728628D01*
X265505771Y-195800057D01*
X265434342Y-195728628D01*
X265505771Y-195657200D01*
X265505771Y-195800057D01*
X268148628Y-196585771D02*
X267291485Y-196585771D01*
X267720057Y-196585771D02*
X267720057Y-195085771D01*
X267577200Y-195300057D01*
X267434342Y-195442914D01*
X267291485Y-195514342D01*
X269862914Y-195014342D02*
X268577200Y-196942914D01*
X271148628Y-196585771D02*
X270291485Y-196585771D01*
X270720057Y-196585771D02*
X270720057Y-195085771D01*
X270577200Y-195300057D01*
X270434342Y-195442914D01*
X270291485Y-195514342D01*
D10*
D11*
X177002200Y-187507200D02*
X285002200Y-187507200D01*
D10*
D13*
X178714580Y-188211961D02*
X179857438Y-188211961D01*
X179036009Y-190211961D02*
X179286009Y-188211961D01*
X180274104Y-190211961D02*
X180440771Y-188878628D01*
X180524104Y-188211961D02*
X180416961Y-188307200D01*
X180500295Y-188402438D01*
X180607438Y-188307200D01*
X180524104Y-188211961D01*
X180500295Y-188402438D01*
X181107438Y-188878628D02*
X181869342Y-188878628D01*
X181476485Y-188211961D02*
X181262200Y-189926247D01*
X181333628Y-190116723D01*
X181512200Y-190211961D01*
X181702676Y-190211961D01*
X182655057Y-190211961D02*
X182476485Y-190116723D01*
X182405057Y-189926247D01*
X182619342Y-188211961D01*
X184190771Y-190116723D02*
X183988390Y-190211961D01*
X183607438Y-190211961D01*
X183428866Y-190116723D01*
X183357438Y-189926247D01*
X183452676Y-189164342D01*
X183571723Y-188973866D01*
X183774104Y-188878628D01*
X184155057Y-188878628D01*
X184333628Y-188973866D01*
X184405057Y-189164342D01*
X184381247Y-189354819D01*
X183405057Y-189545295D01*
X185155057Y-190021485D02*
X185238390Y-190116723D01*
X185131247Y-190211961D01*
X185047914Y-190116723D01*
X185155057Y-190021485D01*
X185131247Y-190211961D01*
X185286009Y-188973866D02*
X185369342Y-189069104D01*
X185262200Y-189164342D01*
X185178866Y-189069104D01*
X185286009Y-188973866D01*
X185262200Y-189164342D01*
X188405057Y-189164342D02*
X188678866Y-189259580D01*
X188762200Y-189354819D01*
X188833628Y-189545295D01*
X188797914Y-189831009D01*
X188678866Y-190021485D01*
X188571723Y-190116723D01*
X188369342Y-190211961D01*
X187607438Y-190211961D01*
X187857438Y-188211961D01*
X188524104Y-188211961D01*
X188702676Y-188307200D01*
X188786009Y-188402438D01*
X188857438Y-188592914D01*
X188833628Y-188783390D01*
X188714580Y-188973866D01*
X188607438Y-189069104D01*
X188405057Y-189164342D01*
X187738390Y-189164342D01*
X190631247Y-188878628D02*
X190464580Y-190211961D01*
X189774104Y-188878628D02*
X189643152Y-189926247D01*
X189714580Y-190116723D01*
X189893152Y-190211961D01*
X190178866Y-190211961D01*
X190381247Y-190116723D01*
X190488390Y-190021485D01*
X191333628Y-190116723D02*
X191512200Y-190211961D01*
X191893152Y-190211961D01*
X192095533Y-190116723D01*
X192214580Y-189926247D01*
X192226485Y-189831009D01*
X192155057Y-189640533D01*
X191976485Y-189545295D01*
X191690771Y-189545295D01*
X191512200Y-189450057D01*
X191440771Y-189259580D01*
X191452676Y-189164342D01*
X191571723Y-188973866D01*
X191774104Y-188878628D01*
X192059819Y-188878628D01*
X192238390Y-188973866D01*
X192952676Y-190116723D02*
X193131247Y-190211961D01*
X193512200Y-190211961D01*
X193714580Y-190116723D01*
X193833628Y-189926247D01*
X193845533Y-189831009D01*
X193774104Y-189640533D01*
X193595533Y-189545295D01*
X193309819Y-189545295D01*
X193131247Y-189450057D01*
X193059819Y-189259580D01*
X193071723Y-189164342D01*
X193190771Y-188973866D01*
X193393152Y-188878628D01*
X193678866Y-188878628D01*
X193857438Y-188973866D01*
X194631247Y-188878628D02*
X194940771Y-190211961D01*
X195583628Y-188878628D02*
X194940771Y-190211961D01*
X194690771Y-190688152D01*
X194583628Y-190783390D01*
X194381247Y-190878628D01*
X196095533Y-190116723D02*
X196274104Y-190211961D01*
X196655057Y-190211961D01*
X196857438Y-190116723D01*
X196976485Y-189926247D01*
X196988390Y-189831009D01*
X196916961Y-189640533D01*
X196738390Y-189545295D01*
X196452676Y-189545295D01*
X196274104Y-189450057D01*
X196202676Y-189259580D01*
X196214580Y-189164342D01*
X196333628Y-188973866D01*
X196536009Y-188878628D01*
X196821723Y-188878628D01*
X197000295Y-188973866D01*
X197678866Y-188878628D02*
X198440771Y-188878628D01*
X198047914Y-188211961D02*
X197833628Y-189926247D01*
X197905057Y-190116723D01*
X198083628Y-190211961D01*
X198274104Y-190211961D01*
X199714580Y-190116723D02*
X199512200Y-190211961D01*
X199131247Y-190211961D01*
X198952676Y-190116723D01*
X198881247Y-189926247D01*
X198976485Y-189164342D01*
X199095533Y-188973866D01*
X199297914Y-188878628D01*
X199678866Y-188878628D01*
X199857438Y-188973866D01*
X199928866Y-189164342D01*
X199905057Y-189354819D01*
X198928866Y-189545295D01*
X200655057Y-190211961D02*
X200821723Y-188878628D01*
X200797914Y-189069104D02*
X200905057Y-188973866D01*
X201107438Y-188878628D01*
X201393152Y-188878628D01*
X201571723Y-188973866D01*
X201643152Y-189164342D01*
X201512200Y-190211961D01*
X201643152Y-189164342D02*
X201762200Y-188973866D01*
X201964580Y-188878628D01*
X202250295Y-188878628D01*
X202428866Y-188973866D01*
X202500295Y-189164342D01*
X202369342Y-190211961D01*
X205643152Y-189164342D02*
X205916961Y-189259580D01*
X206000295Y-189354819D01*
X206071723Y-189545295D01*
X206036009Y-189831009D01*
X205916961Y-190021485D01*
X205809819Y-190116723D01*
X205607438Y-190211961D01*
X204845533Y-190211961D01*
X205095533Y-188211961D01*
X205762200Y-188211961D01*
X205940771Y-188307200D01*
X206024104Y-188402438D01*
X206095533Y-188592914D01*
X206071723Y-188783390D01*
X205952676Y-188973866D01*
X205845533Y-189069104D01*
X205643152Y-189164342D01*
X204976485Y-189164342D01*
X207702676Y-190211961D02*
X207833628Y-189164342D01*
X207762200Y-188973866D01*
X207583628Y-188878628D01*
X207202676Y-188878628D01*
X207000295Y-188973866D01*
X207714580Y-190116723D02*
X207512200Y-190211961D01*
X207036009Y-190211961D01*
X206857438Y-190116723D01*
X206786009Y-189926247D01*
X206809819Y-189735771D01*
X206928866Y-189545295D01*
X207131247Y-189450057D01*
X207607438Y-189450057D01*
X207809819Y-189354819D01*
X208571723Y-190116723D02*
X208750295Y-190211961D01*
X209131247Y-190211961D01*
X209333628Y-190116723D01*
X209452676Y-189926247D01*
X209464580Y-189831009D01*
X209393152Y-189640533D01*
X209214580Y-189545295D01*
X208928866Y-189545295D01*
X208750295Y-189450057D01*
X208678866Y-189259580D01*
X208690771Y-189164342D01*
X208809819Y-188973866D01*
X209012200Y-188878628D01*
X209297914Y-188878628D01*
X209476485Y-188973866D01*
X211047914Y-190116723D02*
X210845533Y-190211961D01*
X210464580Y-190211961D01*
X210286009Y-190116723D01*
X210214580Y-189926247D01*
X210309819Y-189164342D01*
X210428866Y-188973866D01*
X210631247Y-188878628D01*
X211012200Y-188878628D01*
X211190771Y-188973866D01*
X211262200Y-189164342D01*
X211238390Y-189354819D01*
X210262200Y-189545295D01*
X212155057Y-188878628D02*
X211905057Y-190878628D01*
X212143152Y-188973866D02*
X212345533Y-188878628D01*
X212726485Y-188878628D01*
X212905057Y-188973866D01*
X212988390Y-189069104D01*
X213059819Y-189259580D01*
X212988390Y-189831009D01*
X212869342Y-190021485D01*
X212762200Y-190116723D01*
X212559819Y-190211961D01*
X212178866Y-190211961D01*
X212000295Y-190116723D01*
X214083628Y-190211961D02*
X213905057Y-190116723D01*
X213833628Y-189926247D01*
X214047914Y-188211961D01*
X215702676Y-190211961D02*
X215833628Y-189164342D01*
X215762200Y-188973866D01*
X215583628Y-188878628D01*
X215202676Y-188878628D01*
X215000295Y-188973866D01*
X215714580Y-190116723D02*
X215512200Y-190211961D01*
X215036009Y-190211961D01*
X214857438Y-190116723D01*
X214786009Y-189926247D01*
X214809819Y-189735771D01*
X214928866Y-189545295D01*
X215131247Y-189450057D01*
X215607438Y-189450057D01*
X215809819Y-189354819D01*
X216536009Y-188878628D02*
X217297914Y-188878628D01*
X216905057Y-188211961D02*
X216690771Y-189926247D01*
X216762200Y-190116723D01*
X216940771Y-190211961D01*
X217131247Y-190211961D01*
X218571723Y-190116723D02*
X218369342Y-190211961D01*
X217988390Y-190211961D01*
X217809819Y-190116723D01*
X217738390Y-189926247D01*
X217833628Y-189164342D01*
X217952676Y-188973866D01*
X218155057Y-188878628D01*
X218536009Y-188878628D01*
X218714580Y-188973866D01*
X218786009Y-189164342D01*
X218762200Y-189354819D01*
X217786009Y-189545295D01*
X222083628Y-190211961D02*
X220940771Y-190211961D01*
X221512200Y-190211961D02*
X221762200Y-188211961D01*
X221536009Y-188497676D01*
X221321723Y-188688152D01*
X221119342Y-188783390D01*
X223571723Y-188211961D02*
X223762200Y-188211961D01*
X223940771Y-188307200D01*
X224024104Y-188402438D01*
X224095533Y-188592914D01*
X224143152Y-188973866D01*
X224083628Y-189450057D01*
X223940771Y-189831009D01*
X223821723Y-190021485D01*
X223714580Y-190116723D01*
X223512200Y-190211961D01*
X223321723Y-190211961D01*
X223143152Y-190116723D01*
X223059819Y-190021485D01*
X222988390Y-189831009D01*
X222940771Y-189450057D01*
X223000295Y-188973866D01*
X223143152Y-188592914D01*
X223262200Y-188402438D01*
X223369342Y-188307200D01*
X223571723Y-188211961D01*
X224655057Y-190211961D02*
X225869342Y-188878628D01*
X224821723Y-188878628D02*
X225702676Y-190211961D01*
X228155057Y-188878628D02*
X227988390Y-190211961D01*
X228131247Y-189069104D02*
X228238390Y-188973866D01*
X228440771Y-188878628D01*
X228726485Y-188878628D01*
X228905057Y-188973866D01*
X228976485Y-189164342D01*
X228845533Y-190211961D01*
X230083628Y-190211961D02*
X229905057Y-190116723D01*
X229821723Y-190021485D01*
X229750295Y-189831009D01*
X229821723Y-189259580D01*
X229940771Y-189069104D01*
X230047914Y-188973866D01*
X230250295Y-188878628D01*
X230536009Y-188878628D01*
X230714580Y-188973866D01*
X230797914Y-189069104D01*
X230869342Y-189259580D01*
X230797914Y-189831009D01*
X230678866Y-190021485D01*
X230571723Y-190116723D01*
X230369342Y-190211961D01*
X230083628Y-190211961D01*
X231774104Y-188878628D02*
X231607438Y-190211961D01*
X231750295Y-189069104D02*
X231857438Y-188973866D01*
X232059819Y-188878628D01*
X232345533Y-188878628D01*
X232524104Y-188973866D01*
X232595533Y-189164342D01*
X232464580Y-190211961D01*
X234857438Y-190116723D02*
X235036009Y-190211961D01*
X235416961Y-190211961D01*
X235619342Y-190116723D01*
X235738390Y-189926247D01*
X235750295Y-189831009D01*
X235678866Y-189640533D01*
X235500295Y-189545295D01*
X235214580Y-189545295D01*
X235036009Y-189450057D01*
X234964580Y-189259580D01*
X234976485Y-189164342D01*
X235095533Y-188973866D01*
X235297914Y-188878628D01*
X235583628Y-188878628D01*
X235762199Y-188973866D01*
X236440771Y-188878628D02*
X237202676Y-188878628D01*
X236809819Y-188211961D02*
X236595533Y-189926247D01*
X236666961Y-190116723D01*
X236845533Y-190211961D01*
X237036009Y-190211961D01*
X238559819Y-190211961D02*
X238690771Y-189164342D01*
X238619342Y-188973866D01*
X238440771Y-188878628D01*
X238059819Y-188878628D01*
X237857438Y-188973866D01*
X238571723Y-190116723D02*
X238369342Y-190211961D01*
X237893152Y-190211961D01*
X237714580Y-190116723D01*
X237643152Y-189926247D01*
X237666961Y-189735771D01*
X237786009Y-189545295D01*
X237988390Y-189450057D01*
X238464580Y-189450057D01*
X238666961Y-189354819D01*
X240381247Y-190116723D02*
X240178866Y-190211961D01*
X239797914Y-190211961D01*
X239619342Y-190116723D01*
X239536009Y-190021485D01*
X239464580Y-189831009D01*
X239536009Y-189259580D01*
X239655057Y-189069104D01*
X239762199Y-188973866D01*
X239964580Y-188878628D01*
X240345533Y-188878628D01*
X240524104Y-188973866D01*
X241226485Y-190211961D02*
X241476485Y-188211961D01*
X241512199Y-189450057D02*
X241988390Y-190211961D01*
X242155057Y-188878628D02*
X241297914Y-189640533D01*
X243702676Y-190211961D02*
X243833628Y-189164342D01*
X243762199Y-188973866D01*
X243583628Y-188878628D01*
X243202676Y-188878628D01*
X243000295Y-188973866D01*
X243714580Y-190116723D02*
X243512199Y-190211961D01*
X243036009Y-190211961D01*
X242857438Y-190116723D01*
X242786009Y-189926247D01*
X242809819Y-189735771D01*
X242928866Y-189545295D01*
X243131247Y-189450057D01*
X243607438Y-189450057D01*
X243809819Y-189354819D01*
X244655057Y-190211961D02*
X244905057Y-188211961D01*
X244809819Y-188973866D02*
X245012199Y-188878628D01*
X245393152Y-188878628D01*
X245571723Y-188973866D01*
X245655057Y-189069104D01*
X245726485Y-189259580D01*
X245655057Y-189831009D01*
X245536009Y-190021485D01*
X245428866Y-190116723D01*
X245226485Y-190211961D01*
X244845533Y-190211961D01*
X244666961Y-190116723D01*
X246750295Y-190211961D02*
X246571723Y-190116723D01*
X246500295Y-189926247D01*
X246714580Y-188211961D01*
X248286009Y-190116723D02*
X248083628Y-190211961D01*
X247702676Y-190211961D01*
X247524104Y-190116723D01*
X247452676Y-189926247D01*
X247547914Y-189164342D01*
X247666961Y-188973866D01*
X247869342Y-188878628D01*
X248250295Y-188878628D01*
X248428866Y-188973866D01*
X248500295Y-189164342D01*
X248476485Y-189354819D01*
X247500295Y-189545295D01*
D10*
D11*
X178934342Y-185600057D02*
X178434342Y-185600057D01*
X178434342Y-186385771D02*
X178434342Y-184885771D01*
X179148628Y-184885771D01*
X179720057Y-186385771D02*
X179720057Y-185385771D01*
X179720057Y-184885771D02*
X179648628Y-184957200D01*
X179720057Y-185028628D01*
X179791485Y-184957200D01*
X179720057Y-184885771D01*
X179720057Y-185028628D01*
X180648628Y-186385771D02*
X180505771Y-186314342D01*
X180434342Y-186171485D01*
X180434342Y-184885771D01*
X181791485Y-186314342D02*
X181648628Y-186385771D01*
X181362914Y-186385771D01*
X181220057Y-186314342D01*
X181148628Y-186171485D01*
X181148628Y-185600057D01*
X181220057Y-185457200D01*
X181362914Y-185385771D01*
X181648628Y-185385771D01*
X181791485Y-185457200D01*
X181862914Y-185600057D01*
X181862914Y-185742914D01*
X181148628Y-185885771D01*
X182505771Y-186242914D02*
X182577200Y-186314342D01*
X182505771Y-186385771D01*
X182434342Y-186314342D01*
X182505771Y-186242914D01*
X182505771Y-186385771D01*
X182505771Y-185457200D02*
X182577200Y-185528628D01*
X182505771Y-185600057D01*
X182434342Y-185528628D01*
X182505771Y-185457200D01*
X182505771Y-185600057D01*
X184862914Y-185600057D02*
X185077200Y-185671485D01*
X185148628Y-185742914D01*
X185220057Y-185885771D01*
X185220057Y-186100057D01*
X185148628Y-186242914D01*
X185077200Y-186314342D01*
X184934342Y-186385771D01*
X184362914Y-186385771D01*
X184362914Y-184885771D01*
X184862914Y-184885771D01*
X185005771Y-184957200D01*
X185077200Y-185028628D01*
X185148628Y-185171485D01*
X185148628Y-185314342D01*
X185077200Y-185457200D01*
X185005771Y-185528628D01*
X184862914Y-185600057D01*
X184362914Y-185600057D01*
X186505771Y-185385771D02*
X186505771Y-186385771D01*
X185862914Y-185385771D02*
X185862914Y-186171485D01*
X185934342Y-186314342D01*
X186077200Y-186385771D01*
X186291485Y-186385771D01*
X186434342Y-186314342D01*
X186505771Y-186242914D01*
X187148628Y-186314342D02*
X187291485Y-186385771D01*
X187577200Y-186385771D01*
X187720057Y-186314342D01*
X187791485Y-186171485D01*
X187791485Y-186100057D01*
X187720057Y-185957200D01*
X187577200Y-185885771D01*
X187362914Y-185885771D01*
X187220057Y-185814342D01*
X187148628Y-185671485D01*
X187148628Y-185600057D01*
X187220057Y-185457200D01*
X187362914Y-185385771D01*
X187577200Y-185385771D01*
X187720057Y-185457200D01*
X188362914Y-186314342D02*
X188505771Y-186385771D01*
X188791485Y-186385771D01*
X188934342Y-186314342D01*
X189005771Y-186171485D01*
X189005771Y-186100057D01*
X188934342Y-185957200D01*
X188791485Y-185885771D01*
X188577200Y-185885771D01*
X188434342Y-185814342D01*
X188362914Y-185671485D01*
X188362914Y-185600057D01*
X188434342Y-185457200D01*
X188577200Y-185385771D01*
X188791485Y-185385771D01*
X188934342Y-185457200D01*
X189505771Y-185385771D02*
X189862914Y-186385771D01*
X190220057Y-185385771D02*
X189862914Y-186385771D01*
X189720057Y-186742914D01*
X189648628Y-186814342D01*
X189505771Y-186885771D01*
X190720057Y-186314342D02*
X190862914Y-186385771D01*
X191148628Y-186385771D01*
X191291485Y-186314342D01*
X191362914Y-186171485D01*
X191362914Y-186100057D01*
X191291485Y-185957200D01*
X191148628Y-185885771D01*
X190934342Y-185885771D01*
X190791485Y-185814342D01*
X190720057Y-185671485D01*
X190720057Y-185600057D01*
X190791485Y-185457200D01*
X190934342Y-185385771D01*
X191148628Y-185385771D01*
X191291485Y-185457200D01*
X191791485Y-185385771D02*
X192362914Y-185385771D01*
X192005771Y-184885771D02*
X192005771Y-186171485D01*
X192077200Y-186314342D01*
X192220057Y-186385771D01*
X192362914Y-186385771D01*
X193434342Y-186314342D02*
X193291485Y-186385771D01*
X193005771Y-186385771D01*
X192862914Y-186314342D01*
X192791485Y-186171485D01*
X192791485Y-185600057D01*
X192862914Y-185457200D01*
X193005771Y-185385771D01*
X193291485Y-185385771D01*
X193434342Y-185457200D01*
X193505771Y-185600057D01*
X193505771Y-185742914D01*
X192791485Y-185885771D01*
X194148628Y-186385771D02*
X194148628Y-185385771D01*
X194148628Y-185528628D02*
X194220057Y-185457200D01*
X194362914Y-185385771D01*
X194577200Y-185385771D01*
X194720057Y-185457200D01*
X194791485Y-185600057D01*
X194791485Y-186385771D01*
X194791485Y-185600057D02*
X194862914Y-185457200D01*
X195005771Y-185385771D01*
X195220057Y-185385771D01*
X195362914Y-185457200D01*
X195434342Y-185600057D01*
X195434342Y-186385771D01*
X198077200Y-186385771D02*
X197220057Y-186385771D01*
X197648628Y-186385771D02*
X197648628Y-184885771D01*
X197505771Y-185100057D01*
X197362914Y-185242914D01*
X197220057Y-185314342D01*
X199005771Y-184885771D02*
X199148628Y-184885771D01*
X199291485Y-184957200D01*
X199362914Y-185028628D01*
X199434342Y-185171485D01*
X199505771Y-185457200D01*
X199505771Y-185814342D01*
X199434342Y-186100057D01*
X199362914Y-186242914D01*
X199291485Y-186314342D01*
X199148628Y-186385771D01*
X199005771Y-186385771D01*
X198862914Y-186314342D01*
X198791485Y-186242914D01*
X198720057Y-186100057D01*
X198648628Y-185814342D01*
X198648628Y-185457200D01*
X198720057Y-185171485D01*
X198791485Y-185028628D01*
X198862914Y-184957200D01*
X199005771Y-184885771D01*
X200005771Y-186385771D02*
X200791485Y-185385771D01*
X200005771Y-185385771D02*
X200791485Y-186385771D01*
X202505771Y-185385771D02*
X202505771Y-186385771D01*
X202505771Y-185528628D02*
X202577200Y-185457200D01*
X202720057Y-185385771D01*
X202934342Y-185385771D01*
X203077200Y-185457200D01*
X203148628Y-185600057D01*
X203148628Y-186385771D01*
X204077200Y-186385771D02*
X203934342Y-186314342D01*
X203862914Y-186242914D01*
X203791485Y-186100057D01*
X203791485Y-185671485D01*
X203862914Y-185528628D01*
X203934342Y-185457200D01*
X204077200Y-185385771D01*
X204291485Y-185385771D01*
X204434342Y-185457200D01*
X204505771Y-185528628D01*
X204577200Y-185671485D01*
X204577200Y-186100057D01*
X204505771Y-186242914D01*
X204434342Y-186314342D01*
X204291485Y-186385771D01*
X204077200Y-186385771D01*
X205220057Y-185385771D02*
X205220057Y-186385771D01*
X205220057Y-185528628D02*
X205291485Y-185457200D01*
X205434342Y-185385771D01*
X205648628Y-185385771D01*
X205791485Y-185457200D01*
X205862914Y-185600057D01*
X205862914Y-186385771D01*
X207648628Y-186314342D02*
X207791485Y-186385771D01*
X208077200Y-186385771D01*
X208220057Y-186314342D01*
X208291485Y-186171485D01*
X208291485Y-186100057D01*
X208220057Y-185957200D01*
X208077200Y-185885771D01*
X207862914Y-185885771D01*
X207720057Y-185814342D01*
X207648628Y-185671485D01*
X207648628Y-185600057D01*
X207720057Y-185457200D01*
X207862914Y-185385771D01*
X208077200Y-185385771D01*
X208220057Y-185457200D01*
X208720057Y-185385771D02*
X209291485Y-185385771D01*
X208934342Y-184885771D02*
X208934342Y-186171485D01*
X209005771Y-186314342D01*
X209148628Y-186385771D01*
X209291485Y-186385771D01*
X210434342Y-186385771D02*
X210434342Y-185600057D01*
X210362914Y-185457200D01*
X210220057Y-185385771D01*
X209934342Y-185385771D01*
X209791485Y-185457200D01*
X210434342Y-186314342D02*
X210291485Y-186385771D01*
X209934342Y-186385771D01*
X209791485Y-186314342D01*
X209720057Y-186171485D01*
X209720057Y-186028628D01*
X209791485Y-185885771D01*
X209934342Y-185814342D01*
X210291485Y-185814342D01*
X210434342Y-185742914D01*
X211791485Y-186314342D02*
X211648628Y-186385771D01*
X211362914Y-186385771D01*
X211220057Y-186314342D01*
X211148628Y-186242914D01*
X211077200Y-186100057D01*
X211077200Y-185671485D01*
X211148628Y-185528628D01*
X211220057Y-185457200D01*
X211362914Y-185385771D01*
X211648628Y-185385771D01*
X211791485Y-185457200D01*
X212434342Y-186385771D02*
X212434342Y-184885771D01*
X212577200Y-185814342D02*
X213005771Y-186385771D01*
X213005771Y-185385771D02*
X212434342Y-185957200D01*
X213648628Y-186242914D02*
X213720057Y-186314342D01*
X213648628Y-186385771D01*
X213577200Y-186314342D01*
X213648628Y-186242914D01*
X213648628Y-186385771D01*
X214362914Y-186385771D02*
X214362914Y-184885771D01*
X214505771Y-185814342D02*
X214934342Y-186385771D01*
X214934342Y-185385771D02*
X214362914Y-185957200D01*
X215577200Y-186385771D02*
X215577200Y-185385771D01*
X215577200Y-184885771D02*
X215505771Y-184957200D01*
X215577200Y-185028628D01*
X215648628Y-184957200D01*
X215577200Y-184885771D01*
X215577200Y-185028628D01*
X216934342Y-186314342D02*
X216791485Y-186385771D01*
X216505771Y-186385771D01*
X216362914Y-186314342D01*
X216291485Y-186242914D01*
X216220057Y-186100057D01*
X216220057Y-185671485D01*
X216291485Y-185528628D01*
X216362914Y-185457200D01*
X216505771Y-185385771D01*
X216791485Y-185385771D01*
X216934342Y-185457200D01*
X218220057Y-186385771D02*
X218220057Y-185600057D01*
X218148628Y-185457200D01*
X218005771Y-185385771D01*
X217720057Y-185385771D01*
X217577200Y-185457200D01*
X218220057Y-186314342D02*
X218077200Y-186385771D01*
X217720057Y-186385771D01*
X217577200Y-186314342D01*
X217505771Y-186171485D01*
X217505771Y-186028628D01*
X217577200Y-185885771D01*
X217720057Y-185814342D01*
X218077200Y-185814342D01*
X218220057Y-185742914D01*
X219577200Y-186385771D02*
X219577200Y-184885771D01*
X219577200Y-186314342D02*
X219434342Y-186385771D01*
X219148628Y-186385771D01*
X219005771Y-186314342D01*
X218934342Y-186242914D01*
X218862914Y-186100057D01*
X218862914Y-185671485D01*
X218934342Y-185528628D01*
X219005771Y-185457200D01*
X219148628Y-185385771D01*
X219434342Y-185385771D01*
X219577200Y-185457200D01*
X219934342Y-186528628D02*
X221077200Y-186528628D01*
X221434342Y-185385771D02*
X221434342Y-186885771D01*
X221434342Y-185457200D02*
X221577200Y-185385771D01*
X221862914Y-185385771D01*
X222005771Y-185457200D01*
X222077200Y-185528628D01*
X222148628Y-185671485D01*
X222148628Y-186100057D01*
X222077200Y-186242914D01*
X222005771Y-186314342D01*
X221862914Y-186385771D01*
X221577200Y-186385771D01*
X221434342Y-186314342D01*
X223434342Y-186314342D02*
X223291485Y-186385771D01*
X223005771Y-186385771D01*
X222862914Y-186314342D01*
X222791485Y-186242914D01*
X222720057Y-186100057D01*
X222720057Y-185671485D01*
X222791485Y-185528628D01*
X222862914Y-185457200D01*
X223005771Y-185385771D01*
X223291485Y-185385771D01*
X223434342Y-185457200D01*
X224077200Y-186385771D02*
X224077200Y-184885771D01*
X224077200Y-185457200D02*
X224220057Y-185385771D01*
X224505771Y-185385771D01*
X224648628Y-185457200D01*
X224720057Y-185528628D01*
X224791485Y-185671485D01*
X224791485Y-186100057D01*
X224720057Y-186242914D01*
X224648628Y-186314342D01*
X224505771Y-186385771D01*
X224220057Y-186385771D01*
X224077200Y-186314342D01*
D10*
D11*
X177002200Y-181507200D02*
X285002200Y-181507200D01*
D10*
D11*
X178362914Y-183614342D02*
X178577200Y-183685771D01*
X178934342Y-183685771D01*
X179077200Y-183614342D01*
X179148628Y-183542914D01*
X179220057Y-183400057D01*
X179220057Y-183257200D01*
X179148628Y-183114342D01*
X179077200Y-183042914D01*
X178934342Y-182971485D01*
X178648628Y-182900057D01*
X178505771Y-182828628D01*
X178434342Y-182757200D01*
X178362914Y-182614342D01*
X178362914Y-182471485D01*
X178434342Y-182328628D01*
X178505771Y-182257200D01*
X178648628Y-182185771D01*
X179005771Y-182185771D01*
X179220057Y-182257200D01*
X179862914Y-183685771D02*
X179862914Y-182185771D01*
X180505771Y-183685771D02*
X180505771Y-182900057D01*
X180434342Y-182757200D01*
X180291485Y-182685771D01*
X180077200Y-182685771D01*
X179934342Y-182757200D01*
X179862914Y-182828628D01*
X181791485Y-183614342D02*
X181648628Y-183685771D01*
X181362914Y-183685771D01*
X181220057Y-183614342D01*
X181148628Y-183471485D01*
X181148628Y-182900057D01*
X181220057Y-182757200D01*
X181362914Y-182685771D01*
X181648628Y-182685771D01*
X181791485Y-182757200D01*
X181862914Y-182900057D01*
X181862914Y-183042914D01*
X181148628Y-183185771D01*
X183077200Y-183614342D02*
X182934342Y-183685771D01*
X182648628Y-183685771D01*
X182505771Y-183614342D01*
X182434342Y-183471485D01*
X182434342Y-182900057D01*
X182505771Y-182757200D01*
X182648628Y-182685771D01*
X182934342Y-182685771D01*
X183077200Y-182757200D01*
X183148628Y-182900057D01*
X183148628Y-183042914D01*
X182434342Y-183185771D01*
X183577200Y-182685771D02*
X184148628Y-182685771D01*
X183791485Y-182185771D02*
X183791485Y-183471485D01*
X183862914Y-183614342D01*
X184005771Y-183685771D01*
X184148628Y-183685771D01*
X184648628Y-183542914D02*
X184720057Y-183614342D01*
X184648628Y-183685771D01*
X184577200Y-183614342D01*
X184648628Y-183542914D01*
X184648628Y-183685771D01*
X184648628Y-182757200D02*
X184720057Y-182828628D01*
X184648628Y-182900057D01*
X184577200Y-182828628D01*
X184648628Y-182757200D01*
X184648628Y-182900057D01*
D10*
D12*
X179340057Y-179257200D02*
X179197200Y-179185771D01*
X178982914Y-179185771D01*
X178768628Y-179257200D01*
X178625771Y-179400057D01*
X178554342Y-179542914D01*
X178482914Y-179828628D01*
X178482914Y-180042914D01*
X178554342Y-180328628D01*
X178625771Y-180471485D01*
X178768628Y-180614342D01*
X178982914Y-180685771D01*
X179125771Y-180685771D01*
X179340057Y-180614342D01*
X179411485Y-180542914D01*
X179411485Y-180042914D01*
X179125771Y-180042914D01*
X179911485Y-179685771D02*
X180268628Y-180685771D01*
X180625771Y-179685771D02*
X180268628Y-180685771D01*
X180125771Y-181042914D01*
X180054342Y-181114342D01*
X179911485Y-181185771D01*
X181840057Y-179685771D02*
X181840057Y-180685771D01*
X181197200Y-179685771D02*
X181197200Y-180471485D01*
X181268628Y-180614342D01*
X181411485Y-180685771D01*
X181625771Y-180685771D01*
X181768628Y-180614342D01*
X181840057Y-180542914D01*
X182554342Y-180685771D02*
X182554342Y-179685771D01*
X182554342Y-179971485D02*
X182625771Y-179828628D01*
X182697200Y-179757200D01*
X182840057Y-179685771D01*
X182982914Y-179685771D01*
X183482914Y-180685771D02*
X183482914Y-179685771D01*
X183482914Y-179828628D02*
X183554342Y-179757200D01*
X183697200Y-179685771D01*
X183911485Y-179685771D01*
X184054342Y-179757200D01*
X184125771Y-179900057D01*
X184125771Y-180685771D01*
X184125771Y-179900057D02*
X184197200Y-179757200D01*
X184340057Y-179685771D01*
X184554342Y-179685771D01*
X184697200Y-179757200D01*
X184768628Y-179900057D01*
X184768628Y-180685771D01*
X186125771Y-180685771D02*
X186125771Y-179900057D01*
X186054342Y-179757200D01*
X185911485Y-179685771D01*
X185625771Y-179685771D01*
X185482914Y-179757200D01*
X186125771Y-180614342D02*
X185982914Y-180685771D01*
X185625771Y-180685771D01*
X185482914Y-180614342D01*
X185411485Y-180471485D01*
X185411485Y-180328628D01*
X185482914Y-180185771D01*
X185625771Y-180114342D01*
X185982914Y-180114342D01*
X186125771Y-180042914D01*
X186768628Y-180614342D02*
X186911485Y-180685771D01*
X187197200Y-180685771D01*
X187340057Y-180614342D01*
X187411485Y-180471485D01*
X187411485Y-180400057D01*
X187340057Y-180257200D01*
X187197200Y-180185771D01*
X186982914Y-180185771D01*
X186840057Y-180114342D01*
X186768628Y-179971485D01*
X186768628Y-179900057D01*
X186840057Y-179757200D01*
X186982914Y-179685771D01*
X187197200Y-179685771D01*
X187340057Y-179757200D01*
X189197200Y-179900057D02*
X189697200Y-179900057D01*
X189911485Y-180685771D02*
X189197200Y-180685771D01*
X189197200Y-179185771D01*
X189911485Y-179185771D01*
X190768628Y-180685771D02*
X190625771Y-180614342D01*
X190554342Y-180471485D01*
X190554342Y-179185771D01*
X191911485Y-180614342D02*
X191768628Y-180685771D01*
X191482914Y-180685771D01*
X191340057Y-180614342D01*
X191268628Y-180471485D01*
X191268628Y-179900057D01*
X191340057Y-179757200D01*
X191482914Y-179685771D01*
X191768628Y-179685771D01*
X191911485Y-179757200D01*
X191982914Y-179900057D01*
X191982914Y-180042914D01*
X191268628Y-180185771D01*
X193268628Y-180614342D02*
X193125771Y-180685771D01*
X192840057Y-180685771D01*
X192697200Y-180614342D01*
X192625771Y-180542914D01*
X192554342Y-180400057D01*
X192554342Y-179971485D01*
X192625771Y-179828628D01*
X192697200Y-179757200D01*
X192840057Y-179685771D01*
X193125771Y-179685771D01*
X193268628Y-179757200D01*
X193697200Y-179685771D02*
X194268628Y-179685771D01*
X193911485Y-179185771D02*
X193911485Y-180471485D01*
X193982914Y-180614342D01*
X194125771Y-180685771D01*
X194268628Y-180685771D01*
X194768628Y-180685771D02*
X194768628Y-179685771D01*
X194768628Y-179971485D02*
X194840057Y-179828628D01*
X194911485Y-179757200D01*
X195054342Y-179685771D01*
X195197200Y-179685771D01*
X195911485Y-180685771D02*
X195768628Y-180614342D01*
X195697200Y-180542914D01*
X195625771Y-180400057D01*
X195625771Y-179971485D01*
X195697200Y-179828628D01*
X195768628Y-179757200D01*
X195911485Y-179685771D01*
X196125771Y-179685771D01*
X196268628Y-179757200D01*
X196340057Y-179828628D01*
X196411485Y-179971485D01*
X196411485Y-180400057D01*
X196340057Y-180542914D01*
X196268628Y-180614342D01*
X196125771Y-180685771D01*
X195911485Y-180685771D01*
X197054342Y-179685771D02*
X197054342Y-180685771D01*
X197054342Y-179828628D02*
X197125771Y-179757200D01*
X197268628Y-179685771D01*
X197482914Y-179685771D01*
X197625771Y-179757200D01*
X197697200Y-179900057D01*
X197697200Y-180685771D01*
X198411485Y-180685771D02*
X198411485Y-179685771D01*
X198411485Y-179185771D02*
X198340057Y-179257200D01*
X198411485Y-179328628D01*
X198482914Y-179257200D01*
X198411485Y-179185771D01*
X198411485Y-179328628D01*
X199768628Y-180614342D02*
X199625771Y-180685771D01*
X199340057Y-180685771D01*
X199197200Y-180614342D01*
X199125771Y-180542914D01*
X199054342Y-180400057D01*
X199054342Y-179971485D01*
X199125771Y-179828628D01*
X199197200Y-179757200D01*
X199340057Y-179685771D01*
X199625771Y-179685771D01*
X199768628Y-179757200D01*
X200340057Y-180614342D02*
X200482914Y-180685771D01*
X200768628Y-180685771D01*
X200911485Y-180614342D01*
X200982914Y-180471485D01*
X200982914Y-180400057D01*
X200911485Y-180257200D01*
X200768628Y-180185771D01*
X200554342Y-180185771D01*
X200411485Y-180114342D01*
X200340057Y-179971485D01*
X200340057Y-179900057D01*
X200411485Y-179757200D01*
X200554342Y-179685771D01*
X200768628Y-179685771D01*
X200911485Y-179757200D01*
D10*
D11*
X197002200Y-191507200D02*
X197002200Y-194507200D01*
D10*
D11*
X261002200Y-191507200D02*
X261002200Y-198007200D01*
D14*
X71095238Y-108452380D02*
X71095238Y-107452380D01*
X71333333Y-107452380D01*
X71476190Y-107500000D01*
X71571428Y-107595238D01*
X71619047Y-107690476D01*
X71666666Y-107880952D01*
X71666666Y-108023809D01*
X71619047Y-108214285D01*
X71571428Y-108309523D01*
X71476190Y-108404761D01*
X71333333Y-108452380D01*
X71095238Y-108452380D01*
X72476190Y-108404761D02*
X72380952Y-108452380D01*
X72190476Y-108452380D01*
X72095238Y-108404761D01*
X72047619Y-108309523D01*
X72047619Y-107928571D01*
X72095238Y-107833333D01*
X72190476Y-107785714D01*
X72380952Y-107785714D01*
X72476190Y-107833333D01*
X72523809Y-107928571D01*
X72523809Y-108023809D01*
X72047619Y-108119047D01*
X72904761Y-108404761D02*
X73000000Y-108452380D01*
X73190476Y-108452380D01*
X73285714Y-108404761D01*
X73333333Y-108309523D01*
X73333333Y-108261904D01*
X73285714Y-108166666D01*
X73190476Y-108119047D01*
X73047619Y-108119047D01*
X72952380Y-108071428D01*
X72904761Y-107976190D01*
X72904761Y-107928571D01*
X72952380Y-107833333D01*
X73047619Y-107785714D01*
X73190476Y-107785714D01*
X73285714Y-107833333D01*
X73761904Y-108452380D02*
X73761904Y-107785714D01*
X73761904Y-107452380D02*
X73714285Y-107500000D01*
X73761904Y-107547619D01*
X73809523Y-107500000D01*
X73761904Y-107452380D01*
X73761904Y-107547619D01*
X74666666Y-107785714D02*
X74666666Y-108595238D01*
X74619047Y-108690476D01*
X74571428Y-108738095D01*
X74476190Y-108785714D01*
X74333333Y-108785714D01*
X74238095Y-108738095D01*
X74666666Y-108404761D02*
X74571428Y-108452380D01*
X74380952Y-108452380D01*
X74285714Y-108404761D01*
X74238095Y-108357142D01*
X74190476Y-108261904D01*
X74190476Y-107976190D01*
X74238095Y-107880952D01*
X74285714Y-107833333D01*
X74380952Y-107785714D01*
X74571428Y-107785714D01*
X74666666Y-107833333D01*
X75142857Y-107785714D02*
X75142857Y-108452380D01*
X75142857Y-107880952D02*
X75190476Y-107833333D01*
X75285714Y-107785714D01*
X75428571Y-107785714D01*
X75523809Y-107833333D01*
X75571428Y-107928571D01*
X75571428Y-108452380D01*
X76428571Y-108404761D02*
X76333333Y-108452380D01*
X76142857Y-108452380D01*
X76047619Y-108404761D01*
X76000000Y-108309523D01*
X76000000Y-107928571D01*
X76047619Y-107833333D01*
X76142857Y-107785714D01*
X76333333Y-107785714D01*
X76428571Y-107833333D01*
X76476190Y-107928571D01*
X76476190Y-108023809D01*
X76000000Y-108119047D01*
X77333333Y-108452380D02*
X77333333Y-107452380D01*
X77333333Y-108404761D02*
X77238095Y-108452380D01*
X77047619Y-108452380D01*
X76952380Y-108404761D01*
X76904761Y-108357142D01*
X76857142Y-108261904D01*
X76857142Y-107976190D01*
X76904761Y-107880952D01*
X76952380Y-107833333D01*
X77047619Y-107785714D01*
X77238095Y-107785714D01*
X77333333Y-107833333D01*
X78571428Y-108452380D02*
X78571428Y-107452380D01*
X78571428Y-107833333D02*
X78666666Y-107785714D01*
X78857142Y-107785714D01*
X78952380Y-107833333D01*
X79000000Y-107880952D01*
X79047619Y-107976190D01*
X79047619Y-108261904D01*
X79000000Y-108357142D01*
X78952380Y-108404761D01*
X78857142Y-108452380D01*
X78666666Y-108452380D01*
X78571428Y-108404761D01*
X79380952Y-107785714D02*
X79619047Y-108452380D01*
X79857142Y-107785714D02*
X79619047Y-108452380D01*
X79523809Y-108690476D01*
X79476190Y-108738095D01*
X79380952Y-108785714D01*
X81000000Y-108452380D02*
X81000000Y-107452380D01*
X81333333Y-108166666D01*
X81666666Y-107452380D01*
X81666666Y-108452380D01*
X82571428Y-108452380D02*
X82571428Y-107928571D01*
X82523809Y-107833333D01*
X82428571Y-107785714D01*
X82238095Y-107785714D01*
X82142857Y-107833333D01*
X82571428Y-108404761D02*
X82476190Y-108452380D01*
X82238095Y-108452380D01*
X82142857Y-108404761D01*
X82095238Y-108309523D01*
X82095238Y-108214285D01*
X82142857Y-108119047D01*
X82238095Y-108071428D01*
X82476190Y-108071428D01*
X82571428Y-108023809D01*
X83047619Y-108452380D02*
X83047619Y-107785714D01*
X83047619Y-107976190D02*
X83095238Y-107880952D01*
X83142857Y-107833333D01*
X83238095Y-107785714D01*
X83333333Y-107785714D01*
X83523809Y-107785714D02*
X83904761Y-107785714D01*
X83666666Y-107452380D02*
X83666666Y-108309523D01*
X83714285Y-108404761D01*
X83809523Y-108452380D01*
X83904761Y-108452380D01*
X84238095Y-108452380D02*
X84238095Y-107785714D01*
X84238095Y-107452380D02*
X84190476Y-107500000D01*
X84238095Y-107547619D01*
X84285714Y-107500000D01*
X84238095Y-107452380D01*
X84238095Y-107547619D01*
X84714285Y-107785714D02*
X84714285Y-108452380D01*
X84714285Y-107880952D02*
X84761904Y-107833333D01*
X84857142Y-107785714D01*
X85000000Y-107785714D01*
X85095238Y-107833333D01*
X85142857Y-107928571D01*
X85142857Y-108452380D01*
X86904761Y-107500000D02*
X86809523Y-107452380D01*
X86666666Y-107452380D01*
X86523809Y-107500000D01*
X86428571Y-107595238D01*
X86380952Y-107690476D01*
X86333333Y-107880952D01*
X86333333Y-108023809D01*
X86380952Y-108214285D01*
X86428571Y-108309523D01*
X86523809Y-108404761D01*
X86666666Y-108452380D01*
X86761904Y-108452380D01*
X86904761Y-108404761D01*
X86952380Y-108357142D01*
X86952380Y-108023809D01*
X86761904Y-108023809D01*
X87285714Y-107785714D02*
X87523809Y-108452380D01*
X87761904Y-107785714D02*
X87523809Y-108452380D01*
X87428571Y-108690476D01*
X87380952Y-108738095D01*
X87285714Y-108785714D01*
X88571428Y-107785714D02*
X88571428Y-108452380D01*
X88142857Y-107785714D02*
X88142857Y-108309523D01*
X88190476Y-108404761D01*
X88285714Y-108452380D01*
X88428571Y-108452380D01*
X88523809Y-108404761D01*
X88571428Y-108357142D01*
X89047619Y-108452380D02*
X89047619Y-107785714D01*
X89047619Y-107976190D02*
X89095238Y-107880952D01*
X89142857Y-107833333D01*
X89238095Y-107785714D01*
X89333333Y-107785714D01*
X89666666Y-108452380D02*
X89666666Y-107452380D01*
X89761904Y-108071428D02*
X90047619Y-108452380D01*
X90047619Y-107785714D02*
X89666666Y-108166666D01*
X90619047Y-108452380D02*
X90523809Y-108404761D01*
X90476190Y-108357142D01*
X90428571Y-108261904D01*
X90428571Y-107976190D01*
X90476190Y-107880952D01*
X90523809Y-107833333D01*
X90619047Y-107785714D01*
X90761904Y-107785714D01*
X90857142Y-107833333D01*
X90904761Y-107880952D01*
X90952380Y-107976190D01*
X90952380Y-108261904D01*
X90904761Y-108357142D01*
X90857142Y-108404761D01*
X90761904Y-108452380D01*
X90619047Y-108452380D01*
X90809523Y-107404761D02*
X90666666Y-107547619D01*
D15*
X165214285Y-107178571D02*
X166071428Y-107178571D01*
X165642857Y-108678571D02*
X165642857Y-107178571D01*
X167285714Y-108678571D02*
X166571428Y-108678571D01*
X166571428Y-107178571D01*
X167714285Y-107678571D02*
X168785714Y-107678571D01*
X168142857Y-107035714D02*
X167714285Y-108964285D01*
X168642857Y-108321428D02*
X167571428Y-108321428D01*
X168214285Y-108964285D02*
X168642857Y-107035714D01*
X170642857Y-107821428D02*
X170500000Y-107750000D01*
X170428571Y-107678571D01*
X170357142Y-107535714D01*
X170357142Y-107464285D01*
X170428571Y-107321428D01*
X170500000Y-107250000D01*
X170642857Y-107178571D01*
X170928571Y-107178571D01*
X171071428Y-107250000D01*
X171142857Y-107321428D01*
X171214285Y-107464285D01*
X171214285Y-107535714D01*
X171142857Y-107678571D01*
X171071428Y-107750000D01*
X170928571Y-107821428D01*
X170642857Y-107821428D01*
X170500000Y-107892857D01*
X170428571Y-107964285D01*
X170357142Y-108107142D01*
X170357142Y-108392857D01*
X170428571Y-108535714D01*
X170500000Y-108607142D01*
X170642857Y-108678571D01*
X170928571Y-108678571D01*
X171071428Y-108607142D01*
X171142857Y-108535714D01*
X171214285Y-108392857D01*
X171214285Y-108107142D01*
X171142857Y-107964285D01*
X171071428Y-107892857D01*
X170928571Y-107821428D01*
X172142857Y-107178571D02*
X172285714Y-107178571D01*
X172428571Y-107250000D01*
X172500000Y-107321428D01*
X172571428Y-107464285D01*
X172642857Y-107750000D01*
X172642857Y-108107142D01*
X172571428Y-108392857D01*
X172500000Y-108535714D01*
X172428571Y-108607142D01*
X172285714Y-108678571D01*
X172142857Y-108678571D01*
X172000000Y-108607142D01*
X171928571Y-108535714D01*
X171857142Y-108392857D01*
X171785714Y-108107142D01*
X171785714Y-107750000D01*
X171857142Y-107464285D01*
X171928571Y-107321428D01*
X172000000Y-107250000D01*
X172142857Y-107178571D01*
X173571428Y-107178571D02*
X173714285Y-107178571D01*
X173857142Y-107250000D01*
X173928571Y-107321428D01*
X174000000Y-107464285D01*
X174071428Y-107750000D01*
X174071428Y-108107142D01*
X174000000Y-108392857D01*
X173928571Y-108535714D01*
X173857142Y-108607142D01*
X173714285Y-108678571D01*
X173571428Y-108678571D01*
X173428571Y-108607142D01*
X173357142Y-108535714D01*
X173285714Y-108392857D01*
X173214285Y-108107142D01*
X173214285Y-107750000D01*
X173285714Y-107464285D01*
X173357142Y-107321428D01*
X173428571Y-107250000D01*
X173571428Y-107178571D01*
X175000000Y-107178571D02*
X175142857Y-107178571D01*
X175285714Y-107250000D01*
X175357142Y-107321428D01*
X175428571Y-107464285D01*
X175500000Y-107750000D01*
X175500000Y-108107142D01*
X175428571Y-108392857D01*
X175357142Y-108535714D01*
X175285714Y-108607142D01*
X175142857Y-108678571D01*
X175000000Y-108678571D01*
X174857142Y-108607142D01*
X174785714Y-108535714D01*
X174714285Y-108392857D01*
X174642857Y-108107142D01*
X174642857Y-107750000D01*
X174714285Y-107464285D01*
X174785714Y-107321428D01*
X174857142Y-107250000D01*
X175000000Y-107178571D01*
X176928571Y-108678571D02*
X176071428Y-108678571D01*
X176500000Y-108678571D02*
X176500000Y-107178571D01*
X176357142Y-107392857D01*
X176214285Y-107535714D01*
X176071428Y-107607142D01*
X177857142Y-107178571D02*
X178000000Y-107178571D01*
X178142857Y-107250000D01*
X178214285Y-107321428D01*
X178285714Y-107464285D01*
X178357142Y-107750000D01*
X178357142Y-108107142D01*
X178285714Y-108392857D01*
X178214285Y-108535714D01*
X178142857Y-108607142D01*
X178000000Y-108678571D01*
X177857142Y-108678571D01*
X177714285Y-108607142D01*
X177642857Y-108535714D01*
X177571428Y-108392857D01*
X177500000Y-108107142D01*
X177500000Y-107750000D01*
X177571428Y-107464285D01*
X177642857Y-107321428D01*
X177714285Y-107250000D01*
X177857142Y-107178571D01*
X179285714Y-107178571D02*
X179428571Y-107178571D01*
X179571428Y-107250000D01*
X179642857Y-107321428D01*
X179714285Y-107464285D01*
X179785714Y-107750000D01*
X179785714Y-108107142D01*
X179714285Y-108392857D01*
X179642857Y-108535714D01*
X179571428Y-108607142D01*
X179428571Y-108678571D01*
X179285714Y-108678571D01*
X179142857Y-108607142D01*
X179071428Y-108535714D01*
X179000000Y-108392857D01*
X178928571Y-108107142D01*
X178928571Y-107750000D01*
X179000000Y-107464285D01*
X179071428Y-107321428D01*
X179142857Y-107250000D01*
X179285714Y-107178571D01*
X180714285Y-107178571D02*
X180857142Y-107178571D01*
X181000000Y-107250000D01*
X181071428Y-107321428D01*
X181142857Y-107464285D01*
X181214285Y-107750000D01*
X181214285Y-108107142D01*
X181142857Y-108392857D01*
X181071428Y-108535714D01*
X181000000Y-108607142D01*
X180857142Y-108678571D01*
X180714285Y-108678571D01*
X180571428Y-108607142D01*
X180500000Y-108535714D01*
X180428571Y-108392857D01*
X180357142Y-108107142D01*
X180357142Y-107750000D01*
X180428571Y-107464285D01*
X180500000Y-107321428D01*
X180571428Y-107250000D01*
X180714285Y-107178571D01*
X182642857Y-108678571D02*
X181785714Y-108678571D01*
X182214285Y-108678571D02*
X182214285Y-107178571D01*
X182071428Y-107392857D01*
X181928571Y-107535714D01*
X181785714Y-107607142D01*
X40619047Y-45904761D02*
X41761904Y-45904761D01*
X41190476Y-47904761D02*
X41190476Y-45904761D01*
X42714285Y-47904761D02*
X42523809Y-47809523D01*
X42428571Y-47714285D01*
X42333333Y-47523809D01*
X42333333Y-46952380D01*
X42428571Y-46761904D01*
X42523809Y-46666666D01*
X42714285Y-46571428D01*
X43000000Y-46571428D01*
X43190476Y-46666666D01*
X43285714Y-46761904D01*
X43380952Y-46952380D01*
X43380952Y-47523809D01*
X43285714Y-47714285D01*
X43190476Y-47809523D01*
X43000000Y-47904761D01*
X42714285Y-47904761D01*
X44238095Y-46571428D02*
X44238095Y-48571428D01*
X44238095Y-46666666D02*
X44428571Y-46571428D01*
X44809523Y-46571428D01*
X45000000Y-46666666D01*
X45095238Y-46761904D01*
X45190476Y-46952380D01*
X45190476Y-47523809D01*
X45095238Y-47714285D01*
X45000000Y-47809523D01*
X44809523Y-47904761D01*
X44428571Y-47904761D01*
X44238095Y-47809523D01*
D16*
%TO.P,DRA2,*%
%TO.N,*%
X135000000Y-75000000D03*
X135000000Y-87500000D03*
X135000000Y-62500000D03*
%TD*%
%TO.P,DRA3,*%
%TO.N,*%
X55000000Y-75000000D03*
X55000000Y-87500000D03*
X55000000Y-62500000D03*
%TD*%
%TO.P,DRA1,*%
%TO.N,*%
X215000000Y-75000000D03*
X215000000Y-87500000D03*
X215000000Y-62500000D03*
%TD*%
D17*
%TO.P,J1,A1*%
%TO.N,Net-(J1-PadA1)*%
X46250000Y-53190000D03*
D18*
%TO.P,J1,A2*%
%TO.N,Net-(J1-PadA2)*%
X48250000Y-54190000D03*
%TO.P,J1,B1*%
%TO.N,Net-(J1-PadA1)*%
X43750000Y-53190000D03*
%TO.P,J1,B2*%
%TO.N,Net-(J1-PadA2)*%
X41750000Y-54190000D03*
%TO.P,J1,A3*%
%TO.N,Net-(J1-PadA3)*%
X46250000Y-55190000D03*
%TO.P,J1,A4*%
%TO.N,Net-(J1-PadA4)*%
X48250000Y-56190000D03*
%TO.P,J1,B3*%
%TO.N,Net-(J1-PadA3)*%
X43750000Y-55190000D03*
%TO.P,J1,B4*%
%TO.N,Net-(J1-PadA4)*%
X41750000Y-56190000D03*
%TO.P,J1,A5*%
%TO.N,Net-(J1-PadA5)*%
X46250000Y-57190000D03*
%TO.P,J1,A6*%
%TO.N,Net-(J1-PadA6)*%
X48250000Y-58190000D03*
%TO.P,J1,B5*%
%TO.N,Net-(J1-PadA5)*%
X43750000Y-57190000D03*
%TO.P,J1,B6*%
%TO.N,Net-(J1-PadA6)*%
X41750000Y-58190000D03*
%TO.P,J1,A7*%
%TO.N,Net-(J1-PadA7)*%
X46250000Y-59190000D03*
%TO.P,J1,A8*%
%TO.N,Net-(J1-PadA8)*%
X48250000Y-60190000D03*
%TO.P,J1,B7*%
%TO.N,Net-(J1-PadA7)*%
X43750000Y-59190000D03*
%TO.P,J1,B8*%
%TO.N,Net-(J1-PadA8)*%
X41750000Y-60190000D03*
%TO.P,J1,A9*%
%TO.N,Net-(J1-PadA9)*%
X46250000Y-61190000D03*
%TO.P,J1,A10*%
%TO.N,Net-(J1-PadA10)*%
X48250000Y-62190000D03*
%TO.P,J1,B9*%
%TO.N,Net-(J1-PadA9)*%
X43750000Y-61190000D03*
%TO.P,J1,B10*%
%TO.N,Net-(J1-PadA10)*%
X41750000Y-62190000D03*
%TO.P,J1,A11*%
%TO.N,Net-(J1-PadA11)*%
X46250000Y-63190000D03*
%TO.P,J1,B11*%
X43750000Y-63190000D03*
%TO.P,J1,A12*%
%TO.N,Net-(J1-PadA12)*%
X48250000Y-66190000D03*
%TO.P,J1,B12*%
%TO.N,N/C*%
X41750000Y-66190000D03*
%TO.P,J1,A13*%
%TO.N,Net-(J1-PadA13)*%
X46250000Y-67190000D03*
%TO.P,J1,A14*%
%TO.N,Net-(J1-PadA14)*%
X48250000Y-68190000D03*
%TO.P,J1,B13*%
%TO.N,N/C*%
X43750000Y-67190000D03*
%TO.P,J1,B14*%
X41750000Y-68190000D03*
%TO.P,J1,A15*%
%TO.N,Net-(J1-PadA15)*%
X46250000Y-69190000D03*
%TO.P,J1,A16*%
%TO.N,Net-(J1-PadA16)*%
X48250000Y-70190000D03*
%TO.P,J1,B15*%
%TO.N,N/C*%
X43750000Y-69190000D03*
%TO.P,J1,B16*%
X41750000Y-70190000D03*
%TO.P,J1,A17*%
%TO.N,Net-(J1-PadA17)*%
X46250000Y-71190000D03*
%TO.P,J1,A18*%
%TO.N,Net-(J1-PadA18)*%
X48250000Y-72190000D03*
%TO.P,J1,B17*%
%TO.N,N/C*%
X43750000Y-71190000D03*
%TO.P,J1,B18*%
X41750000Y-72190000D03*
%TO.P,J1,A19*%
%TO.N,Net-(J1-PadA19)*%
X46250000Y-73190000D03*
%TO.P,J1,A20*%
%TO.N,Net-(J1-PadA20)*%
X48250000Y-74190000D03*
%TO.P,J1,B19*%
%TO.N,N/C*%
X43750000Y-73190000D03*
%TO.P,J1,B20*%
X41750000Y-74190000D03*
%TO.P,J1,A21*%
%TO.N,Net-(J1-PadA21)*%
X46250000Y-75190000D03*
%TO.P,J1,B21*%
%TO.N,N/C*%
X43750000Y-75190000D03*
%TO.P,J1,A22*%
%TO.N,Net-(J1-PadA22)*%
X48250000Y-76190000D03*
%TO.P,J1,B22*%
%TO.N,N/C*%
X41750000Y-76190000D03*
%TO.P,J1,A23*%
%TO.N,Net-(J1-PadA23)*%
X46250000Y-77190000D03*
%TO.P,J1,A24*%
%TO.N,Net-(J1-PadA24)*%
X48250000Y-78190000D03*
%TO.P,J1,B23*%
%TO.N,N/C*%
X43750000Y-77190000D03*
%TO.P,J1,B24*%
X41750000Y-78190000D03*
%TO.P,J1,A25*%
%TO.N,Net-(J1-PadA25)*%
X46250000Y-79190000D03*
%TO.P,J1,A26*%
%TO.N,Net-(J1-PadA26)*%
X48250000Y-80190000D03*
%TO.P,J1,B25*%
%TO.N,N/C*%
X43750000Y-79190000D03*
%TO.P,J1,B26*%
X41750000Y-80190000D03*
%TO.P,J1,A27*%
%TO.N,Net-(J1-PadA27)*%
X46250000Y-81190000D03*
%TO.P,J1,A28*%
%TO.N,Net-(J1-PadA28)*%
X48250000Y-82190000D03*
%TO.P,J1,B27*%
%TO.N,N/C*%
X43750000Y-81190000D03*
%TO.P,J1,B28*%
X41750000Y-82190000D03*
%TO.P,J1,A29*%
%TO.N,Net-(J1-PadA29)*%
X46250000Y-83190000D03*
%TO.P,J1,A30*%
%TO.N,Net-(J1-PadA30)*%
X48250000Y-84190000D03*
%TO.P,J1,B29*%
%TO.N,N/C*%
X43750000Y-83190000D03*
%TO.P,J1,B30*%
X41750000Y-84190000D03*
%TO.P,J1,A31*%
%TO.N,Net-(J1-PadA31)*%
X46250000Y-85190000D03*
%TO.P,J1,B31*%
%TO.N,N/C*%
X43750000Y-85190000D03*
%TO.P,J1,A32*%
%TO.N,Net-(J1-PadA32)*%
X48250000Y-86190000D03*
%TO.P,J1,B32*%
%TO.N,N/C*%
X41750000Y-86190000D03*
%TO.P,J1,A33*%
%TO.N,Net-(J1-PadA33)*%
X46250000Y-87190000D03*
%TO.P,J1,A34*%
%TO.N,Net-(J1-PadA34)*%
X48250000Y-88190000D03*
%TO.P,J1,B33*%
%TO.N,N/C*%
X43750000Y-87190000D03*
%TO.P,J1,B34*%
X41750000Y-88190000D03*
%TO.P,J1,A35*%
%TO.N,Net-(J1-PadA35)*%
X46250000Y-89190000D03*
%TO.P,J1,B35*%
%TO.N,N/C*%
X43750000Y-89190000D03*
%TO.P,J1,A36*%
%TO.N,Net-(J1-PadA36)*%
X48250000Y-90190000D03*
%TO.P,J1,B36*%
%TO.N,N/C*%
X41750000Y-90190000D03*
%TO.P,J1,A37*%
%TO.N,Net-(J1-PadA37)*%
X46250000Y-91190000D03*
%TO.P,J1,A38*%
%TO.N,Net-(J1-PadA38)*%
X48250000Y-92190000D03*
%TO.P,J1,B37*%
%TO.N,N/C*%
X43750000Y-91190000D03*
%TO.P,J1,B38*%
X41750000Y-92190000D03*
%TO.P,J1,A39*%
%TO.N,Net-(J1-PadA39)*%
X46250000Y-93190000D03*
%TO.P,J1,B39*%
%TO.N,N/C*%
X43750000Y-93190000D03*
%TO.P,J1,A40*%
%TO.N,Net-(J1-PadA40)*%
X48250000Y-94190000D03*
%TO.P,J1,B40*%
%TO.N,N/C*%
X41750000Y-94190000D03*
%TO.P,J1,A41*%
%TO.N,Net-(J1-PadA41)*%
X46250000Y-95190000D03*
%TO.P,J1,A42*%
%TO.N,Net-(J1-PadA42)*%
X48250000Y-96190000D03*
%TO.P,J1,B41*%
%TO.N,N/C*%
X43750000Y-95190000D03*
%TO.P,J1,B42*%
X41750000Y-96190000D03*
%TO.P,J1,A43*%
%TO.N,Net-(J1-PadA43)*%
X46250000Y-97190000D03*
%TO.P,J1,B43*%
%TO.N,N/C*%
X43750000Y-97190000D03*
%TO.P,J1,A44*%
%TO.N,Net-(J1-PadA44)*%
X48250000Y-98190000D03*
%TO.P,J1,B44*%
%TO.N,N/C*%
X41750000Y-98190000D03*
%TO.P,J1,A45*%
%TO.N,Net-(J1-PadA45)*%
X46250000Y-99190000D03*
%TO.P,J1,A46*%
%TO.N,Net-(J1-PadA46)*%
X48250000Y-100190000D03*
%TO.P,J1,B45*%
%TO.N,N/C*%
X43750000Y-99190000D03*
%TO.P,J1,B46*%
X41750000Y-100190000D03*
%TO.P,J1,A47*%
%TO.N,Net-(J1-PadA47)*%
X46250000Y-101190000D03*
%TO.P,J1,B47*%
%TO.N,N/C*%
X43750000Y-101190000D03*
%TO.P,J1,A48*%
%TO.N,Net-(J1-PadA48)*%
X48250000Y-102190000D03*
%TO.P,J1,B48*%
%TO.N,N/C*%
X41750000Y-102190000D03*
%TO.P,J1,B49*%
X43750000Y-103190000D03*
%TO.P,J1,A49*%
%TO.N,Net-(J1-PadA49)*%
X46250000Y-103190000D03*
%TD*%
%TO.P,J2,A49*%
%TO.N,Net-(J2-PadA49)*%
X66250000Y-103190000D03*
%TO.P,J2,B49*%
%TO.N,Net-(J1-PadA49)*%
X63750000Y-103190000D03*
%TO.P,J2,B48*%
%TO.N,Net-(J1-PadA48)*%
X61750000Y-102190000D03*
%TO.P,J2,A48*%
%TO.N,Net-(J2-PadA48)*%
X68250000Y-102190000D03*
%TO.P,J2,B47*%
%TO.N,Net-(J1-PadA47)*%
X63750000Y-101190000D03*
%TO.P,J2,A47*%
%TO.N,Net-(J2-PadA47)*%
X66250000Y-101190000D03*
%TO.P,J2,B46*%
%TO.N,Net-(J1-PadA46)*%
X61750000Y-100190000D03*
%TO.P,J2,B45*%
%TO.N,Net-(J1-PadA45)*%
X63750000Y-99190000D03*
%TO.P,J2,A46*%
%TO.N,Net-(J2-PadA46)*%
X68250000Y-100190000D03*
%TO.P,J2,A45*%
%TO.N,Net-(J2-PadA45)*%
X66250000Y-99190000D03*
%TO.P,J2,B44*%
%TO.N,Net-(J1-PadA44)*%
X61750000Y-98190000D03*
%TO.P,J2,A44*%
%TO.N,Net-(J2-PadA44)*%
X68250000Y-98190000D03*
%TO.P,J2,B43*%
%TO.N,Net-(J1-PadA43)*%
X63750000Y-97190000D03*
%TO.P,J2,A43*%
%TO.N,Net-(J2-PadA43)*%
X66250000Y-97190000D03*
%TO.P,J2,B42*%
%TO.N,Net-(J1-PadA42)*%
X61750000Y-96190000D03*
%TO.P,J2,B41*%
%TO.N,Net-(J1-PadA41)*%
X63750000Y-95190000D03*
%TO.P,J2,A42*%
%TO.N,Net-(J2-PadA42)*%
X68250000Y-96190000D03*
%TO.P,J2,A41*%
%TO.N,Net-(J2-PadA41)*%
X66250000Y-95190000D03*
%TO.P,J2,B40*%
%TO.N,Net-(J1-PadA40)*%
X61750000Y-94190000D03*
%TO.P,J2,A40*%
%TO.N,Net-(J2-PadA40)*%
X68250000Y-94190000D03*
%TO.P,J2,B39*%
%TO.N,Net-(J1-PadA39)*%
X63750000Y-93190000D03*
%TO.P,J2,A39*%
%TO.N,Net-(J2-PadA39)*%
X66250000Y-93190000D03*
%TO.P,J2,B38*%
%TO.N,Net-(J1-PadA38)*%
X61750000Y-92190000D03*
%TO.P,J2,B37*%
%TO.N,Net-(J1-PadA37)*%
X63750000Y-91190000D03*
%TO.P,J2,A38*%
%TO.N,Net-(J2-PadA38)*%
X68250000Y-92190000D03*
%TO.P,J2,A37*%
%TO.N,Net-(J2-PadA37)*%
X66250000Y-91190000D03*
%TO.P,J2,B36*%
%TO.N,Net-(J1-PadA36)*%
X61750000Y-90190000D03*
%TO.P,J2,A36*%
%TO.N,Net-(J2-PadA36)*%
X68250000Y-90190000D03*
%TO.P,J2,B35*%
%TO.N,Net-(J1-PadA35)*%
X63750000Y-89190000D03*
%TO.P,J2,A35*%
%TO.N,Net-(J2-PadA35)*%
X66250000Y-89190000D03*
%TO.P,J2,B34*%
%TO.N,Net-(J1-PadA34)*%
X61750000Y-88190000D03*
%TO.P,J2,B33*%
%TO.N,Net-(J1-PadA33)*%
X63750000Y-87190000D03*
%TO.P,J2,A34*%
%TO.N,Net-(J2-PadA34)*%
X68250000Y-88190000D03*
%TO.P,J2,A33*%
%TO.N,Net-(J2-PadA33)*%
X66250000Y-87190000D03*
%TO.P,J2,B32*%
%TO.N,Net-(J1-PadA32)*%
X61750000Y-86190000D03*
%TO.P,J2,A32*%
%TO.N,Net-(J2-PadA32)*%
X68250000Y-86190000D03*
%TO.P,J2,B31*%
%TO.N,Net-(J1-PadA31)*%
X63750000Y-85190000D03*
%TO.P,J2,A31*%
%TO.N,Net-(J2-PadA31)*%
X66250000Y-85190000D03*
%TO.P,J2,B30*%
%TO.N,Net-(J1-PadA30)*%
X61750000Y-84190000D03*
%TO.P,J2,B29*%
%TO.N,Net-(J1-PadA29)*%
X63750000Y-83190000D03*
%TO.P,J2,A30*%
%TO.N,Net-(J2-PadA30)*%
X68250000Y-84190000D03*
%TO.P,J2,A29*%
%TO.N,Net-(J2-PadA29)*%
X66250000Y-83190000D03*
%TO.P,J2,B28*%
%TO.N,Net-(J1-PadA28)*%
X61750000Y-82190000D03*
%TO.P,J2,B27*%
%TO.N,Net-(J1-PadA27)*%
X63750000Y-81190000D03*
%TO.P,J2,A28*%
%TO.N,Net-(J2-PadA28)*%
X68250000Y-82190000D03*
%TO.P,J2,A27*%
%TO.N,Net-(J2-PadA27)*%
X66250000Y-81190000D03*
%TO.P,J2,B26*%
%TO.N,Net-(J1-PadA26)*%
X61750000Y-80190000D03*
%TO.P,J2,B25*%
%TO.N,Net-(J1-PadA25)*%
X63750000Y-79190000D03*
%TO.P,J2,A26*%
%TO.N,Net-(J2-PadA26)*%
X68250000Y-80190000D03*
%TO.P,J2,A25*%
%TO.N,Net-(J2-PadA25)*%
X66250000Y-79190000D03*
%TO.P,J2,B24*%
%TO.N,Net-(J1-PadA24)*%
X61750000Y-78190000D03*
%TO.P,J2,B23*%
%TO.N,Net-(J1-PadA23)*%
X63750000Y-77190000D03*
%TO.P,J2,A24*%
%TO.N,Net-(J2-PadA24)*%
X68250000Y-78190000D03*
%TO.P,J2,A23*%
%TO.N,Net-(J2-PadA23)*%
X66250000Y-77190000D03*
%TO.P,J2,B22*%
%TO.N,Net-(J1-PadA22)*%
X61750000Y-76190000D03*
%TO.P,J2,A22*%
%TO.N,Net-(J2-PadA22)*%
X68250000Y-76190000D03*
%TO.P,J2,B21*%
%TO.N,Net-(J1-PadA21)*%
X63750000Y-75190000D03*
%TO.P,J2,A21*%
%TO.N,Net-(J2-PadA21)*%
X66250000Y-75190000D03*
%TO.P,J2,B20*%
%TO.N,Net-(J1-PadA20)*%
X61750000Y-74190000D03*
%TO.P,J2,B19*%
%TO.N,Net-(J1-PadA19)*%
X63750000Y-73190000D03*
%TO.P,J2,A20*%
%TO.N,Net-(J2-PadA20)*%
X68250000Y-74190000D03*
%TO.P,J2,A19*%
%TO.N,Net-(J2-PadA19)*%
X66250000Y-73190000D03*
%TO.P,J2,B18*%
%TO.N,Net-(J1-PadA18)*%
X61750000Y-72190000D03*
%TO.P,J2,B17*%
%TO.N,Net-(J1-PadA17)*%
X63750000Y-71190000D03*
%TO.P,J2,A18*%
%TO.N,Net-(J2-PadA18)*%
X68250000Y-72190000D03*
%TO.P,J2,A17*%
%TO.N,Net-(J2-PadA17)*%
X66250000Y-71190000D03*
%TO.P,J2,B16*%
%TO.N,Net-(J1-PadA16)*%
X61750000Y-70190000D03*
%TO.P,J2,B15*%
%TO.N,Net-(J1-PadA15)*%
X63750000Y-69190000D03*
%TO.P,J2,A16*%
%TO.N,Net-(J2-PadA16)*%
X68250000Y-70190000D03*
%TO.P,J2,A15*%
%TO.N,Net-(J2-PadA15)*%
X66250000Y-69190000D03*
%TO.P,J2,B14*%
%TO.N,Net-(J1-PadA14)*%
X61750000Y-68190000D03*
%TO.P,J2,B13*%
%TO.N,Net-(J1-PadA13)*%
X63750000Y-67190000D03*
%TO.P,J2,A14*%
%TO.N,Net-(J2-PadA14)*%
X68250000Y-68190000D03*
%TO.P,J2,A13*%
%TO.N,Net-(J2-PadA13)*%
X66250000Y-67190000D03*
%TO.P,J2,B12*%
%TO.N,Net-(J1-PadA12)*%
X61750000Y-66190000D03*
%TO.P,J2,A12*%
%TO.N,Net-(J2-PadA12)*%
X68250000Y-66190000D03*
%TO.P,J2,B11*%
%TO.N,Net-(J1-PadA11)*%
X63750000Y-63190000D03*
%TO.P,J2,A11*%
X66250000Y-63190000D03*
%TO.P,J2,B10*%
%TO.N,Net-(J1-PadA10)*%
X61750000Y-62190000D03*
%TO.P,J2,B9*%
%TO.N,Net-(J1-PadA9)*%
X63750000Y-61190000D03*
%TO.P,J2,A10*%
%TO.N,Net-(J1-PadA10)*%
X68250000Y-62190000D03*
%TO.P,J2,A9*%
%TO.N,Net-(J1-PadA9)*%
X66250000Y-61190000D03*
%TO.P,J2,B8*%
%TO.N,Net-(J1-PadA8)*%
X61750000Y-60190000D03*
%TO.P,J2,B7*%
%TO.N,Net-(J1-PadA7)*%
X63750000Y-59190000D03*
%TO.P,J2,A8*%
%TO.N,Net-(J1-PadA8)*%
X68250000Y-60190000D03*
%TO.P,J2,A7*%
%TO.N,Net-(J1-PadA7)*%
X66250000Y-59190000D03*
%TO.P,J2,B6*%
%TO.N,Net-(J1-PadA6)*%
X61750000Y-58190000D03*
%TO.P,J2,B5*%
%TO.N,Net-(J1-PadA5)*%
X63750000Y-57190000D03*
%TO.P,J2,A6*%
%TO.N,Net-(J1-PadA6)*%
X68250000Y-58190000D03*
%TO.P,J2,A5*%
%TO.N,Net-(J1-PadA5)*%
X66250000Y-57190000D03*
%TO.P,J2,B4*%
%TO.N,Net-(J1-PadA4)*%
X61750000Y-56190000D03*
%TO.P,J2,B3*%
%TO.N,Net-(J1-PadA3)*%
X63750000Y-55190000D03*
%TO.P,J2,A4*%
%TO.N,Net-(J1-PadA4)*%
X68250000Y-56190000D03*
%TO.P,J2,A3*%
%TO.N,Net-(J1-PadA3)*%
X66250000Y-55190000D03*
%TO.P,J2,B2*%
%TO.N,Net-(J1-PadA2)*%
X61750000Y-54190000D03*
%TO.P,J2,B1*%
%TO.N,Net-(J1-PadA1)*%
X63750000Y-53190000D03*
%TO.P,J2,A2*%
%TO.N,Net-(J1-PadA2)*%
X68250000Y-54190000D03*
D17*
%TO.P,J2,A1*%
%TO.N,Net-(J1-PadA1)*%
X66250000Y-53190000D03*
%TD*%
%TO.P,J3,A1*%
%TO.N,Net-(J1-PadA1)*%
X86250000Y-53190000D03*
D18*
%TO.P,J3,A2*%
%TO.N,Net-(J1-PadA2)*%
X88250000Y-54190000D03*
%TO.P,J3,B1*%
%TO.N,Net-(J1-PadA1)*%
X83750000Y-53190000D03*
%TO.P,J3,B2*%
%TO.N,Net-(J1-PadA2)*%
X81750000Y-54190000D03*
%TO.P,J3,A3*%
%TO.N,Net-(J1-PadA3)*%
X86250000Y-55190000D03*
%TO.P,J3,A4*%
%TO.N,Net-(J1-PadA4)*%
X88250000Y-56190000D03*
%TO.P,J3,B3*%
%TO.N,Net-(J1-PadA3)*%
X83750000Y-55190000D03*
%TO.P,J3,B4*%
%TO.N,Net-(J1-PadA4)*%
X81750000Y-56190000D03*
%TO.P,J3,A5*%
%TO.N,Net-(J1-PadA5)*%
X86250000Y-57190000D03*
%TO.P,J3,A6*%
%TO.N,Net-(J1-PadA6)*%
X88250000Y-58190000D03*
%TO.P,J3,B5*%
%TO.N,Net-(J1-PadA5)*%
X83750000Y-57190000D03*
%TO.P,J3,B6*%
%TO.N,Net-(J1-PadA6)*%
X81750000Y-58190000D03*
%TO.P,J3,A7*%
%TO.N,Net-(J1-PadA7)*%
X86250000Y-59190000D03*
%TO.P,J3,A8*%
%TO.N,Net-(J1-PadA8)*%
X88250000Y-60190000D03*
%TO.P,J3,B7*%
%TO.N,Net-(J1-PadA7)*%
X83750000Y-59190000D03*
%TO.P,J3,B8*%
%TO.N,Net-(J1-PadA8)*%
X81750000Y-60190000D03*
%TO.P,J3,A9*%
%TO.N,Net-(J1-PadA9)*%
X86250000Y-61190000D03*
%TO.P,J3,A10*%
%TO.N,Net-(J1-PadA10)*%
X88250000Y-62190000D03*
%TO.P,J3,B9*%
%TO.N,Net-(J1-PadA9)*%
X83750000Y-61190000D03*
%TO.P,J3,B10*%
%TO.N,Net-(J1-PadA10)*%
X81750000Y-62190000D03*
%TO.P,J3,A11*%
%TO.N,Net-(J1-PadA11)*%
X86250000Y-63190000D03*
%TO.P,J3,B11*%
X83750000Y-63190000D03*
%TO.P,J3,A12*%
%TO.N,Net-(J3-PadA12)*%
X88250000Y-66190000D03*
%TO.P,J3,B12*%
%TO.N,Net-(J2-PadA12)*%
X81750000Y-66190000D03*
%TO.P,J3,A13*%
%TO.N,Net-(J3-PadA13)*%
X86250000Y-67190000D03*
%TO.P,J3,A14*%
%TO.N,Net-(J3-PadA14)*%
X88250000Y-68190000D03*
%TO.P,J3,B13*%
%TO.N,Net-(J2-PadA13)*%
X83750000Y-67190000D03*
%TO.P,J3,B14*%
%TO.N,Net-(J2-PadA14)*%
X81750000Y-68190000D03*
%TO.P,J3,A15*%
%TO.N,Net-(J3-PadA15)*%
X86250000Y-69190000D03*
%TO.P,J3,A16*%
%TO.N,Net-(J3-PadA16)*%
X88250000Y-70190000D03*
%TO.P,J3,B15*%
%TO.N,Net-(J2-PadA15)*%
X83750000Y-69190000D03*
%TO.P,J3,B16*%
%TO.N,Net-(J2-PadA16)*%
X81750000Y-70190000D03*
%TO.P,J3,A17*%
%TO.N,Net-(J3-PadA17)*%
X86250000Y-71190000D03*
%TO.P,J3,A18*%
%TO.N,Net-(J3-PadA18)*%
X88250000Y-72190000D03*
%TO.P,J3,B17*%
%TO.N,Net-(J2-PadA17)*%
X83750000Y-71190000D03*
%TO.P,J3,B18*%
%TO.N,Net-(J2-PadA18)*%
X81750000Y-72190000D03*
%TO.P,J3,A19*%
%TO.N,Net-(J3-PadA19)*%
X86250000Y-73190000D03*
%TO.P,J3,A20*%
%TO.N,Net-(J3-PadA20)*%
X88250000Y-74190000D03*
%TO.P,J3,B19*%
%TO.N,Net-(J2-PadA19)*%
X83750000Y-73190000D03*
%TO.P,J3,B20*%
%TO.N,Net-(J2-PadA20)*%
X81750000Y-74190000D03*
%TO.P,J3,A21*%
%TO.N,Net-(J3-PadA21)*%
X86250000Y-75190000D03*
%TO.P,J3,B21*%
%TO.N,Net-(J2-PadA21)*%
X83750000Y-75190000D03*
%TO.P,J3,A22*%
%TO.N,Net-(J3-PadA22)*%
X88250000Y-76190000D03*
%TO.P,J3,B22*%
%TO.N,Net-(J2-PadA22)*%
X81750000Y-76190000D03*
%TO.P,J3,A23*%
%TO.N,Net-(J3-PadA23)*%
X86250000Y-77190000D03*
%TO.P,J3,A24*%
%TO.N,Net-(J3-PadA24)*%
X88250000Y-78190000D03*
%TO.P,J3,B23*%
%TO.N,Net-(J2-PadA23)*%
X83750000Y-77190000D03*
%TO.P,J3,B24*%
%TO.N,Net-(J2-PadA24)*%
X81750000Y-78190000D03*
%TO.P,J3,A25*%
%TO.N,Net-(J3-PadA25)*%
X86250000Y-79190000D03*
%TO.P,J3,A26*%
%TO.N,Net-(J3-PadA26)*%
X88250000Y-80190000D03*
%TO.P,J3,B25*%
%TO.N,Net-(J2-PadA25)*%
X83750000Y-79190000D03*
%TO.P,J3,B26*%
%TO.N,Net-(J2-PadA26)*%
X81750000Y-80190000D03*
%TO.P,J3,A27*%
%TO.N,Net-(J3-PadA27)*%
X86250000Y-81190000D03*
%TO.P,J3,A28*%
%TO.N,Net-(J3-PadA28)*%
X88250000Y-82190000D03*
%TO.P,J3,B27*%
%TO.N,Net-(J2-PadA27)*%
X83750000Y-81190000D03*
%TO.P,J3,B28*%
%TO.N,Net-(J2-PadA28)*%
X81750000Y-82190000D03*
%TO.P,J3,A29*%
%TO.N,Net-(J3-PadA29)*%
X86250000Y-83190000D03*
%TO.P,J3,A30*%
%TO.N,Net-(J3-PadA30)*%
X88250000Y-84190000D03*
%TO.P,J3,B29*%
%TO.N,Net-(J2-PadA29)*%
X83750000Y-83190000D03*
%TO.P,J3,B30*%
%TO.N,Net-(J2-PadA30)*%
X81750000Y-84190000D03*
%TO.P,J3,A31*%
%TO.N,Net-(J3-PadA31)*%
X86250000Y-85190000D03*
%TO.P,J3,B31*%
%TO.N,Net-(J2-PadA31)*%
X83750000Y-85190000D03*
%TO.P,J3,A32*%
%TO.N,Net-(J3-PadA32)*%
X88250000Y-86190000D03*
%TO.P,J3,B32*%
%TO.N,Net-(J2-PadA32)*%
X81750000Y-86190000D03*
%TO.P,J3,A33*%
%TO.N,Net-(J3-PadA33)*%
X86250000Y-87190000D03*
%TO.P,J3,A34*%
%TO.N,Net-(J3-PadA34)*%
X88250000Y-88190000D03*
%TO.P,J3,B33*%
%TO.N,Net-(J2-PadA33)*%
X83750000Y-87190000D03*
%TO.P,J3,B34*%
%TO.N,Net-(J2-PadA34)*%
X81750000Y-88190000D03*
%TO.P,J3,A35*%
%TO.N,Net-(J3-PadA35)*%
X86250000Y-89190000D03*
%TO.P,J3,B35*%
%TO.N,Net-(J2-PadA35)*%
X83750000Y-89190000D03*
%TO.P,J3,A36*%
%TO.N,Net-(J3-PadA36)*%
X88250000Y-90190000D03*
%TO.P,J3,B36*%
%TO.N,Net-(J2-PadA36)*%
X81750000Y-90190000D03*
%TO.P,J3,A37*%
%TO.N,Net-(J3-PadA37)*%
X86250000Y-91190000D03*
%TO.P,J3,A38*%
%TO.N,Net-(J3-PadA38)*%
X88250000Y-92190000D03*
%TO.P,J3,B37*%
%TO.N,Net-(J2-PadA37)*%
X83750000Y-91190000D03*
%TO.P,J3,B38*%
%TO.N,Net-(J2-PadA38)*%
X81750000Y-92190000D03*
%TO.P,J3,A39*%
%TO.N,Net-(J3-PadA39)*%
X86250000Y-93190000D03*
%TO.P,J3,B39*%
%TO.N,Net-(J2-PadA39)*%
X83750000Y-93190000D03*
%TO.P,J3,A40*%
%TO.N,Net-(J3-PadA40)*%
X88250000Y-94190000D03*
%TO.P,J3,B40*%
%TO.N,Net-(J2-PadA40)*%
X81750000Y-94190000D03*
%TO.P,J3,A41*%
%TO.N,Net-(J3-PadA41)*%
X86250000Y-95190000D03*
%TO.P,J3,A42*%
%TO.N,Net-(J3-PadA42)*%
X88250000Y-96190000D03*
%TO.P,J3,B41*%
%TO.N,Net-(J2-PadA41)*%
X83750000Y-95190000D03*
%TO.P,J3,B42*%
%TO.N,Net-(J2-PadA42)*%
X81750000Y-96190000D03*
%TO.P,J3,A43*%
%TO.N,Net-(J3-PadA43)*%
X86250000Y-97190000D03*
%TO.P,J3,B43*%
%TO.N,Net-(J2-PadA43)*%
X83750000Y-97190000D03*
%TO.P,J3,A44*%
%TO.N,Net-(J3-PadA44)*%
X88250000Y-98190000D03*
%TO.P,J3,B44*%
%TO.N,Net-(J2-PadA44)*%
X81750000Y-98190000D03*
%TO.P,J3,A45*%
%TO.N,Net-(J3-PadA45)*%
X86250000Y-99190000D03*
%TO.P,J3,A46*%
%TO.N,Net-(J3-PadA46)*%
X88250000Y-100190000D03*
%TO.P,J3,B45*%
%TO.N,Net-(J2-PadA45)*%
X83750000Y-99190000D03*
%TO.P,J3,B46*%
%TO.N,Net-(J2-PadA46)*%
X81750000Y-100190000D03*
%TO.P,J3,A47*%
%TO.N,Net-(J3-PadA47)*%
X86250000Y-101190000D03*
%TO.P,J3,B47*%
%TO.N,Net-(J2-PadA47)*%
X83750000Y-101190000D03*
%TO.P,J3,A48*%
%TO.N,Net-(J3-PadA48)*%
X88250000Y-102190000D03*
%TO.P,J3,B48*%
%TO.N,Net-(J2-PadA48)*%
X81750000Y-102190000D03*
%TO.P,J3,B49*%
%TO.N,Net-(J2-PadA49)*%
X83750000Y-103190000D03*
%TO.P,J3,A49*%
%TO.N,Net-(J3-PadA49)*%
X86250000Y-103190000D03*
%TD*%
%TO.P,J4,A49*%
%TO.N,Net-(J4-PadA49)*%
X106250000Y-103190000D03*
%TO.P,J4,B49*%
%TO.N,Net-(J3-PadA49)*%
X103750000Y-103190000D03*
%TO.P,J4,B48*%
%TO.N,Net-(J3-PadA48)*%
X101750000Y-102190000D03*
%TO.P,J4,A48*%
%TO.N,Net-(J4-PadA48)*%
X108250000Y-102190000D03*
%TO.P,J4,B47*%
%TO.N,Net-(J3-PadA47)*%
X103750000Y-101190000D03*
%TO.P,J4,A47*%
%TO.N,Net-(J4-PadA47)*%
X106250000Y-101190000D03*
%TO.P,J4,B46*%
%TO.N,Net-(J3-PadA46)*%
X101750000Y-100190000D03*
%TO.P,J4,B45*%
%TO.N,Net-(J3-PadA45)*%
X103750000Y-99190000D03*
%TO.P,J4,A46*%
%TO.N,Net-(J4-PadA46)*%
X108250000Y-100190000D03*
%TO.P,J4,A45*%
%TO.N,Net-(J4-PadA45)*%
X106250000Y-99190000D03*
%TO.P,J4,B44*%
%TO.N,Net-(J3-PadA44)*%
X101750000Y-98190000D03*
%TO.P,J4,A44*%
%TO.N,Net-(J4-PadA44)*%
X108250000Y-98190000D03*
%TO.P,J4,B43*%
%TO.N,Net-(J3-PadA43)*%
X103750000Y-97190000D03*
%TO.P,J4,A43*%
%TO.N,Net-(J4-PadA43)*%
X106250000Y-97190000D03*
%TO.P,J4,B42*%
%TO.N,Net-(J3-PadA42)*%
X101750000Y-96190000D03*
%TO.P,J4,B41*%
%TO.N,Net-(J3-PadA41)*%
X103750000Y-95190000D03*
%TO.P,J4,A42*%
%TO.N,Net-(J4-PadA42)*%
X108250000Y-96190000D03*
%TO.P,J4,A41*%
%TO.N,Net-(J4-PadA41)*%
X106250000Y-95190000D03*
%TO.P,J4,B40*%
%TO.N,Net-(J3-PadA40)*%
X101750000Y-94190000D03*
%TO.P,J4,A40*%
%TO.N,Net-(J4-PadA40)*%
X108250000Y-94190000D03*
%TO.P,J4,B39*%
%TO.N,Net-(J3-PadA39)*%
X103750000Y-93190000D03*
%TO.P,J4,A39*%
%TO.N,Net-(J4-PadA39)*%
X106250000Y-93190000D03*
%TO.P,J4,B38*%
%TO.N,Net-(J3-PadA38)*%
X101750000Y-92190000D03*
%TO.P,J4,B37*%
%TO.N,Net-(J3-PadA37)*%
X103750000Y-91190000D03*
%TO.P,J4,A38*%
%TO.N,Net-(J4-PadA38)*%
X108250000Y-92190000D03*
%TO.P,J4,A37*%
%TO.N,Net-(J4-PadA37)*%
X106250000Y-91190000D03*
%TO.P,J4,B36*%
%TO.N,Net-(J3-PadA36)*%
X101750000Y-90190000D03*
%TO.P,J4,A36*%
%TO.N,Net-(J4-PadA36)*%
X108250000Y-90190000D03*
%TO.P,J4,B35*%
%TO.N,Net-(J3-PadA35)*%
X103750000Y-89190000D03*
%TO.P,J4,A35*%
%TO.N,Net-(J4-PadA35)*%
X106250000Y-89190000D03*
%TO.P,J4,B34*%
%TO.N,Net-(J3-PadA34)*%
X101750000Y-88190000D03*
%TO.P,J4,B33*%
%TO.N,Net-(J3-PadA33)*%
X103750000Y-87190000D03*
%TO.P,J4,A34*%
%TO.N,Net-(J4-PadA34)*%
X108250000Y-88190000D03*
%TO.P,J4,A33*%
%TO.N,Net-(J4-PadA33)*%
X106250000Y-87190000D03*
%TO.P,J4,B32*%
%TO.N,Net-(J3-PadA32)*%
X101750000Y-86190000D03*
%TO.P,J4,A32*%
%TO.N,Net-(J4-PadA32)*%
X108250000Y-86190000D03*
%TO.P,J4,B31*%
%TO.N,Net-(J3-PadA31)*%
X103750000Y-85190000D03*
%TO.P,J4,A31*%
%TO.N,Net-(J4-PadA31)*%
X106250000Y-85190000D03*
%TO.P,J4,B30*%
%TO.N,Net-(J3-PadA30)*%
X101750000Y-84190000D03*
%TO.P,J4,B29*%
%TO.N,Net-(J3-PadA29)*%
X103750000Y-83190000D03*
%TO.P,J4,A30*%
%TO.N,Net-(J4-PadA30)*%
X108250000Y-84190000D03*
%TO.P,J4,A29*%
%TO.N,Net-(J4-PadA29)*%
X106250000Y-83190000D03*
%TO.P,J4,B28*%
%TO.N,Net-(J3-PadA28)*%
X101750000Y-82190000D03*
%TO.P,J4,B27*%
%TO.N,Net-(J3-PadA27)*%
X103750000Y-81190000D03*
%TO.P,J4,A28*%
%TO.N,Net-(J4-PadA28)*%
X108250000Y-82190000D03*
%TO.P,J4,A27*%
%TO.N,Net-(J4-PadA27)*%
X106250000Y-81190000D03*
%TO.P,J4,B26*%
%TO.N,Net-(J3-PadA26)*%
X101750000Y-80190000D03*
%TO.P,J4,B25*%
%TO.N,Net-(J3-PadA25)*%
X103750000Y-79190000D03*
%TO.P,J4,A26*%
%TO.N,Net-(J4-PadA26)*%
X108250000Y-80190000D03*
%TO.P,J4,A25*%
%TO.N,Net-(J4-PadA25)*%
X106250000Y-79190000D03*
%TO.P,J4,B24*%
%TO.N,Net-(J3-PadA24)*%
X101750000Y-78190000D03*
%TO.P,J4,B23*%
%TO.N,Net-(J3-PadA23)*%
X103750000Y-77190000D03*
%TO.P,J4,A24*%
%TO.N,Net-(J4-PadA24)*%
X108250000Y-78190000D03*
%TO.P,J4,A23*%
%TO.N,Net-(J4-PadA23)*%
X106250000Y-77190000D03*
%TO.P,J4,B22*%
%TO.N,Net-(J3-PadA22)*%
X101750000Y-76190000D03*
%TO.P,J4,A22*%
%TO.N,Net-(J4-PadA22)*%
X108250000Y-76190000D03*
%TO.P,J4,B21*%
%TO.N,Net-(J3-PadA21)*%
X103750000Y-75190000D03*
%TO.P,J4,A21*%
%TO.N,Net-(J4-PadA21)*%
X106250000Y-75190000D03*
%TO.P,J4,B20*%
%TO.N,Net-(J3-PadA20)*%
X101750000Y-74190000D03*
%TO.P,J4,B19*%
%TO.N,Net-(J3-PadA19)*%
X103750000Y-73190000D03*
%TO.P,J4,A20*%
%TO.N,Net-(J4-PadA20)*%
X108250000Y-74190000D03*
%TO.P,J4,A19*%
%TO.N,Net-(J4-PadA19)*%
X106250000Y-73190000D03*
%TO.P,J4,B18*%
%TO.N,Net-(J3-PadA18)*%
X101750000Y-72190000D03*
%TO.P,J4,B17*%
%TO.N,Net-(J3-PadA17)*%
X103750000Y-71190000D03*
%TO.P,J4,A18*%
%TO.N,Net-(J4-PadA18)*%
X108250000Y-72190000D03*
%TO.P,J4,A17*%
%TO.N,Net-(J4-PadA17)*%
X106250000Y-71190000D03*
%TO.P,J4,B16*%
%TO.N,Net-(J3-PadA16)*%
X101750000Y-70190000D03*
%TO.P,J4,B15*%
%TO.N,Net-(J3-PadA15)*%
X103750000Y-69190000D03*
%TO.P,J4,A16*%
%TO.N,Net-(J4-PadA16)*%
X108250000Y-70190000D03*
%TO.P,J4,A15*%
%TO.N,Net-(J4-PadA15)*%
X106250000Y-69190000D03*
%TO.P,J4,B14*%
%TO.N,Net-(J3-PadA14)*%
X101750000Y-68190000D03*
%TO.P,J4,B13*%
%TO.N,Net-(J3-PadA13)*%
X103750000Y-67190000D03*
%TO.P,J4,A14*%
%TO.N,Net-(J4-PadA14)*%
X108250000Y-68190000D03*
%TO.P,J4,A13*%
%TO.N,Net-(J4-PadA13)*%
X106250000Y-67190000D03*
%TO.P,J4,B12*%
%TO.N,Net-(J3-PadA12)*%
X101750000Y-66190000D03*
%TO.P,J4,A12*%
%TO.N,Net-(J4-PadA12)*%
X108250000Y-66190000D03*
%TO.P,J4,B11*%
%TO.N,Net-(J1-PadA11)*%
X103750000Y-63190000D03*
%TO.P,J4,A11*%
X106250000Y-63190000D03*
%TO.P,J4,B10*%
%TO.N,Net-(J1-PadA10)*%
X101750000Y-62190000D03*
%TO.P,J4,B9*%
%TO.N,Net-(J1-PadA9)*%
X103750000Y-61190000D03*
%TO.P,J4,A10*%
%TO.N,Net-(J1-PadA10)*%
X108250000Y-62190000D03*
%TO.P,J4,A9*%
%TO.N,Net-(J1-PadA9)*%
X106250000Y-61190000D03*
%TO.P,J4,B8*%
%TO.N,Net-(J1-PadA8)*%
X101750000Y-60190000D03*
%TO.P,J4,B7*%
%TO.N,Net-(J1-PadA7)*%
X103750000Y-59190000D03*
%TO.P,J4,A8*%
%TO.N,Net-(J1-PadA8)*%
X108250000Y-60190000D03*
%TO.P,J4,A7*%
%TO.N,Net-(J1-PadA7)*%
X106250000Y-59190000D03*
%TO.P,J4,B6*%
%TO.N,Net-(J1-PadA6)*%
X101750000Y-58190000D03*
%TO.P,J4,B5*%
%TO.N,Net-(J1-PadA5)*%
X103750000Y-57190000D03*
%TO.P,J4,A6*%
%TO.N,Net-(J1-PadA6)*%
X108250000Y-58190000D03*
%TO.P,J4,A5*%
%TO.N,Net-(J1-PadA5)*%
X106250000Y-57190000D03*
%TO.P,J4,B4*%
%TO.N,Net-(J1-PadA4)*%
X101750000Y-56190000D03*
%TO.P,J4,B3*%
%TO.N,Net-(J1-PadA3)*%
X103750000Y-55190000D03*
%TO.P,J4,A4*%
%TO.N,Net-(J1-PadA4)*%
X108250000Y-56190000D03*
%TO.P,J4,A3*%
%TO.N,Net-(J1-PadA3)*%
X106250000Y-55190000D03*
%TO.P,J4,B2*%
%TO.N,Net-(J1-PadA2)*%
X101750000Y-54190000D03*
%TO.P,J4,B1*%
%TO.N,Net-(J1-PadA1)*%
X103750000Y-53190000D03*
%TO.P,J4,A2*%
%TO.N,Net-(J1-PadA2)*%
X108250000Y-54190000D03*
D17*
%TO.P,J4,A1*%
%TO.N,Net-(J1-PadA1)*%
X106250000Y-53190000D03*
%TD*%
%TO.P,J5,A1*%
%TO.N,Net-(J1-PadA1)*%
X126250000Y-53190000D03*
D18*
%TO.P,J5,A2*%
%TO.N,Net-(J1-PadA2)*%
X128250000Y-54190000D03*
%TO.P,J5,B1*%
%TO.N,Net-(J1-PadA1)*%
X123750000Y-53190000D03*
%TO.P,J5,B2*%
%TO.N,Net-(J1-PadA2)*%
X121750000Y-54190000D03*
%TO.P,J5,A3*%
%TO.N,Net-(J1-PadA3)*%
X126250000Y-55190000D03*
%TO.P,J5,A4*%
%TO.N,Net-(J1-PadA4)*%
X128250000Y-56190000D03*
%TO.P,J5,B3*%
%TO.N,Net-(J1-PadA3)*%
X123750000Y-55190000D03*
%TO.P,J5,B4*%
%TO.N,Net-(J1-PadA4)*%
X121750000Y-56190000D03*
%TO.P,J5,A5*%
%TO.N,Net-(J1-PadA5)*%
X126250000Y-57190000D03*
%TO.P,J5,A6*%
%TO.N,Net-(J1-PadA6)*%
X128250000Y-58190000D03*
%TO.P,J5,B5*%
%TO.N,Net-(J1-PadA5)*%
X123750000Y-57190000D03*
%TO.P,J5,B6*%
%TO.N,Net-(J1-PadA6)*%
X121750000Y-58190000D03*
%TO.P,J5,A7*%
%TO.N,Net-(J1-PadA7)*%
X126250000Y-59190000D03*
%TO.P,J5,A8*%
%TO.N,Net-(J1-PadA8)*%
X128250000Y-60190000D03*
%TO.P,J5,B7*%
%TO.N,Net-(J1-PadA7)*%
X123750000Y-59190000D03*
%TO.P,J5,B8*%
%TO.N,Net-(J1-PadA8)*%
X121750000Y-60190000D03*
%TO.P,J5,A9*%
%TO.N,Net-(J1-PadA9)*%
X126250000Y-61190000D03*
%TO.P,J5,A10*%
%TO.N,Net-(J1-PadA10)*%
X128250000Y-62190000D03*
%TO.P,J5,B9*%
%TO.N,Net-(J1-PadA9)*%
X123750000Y-61190000D03*
%TO.P,J5,B10*%
%TO.N,Net-(J1-PadA10)*%
X121750000Y-62190000D03*
%TO.P,J5,A11*%
%TO.N,Net-(J1-PadA11)*%
X126250000Y-63190000D03*
%TO.P,J5,B11*%
X123750000Y-63190000D03*
%TO.P,J5,A12*%
%TO.N,Net-(J5-PadA12)*%
X128250000Y-66190000D03*
%TO.P,J5,B12*%
%TO.N,Net-(J4-PadA12)*%
X121750000Y-66190000D03*
%TO.P,J5,A13*%
%TO.N,Net-(J5-PadA13)*%
X126250000Y-67190000D03*
%TO.P,J5,A14*%
%TO.N,Net-(J5-PadA14)*%
X128250000Y-68190000D03*
%TO.P,J5,B13*%
%TO.N,Net-(J4-PadA13)*%
X123750000Y-67190000D03*
%TO.P,J5,B14*%
%TO.N,Net-(J4-PadA14)*%
X121750000Y-68190000D03*
%TO.P,J5,A15*%
%TO.N,Net-(J5-PadA15)*%
X126250000Y-69190000D03*
%TO.P,J5,A16*%
%TO.N,Net-(J5-PadA16)*%
X128250000Y-70190000D03*
%TO.P,J5,B15*%
%TO.N,Net-(J4-PadA15)*%
X123750000Y-69190000D03*
%TO.P,J5,B16*%
%TO.N,Net-(J4-PadA16)*%
X121750000Y-70190000D03*
%TO.P,J5,A17*%
%TO.N,Net-(J5-PadA17)*%
X126250000Y-71190000D03*
%TO.P,J5,A18*%
%TO.N,Net-(J5-PadA18)*%
X128250000Y-72190000D03*
%TO.P,J5,B17*%
%TO.N,Net-(J4-PadA17)*%
X123750000Y-71190000D03*
%TO.P,J5,B18*%
%TO.N,Net-(J4-PadA18)*%
X121750000Y-72190000D03*
%TO.P,J5,A19*%
%TO.N,Net-(J5-PadA19)*%
X126250000Y-73190000D03*
%TO.P,J5,A20*%
%TO.N,Net-(J5-PadA20)*%
X128250000Y-74190000D03*
%TO.P,J5,B19*%
%TO.N,Net-(J4-PadA19)*%
X123750000Y-73190000D03*
%TO.P,J5,B20*%
%TO.N,Net-(J4-PadA20)*%
X121750000Y-74190000D03*
%TO.P,J5,A21*%
%TO.N,Net-(J5-PadA21)*%
X126250000Y-75190000D03*
%TO.P,J5,B21*%
%TO.N,Net-(J4-PadA21)*%
X123750000Y-75190000D03*
%TO.P,J5,A22*%
%TO.N,Net-(J5-PadA22)*%
X128250000Y-76190000D03*
%TO.P,J5,B22*%
%TO.N,Net-(J4-PadA22)*%
X121750000Y-76190000D03*
%TO.P,J5,A23*%
%TO.N,Net-(J5-PadA23)*%
X126250000Y-77190000D03*
%TO.P,J5,A24*%
%TO.N,Net-(J5-PadA24)*%
X128250000Y-78190000D03*
%TO.P,J5,B23*%
%TO.N,Net-(J4-PadA23)*%
X123750000Y-77190000D03*
%TO.P,J5,B24*%
%TO.N,Net-(J4-PadA24)*%
X121750000Y-78190000D03*
%TO.P,J5,A25*%
%TO.N,Net-(J5-PadA25)*%
X126250000Y-79190000D03*
%TO.P,J5,A26*%
%TO.N,Net-(J5-PadA26)*%
X128250000Y-80190000D03*
%TO.P,J5,B25*%
%TO.N,Net-(J4-PadA25)*%
X123750000Y-79190000D03*
%TO.P,J5,B26*%
%TO.N,Net-(J4-PadA26)*%
X121750000Y-80190000D03*
%TO.P,J5,A27*%
%TO.N,Net-(J5-PadA27)*%
X126250000Y-81190000D03*
%TO.P,J5,A28*%
%TO.N,Net-(J5-PadA28)*%
X128250000Y-82190000D03*
%TO.P,J5,B27*%
%TO.N,Net-(J4-PadA27)*%
X123750000Y-81190000D03*
%TO.P,J5,B28*%
%TO.N,Net-(J4-PadA28)*%
X121750000Y-82190000D03*
%TO.P,J5,A29*%
%TO.N,Net-(J5-PadA29)*%
X126250000Y-83190000D03*
%TO.P,J5,A30*%
%TO.N,Net-(J5-PadA30)*%
X128250000Y-84190000D03*
%TO.P,J5,B29*%
%TO.N,Net-(J4-PadA29)*%
X123750000Y-83190000D03*
%TO.P,J5,B30*%
%TO.N,Net-(J4-PadA30)*%
X121750000Y-84190000D03*
%TO.P,J5,A31*%
%TO.N,Net-(J5-PadA31)*%
X126250000Y-85190000D03*
%TO.P,J5,B31*%
%TO.N,Net-(J4-PadA31)*%
X123750000Y-85190000D03*
%TO.P,J5,A32*%
%TO.N,Net-(J5-PadA32)*%
X128250000Y-86190000D03*
%TO.P,J5,B32*%
%TO.N,Net-(J4-PadA32)*%
X121750000Y-86190000D03*
%TO.P,J5,A33*%
%TO.N,Net-(J5-PadA33)*%
X126250000Y-87190000D03*
%TO.P,J5,A34*%
%TO.N,Net-(J5-PadA34)*%
X128250000Y-88190000D03*
%TO.P,J5,B33*%
%TO.N,Net-(J4-PadA33)*%
X123750000Y-87190000D03*
%TO.P,J5,B34*%
%TO.N,Net-(J4-PadA34)*%
X121750000Y-88190000D03*
%TO.P,J5,A35*%
%TO.N,Net-(J5-PadA35)*%
X126250000Y-89190000D03*
%TO.P,J5,B35*%
%TO.N,Net-(J4-PadA35)*%
X123750000Y-89190000D03*
%TO.P,J5,A36*%
%TO.N,Net-(J5-PadA36)*%
X128250000Y-90190000D03*
%TO.P,J5,B36*%
%TO.N,Net-(J4-PadA36)*%
X121750000Y-90190000D03*
%TO.P,J5,A37*%
%TO.N,Net-(J5-PadA37)*%
X126250000Y-91190000D03*
%TO.P,J5,A38*%
%TO.N,Net-(J5-PadA38)*%
X128250000Y-92190000D03*
%TO.P,J5,B37*%
%TO.N,Net-(J4-PadA37)*%
X123750000Y-91190000D03*
%TO.P,J5,B38*%
%TO.N,Net-(J4-PadA38)*%
X121750000Y-92190000D03*
%TO.P,J5,A39*%
%TO.N,Net-(J5-PadA39)*%
X126250000Y-93190000D03*
%TO.P,J5,B39*%
%TO.N,Net-(J4-PadA39)*%
X123750000Y-93190000D03*
%TO.P,J5,A40*%
%TO.N,Net-(J5-PadA40)*%
X128250000Y-94190000D03*
%TO.P,J5,B40*%
%TO.N,Net-(J4-PadA40)*%
X121750000Y-94190000D03*
%TO.P,J5,A41*%
%TO.N,Net-(J5-PadA41)*%
X126250000Y-95190000D03*
%TO.P,J5,A42*%
%TO.N,Net-(J5-PadA42)*%
X128250000Y-96190000D03*
%TO.P,J5,B41*%
%TO.N,Net-(J4-PadA41)*%
X123750000Y-95190000D03*
%TO.P,J5,B42*%
%TO.N,Net-(J4-PadA42)*%
X121750000Y-96190000D03*
%TO.P,J5,A43*%
%TO.N,Net-(J5-PadA43)*%
X126250000Y-97190000D03*
%TO.P,J5,B43*%
%TO.N,Net-(J4-PadA43)*%
X123750000Y-97190000D03*
%TO.P,J5,A44*%
%TO.N,Net-(J5-PadA44)*%
X128250000Y-98190000D03*
%TO.P,J5,B44*%
%TO.N,Net-(J4-PadA44)*%
X121750000Y-98190000D03*
%TO.P,J5,A45*%
%TO.N,Net-(J5-PadA45)*%
X126250000Y-99190000D03*
%TO.P,J5,A46*%
%TO.N,Net-(J5-PadA46)*%
X128250000Y-100190000D03*
%TO.P,J5,B45*%
%TO.N,Net-(J4-PadA45)*%
X123750000Y-99190000D03*
%TO.P,J5,B46*%
%TO.N,Net-(J4-PadA46)*%
X121750000Y-100190000D03*
%TO.P,J5,A47*%
%TO.N,Net-(J5-PadA47)*%
X126250000Y-101190000D03*
%TO.P,J5,B47*%
%TO.N,Net-(J4-PadA47)*%
X123750000Y-101190000D03*
%TO.P,J5,A48*%
%TO.N,Net-(J5-PadA48)*%
X128250000Y-102190000D03*
%TO.P,J5,B48*%
%TO.N,Net-(J4-PadA48)*%
X121750000Y-102190000D03*
%TO.P,J5,B49*%
%TO.N,Net-(J4-PadA49)*%
X123750000Y-103190000D03*
%TO.P,J5,A49*%
%TO.N,Net-(J5-PadA49)*%
X126250000Y-103190000D03*
%TD*%
%TO.P,J6,A49*%
%TO.N,Net-(J6-PadA49)*%
X146250000Y-103190000D03*
%TO.P,J6,B49*%
%TO.N,Net-(J5-PadA49)*%
X143750000Y-103190000D03*
%TO.P,J6,B48*%
%TO.N,Net-(J5-PadA48)*%
X141750000Y-102190000D03*
%TO.P,J6,A48*%
%TO.N,Net-(J6-PadA48)*%
X148250000Y-102190000D03*
%TO.P,J6,B47*%
%TO.N,Net-(J5-PadA47)*%
X143750000Y-101190000D03*
%TO.P,J6,A47*%
%TO.N,Net-(J6-PadA47)*%
X146250000Y-101190000D03*
%TO.P,J6,B46*%
%TO.N,Net-(J5-PadA46)*%
X141750000Y-100190000D03*
%TO.P,J6,B45*%
%TO.N,Net-(J5-PadA45)*%
X143750000Y-99190000D03*
%TO.P,J6,A46*%
%TO.N,Net-(J6-PadA46)*%
X148250000Y-100190000D03*
%TO.P,J6,A45*%
%TO.N,Net-(J6-PadA45)*%
X146250000Y-99190000D03*
%TO.P,J6,B44*%
%TO.N,Net-(J5-PadA44)*%
X141750000Y-98190000D03*
%TO.P,J6,A44*%
%TO.N,Net-(J6-PadA44)*%
X148250000Y-98190000D03*
%TO.P,J6,B43*%
%TO.N,Net-(J5-PadA43)*%
X143750000Y-97190000D03*
%TO.P,J6,A43*%
%TO.N,Net-(J6-PadA43)*%
X146250000Y-97190000D03*
%TO.P,J6,B42*%
%TO.N,Net-(J5-PadA42)*%
X141750000Y-96190000D03*
%TO.P,J6,B41*%
%TO.N,Net-(J5-PadA41)*%
X143750000Y-95190000D03*
%TO.P,J6,A42*%
%TO.N,Net-(J6-PadA42)*%
X148250000Y-96190000D03*
%TO.P,J6,A41*%
%TO.N,Net-(J6-PadA41)*%
X146250000Y-95190000D03*
%TO.P,J6,B40*%
%TO.N,Net-(J5-PadA40)*%
X141750000Y-94190000D03*
%TO.P,J6,A40*%
%TO.N,Net-(J6-PadA40)*%
X148250000Y-94190000D03*
%TO.P,J6,B39*%
%TO.N,Net-(J5-PadA39)*%
X143750000Y-93190000D03*
%TO.P,J6,A39*%
%TO.N,Net-(J6-PadA39)*%
X146250000Y-93190000D03*
%TO.P,J6,B38*%
%TO.N,Net-(J5-PadA38)*%
X141750000Y-92190000D03*
%TO.P,J6,B37*%
%TO.N,Net-(J5-PadA37)*%
X143750000Y-91190000D03*
%TO.P,J6,A38*%
%TO.N,Net-(J6-PadA38)*%
X148250000Y-92190000D03*
%TO.P,J6,A37*%
%TO.N,Net-(J6-PadA37)*%
X146250000Y-91190000D03*
%TO.P,J6,B36*%
%TO.N,Net-(J5-PadA36)*%
X141750000Y-90190000D03*
%TO.P,J6,A36*%
%TO.N,Net-(J6-PadA36)*%
X148250000Y-90190000D03*
%TO.P,J6,B35*%
%TO.N,Net-(J5-PadA35)*%
X143750000Y-89190000D03*
%TO.P,J6,A35*%
%TO.N,Net-(J6-PadA35)*%
X146250000Y-89190000D03*
%TO.P,J6,B34*%
%TO.N,Net-(J5-PadA34)*%
X141750000Y-88190000D03*
%TO.P,J6,B33*%
%TO.N,Net-(J5-PadA33)*%
X143750000Y-87190000D03*
%TO.P,J6,A34*%
%TO.N,Net-(J6-PadA34)*%
X148250000Y-88190000D03*
%TO.P,J6,A33*%
%TO.N,Net-(J6-PadA33)*%
X146250000Y-87190000D03*
%TO.P,J6,B32*%
%TO.N,Net-(J5-PadA32)*%
X141750000Y-86190000D03*
%TO.P,J6,A32*%
%TO.N,Net-(J6-PadA32)*%
X148250000Y-86190000D03*
%TO.P,J6,B31*%
%TO.N,Net-(J5-PadA31)*%
X143750000Y-85190000D03*
%TO.P,J6,A31*%
%TO.N,Net-(J6-PadA31)*%
X146250000Y-85190000D03*
%TO.P,J6,B30*%
%TO.N,Net-(J5-PadA30)*%
X141750000Y-84190000D03*
%TO.P,J6,B29*%
%TO.N,Net-(J5-PadA29)*%
X143750000Y-83190000D03*
%TO.P,J6,A30*%
%TO.N,Net-(J6-PadA30)*%
X148250000Y-84190000D03*
%TO.P,J6,A29*%
%TO.N,Net-(J6-PadA29)*%
X146250000Y-83190000D03*
%TO.P,J6,B28*%
%TO.N,Net-(J5-PadA28)*%
X141750000Y-82190000D03*
%TO.P,J6,B27*%
%TO.N,Net-(J5-PadA27)*%
X143750000Y-81190000D03*
%TO.P,J6,A28*%
%TO.N,Net-(J6-PadA28)*%
X148250000Y-82190000D03*
%TO.P,J6,A27*%
%TO.N,Net-(J6-PadA27)*%
X146250000Y-81190000D03*
%TO.P,J6,B26*%
%TO.N,Net-(J5-PadA26)*%
X141750000Y-80190000D03*
%TO.P,J6,B25*%
%TO.N,Net-(J5-PadA25)*%
X143750000Y-79190000D03*
%TO.P,J6,A26*%
%TO.N,Net-(J6-PadA26)*%
X148250000Y-80190000D03*
%TO.P,J6,A25*%
%TO.N,Net-(J6-PadA25)*%
X146250000Y-79190000D03*
%TO.P,J6,B24*%
%TO.N,Net-(J5-PadA24)*%
X141750000Y-78190000D03*
%TO.P,J6,B23*%
%TO.N,Net-(J5-PadA23)*%
X143750000Y-77190000D03*
%TO.P,J6,A24*%
%TO.N,Net-(J6-PadA24)*%
X148250000Y-78190000D03*
%TO.P,J6,A23*%
%TO.N,Net-(J6-PadA23)*%
X146250000Y-77190000D03*
%TO.P,J6,B22*%
%TO.N,Net-(J5-PadA22)*%
X141750000Y-76190000D03*
%TO.P,J6,A22*%
%TO.N,Net-(J6-PadA22)*%
X148250000Y-76190000D03*
%TO.P,J6,B21*%
%TO.N,Net-(J5-PadA21)*%
X143750000Y-75190000D03*
%TO.P,J6,A21*%
%TO.N,Net-(J6-PadA21)*%
X146250000Y-75190000D03*
%TO.P,J6,B20*%
%TO.N,Net-(J5-PadA20)*%
X141750000Y-74190000D03*
%TO.P,J6,B19*%
%TO.N,Net-(J5-PadA19)*%
X143750000Y-73190000D03*
%TO.P,J6,A20*%
%TO.N,Net-(J6-PadA20)*%
X148250000Y-74190000D03*
%TO.P,J6,A19*%
%TO.N,Net-(J6-PadA19)*%
X146250000Y-73190000D03*
%TO.P,J6,B18*%
%TO.N,Net-(J5-PadA18)*%
X141750000Y-72190000D03*
%TO.P,J6,B17*%
%TO.N,Net-(J5-PadA17)*%
X143750000Y-71190000D03*
%TO.P,J6,A18*%
%TO.N,Net-(J6-PadA18)*%
X148250000Y-72190000D03*
%TO.P,J6,A17*%
%TO.N,Net-(J6-PadA17)*%
X146250000Y-71190000D03*
%TO.P,J6,B16*%
%TO.N,Net-(J5-PadA16)*%
X141750000Y-70190000D03*
%TO.P,J6,B15*%
%TO.N,Net-(J5-PadA15)*%
X143750000Y-69190000D03*
%TO.P,J6,A16*%
%TO.N,Net-(J6-PadA16)*%
X148250000Y-70190000D03*
%TO.P,J6,A15*%
%TO.N,Net-(J6-PadA15)*%
X146250000Y-69190000D03*
%TO.P,J6,B14*%
%TO.N,Net-(J5-PadA14)*%
X141750000Y-68190000D03*
%TO.P,J6,B13*%
%TO.N,Net-(J5-PadA13)*%
X143750000Y-67190000D03*
%TO.P,J6,A14*%
%TO.N,Net-(J6-PadA14)*%
X148250000Y-68190000D03*
%TO.P,J6,A13*%
%TO.N,Net-(J6-PadA13)*%
X146250000Y-67190000D03*
%TO.P,J6,B12*%
%TO.N,Net-(J5-PadA12)*%
X141750000Y-66190000D03*
%TO.P,J6,A12*%
%TO.N,Net-(J6-PadA12)*%
X148250000Y-66190000D03*
%TO.P,J6,B11*%
%TO.N,Net-(J1-PadA11)*%
X143750000Y-63190000D03*
%TO.P,J6,A11*%
X146250000Y-63190000D03*
%TO.P,J6,B10*%
%TO.N,Net-(J1-PadA10)*%
X141750000Y-62190000D03*
%TO.P,J6,B9*%
%TO.N,Net-(J1-PadA9)*%
X143750000Y-61190000D03*
%TO.P,J6,A10*%
%TO.N,Net-(J1-PadA10)*%
X148250000Y-62190000D03*
%TO.P,J6,A9*%
%TO.N,Net-(J1-PadA9)*%
X146250000Y-61190000D03*
%TO.P,J6,B8*%
%TO.N,Net-(J1-PadA8)*%
X141750000Y-60190000D03*
%TO.P,J6,B7*%
%TO.N,Net-(J1-PadA7)*%
X143750000Y-59190000D03*
%TO.P,J6,A8*%
%TO.N,Net-(J1-PadA8)*%
X148250000Y-60190000D03*
%TO.P,J6,A7*%
%TO.N,Net-(J1-PadA7)*%
X146250000Y-59190000D03*
%TO.P,J6,B6*%
%TO.N,Net-(J1-PadA6)*%
X141750000Y-58190000D03*
%TO.P,J6,B5*%
%TO.N,Net-(J1-PadA5)*%
X143750000Y-57190000D03*
%TO.P,J6,A6*%
%TO.N,Net-(J1-PadA6)*%
X148250000Y-58190000D03*
%TO.P,J6,A5*%
%TO.N,Net-(J1-PadA5)*%
X146250000Y-57190000D03*
%TO.P,J6,B4*%
%TO.N,Net-(J1-PadA4)*%
X141750000Y-56190000D03*
%TO.P,J6,B3*%
%TO.N,Net-(J1-PadA3)*%
X143750000Y-55190000D03*
%TO.P,J6,A4*%
%TO.N,Net-(J1-PadA4)*%
X148250000Y-56190000D03*
%TO.P,J6,A3*%
%TO.N,Net-(J1-PadA3)*%
X146250000Y-55190000D03*
%TO.P,J6,B2*%
%TO.N,Net-(J1-PadA2)*%
X141750000Y-54190000D03*
%TO.P,J6,B1*%
%TO.N,Net-(J1-PadA1)*%
X143750000Y-53190000D03*
%TO.P,J6,A2*%
%TO.N,Net-(J1-PadA2)*%
X148250000Y-54190000D03*
D17*
%TO.P,J6,A1*%
%TO.N,Net-(J1-PadA1)*%
X146250000Y-53190000D03*
%TD*%
%TO.P,J7,A1*%
%TO.N,Net-(J1-PadA1)*%
X166250000Y-53190000D03*
D18*
%TO.P,J7,A2*%
%TO.N,Net-(J1-PadA2)*%
X168250000Y-54190000D03*
%TO.P,J7,B1*%
%TO.N,Net-(J1-PadA1)*%
X163750000Y-53190000D03*
%TO.P,J7,B2*%
%TO.N,Net-(J1-PadA2)*%
X161750000Y-54190000D03*
%TO.P,J7,A3*%
%TO.N,Net-(J1-PadA3)*%
X166250000Y-55190000D03*
%TO.P,J7,A4*%
%TO.N,Net-(J1-PadA4)*%
X168250000Y-56190000D03*
%TO.P,J7,B3*%
%TO.N,Net-(J1-PadA3)*%
X163750000Y-55190000D03*
%TO.P,J7,B4*%
%TO.N,Net-(J1-PadA4)*%
X161750000Y-56190000D03*
%TO.P,J7,A5*%
%TO.N,Net-(J1-PadA5)*%
X166250000Y-57190000D03*
%TO.P,J7,A6*%
%TO.N,Net-(J1-PadA6)*%
X168250000Y-58190000D03*
%TO.P,J7,B5*%
%TO.N,Net-(J1-PadA5)*%
X163750000Y-57190000D03*
%TO.P,J7,B6*%
%TO.N,Net-(J1-PadA6)*%
X161750000Y-58190000D03*
%TO.P,J7,A7*%
%TO.N,Net-(J1-PadA7)*%
X166250000Y-59190000D03*
%TO.P,J7,A8*%
%TO.N,Net-(J1-PadA8)*%
X168250000Y-60190000D03*
%TO.P,J7,B7*%
%TO.N,Net-(J1-PadA7)*%
X163750000Y-59190000D03*
%TO.P,J7,B8*%
%TO.N,Net-(J1-PadA8)*%
X161750000Y-60190000D03*
%TO.P,J7,A9*%
%TO.N,Net-(J1-PadA9)*%
X166250000Y-61190000D03*
%TO.P,J7,A10*%
%TO.N,Net-(J1-PadA10)*%
X168250000Y-62190000D03*
%TO.P,J7,B9*%
%TO.N,Net-(J1-PadA9)*%
X163750000Y-61190000D03*
%TO.P,J7,B10*%
%TO.N,Net-(J1-PadA10)*%
X161750000Y-62190000D03*
%TO.P,J7,A11*%
%TO.N,Net-(J1-PadA11)*%
X166250000Y-63190000D03*
%TO.P,J7,B11*%
X163750000Y-63190000D03*
%TO.P,J7,A12*%
%TO.N,Net-(J7-PadA12)*%
X168250000Y-66190000D03*
%TO.P,J7,B12*%
%TO.N,Net-(J6-PadA12)*%
X161750000Y-66190000D03*
%TO.P,J7,A13*%
%TO.N,Net-(J7-PadA13)*%
X166250000Y-67190000D03*
%TO.P,J7,A14*%
%TO.N,Net-(J7-PadA14)*%
X168250000Y-68190000D03*
%TO.P,J7,B13*%
%TO.N,Net-(J6-PadA13)*%
X163750000Y-67190000D03*
%TO.P,J7,B14*%
%TO.N,Net-(J6-PadA14)*%
X161750000Y-68190000D03*
%TO.P,J7,A15*%
%TO.N,Net-(J7-PadA15)*%
X166250000Y-69190000D03*
%TO.P,J7,A16*%
%TO.N,Net-(J7-PadA16)*%
X168250000Y-70190000D03*
%TO.P,J7,B15*%
%TO.N,Net-(J6-PadA15)*%
X163750000Y-69190000D03*
%TO.P,J7,B16*%
%TO.N,Net-(J6-PadA16)*%
X161750000Y-70190000D03*
%TO.P,J7,A17*%
%TO.N,Net-(J7-PadA17)*%
X166250000Y-71190000D03*
%TO.P,J7,A18*%
%TO.N,Net-(J7-PadA18)*%
X168250000Y-72190000D03*
%TO.P,J7,B17*%
%TO.N,Net-(J6-PadA17)*%
X163750000Y-71190000D03*
%TO.P,J7,B18*%
%TO.N,Net-(J6-PadA18)*%
X161750000Y-72190000D03*
%TO.P,J7,A19*%
%TO.N,Net-(J7-PadA19)*%
X166250000Y-73190000D03*
%TO.P,J7,A20*%
%TO.N,Net-(J7-PadA20)*%
X168250000Y-74190000D03*
%TO.P,J7,B19*%
%TO.N,Net-(J6-PadA19)*%
X163750000Y-73190000D03*
%TO.P,J7,B20*%
%TO.N,Net-(J6-PadA20)*%
X161750000Y-74190000D03*
%TO.P,J7,A21*%
%TO.N,Net-(J7-PadA21)*%
X166250000Y-75190000D03*
%TO.P,J7,B21*%
%TO.N,Net-(J6-PadA21)*%
X163750000Y-75190000D03*
%TO.P,J7,A22*%
%TO.N,Net-(J7-PadA22)*%
X168250000Y-76190000D03*
%TO.P,J7,B22*%
%TO.N,Net-(J6-PadA22)*%
X161750000Y-76190000D03*
%TO.P,J7,A23*%
%TO.N,Net-(J7-PadA23)*%
X166250000Y-77190000D03*
%TO.P,J7,A24*%
%TO.N,Net-(J7-PadA24)*%
X168250000Y-78190000D03*
%TO.P,J7,B23*%
%TO.N,Net-(J6-PadA23)*%
X163750000Y-77190000D03*
%TO.P,J7,B24*%
%TO.N,Net-(J6-PadA24)*%
X161750000Y-78190000D03*
%TO.P,J7,A25*%
%TO.N,Net-(J7-PadA25)*%
X166250000Y-79190000D03*
%TO.P,J7,A26*%
%TO.N,Net-(J7-PadA26)*%
X168250000Y-80190000D03*
%TO.P,J7,B25*%
%TO.N,Net-(J6-PadA25)*%
X163750000Y-79190000D03*
%TO.P,J7,B26*%
%TO.N,Net-(J6-PadA26)*%
X161750000Y-80190000D03*
%TO.P,J7,A27*%
%TO.N,Net-(J7-PadA27)*%
X166250000Y-81190000D03*
%TO.P,J7,A28*%
%TO.N,Net-(J7-PadA28)*%
X168250000Y-82190000D03*
%TO.P,J7,B27*%
%TO.N,Net-(J6-PadA27)*%
X163750000Y-81190000D03*
%TO.P,J7,B28*%
%TO.N,Net-(J6-PadA28)*%
X161750000Y-82190000D03*
%TO.P,J7,A29*%
%TO.N,Net-(J7-PadA29)*%
X166250000Y-83190000D03*
%TO.P,J7,A30*%
%TO.N,Net-(J7-PadA30)*%
X168250000Y-84190000D03*
%TO.P,J7,B29*%
%TO.N,Net-(J6-PadA29)*%
X163750000Y-83190000D03*
%TO.P,J7,B30*%
%TO.N,Net-(J6-PadA30)*%
X161750000Y-84190000D03*
%TO.P,J7,A31*%
%TO.N,Net-(J7-PadA31)*%
X166250000Y-85190000D03*
%TO.P,J7,B31*%
%TO.N,Net-(J6-PadA31)*%
X163750000Y-85190000D03*
%TO.P,J7,A32*%
%TO.N,Net-(J7-PadA32)*%
X168250000Y-86190000D03*
%TO.P,J7,B32*%
%TO.N,Net-(J6-PadA32)*%
X161750000Y-86190000D03*
%TO.P,J7,A33*%
%TO.N,Net-(J7-PadA33)*%
X166250000Y-87190000D03*
%TO.P,J7,A34*%
%TO.N,Net-(J7-PadA34)*%
X168250000Y-88190000D03*
%TO.P,J7,B33*%
%TO.N,Net-(J6-PadA33)*%
X163750000Y-87190000D03*
%TO.P,J7,B34*%
%TO.N,Net-(J6-PadA34)*%
X161750000Y-88190000D03*
%TO.P,J7,A35*%
%TO.N,Net-(J7-PadA35)*%
X166250000Y-89190000D03*
%TO.P,J7,B35*%
%TO.N,Net-(J6-PadA35)*%
X163750000Y-89190000D03*
%TO.P,J7,A36*%
%TO.N,Net-(J7-PadA36)*%
X168250000Y-90190000D03*
%TO.P,J7,B36*%
%TO.N,Net-(J6-PadA36)*%
X161750000Y-90190000D03*
%TO.P,J7,A37*%
%TO.N,Net-(J7-PadA37)*%
X166250000Y-91190000D03*
%TO.P,J7,A38*%
%TO.N,Net-(J7-PadA38)*%
X168250000Y-92190000D03*
%TO.P,J7,B37*%
%TO.N,Net-(J6-PadA37)*%
X163750000Y-91190000D03*
%TO.P,J7,B38*%
%TO.N,Net-(J6-PadA38)*%
X161750000Y-92190000D03*
%TO.P,J7,A39*%
%TO.N,Net-(J7-PadA39)*%
X166250000Y-93190000D03*
%TO.P,J7,B39*%
%TO.N,Net-(J6-PadA39)*%
X163750000Y-93190000D03*
%TO.P,J7,A40*%
%TO.N,Net-(J7-PadA40)*%
X168250000Y-94190000D03*
%TO.P,J7,B40*%
%TO.N,Net-(J6-PadA40)*%
X161750000Y-94190000D03*
%TO.P,J7,A41*%
%TO.N,Net-(J7-PadA41)*%
X166250000Y-95190000D03*
%TO.P,J7,A42*%
%TO.N,Net-(J7-PadA42)*%
X168250000Y-96190000D03*
%TO.P,J7,B41*%
%TO.N,Net-(J6-PadA41)*%
X163750000Y-95190000D03*
%TO.P,J7,B42*%
%TO.N,Net-(J6-PadA42)*%
X161750000Y-96190000D03*
%TO.P,J7,A43*%
%TO.N,Net-(J7-PadA43)*%
X166250000Y-97190000D03*
%TO.P,J7,B43*%
%TO.N,Net-(J6-PadA43)*%
X163750000Y-97190000D03*
%TO.P,J7,A44*%
%TO.N,Net-(J7-PadA44)*%
X168250000Y-98190000D03*
%TO.P,J7,B44*%
%TO.N,Net-(J6-PadA44)*%
X161750000Y-98190000D03*
%TO.P,J7,A45*%
%TO.N,Net-(J7-PadA45)*%
X166250000Y-99190000D03*
%TO.P,J7,A46*%
%TO.N,Net-(J7-PadA46)*%
X168250000Y-100190000D03*
%TO.P,J7,B45*%
%TO.N,Net-(J6-PadA45)*%
X163750000Y-99190000D03*
%TO.P,J7,B46*%
%TO.N,Net-(J6-PadA46)*%
X161750000Y-100190000D03*
%TO.P,J7,A47*%
%TO.N,Net-(J7-PadA47)*%
X166250000Y-101190000D03*
%TO.P,J7,B47*%
%TO.N,Net-(J6-PadA47)*%
X163750000Y-101190000D03*
%TO.P,J7,A48*%
%TO.N,Net-(J7-PadA48)*%
X168250000Y-102190000D03*
%TO.P,J7,B48*%
%TO.N,Net-(J6-PadA48)*%
X161750000Y-102190000D03*
%TO.P,J7,B49*%
%TO.N,Net-(J6-PadA49)*%
X163750000Y-103190000D03*
%TO.P,J7,A49*%
%TO.N,Net-(J7-PadA49)*%
X166250000Y-103190000D03*
%TD*%
%TO.P,J8,A49*%
%TO.N,Net-(J8-PadA49)*%
X186250000Y-103190000D03*
%TO.P,J8,B49*%
%TO.N,Net-(J7-PadA49)*%
X183750000Y-103190000D03*
%TO.P,J8,B48*%
%TO.N,Net-(J7-PadA48)*%
X181750000Y-102190000D03*
%TO.P,J8,A48*%
%TO.N,Net-(J8-PadA48)*%
X188250000Y-102190000D03*
%TO.P,J8,B47*%
%TO.N,Net-(J7-PadA47)*%
X183750000Y-101190000D03*
%TO.P,J8,A47*%
%TO.N,Net-(J8-PadA47)*%
X186250000Y-101190000D03*
%TO.P,J8,B46*%
%TO.N,Net-(J7-PadA46)*%
X181750000Y-100190000D03*
%TO.P,J8,B45*%
%TO.N,Net-(J7-PadA45)*%
X183750000Y-99190000D03*
%TO.P,J8,A46*%
%TO.N,Net-(J8-PadA46)*%
X188250000Y-100190000D03*
%TO.P,J8,A45*%
%TO.N,Net-(J8-PadA45)*%
X186250000Y-99190000D03*
%TO.P,J8,B44*%
%TO.N,Net-(J7-PadA44)*%
X181750000Y-98190000D03*
%TO.P,J8,A44*%
%TO.N,Net-(J8-PadA44)*%
X188250000Y-98190000D03*
%TO.P,J8,B43*%
%TO.N,Net-(J7-PadA43)*%
X183750000Y-97190000D03*
%TO.P,J8,A43*%
%TO.N,Net-(J8-PadA43)*%
X186250000Y-97190000D03*
%TO.P,J8,B42*%
%TO.N,Net-(J7-PadA42)*%
X181750000Y-96190000D03*
%TO.P,J8,B41*%
%TO.N,Net-(J7-PadA41)*%
X183750000Y-95190000D03*
%TO.P,J8,A42*%
%TO.N,Net-(J8-PadA42)*%
X188250000Y-96190000D03*
%TO.P,J8,A41*%
%TO.N,Net-(J8-PadA41)*%
X186250000Y-95190000D03*
%TO.P,J8,B40*%
%TO.N,Net-(J7-PadA40)*%
X181750000Y-94190000D03*
%TO.P,J8,A40*%
%TO.N,Net-(J8-PadA40)*%
X188250000Y-94190000D03*
%TO.P,J8,B39*%
%TO.N,Net-(J7-PadA39)*%
X183750000Y-93190000D03*
%TO.P,J8,A39*%
%TO.N,Net-(J8-PadA39)*%
X186250000Y-93190000D03*
%TO.P,J8,B38*%
%TO.N,Net-(J7-PadA38)*%
X181750000Y-92190000D03*
%TO.P,J8,B37*%
%TO.N,Net-(J7-PadA37)*%
X183750000Y-91190000D03*
%TO.P,J8,A38*%
%TO.N,Net-(J8-PadA38)*%
X188250000Y-92190000D03*
%TO.P,J8,A37*%
%TO.N,Net-(J8-PadA37)*%
X186250000Y-91190000D03*
%TO.P,J8,B36*%
%TO.N,Net-(J7-PadA36)*%
X181750000Y-90190000D03*
%TO.P,J8,A36*%
%TO.N,Net-(J8-PadA36)*%
X188250000Y-90190000D03*
%TO.P,J8,B35*%
%TO.N,Net-(J7-PadA35)*%
X183750000Y-89190000D03*
%TO.P,J8,A35*%
%TO.N,Net-(J8-PadA35)*%
X186250000Y-89190000D03*
%TO.P,J8,B34*%
%TO.N,Net-(J7-PadA34)*%
X181750000Y-88190000D03*
%TO.P,J8,B33*%
%TO.N,Net-(J7-PadA33)*%
X183750000Y-87190000D03*
%TO.P,J8,A34*%
%TO.N,Net-(J8-PadA34)*%
X188250000Y-88190000D03*
%TO.P,J8,A33*%
%TO.N,Net-(J8-PadA33)*%
X186250000Y-87190000D03*
%TO.P,J8,B32*%
%TO.N,Net-(J7-PadA32)*%
X181750000Y-86190000D03*
%TO.P,J8,A32*%
%TO.N,Net-(J8-PadA32)*%
X188250000Y-86190000D03*
%TO.P,J8,B31*%
%TO.N,Net-(J7-PadA31)*%
X183750000Y-85190000D03*
%TO.P,J8,A31*%
%TO.N,Net-(J8-PadA31)*%
X186250000Y-85190000D03*
%TO.P,J8,B30*%
%TO.N,Net-(J7-PadA30)*%
X181750000Y-84190000D03*
%TO.P,J8,B29*%
%TO.N,Net-(J7-PadA29)*%
X183750000Y-83190000D03*
%TO.P,J8,A30*%
%TO.N,Net-(J8-PadA30)*%
X188250000Y-84190000D03*
%TO.P,J8,A29*%
%TO.N,Net-(J8-PadA29)*%
X186250000Y-83190000D03*
%TO.P,J8,B28*%
%TO.N,Net-(J7-PadA28)*%
X181750000Y-82190000D03*
%TO.P,J8,B27*%
%TO.N,Net-(J7-PadA27)*%
X183750000Y-81190000D03*
%TO.P,J8,A28*%
%TO.N,Net-(J8-PadA28)*%
X188250000Y-82190000D03*
%TO.P,J8,A27*%
%TO.N,Net-(J8-PadA27)*%
X186250000Y-81190000D03*
%TO.P,J8,B26*%
%TO.N,Net-(J7-PadA26)*%
X181750000Y-80190000D03*
%TO.P,J8,B25*%
%TO.N,Net-(J7-PadA25)*%
X183750000Y-79190000D03*
%TO.P,J8,A26*%
%TO.N,Net-(J8-PadA26)*%
X188250000Y-80190000D03*
%TO.P,J8,A25*%
%TO.N,Net-(J8-PadA25)*%
X186250000Y-79190000D03*
%TO.P,J8,B24*%
%TO.N,Net-(J7-PadA24)*%
X181750000Y-78190000D03*
%TO.P,J8,B23*%
%TO.N,Net-(J7-PadA23)*%
X183750000Y-77190000D03*
%TO.P,J8,A24*%
%TO.N,Net-(J8-PadA24)*%
X188250000Y-78190000D03*
%TO.P,J8,A23*%
%TO.N,Net-(J8-PadA23)*%
X186250000Y-77190000D03*
%TO.P,J8,B22*%
%TO.N,Net-(J7-PadA22)*%
X181750000Y-76190000D03*
%TO.P,J8,A22*%
%TO.N,Net-(J8-PadA22)*%
X188250000Y-76190000D03*
%TO.P,J8,B21*%
%TO.N,Net-(J7-PadA21)*%
X183750000Y-75190000D03*
%TO.P,J8,A21*%
%TO.N,Net-(J8-PadA21)*%
X186250000Y-75190000D03*
%TO.P,J8,B20*%
%TO.N,Net-(J7-PadA20)*%
X181750000Y-74190000D03*
%TO.P,J8,B19*%
%TO.N,Net-(J7-PadA19)*%
X183750000Y-73190000D03*
%TO.P,J8,A20*%
%TO.N,Net-(J8-PadA20)*%
X188250000Y-74190000D03*
%TO.P,J8,A19*%
%TO.N,Net-(J8-PadA19)*%
X186250000Y-73190000D03*
%TO.P,J8,B18*%
%TO.N,Net-(J7-PadA18)*%
X181750000Y-72190000D03*
%TO.P,J8,B17*%
%TO.N,Net-(J7-PadA17)*%
X183750000Y-71190000D03*
%TO.P,J8,A18*%
%TO.N,Net-(J8-PadA18)*%
X188250000Y-72190000D03*
%TO.P,J8,A17*%
%TO.N,Net-(J8-PadA17)*%
X186250000Y-71190000D03*
%TO.P,J8,B16*%
%TO.N,Net-(J7-PadA16)*%
X181750000Y-70190000D03*
%TO.P,J8,B15*%
%TO.N,Net-(J7-PadA15)*%
X183750000Y-69190000D03*
%TO.P,J8,A16*%
%TO.N,Net-(J8-PadA16)*%
X188250000Y-70190000D03*
%TO.P,J8,A15*%
%TO.N,Net-(J8-PadA15)*%
X186250000Y-69190000D03*
%TO.P,J8,B14*%
%TO.N,Net-(J7-PadA14)*%
X181750000Y-68190000D03*
%TO.P,J8,B13*%
%TO.N,Net-(J7-PadA13)*%
X183750000Y-67190000D03*
%TO.P,J8,A14*%
%TO.N,Net-(J8-PadA14)*%
X188250000Y-68190000D03*
%TO.P,J8,A13*%
%TO.N,Net-(J8-PadA13)*%
X186250000Y-67190000D03*
%TO.P,J8,B12*%
%TO.N,Net-(J7-PadA12)*%
X181750000Y-66190000D03*
%TO.P,J8,A12*%
%TO.N,Net-(J8-PadA12)*%
X188250000Y-66190000D03*
%TO.P,J8,B11*%
%TO.N,Net-(J1-PadA11)*%
X183750000Y-63190000D03*
%TO.P,J8,A11*%
X186250000Y-63190000D03*
%TO.P,J8,B10*%
%TO.N,Net-(J1-PadA10)*%
X181750000Y-62190000D03*
%TO.P,J8,B9*%
%TO.N,Net-(J1-PadA9)*%
X183750000Y-61190000D03*
%TO.P,J8,A10*%
%TO.N,Net-(J1-PadA10)*%
X188250000Y-62190000D03*
%TO.P,J8,A9*%
%TO.N,Net-(J1-PadA9)*%
X186250000Y-61190000D03*
%TO.P,J8,B8*%
%TO.N,Net-(J1-PadA8)*%
X181750000Y-60190000D03*
%TO.P,J8,B7*%
%TO.N,Net-(J1-PadA7)*%
X183750000Y-59190000D03*
%TO.P,J8,A8*%
%TO.N,Net-(J1-PadA8)*%
X188250000Y-60190000D03*
%TO.P,J8,A7*%
%TO.N,Net-(J1-PadA7)*%
X186250000Y-59190000D03*
%TO.P,J8,B6*%
%TO.N,Net-(J1-PadA6)*%
X181750000Y-58190000D03*
%TO.P,J8,B5*%
%TO.N,Net-(J1-PadA5)*%
X183750000Y-57190000D03*
%TO.P,J8,A6*%
%TO.N,Net-(J1-PadA6)*%
X188250000Y-58190000D03*
%TO.P,J8,A5*%
%TO.N,Net-(J1-PadA5)*%
X186250000Y-57190000D03*
%TO.P,J8,B4*%
%TO.N,Net-(J1-PadA4)*%
X181750000Y-56190000D03*
%TO.P,J8,B3*%
%TO.N,Net-(J1-PadA3)*%
X183750000Y-55190000D03*
%TO.P,J8,A4*%
%TO.N,Net-(J1-PadA4)*%
X188250000Y-56190000D03*
%TO.P,J8,A3*%
%TO.N,Net-(J1-PadA3)*%
X186250000Y-55190000D03*
%TO.P,J8,B2*%
%TO.N,Net-(J1-PadA2)*%
X181750000Y-54190000D03*
%TO.P,J8,B1*%
%TO.N,Net-(J1-PadA1)*%
X183750000Y-53190000D03*
%TO.P,J8,A2*%
%TO.N,Net-(J1-PadA2)*%
X188250000Y-54190000D03*
D17*
%TO.P,J8,A1*%
%TO.N,Net-(J1-PadA1)*%
X186250000Y-53190000D03*
%TD*%
%TO.P,J9,A1*%
%TO.N,Net-(J1-PadA1)*%
X206250000Y-53190000D03*
D18*
%TO.P,J9,A2*%
%TO.N,Net-(J1-PadA2)*%
X208250000Y-54190000D03*
%TO.P,J9,B1*%
%TO.N,Net-(J1-PadA1)*%
X203750000Y-53190000D03*
%TO.P,J9,B2*%
%TO.N,Net-(J1-PadA2)*%
X201750000Y-54190000D03*
%TO.P,J9,A3*%
%TO.N,Net-(J1-PadA3)*%
X206250000Y-55190000D03*
%TO.P,J9,A4*%
%TO.N,Net-(J1-PadA4)*%
X208250000Y-56190000D03*
%TO.P,J9,B3*%
%TO.N,Net-(J1-PadA3)*%
X203750000Y-55190000D03*
%TO.P,J9,B4*%
%TO.N,Net-(J1-PadA4)*%
X201750000Y-56190000D03*
%TO.P,J9,A5*%
%TO.N,Net-(J1-PadA5)*%
X206250000Y-57190000D03*
%TO.P,J9,A6*%
%TO.N,Net-(J1-PadA6)*%
X208250000Y-58190000D03*
%TO.P,J9,B5*%
%TO.N,Net-(J1-PadA5)*%
X203750000Y-57190000D03*
%TO.P,J9,B6*%
%TO.N,Net-(J1-PadA6)*%
X201750000Y-58190000D03*
%TO.P,J9,A7*%
%TO.N,Net-(J1-PadA7)*%
X206250000Y-59190000D03*
%TO.P,J9,A8*%
%TO.N,Net-(J1-PadA8)*%
X208250000Y-60190000D03*
%TO.P,J9,B7*%
%TO.N,Net-(J1-PadA7)*%
X203750000Y-59190000D03*
%TO.P,J9,B8*%
%TO.N,Net-(J1-PadA8)*%
X201750000Y-60190000D03*
%TO.P,J9,A9*%
%TO.N,Net-(J1-PadA9)*%
X206250000Y-61190000D03*
%TO.P,J9,A10*%
%TO.N,Net-(J1-PadA10)*%
X208250000Y-62190000D03*
%TO.P,J9,B9*%
%TO.N,Net-(J1-PadA9)*%
X203750000Y-61190000D03*
%TO.P,J9,B10*%
%TO.N,Net-(J1-PadA10)*%
X201750000Y-62190000D03*
%TO.P,J9,A11*%
%TO.N,Net-(J1-PadA11)*%
X206250000Y-63190000D03*
%TO.P,J9,B11*%
X203750000Y-63190000D03*
%TO.P,J9,A12*%
%TO.N,Net-(J10-PadB12)*%
X208250000Y-66190000D03*
%TO.P,J9,B12*%
%TO.N,Net-(J8-PadA12)*%
X201750000Y-66190000D03*
%TO.P,J9,A13*%
%TO.N,Net-(J10-PadB13)*%
X206250000Y-67190000D03*
%TO.P,J9,A14*%
%TO.N,Net-(J10-PadB14)*%
X208250000Y-68190000D03*
%TO.P,J9,B13*%
%TO.N,Net-(J8-PadA13)*%
X203750000Y-67190000D03*
%TO.P,J9,B14*%
%TO.N,Net-(J8-PadA14)*%
X201750000Y-68190000D03*
%TO.P,J9,A15*%
%TO.N,Net-(J10-PadB15)*%
X206250000Y-69190000D03*
%TO.P,J9,A16*%
%TO.N,Net-(J10-PadB16)*%
X208250000Y-70190000D03*
%TO.P,J9,B15*%
%TO.N,Net-(J8-PadA15)*%
X203750000Y-69190000D03*
%TO.P,J9,B16*%
%TO.N,Net-(J8-PadA16)*%
X201750000Y-70190000D03*
%TO.P,J9,A17*%
%TO.N,Net-(J10-PadB17)*%
X206250000Y-71190000D03*
%TO.P,J9,A18*%
%TO.N,Net-(J10-PadB18)*%
X208250000Y-72190000D03*
%TO.P,J9,B17*%
%TO.N,Net-(J8-PadA17)*%
X203750000Y-71190000D03*
%TO.P,J9,B18*%
%TO.N,Net-(J8-PadA18)*%
X201750000Y-72190000D03*
%TO.P,J9,A19*%
%TO.N,Net-(J10-PadB19)*%
X206250000Y-73190000D03*
%TO.P,J9,A20*%
%TO.N,Net-(J10-PadB20)*%
X208250000Y-74190000D03*
%TO.P,J9,B19*%
%TO.N,Net-(J8-PadA19)*%
X203750000Y-73190000D03*
%TO.P,J9,B20*%
%TO.N,Net-(J8-PadA20)*%
X201750000Y-74190000D03*
%TO.P,J9,A21*%
%TO.N,Net-(J10-PadB21)*%
X206250000Y-75190000D03*
%TO.P,J9,B21*%
%TO.N,Net-(J8-PadA21)*%
X203750000Y-75190000D03*
%TO.P,J9,A22*%
%TO.N,Net-(J10-PadB22)*%
X208250000Y-76190000D03*
%TO.P,J9,B22*%
%TO.N,Net-(J8-PadA22)*%
X201750000Y-76190000D03*
%TO.P,J9,A23*%
%TO.N,Net-(J10-PadB23)*%
X206250000Y-77190000D03*
%TO.P,J9,A24*%
%TO.N,Net-(J10-PadB24)*%
X208250000Y-78190000D03*
%TO.P,J9,B23*%
%TO.N,Net-(J8-PadA23)*%
X203750000Y-77190000D03*
%TO.P,J9,B24*%
%TO.N,Net-(J8-PadA24)*%
X201750000Y-78190000D03*
%TO.P,J9,A25*%
%TO.N,Net-(J10-PadB25)*%
X206250000Y-79190000D03*
%TO.P,J9,A26*%
%TO.N,Net-(J10-PadB26)*%
X208250000Y-80190000D03*
%TO.P,J9,B25*%
%TO.N,Net-(J8-PadA25)*%
X203750000Y-79190000D03*
%TO.P,J9,B26*%
%TO.N,Net-(J8-PadA26)*%
X201750000Y-80190000D03*
%TO.P,J9,A27*%
%TO.N,Net-(J10-PadB27)*%
X206250000Y-81190000D03*
%TO.P,J9,A28*%
%TO.N,Net-(J10-PadB28)*%
X208250000Y-82190000D03*
%TO.P,J9,B27*%
%TO.N,Net-(J8-PadA27)*%
X203750000Y-81190000D03*
%TO.P,J9,B28*%
%TO.N,Net-(J8-PadA28)*%
X201750000Y-82190000D03*
%TO.P,J9,A29*%
%TO.N,Net-(J10-PadB29)*%
X206250000Y-83190000D03*
%TO.P,J9,A30*%
%TO.N,Net-(J10-PadB30)*%
X208250000Y-84190000D03*
%TO.P,J9,B29*%
%TO.N,Net-(J8-PadA29)*%
X203750000Y-83190000D03*
%TO.P,J9,B30*%
%TO.N,Net-(J8-PadA30)*%
X201750000Y-84190000D03*
%TO.P,J9,A31*%
%TO.N,Net-(J10-PadB31)*%
X206250000Y-85190000D03*
%TO.P,J9,B31*%
%TO.N,Net-(J8-PadA31)*%
X203750000Y-85190000D03*
%TO.P,J9,A32*%
%TO.N,Net-(J10-PadB32)*%
X208250000Y-86190000D03*
%TO.P,J9,B32*%
%TO.N,Net-(J8-PadA32)*%
X201750000Y-86190000D03*
%TO.P,J9,A33*%
%TO.N,Net-(J10-PadB33)*%
X206250000Y-87190000D03*
%TO.P,J9,A34*%
%TO.N,Net-(J10-PadB34)*%
X208250000Y-88190000D03*
%TO.P,J9,B33*%
%TO.N,Net-(J8-PadA33)*%
X203750000Y-87190000D03*
%TO.P,J9,B34*%
%TO.N,Net-(J8-PadA34)*%
X201750000Y-88190000D03*
%TO.P,J9,A35*%
%TO.N,Net-(J10-PadB35)*%
X206250000Y-89190000D03*
%TO.P,J9,B35*%
%TO.N,Net-(J8-PadA35)*%
X203750000Y-89190000D03*
%TO.P,J9,A36*%
%TO.N,Net-(J10-PadB36)*%
X208250000Y-90190000D03*
%TO.P,J9,B36*%
%TO.N,Net-(J8-PadA36)*%
X201750000Y-90190000D03*
%TO.P,J9,A37*%
%TO.N,Net-(J10-PadB37)*%
X206250000Y-91190000D03*
%TO.P,J9,A38*%
%TO.N,Net-(J10-PadB38)*%
X208250000Y-92190000D03*
%TO.P,J9,B37*%
%TO.N,Net-(J8-PadA37)*%
X203750000Y-91190000D03*
%TO.P,J9,B38*%
%TO.N,Net-(J8-PadA38)*%
X201750000Y-92190000D03*
%TO.P,J9,A39*%
%TO.N,Net-(J10-PadB39)*%
X206250000Y-93190000D03*
%TO.P,J9,B39*%
%TO.N,Net-(J8-PadA39)*%
X203750000Y-93190000D03*
%TO.P,J9,A40*%
%TO.N,Net-(J10-PadB40)*%
X208250000Y-94190000D03*
%TO.P,J9,B40*%
%TO.N,Net-(J8-PadA40)*%
X201750000Y-94190000D03*
%TO.P,J9,A41*%
%TO.N,Net-(J10-PadB41)*%
X206250000Y-95190000D03*
%TO.P,J9,A42*%
%TO.N,Net-(J10-PadB42)*%
X208250000Y-96190000D03*
%TO.P,J9,B41*%
%TO.N,Net-(J8-PadA41)*%
X203750000Y-95190000D03*
%TO.P,J9,B42*%
%TO.N,Net-(J8-PadA42)*%
X201750000Y-96190000D03*
%TO.P,J9,A43*%
%TO.N,Net-(J10-PadB43)*%
X206250000Y-97190000D03*
%TO.P,J9,B43*%
%TO.N,Net-(J8-PadA43)*%
X203750000Y-97190000D03*
%TO.P,J9,A44*%
%TO.N,Net-(J10-PadB44)*%
X208250000Y-98190000D03*
%TO.P,J9,B44*%
%TO.N,Net-(J8-PadA44)*%
X201750000Y-98190000D03*
%TO.P,J9,A45*%
%TO.N,Net-(J10-PadB45)*%
X206250000Y-99190000D03*
%TO.P,J9,A46*%
%TO.N,Net-(J10-PadB46)*%
X208250000Y-100190000D03*
%TO.P,J9,B45*%
%TO.N,Net-(J8-PadA45)*%
X203750000Y-99190000D03*
%TO.P,J9,B46*%
%TO.N,Net-(J8-PadA46)*%
X201750000Y-100190000D03*
%TO.P,J9,A47*%
%TO.N,Net-(J10-PadB47)*%
X206250000Y-101190000D03*
%TO.P,J9,B47*%
%TO.N,Net-(J8-PadA47)*%
X203750000Y-101190000D03*
%TO.P,J9,A48*%
%TO.N,Net-(J10-PadB48)*%
X208250000Y-102190000D03*
%TO.P,J9,B48*%
%TO.N,Net-(J8-PadA48)*%
X201750000Y-102190000D03*
%TO.P,J9,B49*%
%TO.N,Net-(J8-PadA49)*%
X203750000Y-103190000D03*
%TO.P,J9,A49*%
%TO.N,Net-(J10-PadB49)*%
X206250000Y-103190000D03*
%TD*%
%TO.P,J10,A49*%
%TO.N,N/C*%
X226250000Y-103190000D03*
%TO.P,J10,B49*%
%TO.N,Net-(J10-PadB49)*%
X223750000Y-103190000D03*
%TO.P,J10,B48*%
%TO.N,Net-(J10-PadB48)*%
X221750000Y-102190000D03*
%TO.P,J10,A48*%
%TO.N,N/C*%
X228250000Y-102190000D03*
%TO.P,J10,B47*%
%TO.N,Net-(J10-PadB47)*%
X223750000Y-101190000D03*
%TO.P,J10,A47*%
%TO.N,N/C*%
X226250000Y-101190000D03*
%TO.P,J10,B46*%
%TO.N,Net-(J10-PadB46)*%
X221750000Y-100190000D03*
%TO.P,J10,B45*%
%TO.N,Net-(J10-PadB45)*%
X223750000Y-99190000D03*
%TO.P,J10,A46*%
%TO.N,N/C*%
X228250000Y-100190000D03*
%TO.P,J10,A45*%
X226250000Y-99190000D03*
%TO.P,J10,B44*%
%TO.N,Net-(J10-PadB44)*%
X221750000Y-98190000D03*
%TO.P,J10,A44*%
%TO.N,N/C*%
X228250000Y-98190000D03*
%TO.P,J10,B43*%
%TO.N,Net-(J10-PadB43)*%
X223750000Y-97190000D03*
%TO.P,J10,A43*%
%TO.N,N/C*%
X226250000Y-97190000D03*
%TO.P,J10,B42*%
%TO.N,Net-(J10-PadB42)*%
X221750000Y-96190000D03*
%TO.P,J10,B41*%
%TO.N,Net-(J10-PadB41)*%
X223750000Y-95190000D03*
%TO.P,J10,A42*%
%TO.N,N/C*%
X228250000Y-96190000D03*
%TO.P,J10,A41*%
X226250000Y-95190000D03*
%TO.P,J10,B40*%
%TO.N,Net-(J10-PadB40)*%
X221750000Y-94190000D03*
%TO.P,J10,A40*%
%TO.N,N/C*%
X228250000Y-94190000D03*
%TO.P,J10,B39*%
%TO.N,Net-(J10-PadB39)*%
X223750000Y-93190000D03*
%TO.P,J10,A39*%
%TO.N,N/C*%
X226250000Y-93190000D03*
%TO.P,J10,B38*%
%TO.N,Net-(J10-PadB38)*%
X221750000Y-92190000D03*
%TO.P,J10,B37*%
%TO.N,Net-(J10-PadB37)*%
X223750000Y-91190000D03*
%TO.P,J10,A38*%
%TO.N,N/C*%
X228250000Y-92190000D03*
%TO.P,J10,A37*%
X226250000Y-91190000D03*
%TO.P,J10,B36*%
%TO.N,Net-(J10-PadB36)*%
X221750000Y-90190000D03*
%TO.P,J10,A36*%
%TO.N,N/C*%
X228250000Y-90190000D03*
%TO.P,J10,B35*%
%TO.N,Net-(J10-PadB35)*%
X223750000Y-89190000D03*
%TO.P,J10,A35*%
%TO.N,N/C*%
X226250000Y-89190000D03*
%TO.P,J10,B34*%
%TO.N,Net-(J10-PadB34)*%
X221750000Y-88190000D03*
%TO.P,J10,B33*%
%TO.N,Net-(J10-PadB33)*%
X223750000Y-87190000D03*
%TO.P,J10,A34*%
%TO.N,N/C*%
X228250000Y-88190000D03*
%TO.P,J10,A33*%
X226250000Y-87190000D03*
%TO.P,J10,B32*%
%TO.N,Net-(J10-PadB32)*%
X221750000Y-86190000D03*
%TO.P,J10,A32*%
%TO.N,N/C*%
X228250000Y-86190000D03*
%TO.P,J10,B31*%
%TO.N,Net-(J10-PadB31)*%
X223750000Y-85190000D03*
%TO.P,J10,A31*%
%TO.N,N/C*%
X226250000Y-85190000D03*
%TO.P,J10,B30*%
%TO.N,Net-(J10-PadB30)*%
X221750000Y-84190000D03*
%TO.P,J10,B29*%
%TO.N,Net-(J10-PadB29)*%
X223750000Y-83190000D03*
%TO.P,J10,A30*%
%TO.N,N/C*%
X228250000Y-84190000D03*
%TO.P,J10,A29*%
X226250000Y-83190000D03*
%TO.P,J10,B28*%
%TO.N,Net-(J10-PadB28)*%
X221750000Y-82190000D03*
%TO.P,J10,B27*%
%TO.N,Net-(J10-PadB27)*%
X223750000Y-81190000D03*
%TO.P,J10,A28*%
%TO.N,N/C*%
X228250000Y-82190000D03*
%TO.P,J10,A27*%
X226250000Y-81190000D03*
%TO.P,J10,B26*%
%TO.N,Net-(J10-PadB26)*%
X221750000Y-80190000D03*
%TO.P,J10,B25*%
%TO.N,Net-(J10-PadB25)*%
X223750000Y-79190000D03*
%TO.P,J10,A26*%
%TO.N,N/C*%
X228250000Y-80190000D03*
%TO.P,J10,A25*%
X226250000Y-79190000D03*
%TO.P,J10,B24*%
%TO.N,Net-(J10-PadB24)*%
X221750000Y-78190000D03*
%TO.P,J10,B23*%
%TO.N,Net-(J10-PadB23)*%
X223750000Y-77190000D03*
%TO.P,J10,A24*%
%TO.N,N/C*%
X228250000Y-78190000D03*
%TO.P,J10,A23*%
X226250000Y-77190000D03*
%TO.P,J10,B22*%
%TO.N,Net-(J10-PadB22)*%
X221750000Y-76190000D03*
%TO.P,J10,A22*%
%TO.N,N/C*%
X228250000Y-76190000D03*
%TO.P,J10,B21*%
%TO.N,Net-(J10-PadB21)*%
X223750000Y-75190000D03*
%TO.P,J10,A21*%
%TO.N,N/C*%
X226250000Y-75190000D03*
%TO.P,J10,B20*%
%TO.N,Net-(J10-PadB20)*%
X221750000Y-74190000D03*
%TO.P,J10,B19*%
%TO.N,Net-(J10-PadB19)*%
X223750000Y-73190000D03*
%TO.P,J10,A20*%
%TO.N,N/C*%
X228250000Y-74190000D03*
%TO.P,J10,A19*%
X226250000Y-73190000D03*
%TO.P,J10,B18*%
%TO.N,Net-(J10-PadB18)*%
X221750000Y-72190000D03*
%TO.P,J10,B17*%
%TO.N,Net-(J10-PadB17)*%
X223750000Y-71190000D03*
%TO.P,J10,A18*%
%TO.N,N/C*%
X228250000Y-72190000D03*
%TO.P,J10,A17*%
X226250000Y-71190000D03*
%TO.P,J10,B16*%
%TO.N,Net-(J10-PadB16)*%
X221750000Y-70190000D03*
%TO.P,J10,B15*%
%TO.N,Net-(J10-PadB15)*%
X223750000Y-69190000D03*
%TO.P,J10,A16*%
%TO.N,N/C*%
X228250000Y-70190000D03*
%TO.P,J10,A15*%
X226250000Y-69190000D03*
%TO.P,J10,B14*%
%TO.N,Net-(J10-PadB14)*%
X221750000Y-68190000D03*
%TO.P,J10,B13*%
%TO.N,Net-(J10-PadB13)*%
X223750000Y-67190000D03*
%TO.P,J10,A14*%
%TO.N,N/C*%
X228250000Y-68190000D03*
%TO.P,J10,A13*%
X226250000Y-67190000D03*
%TO.P,J10,B12*%
%TO.N,Net-(J10-PadB12)*%
X221750000Y-66190000D03*
%TO.P,J10,A12*%
%TO.N,N/C*%
X228250000Y-66190000D03*
%TO.P,J10,B11*%
%TO.N,Net-(J1-PadA11)*%
X223750000Y-63190000D03*
%TO.P,J10,A11*%
X226250000Y-63190000D03*
%TO.P,J10,B10*%
%TO.N,Net-(J1-PadA10)*%
X221750000Y-62190000D03*
%TO.P,J10,B9*%
%TO.N,Net-(J1-PadA9)*%
X223750000Y-61190000D03*
%TO.P,J10,A10*%
%TO.N,Net-(J1-PadA10)*%
X228250000Y-62190000D03*
%TO.P,J10,A9*%
%TO.N,Net-(J1-PadA9)*%
X226250000Y-61190000D03*
%TO.P,J10,B8*%
%TO.N,Net-(J1-PadA8)*%
X221750000Y-60190000D03*
%TO.P,J10,B7*%
%TO.N,Net-(J1-PadA7)*%
X223750000Y-59190000D03*
%TO.P,J10,A8*%
%TO.N,Net-(J1-PadA8)*%
X228250000Y-60190000D03*
%TO.P,J10,A7*%
%TO.N,Net-(J1-PadA7)*%
X226250000Y-59190000D03*
%TO.P,J10,B6*%
%TO.N,Net-(J1-PadA6)*%
X221750000Y-58190000D03*
%TO.P,J10,B5*%
%TO.N,Net-(J1-PadA5)*%
X223750000Y-57190000D03*
%TO.P,J10,A6*%
%TO.N,Net-(J1-PadA6)*%
X228250000Y-58190000D03*
%TO.P,J10,A5*%
%TO.N,Net-(J1-PadA5)*%
X226250000Y-57190000D03*
%TO.P,J10,B4*%
%TO.N,Net-(J1-PadA4)*%
X221750000Y-56190000D03*
%TO.P,J10,B3*%
%TO.N,Net-(J1-PadA3)*%
X223750000Y-55190000D03*
%TO.P,J10,A4*%
%TO.N,Net-(J1-PadA4)*%
X228250000Y-56190000D03*
%TO.P,J10,A3*%
%TO.N,Net-(J1-PadA3)*%
X226250000Y-55190000D03*
%TO.P,J10,B2*%
%TO.N,Net-(J1-PadA2)*%
X221750000Y-54190000D03*
%TO.P,J10,B1*%
%TO.N,Net-(J1-PadA1)*%
X223750000Y-53190000D03*
%TO.P,J10,A2*%
%TO.N,Net-(J1-PadA2)*%
X228250000Y-54190000D03*
D17*
%TO.P,J10,A1*%
%TO.N,Net-(J1-PadA1)*%
X226250000Y-53190000D03*
%TD*%
D19*
%TO.N,Net-(J10-PadB18)*%
X211390010Y-69049990D02*
X218609990Y-69049990D01*
X218609990Y-69049990D02*
X221750000Y-72190000D01*
X208250000Y-72190000D02*
X211390010Y-69049990D01*
D20*
%TO.N,Net-(J10-PadB19)*%
X207505078Y-73190000D02*
X208990000Y-73190000D01*
D19*
X206250000Y-73190000D02*
X207505078Y-73190000D01*
X223750000Y-73190000D02*
X222494922Y-73190000D01*
X220390000Y-73190000D02*
X221005078Y-73190000D01*
X212800000Y-70000000D02*
X217200000Y-70000000D01*
D20*
X222494922Y-73190000D02*
X221010000Y-73190000D01*
D19*
X217200000Y-70000000D02*
X220390000Y-73190000D01*
X208990000Y-73190000D02*
X209610000Y-73190000D01*
X208990000Y-73190000D02*
X209210000Y-73190000D01*
X209610000Y-73190000D02*
X212800000Y-70000000D01*
%TO.N,Net-(J10-PadB20)*%
X210066482Y-74190000D02*
X213306471Y-70950011D01*
X216806493Y-70950011D02*
X220046482Y-74190000D01*
X213306471Y-70950011D02*
X216806493Y-70950011D01*
X220046482Y-74190000D02*
X221750000Y-74190000D01*
X208250000Y-74190000D02*
X210066482Y-74190000D01*
%TO.N,Net-(J10-PadB21)*%
X223750000Y-75190000D02*
X222494922Y-75190000D01*
D20*
X222494922Y-75190000D02*
X221010000Y-75190000D01*
D19*
X208990000Y-75190000D02*
X210410000Y-75190000D01*
X213699978Y-71900022D02*
X216412986Y-71900022D01*
X216412986Y-71900022D02*
X219702964Y-75190000D01*
X219702964Y-75190000D02*
X221010000Y-75190000D01*
X210410000Y-75190000D02*
X213699978Y-71900022D01*
D20*
X207490000Y-75190000D02*
X208990000Y-75190000D01*
D19*
X206250000Y-75190000D02*
X207490000Y-75190000D01*
%TO.N,Net-(J10-PadB22)*%
X213018534Y-78075000D02*
X216581482Y-78075000D01*
X211133534Y-76190000D02*
X213018534Y-78075000D01*
X216581482Y-78075000D02*
X218466482Y-76190000D01*
X218466482Y-76190000D02*
X221750000Y-76190000D01*
X208250000Y-76190000D02*
X211133534Y-76190000D01*
%TO.N,Net-(J10-PadB23)*%
X223750000Y-77190000D02*
X222494922Y-77190000D01*
D20*
X207505078Y-77190000D02*
X208990000Y-77190000D01*
D19*
X210790018Y-77190000D02*
X212625028Y-79025011D01*
X208990000Y-77190000D02*
X210790018Y-77190000D01*
X212625028Y-79025011D02*
X216974989Y-79025011D01*
D20*
X222494922Y-77190000D02*
X221010000Y-77190000D01*
D19*
X218810000Y-77190000D02*
X221010000Y-77190000D01*
X206250000Y-77190000D02*
X207505078Y-77190000D01*
X216974989Y-79025011D02*
X218810000Y-77190000D01*
%TO.N,Net-(J10-PadB31)*%
X221010000Y-85190000D02*
X220790000Y-85190000D01*
X220790000Y-85190000D02*
X217800000Y-82200000D01*
X217800000Y-82200000D02*
X212800000Y-82200000D01*
X206250000Y-85190000D02*
X207505078Y-85190000D01*
D20*
X207505078Y-85190000D02*
X208990000Y-85190000D01*
D19*
X209810000Y-85190000D02*
X208990000Y-85190000D01*
X223750000Y-85190000D02*
X222494922Y-85190000D01*
D20*
X222494922Y-85190000D02*
X221010000Y-85190000D01*
D19*
X212800000Y-82200000D02*
X209810000Y-85190000D01*
%TO.N,Net-(J10-PadB32)*%
X217000000Y-83200000D02*
X219990000Y-86190000D01*
X208250000Y-86190000D02*
X210190000Y-86190000D01*
X213180000Y-83200000D02*
X217000000Y-83200000D01*
X219990000Y-86190000D02*
X221750000Y-86190000D01*
X210190000Y-86190000D02*
X213180000Y-83200000D01*
%TO.N,Net-(J10-PadB33)*%
X223750000Y-87190000D02*
X222494922Y-87190000D01*
X213800000Y-84200000D02*
X216400000Y-84200000D01*
X219390000Y-87190000D02*
X221010000Y-87190000D01*
D20*
X207505078Y-87190000D02*
X208990000Y-87190000D01*
D19*
X216400000Y-84200000D02*
X219390000Y-87190000D01*
D20*
X222494922Y-87190000D02*
X221010000Y-87190000D01*
D19*
X206250000Y-87190000D02*
X207505078Y-87190000D01*
X210810000Y-87190000D02*
X213800000Y-84200000D01*
X208990000Y-87190000D02*
X210810000Y-87190000D01*
%TO.N,Net-(J10-PadB34)*%
X219210000Y-88190000D02*
X221750000Y-88190000D01*
X213400000Y-90600000D02*
X216800000Y-90600000D01*
X210990000Y-88190000D02*
X213400000Y-90600000D01*
X208250000Y-88190000D02*
X210990000Y-88190000D01*
X216800000Y-90600000D02*
X219210000Y-88190000D01*
D20*
%TO.N,Net-(J10-PadB35)*%
X222494922Y-89190000D02*
X221010000Y-89190000D01*
D19*
X217600000Y-91600000D02*
X220010000Y-89190000D01*
X223750000Y-89190000D02*
X222494922Y-89190000D01*
X208990000Y-89190000D02*
X210390000Y-89190000D01*
X206250000Y-89190000D02*
X207505078Y-89190000D01*
D20*
X207505078Y-89190000D02*
X208990000Y-89190000D01*
D19*
X210390000Y-89190000D02*
X212800000Y-91600000D01*
X220010000Y-89190000D02*
X221010000Y-89190000D01*
X212800000Y-91600000D02*
X217600000Y-91600000D01*
%TO.N,Net-(J10-PadB36)*%
X209790000Y-90190000D02*
X208250000Y-90190000D01*
X212400000Y-92800000D02*
X209790000Y-90190000D01*
X220610000Y-90190000D02*
X218000000Y-92800000D01*
X221750000Y-90190000D02*
X220610000Y-90190000D01*
X218000000Y-92800000D02*
X212400000Y-92800000D01*
%TO.N,Net-(J10-PadB42)*%
X220654484Y-96190000D02*
X221750000Y-96190000D01*
X209353518Y-96190000D02*
X210568538Y-94974980D01*
X219439464Y-94974980D02*
X220654484Y-96190000D01*
X208250000Y-96190000D02*
X209353518Y-96190000D01*
X210568538Y-94974980D02*
X219439464Y-94974980D01*
%TO.N,Net-(J10-PadB43)*%
X222929001Y-96369001D02*
X222929001Y-96113923D01*
X210775029Y-94024971D02*
X210800000Y-94000000D01*
X223750000Y-97190000D02*
X222929001Y-96369001D01*
X210800000Y-94000000D02*
X219808002Y-94000000D01*
D20*
X207604001Y-95195999D02*
X208995999Y-95195999D01*
X207244001Y-95555999D02*
X207604001Y-95195999D01*
X222227121Y-95195999D02*
X221004001Y-95195999D01*
D19*
X208995999Y-95195999D02*
X209004003Y-95195999D01*
X219808002Y-94000000D02*
X221004001Y-95195999D01*
D20*
X207070999Y-96369001D02*
X207244001Y-96195999D01*
X222929001Y-95929001D02*
X222929001Y-95897879D01*
D19*
X209004003Y-95195999D02*
X210175031Y-94024971D01*
X207070999Y-96369001D02*
X207070999Y-96113923D01*
D20*
X222929001Y-96369001D02*
X222929001Y-95929001D01*
X222929001Y-95897879D02*
X222227121Y-95195999D01*
X207244001Y-96195999D02*
X207244001Y-95555999D01*
D19*
X206250000Y-97190000D02*
X207070999Y-96369001D01*
X210175031Y-94024971D02*
X210775029Y-94024971D01*
%TO.N,Net-(J10-PadB44)*%
X218843103Y-95924991D02*
X221108112Y-98190000D01*
X208697036Y-98190000D02*
X210962045Y-95924991D01*
X210962045Y-95924991D02*
X218843103Y-95924991D01*
X208250000Y-98190000D02*
X208697036Y-98190000D01*
X221108112Y-98190000D02*
X221750000Y-98190000D01*
%TO.N,Net-(J10-PadB45)*%
X206250000Y-99190000D02*
X207505078Y-99190000D01*
X211226289Y-102075009D02*
X209600000Y-100448720D01*
X220300004Y-100300004D02*
X220300004Y-100556478D01*
X220575010Y-100024998D02*
X220300004Y-100300004D01*
D20*
X207505078Y-99190000D02*
X208990000Y-99190000D01*
X222494922Y-99190000D02*
X221010000Y-99190000D01*
D19*
X221010000Y-99190000D02*
X220575010Y-99624990D01*
X220300004Y-100556478D02*
X218781473Y-102075009D01*
X223750000Y-99190000D02*
X222494922Y-99190000D01*
X220575010Y-99624990D02*
X220575010Y-100024998D01*
X218781473Y-102075009D02*
X211226289Y-102075009D01*
%TO.N,Net-(J10-PadB46)*%
X210832783Y-103025020D02*
X219174980Y-103025020D01*
X219174980Y-103025020D02*
X221750000Y-100450000D01*
X208649990Y-100842227D02*
X210832783Y-103025020D01*
X208649990Y-100416730D02*
X208649990Y-100842227D01*
X208574991Y-100341731D02*
X208649990Y-100416730D01*
X208574990Y-100190000D02*
X208574991Y-100341731D01*
X208250000Y-100190000D02*
X208574990Y-100190000D01*
X221750000Y-100450000D02*
X221750000Y-100190000D01*
%TO.N,Net-(J10-PadB47)*%
X223750000Y-101190000D02*
X222929001Y-102010999D01*
X206250000Y-101190000D02*
X207070999Y-102010999D01*
X207070999Y-102010999D02*
X207070999Y-102266077D01*
X222929001Y-102010999D02*
X222929001Y-102266077D01*
%TO.N,Net-(J5-PadA18)*%
X131390010Y-69049990D02*
X138609990Y-69049990D01*
X138609990Y-69049990D02*
X141750000Y-72190000D01*
X128250000Y-72190000D02*
X131390010Y-69049990D01*
D20*
%TO.N,Net-(J5-PadA19)*%
X127505078Y-73190000D02*
X128990000Y-73190000D01*
D19*
X126250000Y-73190000D02*
X127505078Y-73190000D01*
X143750000Y-73190000D02*
X142494922Y-73190000D01*
X140390000Y-73190000D02*
X141005078Y-73190000D01*
X132800000Y-70000000D02*
X137200000Y-70000000D01*
D20*
X142494922Y-73190000D02*
X141010000Y-73190000D01*
D19*
X137200000Y-70000000D02*
X140390000Y-73190000D01*
X128990000Y-73190000D02*
X129610000Y-73190000D01*
X128990000Y-73190000D02*
X129210000Y-73190000D01*
X129610000Y-73190000D02*
X132800000Y-70000000D01*
%TO.N,Net-(J5-PadA20)*%
X130066482Y-74190000D02*
X133306471Y-70950011D01*
X136806493Y-70950011D02*
X140046482Y-74190000D01*
X133306471Y-70950011D02*
X136806493Y-70950011D01*
X140046482Y-74190000D02*
X141750000Y-74190000D01*
X128250000Y-74190000D02*
X130066482Y-74190000D01*
%TO.N,Net-(J5-PadA21)*%
X143750000Y-75190000D02*
X142494922Y-75190000D01*
D20*
X142494922Y-75190000D02*
X141010000Y-75190000D01*
D19*
X128990000Y-75190000D02*
X130410000Y-75190000D01*
X133699978Y-71900022D02*
X136412986Y-71900022D01*
X136412986Y-71900022D02*
X139702964Y-75190000D01*
X139702964Y-75190000D02*
X141010000Y-75190000D01*
X130410000Y-75190000D02*
X133699978Y-71900022D01*
D20*
X127490000Y-75190000D02*
X128990000Y-75190000D01*
D19*
X126250000Y-75190000D02*
X127490000Y-75190000D01*
%TO.N,Net-(J5-PadA22)*%
X133018534Y-78075000D02*
X136581482Y-78075000D01*
X131133534Y-76190000D02*
X133018534Y-78075000D01*
X136581482Y-78075000D02*
X138466482Y-76190000D01*
X138466482Y-76190000D02*
X141750000Y-76190000D01*
X128250000Y-76190000D02*
X131133534Y-76190000D01*
%TO.N,Net-(J5-PadA23)*%
X143750000Y-77190000D02*
X142494922Y-77190000D01*
D20*
X127505078Y-77190000D02*
X128990000Y-77190000D01*
D19*
X130790018Y-77190000D02*
X132625028Y-79025011D01*
X128990000Y-77190000D02*
X130790018Y-77190000D01*
X132625028Y-79025011D02*
X136974989Y-79025011D01*
D20*
X142494922Y-77190000D02*
X141010000Y-77190000D01*
D19*
X138810000Y-77190000D02*
X141010000Y-77190000D01*
X126250000Y-77190000D02*
X127505078Y-77190000D01*
X136974989Y-79025011D02*
X138810000Y-77190000D01*
%TO.N,Net-(J5-PadA31)*%
X141010000Y-85190000D02*
X140790000Y-85190000D01*
X140790000Y-85190000D02*
X137800000Y-82200000D01*
X137800000Y-82200000D02*
X132800000Y-82200000D01*
X126250000Y-85190000D02*
X127505078Y-85190000D01*
D20*
X127505078Y-85190000D02*
X128990000Y-85190000D01*
D19*
X129810000Y-85190000D02*
X128990000Y-85190000D01*
X143750000Y-85190000D02*
X142494922Y-85190000D01*
D20*
X142494922Y-85190000D02*
X141010000Y-85190000D01*
D19*
X132800000Y-82200000D02*
X129810000Y-85190000D01*
%TO.N,Net-(J5-PadA32)*%
X137000000Y-83200000D02*
X139990000Y-86190000D01*
X128250000Y-86190000D02*
X130190000Y-86190000D01*
X133180000Y-83200000D02*
X137000000Y-83200000D01*
X139990000Y-86190000D02*
X141750000Y-86190000D01*
X130190000Y-86190000D02*
X133180000Y-83200000D01*
%TO.N,Net-(J5-PadA33)*%
X143750000Y-87190000D02*
X142494922Y-87190000D01*
X133800000Y-84200000D02*
X136400000Y-84200000D01*
X139390000Y-87190000D02*
X141010000Y-87190000D01*
D20*
X127505078Y-87190000D02*
X128990000Y-87190000D01*
D19*
X136400000Y-84200000D02*
X139390000Y-87190000D01*
D20*
X142494922Y-87190000D02*
X141010000Y-87190000D01*
D19*
X126250000Y-87190000D02*
X127505078Y-87190000D01*
X130810000Y-87190000D02*
X133800000Y-84200000D01*
X128990000Y-87190000D02*
X130810000Y-87190000D01*
%TO.N,Net-(J5-PadA34)*%
X139210000Y-88190000D02*
X141750000Y-88190000D01*
X133400000Y-90600000D02*
X136800000Y-90600000D01*
X130990000Y-88190000D02*
X133400000Y-90600000D01*
X128250000Y-88190000D02*
X130990000Y-88190000D01*
X136800000Y-90600000D02*
X139210000Y-88190000D01*
D20*
%TO.N,Net-(J5-PadA35)*%
X142494922Y-89190000D02*
X141010000Y-89190000D01*
D19*
X137600000Y-91600000D02*
X140010000Y-89190000D01*
X143750000Y-89190000D02*
X142494922Y-89190000D01*
X128990000Y-89190000D02*
X130390000Y-89190000D01*
X126250000Y-89190000D02*
X127505078Y-89190000D01*
D20*
X127505078Y-89190000D02*
X128990000Y-89190000D01*
D19*
X130390000Y-89190000D02*
X132800000Y-91600000D01*
X140010000Y-89190000D02*
X141010000Y-89190000D01*
X132800000Y-91600000D02*
X137600000Y-91600000D01*
%TO.N,Net-(J5-PadA36)*%
X129790000Y-90190000D02*
X128250000Y-90190000D01*
X132400000Y-92800000D02*
X129790000Y-90190000D01*
X140610000Y-90190000D02*
X138000000Y-92800000D01*
X141750000Y-90190000D02*
X140610000Y-90190000D01*
X138000000Y-92800000D02*
X132400000Y-92800000D01*
%TO.N,Net-(J5-PadA42)*%
X140654484Y-96190000D02*
X141750000Y-96190000D01*
X129353518Y-96190000D02*
X130568538Y-94974980D01*
X139439464Y-94974980D02*
X140654484Y-96190000D01*
X128250000Y-96190000D02*
X129353518Y-96190000D01*
X130568538Y-94974980D02*
X139439464Y-94974980D01*
%TO.N,Net-(J5-PadA43)*%
X142929001Y-96369001D02*
X142929001Y-96113923D01*
X130775029Y-94024971D02*
X130800000Y-94000000D01*
X143750000Y-97190000D02*
X142929001Y-96369001D01*
X130800000Y-94000000D02*
X139808002Y-94000000D01*
D20*
X127604001Y-95195999D02*
X128995999Y-95195999D01*
X127244001Y-95555999D02*
X127604001Y-95195999D01*
X142227121Y-95195999D02*
X141004001Y-95195999D01*
D19*
X128995999Y-95195999D02*
X129004003Y-95195999D01*
X139808002Y-94000000D02*
X141004001Y-95195999D01*
D20*
X127070999Y-96369001D02*
X127244001Y-96195999D01*
X142929001Y-95929001D02*
X142929001Y-95897879D01*
D19*
X129004003Y-95195999D02*
X130175031Y-94024971D01*
X127070999Y-96369001D02*
X127070999Y-96113923D01*
D20*
X142929001Y-96369001D02*
X142929001Y-95929001D01*
X142929001Y-95897879D02*
X142227121Y-95195999D01*
X127244001Y-96195999D02*
X127244001Y-95555999D01*
D19*
X126250000Y-97190000D02*
X127070999Y-96369001D01*
X130175031Y-94024971D02*
X130775029Y-94024971D01*
%TO.N,Net-(J5-PadA44)*%
X138843103Y-95924991D02*
X141108112Y-98190000D01*
X128697036Y-98190000D02*
X130962045Y-95924991D01*
X130962045Y-95924991D02*
X138843103Y-95924991D01*
X128250000Y-98190000D02*
X128697036Y-98190000D01*
X141108112Y-98190000D02*
X141750000Y-98190000D01*
%TO.N,Net-(J5-PadA45)*%
X126250000Y-99190000D02*
X127505078Y-99190000D01*
X131226289Y-102075009D02*
X129600000Y-100448720D01*
X140300004Y-100300004D02*
X140300004Y-100556478D01*
X140575010Y-100024998D02*
X140300004Y-100300004D01*
D20*
X127505078Y-99190000D02*
X128990000Y-99190000D01*
X142494922Y-99190000D02*
X141010000Y-99190000D01*
D19*
X141010000Y-99190000D02*
X140575010Y-99624990D01*
X140300004Y-100556478D02*
X138781473Y-102075009D01*
X143750000Y-99190000D02*
X142494922Y-99190000D01*
X140575010Y-99624990D02*
X140575010Y-100024998D01*
X138781473Y-102075009D02*
X131226289Y-102075009D01*
%TO.N,Net-(J5-PadA46)*%
X130832783Y-103025020D02*
X139174980Y-103025020D01*
X139174980Y-103025020D02*
X141750000Y-100450000D01*
X128649990Y-100842227D02*
X130832783Y-103025020D01*
X128649990Y-100416730D02*
X128649990Y-100842227D01*
X128574991Y-100341731D02*
X128649990Y-100416730D01*
X128574990Y-100190000D02*
X128574991Y-100341731D01*
X128250000Y-100190000D02*
X128574990Y-100190000D01*
X141750000Y-100450000D02*
X141750000Y-100190000D01*
%TO.N,Net-(J5-PadA47)*%
X143750000Y-101190000D02*
X142929001Y-102010999D01*
D20*
X142755999Y-102184001D02*
X142755999Y-103044001D01*
X142929001Y-102010999D02*
X142755999Y-102184001D01*
D19*
X126250000Y-101190000D02*
X127070999Y-102010999D01*
X141200000Y-104600000D02*
X142400000Y-103400000D01*
D20*
X127244001Y-102844001D02*
X127600000Y-103200000D01*
D19*
X127070999Y-102010999D02*
X127070999Y-102266077D01*
X127600000Y-103200000D02*
X129000000Y-104600000D01*
D20*
X142755999Y-103044001D02*
X142400000Y-103400000D01*
X127070999Y-102010999D02*
X127244001Y-102184001D01*
D19*
X129000000Y-104600000D02*
X141200000Y-104600000D01*
D20*
X127244001Y-102184001D02*
X127244001Y-102844001D01*
D19*
X142929001Y-102010999D02*
X142929001Y-102266077D01*
%TO.N,Net-(J1-PadA11)*%
X84353999Y-62586001D02*
X85646001Y-62586001D01*
%TO.N,Net-(J1-PadA2)*%
X48250000Y-52946998D02*
X48250000Y-54190000D01*
X47314001Y-52010999D02*
X48250000Y-52946998D01*
X43074817Y-52010999D02*
X47314001Y-52010999D01*
X41750000Y-53335816D02*
X43074817Y-52010999D01*
X41750000Y-54190000D02*
X41750000Y-53335816D01*
X88250000Y-52946998D02*
X88250000Y-54190000D01*
X87314001Y-52010999D02*
X88250000Y-52946998D01*
X83074817Y-52010999D02*
X87314001Y-52010999D01*
X81750000Y-53335816D02*
X83074817Y-52010999D01*
X81750000Y-54190000D02*
X81750000Y-53335816D01*
X107314001Y-52010999D02*
X108250000Y-52946998D01*
X108250000Y-52946998D02*
X108250000Y-54190000D01*
X103074817Y-52010999D02*
X107314001Y-52010999D01*
X101750000Y-53335816D02*
X103074817Y-52010999D01*
X101750000Y-54190000D02*
X101750000Y-53335816D01*
X127314001Y-52010999D02*
X128250000Y-52946998D01*
X123074817Y-52010999D02*
X127314001Y-52010999D01*
X121750000Y-53335816D02*
X123074817Y-52010999D01*
X128250000Y-52946998D02*
X128250000Y-54190000D01*
X121750000Y-54190000D02*
X121750000Y-53335816D01*
X148250000Y-52946998D02*
X148250000Y-54190000D01*
X147314001Y-52010999D02*
X148250000Y-52946998D01*
X143074817Y-52010999D02*
X147314001Y-52010999D01*
X141750000Y-53335816D02*
X143074817Y-52010999D01*
X141750000Y-54190000D02*
X141750000Y-53335816D01*
X168250000Y-52946998D02*
X168250000Y-54190000D01*
X167314001Y-52010999D02*
X168250000Y-52946998D01*
X163074817Y-52010999D02*
X167314001Y-52010999D01*
X161750000Y-53335816D02*
X163074817Y-52010999D01*
X161750000Y-54190000D02*
X161750000Y-53335816D01*
X188250000Y-52946998D02*
X188250000Y-54190000D01*
X183074817Y-52010999D02*
X187314001Y-52010999D01*
X181750000Y-53335816D02*
X183074817Y-52010999D01*
X187314001Y-52010999D02*
X188250000Y-52946998D01*
X181750000Y-54190000D02*
X181750000Y-53335816D01*
X208250000Y-52946998D02*
X208250000Y-54190000D01*
X207314001Y-52010999D02*
X208250000Y-52946998D01*
X201750000Y-53335816D02*
X203074817Y-52010999D01*
X203074817Y-52010999D02*
X207314001Y-52010999D01*
X201750000Y-54190000D02*
X201750000Y-53335816D01*
X228250000Y-52946998D02*
X228250000Y-54190000D01*
X227314001Y-52010999D02*
X228250000Y-52946998D01*
X223074817Y-52010999D02*
X227314001Y-52010999D01*
X221750000Y-53335816D02*
X223074817Y-52010999D01*
X221750000Y-54190000D02*
X221750000Y-53335816D01*
X48250000Y-54190000D02*
X61750000Y-54190000D01*
X68250000Y-54190000D02*
X81750000Y-54190000D01*
X88250000Y-54190000D02*
X100990000Y-54190000D01*
X100990000Y-54190000D02*
X101750000Y-54190000D01*
X108250000Y-54190000D02*
X121750000Y-54190000D01*
X128250000Y-54190000D02*
X141750000Y-54190000D01*
X148250000Y-54190000D02*
X161750000Y-54190000D01*
X168250000Y-54190000D02*
X181750000Y-54190000D01*
X188250000Y-54190000D02*
X201750000Y-54190000D01*
X208250000Y-54190000D02*
X221750000Y-54190000D01*
X68250000Y-52946998D02*
X68250000Y-54190000D01*
X67314001Y-52010999D02*
X68250000Y-52946998D01*
X63074817Y-52010999D02*
X67314001Y-52010999D01*
X61750000Y-53335816D02*
X63074817Y-52010999D01*
X61750000Y-54190000D02*
X61750000Y-53335816D01*
%TO.N,Net-(J1-PadA11)*%
X45646001Y-62586001D02*
X46250000Y-63190000D01*
X43750000Y-63190000D02*
X44353999Y-62586001D01*
X44353999Y-62586001D02*
X45646001Y-62586001D01*
X65646001Y-62586001D02*
X66250000Y-63190000D01*
X63750000Y-63190000D02*
X64353999Y-62586001D01*
X64353999Y-62586001D02*
X65646001Y-62586001D01*
X83146001Y-63793999D02*
X83750000Y-63190000D01*
X66250000Y-63190000D02*
X66853999Y-63793999D01*
X66853999Y-63793999D02*
X83146001Y-63793999D01*
X85646001Y-62586001D02*
X86250000Y-63190000D01*
X83750000Y-63190000D02*
X84353999Y-62586001D01*
X84353999Y-62586001D02*
X85646001Y-62586001D01*
X103146001Y-63793999D02*
X103750000Y-63190000D01*
X86250000Y-63190000D02*
X86853999Y-63793999D01*
X86853999Y-63793999D02*
X103146001Y-63793999D01*
X105646001Y-62586001D02*
X106250000Y-63190000D01*
X104353999Y-62586001D02*
X105646001Y-62586001D01*
X103750000Y-63190000D02*
X104353999Y-62586001D01*
X123146001Y-63793999D02*
X123750000Y-63190000D01*
X106250000Y-63190000D02*
X106853999Y-63793999D01*
X106853999Y-63793999D02*
X123146001Y-63793999D01*
X125646001Y-62586001D02*
X126250000Y-63190000D01*
X123750000Y-63190000D02*
X124353999Y-62586001D01*
X124353999Y-62586001D02*
X125646001Y-62586001D01*
X145646001Y-62586001D02*
X146250000Y-63190000D01*
X143750000Y-63190000D02*
X144353999Y-62586001D01*
X144353999Y-62586001D02*
X145646001Y-62586001D01*
X163146001Y-63793999D02*
X163750000Y-63190000D01*
X146250000Y-63190000D02*
X146853999Y-63793999D01*
X146853999Y-63793999D02*
X163146001Y-63793999D01*
X165646001Y-62586001D02*
X166250000Y-63190000D01*
X163750000Y-63190000D02*
X164353999Y-62586001D01*
X164353999Y-62586001D02*
X165646001Y-62586001D01*
X183146001Y-63793999D02*
X183750000Y-63190000D01*
X166250000Y-63190000D02*
X166853999Y-63793999D01*
X166853999Y-63793999D02*
X183146001Y-63793999D01*
X185646001Y-62586001D02*
X186250000Y-63190000D01*
X184353999Y-62586001D02*
X185646001Y-62586001D01*
X183750000Y-63190000D02*
X184353999Y-62586001D01*
X203146001Y-63793999D02*
X203750000Y-63190000D01*
X186853999Y-63793999D02*
X203146001Y-63793999D01*
X186250000Y-63190000D02*
X186853999Y-63793999D01*
X205646001Y-62586001D02*
X206250000Y-63190000D01*
X204353999Y-62586001D02*
X205646001Y-62586001D01*
X203750000Y-63190000D02*
X204353999Y-62586001D01*
X225646001Y-62586001D02*
X226250000Y-63190000D01*
X224353999Y-62586001D02*
X225646001Y-62586001D01*
X223750000Y-63190000D02*
X224353999Y-62586001D01*
X63146001Y-63793999D02*
X63750000Y-63190000D01*
X60845001Y-63793999D02*
X63146001Y-63793999D01*
X59039000Y-65600000D02*
X60845001Y-63793999D01*
X50961000Y-65600000D02*
X59039000Y-65600000D01*
X49154999Y-63793999D02*
X50961000Y-65600000D01*
X46853999Y-63793999D02*
X49154999Y-63793999D01*
X46250000Y-63190000D02*
X46853999Y-63793999D01*
X143146001Y-63793999D02*
X143750000Y-63190000D01*
X139039000Y-65600000D02*
X140845001Y-63793999D01*
X140845001Y-63793999D02*
X143146001Y-63793999D01*
X130961000Y-65600000D02*
X139039000Y-65600000D01*
X129154999Y-63793999D02*
X130961000Y-65600000D01*
X126853999Y-63793999D02*
X129154999Y-63793999D01*
X126250000Y-63190000D02*
X126853999Y-63793999D01*
X221051002Y-64000000D02*
X222940000Y-64000000D01*
X219451002Y-65600000D02*
X221051002Y-64000000D01*
X211810996Y-65600000D02*
X219451002Y-65600000D01*
X222940000Y-64000000D02*
X223750000Y-63190000D01*
X207684079Y-63369001D02*
X209579997Y-63369001D01*
X209579997Y-63369001D02*
X211810996Y-65600000D01*
X207505078Y-63190000D02*
X207684079Y-63369001D01*
X206250000Y-63190000D02*
X207505078Y-63190000D01*
%TO.N,Net-(J1-PadA18)*%
X48250000Y-72190000D02*
X51390010Y-69049990D01*
X51390010Y-69049990D02*
X58609990Y-69049990D01*
X58609990Y-69049990D02*
X61750000Y-72190000D01*
%TO.N,Net-(J1-PadA19)*%
X46250000Y-73190000D02*
X47505078Y-73190000D01*
X63750000Y-73190000D02*
X62494922Y-73190000D01*
D20*
X47505078Y-73190000D02*
X48990000Y-73190000D01*
X62494922Y-73190000D02*
X61010000Y-73190000D01*
D19*
X48990000Y-73190000D02*
X49210000Y-73190000D01*
X48990000Y-73190000D02*
X49610000Y-73190000D01*
X49610000Y-73190000D02*
X52800000Y-70000000D01*
X52800000Y-70000000D02*
X57200000Y-70000000D01*
X60390000Y-73190000D02*
X61005078Y-73190000D01*
X57200000Y-70000000D02*
X60390000Y-73190000D01*
%TO.N,Net-(J1-PadA20)*%
X48250000Y-74190000D02*
X50066482Y-74190000D01*
X56806493Y-70950011D02*
X60046482Y-74190000D01*
X53306471Y-70950011D02*
X56806493Y-70950011D01*
X50066482Y-74190000D02*
X53306471Y-70950011D01*
X60046482Y-74190000D02*
X61750000Y-74190000D01*
%TO.N,Net-(J1-PadA21)*%
X46250000Y-75190000D02*
X47490000Y-75190000D01*
X63750000Y-75190000D02*
X62494922Y-75190000D01*
D20*
X47490000Y-75190000D02*
X48990000Y-75190000D01*
X62494922Y-75190000D02*
X61010000Y-75190000D01*
D19*
X48990000Y-75190000D02*
X50410000Y-75190000D01*
X50410000Y-75190000D02*
X53699978Y-71900022D01*
X53699978Y-71900022D02*
X56412986Y-71900022D01*
X56412986Y-71900022D02*
X59702964Y-75190000D01*
X59702964Y-75190000D02*
X61010000Y-75190000D01*
%TO.N,Net-(J1-PadA22)*%
X51133534Y-76190000D02*
X53018534Y-78075000D01*
X48250000Y-76190000D02*
X51133534Y-76190000D01*
X53018534Y-78075000D02*
X56581482Y-78075000D01*
X56581482Y-78075000D02*
X58466482Y-76190000D01*
X58466482Y-76190000D02*
X61750000Y-76190000D01*
%TO.N,Net-(J1-PadA23)*%
X46250000Y-77190000D02*
X47505078Y-77190000D01*
X63750000Y-77190000D02*
X62494922Y-77190000D01*
D20*
X47505078Y-77190000D02*
X48990000Y-77190000D01*
X62494922Y-77190000D02*
X61010000Y-77190000D01*
D19*
X50790018Y-77190000D02*
X52625028Y-79025011D01*
X48990000Y-77190000D02*
X50790018Y-77190000D01*
X52625028Y-79025011D02*
X56974989Y-79025011D01*
X58810000Y-77190000D02*
X61010000Y-77190000D01*
X56974989Y-79025011D02*
X58810000Y-77190000D01*
%TO.N,Net-(J1-PadA31)*%
X46250000Y-85190000D02*
X47505078Y-85190000D01*
X63750000Y-85190000D02*
X62494922Y-85190000D01*
D20*
X47505078Y-85190000D02*
X48990000Y-85190000D01*
X62494922Y-85190000D02*
X61010000Y-85190000D01*
D19*
X61010000Y-85190000D02*
X60790000Y-85190000D01*
X60790000Y-85190000D02*
X57800000Y-82200000D01*
X57800000Y-82200000D02*
X52800000Y-82200000D01*
X49810000Y-85190000D02*
X48990000Y-85190000D01*
X52800000Y-82200000D02*
X49810000Y-85190000D01*
%TO.N,Net-(J1-PadA32)*%
X48250000Y-86190000D02*
X50190000Y-86190000D01*
X50190000Y-86190000D02*
X53180000Y-83200000D01*
X53180000Y-83200000D02*
X57000000Y-83200000D01*
X59990000Y-86190000D02*
X61750000Y-86190000D01*
X57000000Y-83200000D02*
X59990000Y-86190000D01*
%TO.N,Net-(J1-PadA33)*%
X46250000Y-87190000D02*
X47505078Y-87190000D01*
X63750000Y-87190000D02*
X62494922Y-87190000D01*
D20*
X47505078Y-87190000D02*
X48990000Y-87190000D01*
X62494922Y-87190000D02*
X61010000Y-87190000D01*
D19*
X48990000Y-87190000D02*
X50810000Y-87190000D01*
X50810000Y-87190000D02*
X53800000Y-84200000D01*
X53800000Y-84200000D02*
X56400000Y-84200000D01*
X59390000Y-87190000D02*
X61010000Y-87190000D01*
X56400000Y-84200000D02*
X59390000Y-87190000D01*
%TO.N,Net-(J1-PadA34)*%
X59210000Y-88190000D02*
X61750000Y-88190000D01*
X56800000Y-90600000D02*
X59210000Y-88190000D01*
X53400000Y-90600000D02*
X56800000Y-90600000D01*
X50990000Y-88190000D02*
X53400000Y-90600000D01*
X48250000Y-88190000D02*
X50990000Y-88190000D01*
%TO.N,Net-(J1-PadA35)*%
X46250000Y-89190000D02*
X47505078Y-89190000D01*
X63750000Y-89190000D02*
X62494922Y-89190000D01*
D20*
X47505078Y-89190000D02*
X48990000Y-89190000D01*
X62494922Y-89190000D02*
X61010000Y-89190000D01*
D19*
X60010000Y-89190000D02*
X61010000Y-89190000D01*
X57600000Y-91600000D02*
X60010000Y-89190000D01*
X52800000Y-91600000D02*
X57600000Y-91600000D01*
X50390000Y-89190000D02*
X52800000Y-91600000D01*
X48990000Y-89190000D02*
X50390000Y-89190000D01*
%TO.N,Net-(J1-PadA36)*%
X49790000Y-90190000D02*
X48250000Y-90190000D01*
X52400000Y-92800000D02*
X49790000Y-90190000D01*
X58000000Y-92800000D02*
X52400000Y-92800000D01*
X60610000Y-90190000D02*
X58000000Y-92800000D01*
X61750000Y-90190000D02*
X60610000Y-90190000D01*
%TO.N,Net-(J1-PadA42)*%
X48250000Y-96190000D02*
X49353518Y-96190000D01*
X49353518Y-96190000D02*
X50568538Y-94974980D01*
X50568538Y-94974980D02*
X59439464Y-94974980D01*
X59439464Y-94974980D02*
X60654484Y-96190000D01*
X60654484Y-96190000D02*
X61750000Y-96190000D01*
%TO.N,Net-(J1-PadA43)*%
X46250000Y-97190000D02*
X47070999Y-96369001D01*
X47070999Y-96369001D02*
X47070999Y-96113923D01*
X63750000Y-97190000D02*
X62929001Y-96369001D01*
X62929001Y-96369001D02*
X62929001Y-96113923D01*
D20*
X47244001Y-96195999D02*
X47244001Y-95555999D01*
X47070999Y-96369001D02*
X47244001Y-96195999D01*
X47604001Y-95195999D02*
X48995999Y-95195999D01*
X47244001Y-95555999D02*
X47604001Y-95195999D01*
X62929001Y-96369001D02*
X62929001Y-95929001D01*
X62929001Y-95897879D02*
X62227121Y-95195999D01*
X62929001Y-95929001D02*
X62929001Y-95897879D01*
X62227121Y-95195999D02*
X61004001Y-95195999D01*
D19*
X49004003Y-95195999D02*
X50175031Y-94024971D01*
X48995999Y-95195999D02*
X49004003Y-95195999D01*
X50175031Y-94024971D02*
X50775029Y-94024971D01*
X50775029Y-94024971D02*
X50800000Y-94000000D01*
X59808002Y-94000000D02*
X61004001Y-95195999D01*
X50800000Y-94000000D02*
X59808002Y-94000000D01*
%TO.N,Net-(J1-PadA44)*%
X58843103Y-95924991D02*
X61108112Y-98190000D01*
X48250000Y-98190000D02*
X48697036Y-98190000D01*
X48697036Y-98190000D02*
X50962045Y-95924991D01*
X50962045Y-95924991D02*
X58843103Y-95924991D01*
X61108112Y-98190000D02*
X61750000Y-98190000D01*
%TO.N,Net-(J1-PadA45)*%
X63750000Y-99190000D02*
X62494922Y-99190000D01*
X46250000Y-99190000D02*
X47505078Y-99190000D01*
D20*
X47505078Y-99190000D02*
X48990000Y-99190000D01*
X62494922Y-99190000D02*
X61010000Y-99190000D01*
D19*
X61010000Y-99190000D02*
X60575010Y-99624990D01*
X60575010Y-99624990D02*
X60575010Y-100024998D01*
X51226289Y-102075009D02*
X49600000Y-100448720D01*
X60575010Y-100024998D02*
X60300004Y-100300004D01*
X60300004Y-100300004D02*
X60300004Y-100556478D01*
X60300004Y-100556478D02*
X58781473Y-102075009D01*
X58781473Y-102075009D02*
X51226289Y-102075009D01*
X49429001Y-99624079D02*
X48992461Y-99187539D01*
X49429001Y-99700494D02*
X49429001Y-99624079D01*
X49525000Y-99948223D02*
X49525000Y-99796493D01*
X49600000Y-100023223D02*
X49525000Y-99948223D01*
X49525000Y-99796493D02*
X49429001Y-99700494D01*
X49600000Y-100448720D02*
X49600000Y-100023223D01*
%TO.N,Net-(J1-PadA46)*%
X61750000Y-100450000D02*
X61750000Y-100190000D01*
X50832783Y-103025020D02*
X59174980Y-103025020D01*
X48649990Y-100842227D02*
X50832783Y-103025020D01*
X59174980Y-103025020D02*
X61750000Y-100450000D01*
X48649990Y-100416730D02*
X48649990Y-100842227D01*
X48574991Y-100341731D02*
X48649990Y-100416730D01*
X48574990Y-100190000D02*
X48574991Y-100341731D01*
X48250000Y-100190000D02*
X48574990Y-100190000D01*
%TO.N,Net-(J1-PadA47)*%
X63750000Y-101190000D02*
X62929001Y-102010999D01*
X62929001Y-102010999D02*
X62929001Y-102266077D01*
X46250000Y-101190000D02*
X47070999Y-102010999D01*
X47070999Y-102010999D02*
X47070999Y-102266077D01*
D20*
X47244001Y-102184001D02*
X47244001Y-102844001D01*
X47070999Y-102010999D02*
X47244001Y-102184001D01*
X47244001Y-102844001D02*
X47600000Y-103200000D01*
X62755999Y-102184001D02*
X62755999Y-103044001D01*
X62929001Y-102010999D02*
X62755999Y-102184001D01*
X62755999Y-103044001D02*
X62400000Y-103400000D01*
D19*
X61200000Y-104600000D02*
X62400000Y-103400000D01*
X49000000Y-104600000D02*
X61200000Y-104600000D01*
X47600000Y-103200000D02*
X49000000Y-104600000D01*
D20*
%TO.N,Net-(J10-PadB47)*%
X207244001Y-102184001D02*
X207244001Y-102844001D01*
D19*
X209000000Y-104600000D02*
X221200000Y-104600000D01*
X207600000Y-103200000D02*
X209000000Y-104600000D01*
D20*
X207070999Y-102010999D02*
X207244001Y-102184001D01*
X222755999Y-103044001D02*
X222400000Y-103400000D01*
D19*
X221200000Y-104600000D02*
X222400000Y-103400000D01*
D20*
X222929001Y-102010999D02*
X222755999Y-102184001D01*
X222755999Y-102184001D02*
X222755999Y-103044001D01*
X207244001Y-102844001D02*
X207600000Y-103200000D01*
D19*
%TO.N,Net-(J10-PadB45)*%
X209429001Y-99700494D02*
X209429001Y-99624079D01*
X209525000Y-99796493D02*
X209429001Y-99700494D01*
X209429001Y-99624079D02*
X208992461Y-99187539D01*
X209600000Y-100023223D02*
X209525000Y-99948223D01*
X209525000Y-99948223D02*
X209525000Y-99796493D01*
X209600000Y-100448720D02*
X209600000Y-100023223D01*
%TO.N,Net-(J5-PadA45)*%
X129429001Y-99624079D02*
X128992461Y-99187539D01*
X129525000Y-99796493D02*
X129429001Y-99700494D01*
X129429001Y-99700494D02*
X129429001Y-99624079D01*
X129600000Y-100023223D02*
X129525000Y-99948223D01*
X129525000Y-99948223D02*
X129525000Y-99796493D01*
X129600000Y-100448720D02*
X129600000Y-100023223D01*
%TD*%
M02*
