M48
; DRILL file {KiCad (5.1.9-16-g1737927814)-1} date 07/03/21 16:47:34
; FORMAT={3:3/ absolute / metric / suppress leading zeros}
; #@! TF.CreationDate,2021-07-03T16:47:34+02:00
; #@! TF.GenerationSoftware,Kicad,Pcbnew,(5.1.9-16-g1737927814)-1
; #@! TF.FileFunction,NonPlated,1,2,NPTH
FMAT,2
METRIC,TZ
T1C2.350
T2C3.500
T3C5.000
%
G90
G05
T1
X56250Y-61650
X56250Y-101810
X71250Y-61650
X71250Y-101810
X86250Y-61650
X86250Y-101810
X101250Y-61650
X101250Y-101810
X116250Y-61650
X116250Y-101810
X136750Y-61650
X136750Y-101810
X151750Y-61650
X151750Y-101810
X166750Y-61650
X166750Y-101810
X181750Y-61650
X181750Y-101810
X196750Y-61650
X196750Y-101810
T2
X46000Y-62000
X46000Y-74500
X46000Y-87000
X126000Y-62000
X126000Y-74500
X126000Y-87000
X206000Y-62000
X206000Y-74500
X206000Y-87000
T3
G00X43500Y-101000
M15
G01X48500Y-101000
M16
G05
G00X123500Y-101000
M15
G01X128500Y-101000
M16
G05
G00X203500Y-101000
M15
G01X208500Y-101000
M16
G05
T0
M30
