%TF.GenerationSoftware,KiCad,Pcbnew,(5.1.9-16-g1737927814)-1*%
%TF.CreationDate,2021-09-18T11:41:59+02:00*%
%TF.ProjectId,Bussystem 10x non stack,42757373-7973-4746-956d-20313078206e,1*%
%TF.SameCoordinates,Original*%
%TF.FileFunction,OtherDrawing,Comment*%
%FSLAX46Y46*%
G04 Gerber Fmt 4.6, Leading zero omitted, Abs format (unit mm)*
G04 Created by KiCad (PCBNEW (5.1.9-16-g1737927814)-1) date 2021-09-18 11:41:59*
%MOMM*%
%LPD*%
G01*
G04 APERTURE LIST*
%ADD10C,0.150000*%
G04 APERTURE END LIST*
D10*
X235247619Y-73833333D02*
X235247619Y-73642857D01*
X235200000Y-73547619D01*
X235152380Y-73500000D01*
X235009523Y-73404761D01*
X234819047Y-73357142D01*
X234438095Y-73357142D01*
X234342857Y-73404761D01*
X234295238Y-73452380D01*
X234247619Y-73547619D01*
X234247619Y-73738095D01*
X234295238Y-73833333D01*
X234342857Y-73880952D01*
X234438095Y-73928571D01*
X234676190Y-73928571D01*
X234771428Y-73880952D01*
X234819047Y-73833333D01*
X234866666Y-73738095D01*
X234866666Y-73547619D01*
X234819047Y-73452380D01*
X234771428Y-73404761D01*
X234676190Y-73357142D01*
X235247619Y-74833333D02*
X235247619Y-74357142D01*
X234771428Y-74309523D01*
X234819047Y-74357142D01*
X234866666Y-74452380D01*
X234866666Y-74690476D01*
X234819047Y-74785714D01*
X234771428Y-74833333D01*
X234676190Y-74880952D01*
X234438095Y-74880952D01*
X234342857Y-74833333D01*
X234295238Y-74785714D01*
X234247619Y-74690476D01*
X234247619Y-74452380D01*
X234295238Y-74357142D01*
X234342857Y-74309523D01*
X234295238Y-75357142D02*
X234247619Y-75357142D01*
X234152380Y-75309523D01*
X234104761Y-75261904D01*
X235247619Y-75976190D02*
X235247619Y-76071428D01*
X235200000Y-76166666D01*
X235152380Y-76214285D01*
X235057142Y-76261904D01*
X234866666Y-76309523D01*
X234628571Y-76309523D01*
X234438095Y-76261904D01*
X234342857Y-76214285D01*
X234295238Y-76166666D01*
X234247619Y-76071428D01*
X234247619Y-75976190D01*
X234295238Y-75880952D01*
X234342857Y-75833333D01*
X234438095Y-75785714D01*
X234628571Y-75738095D01*
X234866666Y-75738095D01*
X235057142Y-75785714D01*
X235152380Y-75833333D01*
X235200000Y-75880952D01*
X235247619Y-75976190D01*
X235247619Y-76928571D02*
X235247619Y-77023809D01*
X235200000Y-77119047D01*
X235152380Y-77166666D01*
X235057142Y-77214285D01*
X234866666Y-77261904D01*
X234628571Y-77261904D01*
X234438095Y-77214285D01*
X234342857Y-77166666D01*
X234295238Y-77119047D01*
X234247619Y-77023809D01*
X234247619Y-76928571D01*
X234295238Y-76833333D01*
X234342857Y-76785714D01*
X234438095Y-76738095D01*
X234628571Y-76690476D01*
X234866666Y-76690476D01*
X235057142Y-76738095D01*
X235152380Y-76785714D01*
X235200000Y-76833333D01*
X235247619Y-76928571D01*
X235247619Y-77880952D02*
X235247619Y-77976190D01*
X235200000Y-78071428D01*
X235152380Y-78119047D01*
X235057142Y-78166666D01*
X234866666Y-78214285D01*
X234628571Y-78214285D01*
X234438095Y-78166666D01*
X234342857Y-78119047D01*
X234295238Y-78071428D01*
X234247619Y-77976190D01*
X234247619Y-77880952D01*
X234295238Y-77785714D01*
X234342857Y-77738095D01*
X234438095Y-77690476D01*
X234628571Y-77642857D01*
X234866666Y-77642857D01*
X235057142Y-77690476D01*
X235152380Y-77738095D01*
X235200000Y-77785714D01*
X235247619Y-77880952D01*
X234247619Y-79404761D02*
X234914285Y-79404761D01*
X234819047Y-79404761D02*
X234866666Y-79452380D01*
X234914285Y-79547619D01*
X234914285Y-79690476D01*
X234866666Y-79785714D01*
X234771428Y-79833333D01*
X234247619Y-79833333D01*
X234771428Y-79833333D02*
X234866666Y-79880952D01*
X234914285Y-79976190D01*
X234914285Y-80119047D01*
X234866666Y-80214285D01*
X234771428Y-80261904D01*
X234247619Y-80261904D01*
X234247619Y-80738095D02*
X234914285Y-80738095D01*
X234819047Y-80738095D02*
X234866666Y-80785714D01*
X234914285Y-80880952D01*
X234914285Y-81023809D01*
X234866666Y-81119047D01*
X234771428Y-81166666D01*
X234247619Y-81166666D01*
X234771428Y-81166666D02*
X234866666Y-81214285D01*
X234914285Y-81309523D01*
X234914285Y-81452380D01*
X234866666Y-81547619D01*
X234771428Y-81595238D01*
X234247619Y-81595238D01*
X233400000Y-45000000D02*
X233400000Y-110000000D01*
X230000000Y-45000000D02*
X233986421Y-45000000D01*
X230000000Y-110000000D02*
X233986421Y-110000000D01*
X233400000Y-110000000D02*
X232813579Y-108873496D01*
X233400000Y-110000000D02*
X233986421Y-108873496D01*
X233400000Y-45000000D02*
X232813579Y-46126504D01*
X233400000Y-45000000D02*
X233986421Y-46126504D01*
X130952380Y-39352380D02*
X130380952Y-39352380D01*
X130666666Y-39352380D02*
X130666666Y-38352380D01*
X130571428Y-38495238D01*
X130476190Y-38590476D01*
X130380952Y-38638095D01*
X131428571Y-39352380D02*
X131619047Y-39352380D01*
X131714285Y-39304761D01*
X131761904Y-39257142D01*
X131857142Y-39114285D01*
X131904761Y-38923809D01*
X131904761Y-38542857D01*
X131857142Y-38447619D01*
X131809523Y-38400000D01*
X131714285Y-38352380D01*
X131523809Y-38352380D01*
X131428571Y-38400000D01*
X131380952Y-38447619D01*
X131333333Y-38542857D01*
X131333333Y-38780952D01*
X131380952Y-38876190D01*
X131428571Y-38923809D01*
X131523809Y-38971428D01*
X131714285Y-38971428D01*
X131809523Y-38923809D01*
X131857142Y-38876190D01*
X131904761Y-38780952D01*
X132523809Y-38352380D02*
X132619047Y-38352380D01*
X132714285Y-38400000D01*
X132761904Y-38447619D01*
X132809523Y-38542857D01*
X132857142Y-38733333D01*
X132857142Y-38971428D01*
X132809523Y-39161904D01*
X132761904Y-39257142D01*
X132714285Y-39304761D01*
X132619047Y-39352380D01*
X132523809Y-39352380D01*
X132428571Y-39304761D01*
X132380952Y-39257142D01*
X132333333Y-39161904D01*
X132285714Y-38971428D01*
X132285714Y-38733333D01*
X132333333Y-38542857D01*
X132380952Y-38447619D01*
X132428571Y-38400000D01*
X132523809Y-38352380D01*
X133333333Y-39304761D02*
X133333333Y-39352380D01*
X133285714Y-39447619D01*
X133238095Y-39495238D01*
X133952380Y-38352380D02*
X134047619Y-38352380D01*
X134142857Y-38400000D01*
X134190476Y-38447619D01*
X134238095Y-38542857D01*
X134285714Y-38733333D01*
X134285714Y-38971428D01*
X134238095Y-39161904D01*
X134190476Y-39257142D01*
X134142857Y-39304761D01*
X134047619Y-39352380D01*
X133952380Y-39352380D01*
X133857142Y-39304761D01*
X133809523Y-39257142D01*
X133761904Y-39161904D01*
X133714285Y-38971428D01*
X133714285Y-38733333D01*
X133761904Y-38542857D01*
X133809523Y-38447619D01*
X133857142Y-38400000D01*
X133952380Y-38352380D01*
X134904761Y-38352380D02*
X135000000Y-38352380D01*
X135095238Y-38400000D01*
X135142857Y-38447619D01*
X135190476Y-38542857D01*
X135238095Y-38733333D01*
X135238095Y-38971428D01*
X135190476Y-39161904D01*
X135142857Y-39257142D01*
X135095238Y-39304761D01*
X135000000Y-39352380D01*
X134904761Y-39352380D01*
X134809523Y-39304761D01*
X134761904Y-39257142D01*
X134714285Y-39161904D01*
X134666666Y-38971428D01*
X134666666Y-38733333D01*
X134714285Y-38542857D01*
X134761904Y-38447619D01*
X134809523Y-38400000D01*
X134904761Y-38352380D01*
X135857142Y-38352380D02*
X135952380Y-38352380D01*
X136047619Y-38400000D01*
X136095238Y-38447619D01*
X136142857Y-38542857D01*
X136190476Y-38733333D01*
X136190476Y-38971428D01*
X136142857Y-39161904D01*
X136095238Y-39257142D01*
X136047619Y-39304761D01*
X135952380Y-39352380D01*
X135857142Y-39352380D01*
X135761904Y-39304761D01*
X135714285Y-39257142D01*
X135666666Y-39161904D01*
X135619047Y-38971428D01*
X135619047Y-38733333D01*
X135666666Y-38542857D01*
X135714285Y-38447619D01*
X135761904Y-38400000D01*
X135857142Y-38352380D01*
X137380952Y-39352380D02*
X137380952Y-38685714D01*
X137380952Y-38780952D02*
X137428571Y-38733333D01*
X137523809Y-38685714D01*
X137666666Y-38685714D01*
X137761904Y-38733333D01*
X137809523Y-38828571D01*
X137809523Y-39352380D01*
X137809523Y-38828571D02*
X137857142Y-38733333D01*
X137952380Y-38685714D01*
X138095238Y-38685714D01*
X138190476Y-38733333D01*
X138238095Y-38828571D01*
X138238095Y-39352380D01*
X138714285Y-39352380D02*
X138714285Y-38685714D01*
X138714285Y-38780952D02*
X138761904Y-38733333D01*
X138857142Y-38685714D01*
X139000000Y-38685714D01*
X139095238Y-38733333D01*
X139142857Y-38828571D01*
X139142857Y-39352380D01*
X139142857Y-38828571D02*
X139190476Y-38733333D01*
X139285714Y-38685714D01*
X139428571Y-38685714D01*
X139523809Y-38733333D01*
X139571428Y-38828571D01*
X139571428Y-39352380D01*
X230000000Y-40200000D02*
X40000000Y-40200000D01*
X230000000Y-45000000D02*
X230000000Y-39613579D01*
X40000000Y-45000000D02*
X40000000Y-39613579D01*
X40000000Y-40200000D02*
X41126504Y-39613579D01*
X40000000Y-40200000D02*
X41126504Y-40786421D01*
X230000000Y-40200000D02*
X228873496Y-39613579D01*
X230000000Y-40200000D02*
X228873496Y-40786421D01*
M02*
