%TF.GenerationSoftware,KiCad,Pcbnew,(5.1.9-16-g1737927814)-1*%
%TF.CreationDate,2021-07-03T16:47:20+02:00*%
%TF.ProjectId,Bussystem 10x non stack,42757373-7973-4746-956d-20313078206e,1*%
%TF.SameCoordinates,Original*%
%TF.FileFunction,Soldermask,Top*%
%TF.FilePolarity,Negative*%
%FSLAX46Y46*%
G04 Gerber Fmt 4.6, Leading zero omitted, Abs format (unit mm)*
G04 Created by KiCad (PCBNEW (5.1.9-16-g1737927814)-1) date 2021-07-03 16:47:20*
%MOMM*%
%LPD*%
G01*
G04 APERTURE LIST*
%ADD10O,10.000000X5.000000*%
%ADD11C,5.000000*%
%ADD12R,1.208000X1.208000*%
%ADD13C,1.208000*%
%ADD14C,2.350000*%
G04 APERTURE END LIST*
D10*
%TO.C,DRA2*%
X126000000Y-101000000D03*
D11*
X126000000Y-74500000D03*
X126000000Y-87000000D03*
X126000000Y-62000000D03*
%TD*%
D10*
%TO.C,DRA3*%
X206000000Y-101000000D03*
D11*
X206000000Y-74500000D03*
X206000000Y-87000000D03*
X206000000Y-62000000D03*
%TD*%
D10*
%TO.C,DRA1*%
X46000000Y-101000000D03*
D11*
X46000000Y-74500000D03*
X46000000Y-87000000D03*
X46000000Y-62000000D03*
%TD*%
D12*
%TO.C,J1*%
X57500000Y-50000000D03*
D13*
X59500000Y-51000000D03*
X55000000Y-50000000D03*
X53000000Y-51000000D03*
X57500000Y-52000000D03*
X59500000Y-53000000D03*
X55000000Y-52000000D03*
X53000000Y-53000000D03*
X57500000Y-54000000D03*
X59500000Y-55000000D03*
X55000000Y-54000000D03*
X53000000Y-55000000D03*
X57500000Y-56000000D03*
X59500000Y-57000000D03*
X55000000Y-56000000D03*
X53000000Y-57000000D03*
X57500000Y-58000000D03*
X59500000Y-59000000D03*
X55000000Y-58000000D03*
X53000000Y-59000000D03*
X57500000Y-60000000D03*
X55000000Y-60000000D03*
X59500000Y-63000000D03*
X53000000Y-63000000D03*
X57500000Y-64000000D03*
X59500000Y-65000000D03*
X55000000Y-64000000D03*
X53000000Y-65000000D03*
X57500000Y-66000000D03*
X59500000Y-67000000D03*
X55000000Y-66000000D03*
X53000000Y-67000000D03*
X57500000Y-68000000D03*
X59500000Y-69000000D03*
X55000000Y-68000000D03*
X53000000Y-69000000D03*
X57500000Y-70000000D03*
X59500000Y-71000000D03*
X55000000Y-70000000D03*
X53000000Y-71000000D03*
X57500000Y-72000000D03*
X55000000Y-72000000D03*
X59500000Y-73000000D03*
X53000000Y-73000000D03*
X57500000Y-74000000D03*
X59500000Y-75000000D03*
X55000000Y-74000000D03*
X53000000Y-75000000D03*
X57500000Y-76000000D03*
X59500000Y-77000000D03*
X55000000Y-76000000D03*
X53000000Y-77000000D03*
X57500000Y-78000000D03*
X59500000Y-79000000D03*
X55000000Y-78000000D03*
X53000000Y-79000000D03*
X57500000Y-80000000D03*
X59500000Y-81000000D03*
X55000000Y-80000000D03*
X53000000Y-81000000D03*
X57500000Y-82000000D03*
X55000000Y-82000000D03*
X59500000Y-83000000D03*
X53000000Y-83000000D03*
D14*
X56250000Y-61650000D03*
X56250000Y-101810000D03*
D13*
X57500000Y-84000000D03*
X59500000Y-85000000D03*
X55000000Y-84000000D03*
X53000000Y-85000000D03*
X57500000Y-86000000D03*
X55000000Y-86000000D03*
X59500000Y-87000000D03*
X53000000Y-87000000D03*
X57500000Y-88000000D03*
X59500000Y-89000000D03*
X55000000Y-88000000D03*
X53000000Y-89000000D03*
X57500000Y-90000000D03*
X55000000Y-90000000D03*
X59500000Y-91000000D03*
X53000000Y-91000000D03*
X57500000Y-92000000D03*
X59500000Y-93000000D03*
X55000000Y-92000000D03*
X53000000Y-93000000D03*
X57500000Y-94000000D03*
X55000000Y-94000000D03*
X59500000Y-95000000D03*
X53000000Y-95000000D03*
X57500000Y-96000000D03*
X59500000Y-97000000D03*
X55000000Y-96000000D03*
X53000000Y-97000000D03*
X57500000Y-98000000D03*
X55000000Y-98000000D03*
X59500000Y-99000000D03*
X53000000Y-99000000D03*
X55000000Y-100000000D03*
X57500000Y-100000000D03*
%TD*%
%TO.C,J2*%
X72500000Y-100000000D03*
X70000000Y-100000000D03*
X68000000Y-99000000D03*
X74500000Y-99000000D03*
X70000000Y-98000000D03*
X72500000Y-98000000D03*
X68000000Y-97000000D03*
X70000000Y-96000000D03*
X74500000Y-97000000D03*
X72500000Y-96000000D03*
X68000000Y-95000000D03*
X74500000Y-95000000D03*
X70000000Y-94000000D03*
X72500000Y-94000000D03*
X68000000Y-93000000D03*
X70000000Y-92000000D03*
X74500000Y-93000000D03*
X72500000Y-92000000D03*
X68000000Y-91000000D03*
X74500000Y-91000000D03*
X70000000Y-90000000D03*
X72500000Y-90000000D03*
X68000000Y-89000000D03*
X70000000Y-88000000D03*
X74500000Y-89000000D03*
X72500000Y-88000000D03*
X68000000Y-87000000D03*
X74500000Y-87000000D03*
X70000000Y-86000000D03*
X72500000Y-86000000D03*
X68000000Y-85000000D03*
X70000000Y-84000000D03*
X74500000Y-85000000D03*
X72500000Y-84000000D03*
D14*
X71250000Y-101810000D03*
X71250000Y-61650000D03*
D13*
X68000000Y-83000000D03*
X74500000Y-83000000D03*
X70000000Y-82000000D03*
X72500000Y-82000000D03*
X68000000Y-81000000D03*
X70000000Y-80000000D03*
X74500000Y-81000000D03*
X72500000Y-80000000D03*
X68000000Y-79000000D03*
X70000000Y-78000000D03*
X74500000Y-79000000D03*
X72500000Y-78000000D03*
X68000000Y-77000000D03*
X70000000Y-76000000D03*
X74500000Y-77000000D03*
X72500000Y-76000000D03*
X68000000Y-75000000D03*
X70000000Y-74000000D03*
X74500000Y-75000000D03*
X72500000Y-74000000D03*
X68000000Y-73000000D03*
X74500000Y-73000000D03*
X70000000Y-72000000D03*
X72500000Y-72000000D03*
X68000000Y-71000000D03*
X70000000Y-70000000D03*
X74500000Y-71000000D03*
X72500000Y-70000000D03*
X68000000Y-69000000D03*
X70000000Y-68000000D03*
X74500000Y-69000000D03*
X72500000Y-68000000D03*
X68000000Y-67000000D03*
X70000000Y-66000000D03*
X74500000Y-67000000D03*
X72500000Y-66000000D03*
X68000000Y-65000000D03*
X70000000Y-64000000D03*
X74500000Y-65000000D03*
X72500000Y-64000000D03*
X68000000Y-63000000D03*
X74500000Y-63000000D03*
X70000000Y-60000000D03*
X72500000Y-60000000D03*
X68000000Y-59000000D03*
X70000000Y-58000000D03*
X74500000Y-59000000D03*
X72500000Y-58000000D03*
X68000000Y-57000000D03*
X70000000Y-56000000D03*
X74500000Y-57000000D03*
X72500000Y-56000000D03*
X68000000Y-55000000D03*
X70000000Y-54000000D03*
X74500000Y-55000000D03*
X72500000Y-54000000D03*
X68000000Y-53000000D03*
X70000000Y-52000000D03*
X74500000Y-53000000D03*
X72500000Y-52000000D03*
X68000000Y-51000000D03*
X70000000Y-50000000D03*
X74500000Y-51000000D03*
D12*
X72500000Y-50000000D03*
%TD*%
%TO.C,J3*%
X87500000Y-50000000D03*
D13*
X89500000Y-51000000D03*
X85000000Y-50000000D03*
X83000000Y-51000000D03*
X87500000Y-52000000D03*
X89500000Y-53000000D03*
X85000000Y-52000000D03*
X83000000Y-53000000D03*
X87500000Y-54000000D03*
X89500000Y-55000000D03*
X85000000Y-54000000D03*
X83000000Y-55000000D03*
X87500000Y-56000000D03*
X89500000Y-57000000D03*
X85000000Y-56000000D03*
X83000000Y-57000000D03*
X87500000Y-58000000D03*
X89500000Y-59000000D03*
X85000000Y-58000000D03*
X83000000Y-59000000D03*
X87500000Y-60000000D03*
X85000000Y-60000000D03*
X89500000Y-63000000D03*
X83000000Y-63000000D03*
X87500000Y-64000000D03*
X89500000Y-65000000D03*
X85000000Y-64000000D03*
X83000000Y-65000000D03*
X87500000Y-66000000D03*
X89500000Y-67000000D03*
X85000000Y-66000000D03*
X83000000Y-67000000D03*
X87500000Y-68000000D03*
X89500000Y-69000000D03*
X85000000Y-68000000D03*
X83000000Y-69000000D03*
X87500000Y-70000000D03*
X89500000Y-71000000D03*
X85000000Y-70000000D03*
X83000000Y-71000000D03*
X87500000Y-72000000D03*
X85000000Y-72000000D03*
X89500000Y-73000000D03*
X83000000Y-73000000D03*
X87500000Y-74000000D03*
X89500000Y-75000000D03*
X85000000Y-74000000D03*
X83000000Y-75000000D03*
X87500000Y-76000000D03*
X89500000Y-77000000D03*
X85000000Y-76000000D03*
X83000000Y-77000000D03*
X87500000Y-78000000D03*
X89500000Y-79000000D03*
X85000000Y-78000000D03*
X83000000Y-79000000D03*
X87500000Y-80000000D03*
X89500000Y-81000000D03*
X85000000Y-80000000D03*
X83000000Y-81000000D03*
X87500000Y-82000000D03*
X85000000Y-82000000D03*
X89500000Y-83000000D03*
X83000000Y-83000000D03*
D14*
X86250000Y-61650000D03*
X86250000Y-101810000D03*
D13*
X87500000Y-84000000D03*
X89500000Y-85000000D03*
X85000000Y-84000000D03*
X83000000Y-85000000D03*
X87500000Y-86000000D03*
X85000000Y-86000000D03*
X89500000Y-87000000D03*
X83000000Y-87000000D03*
X87500000Y-88000000D03*
X89500000Y-89000000D03*
X85000000Y-88000000D03*
X83000000Y-89000000D03*
X87500000Y-90000000D03*
X85000000Y-90000000D03*
X89500000Y-91000000D03*
X83000000Y-91000000D03*
X87500000Y-92000000D03*
X89500000Y-93000000D03*
X85000000Y-92000000D03*
X83000000Y-93000000D03*
X87500000Y-94000000D03*
X85000000Y-94000000D03*
X89500000Y-95000000D03*
X83000000Y-95000000D03*
X87500000Y-96000000D03*
X89500000Y-97000000D03*
X85000000Y-96000000D03*
X83000000Y-97000000D03*
X87500000Y-98000000D03*
X85000000Y-98000000D03*
X89500000Y-99000000D03*
X83000000Y-99000000D03*
X85000000Y-100000000D03*
X87500000Y-100000000D03*
%TD*%
%TO.C,J4*%
X102500000Y-100000000D03*
X100000000Y-100000000D03*
X98000000Y-99000000D03*
X104500000Y-99000000D03*
X100000000Y-98000000D03*
X102500000Y-98000000D03*
X98000000Y-97000000D03*
X100000000Y-96000000D03*
X104500000Y-97000000D03*
X102500000Y-96000000D03*
X98000000Y-95000000D03*
X104500000Y-95000000D03*
X100000000Y-94000000D03*
X102500000Y-94000000D03*
X98000000Y-93000000D03*
X100000000Y-92000000D03*
X104500000Y-93000000D03*
X102500000Y-92000000D03*
X98000000Y-91000000D03*
X104500000Y-91000000D03*
X100000000Y-90000000D03*
X102500000Y-90000000D03*
X98000000Y-89000000D03*
X100000000Y-88000000D03*
X104500000Y-89000000D03*
X102500000Y-88000000D03*
X98000000Y-87000000D03*
X104500000Y-87000000D03*
X100000000Y-86000000D03*
X102500000Y-86000000D03*
X98000000Y-85000000D03*
X100000000Y-84000000D03*
X104500000Y-85000000D03*
X102500000Y-84000000D03*
D14*
X101250000Y-101810000D03*
X101250000Y-61650000D03*
D13*
X98000000Y-83000000D03*
X104500000Y-83000000D03*
X100000000Y-82000000D03*
X102500000Y-82000000D03*
X98000000Y-81000000D03*
X100000000Y-80000000D03*
X104500000Y-81000000D03*
X102500000Y-80000000D03*
X98000000Y-79000000D03*
X100000000Y-78000000D03*
X104500000Y-79000000D03*
X102500000Y-78000000D03*
X98000000Y-77000000D03*
X100000000Y-76000000D03*
X104500000Y-77000000D03*
X102500000Y-76000000D03*
X98000000Y-75000000D03*
X100000000Y-74000000D03*
X104500000Y-75000000D03*
X102500000Y-74000000D03*
X98000000Y-73000000D03*
X104500000Y-73000000D03*
X100000000Y-72000000D03*
X102500000Y-72000000D03*
X98000000Y-71000000D03*
X100000000Y-70000000D03*
X104500000Y-71000000D03*
X102500000Y-70000000D03*
X98000000Y-69000000D03*
X100000000Y-68000000D03*
X104500000Y-69000000D03*
X102500000Y-68000000D03*
X98000000Y-67000000D03*
X100000000Y-66000000D03*
X104500000Y-67000000D03*
X102500000Y-66000000D03*
X98000000Y-65000000D03*
X100000000Y-64000000D03*
X104500000Y-65000000D03*
X102500000Y-64000000D03*
X98000000Y-63000000D03*
X104500000Y-63000000D03*
X100000000Y-60000000D03*
X102500000Y-60000000D03*
X98000000Y-59000000D03*
X100000000Y-58000000D03*
X104500000Y-59000000D03*
X102500000Y-58000000D03*
X98000000Y-57000000D03*
X100000000Y-56000000D03*
X104500000Y-57000000D03*
X102500000Y-56000000D03*
X98000000Y-55000000D03*
X100000000Y-54000000D03*
X104500000Y-55000000D03*
X102500000Y-54000000D03*
X98000000Y-53000000D03*
X100000000Y-52000000D03*
X104500000Y-53000000D03*
X102500000Y-52000000D03*
X98000000Y-51000000D03*
X100000000Y-50000000D03*
X104500000Y-51000000D03*
D12*
X102500000Y-50000000D03*
%TD*%
%TO.C,J5*%
X117500000Y-50000000D03*
D13*
X119500000Y-51000000D03*
X115000000Y-50000000D03*
X113000000Y-51000000D03*
X117500000Y-52000000D03*
X119500000Y-53000000D03*
X115000000Y-52000000D03*
X113000000Y-53000000D03*
X117500000Y-54000000D03*
X119500000Y-55000000D03*
X115000000Y-54000000D03*
X113000000Y-55000000D03*
X117500000Y-56000000D03*
X119500000Y-57000000D03*
X115000000Y-56000000D03*
X113000000Y-57000000D03*
X117500000Y-58000000D03*
X119500000Y-59000000D03*
X115000000Y-58000000D03*
X113000000Y-59000000D03*
X117500000Y-60000000D03*
X115000000Y-60000000D03*
X119500000Y-63000000D03*
X113000000Y-63000000D03*
X117500000Y-64000000D03*
X119500000Y-65000000D03*
X115000000Y-64000000D03*
X113000000Y-65000000D03*
X117500000Y-66000000D03*
X119500000Y-67000000D03*
X115000000Y-66000000D03*
X113000000Y-67000000D03*
X117500000Y-68000000D03*
X119500000Y-69000000D03*
X115000000Y-68000000D03*
X113000000Y-69000000D03*
X117500000Y-70000000D03*
X119500000Y-71000000D03*
X115000000Y-70000000D03*
X113000000Y-71000000D03*
X117500000Y-72000000D03*
X115000000Y-72000000D03*
X119500000Y-73000000D03*
X113000000Y-73000000D03*
X117500000Y-74000000D03*
X119500000Y-75000000D03*
X115000000Y-74000000D03*
X113000000Y-75000000D03*
X117500000Y-76000000D03*
X119500000Y-77000000D03*
X115000000Y-76000000D03*
X113000000Y-77000000D03*
X117500000Y-78000000D03*
X119500000Y-79000000D03*
X115000000Y-78000000D03*
X113000000Y-79000000D03*
X117500000Y-80000000D03*
X119500000Y-81000000D03*
X115000000Y-80000000D03*
X113000000Y-81000000D03*
X117500000Y-82000000D03*
X115000000Y-82000000D03*
X119500000Y-83000000D03*
X113000000Y-83000000D03*
D14*
X116250000Y-61650000D03*
X116250000Y-101810000D03*
D13*
X117500000Y-84000000D03*
X119500000Y-85000000D03*
X115000000Y-84000000D03*
X113000000Y-85000000D03*
X117500000Y-86000000D03*
X115000000Y-86000000D03*
X119500000Y-87000000D03*
X113000000Y-87000000D03*
X117500000Y-88000000D03*
X119500000Y-89000000D03*
X115000000Y-88000000D03*
X113000000Y-89000000D03*
X117500000Y-90000000D03*
X115000000Y-90000000D03*
X119500000Y-91000000D03*
X113000000Y-91000000D03*
X117500000Y-92000000D03*
X119500000Y-93000000D03*
X115000000Y-92000000D03*
X113000000Y-93000000D03*
X117500000Y-94000000D03*
X115000000Y-94000000D03*
X119500000Y-95000000D03*
X113000000Y-95000000D03*
X117500000Y-96000000D03*
X119500000Y-97000000D03*
X115000000Y-96000000D03*
X113000000Y-97000000D03*
X117500000Y-98000000D03*
X115000000Y-98000000D03*
X119500000Y-99000000D03*
X113000000Y-99000000D03*
X115000000Y-100000000D03*
X117500000Y-100000000D03*
%TD*%
%TO.C,J6*%
X138000000Y-100000000D03*
X135500000Y-100000000D03*
X133500000Y-99000000D03*
X140000000Y-99000000D03*
X135500000Y-98000000D03*
X138000000Y-98000000D03*
X133500000Y-97000000D03*
X135500000Y-96000000D03*
X140000000Y-97000000D03*
X138000000Y-96000000D03*
X133500000Y-95000000D03*
X140000000Y-95000000D03*
X135500000Y-94000000D03*
X138000000Y-94000000D03*
X133500000Y-93000000D03*
X135500000Y-92000000D03*
X140000000Y-93000000D03*
X138000000Y-92000000D03*
X133500000Y-91000000D03*
X140000000Y-91000000D03*
X135500000Y-90000000D03*
X138000000Y-90000000D03*
X133500000Y-89000000D03*
X135500000Y-88000000D03*
X140000000Y-89000000D03*
X138000000Y-88000000D03*
X133500000Y-87000000D03*
X140000000Y-87000000D03*
X135500000Y-86000000D03*
X138000000Y-86000000D03*
X133500000Y-85000000D03*
X135500000Y-84000000D03*
X140000000Y-85000000D03*
X138000000Y-84000000D03*
D14*
X136750000Y-101810000D03*
X136750000Y-61650000D03*
D13*
X133500000Y-83000000D03*
X140000000Y-83000000D03*
X135500000Y-82000000D03*
X138000000Y-82000000D03*
X133500000Y-81000000D03*
X135500000Y-80000000D03*
X140000000Y-81000000D03*
X138000000Y-80000000D03*
X133500000Y-79000000D03*
X135500000Y-78000000D03*
X140000000Y-79000000D03*
X138000000Y-78000000D03*
X133500000Y-77000000D03*
X135500000Y-76000000D03*
X140000000Y-77000000D03*
X138000000Y-76000000D03*
X133500000Y-75000000D03*
X135500000Y-74000000D03*
X140000000Y-75000000D03*
X138000000Y-74000000D03*
X133500000Y-73000000D03*
X140000000Y-73000000D03*
X135500000Y-72000000D03*
X138000000Y-72000000D03*
X133500000Y-71000000D03*
X135500000Y-70000000D03*
X140000000Y-71000000D03*
X138000000Y-70000000D03*
X133500000Y-69000000D03*
X135500000Y-68000000D03*
X140000000Y-69000000D03*
X138000000Y-68000000D03*
X133500000Y-67000000D03*
X135500000Y-66000000D03*
X140000000Y-67000000D03*
X138000000Y-66000000D03*
X133500000Y-65000000D03*
X135500000Y-64000000D03*
X140000000Y-65000000D03*
X138000000Y-64000000D03*
X133500000Y-63000000D03*
X140000000Y-63000000D03*
X135500000Y-60000000D03*
X138000000Y-60000000D03*
X133500000Y-59000000D03*
X135500000Y-58000000D03*
X140000000Y-59000000D03*
X138000000Y-58000000D03*
X133500000Y-57000000D03*
X135500000Y-56000000D03*
X140000000Y-57000000D03*
X138000000Y-56000000D03*
X133500000Y-55000000D03*
X135500000Y-54000000D03*
X140000000Y-55000000D03*
X138000000Y-54000000D03*
X133500000Y-53000000D03*
X135500000Y-52000000D03*
X140000000Y-53000000D03*
X138000000Y-52000000D03*
X133500000Y-51000000D03*
X135500000Y-50000000D03*
X140000000Y-51000000D03*
D12*
X138000000Y-50000000D03*
%TD*%
%TO.C,J7*%
X153000000Y-50000000D03*
D13*
X155000000Y-51000000D03*
X150500000Y-50000000D03*
X148500000Y-51000000D03*
X153000000Y-52000000D03*
X155000000Y-53000000D03*
X150500000Y-52000000D03*
X148500000Y-53000000D03*
X153000000Y-54000000D03*
X155000000Y-55000000D03*
X150500000Y-54000000D03*
X148500000Y-55000000D03*
X153000000Y-56000000D03*
X155000000Y-57000000D03*
X150500000Y-56000000D03*
X148500000Y-57000000D03*
X153000000Y-58000000D03*
X155000000Y-59000000D03*
X150500000Y-58000000D03*
X148500000Y-59000000D03*
X153000000Y-60000000D03*
X150500000Y-60000000D03*
X155000000Y-63000000D03*
X148500000Y-63000000D03*
X153000000Y-64000000D03*
X155000000Y-65000000D03*
X150500000Y-64000000D03*
X148500000Y-65000000D03*
X153000000Y-66000000D03*
X155000000Y-67000000D03*
X150500000Y-66000000D03*
X148500000Y-67000000D03*
X153000000Y-68000000D03*
X155000000Y-69000000D03*
X150500000Y-68000000D03*
X148500000Y-69000000D03*
X153000000Y-70000000D03*
X155000000Y-71000000D03*
X150500000Y-70000000D03*
X148500000Y-71000000D03*
X153000000Y-72000000D03*
X150500000Y-72000000D03*
X155000000Y-73000000D03*
X148500000Y-73000000D03*
X153000000Y-74000000D03*
X155000000Y-75000000D03*
X150500000Y-74000000D03*
X148500000Y-75000000D03*
X153000000Y-76000000D03*
X155000000Y-77000000D03*
X150500000Y-76000000D03*
X148500000Y-77000000D03*
X153000000Y-78000000D03*
X155000000Y-79000000D03*
X150500000Y-78000000D03*
X148500000Y-79000000D03*
X153000000Y-80000000D03*
X155000000Y-81000000D03*
X150500000Y-80000000D03*
X148500000Y-81000000D03*
X153000000Y-82000000D03*
X150500000Y-82000000D03*
X155000000Y-83000000D03*
X148500000Y-83000000D03*
D14*
X151750000Y-61650000D03*
X151750000Y-101810000D03*
D13*
X153000000Y-84000000D03*
X155000000Y-85000000D03*
X150500000Y-84000000D03*
X148500000Y-85000000D03*
X153000000Y-86000000D03*
X150500000Y-86000000D03*
X155000000Y-87000000D03*
X148500000Y-87000000D03*
X153000000Y-88000000D03*
X155000000Y-89000000D03*
X150500000Y-88000000D03*
X148500000Y-89000000D03*
X153000000Y-90000000D03*
X150500000Y-90000000D03*
X155000000Y-91000000D03*
X148500000Y-91000000D03*
X153000000Y-92000000D03*
X155000000Y-93000000D03*
X150500000Y-92000000D03*
X148500000Y-93000000D03*
X153000000Y-94000000D03*
X150500000Y-94000000D03*
X155000000Y-95000000D03*
X148500000Y-95000000D03*
X153000000Y-96000000D03*
X155000000Y-97000000D03*
X150500000Y-96000000D03*
X148500000Y-97000000D03*
X153000000Y-98000000D03*
X150500000Y-98000000D03*
X155000000Y-99000000D03*
X148500000Y-99000000D03*
X150500000Y-100000000D03*
X153000000Y-100000000D03*
%TD*%
%TO.C,J8*%
X168000000Y-100000000D03*
X165500000Y-100000000D03*
X163500000Y-99000000D03*
X170000000Y-99000000D03*
X165500000Y-98000000D03*
X168000000Y-98000000D03*
X163500000Y-97000000D03*
X165500000Y-96000000D03*
X170000000Y-97000000D03*
X168000000Y-96000000D03*
X163500000Y-95000000D03*
X170000000Y-95000000D03*
X165500000Y-94000000D03*
X168000000Y-94000000D03*
X163500000Y-93000000D03*
X165500000Y-92000000D03*
X170000000Y-93000000D03*
X168000000Y-92000000D03*
X163500000Y-91000000D03*
X170000000Y-91000000D03*
X165500000Y-90000000D03*
X168000000Y-90000000D03*
X163500000Y-89000000D03*
X165500000Y-88000000D03*
X170000000Y-89000000D03*
X168000000Y-88000000D03*
X163500000Y-87000000D03*
X170000000Y-87000000D03*
X165500000Y-86000000D03*
X168000000Y-86000000D03*
X163500000Y-85000000D03*
X165500000Y-84000000D03*
X170000000Y-85000000D03*
X168000000Y-84000000D03*
D14*
X166750000Y-101810000D03*
X166750000Y-61650000D03*
D13*
X163500000Y-83000000D03*
X170000000Y-83000000D03*
X165500000Y-82000000D03*
X168000000Y-82000000D03*
X163500000Y-81000000D03*
X165500000Y-80000000D03*
X170000000Y-81000000D03*
X168000000Y-80000000D03*
X163500000Y-79000000D03*
X165500000Y-78000000D03*
X170000000Y-79000000D03*
X168000000Y-78000000D03*
X163500000Y-77000000D03*
X165500000Y-76000000D03*
X170000000Y-77000000D03*
X168000000Y-76000000D03*
X163500000Y-75000000D03*
X165500000Y-74000000D03*
X170000000Y-75000000D03*
X168000000Y-74000000D03*
X163500000Y-73000000D03*
X170000000Y-73000000D03*
X165500000Y-72000000D03*
X168000000Y-72000000D03*
X163500000Y-71000000D03*
X165500000Y-70000000D03*
X170000000Y-71000000D03*
X168000000Y-70000000D03*
X163500000Y-69000000D03*
X165500000Y-68000000D03*
X170000000Y-69000000D03*
X168000000Y-68000000D03*
X163500000Y-67000000D03*
X165500000Y-66000000D03*
X170000000Y-67000000D03*
X168000000Y-66000000D03*
X163500000Y-65000000D03*
X165500000Y-64000000D03*
X170000000Y-65000000D03*
X168000000Y-64000000D03*
X163500000Y-63000000D03*
X170000000Y-63000000D03*
X165500000Y-60000000D03*
X168000000Y-60000000D03*
X163500000Y-59000000D03*
X165500000Y-58000000D03*
X170000000Y-59000000D03*
X168000000Y-58000000D03*
X163500000Y-57000000D03*
X165500000Y-56000000D03*
X170000000Y-57000000D03*
X168000000Y-56000000D03*
X163500000Y-55000000D03*
X165500000Y-54000000D03*
X170000000Y-55000000D03*
X168000000Y-54000000D03*
X163500000Y-53000000D03*
X165500000Y-52000000D03*
X170000000Y-53000000D03*
X168000000Y-52000000D03*
X163500000Y-51000000D03*
X165500000Y-50000000D03*
X170000000Y-51000000D03*
D12*
X168000000Y-50000000D03*
%TD*%
%TO.C,J9*%
X183000000Y-50000000D03*
D13*
X185000000Y-51000000D03*
X180500000Y-50000000D03*
X178500000Y-51000000D03*
X183000000Y-52000000D03*
X185000000Y-53000000D03*
X180500000Y-52000000D03*
X178500000Y-53000000D03*
X183000000Y-54000000D03*
X185000000Y-55000000D03*
X180500000Y-54000000D03*
X178500000Y-55000000D03*
X183000000Y-56000000D03*
X185000000Y-57000000D03*
X180500000Y-56000000D03*
X178500000Y-57000000D03*
X183000000Y-58000000D03*
X185000000Y-59000000D03*
X180500000Y-58000000D03*
X178500000Y-59000000D03*
X183000000Y-60000000D03*
X180500000Y-60000000D03*
X185000000Y-63000000D03*
X178500000Y-63000000D03*
X183000000Y-64000000D03*
X185000000Y-65000000D03*
X180500000Y-64000000D03*
X178500000Y-65000000D03*
X183000000Y-66000000D03*
X185000000Y-67000000D03*
X180500000Y-66000000D03*
X178500000Y-67000000D03*
X183000000Y-68000000D03*
X185000000Y-69000000D03*
X180500000Y-68000000D03*
X178500000Y-69000000D03*
X183000000Y-70000000D03*
X185000000Y-71000000D03*
X180500000Y-70000000D03*
X178500000Y-71000000D03*
X183000000Y-72000000D03*
X180500000Y-72000000D03*
X185000000Y-73000000D03*
X178500000Y-73000000D03*
X183000000Y-74000000D03*
X185000000Y-75000000D03*
X180500000Y-74000000D03*
X178500000Y-75000000D03*
X183000000Y-76000000D03*
X185000000Y-77000000D03*
X180500000Y-76000000D03*
X178500000Y-77000000D03*
X183000000Y-78000000D03*
X185000000Y-79000000D03*
X180500000Y-78000000D03*
X178500000Y-79000000D03*
X183000000Y-80000000D03*
X185000000Y-81000000D03*
X180500000Y-80000000D03*
X178500000Y-81000000D03*
X183000000Y-82000000D03*
X180500000Y-82000000D03*
X185000000Y-83000000D03*
X178500000Y-83000000D03*
D14*
X181750000Y-61650000D03*
X181750000Y-101810000D03*
D13*
X183000000Y-84000000D03*
X185000000Y-85000000D03*
X180500000Y-84000000D03*
X178500000Y-85000000D03*
X183000000Y-86000000D03*
X180500000Y-86000000D03*
X185000000Y-87000000D03*
X178500000Y-87000000D03*
X183000000Y-88000000D03*
X185000000Y-89000000D03*
X180500000Y-88000000D03*
X178500000Y-89000000D03*
X183000000Y-90000000D03*
X180500000Y-90000000D03*
X185000000Y-91000000D03*
X178500000Y-91000000D03*
X183000000Y-92000000D03*
X185000000Y-93000000D03*
X180500000Y-92000000D03*
X178500000Y-93000000D03*
X183000000Y-94000000D03*
X180500000Y-94000000D03*
X185000000Y-95000000D03*
X178500000Y-95000000D03*
X183000000Y-96000000D03*
X185000000Y-97000000D03*
X180500000Y-96000000D03*
X178500000Y-97000000D03*
X183000000Y-98000000D03*
X180500000Y-98000000D03*
X185000000Y-99000000D03*
X178500000Y-99000000D03*
X180500000Y-100000000D03*
X183000000Y-100000000D03*
%TD*%
%TO.C,J10*%
X198000000Y-100000000D03*
X195500000Y-100000000D03*
X193500000Y-99000000D03*
X200000000Y-99000000D03*
X195500000Y-98000000D03*
X198000000Y-98000000D03*
X193500000Y-97000000D03*
X195500000Y-96000000D03*
X200000000Y-97000000D03*
X198000000Y-96000000D03*
X193500000Y-95000000D03*
X200000000Y-95000000D03*
X195500000Y-94000000D03*
X198000000Y-94000000D03*
X193500000Y-93000000D03*
X195500000Y-92000000D03*
X200000000Y-93000000D03*
X198000000Y-92000000D03*
X193500000Y-91000000D03*
X200000000Y-91000000D03*
X195500000Y-90000000D03*
X198000000Y-90000000D03*
X193500000Y-89000000D03*
X195500000Y-88000000D03*
X200000000Y-89000000D03*
X198000000Y-88000000D03*
X193500000Y-87000000D03*
X200000000Y-87000000D03*
X195500000Y-86000000D03*
X198000000Y-86000000D03*
X193500000Y-85000000D03*
X195500000Y-84000000D03*
X200000000Y-85000000D03*
X198000000Y-84000000D03*
D14*
X196750000Y-101810000D03*
X196750000Y-61650000D03*
D13*
X193500000Y-83000000D03*
X200000000Y-83000000D03*
X195500000Y-82000000D03*
X198000000Y-82000000D03*
X193500000Y-81000000D03*
X195500000Y-80000000D03*
X200000000Y-81000000D03*
X198000000Y-80000000D03*
X193500000Y-79000000D03*
X195500000Y-78000000D03*
X200000000Y-79000000D03*
X198000000Y-78000000D03*
X193500000Y-77000000D03*
X195500000Y-76000000D03*
X200000000Y-77000000D03*
X198000000Y-76000000D03*
X193500000Y-75000000D03*
X195500000Y-74000000D03*
X200000000Y-75000000D03*
X198000000Y-74000000D03*
X193500000Y-73000000D03*
X200000000Y-73000000D03*
X195500000Y-72000000D03*
X198000000Y-72000000D03*
X193500000Y-71000000D03*
X195500000Y-70000000D03*
X200000000Y-71000000D03*
X198000000Y-70000000D03*
X193500000Y-69000000D03*
X195500000Y-68000000D03*
X200000000Y-69000000D03*
X198000000Y-68000000D03*
X193500000Y-67000000D03*
X195500000Y-66000000D03*
X200000000Y-67000000D03*
X198000000Y-66000000D03*
X193500000Y-65000000D03*
X195500000Y-64000000D03*
X200000000Y-65000000D03*
X198000000Y-64000000D03*
X193500000Y-63000000D03*
X200000000Y-63000000D03*
X195500000Y-60000000D03*
X198000000Y-60000000D03*
X193500000Y-59000000D03*
X195500000Y-58000000D03*
X200000000Y-59000000D03*
X198000000Y-58000000D03*
X193500000Y-57000000D03*
X195500000Y-56000000D03*
X200000000Y-57000000D03*
X198000000Y-56000000D03*
X193500000Y-55000000D03*
X195500000Y-54000000D03*
X200000000Y-55000000D03*
X198000000Y-54000000D03*
X193500000Y-53000000D03*
X195500000Y-52000000D03*
X200000000Y-53000000D03*
X198000000Y-52000000D03*
X193500000Y-51000000D03*
X195500000Y-50000000D03*
X200000000Y-51000000D03*
D12*
X198000000Y-50000000D03*
%TD*%
M02*
