%FSLAX45Y45*%
G04 Gerber Fmt 4.5, Leading zero omitted, Abs format (unit mm)*
G04 Created by KiCad (PCBNEW (5.1.9-16-g1737927814)-1) date 2021-09-18 11:44:40*
%MOMM*%
%LPD*%
G01*
G04 APERTURE LIST*
%TA.AperFunction,Profile*%
%ADD10C,0.100000*%
%TD*%
%ADD11C,0.200000*%
%ADD12C,0.300000*%
G04 APERTURE END LIST*
D10*
X4000000Y-4500000D02*
X4000000Y-11000000D01*
X23000000Y-4500000D02*
X4000000Y-4500000D01*
X23000000Y-11000000D02*
X23000000Y-4500000D01*
X4000000Y-11000000D02*
X23000000Y-11000000D01*
D11*
X4382500Y-6366500D02*
X4617500Y-6601500D01*
X4617500Y-6366500D02*
X4382500Y-6601500D01*
X4382500Y-10382500D02*
X4617500Y-10617500D01*
X4617500Y-10382500D02*
X4382500Y-10617500D01*
X6382500Y-6366500D02*
X6617500Y-6601500D01*
X6617500Y-6366500D02*
X6382500Y-6601500D01*
X6382500Y-10382500D02*
X6617500Y-10617500D01*
X6617500Y-10382500D02*
X6382500Y-10617500D01*
X8382500Y-6366500D02*
X8617500Y-6601500D01*
X8617500Y-6366500D02*
X8382500Y-6601500D01*
X8382500Y-10382500D02*
X8617500Y-10617500D01*
X8617500Y-10382500D02*
X8382500Y-10617500D01*
X10382500Y-6366500D02*
X10617500Y-6601500D01*
X10617500Y-6366500D02*
X10382500Y-6601500D01*
X10382500Y-10382500D02*
X10617500Y-10617500D01*
X10617500Y-10382500D02*
X10382500Y-10617500D01*
X12382500Y-6366500D02*
X12617500Y-6601500D01*
X12617500Y-6366500D02*
X12382500Y-6601500D01*
X12382500Y-10382500D02*
X12617500Y-10617500D01*
X12617500Y-10382500D02*
X12382500Y-10617500D01*
X14382500Y-6366500D02*
X14617500Y-6601500D01*
X14617500Y-6366500D02*
X14382500Y-6601500D01*
X14382500Y-10382500D02*
X14617500Y-10617500D01*
X14617500Y-10382500D02*
X14382500Y-10617500D01*
X16382500Y-6366500D02*
X16617500Y-6601500D01*
X16617500Y-6366500D02*
X16382500Y-6601500D01*
X16382500Y-10382500D02*
X16617500Y-10617500D01*
X16617500Y-10382500D02*
X16382500Y-10617500D01*
X18382500Y-6366500D02*
X18617500Y-6601500D01*
X18617500Y-6366500D02*
X18382500Y-6601500D01*
X18382500Y-10382500D02*
X18617500Y-10617500D01*
X18617500Y-10382500D02*
X18382500Y-10617500D01*
X20382500Y-6366500D02*
X20617500Y-6601500D01*
X20617500Y-6366500D02*
X20382500Y-6601500D01*
X20382500Y-10382500D02*
X20617500Y-10617500D01*
X20617500Y-10382500D02*
X20382500Y-10617500D01*
X22382500Y-6366500D02*
X22617500Y-6601500D01*
X22617500Y-6366500D02*
X22382500Y-6601500D01*
X22382500Y-10382500D02*
X22617500Y-10617500D01*
X22617500Y-10382500D02*
X22382500Y-10617500D01*
X5675000Y-6250000D02*
G75*
G03*
X5675000Y-6250000I-175000J0D01*
G01*
X5675000Y-7500000D02*
G75*
G03*
X5675000Y-7500000I-175000J0D01*
G01*
X5675000Y-8750000D02*
G75*
G03*
X5675000Y-8750000I-175000J0D01*
G01*
X13675000Y-6250000D02*
G75*
G03*
X13675000Y-6250000I-175000J0D01*
G01*
X13675000Y-7500000D02*
G75*
G03*
X13675000Y-7500000I-175000J0D01*
G01*
X13675000Y-8750000D02*
G75*
G03*
X13675000Y-8750000I-175000J0D01*
G01*
X21675000Y-6250000D02*
G75*
G03*
X21675000Y-6250000I-175000J0D01*
G01*
X21675000Y-7500000D02*
G75*
G03*
X21675000Y-7500000I-175000J0D01*
G01*
X21675000Y-8750000D02*
G75*
G03*
X21675000Y-8750000I-175000J0D01*
G01*
X5500000Y-9650000D02*
X5500000Y-10150000D01*
X5250000Y-9900000D02*
X5750000Y-9900000D01*
X5250000Y-10140000D02*
X5750000Y-10140000D01*
X5250000Y-9660000D02*
X5750000Y-9660000D01*
X5750000Y-10140000D02*
G75*
G03*
X5750000Y-9660000I0J240000D01*
G01*
X5250000Y-9660000D02*
G75*
G03*
X5250000Y-10140000I0J-240000D01*
G01*
X13500000Y-9650000D02*
X13500000Y-10150000D01*
X13250000Y-9900000D02*
X13750000Y-9900000D01*
X13250000Y-10140000D02*
X13750000Y-10140000D01*
X13250000Y-9660000D02*
X13750000Y-9660000D01*
X13750000Y-10140000D02*
G75*
G03*
X13750000Y-9660000I0J240000D01*
G01*
X13250000Y-9660000D02*
G75*
G03*
X13250000Y-10140000I0J-240000D01*
G01*
X21500000Y-9650000D02*
X21500000Y-10150000D01*
X21250000Y-9900000D02*
X21750000Y-9900000D01*
X21250000Y-10140000D02*
X21750000Y-10140000D01*
X21250000Y-9660000D02*
X21750000Y-9660000D01*
X21750000Y-10140000D02*
G75*
G03*
X21750000Y-9660000I0J240000D01*
G01*
X21250000Y-9660000D02*
G75*
G03*
X21250000Y-10140000I0J-240000D01*
G01*
D12*
X3536428Y-12215714D02*
X3536428Y-11915714D01*
X3607857Y-11915714D01*
X3650714Y-11930000D01*
X3679286Y-11958571D01*
X3693571Y-11987143D01*
X3707857Y-12044286D01*
X3707857Y-12087143D01*
X3693571Y-12144286D01*
X3679286Y-12172857D01*
X3650714Y-12201428D01*
X3607857Y-12215714D01*
X3536428Y-12215714D01*
X3836428Y-12215714D02*
X3836428Y-12015714D01*
X3836428Y-12072857D02*
X3850714Y-12044286D01*
X3865000Y-12030000D01*
X3893571Y-12015714D01*
X3922143Y-12015714D01*
X4022143Y-12215714D02*
X4022143Y-12015714D01*
X4022143Y-11915714D02*
X4007857Y-11930000D01*
X4022143Y-11944286D01*
X4036428Y-11930000D01*
X4022143Y-11915714D01*
X4022143Y-11944286D01*
X4207857Y-12215714D02*
X4179286Y-12201428D01*
X4165000Y-12172857D01*
X4165000Y-11915714D01*
X4365000Y-12215714D02*
X4336429Y-12201428D01*
X4322143Y-12172857D01*
X4322143Y-11915714D01*
X4707857Y-12215714D02*
X4707857Y-11915714D01*
X4807857Y-12130000D01*
X4907857Y-11915714D01*
X4907857Y-12215714D01*
X5179286Y-12215714D02*
X5179286Y-12058571D01*
X5165000Y-12030000D01*
X5136429Y-12015714D01*
X5079286Y-12015714D01*
X5050714Y-12030000D01*
X5179286Y-12201428D02*
X5150714Y-12215714D01*
X5079286Y-12215714D01*
X5050714Y-12201428D01*
X5036429Y-12172857D01*
X5036429Y-12144286D01*
X5050714Y-12115714D01*
X5079286Y-12101428D01*
X5150714Y-12101428D01*
X5179286Y-12087143D01*
X5322143Y-12015714D02*
X5322143Y-12315714D01*
X5322143Y-12030000D02*
X5350714Y-12015714D01*
X5407857Y-12015714D01*
X5436429Y-12030000D01*
X5450714Y-12044286D01*
X5465000Y-12072857D01*
X5465000Y-12158571D01*
X5450714Y-12187143D01*
X5436429Y-12201428D01*
X5407857Y-12215714D01*
X5350714Y-12215714D01*
X5322143Y-12201428D01*
X5593571Y-12187143D02*
X5607857Y-12201428D01*
X5593571Y-12215714D01*
X5579286Y-12201428D01*
X5593571Y-12187143D01*
X5593571Y-12215714D01*
X5593571Y-12030000D02*
X5607857Y-12044286D01*
X5593571Y-12058571D01*
X5579286Y-12044286D01*
X5593571Y-12030000D01*
X5593571Y-12058571D01*
X3015000Y-12592500D02*
X3250000Y-12827500D01*
X3250000Y-12592500D02*
X3015000Y-12827500D01*
X3522143Y-12574286D02*
X3536428Y-12560000D01*
X3565000Y-12545714D01*
X3636428Y-12545714D01*
X3665000Y-12560000D01*
X3679286Y-12574286D01*
X3693571Y-12602857D01*
X3693571Y-12631428D01*
X3679286Y-12674286D01*
X3507857Y-12845714D01*
X3693571Y-12845714D01*
X3822143Y-12817143D02*
X3836428Y-12831428D01*
X3822143Y-12845714D01*
X3807857Y-12831428D01*
X3822143Y-12817143D01*
X3822143Y-12845714D01*
X3936428Y-12545714D02*
X4122143Y-12545714D01*
X4022143Y-12660000D01*
X4065000Y-12660000D01*
X4093571Y-12674286D01*
X4107857Y-12688571D01*
X4122143Y-12717143D01*
X4122143Y-12788571D01*
X4107857Y-12817143D01*
X4093571Y-12831428D01*
X4065000Y-12845714D01*
X3979286Y-12845714D01*
X3950714Y-12831428D01*
X3936428Y-12817143D01*
X4393571Y-12545714D02*
X4250714Y-12545714D01*
X4236429Y-12688571D01*
X4250714Y-12674286D01*
X4279286Y-12660000D01*
X4350714Y-12660000D01*
X4379286Y-12674286D01*
X4393571Y-12688571D01*
X4407857Y-12717143D01*
X4407857Y-12788571D01*
X4393571Y-12817143D01*
X4379286Y-12831428D01*
X4350714Y-12845714D01*
X4279286Y-12845714D01*
X4250714Y-12831428D01*
X4236429Y-12817143D01*
X4536429Y-12845714D02*
X4536429Y-12645714D01*
X4536429Y-12674286D02*
X4550714Y-12660000D01*
X4579286Y-12645714D01*
X4622143Y-12645714D01*
X4650714Y-12660000D01*
X4665000Y-12688571D01*
X4665000Y-12845714D01*
X4665000Y-12688571D02*
X4679286Y-12660000D01*
X4707857Y-12645714D01*
X4750714Y-12645714D01*
X4779286Y-12660000D01*
X4793571Y-12688571D01*
X4793571Y-12845714D01*
X4936429Y-12845714D02*
X4936429Y-12645714D01*
X4936429Y-12674286D02*
X4950714Y-12660000D01*
X4979286Y-12645714D01*
X5022143Y-12645714D01*
X5050714Y-12660000D01*
X5065000Y-12688571D01*
X5065000Y-12845714D01*
X5065000Y-12688571D02*
X5079286Y-12660000D01*
X5107857Y-12645714D01*
X5150714Y-12645714D01*
X5179286Y-12660000D01*
X5193571Y-12688571D01*
X5193571Y-12845714D01*
X5779286Y-12531428D02*
X5522143Y-12917143D01*
X6165000Y-12545714D02*
X6193571Y-12545714D01*
X6222143Y-12560000D01*
X6236428Y-12574286D01*
X6250714Y-12602857D01*
X6265000Y-12660000D01*
X6265000Y-12731428D01*
X6250714Y-12788571D01*
X6236428Y-12817143D01*
X6222143Y-12831428D01*
X6193571Y-12845714D01*
X6165000Y-12845714D01*
X6136428Y-12831428D01*
X6122143Y-12817143D01*
X6107857Y-12788571D01*
X6093571Y-12731428D01*
X6093571Y-12660000D01*
X6107857Y-12602857D01*
X6122143Y-12574286D01*
X6136428Y-12560000D01*
X6165000Y-12545714D01*
X6393571Y-12817143D02*
X6407857Y-12831428D01*
X6393571Y-12845714D01*
X6379286Y-12831428D01*
X6393571Y-12817143D01*
X6393571Y-12845714D01*
X6593571Y-12545714D02*
X6622143Y-12545714D01*
X6650714Y-12560000D01*
X6665000Y-12574286D01*
X6679286Y-12602857D01*
X6693571Y-12660000D01*
X6693571Y-12731428D01*
X6679286Y-12788571D01*
X6665000Y-12817143D01*
X6650714Y-12831428D01*
X6622143Y-12845714D01*
X6593571Y-12845714D01*
X6565000Y-12831428D01*
X6550714Y-12817143D01*
X6536428Y-12788571D01*
X6522143Y-12731428D01*
X6522143Y-12660000D01*
X6536428Y-12602857D01*
X6550714Y-12574286D01*
X6565000Y-12560000D01*
X6593571Y-12545714D01*
X6836428Y-12845714D02*
X6893571Y-12845714D01*
X6922143Y-12831428D01*
X6936428Y-12817143D01*
X6965000Y-12774286D01*
X6979286Y-12717143D01*
X6979286Y-12602857D01*
X6965000Y-12574286D01*
X6950714Y-12560000D01*
X6922143Y-12545714D01*
X6865000Y-12545714D01*
X6836428Y-12560000D01*
X6822143Y-12574286D01*
X6807857Y-12602857D01*
X6807857Y-12674286D01*
X6822143Y-12702857D01*
X6836428Y-12717143D01*
X6865000Y-12731428D01*
X6922143Y-12731428D01*
X6950714Y-12717143D01*
X6965000Y-12702857D01*
X6979286Y-12674286D01*
X7079286Y-12545714D02*
X7265000Y-12545714D01*
X7165000Y-12660000D01*
X7207857Y-12660000D01*
X7236428Y-12674286D01*
X7250714Y-12688571D01*
X7265000Y-12717143D01*
X7265000Y-12788571D01*
X7250714Y-12817143D01*
X7236428Y-12831428D01*
X7207857Y-12845714D01*
X7122143Y-12845714D01*
X7093571Y-12831428D01*
X7079286Y-12817143D01*
X7379286Y-12545714D02*
X7379286Y-12602857D01*
X7493571Y-12545714D02*
X7493571Y-12602857D01*
X7936428Y-12960000D02*
X7922143Y-12945714D01*
X7893571Y-12902857D01*
X7879286Y-12874286D01*
X7865000Y-12831428D01*
X7850714Y-12760000D01*
X7850714Y-12702857D01*
X7865000Y-12631428D01*
X7879286Y-12588571D01*
X7893571Y-12560000D01*
X7922143Y-12517143D01*
X7936428Y-12502857D01*
X8036428Y-12574286D02*
X8050714Y-12560000D01*
X8079286Y-12545714D01*
X8150714Y-12545714D01*
X8179286Y-12560000D01*
X8193571Y-12574286D01*
X8207857Y-12602857D01*
X8207857Y-12631428D01*
X8193571Y-12674286D01*
X8022143Y-12845714D01*
X8207857Y-12845714D01*
X8393571Y-12545714D02*
X8422143Y-12545714D01*
X8450714Y-12560000D01*
X8465000Y-12574286D01*
X8479286Y-12602857D01*
X8493571Y-12660000D01*
X8493571Y-12731428D01*
X8479286Y-12788571D01*
X8465000Y-12817143D01*
X8450714Y-12831428D01*
X8422143Y-12845714D01*
X8393571Y-12845714D01*
X8365000Y-12831428D01*
X8350714Y-12817143D01*
X8336428Y-12788571D01*
X8322143Y-12731428D01*
X8322143Y-12660000D01*
X8336428Y-12602857D01*
X8350714Y-12574286D01*
X8365000Y-12560000D01*
X8393571Y-12545714D01*
X8850714Y-12845714D02*
X8850714Y-12545714D01*
X8979286Y-12845714D02*
X8979286Y-12688571D01*
X8965000Y-12660000D01*
X8936429Y-12645714D01*
X8893571Y-12645714D01*
X8865000Y-12660000D01*
X8850714Y-12674286D01*
X9165000Y-12845714D02*
X9136429Y-12831428D01*
X9122143Y-12817143D01*
X9107857Y-12788571D01*
X9107857Y-12702857D01*
X9122143Y-12674286D01*
X9136429Y-12660000D01*
X9165000Y-12645714D01*
X9207857Y-12645714D01*
X9236429Y-12660000D01*
X9250714Y-12674286D01*
X9265000Y-12702857D01*
X9265000Y-12788571D01*
X9250714Y-12817143D01*
X9236429Y-12831428D01*
X9207857Y-12845714D01*
X9165000Y-12845714D01*
X9436429Y-12845714D02*
X9407857Y-12831428D01*
X9393571Y-12802857D01*
X9393571Y-12545714D01*
X9665000Y-12831428D02*
X9636429Y-12845714D01*
X9579286Y-12845714D01*
X9550714Y-12831428D01*
X9536429Y-12802857D01*
X9536429Y-12688571D01*
X9550714Y-12660000D01*
X9579286Y-12645714D01*
X9636429Y-12645714D01*
X9665000Y-12660000D01*
X9679286Y-12688571D01*
X9679286Y-12717143D01*
X9536429Y-12745714D01*
X9793571Y-12831428D02*
X9822143Y-12845714D01*
X9879286Y-12845714D01*
X9907857Y-12831428D01*
X9922143Y-12802857D01*
X9922143Y-12788571D01*
X9907857Y-12760000D01*
X9879286Y-12745714D01*
X9836429Y-12745714D01*
X9807857Y-12731428D01*
X9793571Y-12702857D01*
X9793571Y-12688571D01*
X9807857Y-12660000D01*
X9836429Y-12645714D01*
X9879286Y-12645714D01*
X9907857Y-12660000D01*
X10022143Y-12960000D02*
X10036429Y-12945714D01*
X10065000Y-12902857D01*
X10079286Y-12874286D01*
X10093571Y-12831428D01*
X10107857Y-12760000D01*
X10107857Y-12702857D01*
X10093571Y-12631428D01*
X10079286Y-12588571D01*
X10065000Y-12560000D01*
X10036429Y-12517143D01*
X10022143Y-12502857D01*
X10565000Y-12960000D02*
X10550714Y-12945714D01*
X10522143Y-12902857D01*
X10507857Y-12874286D01*
X10493571Y-12831428D01*
X10479286Y-12760000D01*
X10479286Y-12702857D01*
X10493571Y-12631428D01*
X10507857Y-12588571D01*
X10522143Y-12560000D01*
X10550714Y-12517143D01*
X10565000Y-12502857D01*
X10679286Y-12645714D02*
X10679286Y-12845714D01*
X10679286Y-12674286D02*
X10693571Y-12660000D01*
X10722143Y-12645714D01*
X10765000Y-12645714D01*
X10793571Y-12660000D01*
X10807857Y-12688571D01*
X10807857Y-12845714D01*
X10993571Y-12845714D02*
X10965000Y-12831428D01*
X10950714Y-12817143D01*
X10936429Y-12788571D01*
X10936429Y-12702857D01*
X10950714Y-12674286D01*
X10965000Y-12660000D01*
X10993571Y-12645714D01*
X11036429Y-12645714D01*
X11065000Y-12660000D01*
X11079286Y-12674286D01*
X11093571Y-12702857D01*
X11093571Y-12788571D01*
X11079286Y-12817143D01*
X11065000Y-12831428D01*
X11036429Y-12845714D01*
X10993571Y-12845714D01*
X11179286Y-12645714D02*
X11293571Y-12645714D01*
X11222143Y-12545714D02*
X11222143Y-12802857D01*
X11236428Y-12831428D01*
X11265000Y-12845714D01*
X11293571Y-12845714D01*
X11622143Y-12645714D02*
X11622143Y-12945714D01*
X11622143Y-12660000D02*
X11650714Y-12645714D01*
X11707857Y-12645714D01*
X11736428Y-12660000D01*
X11750714Y-12674286D01*
X11765000Y-12702857D01*
X11765000Y-12788571D01*
X11750714Y-12817143D01*
X11736428Y-12831428D01*
X11707857Y-12845714D01*
X11650714Y-12845714D01*
X11622143Y-12831428D01*
X11936428Y-12845714D02*
X11907857Y-12831428D01*
X11893571Y-12802857D01*
X11893571Y-12545714D01*
X12179286Y-12845714D02*
X12179286Y-12688571D01*
X12165000Y-12660000D01*
X12136428Y-12645714D01*
X12079286Y-12645714D01*
X12050714Y-12660000D01*
X12179286Y-12831428D02*
X12150714Y-12845714D01*
X12079286Y-12845714D01*
X12050714Y-12831428D01*
X12036428Y-12802857D01*
X12036428Y-12774286D01*
X12050714Y-12745714D01*
X12079286Y-12731428D01*
X12150714Y-12731428D01*
X12179286Y-12717143D01*
X12279286Y-12645714D02*
X12393571Y-12645714D01*
X12322143Y-12545714D02*
X12322143Y-12802857D01*
X12336428Y-12831428D01*
X12365000Y-12845714D01*
X12393571Y-12845714D01*
X12607857Y-12831428D02*
X12579286Y-12845714D01*
X12522143Y-12845714D01*
X12493571Y-12831428D01*
X12479286Y-12802857D01*
X12479286Y-12688571D01*
X12493571Y-12660000D01*
X12522143Y-12645714D01*
X12579286Y-12645714D01*
X12607857Y-12660000D01*
X12622143Y-12688571D01*
X12622143Y-12717143D01*
X12479286Y-12745714D01*
X12879286Y-12845714D02*
X12879286Y-12545714D01*
X12879286Y-12831428D02*
X12850714Y-12845714D01*
X12793571Y-12845714D01*
X12765000Y-12831428D01*
X12750714Y-12817143D01*
X12736428Y-12788571D01*
X12736428Y-12702857D01*
X12750714Y-12674286D01*
X12765000Y-12660000D01*
X12793571Y-12645714D01*
X12850714Y-12645714D01*
X12879286Y-12660000D01*
X12993571Y-12960000D02*
X13007857Y-12945714D01*
X13036428Y-12902857D01*
X13050714Y-12874286D01*
X13065000Y-12831428D01*
X13079286Y-12760000D01*
X13079286Y-12702857D01*
X13065000Y-12631428D01*
X13050714Y-12588571D01*
X13036428Y-12560000D01*
X13007857Y-12517143D01*
X12993571Y-12502857D01*
X3250000Y-13106000D02*
G75*
G03*
X3250000Y-13106000I-175000J0D01*
G01*
X3507857Y-12941714D02*
X3693571Y-12941714D01*
X3593571Y-13056000D01*
X3636428Y-13056000D01*
X3665000Y-13070286D01*
X3679286Y-13084571D01*
X3693571Y-13113143D01*
X3693571Y-13184571D01*
X3679286Y-13213143D01*
X3665000Y-13227428D01*
X3636428Y-13241714D01*
X3550714Y-13241714D01*
X3522143Y-13227428D01*
X3507857Y-13213143D01*
X3822143Y-13213143D02*
X3836428Y-13227428D01*
X3822143Y-13241714D01*
X3807857Y-13227428D01*
X3822143Y-13213143D01*
X3822143Y-13241714D01*
X4107857Y-12941714D02*
X3965000Y-12941714D01*
X3950714Y-13084571D01*
X3965000Y-13070286D01*
X3993571Y-13056000D01*
X4065000Y-13056000D01*
X4093571Y-13070286D01*
X4107857Y-13084571D01*
X4122143Y-13113143D01*
X4122143Y-13184571D01*
X4107857Y-13213143D01*
X4093571Y-13227428D01*
X4065000Y-13241714D01*
X3993571Y-13241714D01*
X3965000Y-13227428D01*
X3950714Y-13213143D01*
X4307857Y-12941714D02*
X4336429Y-12941714D01*
X4365000Y-12956000D01*
X4379286Y-12970286D01*
X4393571Y-12998857D01*
X4407857Y-13056000D01*
X4407857Y-13127428D01*
X4393571Y-13184571D01*
X4379286Y-13213143D01*
X4365000Y-13227428D01*
X4336429Y-13241714D01*
X4307857Y-13241714D01*
X4279286Y-13227428D01*
X4265000Y-13213143D01*
X4250714Y-13184571D01*
X4236429Y-13127428D01*
X4236429Y-13056000D01*
X4250714Y-12998857D01*
X4265000Y-12970286D01*
X4279286Y-12956000D01*
X4307857Y-12941714D01*
X4536429Y-13241714D02*
X4536429Y-13041714D01*
X4536429Y-13070286D02*
X4550714Y-13056000D01*
X4579286Y-13041714D01*
X4622143Y-13041714D01*
X4650714Y-13056000D01*
X4665000Y-13084571D01*
X4665000Y-13241714D01*
X4665000Y-13084571D02*
X4679286Y-13056000D01*
X4707857Y-13041714D01*
X4750714Y-13041714D01*
X4779286Y-13056000D01*
X4793571Y-13084571D01*
X4793571Y-13241714D01*
X4936429Y-13241714D02*
X4936429Y-13041714D01*
X4936429Y-13070286D02*
X4950714Y-13056000D01*
X4979286Y-13041714D01*
X5022143Y-13041714D01*
X5050714Y-13056000D01*
X5065000Y-13084571D01*
X5065000Y-13241714D01*
X5065000Y-13084571D02*
X5079286Y-13056000D01*
X5107857Y-13041714D01*
X5150714Y-13041714D01*
X5179286Y-13056000D01*
X5193571Y-13084571D01*
X5193571Y-13241714D01*
X5779286Y-12927428D02*
X5522143Y-13313143D01*
X6165000Y-12941714D02*
X6193571Y-12941714D01*
X6222143Y-12956000D01*
X6236428Y-12970286D01*
X6250714Y-12998857D01*
X6265000Y-13056000D01*
X6265000Y-13127428D01*
X6250714Y-13184571D01*
X6236428Y-13213143D01*
X6222143Y-13227428D01*
X6193571Y-13241714D01*
X6165000Y-13241714D01*
X6136428Y-13227428D01*
X6122143Y-13213143D01*
X6107857Y-13184571D01*
X6093571Y-13127428D01*
X6093571Y-13056000D01*
X6107857Y-12998857D01*
X6122143Y-12970286D01*
X6136428Y-12956000D01*
X6165000Y-12941714D01*
X6393571Y-13213143D02*
X6407857Y-13227428D01*
X6393571Y-13241714D01*
X6379286Y-13227428D01*
X6393571Y-13213143D01*
X6393571Y-13241714D01*
X6693571Y-13241714D02*
X6522143Y-13241714D01*
X6607857Y-13241714D02*
X6607857Y-12941714D01*
X6579286Y-12984571D01*
X6550714Y-13013143D01*
X6522143Y-13027428D01*
X6793571Y-12941714D02*
X6979286Y-12941714D01*
X6879286Y-13056000D01*
X6922143Y-13056000D01*
X6950714Y-13070286D01*
X6965000Y-13084571D01*
X6979286Y-13113143D01*
X6979286Y-13184571D01*
X6965000Y-13213143D01*
X6950714Y-13227428D01*
X6922143Y-13241714D01*
X6836428Y-13241714D01*
X6807857Y-13227428D01*
X6793571Y-13213143D01*
X7150714Y-13070286D02*
X7122143Y-13056000D01*
X7107857Y-13041714D01*
X7093571Y-13013143D01*
X7093571Y-12998857D01*
X7107857Y-12970286D01*
X7122143Y-12956000D01*
X7150714Y-12941714D01*
X7207857Y-12941714D01*
X7236428Y-12956000D01*
X7250714Y-12970286D01*
X7265000Y-12998857D01*
X7265000Y-13013143D01*
X7250714Y-13041714D01*
X7236428Y-13056000D01*
X7207857Y-13070286D01*
X7150714Y-13070286D01*
X7122143Y-13084571D01*
X7107857Y-13098857D01*
X7093571Y-13127428D01*
X7093571Y-13184571D01*
X7107857Y-13213143D01*
X7122143Y-13227428D01*
X7150714Y-13241714D01*
X7207857Y-13241714D01*
X7236428Y-13227428D01*
X7250714Y-13213143D01*
X7265000Y-13184571D01*
X7265000Y-13127428D01*
X7250714Y-13098857D01*
X7236428Y-13084571D01*
X7207857Y-13070286D01*
X7379286Y-12941714D02*
X7379286Y-12998857D01*
X7493571Y-12941714D02*
X7493571Y-12998857D01*
X7936428Y-13356000D02*
X7922143Y-13341714D01*
X7893571Y-13298857D01*
X7879286Y-13270286D01*
X7865000Y-13227428D01*
X7850714Y-13156000D01*
X7850714Y-13098857D01*
X7865000Y-13027428D01*
X7879286Y-12984571D01*
X7893571Y-12956000D01*
X7922143Y-12913143D01*
X7936428Y-12898857D01*
X8065000Y-13241714D02*
X8122143Y-13241714D01*
X8150714Y-13227428D01*
X8165000Y-13213143D01*
X8193571Y-13170286D01*
X8207857Y-13113143D01*
X8207857Y-12998857D01*
X8193571Y-12970286D01*
X8179286Y-12956000D01*
X8150714Y-12941714D01*
X8093571Y-12941714D01*
X8065000Y-12956000D01*
X8050714Y-12970286D01*
X8036428Y-12998857D01*
X8036428Y-13070286D01*
X8050714Y-13098857D01*
X8065000Y-13113143D01*
X8093571Y-13127428D01*
X8150714Y-13127428D01*
X8179286Y-13113143D01*
X8193571Y-13098857D01*
X8207857Y-13070286D01*
X8565000Y-13241714D02*
X8565000Y-12941714D01*
X8693571Y-13241714D02*
X8693571Y-13084571D01*
X8679286Y-13056000D01*
X8650714Y-13041714D01*
X8607857Y-13041714D01*
X8579286Y-13056000D01*
X8565000Y-13070286D01*
X8879286Y-13241714D02*
X8850714Y-13227428D01*
X8836429Y-13213143D01*
X8822143Y-13184571D01*
X8822143Y-13098857D01*
X8836429Y-13070286D01*
X8850714Y-13056000D01*
X8879286Y-13041714D01*
X8922143Y-13041714D01*
X8950714Y-13056000D01*
X8965000Y-13070286D01*
X8979286Y-13098857D01*
X8979286Y-13184571D01*
X8965000Y-13213143D01*
X8950714Y-13227428D01*
X8922143Y-13241714D01*
X8879286Y-13241714D01*
X9150714Y-13241714D02*
X9122143Y-13227428D01*
X9107857Y-13198857D01*
X9107857Y-12941714D01*
X9379286Y-13227428D02*
X9350714Y-13241714D01*
X9293571Y-13241714D01*
X9265000Y-13227428D01*
X9250714Y-13198857D01*
X9250714Y-13084571D01*
X9265000Y-13056000D01*
X9293571Y-13041714D01*
X9350714Y-13041714D01*
X9379286Y-13056000D01*
X9393571Y-13084571D01*
X9393571Y-13113143D01*
X9250714Y-13141714D01*
X9507857Y-13227428D02*
X9536429Y-13241714D01*
X9593571Y-13241714D01*
X9622143Y-13227428D01*
X9636429Y-13198857D01*
X9636429Y-13184571D01*
X9622143Y-13156000D01*
X9593571Y-13141714D01*
X9550714Y-13141714D01*
X9522143Y-13127428D01*
X9507857Y-13098857D01*
X9507857Y-13084571D01*
X9522143Y-13056000D01*
X9550714Y-13041714D01*
X9593571Y-13041714D01*
X9622143Y-13056000D01*
X9736429Y-13356000D02*
X9750714Y-13341714D01*
X9779286Y-13298857D01*
X9793571Y-13270286D01*
X9807857Y-13227428D01*
X9822143Y-13156000D01*
X9822143Y-13098857D01*
X9807857Y-13027428D01*
X9793571Y-12984571D01*
X9779286Y-12956000D01*
X9750714Y-12913143D01*
X9736429Y-12898857D01*
X10279286Y-13356000D02*
X10265000Y-13341714D01*
X10236429Y-13298857D01*
X10222143Y-13270286D01*
X10207857Y-13227428D01*
X10193571Y-13156000D01*
X10193571Y-13098857D01*
X10207857Y-13027428D01*
X10222143Y-12984571D01*
X10236429Y-12956000D01*
X10265000Y-12913143D01*
X10279286Y-12898857D01*
X10393571Y-13041714D02*
X10393571Y-13241714D01*
X10393571Y-13070286D02*
X10407857Y-13056000D01*
X10436429Y-13041714D01*
X10479286Y-13041714D01*
X10507857Y-13056000D01*
X10522143Y-13084571D01*
X10522143Y-13241714D01*
X10707857Y-13241714D02*
X10679286Y-13227428D01*
X10665000Y-13213143D01*
X10650714Y-13184571D01*
X10650714Y-13098857D01*
X10665000Y-13070286D01*
X10679286Y-13056000D01*
X10707857Y-13041714D01*
X10750714Y-13041714D01*
X10779286Y-13056000D01*
X10793571Y-13070286D01*
X10807857Y-13098857D01*
X10807857Y-13184571D01*
X10793571Y-13213143D01*
X10779286Y-13227428D01*
X10750714Y-13241714D01*
X10707857Y-13241714D01*
X10893571Y-13041714D02*
X11007857Y-13041714D01*
X10936429Y-12941714D02*
X10936429Y-13198857D01*
X10950714Y-13227428D01*
X10979286Y-13241714D01*
X11007857Y-13241714D01*
X11336428Y-13041714D02*
X11336428Y-13341714D01*
X11336428Y-13056000D02*
X11365000Y-13041714D01*
X11422143Y-13041714D01*
X11450714Y-13056000D01*
X11465000Y-13070286D01*
X11479286Y-13098857D01*
X11479286Y-13184571D01*
X11465000Y-13213143D01*
X11450714Y-13227428D01*
X11422143Y-13241714D01*
X11365000Y-13241714D01*
X11336428Y-13227428D01*
X11650714Y-13241714D02*
X11622143Y-13227428D01*
X11607857Y-13198857D01*
X11607857Y-12941714D01*
X11893571Y-13241714D02*
X11893571Y-13084571D01*
X11879286Y-13056000D01*
X11850714Y-13041714D01*
X11793571Y-13041714D01*
X11765000Y-13056000D01*
X11893571Y-13227428D02*
X11865000Y-13241714D01*
X11793571Y-13241714D01*
X11765000Y-13227428D01*
X11750714Y-13198857D01*
X11750714Y-13170286D01*
X11765000Y-13141714D01*
X11793571Y-13127428D01*
X11865000Y-13127428D01*
X11893571Y-13113143D01*
X11993571Y-13041714D02*
X12107857Y-13041714D01*
X12036428Y-12941714D02*
X12036428Y-13198857D01*
X12050714Y-13227428D01*
X12079286Y-13241714D01*
X12107857Y-13241714D01*
X12322143Y-13227428D02*
X12293571Y-13241714D01*
X12236428Y-13241714D01*
X12207857Y-13227428D01*
X12193571Y-13198857D01*
X12193571Y-13084571D01*
X12207857Y-13056000D01*
X12236428Y-13041714D01*
X12293571Y-13041714D01*
X12322143Y-13056000D01*
X12336428Y-13084571D01*
X12336428Y-13113143D01*
X12193571Y-13141714D01*
X12593571Y-13241714D02*
X12593571Y-12941714D01*
X12593571Y-13227428D02*
X12565000Y-13241714D01*
X12507857Y-13241714D01*
X12479286Y-13227428D01*
X12465000Y-13213143D01*
X12450714Y-13184571D01*
X12450714Y-13098857D01*
X12465000Y-13070286D01*
X12479286Y-13056000D01*
X12507857Y-13041714D01*
X12565000Y-13041714D01*
X12593571Y-13056000D01*
X12707857Y-13356000D02*
X12722143Y-13341714D01*
X12750714Y-13298857D01*
X12765000Y-13270286D01*
X12779286Y-13227428D01*
X12793571Y-13156000D01*
X12793571Y-13098857D01*
X12779286Y-13027428D01*
X12765000Y-12984571D01*
X12750714Y-12956000D01*
X12722143Y-12913143D01*
X12707857Y-12898857D01*
X3000000Y-13336000D02*
X3000000Y-13836000D01*
X2750000Y-13586000D02*
X3250000Y-13586000D01*
X3679286Y-13421714D02*
X3536428Y-13421714D01*
X3522143Y-13564571D01*
X3536428Y-13550286D01*
X3565000Y-13536000D01*
X3636428Y-13536000D01*
X3665000Y-13550286D01*
X3679286Y-13564571D01*
X3693571Y-13593143D01*
X3693571Y-13664571D01*
X3679286Y-13693143D01*
X3665000Y-13707428D01*
X3636428Y-13721714D01*
X3565000Y-13721714D01*
X3536428Y-13707428D01*
X3522143Y-13693143D01*
X3822143Y-13693143D02*
X3836428Y-13707428D01*
X3822143Y-13721714D01*
X3807857Y-13707428D01*
X3822143Y-13693143D01*
X3822143Y-13721714D01*
X4022143Y-13421714D02*
X4050714Y-13421714D01*
X4079286Y-13436000D01*
X4093571Y-13450286D01*
X4107857Y-13478857D01*
X4122143Y-13536000D01*
X4122143Y-13607428D01*
X4107857Y-13664571D01*
X4093571Y-13693143D01*
X4079286Y-13707428D01*
X4050714Y-13721714D01*
X4022143Y-13721714D01*
X3993571Y-13707428D01*
X3979286Y-13693143D01*
X3965000Y-13664571D01*
X3950714Y-13607428D01*
X3950714Y-13536000D01*
X3965000Y-13478857D01*
X3979286Y-13450286D01*
X3993571Y-13436000D01*
X4022143Y-13421714D01*
X4307857Y-13421714D02*
X4336429Y-13421714D01*
X4365000Y-13436000D01*
X4379286Y-13450286D01*
X4393571Y-13478857D01*
X4407857Y-13536000D01*
X4407857Y-13607428D01*
X4393571Y-13664571D01*
X4379286Y-13693143D01*
X4365000Y-13707428D01*
X4336429Y-13721714D01*
X4307857Y-13721714D01*
X4279286Y-13707428D01*
X4265000Y-13693143D01*
X4250714Y-13664571D01*
X4236429Y-13607428D01*
X4236429Y-13536000D01*
X4250714Y-13478857D01*
X4265000Y-13450286D01*
X4279286Y-13436000D01*
X4307857Y-13421714D01*
X4536429Y-13721714D02*
X4536429Y-13521714D01*
X4536429Y-13550286D02*
X4550714Y-13536000D01*
X4579286Y-13521714D01*
X4622143Y-13521714D01*
X4650714Y-13536000D01*
X4665000Y-13564571D01*
X4665000Y-13721714D01*
X4665000Y-13564571D02*
X4679286Y-13536000D01*
X4707857Y-13521714D01*
X4750714Y-13521714D01*
X4779286Y-13536000D01*
X4793571Y-13564571D01*
X4793571Y-13721714D01*
X4936429Y-13721714D02*
X4936429Y-13521714D01*
X4936429Y-13550286D02*
X4950714Y-13536000D01*
X4979286Y-13521714D01*
X5022143Y-13521714D01*
X5050714Y-13536000D01*
X5065000Y-13564571D01*
X5065000Y-13721714D01*
X5065000Y-13564571D02*
X5079286Y-13536000D01*
X5107857Y-13521714D01*
X5150714Y-13521714D01*
X5179286Y-13536000D01*
X5193571Y-13564571D01*
X5193571Y-13721714D01*
X5779286Y-13407428D02*
X5522143Y-13793143D01*
X6165000Y-13421714D02*
X6193571Y-13421714D01*
X6222143Y-13436000D01*
X6236428Y-13450286D01*
X6250714Y-13478857D01*
X6265000Y-13536000D01*
X6265000Y-13607428D01*
X6250714Y-13664571D01*
X6236428Y-13693143D01*
X6222143Y-13707428D01*
X6193571Y-13721714D01*
X6165000Y-13721714D01*
X6136428Y-13707428D01*
X6122143Y-13693143D01*
X6107857Y-13664571D01*
X6093571Y-13607428D01*
X6093571Y-13536000D01*
X6107857Y-13478857D01*
X6122143Y-13450286D01*
X6136428Y-13436000D01*
X6165000Y-13421714D01*
X6393571Y-13693143D02*
X6407857Y-13707428D01*
X6393571Y-13721714D01*
X6379286Y-13707428D01*
X6393571Y-13693143D01*
X6393571Y-13721714D01*
X6693571Y-13721714D02*
X6522143Y-13721714D01*
X6607857Y-13721714D02*
X6607857Y-13421714D01*
X6579286Y-13464571D01*
X6550714Y-13493143D01*
X6522143Y-13507428D01*
X6836428Y-13721714D02*
X6893571Y-13721714D01*
X6922143Y-13707428D01*
X6936428Y-13693143D01*
X6965000Y-13650286D01*
X6979286Y-13593143D01*
X6979286Y-13478857D01*
X6965000Y-13450286D01*
X6950714Y-13436000D01*
X6922143Y-13421714D01*
X6865000Y-13421714D01*
X6836428Y-13436000D01*
X6822143Y-13450286D01*
X6807857Y-13478857D01*
X6807857Y-13550286D01*
X6822143Y-13578857D01*
X6836428Y-13593143D01*
X6865000Y-13607428D01*
X6922143Y-13607428D01*
X6950714Y-13593143D01*
X6965000Y-13578857D01*
X6979286Y-13550286D01*
X7079286Y-13421714D02*
X7279286Y-13421714D01*
X7150714Y-13721714D01*
X7379286Y-13421714D02*
X7379286Y-13478857D01*
X7493571Y-13421714D02*
X7493571Y-13478857D01*
X7936428Y-13836000D02*
X7922143Y-13821714D01*
X7893571Y-13778857D01*
X7879286Y-13750286D01*
X7865000Y-13707428D01*
X7850714Y-13636000D01*
X7850714Y-13578857D01*
X7865000Y-13507428D01*
X7879286Y-13464571D01*
X7893571Y-13436000D01*
X7922143Y-13393143D01*
X7936428Y-13378857D01*
X8107857Y-13421714D02*
X8136428Y-13421714D01*
X8165000Y-13436000D01*
X8179286Y-13450286D01*
X8193571Y-13478857D01*
X8207857Y-13536000D01*
X8207857Y-13607428D01*
X8193571Y-13664571D01*
X8179286Y-13693143D01*
X8165000Y-13707428D01*
X8136428Y-13721714D01*
X8107857Y-13721714D01*
X8079286Y-13707428D01*
X8065000Y-13693143D01*
X8050714Y-13664571D01*
X8036428Y-13607428D01*
X8036428Y-13536000D01*
X8050714Y-13478857D01*
X8065000Y-13450286D01*
X8079286Y-13436000D01*
X8107857Y-13421714D01*
X8565000Y-13721714D02*
X8565000Y-13421714D01*
X8693571Y-13721714D02*
X8693571Y-13564571D01*
X8679286Y-13536000D01*
X8650714Y-13521714D01*
X8607857Y-13521714D01*
X8579286Y-13536000D01*
X8565000Y-13550286D01*
X8879286Y-13721714D02*
X8850714Y-13707428D01*
X8836429Y-13693143D01*
X8822143Y-13664571D01*
X8822143Y-13578857D01*
X8836429Y-13550286D01*
X8850714Y-13536000D01*
X8879286Y-13521714D01*
X8922143Y-13521714D01*
X8950714Y-13536000D01*
X8965000Y-13550286D01*
X8979286Y-13578857D01*
X8979286Y-13664571D01*
X8965000Y-13693143D01*
X8950714Y-13707428D01*
X8922143Y-13721714D01*
X8879286Y-13721714D01*
X9150714Y-13721714D02*
X9122143Y-13707428D01*
X9107857Y-13678857D01*
X9107857Y-13421714D01*
X9379286Y-13707428D02*
X9350714Y-13721714D01*
X9293571Y-13721714D01*
X9265000Y-13707428D01*
X9250714Y-13678857D01*
X9250714Y-13564571D01*
X9265000Y-13536000D01*
X9293571Y-13521714D01*
X9350714Y-13521714D01*
X9379286Y-13536000D01*
X9393571Y-13564571D01*
X9393571Y-13593143D01*
X9250714Y-13621714D01*
X9507857Y-13707428D02*
X9536429Y-13721714D01*
X9593571Y-13721714D01*
X9622143Y-13707428D01*
X9636429Y-13678857D01*
X9636429Y-13664571D01*
X9622143Y-13636000D01*
X9593571Y-13621714D01*
X9550714Y-13621714D01*
X9522143Y-13607428D01*
X9507857Y-13578857D01*
X9507857Y-13564571D01*
X9522143Y-13536000D01*
X9550714Y-13521714D01*
X9593571Y-13521714D01*
X9622143Y-13536000D01*
X9993571Y-13607428D02*
X10222143Y-13607428D01*
X10107857Y-13721714D02*
X10107857Y-13493143D01*
X10565000Y-13421714D02*
X10750714Y-13421714D01*
X10650714Y-13536000D01*
X10693571Y-13536000D01*
X10722143Y-13550286D01*
X10736429Y-13564571D01*
X10750714Y-13593143D01*
X10750714Y-13664571D01*
X10736429Y-13693143D01*
X10722143Y-13707428D01*
X10693571Y-13721714D01*
X10607857Y-13721714D01*
X10579286Y-13707428D01*
X10565000Y-13693143D01*
X11093571Y-13707428D02*
X11122143Y-13721714D01*
X11179286Y-13721714D01*
X11207857Y-13707428D01*
X11222143Y-13678857D01*
X11222143Y-13664571D01*
X11207857Y-13636000D01*
X11179286Y-13621714D01*
X11136429Y-13621714D01*
X11107857Y-13607428D01*
X11093571Y-13578857D01*
X11093571Y-13564571D01*
X11107857Y-13536000D01*
X11136429Y-13521714D01*
X11179286Y-13521714D01*
X11207857Y-13536000D01*
X11393571Y-13721714D02*
X11365000Y-13707428D01*
X11350714Y-13678857D01*
X11350714Y-13421714D01*
X11550714Y-13721714D02*
X11522143Y-13707428D01*
X11507857Y-13693143D01*
X11493571Y-13664571D01*
X11493571Y-13578857D01*
X11507857Y-13550286D01*
X11522143Y-13536000D01*
X11550714Y-13521714D01*
X11593571Y-13521714D01*
X11622143Y-13536000D01*
X11636428Y-13550286D01*
X11650714Y-13578857D01*
X11650714Y-13664571D01*
X11636428Y-13693143D01*
X11622143Y-13707428D01*
X11593571Y-13721714D01*
X11550714Y-13721714D01*
X11736428Y-13521714D02*
X11850714Y-13521714D01*
X11779286Y-13421714D02*
X11779286Y-13678857D01*
X11793571Y-13707428D01*
X11822143Y-13721714D01*
X11850714Y-13721714D01*
X11936428Y-13707428D02*
X11965000Y-13721714D01*
X12022143Y-13721714D01*
X12050714Y-13707428D01*
X12065000Y-13678857D01*
X12065000Y-13664571D01*
X12050714Y-13636000D01*
X12022143Y-13621714D01*
X11979286Y-13621714D01*
X11950714Y-13607428D01*
X11936428Y-13578857D01*
X11936428Y-13564571D01*
X11950714Y-13536000D01*
X11979286Y-13521714D01*
X12022143Y-13521714D01*
X12050714Y-13536000D01*
X12165000Y-13836000D02*
X12179286Y-13821714D01*
X12207857Y-13778857D01*
X12222143Y-13750286D01*
X12236428Y-13707428D01*
X12250714Y-13636000D01*
X12250714Y-13578857D01*
X12236428Y-13507428D01*
X12222143Y-13464571D01*
X12207857Y-13436000D01*
X12179286Y-13393143D01*
X12165000Y-13378857D01*
X12707857Y-13836000D02*
X12693571Y-13821714D01*
X12665000Y-13778857D01*
X12650714Y-13750286D01*
X12636428Y-13707428D01*
X12622143Y-13636000D01*
X12622143Y-13578857D01*
X12636428Y-13507428D01*
X12650714Y-13464571D01*
X12665000Y-13436000D01*
X12693571Y-13393143D01*
X12707857Y-13378857D01*
X12822143Y-13521714D02*
X12822143Y-13721714D01*
X12822143Y-13550286D02*
X12836428Y-13536000D01*
X12865000Y-13521714D01*
X12907857Y-13521714D01*
X12936428Y-13536000D01*
X12950714Y-13564571D01*
X12950714Y-13721714D01*
X13136428Y-13721714D02*
X13107857Y-13707428D01*
X13093571Y-13693143D01*
X13079286Y-13664571D01*
X13079286Y-13578857D01*
X13093571Y-13550286D01*
X13107857Y-13536000D01*
X13136428Y-13521714D01*
X13179286Y-13521714D01*
X13207857Y-13536000D01*
X13222143Y-13550286D01*
X13236428Y-13578857D01*
X13236428Y-13664571D01*
X13222143Y-13693143D01*
X13207857Y-13707428D01*
X13179286Y-13721714D01*
X13136428Y-13721714D01*
X13322143Y-13521714D02*
X13436428Y-13521714D01*
X13365000Y-13421714D02*
X13365000Y-13678857D01*
X13379286Y-13707428D01*
X13407857Y-13721714D01*
X13436428Y-13721714D01*
X13765000Y-13521714D02*
X13765000Y-13821714D01*
X13765000Y-13536000D02*
X13793571Y-13521714D01*
X13850714Y-13521714D01*
X13879286Y-13536000D01*
X13893571Y-13550286D01*
X13907857Y-13578857D01*
X13907857Y-13664571D01*
X13893571Y-13693143D01*
X13879286Y-13707428D01*
X13850714Y-13721714D01*
X13793571Y-13721714D01*
X13765000Y-13707428D01*
X14079286Y-13721714D02*
X14050714Y-13707428D01*
X14036428Y-13678857D01*
X14036428Y-13421714D01*
X14322143Y-13721714D02*
X14322143Y-13564571D01*
X14307857Y-13536000D01*
X14279286Y-13521714D01*
X14222143Y-13521714D01*
X14193571Y-13536000D01*
X14322143Y-13707428D02*
X14293571Y-13721714D01*
X14222143Y-13721714D01*
X14193571Y-13707428D01*
X14179286Y-13678857D01*
X14179286Y-13650286D01*
X14193571Y-13621714D01*
X14222143Y-13607428D01*
X14293571Y-13607428D01*
X14322143Y-13593143D01*
X14422143Y-13521714D02*
X14536428Y-13521714D01*
X14465000Y-13421714D02*
X14465000Y-13678857D01*
X14479286Y-13707428D01*
X14507857Y-13721714D01*
X14536428Y-13721714D01*
X14750714Y-13707428D02*
X14722143Y-13721714D01*
X14665000Y-13721714D01*
X14636428Y-13707428D01*
X14622143Y-13678857D01*
X14622143Y-13564571D01*
X14636428Y-13536000D01*
X14665000Y-13521714D01*
X14722143Y-13521714D01*
X14750714Y-13536000D01*
X14765000Y-13564571D01*
X14765000Y-13593143D01*
X14622143Y-13621714D01*
X15022143Y-13721714D02*
X15022143Y-13421714D01*
X15022143Y-13707428D02*
X14993571Y-13721714D01*
X14936428Y-13721714D01*
X14907857Y-13707428D01*
X14893571Y-13693143D01*
X14879286Y-13664571D01*
X14879286Y-13578857D01*
X14893571Y-13550286D01*
X14907857Y-13536000D01*
X14936428Y-13521714D01*
X14993571Y-13521714D01*
X15022143Y-13536000D01*
X15136428Y-13836000D02*
X15150714Y-13821714D01*
X15179286Y-13778857D01*
X15193571Y-13750286D01*
X15207857Y-13707428D01*
X15222143Y-13636000D01*
X15222143Y-13578857D01*
X15207857Y-13507428D01*
X15193571Y-13464571D01*
X15179286Y-13436000D01*
X15150714Y-13393143D01*
X15136428Y-13378857D01*
M02*
