M48
; DRILL file {KiCad (5.1.9-16-g1737927814)-1} date 07/08/21 12:56:59
; FORMAT={3:3/ absolute / metric / suppress leading zeros}
; #@! TF.CreationDate,2021-07-08T12:56:59+02:00
; #@! TF.GenerationSoftware,Kicad,Pcbnew,(5.1.9-16-g1737927814)-1
; #@! TF.FileFunction,NonPlated,1,2,NPTH
FMAT,2
METRIC,TZ
T1C2.350
T2C3.500
T3C5.000
%
G90
G05
T1
X45000Y-64840
X45000Y-105000
X65000Y-64840
X65000Y-105000
X85000Y-64840
X85000Y-105000
X105000Y-64840
X105000Y-105000
X125000Y-64840
X125000Y-105000
X145000Y-64840
X145000Y-105000
X165000Y-64840
X165000Y-105000
X185000Y-64840
X185000Y-105000
X205000Y-64840
X205000Y-105000
X225000Y-64840
X225000Y-105000
T2
X55000Y-62500
X55000Y-75000
X55000Y-87500
X135000Y-62500
X135000Y-75000
X135000Y-87500
X215000Y-62500
X215000Y-75000
X215000Y-87500
T3
G00X52500Y-99000
M15
G01X57500Y-99000
M16
G05
G00X132500Y-99000
M15
G01X137500Y-99000
M16
G05
G00X212500Y-99000
M15
G01X217500Y-99000
M16
G05
T0
M30
