%TF.GenerationSoftware,KiCad,Pcbnew,(5.1.9-16-g1737927814)-1*%
%TF.CreationDate,2021-09-18T11:41:58+02:00*%
%TF.ProjectId,Bussystem 10x non stack,42757373-7973-4746-956d-20313078206e,1*%
%TF.SameCoordinates,Original*%
%TF.FileFunction,Legend,Top*%
%TF.FilePolarity,Positive*%
%FSLAX46Y46*%
G04 Gerber Fmt 4.6, Leading zero omitted, Abs format (unit mm)*
G04 Created by KiCad (PCBNEW (5.1.9-16-g1737927814)-1) date 2021-09-18 11:41:58*
%MOMM*%
%LPD*%
G01*
G04 APERTURE LIST*
%ADD10C,0.150000*%
%ADD11C,0.200000*%
%ADD12C,0.300000*%
%ADD13C,0.010000*%
%ADD14C,0.015000*%
G04 APERTURE END LIST*
D10*
X224507142Y-103157142D02*
X225150000Y-103157142D01*
X225278571Y-103200000D01*
X225364285Y-103285714D01*
X225407142Y-103414285D01*
X225407142Y-103500000D01*
X225407142Y-102300000D02*
X225407142Y-102728571D01*
X224507142Y-102728571D01*
X225321428Y-101485714D02*
X225364285Y-101528571D01*
X225407142Y-101657142D01*
X225407142Y-101742857D01*
X225364285Y-101871428D01*
X225278571Y-101957142D01*
X225192857Y-102000000D01*
X225021428Y-102042857D01*
X224892857Y-102042857D01*
X224721428Y-102000000D01*
X224635714Y-101957142D01*
X224550000Y-101871428D01*
X224507142Y-101742857D01*
X224507142Y-101657142D01*
X224550000Y-101528571D01*
X224592857Y-101485714D01*
X224507142Y-100842857D02*
X225150000Y-100842857D01*
X225278571Y-100885714D01*
X225364285Y-100971428D01*
X225407142Y-101100000D01*
X225407142Y-101185714D01*
X225407142Y-99985714D02*
X225407142Y-100414285D01*
X224507142Y-100414285D01*
X225321428Y-99171428D02*
X225364285Y-99214285D01*
X225407142Y-99342857D01*
X225407142Y-99428571D01*
X225364285Y-99557142D01*
X225278571Y-99642857D01*
X225192857Y-99685714D01*
X225021428Y-99728571D01*
X224892857Y-99728571D01*
X224721428Y-99685714D01*
X224635714Y-99642857D01*
X224550000Y-99557142D01*
X224507142Y-99428571D01*
X224507142Y-99342857D01*
X224550000Y-99214285D01*
X224592857Y-99171428D01*
X224507142Y-98528571D02*
X225150000Y-98528571D01*
X225278571Y-98571428D01*
X225364285Y-98657142D01*
X225407142Y-98785714D01*
X225407142Y-98871428D01*
X225407142Y-97671428D02*
X225407142Y-98100000D01*
X224507142Y-98100000D01*
X225321428Y-96857142D02*
X225364285Y-96900000D01*
X225407142Y-97028571D01*
X225407142Y-97114285D01*
X225364285Y-97242857D01*
X225278571Y-97328571D01*
X225192857Y-97371428D01*
X225021428Y-97414285D01*
X224892857Y-97414285D01*
X224721428Y-97371428D01*
X224635714Y-97328571D01*
X224550000Y-97242857D01*
X224507142Y-97114285D01*
X224507142Y-97028571D01*
X224550000Y-96900000D01*
X224592857Y-96857142D01*
X224507142Y-96214285D02*
X225150000Y-96214285D01*
X225278571Y-96257142D01*
X225364285Y-96342857D01*
X225407142Y-96471428D01*
X225407142Y-96557142D01*
X225407142Y-95357142D02*
X225407142Y-95785714D01*
X224507142Y-95785714D01*
X225321428Y-94542857D02*
X225364285Y-94585714D01*
X225407142Y-94714285D01*
X225407142Y-94800000D01*
X225364285Y-94928571D01*
X225278571Y-95014285D01*
X225192857Y-95057142D01*
X225021428Y-95100000D01*
X224892857Y-95100000D01*
X224721428Y-95057142D01*
X224635714Y-95014285D01*
X224550000Y-94928571D01*
X224507142Y-94800000D01*
X224507142Y-94714285D01*
X224550000Y-94585714D01*
X224592857Y-94542857D01*
D11*
X202904761Y-46547619D02*
X202952380Y-46500000D01*
X203047619Y-46452380D01*
X203285714Y-46452380D01*
X203380952Y-46500000D01*
X203428571Y-46547619D01*
X203476190Y-46642857D01*
X203476190Y-46738095D01*
X203428571Y-46880952D01*
X202857142Y-47452380D01*
X203476190Y-47452380D01*
X204095238Y-46452380D02*
X204190476Y-46452380D01*
X204285714Y-46500000D01*
X204333333Y-46547619D01*
X204380952Y-46642857D01*
X204428571Y-46833333D01*
X204428571Y-47071428D01*
X204380952Y-47261904D01*
X204333333Y-47357142D01*
X204285714Y-47404761D01*
X204190476Y-47452380D01*
X204095238Y-47452380D01*
X204000000Y-47404761D01*
X203952380Y-47357142D01*
X203904761Y-47261904D01*
X203857142Y-47071428D01*
X203857142Y-46833333D01*
X203904761Y-46642857D01*
X203952380Y-46547619D01*
X204000000Y-46500000D01*
X204095238Y-46452380D01*
X204809523Y-46547619D02*
X204857142Y-46500000D01*
X204952380Y-46452380D01*
X205190476Y-46452380D01*
X205285714Y-46500000D01*
X205333333Y-46547619D01*
X205380952Y-46642857D01*
X205380952Y-46738095D01*
X205333333Y-46880952D01*
X204761904Y-47452380D01*
X205380952Y-47452380D01*
X206333333Y-47452380D02*
X205761904Y-47452380D01*
X206047619Y-47452380D02*
X206047619Y-46452380D01*
X205952380Y-46595238D01*
X205857142Y-46690476D01*
X205761904Y-46738095D01*
X206761904Y-47357142D02*
X206809523Y-47404761D01*
X206761904Y-47452380D01*
X206714285Y-47404761D01*
X206761904Y-47357142D01*
X206761904Y-47452380D01*
X207428571Y-46452380D02*
X207523809Y-46452380D01*
X207619047Y-46500000D01*
X207666666Y-46547619D01*
X207714285Y-46642857D01*
X207761904Y-46833333D01*
X207761904Y-47071428D01*
X207714285Y-47261904D01*
X207666666Y-47357142D01*
X207619047Y-47404761D01*
X207523809Y-47452380D01*
X207428571Y-47452380D01*
X207333333Y-47404761D01*
X207285714Y-47357142D01*
X207238095Y-47261904D01*
X207190476Y-47071428D01*
X207190476Y-46833333D01*
X207238095Y-46642857D01*
X207285714Y-46547619D01*
X207333333Y-46500000D01*
X207428571Y-46452380D01*
X208238095Y-47452380D02*
X208428571Y-47452380D01*
X208523809Y-47404761D01*
X208571428Y-47357142D01*
X208666666Y-47214285D01*
X208714285Y-47023809D01*
X208714285Y-46642857D01*
X208666666Y-46547619D01*
X208619047Y-46500000D01*
X208523809Y-46452380D01*
X208333333Y-46452380D01*
X208238095Y-46500000D01*
X208190476Y-46547619D01*
X208142857Y-46642857D01*
X208142857Y-46880952D01*
X208190476Y-46976190D01*
X208238095Y-47023809D01*
X208333333Y-47071428D01*
X208523809Y-47071428D01*
X208619047Y-47023809D01*
X208666666Y-46976190D01*
X208714285Y-46880952D01*
X209142857Y-47357142D02*
X209190476Y-47404761D01*
X209142857Y-47452380D01*
X209095238Y-47404761D01*
X209142857Y-47357142D01*
X209142857Y-47452380D01*
X210142857Y-47452380D02*
X209571428Y-47452380D01*
X209857142Y-47452380D02*
X209857142Y-46452380D01*
X209761904Y-46595238D01*
X209666666Y-46690476D01*
X209571428Y-46738095D01*
X210714285Y-46880952D02*
X210619047Y-46833333D01*
X210571428Y-46785714D01*
X210523809Y-46690476D01*
X210523809Y-46642857D01*
X210571428Y-46547619D01*
X210619047Y-46500000D01*
X210714285Y-46452380D01*
X210904761Y-46452380D01*
X211000000Y-46500000D01*
X211047619Y-46547619D01*
X211095238Y-46642857D01*
X211095238Y-46690476D01*
X211047619Y-46785714D01*
X211000000Y-46833333D01*
X210904761Y-46880952D01*
X210714285Y-46880952D01*
X210619047Y-46928571D01*
X210571428Y-46976190D01*
X210523809Y-47071428D01*
X210523809Y-47261904D01*
X210571428Y-47357142D01*
X210619047Y-47404761D01*
X210714285Y-47452380D01*
X210904761Y-47452380D01*
X211000000Y-47404761D01*
X211047619Y-47357142D01*
X211095238Y-47261904D01*
X211095238Y-47071428D01*
X211047619Y-46976190D01*
X211000000Y-46928571D01*
X210904761Y-46880952D01*
D12*
X112333333Y-45904761D02*
X112333333Y-47523809D01*
X112428571Y-47714285D01*
X112523809Y-47809523D01*
X112714285Y-47904761D01*
X113095238Y-47904761D01*
X113285714Y-47809523D01*
X113380952Y-47714285D01*
X113476190Y-47523809D01*
X113476190Y-45904761D01*
X114428571Y-46571428D02*
X114428571Y-47904761D01*
X114428571Y-46761904D02*
X114523809Y-46666666D01*
X114714285Y-46571428D01*
X115000000Y-46571428D01*
X115190476Y-46666666D01*
X115285714Y-46857142D01*
X115285714Y-47904761D01*
X116238095Y-47904761D02*
X116238095Y-46571428D01*
X116238095Y-45904761D02*
X116142857Y-46000000D01*
X116238095Y-46095238D01*
X116333333Y-46000000D01*
X116238095Y-45904761D01*
X116238095Y-46095238D01*
X117000000Y-46571428D02*
X117476190Y-47904761D01*
X117952380Y-46571428D01*
X119476190Y-47809523D02*
X119285714Y-47904761D01*
X118904761Y-47904761D01*
X118714285Y-47809523D01*
X118619047Y-47619047D01*
X118619047Y-46857142D01*
X118714285Y-46666666D01*
X118904761Y-46571428D01*
X119285714Y-46571428D01*
X119476190Y-46666666D01*
X119571428Y-46857142D01*
X119571428Y-47047619D01*
X118619047Y-47238095D01*
X120428571Y-47904761D02*
X120428571Y-46571428D01*
X120428571Y-46952380D02*
X120523809Y-46761904D01*
X120619047Y-46666666D01*
X120809523Y-46571428D01*
X121000000Y-46571428D01*
X121571428Y-47809523D02*
X121761904Y-47904761D01*
X122142857Y-47904761D01*
X122333333Y-47809523D01*
X122428571Y-47619047D01*
X122428571Y-47523809D01*
X122333333Y-47333333D01*
X122142857Y-47238095D01*
X121857142Y-47238095D01*
X121666666Y-47142857D01*
X121571428Y-46952380D01*
X121571428Y-46857142D01*
X121666666Y-46666666D01*
X121857142Y-46571428D01*
X122142857Y-46571428D01*
X122333333Y-46666666D01*
X124142857Y-47904761D02*
X124142857Y-46857142D01*
X124047619Y-46666666D01*
X123857142Y-46571428D01*
X123476190Y-46571428D01*
X123285714Y-46666666D01*
X124142857Y-47809523D02*
X123952380Y-47904761D01*
X123476190Y-47904761D01*
X123285714Y-47809523D01*
X123190476Y-47619047D01*
X123190476Y-47428571D01*
X123285714Y-47238095D01*
X123476190Y-47142857D01*
X123952380Y-47142857D01*
X124142857Y-47047619D01*
X125380952Y-47904761D02*
X125190476Y-47809523D01*
X125095238Y-47619047D01*
X125095238Y-45904761D01*
X128333333Y-46857142D02*
X128619047Y-46952380D01*
X128714285Y-47047619D01*
X128809523Y-47238095D01*
X128809523Y-47523809D01*
X128714285Y-47714285D01*
X128619047Y-47809523D01*
X128428571Y-47904761D01*
X127666666Y-47904761D01*
X127666666Y-45904761D01*
X128333333Y-45904761D01*
X128523809Y-46000000D01*
X128619047Y-46095238D01*
X128714285Y-46285714D01*
X128714285Y-46476190D01*
X128619047Y-46666666D01*
X128523809Y-46761904D01*
X128333333Y-46857142D01*
X127666666Y-46857142D01*
X130523809Y-46571428D02*
X130523809Y-47904761D01*
X129666666Y-46571428D02*
X129666666Y-47619047D01*
X129761904Y-47809523D01*
X129952380Y-47904761D01*
X130238095Y-47904761D01*
X130428571Y-47809523D01*
X130523809Y-47714285D01*
X131380952Y-47809523D02*
X131571428Y-47904761D01*
X131952380Y-47904761D01*
X132142857Y-47809523D01*
X132238095Y-47619047D01*
X132238095Y-47523809D01*
X132142857Y-47333333D01*
X131952380Y-47238095D01*
X131666666Y-47238095D01*
X131476190Y-47142857D01*
X131380952Y-46952380D01*
X131380952Y-46857142D01*
X131476190Y-46666666D01*
X131666666Y-46571428D01*
X131952380Y-46571428D01*
X132142857Y-46666666D01*
X133000000Y-47809523D02*
X133190476Y-47904761D01*
X133571428Y-47904761D01*
X133761904Y-47809523D01*
X133857142Y-47619047D01*
X133857142Y-47523809D01*
X133761904Y-47333333D01*
X133571428Y-47238095D01*
X133285714Y-47238095D01*
X133095238Y-47142857D01*
X133000000Y-46952380D01*
X133000000Y-46857142D01*
X133095238Y-46666666D01*
X133285714Y-46571428D01*
X133571428Y-46571428D01*
X133761904Y-46666666D01*
X134523809Y-46571428D02*
X135000000Y-47904761D01*
X135476190Y-46571428D02*
X135000000Y-47904761D01*
X134809523Y-48380952D01*
X134714285Y-48476190D01*
X134523809Y-48571428D01*
X136142857Y-47809523D02*
X136333333Y-47904761D01*
X136714285Y-47904761D01*
X136904761Y-47809523D01*
X137000000Y-47619047D01*
X137000000Y-47523809D01*
X136904761Y-47333333D01*
X136714285Y-47238095D01*
X136428571Y-47238095D01*
X136238095Y-47142857D01*
X136142857Y-46952380D01*
X136142857Y-46857142D01*
X136238095Y-46666666D01*
X136428571Y-46571428D01*
X136714285Y-46571428D01*
X136904761Y-46666666D01*
X137571428Y-46571428D02*
X138333333Y-46571428D01*
X137857142Y-45904761D02*
X137857142Y-47619047D01*
X137952380Y-47809523D01*
X138142857Y-47904761D01*
X138333333Y-47904761D01*
X139761904Y-47809523D02*
X139571428Y-47904761D01*
X139190476Y-47904761D01*
X139000000Y-47809523D01*
X138904761Y-47619047D01*
X138904761Y-46857142D01*
X139000000Y-46666666D01*
X139190476Y-46571428D01*
X139571428Y-46571428D01*
X139761904Y-46666666D01*
X139857142Y-46857142D01*
X139857142Y-47047619D01*
X138904761Y-47238095D01*
X140714285Y-47904761D02*
X140714285Y-46571428D01*
X140714285Y-46761904D02*
X140809523Y-46666666D01*
X141000000Y-46571428D01*
X141285714Y-46571428D01*
X141476190Y-46666666D01*
X141571428Y-46857142D01*
X141571428Y-47904761D01*
X141571428Y-46857142D02*
X141666666Y-46666666D01*
X141857142Y-46571428D01*
X142142857Y-46571428D01*
X142333333Y-46666666D01*
X142428571Y-46857142D01*
X142428571Y-47904761D01*
X145952380Y-47904761D02*
X144809523Y-47904761D01*
X145380952Y-47904761D02*
X145380952Y-45904761D01*
X145190476Y-46190476D01*
X145000000Y-46380952D01*
X144809523Y-46476190D01*
X147190476Y-45904761D02*
X147380952Y-45904761D01*
X147571428Y-46000000D01*
X147666666Y-46095238D01*
X147761904Y-46285714D01*
X147857142Y-46666666D01*
X147857142Y-47142857D01*
X147761904Y-47523809D01*
X147666666Y-47714285D01*
X147571428Y-47809523D01*
X147380952Y-47904761D01*
X147190476Y-47904761D01*
X147000000Y-47809523D01*
X146904761Y-47714285D01*
X146809523Y-47523809D01*
X146714285Y-47142857D01*
X146714285Y-46666666D01*
X146809523Y-46285714D01*
X146904761Y-46095238D01*
X147000000Y-46000000D01*
X147190476Y-45904761D01*
X148523809Y-47904761D02*
X149571428Y-46571428D01*
X148523809Y-46571428D02*
X149571428Y-47904761D01*
X159095238Y-47904761D02*
X158428571Y-46952380D01*
X157952380Y-47904761D02*
X157952380Y-45904761D01*
X158714285Y-45904761D01*
X158904761Y-46000000D01*
X158999999Y-46095238D01*
X159095238Y-46285714D01*
X159095238Y-46571428D01*
X158999999Y-46761904D01*
X158904761Y-46857142D01*
X158714285Y-46952380D01*
X157952380Y-46952380D01*
X160714285Y-47809523D02*
X160523809Y-47904761D01*
X160142857Y-47904761D01*
X159952380Y-47809523D01*
X159857142Y-47619047D01*
X159857142Y-46857142D01*
X159952380Y-46666666D01*
X160142857Y-46571428D01*
X160523809Y-46571428D01*
X160714285Y-46666666D01*
X160809523Y-46857142D01*
X160809523Y-47047619D01*
X159857142Y-47238095D01*
X161476190Y-46571428D02*
X161952380Y-47904761D01*
X162428571Y-46571428D01*
X165761904Y-47904761D02*
X164619047Y-47904761D01*
X165190476Y-47904761D02*
X165190476Y-45904761D01*
X164999999Y-46190476D01*
X164809523Y-46380952D01*
X164619047Y-46476190D01*
D13*
%TO.C,G\u002A\u002A\u002A*%
G36*
X115058800Y-90920000D02*
G01*
X115058800Y-91669615D01*
X117017490Y-91743057D01*
X117803445Y-93221192D01*
X118010808Y-93611496D01*
X118218856Y-94003672D01*
X118418545Y-94380628D01*
X118600831Y-94725276D01*
X118756670Y-95020526D01*
X118877020Y-95249288D01*
X118909649Y-95311564D01*
X119229898Y-95923800D01*
X117144349Y-93826954D01*
X115058800Y-91730107D01*
X115058800Y-92278461D01*
X115495054Y-92741892D01*
X115931309Y-93205324D01*
X115059081Y-94145800D01*
X115058940Y-95301500D01*
X115058800Y-96457200D01*
X114500000Y-96457200D01*
X114500000Y-90920000D01*
X115058800Y-90920000D01*
G37*
X115058800Y-90920000D02*
X115058800Y-91669615D01*
X117017490Y-91743057D01*
X117803445Y-93221192D01*
X118010808Y-93611496D01*
X118218856Y-94003672D01*
X118418545Y-94380628D01*
X118600831Y-94725276D01*
X118756670Y-95020526D01*
X118877020Y-95249288D01*
X118909649Y-95311564D01*
X119229898Y-95923800D01*
X117144349Y-93826954D01*
X115058800Y-91730107D01*
X115058800Y-92278461D01*
X115495054Y-92741892D01*
X115931309Y-93205324D01*
X115059081Y-94145800D01*
X115058940Y-95301500D01*
X115058800Y-96457200D01*
X114500000Y-96457200D01*
X114500000Y-90920000D01*
X115058800Y-90920000D01*
G36*
X110714073Y-94150958D02*
G01*
X110950554Y-93707594D01*
X111173985Y-93289983D01*
X111379563Y-92907014D01*
X111562485Y-92567574D01*
X111717948Y-92280554D01*
X111841146Y-92054839D01*
X111927278Y-91899321D01*
X111971539Y-91822885D01*
X111974935Y-91817882D01*
X112013620Y-91788126D01*
X112087882Y-91764536D01*
X112211048Y-91745587D01*
X112396445Y-91729758D01*
X112657402Y-91715525D01*
X112988700Y-91702049D01*
X113941200Y-91666837D01*
X113939117Y-93160319D01*
X113937035Y-94653800D01*
X113685426Y-94771802D01*
X113347462Y-94984051D01*
X113071161Y-95267206D01*
X112863847Y-95606323D01*
X112732845Y-95986459D01*
X112685480Y-96392673D01*
X112716627Y-96748257D01*
X112842422Y-97185545D01*
X113043250Y-97564068D01*
X113310916Y-97876667D01*
X113637227Y-98116183D01*
X114013989Y-98275457D01*
X114433008Y-98347329D01*
X114550800Y-98350821D01*
X114982702Y-98305153D01*
X115376349Y-98173818D01*
X115721970Y-97966287D01*
X116009795Y-97692030D01*
X116230053Y-97360519D01*
X116372974Y-96981226D01*
X116428788Y-96563621D01*
X116429194Y-96529921D01*
X116387333Y-96062087D01*
X116258048Y-95645869D01*
X116040766Y-95280279D01*
X115734908Y-94964333D01*
X115368711Y-94713194D01*
X115174321Y-94602778D01*
X116214785Y-93510676D01*
X117833091Y-94956133D01*
X118175792Y-95262967D01*
X118494177Y-95549448D01*
X118780398Y-95808413D01*
X119026613Y-96032698D01*
X119224974Y-96215139D01*
X119367637Y-96348574D01*
X119446758Y-96425838D01*
X119460442Y-96442095D01*
X119438878Y-96493590D01*
X119373564Y-96625610D01*
X119269126Y-96829337D01*
X119130184Y-97095951D01*
X118961363Y-97416632D01*
X118767286Y-97782561D01*
X118552576Y-98184917D01*
X118321856Y-98614882D01*
X118307477Y-98641600D01*
X118073317Y-99077286D01*
X117852501Y-99489330D01*
X117650006Y-99868361D01*
X117470811Y-100205006D01*
X117319894Y-100489894D01*
X117202231Y-100713651D01*
X117122801Y-100866905D01*
X117086582Y-100940285D01*
X117086376Y-100940771D01*
X117027283Y-101080941D01*
X114514487Y-101067771D01*
X112001691Y-101054600D01*
X110758083Y-98729007D01*
X109514476Y-96403413D01*
X110714073Y-94150958D01*
G37*
X110714073Y-94150958D02*
X110950554Y-93707594D01*
X111173985Y-93289983D01*
X111379563Y-92907014D01*
X111562485Y-92567574D01*
X111717948Y-92280554D01*
X111841146Y-92054839D01*
X111927278Y-91899321D01*
X111971539Y-91822885D01*
X111974935Y-91817882D01*
X112013620Y-91788126D01*
X112087882Y-91764536D01*
X112211048Y-91745587D01*
X112396445Y-91729758D01*
X112657402Y-91715525D01*
X112988700Y-91702049D01*
X113941200Y-91666837D01*
X113939117Y-93160319D01*
X113937035Y-94653800D01*
X113685426Y-94771802D01*
X113347462Y-94984051D01*
X113071161Y-95267206D01*
X112863847Y-95606323D01*
X112732845Y-95986459D01*
X112685480Y-96392673D01*
X112716627Y-96748257D01*
X112842422Y-97185545D01*
X113043250Y-97564068D01*
X113310916Y-97876667D01*
X113637227Y-98116183D01*
X114013989Y-98275457D01*
X114433008Y-98347329D01*
X114550800Y-98350821D01*
X114982702Y-98305153D01*
X115376349Y-98173818D01*
X115721970Y-97966287D01*
X116009795Y-97692030D01*
X116230053Y-97360519D01*
X116372974Y-96981226D01*
X116428788Y-96563621D01*
X116429194Y-96529921D01*
X116387333Y-96062087D01*
X116258048Y-95645869D01*
X116040766Y-95280279D01*
X115734908Y-94964333D01*
X115368711Y-94713194D01*
X115174321Y-94602778D01*
X116214785Y-93510676D01*
X117833091Y-94956133D01*
X118175792Y-95262967D01*
X118494177Y-95549448D01*
X118780398Y-95808413D01*
X119026613Y-96032698D01*
X119224974Y-96215139D01*
X119367637Y-96348574D01*
X119446758Y-96425838D01*
X119460442Y-96442095D01*
X119438878Y-96493590D01*
X119373564Y-96625610D01*
X119269126Y-96829337D01*
X119130184Y-97095951D01*
X118961363Y-97416632D01*
X118767286Y-97782561D01*
X118552576Y-98184917D01*
X118321856Y-98614882D01*
X118307477Y-98641600D01*
X118073317Y-99077286D01*
X117852501Y-99489330D01*
X117650006Y-99868361D01*
X117470811Y-100205006D01*
X117319894Y-100489894D01*
X117202231Y-100713651D01*
X117122801Y-100866905D01*
X117086582Y-100940285D01*
X117086376Y-100940771D01*
X117027283Y-101080941D01*
X114514487Y-101067771D01*
X112001691Y-101054600D01*
X110758083Y-98729007D01*
X109514476Y-96403413D01*
X110714073Y-94150958D01*
D10*
%TO.C,DRA2*%
X130000000Y-53500000D02*
X140000000Y-53500000D01*
X140000000Y-53500000D02*
X140000000Y-96500000D01*
X140000000Y-96500000D02*
X130000000Y-96500000D01*
X130000000Y-96500000D02*
X130000000Y-53500000D01*
X130000000Y-96500000D02*
X130000000Y-101500000D01*
X130000000Y-101500000D02*
X140000000Y-101500000D01*
X140000000Y-101500000D02*
X140000000Y-96500000D01*
%TO.C,DRA3*%
X50000000Y-53500000D02*
X60000000Y-53500000D01*
X60000000Y-53500000D02*
X60000000Y-96500000D01*
X60000000Y-96500000D02*
X50000000Y-96500000D01*
X50000000Y-96500000D02*
X50000000Y-53500000D01*
X50000000Y-96500000D02*
X50000000Y-101500000D01*
X50000000Y-101500000D02*
X60000000Y-101500000D01*
X60000000Y-101500000D02*
X60000000Y-96500000D01*
%TO.C,DRA1*%
X210000000Y-53500000D02*
X220000000Y-53500000D01*
X220000000Y-53500000D02*
X220000000Y-96500000D01*
X220000000Y-96500000D02*
X210000000Y-96500000D01*
X210000000Y-96500000D02*
X210000000Y-53500000D01*
X210000000Y-96500000D02*
X210000000Y-101500000D01*
X210000000Y-101500000D02*
X220000000Y-101500000D01*
X220000000Y-101500000D02*
X220000000Y-96500000D01*
D11*
%TO.C,J1*%
X40115000Y-106190000D02*
X40115000Y-50190000D01*
X40115000Y-50190000D02*
X48715000Y-50190000D01*
X48715000Y-50190000D02*
X48715000Y-52840000D01*
X48715000Y-103750000D02*
X48715000Y-106190000D01*
X48715000Y-106190000D02*
X46800000Y-106190000D01*
X43400000Y-106190000D02*
X40115000Y-106190000D01*
X46300000Y-49440000D02*
G75*
G03*
X46300000Y-49440000I-100000J0D01*
G01*
%TO.C,J2*%
X66300000Y-49440000D02*
G75*
G03*
X66300000Y-49440000I-100000J0D01*
G01*
X63400000Y-106190000D02*
X60115000Y-106190000D01*
X68715000Y-106190000D02*
X66800000Y-106190000D01*
X68715000Y-103750000D02*
X68715000Y-106190000D01*
X68715000Y-50190000D02*
X68715000Y-52840000D01*
X60115000Y-50190000D02*
X68715000Y-50190000D01*
X60115000Y-106190000D02*
X60115000Y-50190000D01*
%TO.C,J3*%
X80115000Y-106190000D02*
X80115000Y-50190000D01*
X80115000Y-50190000D02*
X88715000Y-50190000D01*
X88715000Y-50190000D02*
X88715000Y-52840000D01*
X88715000Y-103750000D02*
X88715000Y-106190000D01*
X88715000Y-106190000D02*
X86800000Y-106190000D01*
X83400000Y-106190000D02*
X80115000Y-106190000D01*
X86300000Y-49440000D02*
G75*
G03*
X86300000Y-49440000I-100000J0D01*
G01*
%TO.C,J4*%
X106300000Y-49440000D02*
G75*
G03*
X106300000Y-49440000I-100000J0D01*
G01*
X103400000Y-106190000D02*
X100115000Y-106190000D01*
X108715000Y-106190000D02*
X106800000Y-106190000D01*
X108715000Y-103750000D02*
X108715000Y-106190000D01*
X108715000Y-50190000D02*
X108715000Y-52840000D01*
X100115000Y-50190000D02*
X108715000Y-50190000D01*
X100115000Y-106190000D02*
X100115000Y-50190000D01*
%TO.C,J5*%
X120115000Y-106190000D02*
X120115000Y-50190000D01*
X120115000Y-50190000D02*
X128715000Y-50190000D01*
X128715000Y-50190000D02*
X128715000Y-52840000D01*
X128715000Y-103750000D02*
X128715000Y-106190000D01*
X128715000Y-106190000D02*
X126800000Y-106190000D01*
X123400000Y-106190000D02*
X120115000Y-106190000D01*
X126300000Y-49440000D02*
G75*
G03*
X126300000Y-49440000I-100000J0D01*
G01*
%TO.C,J6*%
X146300000Y-49440000D02*
G75*
G03*
X146300000Y-49440000I-100000J0D01*
G01*
X143400000Y-106190000D02*
X140115000Y-106190000D01*
X148715000Y-106190000D02*
X146800000Y-106190000D01*
X148715000Y-103750000D02*
X148715000Y-106190000D01*
X148715000Y-50190000D02*
X148715000Y-52840000D01*
X140115000Y-50190000D02*
X148715000Y-50190000D01*
X140115000Y-106190000D02*
X140115000Y-50190000D01*
%TO.C,J7*%
X160115000Y-106190000D02*
X160115000Y-50190000D01*
X160115000Y-50190000D02*
X168715000Y-50190000D01*
X168715000Y-50190000D02*
X168715000Y-52840000D01*
X168715000Y-103750000D02*
X168715000Y-106190000D01*
X168715000Y-106190000D02*
X166800000Y-106190000D01*
X163400000Y-106190000D02*
X160115000Y-106190000D01*
X166300000Y-49440000D02*
G75*
G03*
X166300000Y-49440000I-100000J0D01*
G01*
%TO.C,J8*%
X186300000Y-49440000D02*
G75*
G03*
X186300000Y-49440000I-100000J0D01*
G01*
X183400000Y-106190000D02*
X180115000Y-106190000D01*
X188715000Y-106190000D02*
X186800000Y-106190000D01*
X188715000Y-103750000D02*
X188715000Y-106190000D01*
X188715000Y-50190000D02*
X188715000Y-52840000D01*
X180115000Y-50190000D02*
X188715000Y-50190000D01*
X180115000Y-106190000D02*
X180115000Y-50190000D01*
%TO.C,J9*%
X200115000Y-106190000D02*
X200115000Y-50190000D01*
X200115000Y-50190000D02*
X208715000Y-50190000D01*
X208715000Y-50190000D02*
X208715000Y-52840000D01*
X208715000Y-103750000D02*
X208715000Y-106190000D01*
X208715000Y-106190000D02*
X206800000Y-106190000D01*
X203400000Y-106190000D02*
X200115000Y-106190000D01*
X206300000Y-49440000D02*
G75*
G03*
X206300000Y-49440000I-100000J0D01*
G01*
%TO.C,J10*%
X226300000Y-49440000D02*
G75*
G03*
X226300000Y-49440000I-100000J0D01*
G01*
X223400000Y-106190000D02*
X220115000Y-106190000D01*
X228715000Y-106190000D02*
X226800000Y-106190000D01*
X228715000Y-103750000D02*
X228715000Y-106190000D01*
X228715000Y-50190000D02*
X228715000Y-52840000D01*
X220115000Y-50190000D02*
X228715000Y-50190000D01*
X220115000Y-106190000D02*
X220115000Y-50190000D01*
%TO.C,G\u002A\u002A\u002A*%
D12*
X113738000Y-88906000D02*
X113665428Y-89051142D01*
X113665428Y-89268857D01*
X113738000Y-89486571D01*
X113883142Y-89631714D01*
X114028285Y-89704285D01*
X114318571Y-89776857D01*
X114536285Y-89776857D01*
X114826571Y-89704285D01*
X114971714Y-89631714D01*
X115116857Y-89486571D01*
X115189428Y-89268857D01*
X115189428Y-89123714D01*
X115116857Y-88906000D01*
X115044285Y-88833428D01*
X114536285Y-88833428D01*
X114536285Y-89123714D01*
X114173428Y-88325428D02*
X115189428Y-87962571D01*
X114173428Y-87599714D02*
X115189428Y-87962571D01*
X115552285Y-88107714D01*
X115624857Y-88180285D01*
X115697428Y-88325428D01*
X114173428Y-86366000D02*
X115189428Y-86366000D01*
X114173428Y-87019142D02*
X114971714Y-87019142D01*
X115116857Y-86946571D01*
X115189428Y-86801428D01*
X115189428Y-86583714D01*
X115116857Y-86438571D01*
X115044285Y-86366000D01*
X115189428Y-85640285D02*
X114173428Y-85640285D01*
X114463714Y-85640285D02*
X114318571Y-85567714D01*
X114246000Y-85495142D01*
X114173428Y-85350000D01*
X114173428Y-85204857D01*
X115189428Y-84696857D02*
X114173428Y-84696857D01*
X114318571Y-84696857D02*
X114246000Y-84624285D01*
X114173428Y-84479142D01*
X114173428Y-84261428D01*
X114246000Y-84116285D01*
X114391142Y-84043714D01*
X115189428Y-84043714D01*
X114391142Y-84043714D02*
X114246000Y-83971142D01*
X114173428Y-83826000D01*
X114173428Y-83608285D01*
X114246000Y-83463142D01*
X114391142Y-83390571D01*
X115189428Y-83390571D01*
X115189428Y-82011714D02*
X114391142Y-82011714D01*
X114246000Y-82084285D01*
X114173428Y-82229428D01*
X114173428Y-82519714D01*
X114246000Y-82664857D01*
X115116857Y-82011714D02*
X115189428Y-82156857D01*
X115189428Y-82519714D01*
X115116857Y-82664857D01*
X114971714Y-82737428D01*
X114826571Y-82737428D01*
X114681428Y-82664857D01*
X114608857Y-82519714D01*
X114608857Y-82156857D01*
X114536285Y-82011714D01*
X115116857Y-81358571D02*
X115189428Y-81213428D01*
X115189428Y-80923142D01*
X115116857Y-80778000D01*
X114971714Y-80705428D01*
X114899142Y-80705428D01*
X114754000Y-80778000D01*
X114681428Y-80923142D01*
X114681428Y-81140857D01*
X114608857Y-81286000D01*
X114463714Y-81358571D01*
X114391142Y-81358571D01*
X114246000Y-81286000D01*
X114173428Y-81140857D01*
X114173428Y-80923142D01*
X114246000Y-80778000D01*
X114391142Y-78891142D02*
X114391142Y-78383142D01*
X115189428Y-78165428D02*
X115189428Y-78891142D01*
X113665428Y-78891142D01*
X113665428Y-78165428D01*
X115189428Y-77294571D02*
X115116857Y-77439714D01*
X114971714Y-77512285D01*
X113665428Y-77512285D01*
X115116857Y-76133428D02*
X115189428Y-76278571D01*
X115189428Y-76568857D01*
X115116857Y-76714000D01*
X114971714Y-76786571D01*
X114391142Y-76786571D01*
X114246000Y-76714000D01*
X114173428Y-76568857D01*
X114173428Y-76278571D01*
X114246000Y-76133428D01*
X114391142Y-76060857D01*
X114536285Y-76060857D01*
X114681428Y-76786571D01*
X115116857Y-74754571D02*
X115189428Y-74899714D01*
X115189428Y-75190000D01*
X115116857Y-75335142D01*
X115044285Y-75407714D01*
X114899142Y-75480285D01*
X114463714Y-75480285D01*
X114318571Y-75407714D01*
X114246000Y-75335142D01*
X114173428Y-75190000D01*
X114173428Y-74899714D01*
X114246000Y-74754571D01*
X114173428Y-74319142D02*
X114173428Y-73738571D01*
X113665428Y-74101428D02*
X114971714Y-74101428D01*
X115116857Y-74028857D01*
X115189428Y-73883714D01*
X115189428Y-73738571D01*
X115189428Y-73230571D02*
X114173428Y-73230571D01*
X114463714Y-73230571D02*
X114318571Y-73158000D01*
X114246000Y-73085428D01*
X114173428Y-72940285D01*
X114173428Y-72795142D01*
X115189428Y-72069428D02*
X115116857Y-72214571D01*
X115044285Y-72287142D01*
X114899142Y-72359714D01*
X114463714Y-72359714D01*
X114318571Y-72287142D01*
X114246000Y-72214571D01*
X114173428Y-72069428D01*
X114173428Y-71851714D01*
X114246000Y-71706571D01*
X114318571Y-71634000D01*
X114463714Y-71561428D01*
X114899142Y-71561428D01*
X115044285Y-71634000D01*
X115116857Y-71706571D01*
X115189428Y-71851714D01*
X115189428Y-72069428D01*
X114173428Y-70908285D02*
X115189428Y-70908285D01*
X114318571Y-70908285D02*
X114246000Y-70835714D01*
X114173428Y-70690571D01*
X114173428Y-70472857D01*
X114246000Y-70327714D01*
X114391142Y-70255142D01*
X115189428Y-70255142D01*
X115189428Y-69529428D02*
X114173428Y-69529428D01*
X113665428Y-69529428D02*
X113738000Y-69602000D01*
X113810571Y-69529428D01*
X113738000Y-69456857D01*
X113665428Y-69529428D01*
X113810571Y-69529428D01*
X115189428Y-68948857D02*
X114173428Y-68150571D01*
X114173428Y-68948857D02*
X115189428Y-68150571D01*
%TO.C,DRA2*%
D10*
X131333333Y-83452380D02*
X131333333Y-82452380D01*
X131571428Y-82452380D01*
X131714285Y-82500000D01*
X131809523Y-82595238D01*
X131857142Y-82690476D01*
X131904761Y-82880952D01*
X131904761Y-83023809D01*
X131857142Y-83214285D01*
X131809523Y-83309523D01*
X131714285Y-83404761D01*
X131571428Y-83452380D01*
X131333333Y-83452380D01*
X132904761Y-83452380D02*
X132571428Y-82976190D01*
X132333333Y-83452380D02*
X132333333Y-82452380D01*
X132714285Y-82452380D01*
X132809523Y-82500000D01*
X132857142Y-82547619D01*
X132904761Y-82642857D01*
X132904761Y-82785714D01*
X132857142Y-82880952D01*
X132809523Y-82928571D01*
X132714285Y-82976190D01*
X132333333Y-82976190D01*
X133285714Y-83166666D02*
X133761904Y-83166666D01*
X133190476Y-83452380D02*
X133523809Y-82452380D01*
X133857142Y-83452380D01*
X134142857Y-82547619D02*
X134190476Y-82500000D01*
X134285714Y-82452380D01*
X134523809Y-82452380D01*
X134619047Y-82500000D01*
X134666666Y-82547619D01*
X134714285Y-82642857D01*
X134714285Y-82738095D01*
X134666666Y-82880952D01*
X134095238Y-83452380D01*
X134714285Y-83452380D01*
%TO.C,DRA3*%
X51333333Y-83452380D02*
X51333333Y-82452380D01*
X51571428Y-82452380D01*
X51714285Y-82500000D01*
X51809523Y-82595238D01*
X51857142Y-82690476D01*
X51904761Y-82880952D01*
X51904761Y-83023809D01*
X51857142Y-83214285D01*
X51809523Y-83309523D01*
X51714285Y-83404761D01*
X51571428Y-83452380D01*
X51333333Y-83452380D01*
X52904761Y-83452380D02*
X52571428Y-82976190D01*
X52333333Y-83452380D02*
X52333333Y-82452380D01*
X52714285Y-82452380D01*
X52809523Y-82500000D01*
X52857142Y-82547619D01*
X52904761Y-82642857D01*
X52904761Y-82785714D01*
X52857142Y-82880952D01*
X52809523Y-82928571D01*
X52714285Y-82976190D01*
X52333333Y-82976190D01*
X53285714Y-83166666D02*
X53761904Y-83166666D01*
X53190476Y-83452380D02*
X53523809Y-82452380D01*
X53857142Y-83452380D01*
X54095238Y-82452380D02*
X54714285Y-82452380D01*
X54380952Y-82833333D01*
X54523809Y-82833333D01*
X54619047Y-82880952D01*
X54666666Y-82928571D01*
X54714285Y-83023809D01*
X54714285Y-83261904D01*
X54666666Y-83357142D01*
X54619047Y-83404761D01*
X54523809Y-83452380D01*
X54238095Y-83452380D01*
X54142857Y-83404761D01*
X54095238Y-83357142D01*
%TO.C,DRA1*%
X211333333Y-83452380D02*
X211333333Y-82452380D01*
X211571428Y-82452380D01*
X211714285Y-82500000D01*
X211809523Y-82595238D01*
X211857142Y-82690476D01*
X211904761Y-82880952D01*
X211904761Y-83023809D01*
X211857142Y-83214285D01*
X211809523Y-83309523D01*
X211714285Y-83404761D01*
X211571428Y-83452380D01*
X211333333Y-83452380D01*
X212904761Y-83452380D02*
X212571428Y-82976190D01*
X212333333Y-83452380D02*
X212333333Y-82452380D01*
X212714285Y-82452380D01*
X212809523Y-82500000D01*
X212857142Y-82547619D01*
X212904761Y-82642857D01*
X212904761Y-82785714D01*
X212857142Y-82880952D01*
X212809523Y-82928571D01*
X212714285Y-82976190D01*
X212333333Y-82976190D01*
X213285714Y-83166666D02*
X213761904Y-83166666D01*
X213190476Y-83452380D02*
X213523809Y-82452380D01*
X213857142Y-83452380D01*
X214714285Y-83452380D02*
X214142857Y-83452380D01*
X214428571Y-83452380D02*
X214428571Y-82452380D01*
X214333333Y-82595238D01*
X214238095Y-82690476D01*
X214142857Y-82738095D01*
%TO.C,J1*%
D14*
X38217380Y-103158333D02*
X38931666Y-103158333D01*
X39074523Y-103205952D01*
X39169761Y-103301190D01*
X39217380Y-103444047D01*
X39217380Y-103539285D01*
X39217380Y-102158333D02*
X39217380Y-102729761D01*
X39217380Y-102444047D02*
X38217380Y-102444047D01*
X38360238Y-102539285D01*
X38455476Y-102634523D01*
X38503095Y-102729761D01*
%TO.C,J2*%
X58217380Y-103158333D02*
X58931666Y-103158333D01*
X59074523Y-103205952D01*
X59169761Y-103301190D01*
X59217380Y-103444047D01*
X59217380Y-103539285D01*
X58312619Y-102729761D02*
X58265000Y-102682142D01*
X58217380Y-102586904D01*
X58217380Y-102348809D01*
X58265000Y-102253571D01*
X58312619Y-102205952D01*
X58407857Y-102158333D01*
X58503095Y-102158333D01*
X58645952Y-102205952D01*
X59217380Y-102777380D01*
X59217380Y-102158333D01*
%TO.C,J3*%
X78217380Y-103158333D02*
X78931666Y-103158333D01*
X79074523Y-103205952D01*
X79169761Y-103301190D01*
X79217380Y-103444047D01*
X79217380Y-103539285D01*
X78217380Y-102777380D02*
X78217380Y-102158333D01*
X78598333Y-102491666D01*
X78598333Y-102348809D01*
X78645952Y-102253571D01*
X78693571Y-102205952D01*
X78788809Y-102158333D01*
X79026904Y-102158333D01*
X79122142Y-102205952D01*
X79169761Y-102253571D01*
X79217380Y-102348809D01*
X79217380Y-102634523D01*
X79169761Y-102729761D01*
X79122142Y-102777380D01*
%TO.C,J4*%
X98217380Y-103158333D02*
X98931666Y-103158333D01*
X99074523Y-103205952D01*
X99169761Y-103301190D01*
X99217380Y-103444047D01*
X99217380Y-103539285D01*
X98550714Y-102253571D02*
X99217380Y-102253571D01*
X98169761Y-102491666D02*
X98884047Y-102729761D01*
X98884047Y-102110714D01*
%TO.C,J5*%
X118217380Y-103158333D02*
X118931666Y-103158333D01*
X119074523Y-103205952D01*
X119169761Y-103301190D01*
X119217380Y-103444047D01*
X119217380Y-103539285D01*
X118217380Y-102205952D02*
X118217380Y-102682142D01*
X118693571Y-102729761D01*
X118645952Y-102682142D01*
X118598333Y-102586904D01*
X118598333Y-102348809D01*
X118645952Y-102253571D01*
X118693571Y-102205952D01*
X118788809Y-102158333D01*
X119026904Y-102158333D01*
X119122142Y-102205952D01*
X119169761Y-102253571D01*
X119217380Y-102348809D01*
X119217380Y-102586904D01*
X119169761Y-102682142D01*
X119122142Y-102729761D01*
%TO.C,J6*%
X138217380Y-103158333D02*
X138931666Y-103158333D01*
X139074523Y-103205952D01*
X139169761Y-103301190D01*
X139217380Y-103444047D01*
X139217380Y-103539285D01*
X138217380Y-102253571D02*
X138217380Y-102444047D01*
X138265000Y-102539285D01*
X138312619Y-102586904D01*
X138455476Y-102682142D01*
X138645952Y-102729761D01*
X139026904Y-102729761D01*
X139122142Y-102682142D01*
X139169761Y-102634523D01*
X139217380Y-102539285D01*
X139217380Y-102348809D01*
X139169761Y-102253571D01*
X139122142Y-102205952D01*
X139026904Y-102158333D01*
X138788809Y-102158333D01*
X138693571Y-102205952D01*
X138645952Y-102253571D01*
X138598333Y-102348809D01*
X138598333Y-102539285D01*
X138645952Y-102634523D01*
X138693571Y-102682142D01*
X138788809Y-102729761D01*
%TO.C,J7*%
X158217380Y-103158333D02*
X158931666Y-103158333D01*
X159074523Y-103205952D01*
X159169761Y-103301190D01*
X159217380Y-103444047D01*
X159217380Y-103539285D01*
X158217380Y-102777380D02*
X158217380Y-102110714D01*
X159217380Y-102539285D01*
%TO.C,J8*%
X178217380Y-103158333D02*
X178931666Y-103158333D01*
X179074523Y-103205952D01*
X179169761Y-103301190D01*
X179217380Y-103444047D01*
X179217380Y-103539285D01*
X178645952Y-102539285D02*
X178598333Y-102634523D01*
X178550714Y-102682142D01*
X178455476Y-102729761D01*
X178407857Y-102729761D01*
X178312619Y-102682142D01*
X178265000Y-102634523D01*
X178217380Y-102539285D01*
X178217380Y-102348809D01*
X178265000Y-102253571D01*
X178312619Y-102205952D01*
X178407857Y-102158333D01*
X178455476Y-102158333D01*
X178550714Y-102205952D01*
X178598333Y-102253571D01*
X178645952Y-102348809D01*
X178645952Y-102539285D01*
X178693571Y-102634523D01*
X178741190Y-102682142D01*
X178836428Y-102729761D01*
X179026904Y-102729761D01*
X179122142Y-102682142D01*
X179169761Y-102634523D01*
X179217380Y-102539285D01*
X179217380Y-102348809D01*
X179169761Y-102253571D01*
X179122142Y-102205952D01*
X179026904Y-102158333D01*
X178836428Y-102158333D01*
X178741190Y-102205952D01*
X178693571Y-102253571D01*
X178645952Y-102348809D01*
%TO.C,J9*%
X198217380Y-103158333D02*
X198931666Y-103158333D01*
X199074523Y-103205952D01*
X199169761Y-103301190D01*
X199217380Y-103444047D01*
X199217380Y-103539285D01*
X199217380Y-102634523D02*
X199217380Y-102444047D01*
X199169761Y-102348809D01*
X199122142Y-102301190D01*
X198979285Y-102205952D01*
X198788809Y-102158333D01*
X198407857Y-102158333D01*
X198312619Y-102205952D01*
X198265000Y-102253571D01*
X198217380Y-102348809D01*
X198217380Y-102539285D01*
X198265000Y-102634523D01*
X198312619Y-102682142D01*
X198407857Y-102729761D01*
X198645952Y-102729761D01*
X198741190Y-102682142D01*
X198788809Y-102634523D01*
X198836428Y-102539285D01*
X198836428Y-102348809D01*
X198788809Y-102253571D01*
X198741190Y-102205952D01*
X198645952Y-102158333D01*
%TO.C,J10*%
X218217380Y-103634523D02*
X218931666Y-103634523D01*
X219074523Y-103682142D01*
X219169761Y-103777380D01*
X219217380Y-103920238D01*
X219217380Y-104015476D01*
X219217380Y-102634523D02*
X219217380Y-103205952D01*
X219217380Y-102920238D02*
X218217380Y-102920238D01*
X218360238Y-103015476D01*
X218455476Y-103110714D01*
X218503095Y-103205952D01*
X218217380Y-102015476D02*
X218217380Y-101920238D01*
X218265000Y-101825000D01*
X218312619Y-101777380D01*
X218407857Y-101729761D01*
X218598333Y-101682142D01*
X218836428Y-101682142D01*
X219026904Y-101729761D01*
X219122142Y-101777380D01*
X219169761Y-101825000D01*
X219217380Y-101920238D01*
X219217380Y-102015476D01*
X219169761Y-102110714D01*
X219122142Y-102158333D01*
X219026904Y-102205952D01*
X218836428Y-102253571D01*
X218598333Y-102253571D01*
X218407857Y-102205952D01*
X218312619Y-102158333D01*
X218265000Y-102110714D01*
X218217380Y-102015476D01*
%TD*%
M02*
